ISO-10303-21;
HEADER;
FILE_DESCRIPTION (( 'STEP AP203' ),
    '1' );
FILE_NAME ('BUSHING 03_默认_sldprt.STEP',
    '2026-04-08T03:35:30',
    ( '' ),
    ( '' ),
    'SwSTEP 2.0',
    'SolidWorks 2022',
    '' );
FILE_SCHEMA (( 'CONFIG_CONTROL_DESIGN' ));
ENDSEC;

DATA;
#1 = CARTESIAN_POINT ( 'NONE',  ( 0.000000000000000000, 0.000000000000000000, 110.0000000000000000 ) ) ;
#2 = DATE_AND_TIME ( #43, #234 ) ;
#3 = VECTOR ( 'NONE', #145, 1000.000000000000000 ) ;
#4 = DIRECTION ( 'NONE',  ( 0.000000000000000000, 0.000000000000000000, -1.000000000000000000 ) ) ;
#5 = EDGE_CURVE ( 'NONE', #237, #108, #97, .T. ) ;
#6 = CARTESIAN_POINT ( 'NONE',  ( 0.000000000000000000, 0.000000000000000000, 110.0000000000000000 ) ) ;
#7 = COORDINATED_UNIVERSAL_TIME_OFFSET ( 8, 0, .AHEAD. ) ;
#8 = AXIS2_PLACEMENT_3D ( 'NONE', #15, #113, #183 ) ;
#9 = CLOSED_SHELL ( 'NONE', ( #162, #179, #134, #107, #55, #119 ) ) ;
#10 = EDGE_CURVE ( 'NONE', #81, #108, #228, .T. ) ;
#11 = AXIS2_PLACEMENT_3D ( 'NONE', #172, #44, #38 ) ;
#12 = DIRECTION ( 'NONE',  ( 0.000000000000000000, 0.000000000000000000, 1.000000000000000000 ) ) ;
#13 = AXIS2_PLACEMENT_3D ( 'NONE', #151, #36, #184 ) ;
#14 = CARTESIAN_POINT ( 'NONE',  ( -40.00000000000000000, 0.000000000000000000, 110.0000000000000000 ) ) ;
#15 = CARTESIAN_POINT ( 'NONE',  ( 0.000000000000000000, 0.000000000000000000, 0.000000000000000000 ) ) ;
#16 = EDGE_LOOP ( 'NONE', ( #28, #240 ) ) ;
#17 = DIRECTION ( 'NONE',  ( 1.000000000000000000, 0.000000000000000000, 0.000000000000000000 ) ) ;
#18 = COORDINATED_UNIVERSAL_TIME_OFFSET ( 8, 0, .AHEAD. ) ;
#19 = CARTESIAN_POINT ( 'NONE',  ( 40.00000000000000000, 4.898587196589413026E-15, 110.0000000000000000 ) ) ;
#20 = CC_DESIGN_APPROVAL ( #247, ( #219 ) ) ;
#21 = AXIS2_PLACEMENT_3D ( 'NONE', #170, #222, #168 ) ;
#22 = APPROVAL_ROLE ( '' ) ;
#23 = DIRECTION ( 'NONE',  ( 0.000000000000000000, 0.000000000000000000, 1.000000000000000000 ) ) ;
#24 = PRODUCT_DEFINITION_SHAPE ( 'NONE', 'NONE',  #219 ) ;
#25 = DIRECTION ( 'NONE',  ( 1.000000000000000000, 0.000000000000000000, 0.000000000000000000 ) ) ;
#26 = AXIS2_PLACEMENT_3D ( 'NONE', #185, #127, #32 ) ;
#27 = PERSON_AND_ORGANIZATION_ROLE ( 'design_supplier' ) ;
#28 = ORIENTED_EDGE ( 'NONE', *, *, #135, .F. ) ;
#29 = ORIENTED_EDGE ( 'NONE', *, *, #48, .F. ) ;
#30 = APPLICATION_PROTOCOL_DEFINITION ( 'international standard', 'config_control_design', 1994, #217 ) ;
#31 = APPROVAL_ROLE ( '' ) ;
#32 = DIRECTION ( 'NONE',  ( 1.000000000000000000, 0.000000000000000000, 0.000000000000000000 ) ) ;
#33 = LOCAL_TIME ( 11, 35, 30.00000000000000000, #176 ) ;
#34 = ORIENTED_EDGE ( 'NONE', *, *, #135, .T. ) ;
#35 = ORIENTED_EDGE ( 'NONE', *, *, #147, .F. ) ;
#36 = DIRECTION ( 'NONE',  ( 0.000000000000000000, 0.000000000000000000, 1.000000000000000000 ) ) ;
#37 = FACE_BOUND ( 'NONE', #202, .T. ) ;
#38 = DIRECTION ( 'NONE',  ( 1.000000000000000000, 0.000000000000000000, 0.000000000000000000 ) ) ;
#39 = EDGE_CURVE ( 'NONE', #65, #178, #137, .T. ) ;
#40 = FACE_OUTER_BOUND ( 'NONE', #114, .T. ) ;
#41 = PRODUCT_DEFINITION_FORMATION_WITH_SPECIFIED_SOURCE ( '任何', '', #76, .NOT_KNOWN. ) ;
#42 = DIRECTION ( 'NONE',  ( 1.000000000000000000, 0.000000000000000000, 0.000000000000000000 ) ) ;
#43 = CALENDAR_DATE ( 2026, 8, 4 ) ;
#44 = DIRECTION ( 'NONE',  ( 0.000000000000000000, 0.000000000000000000, 1.000000000000000000 ) ) ;
#45 = VERTEX_POINT ( 'NONE', #206 ) ;
#46 = EDGE_CURVE ( 'NONE', #130, #65, #224, .T. ) ;
#47 = ORIENTED_EDGE ( 'NONE', *, *, #93, .T. ) ;
#48 = EDGE_CURVE ( 'NONE', #108, #237, #243, .T. ) ;
#49 = ORIENTED_EDGE ( 'NONE', *, *, #216, .T. ) ;
#50 = FACE_OUTER_BOUND ( 'NONE', #123, .T. ) ;
#51 = PERSON_AND_ORGANIZATION_ROLE ( 'creator' ) ;
#52 = CARTESIAN_POINT ( 'NONE',  ( -40.00000000000000000, 0.000000000000000000, 0.000000000000000000 ) ) ;
#53 = CARTESIAN_POINT ( 'NONE',  ( 0.000000000000000000, 0.000000000000000000, 110.0000000000000000 ) ) ;
#54 = CIRCLE ( 'NONE', #189, 40.00000000000000000 ) ;
#55 = ADVANCED_FACE ( 'NONE', ( #94 ), #92, .T. ) ;
#56 = CARTESIAN_POINT ( 'NONE',  ( 0.000000000000000000, 0.000000000000000000, 110.0000000000000000 ) ) ;
#57 = DIRECTION ( 'NONE',  ( 0.000000000000000000, 0.000000000000000000, -1.000000000000000000 ) ) ;
#58 = APPROVAL_DATE_TIME ( #116, #82 ) ;
#59 = CARTESIAN_POINT ( 'NONE',  ( 0.000000000000000000, 0.000000000000000000, 110.0000000000000000 ) ) ;
#60 = CC_DESIGN_DATE_AND_TIME_ASSIGNMENT ( #214, #122, ( #188 ) ) ;
#61 = PERSON ( '未指定', '未指定', '未指定', ('未指定'), ('未指定'), ('未指定') ) ;
#62 = VECTOR ( 'NONE', #115, 1000.000000000000000 ) ;
#63 = APPLICATION_PROTOCOL_DEFINITION ( 'international standard', 'config_control_design', 1994, #85 ) ;
#64 = PERSON_AND_ORGANIZATION ( #61, #160 ) ;
#65 = VERTEX_POINT ( 'NONE', #52 ) ;
#66 = ORIENTED_EDGE ( 'NONE', *, *, #212, .F. ) ;
#67 = ORIENTED_EDGE ( 'NONE', *, *, #233, .F. ) ;
#68 = MANIFOLD_SOLID_BREP ( '输入1', #9 ) ;
#69 = ORIENTED_EDGE ( 'NONE', *, *, #10, .T. ) ;
#70 = CARTESIAN_POINT ( 'NONE',  ( 0.000000000000000000, 0.000000000000000000, 0.000000000000000000 ) ) ;
#71 = DIRECTION ( 'NONE',  ( 1.000000000000000000, 0.000000000000000000, 0.000000000000000000 ) ) ;
#72 = CC_DESIGN_APPROVAL ( #82, ( #41 ) ) ;
#73 = ORIENTED_EDGE ( 'NONE', *, *, #46, .T. ) ;
#74 = CARTESIAN_POINT ( 'NONE',  ( 30.00000000000000000, 3.673940397442059178E-15, 110.0000000000000000 ) ) ;
#75 = DIRECTION ( 'NONE',  ( 0.000000000000000000, 0.000000000000000000, 1.000000000000000000 ) ) ;
#76 = PRODUCT ( 'BUSHING 03_\X2\9ed88ba4\X0\_sldprt', 'BUSHING 03_\X2\9ed88ba4\X0\_sldprt', '', ( #118 ) ) ;
#77 = AXIS2_PLACEMENT_3D ( 'NONE', #56, #57, #201 ) ;
#78 = LINE ( 'NONE', #19, #227 ) ;
#79 = PERSON_AND_ORGANIZATION ( #61, #160 ) ;
#80 = CYLINDRICAL_SURFACE ( 'NONE', #199, 40.00000000000000000 ) ;
#81 = VERTEX_POINT ( 'NONE', #169 ) ;
#82 = APPROVAL ( #215, '未指定' ) ;
#83 = PERSON_AND_ORGANIZATION ( #61, #160 ) ;
#84 = CIRCLE ( 'NONE', #163, 30.00000000000000000 ) ;
#85 = APPLICATION_CONTEXT ( 'configuration controlled 3d designs of mechanical parts and assemblies' ) ;
#86 = CC_DESIGN_APPROVAL ( #95, ( #188 ) ) ;
#87 = PERSON_AND_ORGANIZATION_ROLE ( 'design_owner' ) ;
#88 = CIRCLE ( 'NONE', #26, 30.00000000000000000 ) ;
#89 = CYLINDRICAL_SURFACE ( 'NONE', #154, 30.00000000000000000 ) ;
#90 = APPROVAL_STATUS ( 'not_yet_approved' ) ;
#91 = DIRECTION ( 'NONE',  ( 0.000000000000000000, 0.000000000000000000, -1.000000000000000000 ) ) ;
#92 = CYLINDRICAL_SURFACE ( 'NONE', #77, 40.00000000000000000 ) ;
#93 = EDGE_CURVE ( 'NONE', #45, #130, #129, .T. ) ;
#94 = FACE_OUTER_BOUND ( 'NONE', #143, .T. ) ;
#95 = APPROVAL ( #157, '未指定' ) ;
#96 = ORIENTED_EDGE ( 'NONE', *, *, #93, .F. ) ;
#97 = CIRCLE ( 'NONE', #105, 30.00000000000000000 ) ;
#98 = DIRECTION ( 'NONE',  ( 1.000000000000000000, 0.000000000000000000, 0.000000000000000000 ) ) ;
#99 = CARTESIAN_POINT ( 'NONE',  ( 30.00000000000000000, 3.673940397442059178E-15, 0.000000000000000000 ) ) ;
#100 = CARTESIAN_POINT ( 'NONE',  ( 30.00000000000000000, 3.673940397442059178E-15, 110.0000000000000000 ) ) ;
#101 = PERSON_AND_ORGANIZATION_ROLE ( 'creator' ) ;
#102 =( NAMED_UNIT ( * ) PLANE_ANGLE_UNIT ( ) SI_UNIT ( $, .RADIAN. ) );
#103 = APPROVAL_ROLE ( '' ) ;
#104 = DESIGN_CONTEXT ( 'detailed design', #217, 'design' ) ;
#105 = AXIS2_PLACEMENT_3D ( 'NONE', #70, #205, #71 ) ;
#106 = SHAPE_DEFINITION_REPRESENTATION ( #24, #161 ) ;
#107 = ADVANCED_FACE ( 'NONE', ( #128, #37 ), #248, .F. ) ;
#108 = VERTEX_POINT ( 'NONE', #249 ) ;
#109 = VERTEX_POINT ( 'NONE', #74 ) ;
#110 = COORDINATED_UNIVERSAL_TIME_OFFSET ( 8, 0, .AHEAD. ) ;
#111 = PLANE ( 'NONE',  #204 ) ;
#112 = APPROVAL_PERSON_ORGANIZATION ( #79, #95, #103 ) ;
#113 = DIRECTION ( 'NONE',  ( 0.000000000000000000, 0.000000000000000000, 1.000000000000000000 ) ) ;
#114 = EDGE_LOOP ( 'NONE', ( #96, #221, #49, #131 ) ) ;
#115 = DIRECTION ( 'NONE',  ( 0.000000000000000000, 0.000000000000000000, -1.000000000000000000 ) ) ;
#116 = DATE_AND_TIME ( #208, #241 ) ;
#117 = DIRECTION ( 'NONE',  ( 1.000000000000000000, 0.000000000000000000, 0.000000000000000000 ) ) ;
#118 = MECHANICAL_CONTEXT ( 'NONE', #85, 'mechanical' ) ;
#119 = ADVANCED_FACE ( 'NONE', ( #50 ), #89, .F. ) ;
#120 = DATE_TIME_ROLE ( 'creation_date' ) ;
#121 = FACE_OUTER_BOUND ( 'NONE', #207, .T. ) ;
#122 = DATE_TIME_ROLE ( 'classification_date' ) ;
#123 = EDGE_LOOP ( 'NONE', ( #35, #177, #69, #220 ) ) ;
#124 = PERSON_AND_ORGANIZATION_ROLE ( 'classification_officer' ) ;
#125 = EDGE_CURVE ( 'NONE', #109, #81, #88, .T. ) ;
#126 =( GEOMETRIC_REPRESENTATION_CONTEXT ( 3 ) GLOBAL_UNCERTAINTY_ASSIGNED_CONTEXT ( ( #191 ) ) GLOBAL_UNIT_ASSIGNED_CONTEXT ( ( #171, #102, #231 ) ) REPRESENTATION_CONTEXT ( 'NONE', 'WORKASPACE' ) );
#127 = DIRECTION ( 'NONE',  ( 0.000000000000000000, 0.000000000000000000, 1.000000000000000000 ) ) ;
#128 = FACE_OUTER_BOUND ( 'NONE', #180, .T. ) ;
#129 = CIRCLE ( 'NONE', #21, 40.00000000000000000 ) ;
#130 = VERTEX_POINT ( 'NONE', #167 ) ;
#131 = ORIENTED_EDGE ( 'NONE', *, *, #46, .F. ) ;
#132 = CARTESIAN_POINT ( 'NONE',  ( 0.000000000000000000, 0.000000000000000000, 0.000000000000000000 ) ) ;
#133 = DIRECTION ( 'NONE',  ( 0.000000000000000000, 0.000000000000000000, -1.000000000000000000 ) ) ;
#134 = ADVANCED_FACE ( 'NONE', ( #148, #225 ), #111, .T. ) ;
#135 = EDGE_CURVE ( 'NONE', #81, #109, #84, .T. ) ;
#136 = DIRECTION ( 'NONE',  ( 0.000000000000000000, 0.000000000000000000, -1.000000000000000000 ) ) ;
#137 = CIRCLE ( 'NONE', #8, 40.00000000000000000 ) ;
#138 = CALENDAR_DATE ( 2026, 8, 4 ) ;
#139 = PERSON_AND_ORGANIZATION ( #61, #160 ) ;
#140 = ORIENTED_EDGE ( 'NONE', *, *, #48, .T. ) ;
#141 = APPROVAL_PERSON_ORGANIZATION ( #200, #247, #31 ) ;
#142 = SECURITY_CLASSIFICATION_LEVEL ( 'unclassified' ) ;
#143 = EDGE_LOOP ( 'NONE', ( #67, #66, #73, #196 ) ) ;
#144 = VECTOR ( 'NONE', #153, 1000.000000000000000 ) ;
#145 = DIRECTION ( 'NONE',  ( 0.000000000000000000, 0.000000000000000000, -1.000000000000000000 ) ) ;
#146 = ORIENTED_EDGE ( 'NONE', *, *, #39, .F. ) ;
#147 = EDGE_CURVE ( 'NONE', #109, #237, #156, .T. ) ;
#148 = FACE_OUTER_BOUND ( 'NONE', #245, .T. ) ;
#149 = CC_DESIGN_SECURITY_CLASSIFICATION ( #188, ( #41 ) ) ;
#150 = LOCAL_TIME ( 11, 35, 30.00000000000000000, #110 ) ;
#151 = CARTESIAN_POINT ( 'NONE',  ( 0.000000000000000000, 0.000000000000000000, 0.000000000000000000 ) ) ;
#152 = ORIENTED_EDGE ( 'NONE', *, *, #216, .F. ) ;
#153 = DIRECTION ( 'NONE',  ( 0.000000000000000000, 0.000000000000000000, -1.000000000000000000 ) ) ;
#154 = AXIS2_PLACEMENT_3D ( 'NONE', #246, #91, #229 ) ;
#155 = CC_DESIGN_PERSON_AND_ORGANIZATION_ASSIGNMENT ( #239, #87, ( #76 ) ) ;
#156 = LINE ( 'NONE', #100, #144 ) ;
#157 = APPROVAL_STATUS ( 'not_yet_approved' ) ;
#158 = CALENDAR_DATE ( 2026, 8, 4 ) ;
#159 = ORIENTED_EDGE ( 'NONE', *, *, #10, .F. ) ;
#160 = ORGANIZATION ( '未指定', '未指定', '' ) ;
#161 = ADVANCED_BREP_SHAPE_REPRESENTATION ( 'BUSHING 03_\X2\9ed88ba4\X0\_sldprt', ( #68, #11 ), #126 ) ;
#162 = ADVANCED_FACE ( 'NONE', ( #121 ), #213, .F. ) ;
#163 = AXIS2_PLACEMENT_3D ( 'NONE', #1, #75, #42 ) ;
#164 = ORIENTED_EDGE ( 'NONE', *, *, #212, .T. ) ;
#165 = CARTESIAN_POINT ( 'NONE',  ( -30.00000000000000000, 0.000000000000000000, 110.0000000000000000 ) ) ;
#166 = CC_DESIGN_DATE_AND_TIME_ASSIGNMENT ( #2, #120, ( #219 ) ) ;
#167 = CARTESIAN_POINT ( 'NONE',  ( -40.00000000000000000, 0.000000000000000000, 110.0000000000000000 ) ) ;
#168 = DIRECTION ( 'NONE',  ( 1.000000000000000000, 0.000000000000000000, 0.000000000000000000 ) ) ;
#169 = CARTESIAN_POINT ( 'NONE',  ( -30.00000000000000000, 0.000000000000000000, 110.0000000000000000 ) ) ;
#170 = CARTESIAN_POINT ( 'NONE',  ( 0.000000000000000000, 0.000000000000000000, 110.0000000000000000 ) ) ;
#171 =( LENGTH_UNIT ( ) NAMED_UNIT ( * ) SI_UNIT ( .MILLI., .METRE. ) );
#172 = CARTESIAN_POINT ( 'NONE',  ( 0.000000000000000000, 0.000000000000000000, 0.000000000000000000 ) ) ;
#173 = DIRECTION ( 'NONE',  ( 0.000000000000000000, 0.000000000000000000, 1.000000000000000000 ) ) ;
#174 = CARTESIAN_POINT ( 'NONE',  ( 40.00000000000000000, 4.898587196589413026E-15, 0.000000000000000000 ) ) ;
#175 = APPROVAL_DATE_TIME ( #236, #95 ) ;
#176 = COORDINATED_UNIVERSAL_TIME_OFFSET ( 8, 0, .AHEAD. ) ;
#177 = ORIENTED_EDGE ( 'NONE', *, *, #125, .T. ) ;
#178 = VERTEX_POINT ( 'NONE', #174 ) ;
#179 = ADVANCED_FACE ( 'NONE', ( #40 ), #80, .T. ) ;
#180 = EDGE_LOOP ( 'NONE', ( #146, #152 ) ) ;
#181 = LOCAL_TIME ( 11, 35, 30.00000000000000000, #194 ) ;
#182 = AXIS2_PLACEMENT_3D ( 'NONE', #6, #23, #17 ) ;
#183 = DIRECTION ( 'NONE',  ( 1.000000000000000000, 0.000000000000000000, 0.000000000000000000 ) ) ;
#184 = DIRECTION ( 'NONE',  ( 1.000000000000000000, 0.000000000000000000, 0.000000000000000000 ) ) ;
#185 = CARTESIAN_POINT ( 'NONE',  ( 0.000000000000000000, 0.000000000000000000, 110.0000000000000000 ) ) ;
#186 = CC_DESIGN_PERSON_AND_ORGANIZATION_ASSIGNMENT ( #203, #51, ( #219 ) ) ;
#187 = CC_DESIGN_PERSON_AND_ORGANIZATION_ASSIGNMENT ( #197, #124, ( #188 ) ) ;
#188 = SECURITY_CLASSIFICATION ( '', '', #142 ) ;
#189 = AXIS2_PLACEMENT_3D ( 'NONE', #210, #209, #25 ) ;
#190 = CARTESIAN_POINT ( 'NONE',  ( 0.000000000000000000, 0.000000000000000000, 110.0000000000000000 ) ) ;
#191 = UNCERTAINTY_MEASURE_WITH_UNIT (LENGTH_MEASURE( 1.000000000000000082E-05 ), #171, 'distance_accuracy_value', 'NONE');
#192 = APPROVAL_PERSON_ORGANIZATION ( #139, #82, #22 ) ;
#193 = AXIS2_PLACEMENT_3D ( 'NONE', #59, #133, #211 ) ;
#194 = COORDINATED_UNIVERSAL_TIME_OFFSET ( 8, 0, .AHEAD. ) ;
#195 = CC_DESIGN_PERSON_AND_ORGANIZATION_ASSIGNMENT ( #83, #101, ( #41 ) ) ;
#196 = ORIENTED_EDGE ( 'NONE', *, *, #39, .T. ) ;
#197 = PERSON_AND_ORGANIZATION ( #61, #160 ) ;
#198 = ORIENTED_EDGE ( 'NONE', *, *, #147, .T. ) ;
#199 = AXIS2_PLACEMENT_3D ( 'NONE', #190, #136, #232 ) ;
#200 = PERSON_AND_ORGANIZATION ( #61, #160 ) ;
#201 = DIRECTION ( 'NONE',  ( -1.000000000000000000, 0.000000000000000000, 0.000000000000000000 ) ) ;
#202 = EDGE_LOOP ( 'NONE', ( #140, #242 ) ) ;
#203 = PERSON_AND_ORGANIZATION ( #61, #160 ) ;
#204 = AXIS2_PLACEMENT_3D ( 'NONE', #53, #173, #98 ) ;
#205 = DIRECTION ( 'NONE',  ( 0.000000000000000000, 0.000000000000000000, 1.000000000000000000 ) ) ;
#206 = CARTESIAN_POINT ( 'NONE',  ( 40.00000000000000000, 4.898587196589413026E-15, 110.0000000000000000 ) ) ;
#207 = EDGE_LOOP ( 'NONE', ( #34, #198, #29, #159 ) ) ;
#208 = CALENDAR_DATE ( 2026, 8, 4 ) ;
#209 = DIRECTION ( 'NONE',  ( 0.000000000000000000, 0.000000000000000000, 1.000000000000000000 ) ) ;
#210 = CARTESIAN_POINT ( 'NONE',  ( 0.000000000000000000, 0.000000000000000000, 0.000000000000000000 ) ) ;
#211 = DIRECTION ( 'NONE',  ( -1.000000000000000000, 0.000000000000000000, 0.000000000000000000 ) ) ;
#212 = EDGE_CURVE ( 'NONE', #130, #45, #235, .T. ) ;
#213 = CYLINDRICAL_SURFACE ( 'NONE', #193, 30.00000000000000000 ) ;
#214 = DATE_AND_TIME ( #158, #181 ) ;
#215 = APPROVAL_STATUS ( 'not_yet_approved' ) ;
#216 = EDGE_CURVE ( 'NONE', #178, #65, #54, .T. ) ;
#217 = APPLICATION_CONTEXT ( 'configuration controlled 3d designs of mechanical parts and assemblies' ) ;
#218 = CC_DESIGN_PERSON_AND_ORGANIZATION_ASSIGNMENT ( #64, #27, ( #41 ) ) ;
#219 = PRODUCT_DEFINITION ( '未知', '', #41, #104 ) ;
#220 = ORIENTED_EDGE ( 'NONE', *, *, #5, .F. ) ;
#221 = ORIENTED_EDGE ( 'NONE', *, *, #233, .T. ) ;
#222 = DIRECTION ( 'NONE',  ( 0.000000000000000000, 0.000000000000000000, 1.000000000000000000 ) ) ;
#223 = DATE_AND_TIME ( #244, #150 ) ;
#224 = LINE ( 'NONE', #14, #3 ) ;
#225 = FACE_BOUND ( 'NONE', #16, .T. ) ;
#226 = APPROVAL_DATE_TIME ( #223, #247 ) ;
#227 = VECTOR ( 'NONE', #4, 1000.000000000000000 ) ;
#228 = LINE ( 'NONE', #165, #62 ) ;
#229 = DIRECTION ( 'NONE',  ( -1.000000000000000000, 0.000000000000000000, 0.000000000000000000 ) ) ;
#230 = AXIS2_PLACEMENT_3D ( 'NONE', #132, #12, #117 ) ;
#231 =( NAMED_UNIT ( * ) SI_UNIT ( $, .STERADIAN. ) SOLID_ANGLE_UNIT ( ) );
#232 = DIRECTION ( 'NONE',  ( -1.000000000000000000, 0.000000000000000000, 0.000000000000000000 ) ) ;
#233 = EDGE_CURVE ( 'NONE', #45, #178, #78, .T. ) ;
#234 = LOCAL_TIME ( 11, 35, 30.00000000000000000, #7 ) ;
#235 = CIRCLE ( 'NONE', #182, 40.00000000000000000 ) ;
#236 = DATE_AND_TIME ( #138, #33 ) ;
#237 = VERTEX_POINT ( 'NONE', #99 ) ;
#238 = PRODUCT_RELATED_PRODUCT_CATEGORY ( 'detail', '', ( #76 ) ) ;
#239 = PERSON_AND_ORGANIZATION ( #61, #160 ) ;
#240 = ORIENTED_EDGE ( 'NONE', *, *, #125, .F. ) ;
#241 = LOCAL_TIME ( 11, 35, 30.00000000000000000, #18 ) ;
#242 = ORIENTED_EDGE ( 'NONE', *, *, #5, .T. ) ;
#243 = CIRCLE ( 'NONE', #230, 30.00000000000000000 ) ;
#244 = CALENDAR_DATE ( 2026, 8, 4 ) ;
#245 = EDGE_LOOP ( 'NONE', ( #164, #47 ) ) ;
#246 = CARTESIAN_POINT ( 'NONE',  ( 0.000000000000000000, 0.000000000000000000, 110.0000000000000000 ) ) ;
#247 = APPROVAL ( #90, '未指定' ) ;
#248 = PLANE ( 'NONE',  #13 ) ;
#249 = CARTESIAN_POINT ( 'NONE',  ( -30.00000000000000000, 0.000000000000000000, 0.000000000000000000 ) ) ;
ENDSEC;
END-ISO-10303-21;
