ISO-10303-21;
HEADER;
FILE_DESCRIPTION (( 'STEP AP203' ),
    '1' );
FILE_NAME ('COVER 02_默认_sldprt.STEP',
    '2026-04-08T03:35:34',
    ( '' ),
    ( '' ),
    'SwSTEP 2.0',
    'SolidWorks 2022',
    '' );
FILE_SCHEMA (( 'CONFIG_CONTROL_DESIGN' ));
ENDSEC;

DATA;
#1 = DATE_TIME_ROLE ( 'creation_date' ) ;
#2 = DIRECTION ( 'NONE',  ( -1.000000000000000000, 0.000000000000000000, 0.000000000000000000 ) ) ;
#3 = CC_DESIGN_APPROVAL ( #152, ( #116 ) ) ;
#4 = VERTEX_POINT ( 'NONE', #100 ) ;
#5 = CC_DESIGN_DATE_AND_TIME_ASSIGNMENT ( #241, #1, ( #116 ) ) ;
#6 = CARTESIAN_POINT ( 'NONE',  ( 3052.559283902834977, 1293.126232147355950, 430.0000000000000000 ) ) ;
#7 = MECHANICAL_CONTEXT ( 'NONE', #220, 'mechanical' ) ;
#8 = CARTESIAN_POINT ( 'NONE',  ( 2722.163894248149973, 1925.885180988620050, 430.0000000000000000 ) ) ;
#9 = APPROVAL_DATE_TIME ( #189, #259 ) ;
#10 = VECTOR ( 'NONE', #203, 1000.000000000000000 ) ;
#11 = EDGE_CURVE ( 'NONE', #309, #260, #52, .T. ) ;
#12 = DIRECTION ( 'NONE',  ( 0.9536708087508388720, -0.3008521040918959999, 0.000000000000000000 ) ) ;
#13 = COORDINATED_UNIVERSAL_TIME_OFFSET ( 8, 0, .AHEAD. ) ;
#14 = CARTESIAN_POINT ( 'NONE',  ( 798.9516365339479762, 2532.596059668574981, 430.0000000000000000 ) ) ;
#15 = PERSON_AND_ORGANIZATION_ROLE ( 'classification_officer' ) ;
#16 = CARTESIAN_POINT ( 'NONE',  ( 798.9516365339479762, 2532.596059668574981, 430.0000000000000000 ) ) ;
#17 = ORIENTED_EDGE ( 'NONE', *, *, #148, .T. ) ;
#18 = VERTEX_POINT ( 'NONE', #147 ) ;
#19 = ORIENTED_EDGE ( 'NONE', *, *, #180, .T. ) ;
#20 = APPLICATION_PROTOCOL_DEFINITION ( 'international standard', 'config_control_design', 1994, #220 ) ;
#21 = EDGE_LOOP ( 'NONE', ( #278, #17, #213, #93 ) ) ;
#22 = ORIENTED_EDGE ( 'NONE', *, *, #106, .T. ) ;
#23 = AXIS2_PLACEMENT_3D ( 'NONE', #222, #49, #143 ) ;
#24 = EDGE_LOOP ( 'NONE', ( #166, #233, #304, #193 ) ) ;
#25 = DIRECTION ( 'NONE',  ( -0.9319916925480135061, 0.3624796339402933665, 0.000000000000000000 ) ) ;
#26 = CARTESIAN_POINT ( 'NONE',  ( 2707.809953618605050, 1930.413382125515000, 430.0000000000000000 ) ) ;
#27 = APPROVAL_ROLE ( '' ) ;
#28 = CC_DESIGN_DATE_AND_TIME_ASSIGNMENT ( #63, #65, ( #121 ) ) ;
#29 = ORIENTED_EDGE ( 'NONE', *, *, #57, .F. ) ;
#30 = CARTESIAN_POINT ( 'NONE',  ( 798.9516365339479762, 2532.596059668574981, 0.000000000000000000 ) ) ;
#31 = APPROVAL_DATE_TIME ( #221, #152 ) ;
#32 = CC_DESIGN_PERSON_AND_ORGANIZATION_ASSIGNMENT ( #81, #244, ( #46 ) ) ;
#33 = CARTESIAN_POINT ( 'NONE',  ( 2707.809953618605050, 1930.413382125515000, 430.0000000000000000 ) ) ;
#34 = CALENDAR_DATE ( 2026, 8, 4 ) ;
#35 = PRODUCT_RELATED_PRODUCT_CATEGORY ( 'detail', '', ( #46 ) ) ;
#36 = VECTOR ( 'NONE', #110, 1000.000000000000000 ) ;
#37 = DIRECTION ( 'NONE',  ( 1.000000000000000000, 0.000000000000000000, 0.000000000000000000 ) ) ;
#38 = DIRECTION ( 'NONE',  ( -1.000000000000000000, 0.000000000000000000, 0.000000000000000000 ) ) ;
#39 = ADVANCED_FACE ( 'NONE', ( #245 ), #96, .F. ) ;
#40 = CARTESIAN_POINT ( 'NONE',  ( 0.000000000000000000, 0.000000000000000000, 430.0000000000000000 ) ) ;
#41 = CC_DESIGN_PERSON_AND_ORGANIZATION_ASSIGNMENT ( #129, #291, ( #116 ) ) ;
#42 =( NAMED_UNIT ( * ) SI_UNIT ( $, .STERADIAN. ) SOLID_ANGLE_UNIT ( ) );
#43 = VERTEX_POINT ( 'NONE', #198 ) ;
#44 = EDGE_LOOP ( 'NONE', ( #94, #214, #47, #256 ) ) ;
#45 = ORIENTED_EDGE ( 'NONE', *, *, #88, .F. ) ;
#46 = PRODUCT ( 'COVER 02_\X2\9ed88ba4\X0\_sldprt', 'COVER 02_\X2\9ed88ba4\X0\_sldprt', '', ( #7 ) ) ;
#47 = ORIENTED_EDGE ( 'NONE', *, *, #51, .T. ) ;
#48 = PERSON ( '未指定', '未指定', '未指定', ('未指定'), ('未指定'), ('未指定') ) ;
#49 = DIRECTION ( 'NONE',  ( 0.000000000000000000, 0.000000000000000000, 1.000000000000000000 ) ) ;
#50 = DIRECTION ( 'NONE',  ( 0.000000000000000000, 0.000000000000000000, -1.000000000000000000 ) ) ;
#51 = EDGE_CURVE ( 'NONE', #306, #212, #201, .T. ) ;
#52 = LINE ( 'NONE', #218, #248 ) ;
#53 = CC_DESIGN_PERSON_AND_ORGANIZATION_ASSIGNMENT ( #302, #86, ( #305 ) ) ;
#54 = DIRECTION ( 'NONE',  ( -0.3624796339402933665, -0.9319916925480135061, 0.000000000000000000 ) ) ;
#55 = CALENDAR_DATE ( 2026, 8, 4 ) ;
#56 = PLANE ( 'NONE',  #205 ) ;
#57 = EDGE_CURVE ( 'NONE', #18, #306, #293, .T. ) ;
#58 = CARTESIAN_POINT ( 'NONE',  ( 3052.559283902834977, 1293.126232147355950, 0.000000000000000000 ) ) ;
#59 = DIRECTION ( 'NONE',  ( -1.000000000000000000, 0.000000000000000000, 0.000000000000000000 ) ) ;
#60 = SHAPE_DEFINITION_REPRESENTATION ( #72, #165 ) ;
#61 = DIRECTION ( 'NONE',  ( 0.000000000000000000, 0.000000000000000000, -1.000000000000000000 ) ) ;
#62 = LINE ( 'NONE', #301, #210 ) ;
#63 = DATE_AND_TIME ( #83, #284 ) ;
#64 = DIRECTION ( 'NONE',  ( 0.000000000000000000, 0.000000000000000000, 1.000000000000000000 ) ) ;
#65 = DATE_TIME_ROLE ( 'classification_date' ) ;
#66 = CIRCLE ( 'NONE', #23, 534.3876599837477670 ) ;
#67 = EDGE_CURVE ( 'NONE', #4, #306, #287, .T. ) ;
#68 = EDGE_LOOP ( 'NONE', ( #69, #236, #283, #237, #194, #208 ) ) ;
#69 = ORIENTED_EDGE ( 'NONE', *, *, #281, .F. ) ;
#70 = AXIS2_PLACEMENT_3D ( 'NONE', #253, #184, #37 ) ;
#71 = ORIENTED_EDGE ( 'NONE', *, *, #57, .T. ) ;
#72 = PRODUCT_DEFINITION_SHAPE ( 'NONE', 'NONE',  #116 ) ;
#73 = CARTESIAN_POINT ( 'NONE',  ( 2214.624727957469986, -861.3342448476710160, 430.0000000000000000 ) ) ;
#74 = CARTESIAN_POINT ( 'NONE',  ( 2694.063164578962187, 1808.283703845979971, 430.0000000000000000 ) ) ;
#75 = CC_DESIGN_APPROVAL ( #177, ( #121 ) ) ;
#76 = FACE_OUTER_BOUND ( 'NONE', #24, .T. ) ;
#77 = CARTESIAN_POINT ( 'NONE',  ( 3057.997199688729779, 1307.107962050741889, 0.000000000000000000 ) ) ;
#78 = ADVANCED_FACE ( 'NONE', ( #76 ), #95, .F. ) ;
#79 = CYLINDRICAL_SURFACE ( 'NONE', #178, 549.3876599837479944 ) ;
#80 = CIRCLE ( 'NONE', #104, 534.3876599837477670 ) ;
#81 = PERSON_AND_ORGANIZATION ( #48, #295 ) ;
#82 = CC_DESIGN_APPROVAL ( #259, ( #305 ) ) ;
#83 = CALENDAR_DATE ( 2026, 8, 4 ) ;
#84 = COORDINATED_UNIVERSAL_TIME_OFFSET ( 8, 0, .AHEAD. ) ;
#85 = FACE_OUTER_BOUND ( 'NONE', #44, .T. ) ;
#86 = PERSON_AND_ORGANIZATION_ROLE ( 'design_supplier' ) ;
#87 = DIRECTION ( 'NONE',  ( -0.9536708087508387610, 0.3008521040918959444, 0.000000000000000000 ) ) ;
#88 = EDGE_CURVE ( 'NONE', #310, #91, #141, .T. ) ;
#89 = AXIS2_PLACEMENT_3D ( 'NONE', #197, #120, #2 ) ;
#90 = VERTEX_POINT ( 'NONE', #26 ) ;
#91 = VERTEX_POINT ( 'NONE', #77 ) ;
#92 = EDGE_CURVE ( 'NONE', #90, #4, #303, .T. ) ;
#93 = ORIENTED_EDGE ( 'NONE', *, *, #290, .F. ) ;
#94 = ORIENTED_EDGE ( 'NONE', *, *, #175, .F. ) ;
#95 = CYLINDRICAL_SURFACE ( 'NONE', #277, 534.3876599837477670 ) ;
#96 = CYLINDRICAL_SURFACE ( 'NONE', #89, 534.3876599837477670 ) ;
#97 = PERSON_AND_ORGANIZATION ( #48, #295 ) ;
#98 = ORIENTED_EDGE ( 'NONE', *, *, #286, .F. ) ;
#99 = LOCAL_TIME ( 11, 35, 34.00000000000000000, #270 ) ;
#100 = CARTESIAN_POINT ( 'NONE',  ( 2694.063164578962187, 1808.283703845979971, 430.0000000000000000 ) ) ;
#101 = DIRECTION ( 'NONE',  ( 0.000000000000000000, 0.000000000000000000, -1.000000000000000000 ) ) ;
#102 = CARTESIAN_POINT ( 'NONE',  ( 3057.997199688729779, 1307.107962050741889, 430.0000000000000000 ) ) ;
#103 = PERSON_AND_ORGANIZATION ( #48, #295 ) ;
#104 = AXIS2_PLACEMENT_3D ( 'NONE', #135, #247, #268 ) ;
#105 = FACE_OUTER_BOUND ( 'NONE', #265, .T. ) ;
#106 = EDGE_CURVE ( 'NONE', #260, #43, #171, .T. ) ;
#107 = DIRECTION ( 'NONE',  ( 0.000000000000000000, 0.000000000000000000, 1.000000000000000000 ) ) ;
#108 = LINE ( 'NONE', #33, #10 ) ;
#109 = PERSON_AND_ORGANIZATION_ROLE ( 'creator' ) ;
#110 = DIRECTION ( 'NONE',  ( 0.000000000000000000, 0.000000000000000000, -1.000000000000000000 ) ) ;
#111 = ADVANCED_FACE ( 'NONE', ( #170 ), #285, .F. ) ;
#112 = ORIENTED_EDGE ( 'NONE', *, *, #11, .T. ) ;
#113 = AXIS2_PLACEMENT_3D ( 'NONE', #223, #145, #174 ) ;
#114 = ORIENTED_EDGE ( 'NONE', *, *, #156, .T. ) ;
#115 = APPROVAL_PERSON_ORGANIZATION ( #155, #177, #131 ) ;
#116 = PRODUCT_DEFINITION ( '未知', '', #305, #160 ) ;
#117 = CARTESIAN_POINT ( 'NONE',  ( 0.000000000000000000, 0.000000000000000000, 0.000000000000000000 ) ) ;
#118 = ORIENTED_EDGE ( 'NONE', *, *, #257, .T. ) ;
#119 = AXIS2_PLACEMENT_3D ( 'NONE', #273, #271, #161 ) ;
#120 = DIRECTION ( 'NONE',  ( 0.000000000000000000, 0.000000000000000000, -1.000000000000000000 ) ) ;
#121 = SECURITY_CLASSIFICATION ( '', '', #276 ) ;
#122 = EDGE_CURVE ( 'NONE', #140, #43, #126, .T. ) ;
#123 = VERTEX_POINT ( 'NONE', #6 ) ;
#124 = CARTESIAN_POINT ( 'NONE',  ( 2709.063164578962642, 1808.283703845979971, 430.0000000000000000 ) ) ;
#125 = COORDINATED_UNIVERSAL_TIME_OFFSET ( 8, 0, .AHEAD. ) ;
#126 = LINE ( 'NONE', #124, #216 ) ;
#127 = DIRECTION ( 'NONE',  ( 0.000000000000000000, 0.000000000000000000, 1.000000000000000000 ) ) ;
#128 = DIRECTION ( 'NONE',  ( 0.000000000000000000, 0.000000000000000000, 1.000000000000000000 ) ) ;
#129 = PERSON_AND_ORGANIZATION ( #48, #295 ) ;
#130 =( LENGTH_UNIT ( ) NAMED_UNIT ( * ) SI_UNIT ( .MILLI., .METRE. ) );
#131 = APPROVAL_ROLE ( '' ) ;
#132 = AXIS2_PLACEMENT_3D ( 'NONE', #117, #64, #190 ) ;
#133 = FACE_OUTER_BOUND ( 'NONE', #168, .T. ) ;
#134 = CC_DESIGN_PERSON_AND_ORGANIZATION_ASSIGNMENT ( #103, #109, ( #305 ) ) ;
#135 = CARTESIAN_POINT ( 'NONE',  ( 3243.450824562710295, 1808.283703845979971, 0.000000000000000000 ) ) ;
#136 = DIRECTION ( 'NONE',  ( 1.000000000000000000, 0.000000000000000000, 0.000000000000000000 ) ) ;
#137 = VECTOR ( 'NONE', #153, 999.9999999999998863 ) ;
#138 = ORIENTED_EDGE ( 'NONE', *, *, #51, .F. ) ;
#139 = ORIENTED_EDGE ( 'NONE', *, *, #286, .T. ) ;
#140 = VERTEX_POINT ( 'NONE', #261 ) ;
#141 = LINE ( 'NONE', #289, #282 ) ;
#142 = CIRCLE ( 'NONE', #119, 549.3876599837479944 ) ;
#143 = DIRECTION ( 'NONE',  ( 1.000000000000000000, 0.000000000000000000, 0.000000000000000000 ) ) ;
#144 = CALENDAR_DATE ( 2026, 8, 4 ) ;
#145 = DIRECTION ( 'NONE',  ( 0.000000000000000000, 0.000000000000000000, 1.000000000000000000 ) ) ;
#146 = APPROVAL_ROLE ( '' ) ;
#147 = CARTESIAN_POINT ( 'NONE',  ( 2707.809953618605050, 1930.413382125515000, 0.000000000000000000 ) ) ;
#148 = EDGE_CURVE ( 'NONE', #140, #310, #66, .T. ) ;
#149 = AXIS2_PLACEMENT_3D ( 'NONE', #266, #242, #263 ) ;
#150 = ORIENTED_EDGE ( 'NONE', *, *, #290, .T. ) ;
#151 = APPROVAL_PERSON_ORGANIZATION ( #97, #259, #146 ) ;
#152 = APPROVAL ( #173, '未指定' ) ;
#153 = DIRECTION ( 'NONE',  ( 0.9536708087508388720, -0.3008521040918959999, 0.000000000000000000 ) ) ;
#154 = PLANE ( 'NONE',  #70 ) ;
#155 = PERSON_AND_ORGANIZATION ( #48, #295 ) ;
#156 = EDGE_CURVE ( 'NONE', #123, #212, #240, .T. ) ;
#157 = LINE ( 'NONE', #228, #267 ) ;
#158 = CC_DESIGN_SECURITY_CLASSIFICATION ( #121, ( #305 ) ) ;
#159 = DIRECTION ( 'NONE',  ( 0.3624796339402933665, 0.9319916925480135061, 0.000000000000000000 ) ) ;
#160 = DESIGN_CONTEXT ( 'detailed design', #307, 'design' ) ;
#161 = DIRECTION ( 'NONE',  ( 1.000000000000000000, 0.000000000000000000, 0.000000000000000000 ) ) ;
#162 = APPROVAL_STATUS ( 'not_yet_approved' ) ;
#163 = AXIS2_PLACEMENT_3D ( 'NONE', #288, #127, #311 ) ;
#164 = AXIS2_PLACEMENT_3D ( 'NONE', #73, #25, #54 ) ;
#165 = ADVANCED_BREP_SHAPE_REPRESENTATION ( 'COVER 02_\X2\9ed88ba4\X0\_sldprt', ( #274, #132 ), #269 ) ;
#166 = ORIENTED_EDGE ( 'NONE', *, *, #281, .T. ) ;
#167 = ADVANCED_FACE ( 'NONE', ( #105 ), #56, .T. ) ;
#168 = EDGE_LOOP ( 'NONE', ( #196, #255, #19, #71 ) ) ;
#169 = DIRECTION ( 'NONE',  ( 0.000000000000000000, 0.000000000000000000, -1.000000000000000000 ) ) ;
#170 = FACE_OUTER_BOUND ( 'NONE', #280, .T. ) ;
#171 = CIRCLE ( 'NONE', #113, 534.3876599837477670 ) ;
#172 = CARTESIAN_POINT ( 'NONE',  ( 3243.450824562710295, 1808.283703845979971, 430.0000000000000000 ) ) ;
#173 = APPROVAL_STATUS ( 'not_yet_approved' ) ;
#174 = DIRECTION ( 'NONE',  ( 1.000000000000000000, 0.000000000000000000, 0.000000000000000000 ) ) ;
#175 = EDGE_CURVE ( 'NONE', #4, #123, #142, .T. ) ;
#176 = CARTESIAN_POINT ( 'NONE',  ( 3243.450824562710295, 1808.283703845979971, 0.000000000000000000 ) ) ;
#177 = APPROVAL ( #162, '未指定' ) ;
#178 = AXIS2_PLACEMENT_3D ( 'NONE', #296, #61, #38 ) ;
#179 = CARTESIAN_POINT ( 'NONE',  ( 3052.559283902834977, 1293.126232147355950, 430.0000000000000000 ) ) ;
#180 = EDGE_CURVE ( 'NONE', #90, #18, #108, .T. ) ;
#181 =( NAMED_UNIT ( * ) PLANE_ANGLE_UNIT ( ) SI_UNIT ( $, .RADIAN. ) );
#182 = COORDINATED_UNIVERSAL_TIME_OFFSET ( 8, 0, .AHEAD. ) ;
#183 = DIRECTION ( 'NONE',  ( 0.000000000000000000, 0.000000000000000000, -1.000000000000000000 ) ) ;
#184 = DIRECTION ( 'NONE',  ( 0.000000000000000000, 0.000000000000000000, 1.000000000000000000 ) ) ;
#185 = LOCAL_TIME ( 11, 35, 34.00000000000000000, #84 ) ;
#186 = LINE ( 'NONE', #14, #137 ) ;
#187 = PERSON_AND_ORGANIZATION ( #48, #295 ) ;
#188 = ADVANCED_FACE ( 'NONE', ( #133 ), #207, .T. ) ;
#189 = DATE_AND_TIME ( #34, #250 ) ;
#190 = DIRECTION ( 'NONE',  ( 1.000000000000000000, 0.000000000000000000, 0.000000000000000000 ) ) ;
#191 = AXIS2_PLACEMENT_3D ( 'NONE', #40, #107, #226 ) ;
#192 = EDGE_LOOP ( 'NONE', ( #22, #150, #258, #138, #29, #139 ) ) ;
#193 = ORIENTED_EDGE ( 'NONE', *, *, #11, .F. ) ;
#194 = ORIENTED_EDGE ( 'NONE', *, *, #209, .T. ) ;
#195 = DIRECTION ( 'NONE',  ( -1.000000000000000000, 0.000000000000000000, 0.000000000000000000 ) ) ;
#196 = ORIENTED_EDGE ( 'NONE', *, *, #67, .F. ) ;
#197 = CARTESIAN_POINT ( 'NONE',  ( 3243.450824562710295, 1808.283703845979971, 430.0000000000000000 ) ) ;
#198 = CARTESIAN_POINT ( 'NONE',  ( 2709.063164578962642, 1808.283703845979971, 0.000000000000000000 ) ) ;
#199 = APPLICATION_PROTOCOL_DEFINITION ( 'international standard', 'config_control_design', 1994, #307 ) ;
#200 = ORIENTED_EDGE ( 'NONE', *, *, #224, .T. ) ;
#201 = CIRCLE ( 'NONE', #163, 549.3876599837479944 ) ;
#202 = PERSON_AND_ORGANIZATION ( #48, #295 ) ;
#203 = DIRECTION ( 'NONE',  ( 0.000000000000000000, 0.000000000000000000, -1.000000000000000000 ) ) ;
#204 = DIRECTION ( 'NONE',  ( 0.3624796339402933665, 0.9319916925480135061, 0.000000000000000000 ) ) ;
#205 = AXIS2_PLACEMENT_3D ( 'NONE', #16, #272, #87 ) ;
#206 = PLANE ( 'NONE',  #191 ) ;
#207 = CYLINDRICAL_SURFACE ( 'NONE', #254, 549.3876599837479944 ) ;
#208 = ORIENTED_EDGE ( 'NONE', *, *, #148, .F. ) ;
#209 = EDGE_CURVE ( 'NONE', #123, #310, #157, .T. ) ;
#210 = VECTOR ( 'NONE', #204, 1000.000000000000000 ) ;
#211 = ORIENTED_EDGE ( 'NONE', *, *, #209, .F. ) ;
#212 = VERTEX_POINT ( 'NONE', #58 ) ;
#213 = ORIENTED_EDGE ( 'NONE', *, *, #88, .T. ) ;
#214 = ORIENTED_EDGE ( 'NONE', *, *, #67, .T. ) ;
#215 = VECTOR ( 'NONE', #12, 999.9999999999998863 ) ;
#216 = VECTOR ( 'NONE', #219, 1000.000000000000000 ) ;
#217 = DIRECTION ( 'NONE',  ( 0.000000000000000000, 0.000000000000000000, 1.000000000000000000 ) ) ;
#218 = CARTESIAN_POINT ( 'NONE',  ( 2722.163894248149973, 1925.885180988620050, 430.0000000000000000 ) ) ;
#219 = DIRECTION ( 'NONE',  ( 0.000000000000000000, 0.000000000000000000, -1.000000000000000000 ) ) ;
#220 = APPLICATION_CONTEXT ( 'configuration controlled 3d designs of mechanical parts and assemblies' ) ;
#221 = DATE_AND_TIME ( #55, #99 ) ;
#222 = CARTESIAN_POINT ( 'NONE',  ( 3243.450824562710295, 1808.283703845979971, 430.0000000000000000 ) ) ;
#223 = CARTESIAN_POINT ( 'NONE',  ( 3243.450824562710295, 1808.283703845979971, 0.000000000000000000 ) ) ;
#224 = EDGE_CURVE ( 'NONE', #90, #309, #186, .T. ) ;
#225 = FACE_OUTER_BOUND ( 'NONE', #68, .T. ) ;
#226 = DIRECTION ( 'NONE',  ( 1.000000000000000000, 0.000000000000000000, 0.000000000000000000 ) ) ;
#227 = CALENDAR_DATE ( 2026, 8, 4 ) ;
#228 = CARTESIAN_POINT ( 'NONE',  ( 2214.624727957469986, -861.3342448476710160, 430.0000000000000000 ) ) ;
#229 = ADVANCED_FACE ( 'NONE', ( #249 ), #154, .F. ) ;
#230 = VECTOR ( 'NONE', #101, 1000.000000000000000 ) ;
#231 = LINE ( 'NONE', #30, #215 ) ;
#232 = ORIENTED_EDGE ( 'NONE', *, *, #180, .F. ) ;
#233 = ORIENTED_EDGE ( 'NONE', *, *, #122, .T. ) ;
#234 = APPROVAL_PERSON_ORGANIZATION ( #202, #152, #27 ) ;
#235 = ADVANCED_FACE ( 'NONE', ( #225 ), #206, .T. ) ;
#236 = ORIENTED_EDGE ( 'NONE', *, *, #224, .F. ) ;
#237 = ORIENTED_EDGE ( 'NONE', *, *, #175, .T. ) ;
#238 = AXIS2_PLACEMENT_3D ( 'NONE', #275, #128, #136 ) ;
#239 = LOCAL_TIME ( 11, 35, 34.00000000000000000, #182 ) ;
#240 = LINE ( 'NONE', #179, #36 ) ;
#241 = DATE_AND_TIME ( #144, #185 ) ;
#242 = DIRECTION ( 'NONE',  ( 0.000000000000000000, 0.000000000000000000, 1.000000000000000000 ) ) ;
#243 = DIRECTION ( 'NONE',  ( 1.000000000000000000, 0.000000000000000000, 0.000000000000000000 ) ) ;
#244 = PERSON_AND_ORGANIZATION_ROLE ( 'design_owner' ) ;
#245 = FACE_OUTER_BOUND ( 'NONE', #21, .T. ) ;
#246 = CARTESIAN_POINT ( 'NONE',  ( 2694.063164578962187, 1808.283703845979971, 0.000000000000000000 ) ) ;
#247 = DIRECTION ( 'NONE',  ( 0.000000000000000000, 0.000000000000000000, 1.000000000000000000 ) ) ;
#248 = VECTOR ( 'NONE', #169, 1000.000000000000000 ) ;
#249 = FACE_OUTER_BOUND ( 'NONE', #192, .T. ) ;
#250 = LOCAL_TIME ( 11, 35, 34.00000000000000000, #125 ) ;
#251 = CARTESIAN_POINT ( 'NONE',  ( 3243.450824562710295, 1808.283703845979971, 430.0000000000000000 ) ) ;
#252 = CC_DESIGN_PERSON_AND_ORGANIZATION_ASSIGNMENT ( #187, #15, ( #121 ) ) ;
#253 = CARTESIAN_POINT ( 'NONE',  ( 0.000000000000000000, 0.000000000000000000, 0.000000000000000000 ) ) ;
#254 = AXIS2_PLACEMENT_3D ( 'NONE', #251, #183, #59 ) ;
#255 = ORIENTED_EDGE ( 'NONE', *, *, #92, .F. ) ;
#256 = ORIENTED_EDGE ( 'NONE', *, *, #156, .F. ) ;
#257 = EDGE_CURVE ( 'NONE', #212, #91, #62, .T. ) ;
#258 = ORIENTED_EDGE ( 'NONE', *, *, #257, .F. ) ;
#259 = APPROVAL ( #264, '未指定' ) ;
#260 = VERTEX_POINT ( 'NONE', #299 ) ;
#261 = CARTESIAN_POINT ( 'NONE',  ( 2709.063164578962642, 1808.283703845979971, 430.0000000000000000 ) ) ;
#262 = CLOSED_SHELL ( 'NONE', ( #279, #78, #39, #167, #188, #111, #235, #229 ) ) ;
#263 = DIRECTION ( 'NONE',  ( 1.000000000000000000, 0.000000000000000000, 0.000000000000000000 ) ) ;
#264 = APPROVAL_STATUS ( 'not_yet_approved' ) ;
#265 = EDGE_LOOP ( 'NONE', ( #98, #232, #200, #112 ) ) ;
#266 = CARTESIAN_POINT ( 'NONE',  ( 3243.450824562710295, 1808.283703845979971, 430.0000000000000000 ) ) ;
#267 = VECTOR ( 'NONE', #159, 1000.000000000000000 ) ;
#268 = DIRECTION ( 'NONE',  ( 1.000000000000000000, 0.000000000000000000, 0.000000000000000000 ) ) ;
#269 =( GEOMETRIC_REPRESENTATION_CONTEXT ( 3 ) GLOBAL_UNCERTAINTY_ASSIGNED_CONTEXT ( ( #298 ) ) GLOBAL_UNIT_ASSIGNED_CONTEXT ( ( #130, #181, #42 ) ) REPRESENTATION_CONTEXT ( 'NONE', 'WORKASPACE' ) );
#270 = COORDINATED_UNIVERSAL_TIME_OFFSET ( 8, 0, .AHEAD. ) ;
#271 = DIRECTION ( 'NONE',  ( 0.000000000000000000, 0.000000000000000000, 1.000000000000000000 ) ) ;
#272 = DIRECTION ( 'NONE',  ( 0.3008521040918959999, 0.9536708087508388720, 0.000000000000000000 ) ) ;
#273 = CARTESIAN_POINT ( 'NONE',  ( 3243.450824562710295, 1808.283703845979971, 430.0000000000000000 ) ) ;
#274 = MANIFOLD_SOLID_BREP ( '输入1', #262 ) ;
#275 = CARTESIAN_POINT ( 'NONE',  ( 3243.450824562710295, 1808.283703845979971, 430.0000000000000000 ) ) ;
#276 = SECURITY_CLASSIFICATION_LEVEL ( 'unclassified' ) ;
#277 = AXIS2_PLACEMENT_3D ( 'NONE', #172, #292, #195 ) ;
#278 = ORIENTED_EDGE ( 'NONE', *, *, #122, .F. ) ;
#279 = ADVANCED_FACE ( 'NONE', ( #85 ), #79, .T. ) ;
#280 = EDGE_LOOP ( 'NONE', ( #118, #45, #211, #114 ) ) ;
#281 = EDGE_CURVE ( 'NONE', #309, #140, #308, .T. ) ;
#282 = VECTOR ( 'NONE', #50, 1000.000000000000000 ) ;
#283 = ORIENTED_EDGE ( 'NONE', *, *, #92, .T. ) ;
#284 = LOCAL_TIME ( 11, 35, 34.00000000000000000, #13 ) ;
#285 = PLANE ( 'NONE',  #164 ) ;
#286 = EDGE_CURVE ( 'NONE', #18, #260, #231, .T. ) ;
#287 = LINE ( 'NONE', #74, #230 ) ;
#288 = CARTESIAN_POINT ( 'NONE',  ( 3243.450824562710295, 1808.283703845979971, 0.000000000000000000 ) ) ;
#289 = CARTESIAN_POINT ( 'NONE',  ( 3057.997199688729779, 1307.107962050741889, 430.0000000000000000 ) ) ;
#290 = EDGE_CURVE ( 'NONE', #43, #91, #80, .T. ) ;
#291 = PERSON_AND_ORGANIZATION_ROLE ( 'creator' ) ;
#292 = DIRECTION ( 'NONE',  ( 0.000000000000000000, 0.000000000000000000, -1.000000000000000000 ) ) ;
#293 = CIRCLE ( 'NONE', #294, 549.3876599837479944 ) ;
#294 = AXIS2_PLACEMENT_3D ( 'NONE', #176, #217, #243 ) ;
#295 = ORGANIZATION ( '未指定', '未指定', '' ) ;
#296 = CARTESIAN_POINT ( 'NONE',  ( 3243.450824562710295, 1808.283703845979971, 430.0000000000000000 ) ) ;
#297 = APPROVAL_DATE_TIME ( #300, #177 ) ;
#298 = UNCERTAINTY_MEASURE_WITH_UNIT (LENGTH_MEASURE( 1.000000000000000082E-05 ), #130, 'distance_accuracy_value', 'NONE');
#299 = CARTESIAN_POINT ( 'NONE',  ( 2722.163894248149973, 1925.885180988620050, 0.000000000000000000 ) ) ;
#300 = DATE_AND_TIME ( #227, #239 ) ;
#301 = CARTESIAN_POINT ( 'NONE',  ( 2214.624727957469986, -861.3342448476710160, 0.000000000000000000 ) ) ;
#302 = PERSON_AND_ORGANIZATION ( #48, #295 ) ;
#303 = CIRCLE ( 'NONE', #149, 549.3876599837479944 ) ;
#304 = ORIENTED_EDGE ( 'NONE', *, *, #106, .F. ) ;
#305 = PRODUCT_DEFINITION_FORMATION_WITH_SPECIFIED_SOURCE ( '任何', '', #46, .NOT_KNOWN. ) ;
#306 = VERTEX_POINT ( 'NONE', #246 ) ;
#307 = APPLICATION_CONTEXT ( 'configuration controlled 3d designs of mechanical parts and assemblies' ) ;
#308 = CIRCLE ( 'NONE', #238, 534.3876599837477670 ) ;
#309 = VERTEX_POINT ( 'NONE', #8 ) ;
#310 = VERTEX_POINT ( 'NONE', #102 ) ;
#311 = DIRECTION ( 'NONE',  ( 1.000000000000000000, 0.000000000000000000, 0.000000000000000000 ) ) ;
ENDSEC;
END-ISO-10303-21;
