ISO-10303-21;
HEADER;
FILE_DESCRIPTION (( 'STEP AP203' ),
    '1' );
FILE_NAME ('COVER 01_默认_sldprt.STEP',
    '2026-04-08T03:35:33',
    ( '' ),
    ( '' ),
    'SwSTEP 2.0',
    'SolidWorks 2022',
    '' );
FILE_SCHEMA (( 'CONFIG_CONTROL_DESIGN' ));
ENDSEC;

DATA;
#1 = COORDINATED_UNIVERSAL_TIME_OFFSET ( 8, 0, .AHEAD. ) ;
#2 = PLANE ( 'NONE',  #192 ) ;
#3 = DIRECTION ( 'NONE',  ( -0.9536708087508387610, 0.3008521040918959444, 0.000000000000000000 ) ) ;
#4 = ADVANCED_BREP_SHAPE_REPRESENTATION ( 'COVER 01_\X2\9ed88ba4\X0\_sldprt', ( #201, #149 ), #26 ) ;
#5 = PERSON_AND_ORGANIZATION_ROLE ( 'classification_officer' ) ;
#6 = DIRECTION ( 'NONE',  ( 1.000000000000000000, 0.000000000000000000, 0.000000000000000000 ) ) ;
#7 = LINE ( 'NONE', #35, #104 ) ;
#8 = VECTOR ( 'NONE', #139, 1000.000000000000000 ) ;
#9 = DIRECTION ( 'NONE',  ( 0.000000000000000000, 0.000000000000000000, 1.000000000000000000 ) ) ;
#10 = COORDINATED_UNIVERSAL_TIME_OFFSET ( 8, 0, .AHEAD. ) ;
#11 = AXIS2_PLACEMENT_3D ( 'NONE', #69, #262, #19 ) ;
#12 = CC_DESIGN_PERSON_AND_ORGANIZATION_ASSIGNMENT ( #141, #5, ( #218 ) ) ;
#13 = ORIENTED_EDGE ( 'NONE', *, *, #127, .T. ) ;
#14 = ORIENTED_EDGE ( 'NONE', *, *, #246, .F. ) ;
#15 = PERSON ( '未指定', '未指定', '未指定', ('未指定'), ('未指定'), ('未指定') ) ;
#16 = VERTEX_POINT ( 'NONE', #18 ) ;
#17 = LINE ( 'NONE', #213, #208 ) ;
#18 = CARTESIAN_POINT ( 'NONE',  ( 2709.063164578962642, 1808.283703845979971, 0.000000000000000000 ) ) ;
#19 = DIRECTION ( 'NONE',  ( -1.000000000000000000, 0.000000000000000000, 0.000000000000000000 ) ) ;
#20 = ORIENTED_EDGE ( 'NONE', *, *, #188, .F. ) ;
#21 = EDGE_CURVE ( 'NONE', #125, #179, #56, .T. ) ;
#22 = VECTOR ( 'NONE', #23, 1000.000000000000000 ) ;
#23 = DIRECTION ( 'NONE',  ( 0.000000000000000000, 0.000000000000000000, -1.000000000000000000 ) ) ;
#24 = APPROVAL ( #150, '未指定' ) ;
#25 = DIRECTION ( 'NONE',  ( 1.000000000000000000, 0.000000000000000000, 0.000000000000000000 ) ) ;
#26 =( GEOMETRIC_REPRESENTATION_CONTEXT ( 3 ) GLOBAL_UNCERTAINTY_ASSIGNED_CONTEXT ( ( #250 ) ) GLOBAL_UNIT_ASSIGNED_CONTEXT ( ( #198, #122, #270 ) ) REPRESENTATION_CONTEXT ( 'NONE', 'WORKASPACE' ) );
#27 = CARTESIAN_POINT ( 'NONE',  ( 3052.559283902834977, 1293.126232147355950, 0.000000000000000000 ) ) ;
#28 = CALENDAR_DATE ( 2026, 8, 4 ) ;
#29 = DIRECTION ( 'NONE',  ( 1.000000000000000000, 0.000000000000000000, 0.000000000000000000 ) ) ;
#30 = CIRCLE ( 'NONE', #200, 534.3876599837477670 ) ;
#31 = DIRECTION ( 'NONE',  ( 1.000000000000000000, 0.000000000000000000, 0.000000000000000000 ) ) ;
#32 = DIRECTION ( 'NONE',  ( 0.000000000000000000, 0.000000000000000000, 1.000000000000000000 ) ) ;
#33 = LINE ( 'NONE', #245, #87 ) ;
#34 = CARTESIAN_POINT ( 'NONE',  ( 0.000000000000000000, 0.000000000000000000, 370.0000000000000000 ) ) ;
#35 = CARTESIAN_POINT ( 'NONE',  ( 798.9516365339479762, 2532.596059668574981, 370.0000000000000000 ) ) ;
#36 = ORIENTED_EDGE ( 'NONE', *, *, #303, .F. ) ;
#37 = APPROVAL_PERSON_ORGANIZATION ( #97, #161, #70 ) ;
#38 = EDGE_LOOP ( 'NONE', ( #261, #148, #252, #59, #207, #279 ) ) ;
#39 = CALENDAR_DATE ( 2026, 8, 4 ) ;
#40 = VERTEX_POINT ( 'NONE', #240 ) ;
#41 = DIRECTION ( 'NONE',  ( 0.000000000000000000, 0.000000000000000000, 1.000000000000000000 ) ) ;
#42 = AXIS2_PLACEMENT_3D ( 'NONE', #111, #86, #137 ) ;
#43 = LINE ( 'NONE', #215, #22 ) ;
#44 = VERTEX_POINT ( 'NONE', #27 ) ;
#45 = CARTESIAN_POINT ( 'NONE',  ( 3243.450824562710295, 1808.283703845979971, 370.0000000000000000 ) ) ;
#46 = CC_DESIGN_DATE_AND_TIME_ASSIGNMENT ( #190, #89, ( #218 ) ) ;
#47 = CARTESIAN_POINT ( 'NONE',  ( 3243.450824562710295, 1808.283703845979971, 0.000000000000000000 ) ) ;
#48 = CARTESIAN_POINT ( 'NONE',  ( 2694.063164578962187, 1808.283703845979971, 0.000000000000000000 ) ) ;
#49 = COORDINATED_UNIVERSAL_TIME_OFFSET ( 8, 0, .AHEAD. ) ;
#50 = APPROVAL_ROLE ( '' ) ;
#51 = CARTESIAN_POINT ( 'NONE',  ( 3243.450824562710295, 1808.283703845979971, 370.0000000000000000 ) ) ;
#52 = AXIS2_PLACEMENT_3D ( 'NONE', #145, #96, #225 ) ;
#53 = DATE_TIME_ROLE ( 'creation_date' ) ;
#54 = DIRECTION ( 'NONE',  ( 0.000000000000000000, 0.000000000000000000, -1.000000000000000000 ) ) ;
#55 = ADVANCED_FACE ( 'NONE', ( #209 ), #66, .T. ) ;
#56 = CIRCLE ( 'NONE', #305, 534.3876599837477670 ) ;
#57 = PERSON_AND_ORGANIZATION_ROLE ( 'creator' ) ;
#58 = VERTEX_POINT ( 'NONE', #159 ) ;
#59 = ORIENTED_EDGE ( 'NONE', *, *, #188, .T. ) ;
#60 = ORIENTED_EDGE ( 'NONE', *, *, #300, .F. ) ;
#61 = PERSON_AND_ORGANIZATION ( #15, #253 ) ;
#62 = VERTEX_POINT ( 'NONE', #48 ) ;
#63 = CARTESIAN_POINT ( 'NONE',  ( 3052.559283902834977, 1293.126232147355950, 370.0000000000000000 ) ) ;
#64 = ORIENTED_EDGE ( 'NONE', *, *, #300, .T. ) ;
#65 = AXIS2_PLACEMENT_3D ( 'NONE', #196, #296, #248 ) ;
#66 = CYLINDRICAL_SURFACE ( 'NONE', #204, 549.3876599837479944 ) ;
#67 = EDGE_CURVE ( 'NONE', #125, #40, #110, .T. ) ;
#68 = CARTESIAN_POINT ( 'NONE',  ( 3243.450824562710295, 1808.283703845979971, 370.0000000000000000 ) ) ;
#69 = CARTESIAN_POINT ( 'NONE',  ( 3243.450824562710295, 1808.283703845979971, 370.0000000000000000 ) ) ;
#70 = APPROVAL_ROLE ( '' ) ;
#71 = DIRECTION ( 'NONE',  ( 0.9536708087508388720, -0.3008521040918959999, 0.000000000000000000 ) ) ;
#72 = AXIS2_PLACEMENT_3D ( 'NONE', #45, #114, #91 ) ;
#73 = EDGE_CURVE ( 'NONE', #179, #16, #43, .T. ) ;
#74 = DIRECTION ( 'NONE',  ( 1.000000000000000000, 0.000000000000000000, 0.000000000000000000 ) ) ;
#75 = PLANE ( 'NONE',  #243 ) ;
#76 = CC_DESIGN_APPROVAL ( #161, ( #169 ) ) ;
#77 = ADVANCED_FACE ( 'NONE', ( #206 ), #2, .T. ) ;
#78 = DIRECTION ( 'NONE',  ( 0.000000000000000000, 0.000000000000000000, -1.000000000000000000 ) ) ;
#79 = FACE_OUTER_BOUND ( 'NONE', #283, .T. ) ;
#80 = AXIS2_PLACEMENT_3D ( 'NONE', #51, #32, #6 ) ;
#81 = ORIENTED_EDGE ( 'NONE', *, *, #236, .F. ) ;
#82 = ORIENTED_EDGE ( 'NONE', *, *, #170, .T. ) ;
#83 = APPROVAL ( #164, '未指定' ) ;
#84 = ORIENTED_EDGE ( 'NONE', *, *, #186, .T. ) ;
#85 = ORIENTED_EDGE ( 'NONE', *, *, #67, .F. ) ;
#86 = DIRECTION ( 'NONE',  ( 0.000000000000000000, 0.000000000000000000, 1.000000000000000000 ) ) ;
#87 = VECTOR ( 'NONE', #54, 1000.000000000000000 ) ;
#88 = CYLINDRICAL_SURFACE ( 'NONE', #140, 549.3876599837479944 ) ;
#89 = DATE_TIME_ROLE ( 'classification_date' ) ;
#90 = FACE_OUTER_BOUND ( 'NONE', #133, .T. ) ;
#91 = DIRECTION ( 'NONE',  ( -1.000000000000000000, 0.000000000000000000, 0.000000000000000000 ) ) ;
#92 = AXIS2_PLACEMENT_3D ( 'NONE', #234, #172, #31 ) ;
#93 = PERSON_AND_ORGANIZATION ( #15, #253 ) ;
#94 = CARTESIAN_POINT ( 'NONE',  ( 798.9516365339479762, 2532.596059668574981, 0.000000000000000000 ) ) ;
#95 = ADVANCED_FACE ( 'NONE', ( #237 ), #88, .T. ) ;
#96 = DIRECTION ( 'NONE',  ( 0.000000000000000000, 0.000000000000000000, 1.000000000000000000 ) ) ;
#97 = PERSON_AND_ORGANIZATION ( #15, #253 ) ;
#98 = CC_DESIGN_DATE_AND_TIME_ASSIGNMENT ( #216, #53, ( #210 ) ) ;
#99 = PLANE ( 'NONE',  #52 ) ;
#100 = LINE ( 'NONE', #242, #286 ) ;
#101 = APPLICATION_PROTOCOL_DEFINITION ( 'international standard', 'config_control_design', 1994, #310 ) ;
#102 = PERSON_AND_ORGANIZATION ( #15, #253 ) ;
#103 = DATE_AND_TIME ( #39, #126 ) ;
#104 = VECTOR ( 'NONE', #173, 999.9999999999998863 ) ;
#105 = EDGE_LOOP ( 'NONE', ( #20, #146, #205, #60 ) ) ;
#106 = DIRECTION ( 'NONE',  ( 1.000000000000000000, 0.000000000000000000, 0.000000000000000000 ) ) ;
#107 = EDGE_CURVE ( 'NONE', #131, #151, #238, .T. ) ;
#108 = ORIENTED_EDGE ( 'NONE', *, *, #107, .T. ) ;
#109 = ORIENTED_EDGE ( 'NONE', *, *, #194, .F. ) ;
#110 = LINE ( 'NONE', #211, #294 ) ;
#111 = CARTESIAN_POINT ( 'NONE',  ( 3243.450824562710295, 1808.283703845979971, 370.0000000000000000 ) ) ;
#112 = DIRECTION ( 'NONE',  ( 0.000000000000000000, 0.000000000000000000, -1.000000000000000000 ) ) ;
#113 = LOCAL_TIME ( 11, 35, 33.00000000000000000, #273 ) ;
#114 = DIRECTION ( 'NONE',  ( 0.000000000000000000, 0.000000000000000000, -1.000000000000000000 ) ) ;
#115 = PRODUCT_RELATED_PRODUCT_CATEGORY ( 'detail', '', ( #129 ) ) ;
#116 = CC_DESIGN_APPROVAL ( #83, ( #218 ) ) ;
#117 = CIRCLE ( 'NONE', #42, 534.3876599837477670 ) ;
#118 = APPROVAL_DATE_TIME ( #214, #83 ) ;
#119 = EDGE_CURVE ( 'NONE', #151, #62, #282, .T. ) ;
#120 = CALENDAR_DATE ( 2026, 8, 4 ) ;
#121 = CARTESIAN_POINT ( 'NONE',  ( 3057.997199688729779, 1307.107962050741889, 0.000000000000000000 ) ) ;
#122 =( NAMED_UNIT ( * ) PLANE_ANGLE_UNIT ( ) SI_UNIT ( $, .RADIAN. ) );
#123 = ADVANCED_FACE ( 'NONE', ( #90 ), #158, .F. ) ;
#124 = DESIGN_CONTEXT ( 'detailed design', #167, 'design' ) ;
#125 = VERTEX_POINT ( 'NONE', #308 ) ;
#126 = LOCAL_TIME ( 11, 35, 33.00000000000000000, #10 ) ;
#127 = EDGE_CURVE ( 'NONE', #44, #256, #17, .T. ) ;
#128 = ORIENTED_EDGE ( 'NONE', *, *, #251, .F. ) ;
#129 = PRODUCT ( 'COVER 01_\X2\9ed88ba4\X0\_sldprt', 'COVER 01_\X2\9ed88ba4\X0\_sldprt', '', ( #178 ) ) ;
#130 = APPROVAL_DATE_TIME ( #103, #24 ) ;
#131 = VERTEX_POINT ( 'NONE', #135 ) ;
#132 = DIRECTION ( 'NONE',  ( 0.3008521040918959999, 0.9536708087508388720, 0.000000000000000000 ) ) ;
#133 = EDGE_LOOP ( 'NONE', ( #203, #84, #82, #81 ) ) ;
#134 = LOCAL_TIME ( 11, 35, 33.00000000000000000, #1 ) ;
#135 = CARTESIAN_POINT ( 'NONE',  ( 2707.809953618605050, 1930.413382125515000, 370.0000000000000000 ) ) ;
#136 = ADVANCED_FACE ( 'NONE', ( #187 ), #290, .F. ) ;
#137 = DIRECTION ( 'NONE',  ( 1.000000000000000000, 0.000000000000000000, 0.000000000000000000 ) ) ;
#138 = DIRECTION ( 'NONE',  ( 0.000000000000000000, 0.000000000000000000, 1.000000000000000000 ) ) ;
#139 = DIRECTION ( 'NONE',  ( 0.000000000000000000, 0.000000000000000000, -1.000000000000000000 ) ) ;
#140 = AXIS2_PLACEMENT_3D ( 'NONE', #68, #185, #288 ) ;
#141 = PERSON_AND_ORGANIZATION ( #15, #253 ) ;
#142 = VECTOR ( 'NONE', #259, 1000.000000000000000 ) ;
#143 = CARTESIAN_POINT ( 'NONE',  ( 3057.997199688729779, 1307.107962050741889, 370.0000000000000000 ) ) ;
#144 = SECURITY_CLASSIFICATION_LEVEL ( 'unclassified' ) ;
#145 = CARTESIAN_POINT ( 'NONE',  ( 0.000000000000000000, 0.000000000000000000, 0.000000000000000000 ) ) ;
#146 = ORIENTED_EDGE ( 'NONE', *, *, #246, .T. ) ;
#147 = CC_DESIGN_PERSON_AND_ORGANIZATION_ASSIGNMENT ( #277, #57, ( #210 ) ) ;
#148 = ORIENTED_EDGE ( 'NONE', *, *, #287, .F. ) ;
#149 = AXIS2_PLACEMENT_3D ( 'NONE', #254, #9, #106 ) ;
#150 = APPROVAL_STATUS ( 'not_yet_approved' ) ;
#151 = VERTEX_POINT ( 'NONE', #291 ) ;
#152 = LINE ( 'NONE', #257, #142 ) ;
#153 = ORIENTED_EDGE ( 'NONE', *, *, #73, .T. ) ;
#154 = DIRECTION ( 'NONE',  ( 0.3624796339402933665, 0.9319916925480135061, 0.000000000000000000 ) ) ;
#155 = EDGE_LOOP ( 'NONE', ( #128, #307, #202, #230 ) ) ;
#156 = CC_DESIGN_SECURITY_CLASSIFICATION ( #218, ( #169 ) ) ;
#157 = VECTOR ( 'NONE', #71, 999.9999999999998863 ) ;
#158 = CYLINDRICAL_SURFACE ( 'NONE', #72, 534.3876599837477670 ) ;
#159 = CARTESIAN_POINT ( 'NONE',  ( 2694.063164578962187, 1808.283703845979971, 370.0000000000000000 ) ) ;
#160 = CLOSED_SHELL ( 'NONE', ( #95, #136, #123, #77, #55, #276, #280, #271 ) ) ;
#161 = APPROVAL ( #269, '未指定' ) ;
#162 = APPROVAL_DATE_TIME ( #168, #161 ) ;
#163 = DIRECTION ( 'NONE',  ( 0.000000000000000000, 0.000000000000000000, -1.000000000000000000 ) ) ;
#164 = APPROVAL_STATUS ( 'not_yet_approved' ) ;
#165 = CALENDAR_DATE ( 2026, 8, 4 ) ;
#166 = DIRECTION ( 'NONE',  ( 0.000000000000000000, 0.000000000000000000, 1.000000000000000000 ) ) ;
#167 = APPLICATION_CONTEXT ( 'configuration controlled 3d designs of mechanical parts and assemblies' ) ;
#168 = DATE_AND_TIME ( #120, #212 ) ;
#169 = PRODUCT_DEFINITION_FORMATION_WITH_SPECIFIED_SOURCE ( '任何', '', #129, .NOT_KNOWN. ) ;
#170 = EDGE_CURVE ( 'NONE', #233, #256, #152, .T. ) ;
#171 = FACE_OUTER_BOUND ( 'NONE', #38, .T. ) ;
#172 = DIRECTION ( 'NONE',  ( 0.000000000000000000, 0.000000000000000000, 1.000000000000000000 ) ) ;
#173 = DIRECTION ( 'NONE',  ( 0.9536708087508388720, -0.3008521040918959999, 0.000000000000000000 ) ) ;
#174 = LOCAL_TIME ( 11, 35, 33.00000000000000000, #264 ) ;
#175 = APPLICATION_PROTOCOL_DEFINITION ( 'international standard', 'config_control_design', 1994, #167 ) ;
#176 = CC_DESIGN_PERSON_AND_ORGANIZATION_ASSIGNMENT ( #267, #195, ( #169 ) ) ;
#177 = EDGE_LOOP ( 'NONE', ( #13, #255, #183, #64 ) ) ;
#178 = MECHANICAL_CONTEXT ( 'NONE', #310, 'mechanical' ) ;
#179 = VERTEX_POINT ( 'NONE', #284 ) ;
#180 = AXIS2_PLACEMENT_3D ( 'NONE', #47, #138, #25 ) ;
#181 = VERTEX_POINT ( 'NONE', #63 ) ;
#182 = CARTESIAN_POINT ( 'NONE',  ( 3243.450824562710295, 1808.283703845979971, 370.0000000000000000 ) ) ;
#183 = ORIENTED_EDGE ( 'NONE', *, *, #223, .F. ) ;
#184 = CIRCLE ( 'NONE', #301, 534.3876599837477670 ) ;
#185 = DIRECTION ( 'NONE',  ( 0.000000000000000000, 0.000000000000000000, -1.000000000000000000 ) ) ;
#186 = EDGE_CURVE ( 'NONE', #179, #233, #117, .T. ) ;
#187 = FACE_OUTER_BOUND ( 'NONE', #304, .T. ) ;
#188 = EDGE_CURVE ( 'NONE', #58, #181, #260, .T. ) ;
#189 = DIRECTION ( 'NONE',  ( 1.000000000000000000, 0.000000000000000000, 0.000000000000000000 ) ) ;
#190 = DATE_AND_TIME ( #165, #134 ) ;
#191 = CARTESIAN_POINT ( 'NONE',  ( 3243.450824562710295, 1808.283703845979971, 0.000000000000000000 ) ) ;
#192 = AXIS2_PLACEMENT_3D ( 'NONE', #263, #132, #3 ) ;
#193 = DIRECTION ( 'NONE',  ( 0.000000000000000000, 0.000000000000000000, 1.000000000000000000 ) ) ;
#194 = EDGE_CURVE ( 'NONE', #40, #16, #184, .T. ) ;
#195 = PERSON_AND_ORGANIZATION_ROLE ( 'design_supplier' ) ;
#196 = CARTESIAN_POINT ( 'NONE',  ( 2214.624727957469986, -861.3342448476710160, 370.0000000000000000 ) ) ;
#197 = PLANE ( 'NONE',  #65 ) ;
#198 =( LENGTH_UNIT ( ) NAMED_UNIT ( * ) SI_UNIT ( .MILLI., .METRE. ) );
#199 = APPROVAL_ROLE ( '' ) ;
#200 = AXIS2_PLACEMENT_3D ( 'NONE', #241, #166, #29 ) ;
#201 = MANIFOLD_SOLID_BREP ( '输入1', #160 ) ;
#202 = ORIENTED_EDGE ( 'NONE', *, *, #287, .T. ) ;
#203 = ORIENTED_EDGE ( 'NONE', *, *, #73, .F. ) ;
#204 = AXIS2_PLACEMENT_3D ( 'NONE', #265, #163, #232 ) ;
#205 = ORIENTED_EDGE ( 'NONE', *, *, #249, .T. ) ;
#206 = FACE_OUTER_BOUND ( 'NONE', #155, .T. ) ;
#207 = ORIENTED_EDGE ( 'NONE', *, *, #223, .T. ) ;
#208 = VECTOR ( 'NONE', #154, 1000.000000000000000 ) ;
#209 = FACE_OUTER_BOUND ( 'NONE', #235, .T. ) ;
#210 = PRODUCT_DEFINITION ( '未知', '', #169, #124 ) ;
#211 = CARTESIAN_POINT ( 'NONE',  ( 2722.163894248149973, 1925.885180988620050, 370.0000000000000000 ) ) ;
#212 = LOCAL_TIME ( 11, 35, 33.00000000000000000, #49 ) ;
#213 = CARTESIAN_POINT ( 'NONE',  ( 2214.624727957469986, -861.3342448476710160, 0.000000000000000000 ) ) ;
#214 = DATE_AND_TIME ( #292, #174 ) ;
#215 = CARTESIAN_POINT ( 'NONE',  ( 2709.063164578962642, 1808.283703845979971, 370.0000000000000000 ) ) ;
#216 = DATE_AND_TIME ( #28, #113 ) ;
#217 = DIRECTION ( 'NONE',  ( 1.000000000000000000, 0.000000000000000000, 0.000000000000000000 ) ) ;
#218 = SECURITY_CLASSIFICATION ( '', '', #144 ) ;
#219 = VECTOR ( 'NONE', #268, 1000.000000000000000 ) ;
#220 = PRODUCT_DEFINITION_SHAPE ( 'NONE', 'NONE',  #210 ) ;
#221 = PERSON_AND_ORGANIZATION ( #15, #253 ) ;
#222 = LINE ( 'NONE', #94, #157 ) ;
#223 = EDGE_CURVE ( 'NONE', #181, #233, #244, .T. ) ;
#224 = CC_DESIGN_PERSON_AND_ORGANIZATION_ASSIGNMENT ( #61, #226, ( #129 ) ) ;
#225 = DIRECTION ( 'NONE',  ( 1.000000000000000000, 0.000000000000000000, 0.000000000000000000 ) ) ;
#226 = PERSON_AND_ORGANIZATION_ROLE ( 'design_owner' ) ;
#227 = AXIS2_PLACEMENT_3D ( 'NONE', #247, #193, #217 ) ;
#228 = ORIENTED_EDGE ( 'NONE', *, *, #127, .F. ) ;
#229 = ORIENTED_EDGE ( 'NONE', *, *, #119, .T. ) ;
#230 = ORIENTED_EDGE ( 'NONE', *, *, #67, .T. ) ;
#231 = APPROVAL_PERSON_ORGANIZATION ( #93, #83, #50 ) ;
#232 = DIRECTION ( 'NONE',  ( -1.000000000000000000, 0.000000000000000000, 0.000000000000000000 ) ) ;
#233 = VERTEX_POINT ( 'NONE', #143 ) ;
#234 = CARTESIAN_POINT ( 'NONE',  ( 3243.450824562710295, 1808.283703845979971, 370.0000000000000000 ) ) ;
#235 = EDGE_LOOP ( 'NONE', ( #14, #36, #108, #229 ) ) ;
#236 = EDGE_CURVE ( 'NONE', #16, #256, #30, .T. ) ;
#237 = FACE_OUTER_BOUND ( 'NONE', #105, .T. ) ;
#238 = LINE ( 'NONE', #309, #8 ) ;
#239 = SHAPE_DEFINITION_REPRESENTATION ( #220, #4 ) ;
#240 = CARTESIAN_POINT ( 'NONE',  ( 2722.163894248149973, 1925.885180988620050, 0.000000000000000000 ) ) ;
#241 = CARTESIAN_POINT ( 'NONE',  ( 3243.450824562710295, 1808.283703845979971, 0.000000000000000000 ) ) ;
#242 = CARTESIAN_POINT ( 'NONE',  ( 3052.559283902834977, 1293.126232147355950, 370.0000000000000000 ) ) ;
#243 = AXIS2_PLACEMENT_3D ( 'NONE', #34, #274, #299 ) ;
#244 = LINE ( 'NONE', #266, #219 ) ;
#245 = CARTESIAN_POINT ( 'NONE',  ( 2694.063164578962187, 1808.283703845979971, 370.0000000000000000 ) ) ;
#246 = EDGE_CURVE ( 'NONE', #58, #62, #33, .T. ) ;
#247 = CARTESIAN_POINT ( 'NONE',  ( 3243.450824562710295, 1808.283703845979971, 0.000000000000000000 ) ) ;
#248 = DIRECTION ( 'NONE',  ( -0.3624796339402933665, -0.9319916925480135061, 0.000000000000000000 ) ) ;
#249 = EDGE_CURVE ( 'NONE', #62, #44, #275, .T. ) ;
#250 = UNCERTAINTY_MEASURE_WITH_UNIT (LENGTH_MEASURE( 1.000000000000000082E-05 ), #198, 'distance_accuracy_value', 'NONE');
#251 = EDGE_CURVE ( 'NONE', #151, #40, #222, .T. ) ;
#252 = ORIENTED_EDGE ( 'NONE', *, *, #303, .T. ) ;
#253 = ORGANIZATION ( '未指定', '未指定', '' ) ;
#254 = CARTESIAN_POINT ( 'NONE',  ( 0.000000000000000000, 0.000000000000000000, 0.000000000000000000 ) ) ;
#255 = ORIENTED_EDGE ( 'NONE', *, *, #170, .F. ) ;
#256 = VERTEX_POINT ( 'NONE', #121 ) ;
#257 = CARTESIAN_POINT ( 'NONE',  ( 3057.997199688729779, 1307.107962050741889, 370.0000000000000000 ) ) ;
#258 = ORIENTED_EDGE ( 'NONE', *, *, #119, .F. ) ;
#259 = DIRECTION ( 'NONE',  ( 0.000000000000000000, 0.000000000000000000, -1.000000000000000000 ) ) ;
#260 = CIRCLE ( 'NONE', #80, 549.3876599837479944 ) ;
#261 = ORIENTED_EDGE ( 'NONE', *, *, #21, .F. ) ;
#262 = DIRECTION ( 'NONE',  ( 0.000000000000000000, 0.000000000000000000, -1.000000000000000000 ) ) ;
#263 = CARTESIAN_POINT ( 'NONE',  ( 798.9516365339479762, 2532.596059668574981, 370.0000000000000000 ) ) ;
#264 = COORDINATED_UNIVERSAL_TIME_OFFSET ( 8, 0, .AHEAD. ) ;
#265 = CARTESIAN_POINT ( 'NONE',  ( 3243.450824562710295, 1808.283703845979971, 370.0000000000000000 ) ) ;
#266 = CARTESIAN_POINT ( 'NONE',  ( 2214.624727957469986, -861.3342448476710160, 370.0000000000000000 ) ) ;
#267 = PERSON_AND_ORGANIZATION ( #15, #253 ) ;
#268 = DIRECTION ( 'NONE',  ( 0.3624796339402933665, 0.9319916925480135061, 0.000000000000000000 ) ) ;
#269 = APPROVAL_STATUS ( 'not_yet_approved' ) ;
#270 =( NAMED_UNIT ( * ) SI_UNIT ( $, .STERADIAN. ) SOLID_ANGLE_UNIT ( ) );
#271 = ADVANCED_FACE ( 'NONE', ( #79 ), #99, .F. ) ;
#272 = CIRCLE ( 'NONE', #92, 549.3876599837479944 ) ;
#273 = COORDINATED_UNIVERSAL_TIME_OFFSET ( 8, 0, .AHEAD. ) ;
#274 = DIRECTION ( 'NONE',  ( 0.000000000000000000, 0.000000000000000000, 1.000000000000000000 ) ) ;
#275 = CIRCLE ( 'NONE', #227, 549.3876599837479944 ) ;
#276 = ADVANCED_FACE ( 'NONE', ( #298 ), #197, .F. ) ;
#277 = PERSON_AND_ORGANIZATION ( #15, #253 ) ;
#278 = ORIENTED_EDGE ( 'NONE', *, *, #194, .T. ) ;
#279 = ORIENTED_EDGE ( 'NONE', *, *, #186, .F. ) ;
#280 = ADVANCED_FACE ( 'NONE', ( #171 ), #75, .T. ) ;
#281 = ORIENTED_EDGE ( 'NONE', *, *, #251, .T. ) ;
#282 = CIRCLE ( 'NONE', #180, 549.3876599837479944 ) ;
#283 = EDGE_LOOP ( 'NONE', ( #278, #285, #228, #306, #258, #281 ) ) ;
#284 = CARTESIAN_POINT ( 'NONE',  ( 2709.063164578962642, 1808.283703845979971, 370.0000000000000000 ) ) ;
#285 = ORIENTED_EDGE ( 'NONE', *, *, #236, .T. ) ;
#286 = VECTOR ( 'NONE', #78, 1000.000000000000000 ) ;
#287 = EDGE_CURVE ( 'NONE', #131, #125, #7, .T. ) ;
#288 = DIRECTION ( 'NONE',  ( -1.000000000000000000, 0.000000000000000000, 0.000000000000000000 ) ) ;
#289 = PERSON_AND_ORGANIZATION_ROLE ( 'creator' ) ;
#290 = CYLINDRICAL_SURFACE ( 'NONE', #11, 534.3876599837477670 ) ;
#291 = CARTESIAN_POINT ( 'NONE',  ( 2707.809953618605050, 1930.413382125515000, 0.000000000000000000 ) ) ;
#292 = CALENDAR_DATE ( 2026, 8, 4 ) ;
#293 = DIRECTION ( 'NONE',  ( 0.000000000000000000, 0.000000000000000000, 1.000000000000000000 ) ) ;
#294 = VECTOR ( 'NONE', #112, 1000.000000000000000 ) ;
#295 = CC_DESIGN_PERSON_AND_ORGANIZATION_ASSIGNMENT ( #221, #289, ( #169 ) ) ;
#296 = DIRECTION ( 'NONE',  ( -0.9319916925480135061, 0.3624796339402933665, 0.000000000000000000 ) ) ;
#297 = APPROVAL_PERSON_ORGANIZATION ( #102, #24, #199 ) ;
#298 = FACE_OUTER_BOUND ( 'NONE', #177, .T. ) ;
#299 = DIRECTION ( 'NONE',  ( 1.000000000000000000, 0.000000000000000000, 0.000000000000000000 ) ) ;
#300 = EDGE_CURVE ( 'NONE', #181, #44, #100, .T. ) ;
#301 = AXIS2_PLACEMENT_3D ( 'NONE', #191, #293, #74 ) ;
#302 = ORIENTED_EDGE ( 'NONE', *, *, #21, .T. ) ;
#303 = EDGE_CURVE ( 'NONE', #131, #58, #272, .T. ) ;
#304 = EDGE_LOOP ( 'NONE', ( #302, #153, #109, #85 ) ) ;
#305 = AXIS2_PLACEMENT_3D ( 'NONE', #182, #41, #189 ) ;
#306 = ORIENTED_EDGE ( 'NONE', *, *, #249, .F. ) ;
#307 = ORIENTED_EDGE ( 'NONE', *, *, #107, .F. ) ;
#308 = CARTESIAN_POINT ( 'NONE',  ( 2722.163894248149973, 1925.885180988620050, 370.0000000000000000 ) ) ;
#309 = CARTESIAN_POINT ( 'NONE',  ( 2707.809953618605050, 1930.413382125515000, 370.0000000000000000 ) ) ;
#310 = APPLICATION_CONTEXT ( 'configuration controlled 3d designs of mechanical parts and assemblies' ) ;
#311 = CC_DESIGN_APPROVAL ( #24, ( #210 ) ) ;
ENDSEC;
END-ISO-10303-21;
