ISO-10303-21;
HEADER;
FILE_DESCRIPTION (( 'STEP AP203' ),
    '1' );
FILE_NAME ('COVER 03_默认_sldprt.STEP',
    '2026-04-08T03:35:35',
    ( '' ),
    ( '' ),
    'SwSTEP 2.0',
    'SolidWorks 2022',
    '' );
FILE_SCHEMA (( 'CONFIG_CONTROL_DESIGN' ));
ENDSEC;

DATA;
#1 = LINE ( 'NONE', #63, #24 ) ;
#2 = ADVANCED_FACE ( 'NONE', ( #31 ), #261, .F. ) ;
#3 = DIRECTION ( 'NONE',  ( -1.000000000000000000, 0.000000000000000000, 0.000000000000000000 ) ) ;
#4 = ORIENTED_EDGE ( 'NONE', *, *, #276, .F. ) ;
#5 = DIRECTION ( 'NONE',  ( -1.000000000000000000, 0.000000000000000000, 0.000000000000000000 ) ) ;
#6 = ORIENTED_EDGE ( 'NONE', *, *, #29, .T. ) ;
#7 = PERSON ( '未指定', '未指定', '未指定', ('未指定'), ('未指定'), ('未指定') ) ;
#8 = ORIENTED_EDGE ( 'NONE', *, *, #150, .F. ) ;
#9 = CYLINDRICAL_SURFACE ( 'NONE', #79, 559.3876599837482217 ) ;
#10 = DIRECTION ( 'NONE',  ( -0.9996894970330497676, -0.02491805614023494264, 0.000000000000000000 ) ) ;
#11 = VERTEX_POINT ( 'NONE', #349 ) ;
#12 = AXIS2_PLACEMENT_3D ( 'NONE', #218, #329, #73 ) ;
#13 = CARTESIAN_POINT ( 'NONE',  ( 2673.358078821449908, 2448.486053591475411, 0.000000000000000000 ) ) ;
#14 = DIRECTION ( 'NONE',  ( 0.9996894970330497676, 0.02491805614023449161, 0.000000000000000000 ) ) ;
#15 = AXIS2_PLACEMENT_3D ( 'NONE', #341, #107, #222 ) ;
#16 = CARTESIAN_POINT ( 'NONE',  ( 2678.699129435490249, 2234.208014729655133, 0.000000000000000000 ) ) ;
#17 = VERTEX_POINT ( 'NONE', #88 ) ;
#18 = VECTOR ( 'NONE', #359, 999.9999999999998863 ) ;
#19 = ORIENTED_EDGE ( 'NONE', *, *, #138, .T. ) ;
#20 = PERSON_AND_ORGANIZATION ( #7, #285 ) ;
#21 = CC_DESIGN_APPROVAL ( #65, ( #331 ) ) ;
#22 = CALENDAR_DATE ( 2026, 8, 4 ) ;
#23 = PERSON_AND_ORGANIZATION ( #7, #285 ) ;
#24 = VECTOR ( 'NONE', #316, 1000.000000000000000 ) ;
#25 = AXIS2_PLACEMENT_3D ( 'NONE', #87, #315, #330 ) ;
#26 = CARTESIAN_POINT ( 'NONE',  ( 2549.100798322214814, 1944.874566914395018, 460.0000000000000000 ) ) ;
#27 = DIRECTION ( 'NONE',  ( -1.000000000000000000, 0.000000000000000000, 0.000000000000000000 ) ) ;
#28 = CLOSED_SHELL ( 'NONE', ( #2, #248, #284, #112, #75, #335, #229, #232, #96, #179 ) ) ;
#29 = EDGE_CURVE ( 'NONE', #11, #357, #117, .T. ) ;
#30 = DIRECTION ( 'NONE',  ( -1.000000000000000000, 0.000000000000000000, 0.000000000000000000 ) ) ;
#31 = FACE_OUTER_BOUND ( 'NONE', #177, .T. ) ;
#32 = DIRECTION ( 'NONE',  ( 0.000000000000000000, 0.000000000000000000, -1.000000000000000000 ) ) ;
#33 = CARTESIAN_POINT ( 'NONE',  ( 2654.765137407519887, 2166.813101317899964, 460.0000000000000000 ) ) ;
#34 = CARTESIAN_POINT ( 'NONE',  ( 2673.358078821449908, 2448.486053591475411, 460.0000000000000000 ) ) ;
#35 = ORIENTED_EDGE ( 'NONE', *, *, #272, .F. ) ;
#36 = EDGE_LOOP ( 'NONE', ( #90, #158, #360, #59 ) ) ;
#37 = LINE ( 'NONE', #13, #228 ) ;
#38 = CC_DESIGN_PERSON_AND_ORGANIZATION_ASSIGNMENT ( #20, #225, ( #104 ) ) ;
#39 = DIRECTION ( 'NONE',  ( 1.000000000000000000, 0.000000000000000000, 0.000000000000000000 ) ) ;
#40 = ORIENTED_EDGE ( 'NONE', *, *, #302, .T. ) ;
#41 = ORIENTED_EDGE ( 'NONE', *, *, #168, .T. ) ;
#42 = DIRECTION ( 'NONE',  ( 1.000000000000000000, 0.000000000000000000, 0.000000000000000000 ) ) ;
#43 = EDGE_CURVE ( 'NONE', #11, #186, #110, .T. ) ;
#44 = CARTESIAN_POINT ( 'NONE',  ( 2549.100798322214814, 1944.874566914395018, 460.0000000000000000 ) ) ;
#45 = FACE_OUTER_BOUND ( 'NONE', #36, .T. ) ;
#46 = DIRECTION ( 'NONE',  ( -0.02491805614023449161, 0.9996894970330497676, 0.000000000000000000 ) ) ;
#47 = VERTEX_POINT ( 'NONE', #259 ) ;
#48 = EDGE_CURVE ( 'NONE', #357, #182, #100, .T. ) ;
#49 = VECTOR ( 'NONE', #116, 999.9999999999998863 ) ;
#50 = AXIS2_PLACEMENT_3D ( 'NONE', #84, #70, #42 ) ;
#51 = CALENDAR_DATE ( 2026, 8, 4 ) ;
#52 = CC_DESIGN_APPROVAL ( #172, ( #104 ) ) ;
#53 = COORDINATED_UNIVERSAL_TIME_OFFSET ( 8, 0, .AHEAD. ) ;
#54 = APPROVAL_ROLE ( '' ) ;
#55 = EDGE_CURVE ( 'NONE', #182, #69, #191, .T. ) ;
#56 = DIRECTION ( 'NONE',  ( 0.000000000000000000, 0.000000000000000000, -1.000000000000000000 ) ) ;
#57 = EDGE_CURVE ( 'NONE', #69, #17, #372, .T. ) ;
#58 = CARTESIAN_POINT ( 'NONE',  ( 2578.852609708759701, 2231.719260780215336, 460.0000000000000000 ) ) ;
#59 = ORIENTED_EDGE ( 'NONE', *, *, #350, .T. ) ;
#60 = AXIS2_PLACEMENT_3D ( 'NONE', #208, #236, #181 ) ;
#61 = DIRECTION ( 'NONE',  ( 0.000000000000000000, 0.000000000000000000, 1.000000000000000000 ) ) ;
#62 = ORIENTED_EDGE ( 'NONE', *, *, #150, .T. ) ;
#63 = CARTESIAN_POINT ( 'NONE',  ( 2662.365698432745376, 2160.314526697125075, 460.0000000000000000 ) ) ;
#64 = ORIENTED_EDGE ( 'NONE', *, *, #43, .T. ) ;
#65 = APPROVAL ( #113, '未指定' ) ;
#66 = CARTESIAN_POINT ( 'NONE',  ( 2673.358078821449908, 2448.486053591475411, 460.0000000000000000 ) ) ;
#67 = CARTESIAN_POINT ( 'NONE',  ( 2688.696024405825028, 2234.457195291055086, 460.0000000000000000 ) ) ;
#68 = EDGE_LOOP ( 'NONE', ( #40, #98, #8, #298 ) ) ;
#69 = VERTEX_POINT ( 'NONE', #160 ) ;
#70 = DIRECTION ( 'NONE',  ( 0.000000000000000000, 0.000000000000000000, 1.000000000000000000 ) ) ;
#71 = EDGE_LOOP ( 'NONE', ( #244, #327, #154, #4, #77, #213, #183, #294 ) ) ;
#72 = CARTESIAN_POINT ( 'NONE',  ( 3079.931142053899748, 1803.290856283120092, 0.000000000000000000 ) ) ;
#73 = DIRECTION ( 'NONE',  ( -0.9613517378191362983, 0.2753231486673915485, 0.000000000000000000 ) ) ;
#74 = FACE_OUTER_BOUND ( 'NONE', #190, .T. ) ;
#75 = ADVANCED_FACE ( 'NONE', ( #103 ), #131, .F. ) ;
#76 = ORIENTED_EDGE ( 'NONE', *, *, #48, .T. ) ;
#77 = ORIENTED_EDGE ( 'NONE', *, *, #202, .F. ) ;
#78 = CIRCLE ( 'NONE', #163, 109.8775319967493260 ) ;
#79 = AXIS2_PLACEMENT_3D ( 'NONE', #288, #126, #303 ) ;
#80 = SHAPE_DEFINITION_REPRESENTATION ( #91, #165 ) ;
#81 = PERSON_AND_ORGANIZATION ( #7, #285 ) ;
#82 = DATE_AND_TIME ( #340, #226 ) ;
#83 = APPLICATION_PROTOCOL_DEFINITION ( 'international standard', 'config_control_design', 1994, #289 ) ;
#84 = CARTESIAN_POINT ( 'NONE',  ( 3079.931142053899748, 1803.290856283120092, 0.000000000000000000 ) ) ;
#85 = APPROVAL_PERSON_ORGANIZATION ( #23, #172, #227 ) ;
#86 = DIRECTION ( 'NONE',  ( 0.02491805614023494264, -0.9996894970330497676, 0.000000000000000000 ) ) ;
#87 = CARTESIAN_POINT ( 'NONE',  ( 3079.931142053899748, 1803.290856283120092, 0.000000000000000000 ) ) ;
#88 = CARTESIAN_POINT ( 'NONE',  ( 2662.365698432745376, 2160.314526697125075, 0.000000000000000000 ) ) ;
#89 = AXIS2_PLACEMENT_3D ( 'NONE', #156, #292, #212 ) ;
#90 = ORIENTED_EDGE ( 'NONE', *, *, #55, .T. ) ;
#91 = PRODUCT_DEFINITION_SHAPE ( 'NONE', 'NONE',  #338 ) ;
#92 = CARTESIAN_POINT ( 'NONE',  ( 2673.358078821449908, 2448.486053591475411, 460.0000000000000000 ) ) ;
#93 = FACE_OUTER_BOUND ( 'NONE', #271, .T. ) ;
#94 = ORIENTED_EDGE ( 'NONE', *, *, #175, .F. ) ;
#95 = VERTEX_POINT ( 'NONE', #16 ) ;
#96 = ADVANCED_FACE ( 'NONE', ( #74 ), #133, .T. ) ;
#97 = CARTESIAN_POINT ( 'NONE',  ( 2578.852609708759701, 2231.719260780215336, 460.0000000000000000 ) ) ;
#98 = ORIENTED_EDGE ( 'NONE', *, *, #309, .F. ) ;
#99 = PLANE ( 'NONE',  #164 ) ;
#100 = CIRCLE ( 'NONE', #25, 559.3876599837482217 ) ;
#101 = PLANE ( 'NONE',  #12 ) ;
#102 = EDGE_CURVE ( 'NONE', #263, #69, #363, .T. ) ;
#103 = FACE_OUTER_BOUND ( 'NONE', #147, .T. ) ;
#104 = PRODUCT_DEFINITION_FORMATION_WITH_SPECIFIED_SOURCE ( '任何', '', #295, .NOT_KNOWN. ) ;
#105 = COORDINATED_UNIVERSAL_TIME_OFFSET ( 8, 0, .AHEAD. ) ;
#106 = DESIGN_CONTEXT ( 'detailed design', #289, 'design' ) ;
#107 = DIRECTION ( 'NONE',  ( 0.000000000000000000, 0.000000000000000000, 1.000000000000000000 ) ) ;
#108 = EDGE_CURVE ( 'NONE', #186, #263, #249, .T. ) ;
#109 = PERSON_AND_ORGANIZATION ( #7, #285 ) ;
#110 = CIRCLE ( 'NONE', #257, 559.3876599837482217 ) ;
#111 = VECTOR ( 'NONE', #32, 1000.000000000000000 ) ;
#112 = ADVANCED_FACE ( 'NONE', ( #361 ), #99, .F. ) ;
#113 = APPROVAL_STATUS ( 'not_yet_approved' ) ;
#114 = AXIS2_PLACEMENT_3D ( 'NONE', #277, #300, #194 ) ;
#115 = LINE ( 'NONE', #66, #128 ) ;
#116 = DIRECTION ( 'NONE',  ( 0.02491805614023449508, -0.9996894970330498786, 0.000000000000000000 ) ) ;
#117 = LINE ( 'NONE', #33, #375 ) ;
#118 = LINE ( 'NONE', #185, #370 ) ;
#119 = EDGE_LOOP ( 'NONE', ( #135, #235, #129, #293 ) ) ;
#120 = VERTEX_POINT ( 'NONE', #159 ) ;
#121 = APPROVAL_PERSON_ORGANIZATION ( #109, #265, #139 ) ;
#122 = CARTESIAN_POINT ( 'NONE',  ( 2578.852609708759701, 2231.719260780215336, 460.0000000000000000 ) ) ;
#123 = CARTESIAN_POINT ( 'NONE',  ( 2683.361184815539673, 2448.486053591475411, 460.0000000000000000 ) ) ;
#124 = VERTEX_POINT ( 'NONE', #174 ) ;
#125 = ORIENTED_EDGE ( 'NONE', *, *, #365, .T. ) ;
#126 = DIRECTION ( 'NONE',  ( 0.000000000000000000, 0.000000000000000000, -1.000000000000000000 ) ) ;
#127 = LINE ( 'NONE', #144, #111 ) ;
#128 = VECTOR ( 'NONE', #322, 1000.000000000000000 ) ;
#129 = ORIENTED_EDGE ( 'NONE', *, *, #368, .F. ) ;
#130 = DIRECTION ( 'NONE',  ( 0.000000000000000000, 0.000000000000000000, -1.000000000000000000 ) ) ;
#131 = PLANE ( 'NONE',  #196 ) ;
#132 = AXIS2_PLACEMENT_3D ( 'NONE', #58, #323, #176 ) ;
#133 = PLANE ( 'NONE',  #114 ) ;
#134 = EDGE_LOOP ( 'NONE', ( #125, #332, #187, #145 ) ) ;
#135 = ORIENTED_EDGE ( 'NONE', *, *, #276, .T. ) ;
#136 = CC_DESIGN_DATE_AND_TIME_ASSIGNMENT ( #169, #252, ( #338 ) ) ;
#137 = COORDINATED_UNIVERSAL_TIME_OFFSET ( 8, 0, .AHEAD. ) ;
#138 = EDGE_CURVE ( 'NONE', #233, #124, #115, .T. ) ;
#139 = APPROVAL_ROLE ( '' ) ;
#140 = CC_DESIGN_PERSON_AND_ORGANIZATION_ASSIGNMENT ( #166, #310, ( #295 ) ) ;
#141 = PERSON_AND_ORGANIZATION ( #7, #285 ) ;
#142 = AXIS2_PLACEMENT_3D ( 'NONE', #246, #269, #239 ) ;
#143 = CARTESIAN_POINT ( 'NONE',  ( 2673.358078821449908, 2448.486053591475411, 460.0000000000000000 ) ) ;
#144 = CARTESIAN_POINT ( 'NONE',  ( 2688.696024405825028, 2234.457195291055086, 460.0000000000000000 ) ) ;
#145 = ORIENTED_EDGE ( 'NONE', *, *, #175, .T. ) ;
#146 =( NAMED_UNIT ( * ) PLANE_ANGLE_UNIT ( ) SI_UNIT ( $, .RADIAN. ) );
#147 = EDGE_LOOP ( 'NONE', ( #209, #267, #268, #19 ) ) ;
#148 = LOCAL_TIME ( 11, 35, 35.00000000000000000, #167 ) ;
#149 = ORIENTED_EDGE ( 'NONE', *, *, #221, .T. ) ;
#150 = EDGE_CURVE ( 'NONE', #237, #290, #210, .T. ) ;
#151 = DIRECTION ( 'NONE',  ( 0.000000000000000000, 0.000000000000000000, 1.000000000000000000 ) ) ;
#152 = CARTESIAN_POINT ( 'NONE',  ( 2673.358078821449908, 2448.486053591475411, 460.0000000000000000 ) ) ;
#153 = ORIENTED_EDGE ( 'NONE', *, *, #368, .T. ) ;
#154 = ORIENTED_EDGE ( 'NONE', *, *, #48, .F. ) ;
#155 = CARTESIAN_POINT ( 'NONE',  ( 2678.699129435490249, 2234.208014729655133, 460.0000000000000000 ) ) ;
#156 = CARTESIAN_POINT ( 'NONE',  ( 2578.852609708759701, 2231.719260780215336, 460.0000000000000000 ) ) ;
#157 = ORIENTED_EDGE ( 'NONE', *, *, #245, .T. ) ;
#158 = ORIENTED_EDGE ( 'NONE', *, *, #102, .F. ) ;
#159 = CARTESIAN_POINT ( 'NONE',  ( 2678.699129435490249, 2234.208014729655133, 460.0000000000000000 ) ) ;
#160 = CARTESIAN_POINT ( 'NONE',  ( 2549.100798322214814, 1944.874566914395018, 0.000000000000000000 ) ) ;
#161 = LINE ( 'NONE', #92, #223 ) ;
#162 = DIRECTION ( 'NONE',  ( 0.000000000000000000, 0.000000000000000000, -1.000000000000000000 ) ) ;
#163 = AXIS2_PLACEMENT_3D ( 'NONE', #266, #61, #39 ) ;
#164 = AXIS2_PLACEMENT_3D ( 'NONE', #143, #256, #374 ) ;
#165 = ADVANCED_BREP_SHAPE_REPRESENTATION ( 'COVER 03_\X2\9ed88ba4\X0\_sldprt', ( #193, #15 ), #178 ) ;
#166 = PERSON_AND_ORGANIZATION ( #7, #285 ) ;
#167 = COORDINATED_UNIVERSAL_TIME_OFFSET ( 8, 0, .AHEAD. ) ;
#168 = EDGE_CURVE ( 'NONE', #290, #216, #296, .T. ) ;
#169 = DATE_AND_TIME ( #305, #311 ) ;
#170 = PERSON_AND_ORGANIZATION_ROLE ( 'creator' ) ;
#171 = COORDINATED_UNIVERSAL_TIME_OFFSET ( 8, 0, .AHEAD. ) ;
#172 = APPROVAL ( #199, '未指定' ) ;
#173 = VECTOR ( 'NONE', #56, 1000.000000000000000 ) ;
#174 = CARTESIAN_POINT ( 'NONE',  ( 2673.358078821449908, 2448.486053591475411, 0.000000000000000000 ) ) ;
#175 = EDGE_CURVE ( 'NONE', #216, #47, #343, .T. ) ;
#176 = DIRECTION ( 'NONE',  ( 1.000000000000000000, 0.000000000000000000, 0.000000000000000000 ) ) ;
#177 = EDGE_LOOP ( 'NONE', ( #356, #35, #325, #291 ) ) ;
#178 =( GEOMETRIC_REPRESENTATION_CONTEXT ( 3 ) GLOBAL_UNCERTAINTY_ASSIGNED_CONTEXT ( ( #198 ) ) GLOBAL_UNIT_ASSIGNED_CONTEXT ( ( #355, #146, #260 ) ) REPRESENTATION_CONTEXT ( 'NONE', 'WORKASPACE' ) );
#179 = ADVANCED_FACE ( 'NONE', ( #362 ), #354, .F. ) ;
#180 = CARTESIAN_POINT ( 'NONE',  ( 3079.931142053899748, 1803.290856283120092, 460.0000000000000000 ) ) ;
#181 = DIRECTION ( 'NONE',  ( 1.000000000000000000, 0.000000000000000000, 0.000000000000000000 ) ) ;
#182 = VERTEX_POINT ( 'NONE', #273 ) ;
#183 = ORIENTED_EDGE ( 'NONE', *, *, #307, .F. ) ;
#184 = CARTESIAN_POINT ( 'NONE',  ( 2539.485704518490365, 1947.628249876240034, 460.0000000000000000 ) ) ;
#185 = CARTESIAN_POINT ( 'NONE',  ( 2539.485704518490365, 1947.628249876240034, 460.0000000000000000 ) ) ;
#186 = VERTEX_POINT ( 'NONE', #184 ) ;
#187 = ORIENTED_EDGE ( 'NONE', *, *, #245, .F. ) ;
#188 = DIRECTION ( 'NONE',  ( 0.02491805614023449508, -0.9996894970330498786, 0.000000000000000000 ) ) ;
#189 = CC_DESIGN_PERSON_AND_ORGANIZATION_ASSIGNMENT ( #283, #282, ( #104 ) ) ;
#190 = EDGE_LOOP ( 'NONE', ( #149, #62, #41, #157, #240, #153, #64, #353 ) ) ;
#191 = LINE ( 'NONE', #220, #287 ) ;
#192 = CARTESIAN_POINT ( 'NONE',  ( 2662.365698432745376, 2160.314526697125075, 460.0000000000000000 ) ) ;
#193 = MANIFOLD_SOLID_BREP ( '输入1', #28 ) ;
#194 = DIRECTION ( 'NONE',  ( 1.000000000000000000, 0.000000000000000000, 0.000000000000000000 ) ) ;
#195 = DATE_AND_TIME ( #51, #253 ) ;
#196 = AXIS2_PLACEMENT_3D ( 'NONE', #274, #14, #46 ) ;
#197 = DATE_AND_TIME ( #22, #148 ) ;
#198 = UNCERTAINTY_MEASURE_WITH_UNIT (LENGTH_MEASURE( 1.000000000000000082E-05 ), #355, 'distance_accuracy_value', 'NONE');
#199 = APPROVAL_STATUS ( 'not_yet_approved' ) ;
#200 = APPROVAL_STATUS ( 'not_yet_approved' ) ;
#201 = PRODUCT_RELATED_PRODUCT_CATEGORY ( 'detail', '', ( #295 ) ) ;
#202 = EDGE_CURVE ( 'NONE', #124, #95, #37, .T. ) ;
#203 = FACE_OUTER_BOUND ( 'NONE', #241, .T. ) ;
#204 = LINE ( 'NONE', #345, #352 ) ;
#205 = ORIENTED_EDGE ( 'NONE', *, *, #350, .F. ) ;
#206 = EDGE_CURVE ( 'NONE', #120, #95, #299, .T. ) ;
#207 = DIRECTION ( 'NONE',  ( 0.000000000000000000, 0.000000000000000000, -1.000000000000000000 ) ) ;
#208 = CARTESIAN_POINT ( 'NONE',  ( 2578.852609708759701, 2231.719260780215336, 0.000000000000000000 ) ) ;
#209 = ORIENTED_EDGE ( 'NONE', *, *, #202, .T. ) ;
#210 = CIRCLE ( 'NONE', #336, 109.8775319967493260 ) ;
#211 = CYLINDRICAL_SURFACE ( 'NONE', #278, 109.8775319967493260 ) ;
#212 = DIRECTION ( 'NONE',  ( -1.000000000000000000, 0.000000000000000000, 0.000000000000000000 ) ) ;
#213 = ORIENTED_EDGE ( 'NONE', *, *, #365, .F. ) ;
#214 = ORIENTED_EDGE ( 'NONE', *, *, #168, .F. ) ;
#215 = CARTESIAN_POINT ( 'NONE',  ( 2683.361184815539673, 2448.486053591475411, 460.0000000000000000 ) ) ;
#216 = VERTEX_POINT ( 'NONE', #313 ) ;
#217 = DIRECTION ( 'NONE',  ( 0.9613517378191362983, -0.2753231486673915485, 0.000000000000000000 ) ) ;
#218 = CARTESIAN_POINT ( 'NONE',  ( 2549.100798322214814, 1944.874566914395018, 460.0000000000000000 ) ) ;
#219 = APPLICATION_CONTEXT ( 'configuration controlled 3d designs of mechanical parts and assemblies' ) ;
#220 = CARTESIAN_POINT ( 'NONE',  ( 2549.100798322214814, 1944.874566914395018, 0.000000000000000000 ) ) ;
#221 = EDGE_CURVE ( 'NONE', #263, #237, #255, .T. ) ;
#222 = DIRECTION ( 'NONE',  ( 1.000000000000000000, 0.000000000000000000, 0.000000000000000000 ) ) ;
#223 = VECTOR ( 'NONE', #27, 1000.000000000000000 ) ;
#224 = PERSON_AND_ORGANIZATION_ROLE ( 'classification_officer' ) ;
#225 = PERSON_AND_ORGANIZATION_ROLE ( 'design_supplier' ) ;
#226 = LOCAL_TIME ( 11, 35, 35.00000000000000000, #105 ) ;
#227 = APPROVAL_ROLE ( '' ) ;
#228 = VECTOR ( 'NONE', #188, 999.9999999999998863 ) ;
#229 = ADVANCED_FACE ( 'NONE', ( #203 ), #9, .T. ) ;
#230 = DIRECTION ( 'NONE',  ( 1.000000000000000000, 0.000000000000000000, 0.000000000000000000 ) ) ;
#231 = DIRECTION ( 'NONE',  ( -0.02491805614023494611, 0.9996894970330498786, 0.000000000000000000 ) ) ;
#232 = ADVANCED_FACE ( 'NONE', ( #45 ), #101, .F. ) ;
#233 = VERTEX_POINT ( 'NONE', #152 ) ;
#234 = DIRECTION ( 'NONE',  ( 0.000000000000000000, 0.000000000000000000, -1.000000000000000000 ) ) ;
#235 = ORIENTED_EDGE ( 'NONE', *, *, #29, .F. ) ;
#236 = DIRECTION ( 'NONE',  ( 0.000000000000000000, 0.000000000000000000, -1.000000000000000000 ) ) ;
#237 = VERTEX_POINT ( 'NONE', #192 ) ;
#238 = AXIS2_PLACEMENT_3D ( 'NONE', #123, #10, #86 ) ;
#239 = DIRECTION ( 'NONE',  ( 1.000000000000000000, 0.000000000000000000, 0.000000000000000000 ) ) ;
#240 = ORIENTED_EDGE ( 'NONE', *, *, #344, .T. ) ;
#241 = EDGE_LOOP ( 'NONE', ( #76, #205, #320, #6 ) ) ;
#242 = VECTOR ( 'NONE', #130, 1000.000000000000000 ) ;
#243 = CARTESIAN_POINT ( 'NONE',  ( 2683.361184815539673, 2448.486053591475411, 460.0000000000000000 ) ) ;
#244 = ORIENTED_EDGE ( 'NONE', *, *, #57, .F. ) ;
#245 = EDGE_CURVE ( 'NONE', #216, #233, #161, .T. ) ;
#246 = CARTESIAN_POINT ( 'NONE',  ( 3079.931142053899748, 1803.290856283120092, 460.0000000000000000 ) ) ;
#247 = DIRECTION ( 'NONE',  ( 1.000000000000000000, 0.000000000000000000, 0.000000000000000000 ) ) ;
#248 = ADVANCED_FACE ( 'NONE', ( #275 ), #211, .T. ) ;
#249 = LINE ( 'NONE', #364, #306 ) ;
#250 = VERTEX_POINT ( 'NONE', #286 ) ;
#251 = MECHANICAL_CONTEXT ( 'NONE', #219, 'mechanical' ) ;
#252 = DATE_TIME_ROLE ( 'creation_date' ) ;
#253 = LOCAL_TIME ( 11, 35, 35.00000000000000000, #171 ) ;
#254 = CALENDAR_DATE ( 2026, 8, 4 ) ;
#255 = CIRCLE ( 'NONE', #142, 549.3876599837487902 ) ;
#256 = DIRECTION ( 'NONE',  ( 0.000000000000000000, -1.000000000000000000, 0.000000000000000000 ) ) ;
#257 = AXIS2_PLACEMENT_3D ( 'NONE', #180, #151, #377 ) ;
#258 = CYLINDRICAL_SURFACE ( 'NONE', #89, 99.87753199674909865 ) ;
#259 = CARTESIAN_POINT ( 'NONE',  ( 2683.361184815539673, 2448.486053591475411, 0.000000000000000000 ) ) ;
#260 =( NAMED_UNIT ( * ) SI_UNIT ( $, .STERADIAN. ) SOLID_ANGLE_UNIT ( ) );
#261 = CYLINDRICAL_SURFACE ( 'NONE', #308, 549.3876599837487902 ) ;
#262 = LOCAL_TIME ( 11, 35, 35.00000000000000000, #137 ) ;
#263 = VERTEX_POINT ( 'NONE', #26 ) ;
#264 = DIRECTION ( 'NONE',  ( 0.000000000000000000, 0.000000000000000000, -1.000000000000000000 ) ) ;
#265 = APPROVAL ( #200, '未指定' ) ;
#266 = CARTESIAN_POINT ( 'NONE',  ( 2578.852609708759701, 2231.719260780215336, 0.000000000000000000 ) ) ;
#267 = ORIENTED_EDGE ( 'NONE', *, *, #206, .F. ) ;
#268 = ORIENTED_EDGE ( 'NONE', *, *, #344, .F. ) ;
#269 = DIRECTION ( 'NONE',  ( 0.000000000000000000, 0.000000000000000000, -1.000000000000000000 ) ) ;
#270 = LINE ( 'NONE', #376, #339 ) ;
#271 = EDGE_LOOP ( 'NONE', ( #297, #94, #214, #324 ) ) ;
#272 = EDGE_CURVE ( 'NONE', #237, #17, #1, .T. ) ;
#273 = CARTESIAN_POINT ( 'NONE',  ( 2539.485704518490365, 1947.628249876240034, 0.000000000000000000 ) ) ;
#274 = CARTESIAN_POINT ( 'NONE',  ( 2673.358078821449908, 2448.486053591475411, 460.0000000000000000 ) ) ;
#275 = FACE_OUTER_BOUND ( 'NONE', #68, .T. ) ;
#276 = EDGE_CURVE ( 'NONE', #95, #357, #317, .T. ) ;
#277 = CARTESIAN_POINT ( 'NONE',  ( 3079.931142053899748, 1803.290856283120092, 460.0000000000000000 ) ) ;
#278 = AXIS2_PLACEMENT_3D ( 'NONE', #122, #264, #5 ) ;
#279 = CC_DESIGN_APPROVAL ( #265, ( #338 ) ) ;
#280 = APPROVAL_DATE_TIME ( #195, #65 ) ;
#281 = CC_DESIGN_PERSON_AND_ORGANIZATION_ASSIGNMENT ( #141, #224, ( #331 ) ) ;
#282 = PERSON_AND_ORGANIZATION_ROLE ( 'creator' ) ;
#283 = PERSON_AND_ORGANIZATION ( #7, #285 ) ;
#284 = ADVANCED_FACE ( 'NONE', ( #93 ), #351, .F. ) ;
#285 = ORGANIZATION ( '未指定', '未指定', '' ) ;
#286 = CARTESIAN_POINT ( 'NONE',  ( 2688.696024405825028, 2234.457195291055086, 0.000000000000000000 ) ) ;
#287 = VECTOR ( 'NONE', #328, 1000.000000000000114 ) ;
#288 = CARTESIAN_POINT ( 'NONE',  ( 3079.931142053899748, 1803.290856283120092, 460.0000000000000000 ) ) ;
#289 = APPLICATION_CONTEXT ( 'configuration controlled 3d designs of mechanical parts and assemblies' ) ;
#290 = VERTEX_POINT ( 'NONE', #67 ) ;
#291 = ORIENTED_EDGE ( 'NONE', *, *, #102, .T. ) ;
#292 = DIRECTION ( 'NONE',  ( 0.000000000000000000, 0.000000000000000000, -1.000000000000000000 ) ) ;
#293 = ORIENTED_EDGE ( 'NONE', *, *, #206, .T. ) ;
#294 = ORIENTED_EDGE ( 'NONE', *, *, #302, .F. ) ;
#295 = PRODUCT ( 'COVER 03_\X2\9ed88ba4\X0\_sldprt', 'COVER 03_\X2\9ed88ba4\X0\_sldprt', '', ( #251 ) ) ;
#296 = LINE ( 'NONE', #215, #18 ) ;
#297 = ORIENTED_EDGE ( 'NONE', *, *, #307, .T. ) ;
#298 = ORIENTED_EDGE ( 'NONE', *, *, #272, .T. ) ;
#299 = LINE ( 'NONE', #155, #242 ) ;
#300 = DIRECTION ( 'NONE',  ( 0.000000000000000000, 0.000000000000000000, 1.000000000000000000 ) ) ;
#301 = CC_DESIGN_SECURITY_CLASSIFICATION ( #331, ( #104 ) ) ;
#302 = EDGE_CURVE ( 'NONE', #17, #250, #78, .T. ) ;
#303 = DIRECTION ( 'NONE',  ( -1.000000000000000000, 0.000000000000000000, 0.000000000000000000 ) ) ;
#304 = DIRECTION ( 'NONE',  ( 0.000000000000000000, 0.000000000000000000, -1.000000000000000000 ) ) ;
#305 = CALENDAR_DATE ( 2026, 8, 4 ) ;
#306 = VECTOR ( 'NONE', #217, 1000.000000000000114 ) ;
#307 = EDGE_CURVE ( 'NONE', #250, #47, #270, .T. ) ;
#308 = AXIS2_PLACEMENT_3D ( 'NONE', #347, #207, #3 ) ;
#309 = EDGE_CURVE ( 'NONE', #290, #250, #127, .T. ) ;
#310 = PERSON_AND_ORGANIZATION_ROLE ( 'design_owner' ) ;
#311 = LOCAL_TIME ( 11, 35, 35.00000000000000000, #53 ) ;
#312 = PERSON_AND_ORGANIZATION ( #7, #285 ) ;
#313 = CARTESIAN_POINT ( 'NONE',  ( 2683.361184815539673, 2448.486053591475411, 460.0000000000000000 ) ) ;
#314 = CARTESIAN_POINT ( 'NONE',  ( 2654.765137407519887, 2166.813101317899964, 0.000000000000000000 ) ) ;
#315 = DIRECTION ( 'NONE',  ( 0.000000000000000000, 0.000000000000000000, 1.000000000000000000 ) ) ;
#316 = DIRECTION ( 'NONE',  ( 0.000000000000000000, 0.000000000000000000, -1.000000000000000000 ) ) ;
#317 = CIRCLE ( 'NONE', #60, 99.87753199674909865 ) ;
#318 = DIRECTION ( 'NONE',  ( 0.000000000000000000, 0.000000000000000000, -1.000000000000000000 ) ) ;
#319 = FACE_OUTER_BOUND ( 'NONE', #119, .T. ) ;
#320 = ORIENTED_EDGE ( 'NONE', *, *, #43, .F. ) ;
#321 = AXIS2_PLACEMENT_3D ( 'NONE', #72, #304, #247 ) ;
#322 = DIRECTION ( 'NONE',  ( 0.000000000000000000, 0.000000000000000000, -1.000000000000000000 ) ) ;
#323 = DIRECTION ( 'NONE',  ( 0.000000000000000000, 0.000000000000000000, -1.000000000000000000 ) ) ;
#324 = ORIENTED_EDGE ( 'NONE', *, *, #309, .T. ) ;
#325 = ORIENTED_EDGE ( 'NONE', *, *, #221, .F. ) ;
#326 = DIRECTION ( 'NONE',  ( 0.000000000000000000, 0.000000000000000000, 1.000000000000000000 ) ) ;
#327 = ORIENTED_EDGE ( 'NONE', *, *, #55, .F. ) ;
#328 = DIRECTION ( 'NONE',  ( 0.9613517378191362983, -0.2753231486673915485, 0.000000000000000000 ) ) ;
#329 = DIRECTION ( 'NONE',  ( 0.2753231486673915485, 0.9613517378191362983, 0.000000000000000000 ) ) ;
#330 = DIRECTION ( 'NONE',  ( 1.000000000000000000, 0.000000000000000000, 0.000000000000000000 ) ) ;
#331 = SECURITY_CLASSIFICATION ( '', '', #337 ) ;
#332 = ORIENTED_EDGE ( 'NONE', *, *, #138, .F. ) ;
#333 = CIRCLE ( 'NONE', #132, 99.87753199674909865 ) ;
#334 = APPROVAL_DATE_TIME ( #197, #172 ) ;
#335 = ADVANCED_FACE ( 'NONE', ( #319 ), #258, .F. ) ;
#336 = AXIS2_PLACEMENT_3D ( 'NONE', #97, #326, #230 ) ;
#337 = SECURITY_CLASSIFICATION_LEVEL ( 'unclassified' ) ;
#338 = PRODUCT_DEFINITION ( '未知', '', #104, #106 ) ;
#339 = VECTOR ( 'NONE', #231, 999.9999999999998863 ) ;
#340 = CALENDAR_DATE ( 2026, 8, 4 ) ;
#341 = CARTESIAN_POINT ( 'NONE',  ( 0.000000000000000000, 0.000000000000000000, 0.000000000000000000 ) ) ;
#342 = CC_DESIGN_DATE_AND_TIME_ASSIGNMENT ( #367, #371, ( #331 ) ) ;
#343 = LINE ( 'NONE', #243, #173 ) ;
#344 = EDGE_CURVE ( 'NONE', #233, #120, #348, .T. ) ;
#345 = CARTESIAN_POINT ( 'NONE',  ( 2673.358078821449908, 2448.486053591475411, 0.000000000000000000 ) ) ;
#346 = APPROVAL_PERSON_ORGANIZATION ( #81, #65, #54 ) ;
#347 = CARTESIAN_POINT ( 'NONE',  ( 3079.931142053899748, 1803.290856283120092, 460.0000000000000000 ) ) ;
#348 = LINE ( 'NONE', #34, #49 ) ;
#349 = CARTESIAN_POINT ( 'NONE',  ( 2654.765137407519887, 2166.813101317899964, 460.0000000000000000 ) ) ;
#350 = EDGE_CURVE ( 'NONE', #186, #182, #118, .T. ) ;
#351 = PLANE ( 'NONE',  #238 ) ;
#352 = VECTOR ( 'NONE', #30, 1000.000000000000000 ) ;
#353 = ORIENTED_EDGE ( 'NONE', *, *, #108, .T. ) ;
#354 = PLANE ( 'NONE',  #50 ) ;
#355 =( LENGTH_UNIT ( ) NAMED_UNIT ( * ) SI_UNIT ( .MILLI., .METRE. ) );
#356 = ORIENTED_EDGE ( 'NONE', *, *, #57, .T. ) ;
#357 = VERTEX_POINT ( 'NONE', #314 ) ;
#358 = VECTOR ( 'NONE', #162, 1000.000000000000000 ) ;
#359 = DIRECTION ( 'NONE',  ( -0.02491805614023494611, 0.9996894970330498786, 0.000000000000000000 ) ) ;
#360 = ORIENTED_EDGE ( 'NONE', *, *, #108, .F. ) ;
#361 = FACE_OUTER_BOUND ( 'NONE', #134, .T. ) ;
#362 = FACE_OUTER_BOUND ( 'NONE', #71, .T. ) ;
#363 = LINE ( 'NONE', #44, #358 ) ;
#364 = CARTESIAN_POINT ( 'NONE',  ( 2549.100798322214814, 1944.874566914395018, 460.0000000000000000 ) ) ;
#365 = EDGE_CURVE ( 'NONE', #47, #124, #204, .T. ) ;
#366 = APPLICATION_PROTOCOL_DEFINITION ( 'international standard', 'config_control_design', 1994, #219 ) ;
#367 = DATE_AND_TIME ( #254, #262 ) ;
#368 = EDGE_CURVE ( 'NONE', #120, #11, #333, .T. ) ;
#369 = APPROVAL_DATE_TIME ( #82, #265 ) ;
#370 = VECTOR ( 'NONE', #234, 1000.000000000000000 ) ;
#371 = DATE_TIME_ROLE ( 'classification_date' ) ;
#372 = CIRCLE ( 'NONE', #321, 549.3876599837487902 ) ;
#373 = CC_DESIGN_PERSON_AND_ORGANIZATION_ASSIGNMENT ( #312, #170, ( #338 ) ) ;
#374 = DIRECTION ( 'NONE',  ( 0.000000000000000000, 0.000000000000000000, -1.000000000000000000 ) ) ;
#375 = VECTOR ( 'NONE', #318, 1000.000000000000000 ) ;
#376 = CARTESIAN_POINT ( 'NONE',  ( 2683.361184815539673, 2448.486053591475411, 0.000000000000000000 ) ) ;
#377 = DIRECTION ( 'NONE',  ( 1.000000000000000000, 0.000000000000000000, 0.000000000000000000 ) ) ;
ENDSEC;
END-ISO-10303-21;
