ISO-10303-21;
HEADER;
FILE_DESCRIPTION (( 'STEP AP203' ),
    '1' );
FILE_NAME ('GRIPPER_默认_sldprt.STEP',
    '2026-04-08T03:35:36',
    ( '' ),
    ( '' ),
    'SwSTEP 2.0',
    'SolidWorks 2022',
    '' );
FILE_SCHEMA (( 'CONFIG_CONTROL_DESIGN' ));
ENDSEC;

DATA;
#1 = CARTESIAN_POINT ( 'NONE',  ( 6834.632647107378943, 3925.218631807570091, -113.1370849898482049 ) ) ;
#2 = COORDINATED_UNIVERSAL_TIME_OFFSET ( 8, 0, .AHEAD. ) ;
#3 = ORIENTED_EDGE ( 'NONE', *, *, #610, .T. ) ;
#4 = EDGE_CURVE ( 'NONE', #70, #138, #231, .T. ) ;
#5 = CARTESIAN_POINT ( 'NONE',  ( 6853.052157154530505, 4010.759517410519948, 15.00000000000000000 ) ) ;
#6 = EDGE_LOOP ( 'NONE', ( #176, #161 ) ) ;
#7 = ORIENTED_EDGE ( 'NONE', *, *, #180, .F. ) ;
#8 = CARTESIAN_POINT ( 'NONE',  ( 6864.632647107379853, 3925.218631807570091, 0.000000000000000000 ) ) ;
#9 = CARTESIAN_POINT ( 'NONE',  ( 6710.205052116800289, 3651.954143387785280, 15.00000000000000000 ) ) ;
#10 = EDGE_CURVE ( 'NONE', #337, #395, #393, .T. ) ;
#11 = PRODUCT_DEFINITION_FORMATION_WITH_SPECIFIED_SOURCE ( '任何', '', #655, .NOT_KNOWN. ) ;
#12 = ORIENTED_EDGE ( 'NONE', *, *, #432, .F. ) ;
#13 = AXIS2_PLACEMENT_3D ( 'NONE', #304, #35, #247 ) ;
#14 = DIRECTION ( 'NONE',  ( 1.000000000000000000, 0.000000000000000000, 0.000000000000000000 ) ) ;
#15 = DIRECTION ( 'NONE',  ( 1.000000000000000000, 0.000000000000000000, 0.000000000000000000 ) ) ;
#16 = DIRECTION ( 'NONE',  ( -0.000000000000000000, -0.000000000000000000, -1.000000000000000000 ) ) ;
#17 = CARTESIAN_POINT ( 'NONE',  ( 6799.846461661270951, 3942.086059912549899, 0.000000000000000000 ) ) ;
#18 = ORIENTED_EDGE ( 'NONE', *, *, #137, .F. ) ;
#19 = CARTESIAN_POINT ( 'NONE',  ( 6936.878955077850151, 2779.773001274889793, 15.00000000000000000 ) ) ;
#20 = DIRECTION ( 'NONE',  ( 0.000000000000000000, 0.000000000000000000, -1.000000000000000000 ) ) ;
#21 = ORIENTED_EDGE ( 'NONE', *, *, #575, .T. ) ;
#22 = AXIS2_PLACEMENT_3D ( 'NONE', #320, #531, #581 ) ;
#23 = CARTESIAN_POINT ( 'NONE',  ( 6834.469242001679049, 3650.218631807570091, 15.00000000000000000 ) ) ;
#24 = VECTOR ( 'NONE', #636, 1000.000000000000000 ) ;
#25 = VECTOR ( 'NONE', #571, 1000.000000000000000 ) ;
#26 = CARTESIAN_POINT ( 'NONE',  ( 7127.770495737719102, 3294.930472973515407, 15.00000000000000000 ) ) ;
#27 = ORIENTED_EDGE ( 'NONE', *, *, #10, .F. ) ;
#28 = EDGE_CURVE ( 'NONE', #686, #493, #269, .T. ) ;
#29 = CARTESIAN_POINT ( 'NONE',  ( 6731.194327475610407, 3940.374850843274544, 15.00000000000000000 ) ) ;
#30 = ORIENTED_EDGE ( 'NONE', *, *, #28, .T. ) ;
#31 = EDGE_CURVE ( 'NONE', #325, #457, #113, .T. ) ;
#32 = CYLINDRICAL_SURFACE ( 'NONE', #415, 30.00000000000024869 ) ;
#33 = DIRECTION ( 'NONE',  ( -1.000000000000000000, 0.000000000000000000, 0.000000000000000000 ) ) ;
#34 = EDGE_CURVE ( 'NONE', #579, #187, #327, .T. ) ;
#35 = DIRECTION ( 'NONE',  ( 0.000000000000000000, 0.000000000000000000, -1.000000000000000000 ) ) ;
#36 = CARTESIAN_POINT ( 'NONE',  ( 6864.632647107379853, 3925.218631807570091, -113.1370849898482049 ) ) ;
#37 = ORIENTED_EDGE ( 'NONE', *, *, #220, .F. ) ;
#38 = CYLINDRICAL_SURFACE ( 'NONE', #293, 68.67345749796794507 ) ;
#39 = LOCAL_TIME ( 11, 35, 36.00000000000000000, #59 ) ;
#40 = DIRECTION ( 'NONE',  ( 0.000000000000000000, 0.000000000000000000, 1.000000000000000000 ) ) ;
#41 = ORIENTED_EDGE ( 'NONE', *, *, #94, .F. ) ;
#42 = CIRCLE ( 'NONE', #572, 30.00000000000024869 ) ;
#43 = VECTOR ( 'NONE', #333, 1000.000000000000114 ) ;
#44 = ADVANCED_FACE ( 'NONE', ( #391 ), #382, .F. ) ;
#45 = DIRECTION ( 'NONE',  ( -1.000000000000000000, 0.000000000000000000, 0.000000000000000000 ) ) ;
#46 = CARTESIAN_POINT ( 'NONE',  ( 6736.535378089650294, 3726.096811981450173, 15.00000000000000000 ) ) ;
#47 = ORIENTED_EDGE ( 'NONE', *, *, #149, .T. ) ;
#48 = ADVANCED_FACE ( 'NONE', ( #336 ), #507, .T. ) ;
#49 = DIRECTION ( 'NONE',  ( -0.000000000000000000, -0.000000000000000000, -1.000000000000000000 ) ) ;
#50 = PERSON_AND_ORGANIZATION_ROLE ( 'creator' ) ;
#51 = ORIENTED_EDGE ( 'NONE', *, *, #347, .T. ) ;
#52 = ORIENTED_EDGE ( 'NONE', *, *, #408, .F. ) ;
#53 = CARTESIAN_POINT ( 'NONE',  ( 6834.469242001679049, 3650.218631807570091, -113.1370849898482049 ) ) ;
#54 = ADVANCED_FACE ( 'NONE', ( #129 ), #549, .F. ) ;
#55 = VERTEX_POINT ( 'NONE', #339 ) ;
#56 = CIRCLE ( 'NONE', #253, 30.00000000000024869 ) ;
#57 = AXIS2_PLACEMENT_3D ( 'NONE', #621, #569, #80 ) ;
#58 = DIRECTION ( 'NONE',  ( 0.000000000000000000, 0.000000000000000000, -1.000000000000000000 ) ) ;
#59 = COORDINATED_UNIVERSAL_TIME_OFFSET ( 8, 0, .AHEAD. ) ;
#60 = ORIENTED_EDGE ( 'NONE', *, *, #511, .F. ) ;
#61 = VERTEX_POINT ( 'NONE', #72 ) ;
#62 = APPLICATION_CONTEXT ( 'configuration controlled 3d designs of mechanical parts and assemblies' ) ;
#63 = FACE_OUTER_BOUND ( 'NONE', #368, .T. ) ;
#64 = DIRECTION ( 'NONE',  ( -0.000000000000000000, -0.000000000000000000, -1.000000000000000000 ) ) ;
#65 = DIRECTION ( 'NONE',  ( 1.000000000000000000, 0.000000000000000000, 0.000000000000000000 ) ) ;
#66 = DATE_AND_TIME ( #222, #168 ) ;
#67 = DIRECTION ( 'NONE',  ( 0.000000000000000000, 0.000000000000000000, -1.000000000000000000 ) ) ;
#68 = DIRECTION ( 'NONE',  ( 1.000000000000000000, 0.000000000000000000, 0.000000000000000000 ) ) ;
#69 = DIRECTION ( 'NONE',  ( 1.000000000000000000, 0.000000000000000000, 0.000000000000000000 ) ) ;
#70 = VERTEX_POINT ( 'NONE', #9 ) ;
#71 = LINE ( 'NONE', #270, #625 ) ;
#72 = CARTESIAN_POINT ( 'NONE',  ( 6578.382835753971449, 3294.930472973515407, 15.00000000000000000 ) ) ;
#73 = ORIENTED_EDGE ( 'NONE', *, *, #4, .F. ) ;
#74 = CARTESIAN_POINT ( 'NONE',  ( 6834.469242001679049, 3650.218631807570091, -113.1370849898482049 ) ) ;
#75 = CARTESIAN_POINT ( 'NONE',  ( 6936.878955077850151, 2779.773001274889793, 0.000000000000000000 ) ) ;
#76 = EDGE_CURVE ( 'NONE', #325, #654, #510, .T. ) ;
#77 = VERTEX_POINT ( 'NONE', #385 ) ;
#78 = LOCAL_TIME ( 11, 35, 36.00000000000000000, #643 ) ;
#79 = AXIS2_PLACEMENT_3D ( 'NONE', #171, #551, #65 ) ;
#80 = DIRECTION ( 'NONE',  ( 1.000000000000000000, 0.000000000000000000, 0.000000000000000000 ) ) ;
#81 = APPROVAL ( #426, '未指定' ) ;
#82 = ORIENTED_EDGE ( 'NONE', *, *, #195, .F. ) ;
#83 = CYLINDRICAL_SURFACE ( 'NONE', #13, 604.3264259821228279 ) ;
#84 = LINE ( 'NONE', #355, #635 ) ;
#85 = DIRECTION ( 'NONE',  ( 0.000000000000000000, 0.000000000000000000, 1.000000000000000000 ) ) ;
#86 = CIRCLE ( 'NONE', #566, 30.00000000000024869 ) ;
#87 = CIRCLE ( 'NONE', #503, 109.8775319967488713 ) ;
#88 = DIRECTION ( 'NONE',  ( 1.000000000000000000, 0.000000000000000000, 0.000000000000000000 ) ) ;
#89 = ORIENTED_EDGE ( 'NONE', *, *, #104, .F. ) ;
#90 = DESIGN_CONTEXT ( 'detailed design', #62, 'design' ) ;
#91 = LINE ( 'NONE', #208, #326 ) ;
#92 = DATE_AND_TIME ( #323, #78 ) ;
#93 = ORIENTED_EDGE ( 'NONE', *, *, #34, .F. ) ;
#94 = EDGE_CURVE ( 'NONE', #130, #654, #603, .T. ) ;
#95 = DIRECTION ( 'NONE',  ( 1.000000000000000000, 0.000000000000000000, 0.000000000000000000 ) ) ;
#96 = LOCAL_TIME ( 11, 35, 36.00000000000000000, #116 ) ;
#97 = MECHANICAL_CONTEXT ( 'NONE', #169, 'mechanical' ) ;
#98 = ORIENTED_EDGE ( 'NONE', *, *, #94, .T. ) ;
#99 = VECTOR ( 'NONE', #258, 999.9999999999998863 ) ;
#100 = CC_DESIGN_PERSON_AND_ORGANIZATION_ASSIGNMENT ( #235, #119, ( #11 ) ) ;
#101 = EDGE_CURVE ( 'NONE', #457, #167, #190, .T. ) ;
#102 = DIRECTION ( 'NONE',  ( 0.000000000000000000, 0.000000000000000000, -1.000000000000000000 ) ) ;
#103 = EDGE_LOOP ( 'NONE', ( #250, #653, #521, #568, #114, #164, #307, #47, #467, #157, #461, #212, #491 ) ) ;
#104 = EDGE_CURVE ( 'NONE', #233, #374, #170, .T. ) ;
#105 = DIRECTION ( 'NONE',  ( 0.02491805614023464427, -0.9996894970330498786, 0.000000000000000000 ) ) ;
#106 = DIRECTION ( 'NONE',  ( -1.000000000000000000, 0.000000000000000000, 0.000000000000000000 ) ) ;
#107 = VERTEX_POINT ( 'NONE', #342 ) ;
#108 = DIRECTION ( 'NONE',  ( 1.000000000000000000, 0.000000000000000000, 0.000000000000000000 ) ) ;
#109 = CARTESIAN_POINT ( 'NONE',  ( 6799.846461661270951, 4010.759517410519948, 15.00000000000000000 ) ) ;
#110 = VERTEX_POINT ( 'NONE', #562 ) ;
#111 =( GEOMETRIC_REPRESENTATION_CONTEXT ( 3 ) GLOBAL_UNCERTAINTY_ASSIGNED_CONTEXT ( ( #419 ) ) GLOBAL_UNIT_ASSIGNED_CONTEXT ( ( #314, #430, #199 ) ) REPRESENTATION_CONTEXT ( 'NONE', 'WORKASPACE' ) );
#112 = CIRCLE ( 'NONE', #679, 109.8775319967488713 ) ;
#113 = CIRCLE ( 'NONE', #367, 604.3264259821228279 ) ;
#114 = ORIENTED_EDGE ( 'NONE', *, *, #101, .T. ) ;
#115 = CARTESIAN_POINT ( 'NONE',  ( 6799.846461661270951, 4010.759517410519948, 0.000000000000000000 ) ) ;
#116 = COORDINATED_UNIVERSAL_TIME_OFFSET ( 8, 0, .AHEAD. ) ;
#117 = DIRECTION ( 'NONE',  ( 1.000000000000000000, 0.000000000000000000, 0.000000000000000000 ) ) ;
#118 = DIRECTION ( 'NONE',  ( 0.000000000000000000, 0.000000000000000000, -1.000000000000000000 ) ) ;
#119 = PERSON_AND_ORGANIZATION_ROLE ( 'design_supplier' ) ;
#120 = CARTESIAN_POINT ( 'NONE',  ( 6945.940945926359745, 2803.072793588589775, 0.000000000000000000 ) ) ;
#121 = ORIENTED_EDGE ( 'NONE', *, *, #297, .T. ) ;
#122 = CYLINDRICAL_SURFACE ( 'NONE', #356, 549.3876599837479944 ) ;
#123 = APPROVAL_STATUS ( 'not_yet_approved' ) ;
#124 = DIRECTION ( 'NONE',  ( 1.000000000000000000, 0.000000000000000000, 0.000000000000000000 ) ) ;
#125 = APPROVAL ( #123, '未指定' ) ;
#126 = LOCAL_TIME ( 11, 35, 36.00000000000000000, #2 ) ;
#127 = EDGE_LOOP ( 'NONE', ( #485, #536, #260, #590 ) ) ;
#128 = FACE_BOUND ( 'NONE', #273, .T. ) ;
#129 = FACE_OUTER_BOUND ( 'NONE', #127, .T. ) ;
#130 = VERTEX_POINT ( 'NONE', #75 ) ;
#131 = CARTESIAN_POINT ( 'NONE',  ( 6834.632647107378943, 3925.218631807570091, 15.00000000000000000 ) ) ;
#132 = EDGE_CURVE ( 'NONE', #457, #233, #290, .T. ) ;
#133 = CARTESIAN_POINT ( 'NONE',  ( 7380.922448723639718, 3222.598146057955091, 0.000000000000000000 ) ) ;
#134 = ORIENTED_EDGE ( 'NONE', *, *, #409, .F. ) ;
#135 = DIRECTION ( 'NONE',  ( 1.000000000000000000, 0.000000000000000000, 0.000000000000000000 ) ) ;
#136 = CARTESIAN_POINT ( 'NONE',  ( 6776.596022741517118, 3222.598146057955091, 0.000000000000000000 ) ) ;
#137 = EDGE_CURVE ( 'NONE', #70, #61, #198, .T. ) ;
#138 = VERTEX_POINT ( 'NONE', #228 ) ;
#139 = CIRCLE ( 'NONE', #254, 30.00000000000024869 ) ;
#140 = VECTOR ( 'NONE', #20, 1000.000000000000000 ) ;
#141 = CARTESIAN_POINT ( 'NONE',  ( 6853.052157154530505, 4010.759517410519948, 0.000000000000000000 ) ) ;
#142 = DIRECTION ( 'NONE',  ( 1.000000000000000000, 0.000000000000000000, 0.000000000000000000 ) ) ;
#143 = DIRECTION ( 'NONE',  ( 0.000000000000000000, 0.000000000000000000, -1.000000000000000000 ) ) ;
#144 = CC_DESIGN_PERSON_AND_ORGANIZATION_ASSIGNMENT ( #335, #442, ( #543 ) ) ;
#145 = CARTESIAN_POINT ( 'NONE',  ( 6799.846461661270951, 4010.759517410519948, 0.000000000000000000 ) ) ;
#146 = AXIS2_PLACEMENT_3D ( 'NONE', #353, #570, #249 ) ;
#147 = ORIENTED_EDGE ( 'NONE', *, *, #180, .T. ) ;
#148 = CYLINDRICAL_SURFACE ( 'NONE', #414, 30.00000000000024869 ) ;
#149 = EDGE_CURVE ( 'NONE', #427, #542, #669, .T. ) ;
#150 = CARTESIAN_POINT ( 'NONE',  ( 6864.469242001679959, 3650.218631807570091, 15.00000000000000000 ) ) ;
#151 = ORIENTED_EDGE ( 'NONE', *, *, #272, .T. ) ;
#152 = CARTESIAN_POINT ( 'NONE',  ( 6736.535378089650294, 3726.096811981450173, 0.000000000000000000 ) ) ;
#153 = DIRECTION ( 'NONE',  ( 0.000000000000000000, 0.000000000000000000, -1.000000000000000000 ) ) ;
#154 = ORIENTED_EDGE ( 'NONE', *, *, #158, .F. ) ;
#155 = LINE ( 'NONE', #639, #312 ) ;
#156 = DIRECTION ( 'NONE',  ( 1.000000000000000000, 0.000000000000000000, 0.000000000000000000 ) ) ;
#157 = ORIENTED_EDGE ( 'NONE', *, *, #10, .T. ) ;
#158 = EDGE_CURVE ( 'NONE', #471, #210, #465, .T. ) ;
#159 = DIRECTION ( 'NONE',  ( 0.000000000000000000, 0.000000000000000000, -1.000000000000000000 ) ) ;
#160 = FACE_OUTER_BOUND ( 'NONE', #343, .T. ) ;
#161 = ORIENTED_EDGE ( 'NONE', *, *, #624, .F. ) ;
#162 = DIRECTION ( 'NONE',  ( 1.000000000000000000, 0.000000000000000000, 0.000000000000000000 ) ) ;
#163 = CALENDAR_DATE ( 2026, 8, 4 ) ;
#164 = ORIENTED_EDGE ( 'NONE', *, *, #497, .T. ) ;
#165 = DIRECTION ( 'NONE',  ( 1.000000000000000000, 0.000000000000000000, 0.000000000000000000 ) ) ;
#166 = APPROVAL_DATE_TIME ( #66, #125 ) ;
#167 = VERTEX_POINT ( 'NONE', #246 ) ;
#168 = LOCAL_TIME ( 11, 35, 36.00000000000000000, #499 ) ;
#169 = APPLICATION_CONTEXT ( 'configuration controlled 3d designs of mechanical parts and assemblies' ) ;
#170 = CIRCLE ( 'NONE', #626, 604.3264259821228279 ) ;
#171 = CARTESIAN_POINT ( 'NONE',  ( 7127.770495737719102, 3294.930472973515407, 15.00000000000000000 ) ) ;
#172 = ADVANCED_FACE ( 'NONE', ( #678 ), #464, .T. ) ;
#173 = CARTESIAN_POINT ( 'NONE',  ( 6945.940945926359745, 2803.072793588589775, 15.00000000000000000 ) ) ;
#174 = ORIENTED_EDGE ( 'NONE', *, *, #132, .F. ) ;
#175 = CARTESIAN_POINT ( 'NONE',  ( 6862.524006533469219, 3942.742403137215206, 0.000000000000000000 ) ) ;
#176 = ORIENTED_EDGE ( 'NONE', *, *, #610, .F. ) ;
#177 = CARTESIAN_POINT ( 'NONE',  ( 7127.770495737719102, 3294.930472973515407, 15.00000000000000000 ) ) ;
#178 = CARTESIAN_POINT ( 'NONE',  ( 6799.846461661270951, 3942.086059912549899, 15.00000000000000000 ) ) ;
#179 = ORIENTED_EDGE ( 'NONE', *, *, #324, .T. ) ;
#180 = EDGE_CURVE ( 'NONE', #187, #582, #567, .T. ) ;
#181 = AXIS2_PLACEMENT_3D ( 'NONE', #175, #664, #165 ) ;
#182 = DIRECTION ( 'NONE',  ( 1.000000000000000000, 0.000000000000000000, 0.000000000000000000 ) ) ;
#183 = ORIENTED_EDGE ( 'NONE', *, *, #511, .T. ) ;
#184 = ORIENTED_EDGE ( 'NONE', *, *, #272, .F. ) ;
#185 = LINE ( 'NONE', #672, #594 ) ;
#186 = DIRECTION ( 'NONE',  ( 0.000000000000000000, 0.000000000000000000, 1.000000000000000000 ) ) ;
#187 = VERTEX_POINT ( 'NONE', #306 ) ;
#188 = DIRECTION ( 'NONE',  ( 0.000000000000000000, 0.000000000000000000, -1.000000000000000000 ) ) ;
#189 = AXIS2_PLACEMENT_3D ( 'NONE', #642, #49, #416 ) ;
#190 = CIRCLE ( 'NONE', #573, 604.3264259821228279 ) ;
#191 = DIRECTION ( 'NONE',  ( 0.000000000000000000, 0.000000000000000000, -1.000000000000000000 ) ) ;
#192 = DIRECTION ( 'NONE',  ( 0.000000000000000000, 0.000000000000000000, 1.000000000000000000 ) ) ;
#193 = DIRECTION ( 'NONE',  ( 1.000000000000000000, 0.000000000000000000, 0.000000000000000000 ) ) ;
#194 = ORIENTED_EDGE ( 'NONE', *, *, #517, .T. ) ;
#195 = EDGE_CURVE ( 'NONE', #395, #187, #84, .T. ) ;
#196 = CARTESIAN_POINT ( 'NONE',  ( 6945.940945926359745, 2803.072793588589775, 15.00000000000000000 ) ) ;
#197 = VECTOR ( 'NONE', #667, 1000.000000000000000 ) ;
#198 = CIRCLE ( 'NONE', #614, 549.3876599837479944 ) ;
#199 =( NAMED_UNIT ( * ) SI_UNIT ( $, .STERADIAN. ) SOLID_ANGLE_UNIT ( ) );
#200 = ORIENTED_EDGE ( 'NONE', *, *, #297, .F. ) ;
#201 = ADVANCED_FACE ( 'NONE', ( #466 ), #407, .T. ) ;
#202 = DIRECTION ( 'NONE',  ( -1.000000000000000000, 0.000000000000000000, 0.000000000000000000 ) ) ;
#203 = EDGE_CURVE ( 'NONE', #219, #579, #401, .T. ) ;
#204 = VERTEX_POINT ( 'NONE', #522 ) ;
#205 = DIRECTION ( 'NONE',  ( -0.02491805614023464080, 0.9996894970330497676, 0.000000000000000000 ) ) ;
#206 = PERSON_AND_ORGANIZATION ( #369, #405 ) ;
#207 = ORIENTED_EDGE ( 'NONE', *, *, #31, .F. ) ;
#208 = CARTESIAN_POINT ( 'NONE',  ( 6736.535378089650294, 3726.096811981450173, 15.00000000000000000 ) ) ;
#209 = VECTOR ( 'NONE', #422, 1000.000000000000000 ) ;
#210 = VERTEX_POINT ( 'NONE', #345 ) ;
#211 = AXIS2_PLACEMENT_3D ( 'NONE', #221, #286, #389 ) ;
#212 = ORIENTED_EDGE ( 'NONE', *, *, #408, .T. ) ;
#213 = DIRECTION ( 'NONE',  ( 0.000000000000000000, 0.000000000000000000, -1.000000000000000000 ) ) ;
#214 = CYLINDRICAL_SURFACE ( 'NONE', #310, 109.8775319967488713 ) ;
#215 = VERTEX_POINT ( 'NONE', #683 ) ;
#216 = PRODUCT_DEFINITION_SHAPE ( 'NONE', 'NONE',  #525 ) ;
#217 = DIRECTION ( 'NONE',  ( 0.000000000000000000, 0.000000000000000000, 1.000000000000000000 ) ) ;
#218 = ORIENTED_EDGE ( 'NONE', *, *, #400, .T. ) ;
#219 = VERTEX_POINT ( 'NONE', #141 ) ;
#220 = EDGE_CURVE ( 'NONE', #374, #292, #87, .T. ) ;
#221 = CARTESIAN_POINT ( 'NONE',  ( 6945.940945926359745, 2803.072793588589775, 15.00000000000000000 ) ) ;
#222 = CALENDAR_DATE ( 2026, 8, 4 ) ;
#223 = ORIENTED_EDGE ( 'NONE', *, *, #352, .F. ) ;
#224 = AXIS2_PLACEMENT_3D ( 'NONE', #482, #692, #205 ) ;
#225 = AXIS2_PLACEMENT_3D ( 'NONE', #673, #298, #33 ) ;
#226 = CARTESIAN_POINT ( 'NONE',  ( 6834.469242001679049, 3650.218631807570091, 15.00000000000000000 ) ) ;
#227 = EDGE_CURVE ( 'NONE', #61, #438, #488, .T. ) ;
#228 = CARTESIAN_POINT ( 'NONE',  ( 6710.205052116800289, 3651.954143387785280, 0.000000000000000000 ) ) ;
#229 = ADVANCED_FACE ( 'NONE', ( #632 ), #32, .F. ) ;
#230 = DIRECTION ( 'NONE',  ( 1.000000000000000000, 0.000000000000000000, 0.000000000000000000 ) ) ;
#231 = LINE ( 'NONE', #600, #585 ) ;
#232 = EDGE_CURVE ( 'NONE', #641, #70, #445, .T. ) ;
#233 = VERTEX_POINT ( 'NONE', #136 ) ;
#234 = DIRECTION ( 'NONE',  ( -1.000000000000000000, 0.000000000000000000, 0.000000000000000000 ) ) ;
#235 = PERSON_AND_ORGANIZATION ( #369, #405 ) ;
#236 = CARTESIAN_POINT ( 'NONE',  ( 7380.922448723639718, 3222.598146057955091, 15.00000000000000000 ) ) ;
#237 = ORIENTED_EDGE ( 'NONE', *, *, #76, .F. ) ;
#238 = CIRCLE ( 'NONE', #501, 109.8775319967488713 ) ;
#239 = AXIS2_PLACEMENT_3D ( 'NONE', #300, #191, #295 ) ;
#240 = DIRECTION ( 'NONE',  ( 0.000000000000000000, 0.000000000000000000, 1.000000000000000000 ) ) ;
#241 = DIRECTION ( 'NONE',  ( 0.000000000000000000, 0.000000000000000000, 1.000000000000000000 ) ) ;
#242 = EDGE_LOOP ( 'NONE', ( #21, #556, #452, #364 ) ) ;
#243 = CARTESIAN_POINT ( 'NONE',  ( 7127.770495737719102, 3294.930472973515407, 15.00000000000000000 ) ) ;
#244 = ORIENTED_EDGE ( 'NONE', *, *, #682, .F. ) ;
#245 = CARTESIAN_POINT ( 'NONE',  ( 6626.691963392579964, 3723.358877470605421, 15.00000000000000000 ) ) ;
#246 = CARTESIAN_POINT ( 'NONE',  ( 6907.319141749790106, 3597.978402283245487, 15.00000000000000000 ) ) ;
#247 = DIRECTION ( 'NONE',  ( -1.000000000000000000, 0.000000000000000000, 0.000000000000000000 ) ) ;
#248 = EDGE_CURVE ( 'NONE', #107, #582, #351, .T. ) ;
#249 = DIRECTION ( 'NONE',  ( 1.000000000000000000, 0.000000000000000000, 0.000000000000000000 ) ) ;
#250 = ORIENTED_EDGE ( 'NONE', *, *, #137, .T. ) ;
#251 = VECTOR ( 'NONE', #263, 1000.000000000000000 ) ;
#252 = DIRECTION ( 'NONE',  ( 0.000000000000000000, 0.000000000000000000, 1.000000000000000000 ) ) ;
#253 = AXIS2_PLACEMENT_3D ( 'NONE', #494, #16, #597 ) ;
#254 = AXIS2_PLACEMENT_3D ( 'NONE', #23, #240, #135 ) ;
#255 = FACE_BOUND ( 'NONE', #257, .T. ) ;
#256 = EDGE_CURVE ( 'NONE', #438, #130, #463, .T. ) ;
#257 = EDGE_LOOP ( 'NONE', ( #587, #431 ) ) ;
#258 = DIRECTION ( 'NONE',  ( 0.02491805614023464427, -0.9996894970330498786, 0.000000000000000000 ) ) ;
#259 = PERSON_AND_ORGANIZATION ( #369, #405 ) ;
#260 = ORIENTED_EDGE ( 'NONE', *, *, #650, .F. ) ;
#261 = CLOSED_SHELL ( 'NONE', ( #354, #628, #375, #282, #472, #599, #675, #201, #502, #421, #172, #44, #365, #54, #48, #373, #696, #305, #229 ) ) ;
#262 = DIRECTION ( 'NONE',  ( 0.000000000000000000, 0.000000000000000000, -1.000000000000000000 ) ) ;
#263 = DIRECTION ( 'NONE',  ( 0.000000000000000000, 1.000000000000000000, 0.000000000000000000 ) ) ;
#264 = ORIENTED_EDGE ( 'NONE', *, *, #558, .T. ) ;
#265 = CARTESIAN_POINT ( 'NONE',  ( 6907.319141749790106, 3597.978402283245487, 0.000000000000000000 ) ) ;
#266 = EDGE_CURVE ( 'NONE', #493, #77, #527, .T. ) ;
#267 = ORIENTED_EDGE ( 'NONE', *, *, #158, .T. ) ;
#268 = VECTOR ( 'NONE', #396, 1000.000000000000000 ) ;
#269 = CIRCLE ( 'NONE', #350, 30.00000000000024869 ) ;
#270 = CARTESIAN_POINT ( 'NONE',  ( 6931.194327475610407, 3942.086059912549899, 15.00000000000000000 ) ) ;
#271 = ORIENTED_EDGE ( 'NONE', *, *, #484, .F. ) ;
#272 = EDGE_CURVE ( 'NONE', #138, #110, #680, .T. ) ;
#273 = EDGE_LOOP ( 'NONE', ( #633, #477 ) ) ;
#274 = DIRECTION ( 'NONE',  ( 0.000000000000000000, 0.000000000000000000, 1.000000000000000000 ) ) ;
#275 = DIRECTION ( 'NONE',  ( -1.669329592379185168E-14, -1.000000000000000000, 0.000000000000000000 ) ) ;
#276 = CARTESIAN_POINT ( 'NONE',  ( 6578.382835753971449, 3294.930472973515407, 15.00000000000000000 ) ) ;
#277 = EDGE_CURVE ( 'NONE', #77, #204, #688, .T. ) ;
#278 = DIRECTION ( 'NONE',  ( 1.000000000000000000, 0.000000000000000000, 0.000000000000000000 ) ) ;
#279 = AXIS2_PLACEMENT_3D ( 'NONE', #319, #487, #162 ) ;
#280 = VECTOR ( 'NONE', #188, 1000.000000000000000 ) ;
#281 = LINE ( 'NONE', #5, #197 ) ;
#282 = ADVANCED_FACE ( 'NONE', ( #623 ), #83, .F. ) ;
#283 = CALENDAR_DATE ( 2026, 8, 4 ) ;
#284 = CARTESIAN_POINT ( 'NONE',  ( 6931.194327475610407, 3942.086059912549899, 15.00000000000000000 ) ) ;
#285 = ORIENTED_EDGE ( 'NONE', *, *, #203, .F. ) ;
#286 = DIRECTION ( 'NONE',  ( -0.9319916925479733161, 0.3624796339403966727, 0.000000000000000000 ) ) ;
#287 = DIRECTION ( 'NONE',  ( 0.000000000000000000, 0.000000000000000000, 1.000000000000000000 ) ) ;
#288 = ORIENTED_EDGE ( 'NONE', *, *, #484, .T. ) ;
#289 = DIRECTION ( 'NONE',  ( 0.000000000000000000, 0.000000000000000000, 1.000000000000000000 ) ) ;
#290 = LINE ( 'NONE', #500, #534 ) ;
#291 = CC_DESIGN_APPROVAL ( #81, ( #525 ) ) ;
#292 = VERTEX_POINT ( 'NONE', #591 ) ;
#293 = AXIS2_PLACEMENT_3D ( 'NONE', #689, #213, #45 ) ;
#294 = AXIS2_PLACEMENT_3D ( 'NONE', #243, #192, #142 ) ;
#295 = DIRECTION ( 'NONE',  ( -1.000000000000000000, 0.000000000000000000, 0.000000000000000000 ) ) ;
#296 = ORIENTED_EDGE ( 'NONE', *, *, #630, .T. ) ;
#297 = EDGE_CURVE ( 'NONE', #641, #605, #645, .T. ) ;
#298 = DIRECTION ( 'NONE',  ( 0.000000000000000000, 0.000000000000000000, -1.000000000000000000 ) ) ;
#299 = EDGE_CURVE ( 'NONE', #427, #55, #429, .T. ) ;
#300 = CARTESIAN_POINT ( 'NONE',  ( 7127.770495737719102, 3294.930472973515407, 15.00000000000000000 ) ) ;
#301 = CC_DESIGN_APPROVAL ( #125, ( #11 ) ) ;
#302 = AXIS2_PLACEMENT_3D ( 'NONE', #577, #360, #202 ) ;
#303 = AXIS2_PLACEMENT_3D ( 'NONE', #245, #143, #526 ) ;
#304 = CARTESIAN_POINT ( 'NONE',  ( 7380.922448723639718, 3222.598146057955091, 15.00000000000000000 ) ) ;
#305 = ADVANCED_FACE ( 'NONE', ( #544 ), #685, .F. ) ;
#306 = CARTESIAN_POINT ( 'NONE',  ( 6731.173004163302721, 3942.086059912549899, 0.000000000000000000 ) ) ;
#307 = ORIENTED_EDGE ( 'NONE', *, *, #432, .T. ) ;
#308 = PLANE ( 'NONE',  #224 ) ;
#309 = EDGE_LOOP ( 'NONE', ( #436, #30, #359, #609 ) ) ;
#310 = AXIS2_PLACEMENT_3D ( 'NONE', #690, #153, #106 ) ;
#311 = CARTESIAN_POINT ( 'NONE',  ( 6804.632647107378943, 3925.218631807570091, -113.1370849898482049 ) ) ;
#312 = VECTOR ( 'NONE', #469, 1000.000000000000000 ) ;
#313 = AXIS2_PLACEMENT_3D ( 'NONE', #178, #615, #397 ) ;
#314 =( LENGTH_UNIT ( ) NAMED_UNIT ( * ) SI_UNIT ( .MILLI., .METRE. ) );
#315 = ORIENTED_EDGE ( 'NONE', *, *, #347, .F. ) ;
#316 = FACE_OUTER_BOUND ( 'NONE', #242, .T. ) ;
#317 = APPROVAL_DATE_TIME ( #92, #81 ) ;
#318 = ORIENTED_EDGE ( 'NONE', *, *, #256, .T. ) ;
#319 = CARTESIAN_POINT ( 'NONE',  ( 7127.770495737719102, 3294.930472973515407, 0.000000000000000000 ) ) ;
#320 = CARTESIAN_POINT ( 'NONE',  ( 0.000000000000000000, 0.000000000000000000, 0.000000000000000000 ) ) ;
#321 = ORIENTED_EDGE ( 'NONE', *, *, #195, .T. ) ;
#322 = CARTESIAN_POINT ( 'NONE',  ( 7380.922448723639718, 3222.598146057955091, 15.00000000000000000 ) ) ;
#323 = CALENDAR_DATE ( 2026, 8, 4 ) ;
#324 = EDGE_CURVE ( 'NONE', #215, #647, #155, .T. ) ;
#325 = VERTEX_POINT ( 'NONE', #196 ) ;
#326 = VECTOR ( 'NONE', #105, 999.9999999999998863 ) ;
#327 = CIRCLE ( 'NONE', #545, 68.67345749796794507 ) ;
#328 = CARTESIAN_POINT ( 'NONE',  ( 6731.194327475610407, 3940.374850843274544, 0.000000000000000000 ) ) ;
#329 = SECURITY_CLASSIFICATION_LEVEL ( 'unclassified' ) ;
#330 = DIRECTION ( 'NONE',  ( 0.000000000000000000, 0.000000000000000000, 1.000000000000000000 ) ) ;
#331 = CARTESIAN_POINT ( 'NONE',  ( 6834.469242001679049, 3650.218631807570091, 0.000000000000000000 ) ) ;
#332 = DATE_AND_TIME ( #283, #39 ) ;
#333 = DIRECTION ( 'NONE',  ( 0.3624796339403966727, 0.9319916925479733161, 0.000000000000000000 ) ) ;
#334 = DIRECTION ( 'NONE',  ( 0.000000000000000000, 0.000000000000000000, -1.000000000000000000 ) ) ;
#335 = PERSON_AND_ORGANIZATION ( #369, #405 ) ;
#336 = FACE_OUTER_BOUND ( 'NONE', #649, .T. ) ;
#337 = VERTEX_POINT ( 'NONE', #475 ) ;
#338 = CARTESIAN_POINT ( 'NONE',  ( 6736.535378089650294, 3726.096811981450173, 0.000000000000000000 ) ) ;
#339 = CARTESIAN_POINT ( 'NONE',  ( 6931.194327475610407, 3942.086059912549899, 0.000000000000000000 ) ) ;
#340 = ORIENTED_EDGE ( 'NONE', *, *, #517, .F. ) ;
#341 = CARTESIAN_POINT ( 'NONE',  ( 6931.194327475610407, 3942.086059912549899, 15.00000000000000000 ) ) ;
#342 = CARTESIAN_POINT ( 'NONE',  ( 6731.194327475610407, 3940.374850843274544, 15.00000000000000000 ) ) ;
#343 = EDGE_LOOP ( 'NONE', ( #184, #362, #315, #7, #93, #285, #691, #388, #37, #89, #619, #41, #134 ) ) ;
#344 = FACE_OUTER_BOUND ( 'NONE', #616, .T. ) ;
#345 = CARTESIAN_POINT ( 'NONE',  ( 6804.469242001679049, 3650.218631807570091, 15.00000000000000000 ) ) ;
#346 = EDGE_CURVE ( 'NONE', #686, #204, #370, .T. ) ;
#347 = EDGE_CURVE ( 'NONE', #582, #605, #535, .T. ) ;
#348 = ORIENTED_EDGE ( 'NONE', *, *, #76, .T. ) ;
#349 = CIRCLE ( 'NONE', #181, 68.67345749796794507 ) ;
#350 = AXIS2_PLACEMENT_3D ( 'NONE', #608, #64, #124 ) ;
#351 = LINE ( 'NONE', #29, #456 ) ;
#352 = EDGE_CURVE ( 'NONE', #395, #107, #612, .T. ) ;
#353 = CARTESIAN_POINT ( 'NONE',  ( 7127.770495737719102, 3294.930472973515407, 0.000000000000000000 ) ) ;
#354 = ADVANCED_FACE ( 'NONE', ( #434 ), #148, .F. ) ;
#355 = CARTESIAN_POINT ( 'NONE',  ( 6731.173004163302721, 3942.086059912549899, 15.00000000000000000 ) ) ;
#356 = AXIS2_PLACEMENT_3D ( 'NONE', #177, #602, #234 ) ;
#357 = AXIS2_PLACEMENT_3D ( 'NONE', #448, #663, #193 ) ;
#358 = CARTESIAN_POINT ( 'NONE',  ( 6834.632647107378943, 3925.218631807570091, -113.1370849898482049 ) ) ;
#359 = ORIENTED_EDGE ( 'NONE', *, *, #266, .T. ) ;
#360 = DIRECTION ( 'NONE',  ( 0.000000000000000000, 0.000000000000000000, -1.000000000000000000 ) ) ;
#361 = CARTESIAN_POINT ( 'NONE',  ( 7127.770495737719102, 3294.930472973515407, 0.000000000000000000 ) ) ;
#362 = ORIENTED_EDGE ( 'NONE', *, *, #400, .F. ) ;
#363 = CYLINDRICAL_SURFACE ( 'NONE', #302, 68.67345749796794507 ) ;
#364 = ORIENTED_EDGE ( 'NONE', *, *, #299, .T. ) ;
#365 = ADVANCED_FACE ( 'NONE', ( #316 ), #38, .T. ) ;
#366 = CARTESIAN_POINT ( 'NONE',  ( 6799.846461661270951, 3942.086059912549899, 15.00000000000000000 ) ) ;
#367 = AXIS2_PLACEMENT_3D ( 'NONE', #555, #665, #117 ) ;
#368 = EDGE_LOOP ( 'NONE', ( #519, #183, #512, #618 ) ) ;
#369 = PERSON ( '未指定', '未指定', '未指定', ('未指定'), ('未指定'), ('未指定') ) ;
#370 = LINE ( 'NONE', #311, #24 ) ;
#371 = CARTESIAN_POINT ( 'NONE',  ( 6804.632647107378943, 3925.218631807570091, 0.000000000000000000 ) ) ;
#372 = EDGE_LOOP ( 'NONE', ( #700, #439 ) ) ;
#373 = ADVANCED_FACE ( 'NONE', ( #478 ), #308, .F. ) ;
#374 = VERTEX_POINT ( 'NONE', #265 ) ;
#375 = ADVANCED_FACE ( 'NONE', ( #424 ), #363, .T. ) ;
#376 = CYLINDRICAL_SURFACE ( 'NONE', #584, 604.3264259821228279 ) ;
#377 = DATE_AND_TIME ( #163, #126 ) ;
#378 = EDGE_LOOP ( 'NONE', ( #559, #684, #698, #271 ) ) ;
#379 = CARTESIAN_POINT ( 'NONE',  ( 6804.469242001679049, 3650.218631807570091, 0.000000000000000000 ) ) ;
#380 = CC_DESIGN_DATE_AND_TIME_ASSIGNMENT ( #332, #506, ( #543 ) ) ;
#381 = PERSON_AND_ORGANIZATION ( #369, #405 ) ;
#382 = PLANE ( 'NONE',  #658 ) ;
#383 = AXIS2_PLACEMENT_3D ( 'NONE', #523, #85, #404 ) ;
#384 = PLANE ( 'NONE',  #79 ) ;
#385 = CARTESIAN_POINT ( 'NONE',  ( 6864.632647107379853, 3925.218631807570091, 15.00000000000000000 ) ) ;
#386 = DIRECTION ( 'NONE',  ( 0.000000000000000000, 0.000000000000000000, 1.000000000000000000 ) ) ;
#387 = DIRECTION ( 'NONE',  ( 1.000000000000000000, 0.000000000000000000, 0.000000000000000000 ) ) ;
#388 = ORIENTED_EDGE ( 'NONE', *, *, #631, .F. ) ;
#389 = DIRECTION ( 'NONE',  ( -0.3624796339403966727, -0.9319916925479733161, 0.000000000000000000 ) ) ;
#390 = SHAPE_DEFINITION_REPRESENTATION ( #216, #468 ) ;
#391 = FACE_OUTER_BOUND ( 'NONE', #402, .T. ) ;
#392 = CIRCLE ( 'NONE', #189, 30.00000000000024869 ) ;
#393 = CIRCLE ( 'NONE', #518, 68.67345749796794507 ) ;
#394 = EDGE_CURVE ( 'NONE', #471, #215, #392, .T. ) ;
#395 = VERTEX_POINT ( 'NONE', #588 ) ;
#396 = DIRECTION ( 'NONE',  ( 0.000000000000000000, 0.000000000000000000, -1.000000000000000000 ) ) ;
#397 = DIRECTION ( 'NONE',  ( -1.000000000000000000, 0.000000000000000000, 0.000000000000000000 ) ) ;
#398 = ORIENTED_EDGE ( 'NONE', *, *, #324, .F. ) ;
#399 = DIRECTION ( 'NONE',  ( 0.000000000000000000, 0.000000000000000000, -1.000000000000000000 ) ) ;
#400 = EDGE_CURVE ( 'NONE', #605, #138, #238, .T. ) ;
#401 = LINE ( 'NONE', #145, #406 ) ;
#402 = EDGE_LOOP ( 'NONE', ( #595, #433, #12, #194 ) ) ;
#403 = PRODUCT_RELATED_PRODUCT_CATEGORY ( 'detail', '', ( #655 ) ) ;
#404 = DIRECTION ( 'NONE',  ( 1.000000000000000000, 0.000000000000000000, 0.000000000000000000 ) ) ;
#405 = ORGANIZATION ( '未指定', '未指定', '' ) ;
#406 = VECTOR ( 'NONE', #681, 1000.000000000000000 ) ;
#407 = CYLINDRICAL_SURFACE ( 'NONE', #239, 549.3876599837479944 ) ;
#408 = EDGE_CURVE ( 'NONE', #107, #641, #91, .T. ) ;
#409 = EDGE_CURVE ( 'NONE', #110, #130, #444, .T. ) ;
#410 = DIRECTION ( 'NONE',  ( 0.000000000000000000, 0.000000000000000000, 1.000000000000000000 ) ) ;
#411 = DIRECTION ( 'NONE',  ( 0.000000000000000000, 0.000000000000000000, 1.000000000000000000 ) ) ;
#412 = EDGE_LOOP ( 'NONE', ( #51, #200, #52, #418 ) ) ;
#413 = APPROVAL_PERSON_ORGANIZATION ( #652, #125, #447 ) ;
#414 = AXIS2_PLACEMENT_3D ( 'NONE', #1, #541, #108 ) ;
#415 = AXIS2_PLACEMENT_3D ( 'NONE', #358, #410, #629 ) ;
#416 = DIRECTION ( 'NONE',  ( 1.000000000000000000, 0.000000000000000000, 0.000000000000000000 ) ) ;
#417 = PERSON_AND_ORGANIZATION_ROLE ( 'design_owner' ) ;
#418 = ORIENTED_EDGE ( 'NONE', *, *, #248, .T. ) ;
#419 = UNCERTAINTY_MEASURE_WITH_UNIT (LENGTH_MEASURE( 1.000000000000000082E-05 ), #314, 'distance_accuracy_value', 'NONE');
#420 = FACE_OUTER_BOUND ( 'NONE', #546, .T. ) ;
#421 = ADVANCED_FACE ( 'NONE', ( #420 ), #376, .F. ) ;
#422 = DIRECTION ( 'NONE',  ( -1.000000000000000000, 1.669329592379185168E-14, 0.000000000000000000 ) ) ;
#423 = ORIENTED_EDGE ( 'NONE', *, *, #550, .T. ) ;
#424 = FACE_OUTER_BOUND ( 'NONE', #622, .T. ) ;
#425 = CC_DESIGN_PERSON_AND_ORGANIZATION_ASSIGNMENT ( #259, #417, ( #655 ) ) ;
#426 = APPROVAL_STATUS ( 'not_yet_approved' ) ;
#427 = VERTEX_POINT ( 'NONE', #341 ) ;
#428 = APPROVAL_PERSON_ORGANIZATION ( #206, #81, #637 ) ;
#429 = LINE ( 'NONE', #586, #473 ) ;
#430 =( NAMED_UNIT ( * ) PLANE_ANGLE_UNIT ( ) SI_UNIT ( $, .RADIAN. ) );
#431 = ORIENTED_EDGE ( 'NONE', *, *, #394, .F. ) ;
#432 = EDGE_CURVE ( 'NONE', #593, #427, #71, .T. ) ;
#433 = ORIENTED_EDGE ( 'NONE', *, *, #299, .F. ) ;
#434 = FACE_OUTER_BOUND ( 'NONE', #666, .T. ) ;
#435 = CARTESIAN_POINT ( 'NONE',  ( 6931.194327475610407, 3942.086059912549899, 0.000000000000000000 ) ) ;
#436 = ORIENTED_EDGE ( 'NONE', *, *, #346, .F. ) ;
#437 = CARTESIAN_POINT ( 'NONE',  ( 6821.316795478859603, 3666.364573937979912, 15.00000000000000000 ) ) ;
#438 = VERTEX_POINT ( 'NONE', #19 ) ;
#439 = ORIENTED_EDGE ( 'NONE', *, *, #28, .F. ) ;
#440 = CARTESIAN_POINT ( 'NONE',  ( 6931.194327475610407, 3666.364573937979912, 15.00000000000000000 ) ) ;
#441 = AXIS2_PLACEMENT_3D ( 'NONE', #361, #40, #156 ) ;
#442 = PERSON_AND_ORGANIZATION_ROLE ( 'classification_officer' ) ;
#443 = CARTESIAN_POINT ( 'NONE',  ( 6799.846461661270951, 3942.086059912549899, 15.00000000000000000 ) ) ;
#444 = CIRCLE ( 'NONE', #279, 549.3876599837479944 ) ;
#445 = CIRCLE ( 'NONE', #303, 109.8775319967488713 ) ;
#446 = DIRECTION ( 'NONE',  ( 1.000000000000000000, 0.000000000000000000, 0.000000000000000000 ) ) ;
#447 = APPROVAL_ROLE ( '' ) ;
#448 = CARTESIAN_POINT ( 'NONE',  ( 6862.524006533469219, 3942.742403137215206, 15.00000000000000000 ) ) ;
#449 = LINE ( 'NONE', #276, #268 ) ;
#450 = APPROVAL_DATE_TIME ( #607, #462 ) ;
#451 = DIRECTION ( 'NONE',  ( 0.000000000000000000, 0.000000000000000000, 1.000000000000000000 ) ) ;
#452 = ORIENTED_EDGE ( 'NONE', *, *, #149, .F. ) ;
#453 = DIRECTION ( 'NONE',  ( -0.000000000000000000, -0.000000000000000000, -1.000000000000000000 ) ) ;
#454 = DIRECTION ( 'NONE',  ( 1.000000000000000000, 0.000000000000000000, 0.000000000000000000 ) ) ;
#455 = VECTOR ( 'NONE', #102, 1000.000000000000000 ) ;
#456 = VECTOR ( 'NONE', #574, 1000.000000000000000 ) ;
#457 = VERTEX_POINT ( 'NONE', #651 ) ;
#458 = EDGE_CURVE ( 'NONE', #654, #233, #486, .T. ) ;
#459 = CYLINDRICAL_SURFACE ( 'NONE', #564, 30.00000000000024869 ) ;
#460 = DIRECTION ( 'NONE',  ( -1.000000000000000000, 0.000000000000000000, 0.000000000000000000 ) ) ;
#461 = ORIENTED_EDGE ( 'NONE', *, *, #352, .T. ) ;
#462 = APPROVAL ( #548, '未指定' ) ;
#463 = LINE ( 'NONE', #676, #280 ) ;
#464 = CYLINDRICAL_SURFACE ( 'NONE', #225, 109.8775319967488713 ) ;
#465 = LINE ( 'NONE', #565, #598 ) ;
#466 = FACE_OUTER_BOUND ( 'NONE', #560, .T. ) ;
#467 = ORIENTED_EDGE ( 'NONE', *, *, #650, .T. ) ;
#468 = ADVANCED_BREP_SHAPE_REPRESENTATION ( 'GRIPPER_\X2\9ed88ba4\X0\_sldprt', ( #481, #22 ), #111 ) ;
#469 = DIRECTION ( 'NONE',  ( 0.000000000000000000, 0.000000000000000000, 1.000000000000000000 ) ) ;
#470 = LINE ( 'NONE', #476, #524 ) ;
#471 = VERTEX_POINT ( 'NONE', #379 ) ;
#472 = ADVANCED_FACE ( 'NONE', ( #63 ), #122, .T. ) ;
#473 = VECTOR ( 'NONE', #159, 1000.000000000000000 ) ;
#474 = AXIS2_PLACEMENT_3D ( 'NONE', #496, #275, #659 ) ;
#475 = CARTESIAN_POINT ( 'NONE',  ( 6799.846461661270951, 4010.759517410519948, 15.00000000000000000 ) ) ;
#476 = CARTESIAN_POINT ( 'NONE',  ( 6945.940945926359745, 2803.072793588589775, 15.00000000000000000 ) ) ;
#477 = ORIENTED_EDGE ( 'NONE', *, *, #558, .F. ) ;
#478 = FACE_OUTER_BOUND ( 'NONE', #412, .T. ) ;
#479 = APPLICATION_PROTOCOL_DEFINITION ( 'international standard', 'config_control_design', 1994, #62 ) ;
#480 = ORIENTED_EDGE ( 'NONE', *, *, #458, .T. ) ;
#481 = MANIFOLD_SOLID_BREP ( '输入1', #261 ) ;
#482 = CARTESIAN_POINT ( 'NONE',  ( 6736.535378089650294, 3726.096811981450173, 15.00000000000000000 ) ) ;
#483 = FACE_BOUND ( 'NONE', #372, .T. ) ;
#484 = EDGE_CURVE ( 'NONE', #167, #374, #661, .T. ) ;
#485 = ORIENTED_EDGE ( 'NONE', *, *, #203, .T. ) ;
#486 = CIRCLE ( 'NONE', #668, 604.3264259821228279 ) ;
#487 = DIRECTION ( 'NONE',  ( 0.000000000000000000, 0.000000000000000000, 1.000000000000000000 ) ) ;
#488 = CIRCLE ( 'NONE', #294, 549.3876599837479944 ) ;
#489 = DIRECTION ( 'NONE',  ( 0.3624796339403966727, 0.9319916925479733161, 0.000000000000000000 ) ) ;
#490 = EDGE_LOOP ( 'NONE', ( #98, #237, #244, #318 ) ) ;
#491 = ORIENTED_EDGE ( 'NONE', *, *, #232, .T. ) ;
#492 = FACE_OUTER_BOUND ( 'NONE', #490, .T. ) ;
#493 = VERTEX_POINT ( 'NONE', #8 ) ;
#494 = CARTESIAN_POINT ( 'NONE',  ( 6834.632647107378943, 3925.218631807570091, 0.000000000000000000 ) ) ;
#495 = CALENDAR_DATE ( 2026, 8, 4 ) ;
#496 = CARTESIAN_POINT ( 'NONE',  ( 6799.846461661270951, 4010.759517410519948, 15.00000000000000000 ) ) ;
#497 = EDGE_CURVE ( 'NONE', #167, #593, #112, .T. ) ;
#498 = CARTESIAN_POINT ( 'NONE',  ( 6931.194327475610407, 3666.364573937979912, 15.00000000000000000 ) ) ;
#499 = COORDINATED_UNIVERSAL_TIME_OFFSET ( 8, 0, .AHEAD. ) ;
#500 = CARTESIAN_POINT ( 'NONE',  ( 6776.596022741517118, 3222.598146057955091, 15.00000000000000000 ) ) ;
#501 = AXIS2_PLACEMENT_3D ( 'NONE', #648, #262, #695 ) ;
#502 = ADVANCED_FACE ( 'NONE', ( #492 ), #606, .F. ) ;
#503 = AXIS2_PLACEMENT_3D ( 'NONE', #627, #411, #88 ) ;
#504 = CARTESIAN_POINT ( 'NONE',  ( 6853.052157154530505, 4010.759517410519948, 15.00000000000000000 ) ) ;
#505 = CC_DESIGN_PERSON_AND_ORGANIZATION_ASSIGNMENT ( #613, #662, ( #11 ) ) ;
#506 = DATE_TIME_ROLE ( 'classification_date' ) ;
#507 = CYLINDRICAL_SURFACE ( 'NONE', #313, 68.67345749796794507 ) ;
#508 = EDGE_LOOP ( 'NONE', ( #218, #73, #532, #121 ) ) ;
#509 = LINE ( 'NONE', #498, #516 ) ;
#510 = LINE ( 'NONE', #173, #140 ) ;
#511 = EDGE_CURVE ( 'NONE', #61, #110, #449, .T. ) ;
#512 = ORIENTED_EDGE ( 'NONE', *, *, #409, .T. ) ;
#513 = DIRECTION ( 'NONE',  ( 1.000000000000000000, 0.000000000000000000, 0.000000000000000000 ) ) ;
#514 = CC_DESIGN_APPROVAL ( #462, ( #543 ) ) ;
#515 = DIRECTION ( 'NONE',  ( 0.000000000000000000, 0.000000000000000000, -1.000000000000000000 ) ) ;
#516 = VECTOR ( 'NONE', #118, 1000.000000000000000 ) ;
#517 = EDGE_CURVE ( 'NONE', #593, #292, #509, .T. ) ;
#518 = AXIS2_PLACEMENT_3D ( 'NONE', #443, #451, #387 ) ;
#519 = ORIENTED_EDGE ( 'NONE', *, *, #227, .F. ) ;
#520 = DIRECTION ( 'NONE',  ( 0.000000000000000000, 0.000000000000000000, -1.000000000000000000 ) ) ;
#521 = ORIENTED_EDGE ( 'NONE', *, *, #682, .T. ) ;
#522 = CARTESIAN_POINT ( 'NONE',  ( 6804.632647107378943, 3925.218631807570091, 15.00000000000000000 ) ) ;
#523 = CARTESIAN_POINT ( 'NONE',  ( 6834.632647107378943, 3925.218631807570091, 15.00000000000000000 ) ) ;
#524 = VECTOR ( 'NONE', #489, 1000.000000000000114 ) ;
#525 = PRODUCT_DEFINITION ( '未知', '', #11, #90 ) ;
#526 = DIRECTION ( 'NONE',  ( 1.000000000000000000, 0.000000000000000000, 0.000000000000000000 ) ) ;
#527 = LINE ( 'NONE', #36, #25 ) ;
#528 = ORIENTED_EDGE ( 'NONE', *, *, #394, .T. ) ;
#529 = EDGE_CURVE ( 'NONE', #215, #471, #86, .T. ) ;
#530 = CARTESIAN_POINT ( 'NONE',  ( 6736.535378089650294, 3726.096811981450173, 15.00000000000000000 ) ) ;
#531 = DIRECTION ( 'NONE',  ( 0.000000000000000000, 0.000000000000000000, 1.000000000000000000 ) ) ;
#532 = ORIENTED_EDGE ( 'NONE', *, *, #232, .F. ) ;
#533 = CC_DESIGN_DATE_AND_TIME_ASSIGNMENT ( #377, #592, ( #525 ) ) ;
#534 = VECTOR ( 'NONE', #515, 1000.000000000000000 ) ;
#535 = LINE ( 'NONE', #152, #99 ) ;
#536 = ORIENTED_EDGE ( 'NONE', *, *, #630, .F. ) ;
#537 = EDGE_CURVE ( 'NONE', #542, #219, #281, .T. ) ;
#538 = DIRECTION ( 'NONE',  ( 0.000000000000000000, 0.000000000000000000, 1.000000000000000000 ) ) ;
#539 = PERSON_AND_ORGANIZATION ( #369, #405 ) ;
#540 = ORIENTED_EDGE ( 'NONE', *, *, #4, .T. ) ;
#541 = DIRECTION ( 'NONE',  ( 0.000000000000000000, 0.000000000000000000, 1.000000000000000000 ) ) ;
#542 = VERTEX_POINT ( 'NONE', #504 ) ;
#543 = SECURITY_CLASSIFICATION ( '', '', #329 ) ;
#544 = FACE_OUTER_BOUND ( 'NONE', #644, .T. ) ;
#545 = AXIS2_PLACEMENT_3D ( 'NONE', #17, #330, #69 ) ;
#546 = EDGE_LOOP ( 'NONE', ( #174, #207, #348, #480 ) ) ;
#547 = DIRECTION ( 'NONE',  ( 0.000000000000000000, 0.000000000000000000, -1.000000000000000000 ) ) ;
#548 = APPROVAL_STATUS ( 'not_yet_approved' ) ;
#549 = PLANE ( 'NONE',  #474 ) ;
#550 = EDGE_CURVE ( 'NONE', #493, #686, #56, .T. ) ;
#551 = DIRECTION ( 'NONE',  ( 0.000000000000000000, 0.000000000000000000, 1.000000000000000000 ) ) ;
#552 = DIRECTION ( 'NONE',  ( 0.000000000000000000, 0.000000000000000000, -1.000000000000000000 ) ) ;
#553 = DIRECTION ( 'NONE',  ( -1.000000000000000000, 0.000000000000000000, 0.000000000000000000 ) ) ;
#554 = APPROVAL_ROLE ( '' ) ;
#555 = CARTESIAN_POINT ( 'NONE',  ( 7380.922448723639718, 3222.598146057955091, 15.00000000000000000 ) ) ;
#556 = ORIENTED_EDGE ( 'NONE', *, *, #537, .F. ) ;
#557 = DIRECTION ( 'NONE',  ( 0.000000000000000000, 1.000000000000000000, 0.000000000000000000 ) ) ;
#558 = EDGE_CURVE ( 'NONE', #204, #77, #656, .T. ) ;
#559 = ORIENTED_EDGE ( 'NONE', *, *, #101, .F. ) ;
#560 = EDGE_LOOP ( 'NONE', ( #60, #18, #540, #151 ) ) ;
#561 = CARTESIAN_POINT ( 'NONE',  ( 7380.922448723639718, 3222.598146057955091, 0.000000000000000000 ) ) ;
#562 = CARTESIAN_POINT ( 'NONE',  ( 6578.382835753971449, 3294.930472973515407, 0.000000000000000000 ) ) ;
#563 = ORIENTED_EDGE ( 'NONE', *, *, #624, .T. ) ;
#564 = AXIS2_PLACEMENT_3D ( 'NONE', #74, #289, #513 ) ;
#565 = CARTESIAN_POINT ( 'NONE',  ( 6804.469242001679049, 3650.218631807570091, -113.1370849898482049 ) ) ;
#566 = AXIS2_PLACEMENT_3D ( 'NONE', #331, #453, #14 ) ;
#567 = CIRCLE ( 'NONE', #57, 68.67345749796794507 ) ;
#568 = ORIENTED_EDGE ( 'NONE', *, *, #31, .T. ) ;
#569 = DIRECTION ( 'NONE',  ( 0.000000000000000000, 0.000000000000000000, 1.000000000000000000 ) ) ;
#570 = DIRECTION ( 'NONE',  ( 0.000000000000000000, 0.000000000000000000, 1.000000000000000000 ) ) ;
#571 = DIRECTION ( 'NONE',  ( 0.000000000000000000, 0.000000000000000000, 1.000000000000000000 ) ) ;
#572 = AXIS2_PLACEMENT_3D ( 'NONE', #226, #386, #446 ) ;
#573 = AXIS2_PLACEMENT_3D ( 'NONE', #236, #552, #454 ) ;
#574 = DIRECTION ( 'NONE',  ( 0.000000000000000000, 0.000000000000000000, -1.000000000000000000 ) ) ;
#575 = EDGE_CURVE ( 'NONE', #55, #219, #349, .T. ) ;
#576 = ORIENTED_EDGE ( 'NONE', *, *, #34, .T. ) ;
#577 = CARTESIAN_POINT ( 'NONE',  ( 6799.846461661270951, 3942.086059912549899, 15.00000000000000000 ) ) ;
#578 = APPLICATION_PROTOCOL_DEFINITION ( 'international standard', 'config_control_design', 1994, #169 ) ;
#579 = VERTEX_POINT ( 'NONE', #115 ) ;
#580 = DIRECTION ( 'NONE',  ( 1.000000000000000000, 0.000000000000000000, 0.000000000000000000 ) ) ;
#581 = DIRECTION ( 'NONE',  ( 1.000000000000000000, 0.000000000000000000, 0.000000000000000000 ) ) ;
#582 = VERTEX_POINT ( 'NONE', #328 ) ;
#583 = CC_DESIGN_SECURITY_CLASSIFICATION ( #543, ( #11 ) ) ;
#584 = AXIS2_PLACEMENT_3D ( 'NONE', #322, #58, #553 ) ;
#585 = VECTOR ( 'NONE', #670, 1000.000000000000000 ) ;
#586 = CARTESIAN_POINT ( 'NONE',  ( 6931.194327475610407, 3942.086059912549899, 15.00000000000000000 ) ) ;
#587 = ORIENTED_EDGE ( 'NONE', *, *, #529, .F. ) ;
#588 = CARTESIAN_POINT ( 'NONE',  ( 6731.173004163302721, 3942.086059912549899, 15.00000000000000000 ) ) ;
#589 = CARTESIAN_POINT ( 'NONE',  ( 6945.940945926359745, 2803.072793588589775, 0.000000000000000000 ) ) ;
#590 = ORIENTED_EDGE ( 'NONE', *, *, #537, .T. ) ;
#591 = CARTESIAN_POINT ( 'NONE',  ( 6931.194327475610407, 3666.364573937979912, 0.000000000000000000 ) ) ;
#592 = DATE_TIME_ROLE ( 'creation_date' ) ;
#593 = VERTEX_POINT ( 'NONE', #440 ) ;
#594 = VECTOR ( 'NONE', #399, 1000.000000000000000 ) ;
#595 = ORIENTED_EDGE ( 'NONE', *, *, #631, .T. ) ;
#596 = AXIS2_PLACEMENT_3D ( 'NONE', #131, #217, #230 ) ;
#597 = DIRECTION ( 'NONE',  ( 1.000000000000000000, 0.000000000000000000, 0.000000000000000000 ) ) ;
#598 = VECTOR ( 'NONE', #186, 1000.000000000000000 ) ;
#599 = ADVANCED_FACE ( 'NONE', ( #611, #657, #128 ), #384, .T. ) ;
#600 = CARTESIAN_POINT ( 'NONE',  ( 6710.205052116800289, 3651.954143387785280, 15.00000000000000000 ) ) ;
#601 = ORIENTED_EDGE ( 'NONE', *, *, #266, .F. ) ;
#602 = DIRECTION ( 'NONE',  ( 0.000000000000000000, 0.000000000000000000, -1.000000000000000000 ) ) ;
#603 = LINE ( 'NONE', #120, #43 ) ;
#604 = CC_DESIGN_PERSON_AND_ORGANIZATION_ASSIGNMENT ( #539, #50, ( #525 ) ) ;
#605 = VERTEX_POINT ( 'NONE', #338 ) ;
#606 = PLANE ( 'NONE',  #211 ) ;
#607 = DATE_AND_TIME ( #495, #96 ) ;
#608 = CARTESIAN_POINT ( 'NONE',  ( 6834.632647107378943, 3925.218631807570091, 0.000000000000000000 ) ) ;
#609 = ORIENTED_EDGE ( 'NONE', *, *, #277, .T. ) ;
#610 = EDGE_CURVE ( 'NONE', #647, #210, #42, .T. ) ;
#611 = FACE_OUTER_BOUND ( 'NONE', #103, .T. ) ;
#612 = CIRCLE ( 'NONE', #687, 68.67345749796794507 ) ;
#613 = PERSON_AND_ORGANIZATION ( #369, #405 ) ;
#614 = AXIS2_PLACEMENT_3D ( 'NONE', #26, #241, #15 ) ;
#615 = DIRECTION ( 'NONE',  ( 0.000000000000000000, 0.000000000000000000, -1.000000000000000000 ) ) ;
#616 = EDGE_LOOP ( 'NONE', ( #638, #267, #563, #398 ) ) ;
#617 = CARTESIAN_POINT ( 'NONE',  ( 6907.319141749790106, 3597.978402283245487, 15.00000000000000000 ) ) ;
#618 = ORIENTED_EDGE ( 'NONE', *, *, #256, .F. ) ;
#619 = ORIENTED_EDGE ( 'NONE', *, *, #458, .F. ) ;
#620 = LINE ( 'NONE', #435, #251 ) ;
#621 = CARTESIAN_POINT ( 'NONE',  ( 6799.846461661270951, 3942.086059912549899, 0.000000000000000000 ) ) ;
#622 = EDGE_LOOP ( 'NONE', ( #223, #321, #147, #646 ) ) ;
#623 = FACE_OUTER_BOUND ( 'NONE', #378, .T. ) ;
#624 = EDGE_CURVE ( 'NONE', #210, #647, #139, .T. ) ;
#625 = VECTOR ( 'NONE', #557, 1000.000000000000000 ) ;
#626 = AXIS2_PLACEMENT_3D ( 'NONE', #133, #67, #278 ) ;
#627 = CARTESIAN_POINT ( 'NONE',  ( 6821.316795478859603, 3666.364573937979912, 0.000000000000000000 ) ) ;
#628 = ADVANCED_FACE ( 'NONE', ( #344 ), #459, .F. ) ;
#629 = DIRECTION ( 'NONE',  ( 1.000000000000000000, 0.000000000000000000, 0.000000000000000000 ) ) ;
#630 = EDGE_CURVE ( 'NONE', #337, #579, #185, .T. ) ;
#631 = EDGE_CURVE ( 'NONE', #292, #55, #620, .T. ) ;
#632 = FACE_OUTER_BOUND ( 'NONE', #309, .T. ) ;
#633 = ORIENTED_EDGE ( 'NONE', *, *, #277, .F. ) ;
#634 = AXIS2_PLACEMENT_3D ( 'NONE', #53, #538, #580 ) ;
#635 = VECTOR ( 'NONE', #520, 1000.000000000000000 ) ;
#636 = DIRECTION ( 'NONE',  ( 0.000000000000000000, 0.000000000000000000, 1.000000000000000000 ) ) ;
#637 = APPROVAL_ROLE ( '' ) ;
#638 = ORIENTED_EDGE ( 'NONE', *, *, #529, .T. ) ;
#639 = CARTESIAN_POINT ( 'NONE',  ( 6864.469242001679959, 3650.218631807570091, -113.1370849898482049 ) ) ;
#640 = PLANE ( 'NONE',  #441 ) ;
#641 = VERTEX_POINT ( 'NONE', #46 ) ;
#642 = CARTESIAN_POINT ( 'NONE',  ( 6834.469242001679049, 3650.218631807570091, 0.000000000000000000 ) ) ;
#643 = COORDINATED_UNIVERSAL_TIME_OFFSET ( 8, 0, .AHEAD. ) ;
#644 = EDGE_LOOP ( 'NONE', ( #154, #528, #179, #3 ) ) ;
#645 = LINE ( 'NONE', #530, #455 ) ;
#646 = ORIENTED_EDGE ( 'NONE', *, *, #248, .F. ) ;
#647 = VERTEX_POINT ( 'NONE', #150 ) ;
#648 = CARTESIAN_POINT ( 'NONE',  ( 6626.691963392579964, 3723.358877470605421, 0.000000000000000000 ) ) ;
#649 = EDGE_LOOP ( 'NONE', ( #82, #27, #296, #576 ) ) ;
#650 = EDGE_CURVE ( 'NONE', #542, #337, #693, .T. ) ;
#651 = CARTESIAN_POINT ( 'NONE',  ( 6776.596022741517118, 3222.598146057955091, 15.00000000000000000 ) ) ;
#652 = PERSON_AND_ORGANIZATION ( #369, #405 ) ;
#653 = ORIENTED_EDGE ( 'NONE', *, *, #227, .T. ) ;
#654 = VERTEX_POINT ( 'NONE', #589 ) ;
#655 = PRODUCT ( 'GRIPPER_\X2\9ed88ba4\X0\_sldprt', 'GRIPPER_\X2\9ed88ba4\X0\_sldprt', '', ( #97 ) ) ;
#656 = CIRCLE ( 'NONE', #596, 30.00000000000024869 ) ;
#657 = FACE_BOUND ( 'NONE', #6, .T. ) ;
#658 = AXIS2_PLACEMENT_3D ( 'NONE', #284, #460, #287 ) ;
#659 = DIRECTION ( 'NONE',  ( 1.000000000000000000, -1.669329592379185168E-14, 0.000000000000000000 ) ) ;
#660 = ORIENTED_EDGE ( 'NONE', *, *, #220, .T. ) ;
#661 = LINE ( 'NONE', #617, #699 ) ;
#662 = PERSON_AND_ORGANIZATION_ROLE ( 'creator' ) ;
#663 = DIRECTION ( 'NONE',  ( 0.000000000000000000, 0.000000000000000000, 1.000000000000000000 ) ) ;
#664 = DIRECTION ( 'NONE',  ( 0.000000000000000000, 0.000000000000000000, 1.000000000000000000 ) ) ;
#665 = DIRECTION ( 'NONE',  ( 0.000000000000000000, 0.000000000000000000, -1.000000000000000000 ) ) ;
#666 = EDGE_LOOP ( 'NONE', ( #423, #674, #264, #601 ) ) ;
#667 = DIRECTION ( 'NONE',  ( 0.000000000000000000, 0.000000000000000000, -1.000000000000000000 ) ) ;
#668 = AXIS2_PLACEMENT_3D ( 'NONE', #561, #547, #182 ) ;
#669 = CIRCLE ( 'NONE', #357, 68.67345749796794507 ) ;
#670 = DIRECTION ( 'NONE',  ( 0.000000000000000000, 0.000000000000000000, -1.000000000000000000 ) ) ;
#671 = EDGE_LOOP ( 'NONE', ( #660, #340, #694, #288 ) ) ;
#672 = CARTESIAN_POINT ( 'NONE',  ( 6799.846461661270951, 4010.759517410519948, 15.00000000000000000 ) ) ;
#673 = CARTESIAN_POINT ( 'NONE',  ( 6821.316795478859603, 3666.364573937979912, 15.00000000000000000 ) ) ;
#674 = ORIENTED_EDGE ( 'NONE', *, *, #346, .T. ) ;
#675 = ADVANCED_FACE ( 'NONE', ( #160, #255, #483 ), #640, .F. ) ;
#676 = CARTESIAN_POINT ( 'NONE',  ( 6936.878955077850151, 2779.773001274889793, 15.00000000000000000 ) ) ;
#677 = APPROVAL_PERSON_ORGANIZATION ( #381, #462, #554 ) ;
#678 = FACE_OUTER_BOUND ( 'NONE', #671, .T. ) ;
#679 = AXIS2_PLACEMENT_3D ( 'NONE', #437, #274, #68 ) ;
#680 = CIRCLE ( 'NONE', #146, 549.3876599837479944 ) ;
#681 = DIRECTION ( 'NONE',  ( -1.000000000000000000, 1.669329592379185168E-14, 0.000000000000000000 ) ) ;
#682 = EDGE_CURVE ( 'NONE', #438, #325, #470, .T. ) ;
#683 = CARTESIAN_POINT ( 'NONE',  ( 6864.469242001679959, 3650.218631807570091, 0.000000000000000000 ) ) ;
#684 = ORIENTED_EDGE ( 'NONE', *, *, #132, .T. ) ;
#685 = CYLINDRICAL_SURFACE ( 'NONE', #634, 30.00000000000024869 ) ;
#686 = VERTEX_POINT ( 'NONE', #371 ) ;
#687 = AXIS2_PLACEMENT_3D ( 'NONE', #366, #252, #95 ) ;
#688 = CIRCLE ( 'NONE', #383, 30.00000000000024869 ) ;
#689 = CARTESIAN_POINT ( 'NONE',  ( 6862.524006533469219, 3942.742403137215206, 15.00000000000000000 ) ) ;
#690 = CARTESIAN_POINT ( 'NONE',  ( 6626.691963392579964, 3723.358877470605421, 15.00000000000000000 ) ) ;
#691 = ORIENTED_EDGE ( 'NONE', *, *, #575, .F. ) ;
#692 = DIRECTION ( 'NONE',  ( 0.9996894970330497676, 0.02491805614023464080, 0.000000000000000000 ) ) ;
#693 = LINE ( 'NONE', #109, #209 ) ;
#694 = ORIENTED_EDGE ( 'NONE', *, *, #497, .F. ) ;
#695 = DIRECTION ( 'NONE',  ( 1.000000000000000000, 0.000000000000000000, 0.000000000000000000 ) ) ;
#696 = ADVANCED_FACE ( 'NONE', ( #697 ), #214, .F. ) ;
#697 = FACE_OUTER_BOUND ( 'NONE', #508, .T. ) ;
#698 = ORIENTED_EDGE ( 'NONE', *, *, #104, .T. ) ;
#699 = VECTOR ( 'NONE', #334, 1000.000000000000000 ) ;
#700 = ORIENTED_EDGE ( 'NONE', *, *, #550, .F. ) ;
ENDSEC;
END-ISO-10303-21;
