ISO-10303-21;
HEADER;
FILE_DESCRIPTION (( 'STEP AP203' ),
    '1' );
FILE_NAME ('LINK_默认_sldprt.STEP',
    '2026-04-08T03:35:38',
    ( '' ),
    ( '' ),
    'SwSTEP 2.0',
    'SolidWorks 2022',
    '' );
FILE_SCHEMA (( 'CONFIG_CONTROL_DESIGN' ));
ENDSEC;

DATA;
#1 = DIRECTION ( 'NONE',  ( 1.000000000000000000, 0.000000000000000000, 0.000000000000000000 ) ) ;
#2 = EDGE_CURVE ( 'NONE', #13, #83, #336, .T. ) ;
#3 = ORIENTED_EDGE ( 'NONE', *, *, #130, .F. ) ;
#4 = AXIS2_PLACEMENT_3D ( 'NONE', #413, #210, #302 ) ;
#5 = VERTEX_POINT ( 'NONE', #144 ) ;
#6 = CARTESIAN_POINT ( 'NONE',  ( 70.00000000000000000, 65.00000000000000000, 0.000000000000000000 ) ) ;
#7 = EDGE_LOOP ( 'NONE', ( #163, #461, #201, #281 ) ) ;
#8 = FACE_OUTER_BOUND ( 'NONE', #331, .T. ) ;
#9 = VECTOR ( 'NONE', #346, 1000.000000000000000 ) ;
#10 = EDGE_LOOP ( 'NONE', ( #80, #92, #39, #202 ) ) ;
#11 = DIRECTION ( 'NONE',  ( -1.000000000000000000, 0.000000000000000000, 0.000000000000000000 ) ) ;
#12 = VECTOR ( 'NONE', #253, 1000.000000000000000 ) ;
#13 = VERTEX_POINT ( 'NONE', #303 ) ;
#14 = FACE_BOUND ( 'NONE', #367, .T. ) ;
#15 = CC_DESIGN_APPROVAL ( #371, ( #88 ) ) ;
#16 = EDGE_LOOP ( 'NONE', ( #48, #243, #128, #223 ) ) ;
#17 = CARTESIAN_POINT ( 'NONE',  ( 1122.000000000000000, 10.00000000000000000, 40.00000000000000000 ) ) ;
#18 = CARTESIAN_POINT ( 'NONE',  ( 1052.000000000000000, 65.00000000000000000, 40.00000000000000000 ) ) ;
#19 = EDGE_CURVE ( 'NONE', #13, #140, #312, .T. ) ;
#20 = ORIENTED_EDGE ( 'NONE', *, *, #212, .T. ) ;
#21 = LINE ( 'NONE', #185, #491 ) ;
#22 = AXIS2_PLACEMENT_3D ( 'NONE', #49, #141, #57 ) ;
#23 = LINE ( 'NONE', #17, #173 ) ;
#24 = CARTESIAN_POINT ( 'NONE',  ( 10.00000000000000000, 0.000000000000000000, 0.000000000000000000 ) ) ;
#25 = CARTESIAN_POINT ( 'NONE',  ( 10.00000000000000000, 0.000000000000000000, 40.00000000000000000 ) ) ;
#26 = EDGE_CURVE ( 'NONE', #209, #87, #407, .T. ) ;
#27 = DIRECTION ( 'NONE',  ( 0.000000000000000000, 0.000000000000000000, -1.000000000000000000 ) ) ;
#28 = DIRECTION ( 'NONE',  ( 0.000000000000000000, 0.000000000000000000, 1.000000000000000000 ) ) ;
#29 = CARTESIAN_POINT ( 'NONE',  ( 1112.000000000000000, 10.00000000000000000, 40.00000000000000000 ) ) ;
#30 = CARTESIAN_POINT ( 'NONE',  ( 1052.000000000000000, 65.00000000000000000, 0.000000000000000000 ) ) ;
#31 = AXIS2_PLACEMENT_3D ( 'NONE', #137, #171, #135 ) ;
#32 = PERSON ( '未指定', '未指定', '未指定', ('未指定'), ('未指定'), ('未指定') ) ;
#33 = LINE ( 'NONE', #267, #125 ) ;
#34 = EDGE_CURVE ( 'NONE', #83, #499, #206, .T. ) ;
#35 = FACE_OUTER_BOUND ( 'NONE', #412, .T. ) ;
#36 = APPROVAL_DATE_TIME ( #195, #371 ) ;
#37 = DIRECTION ( 'NONE',  ( -2.018587317500284798E-15, 1.000000000000000000, 0.000000000000000000 ) ) ;
#38 = CIRCLE ( 'NONE', #322, 30.00000000000002842 ) ;
#39 = ORIENTED_EDGE ( 'NONE', *, *, #194, .T. ) ;
#40 = ORIENTED_EDGE ( 'NONE', *, *, #116, .T. ) ;
#41 =( GEOMETRIC_REPRESENTATION_CONTEXT ( 3 ) GLOBAL_UNCERTAINTY_ASSIGNED_CONTEXT ( ( #62 ) ) GLOBAL_UNIT_ASSIGNED_CONTEXT ( ( #145, #191, #235 ) ) REPRESENTATION_CONTEXT ( 'NONE', 'WORKASPACE' ) );
#42 = CARTESIAN_POINT ( 'NONE',  ( 1112.000000000000000, 130.0000000000000000, 0.000000000000000000 ) ) ;
#43 = VERTEX_POINT ( 'NONE', #189 ) ;
#44 = LINE ( 'NONE', #104, #460 ) ;
#45 = EDGE_LOOP ( 'NONE', ( #131, #246, #417, #254 ) ) ;
#46 = VECTOR ( 'NONE', #378, 1000.000000000000000 ) ;
#47 = EDGE_CURVE ( 'NONE', #5, #405, #437, .T. ) ;
#48 = ORIENTED_EDGE ( 'NONE', *, *, #342, .T. ) ;
#49 = CARTESIAN_POINT ( 'NONE',  ( 70.00000000000000000, 65.00000000000000000, 40.00000000000000000 ) ) ;
#50 = CIRCLE ( 'NONE', #138, 30.00000000000002842 ) ;
#51 = CC_DESIGN_PERSON_AND_ORGANIZATION_ASSIGNMENT ( #115, #320, ( #197 ) ) ;
#52 = ORIENTED_EDGE ( 'NONE', *, *, #2, .F. ) ;
#53 = FACE_OUTER_BOUND ( 'NONE', #294, .T. ) ;
#54 = CARTESIAN_POINT ( 'NONE',  ( 10.00000000000000000, 10.00000000000000000, 0.000000000000000000 ) ) ;
#55 = CARTESIAN_POINT ( 'NONE',  ( 1052.000000000000000, 65.00000000000000000, 40.00000000000000000 ) ) ;
#56 = VERTEX_POINT ( 'NONE', #234 ) ;
#57 = DIRECTION ( 'NONE',  ( -1.000000000000000000, 0.000000000000000000, 0.000000000000000000 ) ) ;
#58 = EDGE_CURVE ( 'NONE', #170, #280, #38, .T. ) ;
#59 = CC_DESIGN_APPROVAL ( #279, ( #102 ) ) ;
#60 = ORIENTED_EDGE ( 'NONE', *, *, #519, .F. ) ;
#61 = DIRECTION ( 'NONE',  ( 0.000000000000000000, -1.000000000000000000, 0.000000000000000000 ) ) ;
#62 = UNCERTAINTY_MEASURE_WITH_UNIT (LENGTH_MEASURE( 1.000000000000000082E-05 ), #145, 'distance_accuracy_value', 'NONE');
#63 = ORIENTED_EDGE ( 'NONE', *, *, #250, .T. ) ;
#64 = CARTESIAN_POINT ( 'NONE',  ( 1082.000000000000000, 65.00000000000000000, 40.00000000000000000 ) ) ;
#65 = CIRCLE ( 'NONE', #240, 30.00000000000000000 ) ;
#66 = COORDINATED_UNIVERSAL_TIME_OFFSET ( 8, 0, .AHEAD. ) ;
#67 = CARTESIAN_POINT ( 'NONE',  ( 1112.000000000000000, 10.00000000000000000, 40.00000000000000000 ) ) ;
#68 = ADVANCED_FACE ( 'NONE', ( #310 ), #440, .T. ) ;
#69 = CARTESIAN_POINT ( 'NONE',  ( 10.00000000000000000, 10.00000000000000000, 40.00000000000000000 ) ) ;
#70 = APPROVAL_PERSON_ORGANIZATION ( #198, #279, #436 ) ;
#71 = FACE_OUTER_BOUND ( 'NONE', #443, .T. ) ;
#72 = DATE_AND_TIME ( #110, #316 ) ;
#73 = CARTESIAN_POINT ( 'NONE',  ( 1112.000000000000000, 120.0000000000000000, 40.00000000000000000 ) ) ;
#74 = AXIS2_PLACEMENT_3D ( 'NONE', #164, #118, #242 ) ;
#75 = CALENDAR_DATE ( 2026, 8, 4 ) ;
#76 = DIRECTION ( 'NONE',  ( 0.000000000000000000, 0.000000000000000000, 1.000000000000000000 ) ) ;
#77 = CARTESIAN_POINT ( 'NONE',  ( 1112.000000000000000, 120.0000000000000000, 0.000000000000000000 ) ) ;
#78 = APPROVAL_STATUS ( 'not_yet_approved' ) ;
#79 = DIRECTION ( 'NONE',  ( -1.000000000000000000, 0.000000000000000000, 0.000000000000000000 ) ) ;
#80 = ORIENTED_EDGE ( 'NONE', *, *, #396, .F. ) ;
#81 = AXIS2_PLACEMENT_3D ( 'NONE', #498, #215, #90 ) ;
#82 = ADVANCED_FACE ( 'NONE', ( #35 ), #305, .F. ) ;
#83 = VERTEX_POINT ( 'NONE', #487 ) ;
#84 = PRODUCT_DEFINITION_SHAPE ( 'NONE', 'NONE',  #88 ) ;
#85 = ORIENTED_EDGE ( 'NONE', *, *, #283, .F. ) ;
#86 = CC_DESIGN_APPROVAL ( #146, ( #197 ) ) ;
#87 = VERTEX_POINT ( 'NONE', #42 ) ;
#88 = PRODUCT_DEFINITION ( '未知', '', #197, #147 ) ;
#89 = VERTEX_POINT ( 'NONE', #479 ) ;
#90 = DIRECTION ( 'NONE',  ( 1.000000000000000000, 0.000000000000000000, 0.000000000000000000 ) ) ;
#91 = PRODUCT_RELATED_PRODUCT_CATEGORY ( 'detail', '', ( #318 ) ) ;
#92 = ORIENTED_EDGE ( 'NONE', *, *, #58, .T. ) ;
#93 = VECTOR ( 'NONE', #350, 1000.000000000000000 ) ;
#94 = ORIENTED_EDGE ( 'NONE', *, *, #212, .F. ) ;
#95 = DIRECTION ( 'NONE',  ( 0.000000000000000000, -1.000000000000000000, 0.000000000000000000 ) ) ;
#96 = CARTESIAN_POINT ( 'NONE',  ( 1022.000000000000000, 65.00000000000000000, 40.00000000000000000 ) ) ;
#97 = VERTEX_POINT ( 'NONE', #282 ) ;
#98 = AXIS2_PLACEMENT_3D ( 'NONE', #495, #452, #298 ) ;
#99 = CARTESIAN_POINT ( 'NONE',  ( 1122.000000000000000, 10.00000000000000000, 40.00000000000000000 ) ) ;
#100 = ORIENTED_EDGE ( 'NONE', *, *, #229, .T. ) ;
#101 = LINE ( 'NONE', #99, #12 ) ;
#102 = SECURITY_CLASSIFICATION ( '', '', #359 ) ;
#103 = DIRECTION ( 'NONE',  ( 0.000000000000000000, 0.000000000000000000, 1.000000000000000000 ) ) ;
#104 = CARTESIAN_POINT ( 'NONE',  ( 1022.000000000000000, 65.00000000000000000, 40.00000000000000000 ) ) ;
#105 = DIRECTION ( 'NONE',  ( 1.000000000000000000, 0.000000000000000000, 0.000000000000000000 ) ) ;
#106 = DIRECTION ( 'NONE',  ( 1.000000000000000000, 0.000000000000000000, 0.000000000000000000 ) ) ;
#107 = AXIS2_PLACEMENT_3D ( 'NONE', #54, #394, #516 ) ;
#108 = APPROVAL_ROLE ( '' ) ;
#109 = DIRECTION ( 'NONE',  ( -1.000000000000000000, 0.000000000000000000, 0.000000000000000000 ) ) ;
#110 = CALENDAR_DATE ( 2026, 8, 4 ) ;
#111 = DIRECTION ( 'NONE',  ( -1.000000000000000000, 0.000000000000000000, 0.000000000000000000 ) ) ;
#112 = AXIS2_PLACEMENT_3D ( 'NONE', #468, #149, #506 ) ;
#113 = APPLICATION_CONTEXT ( 'configuration controlled 3d designs of mechanical parts and assemblies' ) ;
#114 = CYLINDRICAL_SURFACE ( 'NONE', #390, 10.00000000000000000 ) ;
#115 = PERSON_AND_ORGANIZATION ( #32, #382 ) ;
#116 = EDGE_CURVE ( 'NONE', #97, #209, #444, .T. ) ;
#117 = DIRECTION ( 'NONE',  ( 0.000000000000000000, 0.000000000000000000, -1.000000000000000000 ) ) ;
#118 = DIRECTION ( 'NONE',  ( 0.000000000000000000, 0.000000000000000000, 1.000000000000000000 ) ) ;
#119 = CIRCLE ( 'NONE', #347, 30.00000000000000000 ) ;
#120 = PERSON_AND_ORGANIZATION_ROLE ( 'design_owner' ) ;
#121 = DIRECTION ( 'NONE',  ( 0.000000000000000000, 0.000000000000000000, 1.000000000000000000 ) ) ;
#122 = DIRECTION ( 'NONE',  ( -1.000000000000000000, 0.000000000000000000, 0.000000000000000000 ) ) ;
#123 = CALENDAR_DATE ( 2026, 8, 4 ) ;
#124 = ORIENTED_EDGE ( 'NONE', *, *, #482, .T. ) ;
#125 = VECTOR ( 'NONE', #61, 1000.000000000000000 ) ;
#126 = EDGE_CURVE ( 'NONE', #214, #262, #503, .T. ) ;
#127 = ORIENTED_EDGE ( 'NONE', *, *, #368, .F. ) ;
#128 = ORIENTED_EDGE ( 'NONE', *, *, #415, .F. ) ;
#129 = ORIENTED_EDGE ( 'NONE', *, *, #474, .T. ) ;
#130 = EDGE_CURVE ( 'NONE', #136, #56, #450, .T. ) ;
#131 = ORIENTED_EDGE ( 'NONE', *, *, #34, .T. ) ;
#132 = DIRECTION ( 'NONE',  ( 0.000000000000000000, 0.000000000000000000, 1.000000000000000000 ) ) ;
#133 = DIRECTION ( 'NONE',  ( -1.000000000000000000, 0.000000000000000000, 0.000000000000000000 ) ) ;
#134 = VECTOR ( 'NONE', #95, 1000.000000000000000 ) ;
#135 = DIRECTION ( 'NONE',  ( 2.018587317500284798E-15, -1.000000000000000000, 0.000000000000000000 ) ) ;
#136 = VERTEX_POINT ( 'NONE', #277 ) ;
#137 = CARTESIAN_POINT ( 'NONE',  ( 1122.000000000000000, 10.00000000000000000, 40.00000000000000000 ) ) ;
#138 = AXIS2_PLACEMENT_3D ( 'NONE', #30, #395, #106 ) ;
#139 = ADVANCED_FACE ( 'NONE', ( #438, #325, #398 ), #161, .T. ) ;
#140 = VERTEX_POINT ( 'NONE', #255 ) ;
#141 = DIRECTION ( 'NONE',  ( 0.000000000000000000, 0.000000000000000000, -1.000000000000000000 ) ) ;
#142 = EDGE_LOOP ( 'NONE', ( #419, #457, #124, #288, #168, #409, #100, #455 ) ) ;
#143 = DIRECTION ( 'NONE',  ( 0.000000000000000000, 0.000000000000000000, -1.000000000000000000 ) ) ;
#144 = CARTESIAN_POINT ( 'NONE',  ( 1122.000000000000000, 120.0000000000000000, 40.00000000000000000 ) ) ;
#145 =( LENGTH_UNIT ( ) NAMED_UNIT ( * ) SI_UNIT ( .MILLI., .METRE. ) );
#146 = APPROVAL ( #78, '未指定' ) ;
#147 = DESIGN_CONTEXT ( 'detailed design', #256, 'design' ) ;
#148 = LINE ( 'NONE', #25, #496 ) ;
#149 = DIRECTION ( 'NONE',  ( 0.000000000000000000, 0.000000000000000000, 1.000000000000000000 ) ) ;
#150 = COORDINATED_UNIVERSAL_TIME_OFFSET ( 8, 0, .AHEAD. ) ;
#151 = CARTESIAN_POINT ( 'NONE',  ( 1112.000000000000000, 0.000000000000000000, 0.000000000000000000 ) ) ;
#152 = MANIFOLD_SOLID_BREP ( '输入1', #458 ) ;
#153 = PERSON_AND_ORGANIZATION ( #32, #382 ) ;
#154 = EDGE_CURVE ( 'NONE', #400, #97, #23, .T. ) ;
#155 = LOCAL_TIME ( 11, 35, 38.00000000000000000, #66 ) ;
#156 = CARTESIAN_POINT ( 'NONE',  ( 10.00000000000000000, 130.0000000000000000, 40.00000000000000000 ) ) ;
#157 = PERSON_AND_ORGANIZATION ( #32, #382 ) ;
#158 = VECTOR ( 'NONE', #37, 1000.000000000000000 ) ;
#159 = APPROVAL_DATE_TIME ( #233, #279 ) ;
#160 = ADVANCED_FACE ( 'NONE', ( #490 ), #177, .F. ) ;
#161 = PLANE ( 'NONE',  #224 ) ;
#162 = ORIENTED_EDGE ( 'NONE', *, *, #368, .T. ) ;
#163 = ORIENTED_EDGE ( 'NONE', *, *, #387, .T. ) ;
#164 = CARTESIAN_POINT ( 'NONE',  ( 70.00000000000000000, 65.00000000000000000, 0.000000000000000000 ) ) ;
#165 = CIRCLE ( 'NONE', #4, 10.00000000000000888 ) ;
#166 = ORIENTED_EDGE ( 'NONE', *, *, #47, .F. ) ;
#167 = LINE ( 'NONE', #344, #521 ) ;
#168 = ORIENTED_EDGE ( 'NONE', *, *, #19, .T. ) ;
#169 = FACE_OUTER_BOUND ( 'NONE', #442, .T. ) ;
#170 = VERTEX_POINT ( 'NONE', #186 ) ;
#171 = DIRECTION ( 'NONE',  ( -1.000000000000000000, -2.018587317500284798E-15, 0.000000000000000000 ) ) ;
#172 = ORIENTED_EDGE ( 'NONE', *, *, #512, .F. ) ;
#173 = VECTOR ( 'NONE', #306, 1000.000000000000000 ) ;
#174 = CARTESIAN_POINT ( 'NONE',  ( 10.00000000000000000, 130.0000000000000000, 40.00000000000000000 ) ) ;
#175 = EDGE_CURVE ( 'NONE', #56, #262, #258, .T. ) ;
#176 = ORIENTED_EDGE ( 'NONE', *, *, #387, .F. ) ;
#177 = PLANE ( 'NONE',  #200 ) ;
#178 = PLANE ( 'NONE',  #376 ) ;
#179 = VECTOR ( 'NONE', #430, 1000.000000000000000 ) ;
#180 = ORIENTED_EDGE ( 'NONE', *, *, #26, .T. ) ;
#181 = DIRECTION ( 'NONE',  ( -1.000000000000000000, 0.000000000000000000, 0.000000000000000000 ) ) ;
#182 = CARTESIAN_POINT ( 'NONE',  ( 0.000000000000000000, 10.00000000000000000, 40.00000000000000000 ) ) ;
#183 = CC_DESIGN_PERSON_AND_ORGANIZATION_ASSIGNMENT ( #188, #120, ( #318 ) ) ;
#184 = CIRCLE ( 'NONE', #81, 30.00000000000002842 ) ;
#185 = CARTESIAN_POINT ( 'NONE',  ( 1112.000000000000000, 130.0000000000000000, 40.00000000000000000 ) ) ;
#186 = CARTESIAN_POINT ( 'NONE',  ( 1082.000000000000000, 65.00000000000000000, 40.00000000000000000 ) ) ;
#187 = CARTESIAN_POINT ( 'NONE',  ( 1112.000000000000000, 130.0000000000000000, 40.00000000000000000 ) ) ;
#188 = PERSON_AND_ORGANIZATION ( #32, #382 ) ;
#189 = CARTESIAN_POINT ( 'NONE',  ( 10.00000000000000000, 130.0000000000000000, 40.00000000000000000 ) ) ;
#190 = LINE ( 'NONE', #352, #247 ) ;
#191 =( NAMED_UNIT ( * ) PLANE_ANGLE_UNIT ( ) SI_UNIT ( $, .RADIAN. ) );
#192 = APPLICATION_PROTOCOL_DEFINITION ( 'international standard', 'config_control_design', 1994, #113 ) ;
#193 = CARTESIAN_POINT ( 'NONE',  ( 10.00000000000000000, 0.000000000000000000, 40.00000000000000000 ) ) ;
#194 = EDGE_CURVE ( 'NONE', #280, #284, #44, .T. ) ;
#195 = DATE_AND_TIME ( #426, #244 ) ;
#196 = CYLINDRICAL_SURFACE ( 'NONE', #287, 10.00000000000000000 ) ;
#197 = PRODUCT_DEFINITION_FORMATION_WITH_SPECIFIED_SOURCE ( '任何', '', #318, .NOT_KNOWN. ) ;
#198 = PERSON_AND_ORGANIZATION ( #32, #382 ) ;
#199 = CARTESIAN_POINT ( 'NONE',  ( 1122.000000000000000, 10.00000000000000000, 0.000000000000000000 ) ) ;
#200 = AXIS2_PLACEMENT_3D ( 'NONE', #304, #465, #467 ) ;
#201 = ORIENTED_EDGE ( 'NONE', *, *, #453, .F. ) ;
#202 = ORIENTED_EDGE ( 'NONE', *, *, #290, .F. ) ;
#203 = CC_DESIGN_SECURITY_CLASSIFICATION ( #102, ( #197 ) ) ;
#204 = DIRECTION ( 'NONE',  ( 0.000000000000000000, 0.000000000000000000, -1.000000000000000000 ) ) ;
#205 = EDGE_CURVE ( 'NONE', #136, #214, #167, .T. ) ;
#206 = CIRCLE ( 'NONE', #107, 10.00000000000000000 ) ;
#207 = ORIENTED_EDGE ( 'NONE', *, *, #434, .F. ) ;
#208 = CARTESIAN_POINT ( 'NONE',  ( 10.00000000000000000, 120.0000000000000000, 0.000000000000000000 ) ) ;
#209 = VERTEX_POINT ( 'NONE', #263 ) ;
#210 = DIRECTION ( 'NONE',  ( 0.000000000000000000, 0.000000000000000000, 1.000000000000000000 ) ) ;
#211 = ORIENTED_EDGE ( 'NONE', *, *, #175, .F. ) ;
#212 = EDGE_CURVE ( 'NONE', #525, #83, #424, .T. ) ;
#213 = DIRECTION ( 'NONE',  ( -1.000000000000000000, 0.000000000000000000, 0.000000000000000000 ) ) ;
#214 = VERTEX_POINT ( 'NONE', #311 ) ;
#215 = DIRECTION ( 'NONE',  ( 0.000000000000000000, 0.000000000000000000, 1.000000000000000000 ) ) ;
#216 = ORIENTED_EDGE ( 'NONE', *, *, #229, .F. ) ;
#217 = DIRECTION ( 'NONE',  ( 0.000000000000000000, 0.000000000000000000, -1.000000000000000000 ) ) ;
#218 = FACE_OUTER_BOUND ( 'NONE', #16, .T. ) ;
#219 = VECTOR ( 'NONE', #353, 1000.000000000000000 ) ;
#220 = EDGE_CURVE ( 'NONE', #5, #209, #190, .T. ) ;
#221 = ORIENTED_EDGE ( 'NONE', *, *, #512, .T. ) ;
#222 = CARTESIAN_POINT ( 'NONE',  ( 10.00000000000000000, 0.000000000000000000, 0.000000000000000000 ) ) ;
#223 = ORIENTED_EDGE ( 'NONE', *, *, #194, .F. ) ;
#224 = AXIS2_PLACEMENT_3D ( 'NONE', #77, #323, #122 ) ;
#225 = DIRECTION ( 'NONE',  ( 0.000000000000000000, 0.000000000000000000, 1.000000000000000000 ) ) ;
#226 = LINE ( 'NONE', #24, #358 ) ;
#227 = CIRCLE ( 'NONE', #411, 10.00000000000000000 ) ;
#228 = DATE_AND_TIME ( #123, #420 ) ;
#229 = EDGE_CURVE ( 'NONE', #402, #400, #471, .T. ) ;
#230 = DIRECTION ( 'NONE',  ( 0.000000000000000000, 0.000000000000000000, -1.000000000000000000 ) ) ;
#231 = DIRECTION ( 'NONE',  ( 1.000000000000000000, 0.000000000000000000, 0.000000000000000000 ) ) ;
#232 = AXIS2_PLACEMENT_3D ( 'NONE', #18, #143, #181 ) ;
#233 = DATE_AND_TIME ( #75, #155 ) ;
#234 = CARTESIAN_POINT ( 'NONE',  ( 100.0000000000000000, 65.00000000000000000, 40.00000000000000000 ) ) ;
#235 =( NAMED_UNIT ( * ) SI_UNIT ( $, .STERADIAN. ) SOLID_ANGLE_UNIT ( ) );
#236 = COORDINATED_UNIVERSAL_TIME_OFFSET ( 8, 0, .AHEAD. ) ;
#237 = EDGE_CURVE ( 'NONE', #56, #136, #65, .T. ) ;
#238 = DIRECTION ( 'NONE',  ( 0.000000000000000000, 0.000000000000000000, 1.000000000000000000 ) ) ;
#239 = EDGE_LOOP ( 'NONE', ( #446, #241 ) ) ;
#240 = AXIS2_PLACEMENT_3D ( 'NONE', #265, #429, #389 ) ;
#241 = ORIENTED_EDGE ( 'NONE', *, *, #283, .T. ) ;
#242 = DIRECTION ( 'NONE',  ( 1.000000000000000000, 0.000000000000000000, 0.000000000000000000 ) ) ;
#243 = ORIENTED_EDGE ( 'NONE', *, *, #396, .T. ) ;
#244 = LOCAL_TIME ( 11, 35, 38.00000000000000000, #480 ) ;
#245 = EDGE_CURVE ( 'NONE', #140, #402, #148, .T. ) ;
#246 = ORIENTED_EDGE ( 'NONE', *, *, #474, .F. ) ;
#247 = VECTOR ( 'NONE', #509, 1000.000000000000000 ) ;
#248 = EDGE_LOOP ( 'NONE', ( #363, #292, #216, #340 ) ) ;
#249 = DIRECTION ( 'NONE',  ( 1.000000000000000000, 0.000000000000000000, 0.000000000000000000 ) ) ;
#250 = EDGE_CURVE ( 'NONE', #43, #497, #341, .T. ) ;
#251 = ORIENTED_EDGE ( 'NONE', *, *, #268, .F. ) ;
#252 = CIRCLE ( 'NONE', #112, 10.00000000000000000 ) ;
#253 = DIRECTION ( 'NONE',  ( -2.018587317500284798E-15, 1.000000000000000000, 0.000000000000000000 ) ) ;
#254 = ORIENTED_EDGE ( 'NONE', *, *, #2, .T. ) ;
#255 = CARTESIAN_POINT ( 'NONE',  ( 10.00000000000000000, 0.000000000000000000, 40.00000000000000000 ) ) ;
#256 = APPLICATION_CONTEXT ( 'configuration controlled 3d designs of mechanical parts and assemblies' ) ;
#257 = EDGE_LOOP ( 'NONE', ( #162, #172, #286, #63 ) ) ;
#258 = LINE ( 'NONE', #418, #275 ) ;
#259 = CYLINDRICAL_SURFACE ( 'NONE', #454, 30.00000000000000000 ) ;
#260 = ORIENTED_EDGE ( 'NONE', *, *, #245, .F. ) ;
#261 = DIRECTION ( 'NONE',  ( 0.000000000000000000, 0.000000000000000000, -1.000000000000000000 ) ) ;
#262 = VERTEX_POINT ( 'NONE', #370 ) ;
#263 = CARTESIAN_POINT ( 'NONE',  ( 1122.000000000000000, 120.0000000000000000, 0.000000000000000000 ) ) ;
#264 = DIRECTION ( 'NONE',  ( -1.000000000000000000, 0.000000000000000000, 0.000000000000000000 ) ) ;
#265 = CARTESIAN_POINT ( 'NONE',  ( 70.00000000000000000, 65.00000000000000000, 40.00000000000000000 ) ) ;
#266 = AXIS2_PLACEMENT_3D ( 'NONE', #414, #423, #377 ) ;
#267 = CARTESIAN_POINT ( 'NONE',  ( 0.000000000000000000, 10.00000000000000000, 40.00000000000000000 ) ) ;
#268 = EDGE_CURVE ( 'NONE', #400, #5, #101, .T. ) ;
#269 = CARTESIAN_POINT ( 'NONE',  ( 1122.000000000000000, 10.00000000000000000, 40.00000000000000000 ) ) ;
#270 = VECTOR ( 'NONE', #476, 1000.000000000000000 ) ;
#271 = APPLICATION_PROTOCOL_DEFINITION ( 'international standard', 'config_control_design', 1994, #256 ) ;
#272 = DIRECTION ( 'NONE',  ( 0.000000000000000000, 0.000000000000000000, -1.000000000000000000 ) ) ;
#273 = APPROVAL_STATUS ( 'not_yet_approved' ) ;
#274 = CARTESIAN_POINT ( 'NONE',  ( 10.00000000000000000, 130.0000000000000000, 0.000000000000000000 ) ) ;
#275 = VECTOR ( 'NONE', #217, 1000.000000000000000 ) ;
#276 = ADVANCED_FACE ( 'NONE', ( #218 ), #345, .F. ) ;
#277 = CARTESIAN_POINT ( 'NONE',  ( 40.00000000000000711, 65.00000000000000000, 40.00000000000000000 ) ) ;
#278 = PERSON_AND_ORGANIZATION_ROLE ( 'classification_officer' ) ;
#279 = APPROVAL ( #273, '未指定' ) ;
#280 = VERTEX_POINT ( 'NONE', #96 ) ;
#281 = ORIENTED_EDGE ( 'NONE', *, *, #519, .T. ) ;
#282 = CARTESIAN_POINT ( 'NONE',  ( 1122.000000000000000, 10.00000000000000000, 0.000000000000000000 ) ) ;
#283 = EDGE_CURVE ( 'NONE', #262, #214, #119, .T. ) ;
#284 = VERTEX_POINT ( 'NONE', #339 ) ;
#285 = DIRECTION ( 'NONE',  ( 1.000000000000000000, 0.000000000000000000, 0.000000000000000000 ) ) ;
#286 = ORIENTED_EDGE ( 'NONE', *, *, #482, .F. ) ;
#287 = AXIS2_PLACEMENT_3D ( 'NONE', #356, #117, #348 ) ;
#288 = ORIENTED_EDGE ( 'NONE', *, *, #434, .T. ) ;
#289 = DIRECTION ( 'NONE',  ( -1.000000000000000000, 0.000000000000000000, 0.000000000000000000 ) ) ;
#290 = EDGE_CURVE ( 'NONE', #324, #284, #184, .T. ) ;
#291 = AXIS2_PLACEMENT_3D ( 'NONE', #67, #225, #105 ) ;
#292 = ORIENTED_EDGE ( 'NONE', *, *, #154, .F. ) ;
#293 = CARTESIAN_POINT ( 'NONE',  ( 1082.000000000000000, 65.00000000000000000, 0.000000000000000000 ) ) ;
#294 = EDGE_LOOP ( 'NONE', ( #211, #488, #333, #85 ) ) ;
#295 = APPROVAL_PERSON_ORGANIZATION ( #361, #371, #108 ) ;
#296 = CYLINDRICAL_SURFACE ( 'NONE', #22, 30.00000000000000000 ) ;
#297 = ORIENTED_EDGE ( 'NONE', *, *, #26, .F. ) ;
#298 = DIRECTION ( 'NONE',  ( 1.000000000000000000, 0.000000000000000000, 0.000000000000000000 ) ) ;
#299 = ORIENTED_EDGE ( 'NONE', *, *, #415, .T. ) ;
#300 = AXIS2_PLACEMENT_3D ( 'NONE', #55, #261, #11 ) ;
#301 = ADVANCED_FACE ( 'NONE', ( #421, #373, #14 ), #178, .F. ) ;
#302 = DIRECTION ( 'NONE',  ( 1.000000000000000000, 0.000000000000000000, 0.000000000000000000 ) ) ;
#303 = CARTESIAN_POINT ( 'NONE',  ( 0.000000000000000000, 10.00000000000000000, 40.00000000000000000 ) ) ;
#304 = CARTESIAN_POINT ( 'NONE',  ( 10.00000000000000000, 130.0000000000000000, 40.00000000000000000 ) ) ;
#305 = PLANE ( 'NONE',  #362 ) ;
#306 = DIRECTION ( 'NONE',  ( 0.000000000000000000, 0.000000000000000000, -1.000000000000000000 ) ) ;
#307 = LINE ( 'NONE', #514, #484 ) ;
#308 = ADVANCED_FACE ( 'NONE', ( #335 ), #493, .F. ) ;
#309 = PERSON_AND_ORGANIZATION ( #32, #382 ) ;
#310 = FACE_OUTER_BOUND ( 'NONE', #248, .T. ) ;
#311 = CARTESIAN_POINT ( 'NONE',  ( 40.00000000000000711, 65.00000000000000000, 0.000000000000000000 ) ) ;
#312 = CIRCLE ( 'NONE', #386, 10.00000000000000000 ) ;
#313 = CARTESIAN_POINT ( 'NONE',  ( 1.734723475976804925E-15, 120.0000000000000000, 0.000000000000000000 ) ) ;
#314 = COORDINATED_UNIVERSAL_TIME_OFFSET ( 8, 0, .AHEAD. ) ;
#315 = FACE_OUTER_BOUND ( 'NONE', #257, .T. ) ;
#316 = LOCAL_TIME ( 11, 35, 38.00000000000000000, #236 ) ;
#317 = APPROVAL_DATE_TIME ( #72, #146 ) ;
#318 = PRODUCT ( 'LINK_\X2\9ed88ba4\X0\_sldprt', 'LINK_\X2\9ed88ba4\X0\_sldprt', '', ( #354 ) ) ;
#319 = DIRECTION ( 'NONE',  ( 0.000000000000000000, 1.000000000000000000, 0.000000000000000000 ) ) ;
#320 = PERSON_AND_ORGANIZATION_ROLE ( 'creator' ) ;
#321 = CC_DESIGN_PERSON_AND_ORGANIZATION_ASSIGNMENT ( #309, #278, ( #102 ) ) ;
#322 = AXIS2_PLACEMENT_3D ( 'NONE', #397, #121, #470 ) ;
#323 = DIRECTION ( 'NONE',  ( 0.000000000000000000, 0.000000000000000000, -1.000000000000000000 ) ) ;
#324 = VERTEX_POINT ( 'NONE', #293 ) ;
#325 = FACE_OUTER_BOUND ( 'NONE', #372, .T. ) ;
#326 = APPROVAL_PERSON_ORGANIZATION ( #153, #146, #520 ) ;
#327 = EDGE_LOOP ( 'NONE', ( #299, #338 ) ) ;
#328 = DIRECTION ( 'NONE',  ( 0.000000000000000000, 0.000000000000000000, -1.000000000000000000 ) ) ;
#329 = ORIENTED_EDGE ( 'NONE', *, *, #220, .T. ) ;
#330 = CIRCLE ( 'NONE', #98, 30.00000000000002842 ) ;
#331 = EDGE_LOOP ( 'NONE', ( #180, #60, #166, #329 ) ) ;
#332 = CARTESIAN_POINT ( 'NONE',  ( 0.000000000000000000, 10.00000000000000000, 0.000000000000000000 ) ) ;
#333 = ORIENTED_EDGE ( 'NONE', *, *, #205, .T. ) ;
#334 = ADVANCED_FACE ( 'NONE', ( #169 ), #296, .F. ) ;
#335 = FACE_OUTER_BOUND ( 'NONE', #380, .T. ) ;
#336 = LINE ( 'NONE', #182, #9 ) ;
#337 = AXIS2_PLACEMENT_3D ( 'NONE', #29, #355, #79 ) ;
#338 = ORIENTED_EDGE ( 'NONE', *, *, #290, .T. ) ;
#339 = CARTESIAN_POINT ( 'NONE',  ( 1022.000000000000000, 65.00000000000000000, 0.000000000000000000 ) ) ;
#340 = ORIENTED_EDGE ( 'NONE', *, *, #441, .T. ) ;
#341 = LINE ( 'NONE', #174, #46 ) ;
#342 = EDGE_CURVE ( 'NONE', #280, #170, #330, .T. ) ;
#343 = ORIENTED_EDGE ( 'NONE', *, *, #175, .T. ) ;
#344 = CARTESIAN_POINT ( 'NONE',  ( 40.00000000000000711, 65.00000000000000000, 40.00000000000000000 ) ) ;
#345 = CYLINDRICAL_SURFACE ( 'NONE', #300, 30.00000000000002842 ) ;
#346 = DIRECTION ( 'NONE',  ( 0.000000000000000000, 0.000000000000000000, -1.000000000000000000 ) ) ;
#347 = AXIS2_PLACEMENT_3D ( 'NONE', #6, #375, #416 ) ;
#348 = DIRECTION ( 'NONE',  ( -1.000000000000000000, 0.000000000000000000, 0.000000000000000000 ) ) ;
#349 = ADVANCED_FACE ( 'NONE', ( #459 ), #383, .F. ) ;
#350 = DIRECTION ( 'NONE',  ( 0.000000000000000000, 0.000000000000000000, -1.000000000000000000 ) ) ;
#351 = CARTESIAN_POINT ( 'NONE',  ( 0.000000000000000000, 0.000000000000000000, 0.000000000000000000 ) ) ;
#352 = CARTESIAN_POINT ( 'NONE',  ( 1122.000000000000000, 120.0000000000000000, 40.00000000000000000 ) ) ;
#353 = DIRECTION ( 'NONE',  ( -1.000000000000000000, 0.000000000000000000, 0.000000000000000000 ) ) ;
#354 = MECHANICAL_CONTEXT ( 'NONE', #113, 'mechanical' ) ;
#355 = DIRECTION ( 'NONE',  ( 0.000000000000000000, 0.000000000000000000, -1.000000000000000000 ) ) ;
#356 = CARTESIAN_POINT ( 'NONE',  ( 10.00000000000000000, 120.0000000000000000, 40.00000000000000000 ) ) ;
#357 = LINE ( 'NONE', #156, #431 ) ;
#358 = VECTOR ( 'NONE', #231, 1000.000000000000000 ) ;
#359 = SECURITY_CLASSIFICATION_LEVEL ( 'unclassified' ) ;
#360 = EDGE_CURVE ( 'NONE', #486, #97, #165, .T. ) ;
#361 = PERSON_AND_ORGANIZATION ( #32, #382 ) ;
#362 = AXIS2_PLACEMENT_3D ( 'NONE', #427, #285, #328 ) ;
#363 = ORIENTED_EDGE ( 'NONE', *, *, #360, .T. ) ;
#364 = ADVANCED_FACE ( 'NONE', ( #53 ), #259, .F. ) ;
#365 = AXIS2_PLACEMENT_3D ( 'NONE', #193, #319, #391 ) ;
#366 = ORIENTED_EDGE ( 'NONE', *, *, #399, .F. ) ;
#367 = EDGE_LOOP ( 'NONE', ( #489, #384 ) ) ;
#368 = EDGE_CURVE ( 'NONE', #497, #525, #227, .T. ) ;
#369 = ORIENTED_EDGE ( 'NONE', *, *, #116, .F. ) ;
#370 = CARTESIAN_POINT ( 'NONE',  ( 100.0000000000000000, 65.00000000000000000, 0.000000000000000000 ) ) ;
#371 = APPROVAL ( #515, '未指定' ) ;
#372 = EDGE_LOOP ( 'NONE', ( #297, #369, #451, #366, #483, #94, #127, #176 ) ) ;
#373 = FACE_BOUND ( 'NONE', #504, .T. ) ;
#374 = ORIENTED_EDGE ( 'NONE', *, *, #154, .T. ) ;
#375 = DIRECTION ( 'NONE',  ( 0.000000000000000000, 0.000000000000000000, 1.000000000000000000 ) ) ;
#376 = AXIS2_PLACEMENT_3D ( 'NONE', #502, #500, #410 ) ;
#377 = DIRECTION ( 'NONE',  ( -1.000000000000000000, 0.000000000000000000, 0.000000000000000000 ) ) ;
#378 = DIRECTION ( 'NONE',  ( 0.000000000000000000, 0.000000000000000000, -1.000000000000000000 ) ) ;
#379 = ADVANCED_FACE ( 'NONE', ( #8 ), #449, .T. ) ;
#380 = EDGE_LOOP ( 'NONE', ( #40, #494, #251, #374 ) ) ;
#381 = DIRECTION ( 'NONE',  ( 0.000000000000000000, 0.000000000000000000, -1.000000000000000000 ) ) ;
#382 = ORGANIZATION ( '未指定', '未指定', '' ) ;
#383 = CYLINDRICAL_SURFACE ( 'NONE', #232, 30.00000000000002842 ) ;
#384 = ORIENTED_EDGE ( 'NONE', *, *, #58, .F. ) ;
#385 = LINE ( 'NONE', #466, #179 ) ;
#386 = AXIS2_PLACEMENT_3D ( 'NONE', #464, #103, #133 ) ;
#387 = EDGE_CURVE ( 'NONE', #87, #497, #435, .T. ) ;
#388 = DIRECTION ( 'NONE',  ( 0.000000000000000000, 0.000000000000000000, -1.000000000000000000 ) ) ;
#389 = DIRECTION ( 'NONE',  ( 1.000000000000000000, 0.000000000000000000, 0.000000000000000000 ) ) ;
#390 = AXIS2_PLACEMENT_3D ( 'NONE', #69, #272, #472 ) ;
#391 = DIRECTION ( 'NONE',  ( 0.000000000000000000, 0.000000000000000000, 1.000000000000000000 ) ) ;
#392 = LINE ( 'NONE', #64, #270 ) ;
#393 = PERSON_AND_ORGANIZATION ( #32, #382 ) ;
#394 = DIRECTION ( 'NONE',  ( 0.000000000000000000, 0.000000000000000000, 1.000000000000000000 ) ) ;
#395 = DIRECTION ( 'NONE',  ( 0.000000000000000000, 0.000000000000000000, 1.000000000000000000 ) ) ;
#396 = EDGE_CURVE ( 'NONE', #170, #324, #392, .T. ) ;
#397 = CARTESIAN_POINT ( 'NONE',  ( 1052.000000000000000, 65.00000000000000000, 40.00000000000000000 ) ) ;
#398 = FACE_BOUND ( 'NONE', #327, .T. ) ;
#399 = EDGE_CURVE ( 'NONE', #499, #486, #226, .T. ) ;
#400 = VERTEX_POINT ( 'NONE', #269 ) ;
#401 = AXIS2_PLACEMENT_3D ( 'NONE', #403, #238, #1 ) ;
#402 = VERTEX_POINT ( 'NONE', #425 ) ;
#403 = CARTESIAN_POINT ( 'NONE',  ( 70.00000000000000000, 65.00000000000000000, 40.00000000000000000 ) ) ;
#404 = AXIS2_PLACEMENT_3D ( 'NONE', #73, #388, #109 ) ;
#405 = VERTEX_POINT ( 'NONE', #187 ) ;
#406 = ORIENTED_EDGE ( 'NONE', *, *, #126, .F. ) ;
#407 = CIRCLE ( 'NONE', #266, 9.999999999999786837 ) ;
#408 = CC_DESIGN_PERSON_AND_ORGANIZATION_ASSIGNMENT ( #157, #439, ( #88 ) ) ;
#409 = ORIENTED_EDGE ( 'NONE', *, *, #245, .T. ) ;
#410 = DIRECTION ( 'NONE',  ( -1.000000000000000000, 0.000000000000000000, 0.000000000000000000 ) ) ;
#411 = AXIS2_PLACEMENT_3D ( 'NONE', #208, #132, #289 ) ;
#412 = EDGE_LOOP ( 'NONE', ( #20, #52, #207, #221 ) ) ;
#413 = CARTESIAN_POINT ( 'NONE',  ( 1112.000000000000000, 10.00000000000000000, 0.000000000000000000 ) ) ;
#414 = CARTESIAN_POINT ( 'NONE',  ( 1112.000000000000000, 120.0000000000000000, 0.000000000000000000 ) ) ;
#415 = EDGE_CURVE ( 'NONE', #284, #324, #50, .T. ) ;
#416 = DIRECTION ( 'NONE',  ( 1.000000000000000000, 0.000000000000000000, 0.000000000000000000 ) ) ;
#417 = ORIENTED_EDGE ( 'NONE', *, *, #19, .F. ) ;
#418 = CARTESIAN_POINT ( 'NONE',  ( 100.0000000000000000, 65.00000000000000000, 40.00000000000000000 ) ) ;
#419 = ORIENTED_EDGE ( 'NONE', *, *, #47, .T. ) ;
#420 = LOCAL_TIME ( 11, 35, 38.00000000000000000, #314 ) ;
#421 = FACE_OUTER_BOUND ( 'NONE', #142, .T. ) ;
#422 = ADVANCED_FACE ( 'NONE', ( #315 ), #196, .T. ) ;
#423 = DIRECTION ( 'NONE',  ( 0.000000000000000000, 0.000000000000000000, 1.000000000000000000 ) ) ;
#424 = LINE ( 'NONE', #332, #134 ) ;
#425 = CARTESIAN_POINT ( 'NONE',  ( 1112.000000000000000, 0.000000000000000000, 40.00000000000000000 ) ) ;
#426 = CALENDAR_DATE ( 2026, 8, 4 ) ;
#427 = CARTESIAN_POINT ( 'NONE',  ( 0.000000000000000000, 10.00000000000000000, 40.00000000000000000 ) ) ;
#428 = AXIS2_PLACEMENT_3D ( 'NONE', #481, #76, #111 ) ;
#429 = DIRECTION ( 'NONE',  ( 0.000000000000000000, 0.000000000000000000, 1.000000000000000000 ) ) ;
#430 = DIRECTION ( 'NONE',  ( 0.000000000000000000, 0.000000000000000000, -1.000000000000000000 ) ) ;
#431 = VECTOR ( 'NONE', #264, 1000.000000000000000 ) ;
#432 = FACE_OUTER_BOUND ( 'NONE', #45, .T. ) ;
#433 = DIRECTION ( 'NONE',  ( 1.000000000000000000, 0.000000000000000000, 0.000000000000000000 ) ) ;
#434 = EDGE_CURVE ( 'NONE', #89, #13, #33, .T. ) ;
#435 = LINE ( 'NONE', #274, #219 ) ;
#436 = APPROVAL_ROLE ( '' ) ;
#437 = CIRCLE ( 'NONE', #428, 9.999999999999786837 ) ;
#438 = FACE_BOUND ( 'NONE', #239, .T. ) ;
#439 = PERSON_AND_ORGANIZATION_ROLE ( 'creator' ) ;
#440 = CYLINDRICAL_SURFACE ( 'NONE', #337, 10.00000000000000888 ) ;
#441 = EDGE_CURVE ( 'NONE', #402, #486, #517, .T. ) ;
#442 = EDGE_LOOP ( 'NONE', ( #501, #343, #406, #492 ) ) ;
#443 = EDGE_LOOP ( 'NONE', ( #523, #445, #260, #129 ) ) ;
#444 = LINE ( 'NONE', #199, #158 ) ;
#445 = ORIENTED_EDGE ( 'NONE', *, *, #441, .F. ) ;
#446 = ORIENTED_EDGE ( 'NONE', *, *, #126, .T. ) ;
#447 = ADVANCED_FACE ( 'NONE', ( #432 ), #114, .T. ) ;
#448 = ORIENTED_EDGE ( 'NONE', *, *, #237, .F. ) ;
#449 = CYLINDRICAL_SURFACE ( 'NONE', #404, 9.999999999999786837 ) ;
#450 = CIRCLE ( 'NONE', #401, 30.00000000000000000 ) ;
#451 = ORIENTED_EDGE ( 'NONE', *, *, #360, .F. ) ;
#452 = DIRECTION ( 'NONE',  ( 0.000000000000000000, 0.000000000000000000, 1.000000000000000000 ) ) ;
#453 = EDGE_CURVE ( 'NONE', #405, #43, #357, .T. ) ;
#454 = AXIS2_PLACEMENT_3D ( 'NONE', #456, #463, #213 ) ;
#455 = ORIENTED_EDGE ( 'NONE', *, *, #268, .T. ) ;
#456 = CARTESIAN_POINT ( 'NONE',  ( 70.00000000000000000, 65.00000000000000000, 40.00000000000000000 ) ) ;
#457 = ORIENTED_EDGE ( 'NONE', *, *, #453, .T. ) ;
#458 = CLOSED_SHELL ( 'NONE', ( #276, #334, #301, #139, #379, #160, #422, #82, #447, #462, #68, #308, #364, #349 ) ) ;
#459 = FACE_OUTER_BOUND ( 'NONE', #10, .T. ) ;
#460 = VECTOR ( 'NONE', #204, 1000.000000000000000 ) ;
#461 = ORIENTED_EDGE ( 'NONE', *, *, #250, .F. ) ;
#462 = ADVANCED_FACE ( 'NONE', ( #71 ), #507, .F. ) ;
#463 = DIRECTION ( 'NONE',  ( 0.000000000000000000, 0.000000000000000000, -1.000000000000000000 ) ) ;
#464 = CARTESIAN_POINT ( 'NONE',  ( 10.00000000000000000, 10.00000000000000000, 40.00000000000000000 ) ) ;
#465 = DIRECTION ( 'NONE',  ( 0.000000000000000000, -1.000000000000000000, 0.000000000000000000 ) ) ;
#466 = CARTESIAN_POINT ( 'NONE',  ( 1.734723475976804925E-15, 120.0000000000000000, 40.00000000000000000 ) ) ;
#467 = DIRECTION ( 'NONE',  ( 0.000000000000000000, 0.000000000000000000, -1.000000000000000000 ) ) ;
#468 = CARTESIAN_POINT ( 'NONE',  ( 10.00000000000000000, 120.0000000000000000, 40.00000000000000000 ) ) ;
#469 = DATE_AND_TIME ( #473, #524 ) ;
#470 = DIRECTION ( 'NONE',  ( 1.000000000000000000, 0.000000000000000000, 0.000000000000000000 ) ) ;
#471 = CIRCLE ( 'NONE', #291, 10.00000000000000888 ) ;
#472 = DIRECTION ( 'NONE',  ( -1.000000000000000000, 0.000000000000000000, 0.000000000000000000 ) ) ;
#473 = CALENDAR_DATE ( 2026, 8, 4 ) ;
#474 = EDGE_CURVE ( 'NONE', #140, #499, #307, .T. ) ;
#475 = AXIS2_PLACEMENT_3D ( 'NONE', #351, #28, #433 ) ;
#476 = DIRECTION ( 'NONE',  ( 0.000000000000000000, 0.000000000000000000, -1.000000000000000000 ) ) ;
#477 = DATE_TIME_ROLE ( 'classification_date' ) ;
#478 = CARTESIAN_POINT ( 'NONE',  ( 10.00000000000000000, 130.0000000000000000, 0.000000000000000000 ) ) ;
#479 = CARTESIAN_POINT ( 'NONE',  ( 1.734723475976804925E-15, 120.0000000000000000, 40.00000000000000000 ) ) ;
#480 = COORDINATED_UNIVERSAL_TIME_OFFSET ( 8, 0, .AHEAD. ) ;
#481 = CARTESIAN_POINT ( 'NONE',  ( 1112.000000000000000, 120.0000000000000000, 40.00000000000000000 ) ) ;
#482 = EDGE_CURVE ( 'NONE', #43, #89, #252, .T. ) ;
#483 = ORIENTED_EDGE ( 'NONE', *, *, #34, .F. ) ;
#484 = VECTOR ( 'NONE', #230, 1000.000000000000000 ) ;
#485 = CC_DESIGN_DATE_AND_TIME_ASSIGNMENT ( #469, #477, ( #102 ) ) ;
#486 = VERTEX_POINT ( 'NONE', #151 ) ;
#487 = CARTESIAN_POINT ( 'NONE',  ( 0.000000000000000000, 10.00000000000000000, 0.000000000000000000 ) ) ;
#488 = ORIENTED_EDGE ( 'NONE', *, *, #237, .T. ) ;
#489 = ORIENTED_EDGE ( 'NONE', *, *, #342, .F. ) ;
#490 = FACE_OUTER_BOUND ( 'NONE', #7, .T. ) ;
#491 = VECTOR ( 'NONE', #27, 1000.000000000000000 ) ;
#492 = ORIENTED_EDGE ( 'NONE', *, *, #205, .F. ) ;
#493 = PLANE ( 'NONE',  #31 ) ;
#494 = ORIENTED_EDGE ( 'NONE', *, *, #220, .F. ) ;
#495 = CARTESIAN_POINT ( 'NONE',  ( 1052.000000000000000, 65.00000000000000000, 40.00000000000000000 ) ) ;
#496 = VECTOR ( 'NONE', #249, 1000.000000000000000 ) ;
#497 = VERTEX_POINT ( 'NONE', #478 ) ;
#498 = CARTESIAN_POINT ( 'NONE',  ( 1052.000000000000000, 65.00000000000000000, 0.000000000000000000 ) ) ;
#499 = VERTEX_POINT ( 'NONE', #222 ) ;
#500 = DIRECTION ( 'NONE',  ( 0.000000000000000000, 0.000000000000000000, -1.000000000000000000 ) ) ;
#501 = ORIENTED_EDGE ( 'NONE', *, *, #130, .T. ) ;
#502 = CARTESIAN_POINT ( 'NONE',  ( 1112.000000000000000, 120.0000000000000000, 40.00000000000000000 ) ) ;
#503 = CIRCLE ( 'NONE', #74, 30.00000000000000000 ) ;
#504 = EDGE_LOOP ( 'NONE', ( #3, #448 ) ) ;
#505 = CC_DESIGN_PERSON_AND_ORGANIZATION_ASSIGNMENT ( #393, #513, ( #197 ) ) ;
#506 = DIRECTION ( 'NONE',  ( -1.000000000000000000, 0.000000000000000000, 0.000000000000000000 ) ) ;
#507 = PLANE ( 'NONE',  #365 ) ;
#508 = SHAPE_DEFINITION_REPRESENTATION ( #84, #511 ) ;
#509 = DIRECTION ( 'NONE',  ( 0.000000000000000000, 0.000000000000000000, -1.000000000000000000 ) ) ;
#510 = CARTESIAN_POINT ( 'NONE',  ( 1112.000000000000000, 0.000000000000000000, 40.00000000000000000 ) ) ;
#511 = ADVANCED_BREP_SHAPE_REPRESENTATION ( 'LINK_\X2\9ed88ba4\X0\_sldprt', ( #152, #475 ), #41 ) ;
#512 = EDGE_CURVE ( 'NONE', #89, #525, #385, .T. ) ;
#513 = PERSON_AND_ORGANIZATION_ROLE ( 'design_supplier' ) ;
#514 = CARTESIAN_POINT ( 'NONE',  ( 10.00000000000000000, 0.000000000000000000, 40.00000000000000000 ) ) ;
#515 = APPROVAL_STATUS ( 'not_yet_approved' ) ;
#516 = DIRECTION ( 'NONE',  ( -1.000000000000000000, 0.000000000000000000, 0.000000000000000000 ) ) ;
#517 = LINE ( 'NONE', #510, #93 ) ;
#518 = DATE_TIME_ROLE ( 'creation_date' ) ;
#519 = EDGE_CURVE ( 'NONE', #405, #87, #21, .T. ) ;
#520 = APPROVAL_ROLE ( '' ) ;
#521 = VECTOR ( 'NONE', #381, 1000.000000000000000 ) ;
#522 = CC_DESIGN_DATE_AND_TIME_ASSIGNMENT ( #228, #518, ( #88 ) ) ;
#523 = ORIENTED_EDGE ( 'NONE', *, *, #399, .T. ) ;
#524 = LOCAL_TIME ( 11, 35, 38.00000000000000000, #150 ) ;
#525 = VERTEX_POINT ( 'NONE', #313 ) ;
ENDSEC;
END-ISO-10303-21;
