ISO-10303-21;
HEADER;
FILE_DESCRIPTION (( 'STEP AP203' ),
    '1' );
FILE_NAME ('piston-kazan_默认_sldprt.STEP',
    '2026-04-08T03:35:46',
    ( '' ),
    ( '' ),
    'SwSTEP 2.0',
    'SolidWorks 2022',
    '' );
FILE_SCHEMA (( 'CONFIG_CONTROL_DESIGN' ));
ENDSEC;

DATA;
#1 = FACE_OUTER_BOUND ( 'NONE', #365, .T. ) ;
#2 = DIRECTION ( 'NONE',  ( 1.000000000000000000, 0.000000000000000000, 0.000000000000000000 ) ) ;
#3 = CIRCLE ( 'NONE', #356, 30.00000000000000000 ) ;
#4 = CARTESIAN_POINT ( 'NONE',  ( 90.00000000000000000, 3.673940397442059178E-15, -80.00000000000000000 ) ) ;
#5 = CARTESIAN_POINT ( 'NONE',  ( 90.00000000000000000, 0.000000000000000000, -50.00000000000000000 ) ) ;
#6 = AXIS2_PLACEMENT_3D ( 'NONE', #146, #194, #363 ) ;
#7 = DIRECTION ( 'NONE',  ( 1.000000000000000000, 0.000000000000000000, 0.000000000000000000 ) ) ;
#8 = AXIS2_PLACEMENT_3D ( 'NONE', #55, #353, #7 ) ;
#9 = CARTESIAN_POINT ( 'NONE',  ( 90.00000000000000000, 0.000000000000000000, -20.00000000000000355 ) ) ;
#10 = EDGE_LOOP ( 'NONE', ( #239, #171, #461, #328, #498, #277 ) ) ;
#11 = ORIENTED_EDGE ( 'NONE', *, *, #183, .T. ) ;
#12 = ADVANCED_BREP_SHAPE_REPRESENTATION ( 'piston-kazan_\X2\9ed88ba4\X0\_sldprt', ( #438, #542 ), #81 ) ;
#13 = LINE ( 'NONE', #106, #440 ) ;
#14 = EDGE_CURVE ( 'NONE', #29, #424, #433, .T. ) ;
#15 = DESIGN_CONTEXT ( 'detailed design', #108, 'design' ) ;
#16 = ADVANCED_FACE ( 'NONE', ( #158 ), #110, .T. ) ;
#17 = PLANE ( 'NONE',  #24 ) ;
#18 = ORIENTED_EDGE ( 'NONE', *, *, #280, .F. ) ;
#19 = FACE_BOUND ( 'NONE', #341, .T. ) ;
#20 = DIRECTION ( 'NONE',  ( -1.000000000000000000, 0.000000000000000000, 0.000000000000000000 ) ) ;
#21 = CARTESIAN_POINT ( 'NONE',  ( 90.00000000000000000, -10.00000000000000000, -11.27016653792585998 ) ) ;
#22 = ORIENTED_EDGE ( 'NONE', *, *, #181, .F. ) ;
#23 = EDGE_CURVE ( 'NONE', #553, #39, #13, .T. ) ;
#24 = AXIS2_PLACEMENT_3D ( 'NONE', #49, #189, #540 ) ;
#25 = DIRECTION ( 'NONE',  ( -1.000000000000000000, 0.000000000000000000, 0.000000000000000000 ) ) ;
#26 = CIRCLE ( 'NONE', #151, 45.00000000000000000 ) ;
#27 = LINE ( 'NONE', #21, #367 ) ;
#28 = ORIENTED_EDGE ( 'NONE', *, *, #463, .T. ) ;
#29 = VERTEX_POINT ( 'NONE', #366 ) ;
#30 = DATE_AND_TIME ( #416, #145 ) ;
#31 = ORIENTED_EDGE ( 'NONE', *, *, #464, .T. ) ;
#32 = VECTOR ( 'NONE', #509, 1000.000000000000000 ) ;
#33 = ORIENTED_EDGE ( 'NONE', *, *, #224, .T. ) ;
#34 = DIRECTION ( 'NONE',  ( 1.000000000000000000, 0.000000000000000000, 0.000000000000000000 ) ) ;
#35 = CARTESIAN_POINT ( 'NONE',  ( 45.00000000000000000, 5.510910596163089556E-15, 725.0000000000000000 ) ) ;
#36 = VERTEX_POINT ( 'NONE', #201 ) ;
#37 = CARTESIAN_POINT ( 'NONE',  ( 90.00000000000000000, 10.00000000000000000, 0.000000000000000000 ) ) ;
#38 = CARTESIAN_POINT ( 'NONE',  ( 0.000000000000000000, 0.000000000000000000, 0.000000000000000000 ) ) ;
#39 = VERTEX_POINT ( 'NONE', #232 ) ;
#40 = EDGE_CURVE ( 'NONE', #402, #236, #516, .T. ) ;
#41 = ADVANCED_FACE ( 'NONE', ( #64 ), #361, .F. ) ;
#42 = AXIS2_PLACEMENT_3D ( 'NONE', #139, #222, #143 ) ;
#43 = DIRECTION ( 'NONE',  ( 1.000000000000000000, 0.000000000000000000, 0.000000000000000000 ) ) ;
#44 = CARTESIAN_POINT ( 'NONE',  ( 90.00000000000000000, -10.00000000000000000, -11.27016653792585998 ) ) ;
#45 = FACE_BOUND ( 'NONE', #209, .T. ) ;
#46 = CARTESIAN_POINT ( 'NONE',  ( -90.00000000000000000, 0.000000000000000000, -50.00000000000000000 ) ) ;
#47 = DIRECTION ( 'NONE',  ( -1.000000000000000000, 0.000000000000000000, 0.000000000000000000 ) ) ;
#48 = CIRCLE ( 'NONE', #155, 30.00000000000000000 ) ;
#49 = CARTESIAN_POINT ( 'NONE',  ( 0.000000000000000000, 0.000000000000000000, 0.000000000000000000 ) ) ;
#50 = AXIS2_PLACEMENT_3D ( 'NONE', #534, #355, #313 ) ;
#51 = DIRECTION ( 'NONE',  ( 0.000000000000000000, 0.000000000000000000, -1.000000000000000000 ) ) ;
#52 = LINE ( 'NONE', #491, #420 ) ;
#53 = ORIENTED_EDGE ( 'NONE', *, *, #502, .F. ) ;
#54 = FACE_OUTER_BOUND ( 'NONE', #161, .T. ) ;
#55 = CARTESIAN_POINT ( 'NONE',  ( 0.000000000000000000, 0.000000000000000000, 725.0000000000000000 ) ) ;
#56 = CARTESIAN_POINT ( 'NONE',  ( 0.000000000000000000, 0.000000000000000000, 125.0000000000000000 ) ) ;
#57 = CARTESIAN_POINT ( 'NONE',  ( 0.000000000000000000, 0.000000000000000000, 725.0000000000000000 ) ) ;
#58 = EDGE_CURVE ( 'NONE', #371, #281, #444, .T. ) ;
#59 = ADVANCED_FACE ( 'NONE', ( #54 ), #407, .F. ) ;
#60 = APPROVAL_DATE_TIME ( #532, #300 ) ;
#61 = DIRECTION ( 'NONE',  ( 0.000000000000000000, 0.000000000000000000, 1.000000000000000000 ) ) ;
#62 = AXIS2_PLACEMENT_3D ( 'NONE', #185, #141, #437 ) ;
#63 = DIRECTION ( 'NONE',  ( -1.000000000000000000, 0.000000000000000000, 0.000000000000000000 ) ) ;
#64 = FACE_OUTER_BOUND ( 'NONE', #168, .T. ) ;
#65 = VERTEX_POINT ( 'NONE', #496 ) ;
#66 = ORIENTED_EDGE ( 'NONE', *, *, #500, .F. ) ;
#67 = CYLINDRICAL_SURFACE ( 'NONE', #130, 35.00000000000000000 ) ;
#68 = ORIENTED_EDGE ( 'NONE', *, *, #76, .F. ) ;
#69 = EDGE_CURVE ( 'NONE', #196, #206, #285, .T. ) ;
#70 = AXIS2_PLACEMENT_3D ( 'NONE', #346, #559, #182 ) ;
#71 = AXIS2_PLACEMENT_3D ( 'NONE', #46, #430, #256 ) ;
#72 = ORIENTED_EDGE ( 'NONE', *, *, #513, .F. ) ;
#73 = CARTESIAN_POINT ( 'NONE',  ( 0.000000000000000000, 0.000000000000000000, 0.000000000000000000 ) ) ;
#74 = ORIENTED_EDGE ( 'NONE', *, *, #14, .F. ) ;
#75 = DATE_AND_TIME ( #122, #410 ) ;
#76 = EDGE_CURVE ( 'NONE', #157, #331, #449, .T. ) ;
#77 = APPROVAL ( #332, '未指定' ) ;
#78 = LINE ( 'NONE', #327, #210 ) ;
#79 = ORIENTED_EDGE ( 'NONE', *, *, #487, .T. ) ;
#80 = COORDINATED_UNIVERSAL_TIME_OFFSET ( 8, 0, .AHEAD. ) ;
#81 =( GEOMETRIC_REPRESENTATION_CONTEXT ( 3 ) GLOBAL_UNCERTAINTY_ASSIGNED_CONTEXT ( ( #233 ) ) GLOBAL_UNIT_ASSIGNED_CONTEXT ( ( #126, #339, #248 ) ) REPRESENTATION_CONTEXT ( 'NONE', 'WORKASPACE' ) );
#82 = CARTESIAN_POINT ( 'NONE',  ( 0.000000000000000000, 0.000000000000000000, 0.000000000000000000 ) ) ;
#83 = ORIENTED_EDGE ( 'NONE', *, *, #375, .F. ) ;
#84 = DATE_TIME_ROLE ( 'creation_date' ) ;
#85 = DIRECTION ( 'NONE',  ( 1.000000000000000000, 0.000000000000000000, 0.000000000000000000 ) ) ;
#86 = CC_DESIGN_DATE_AND_TIME_ASSIGNMENT ( #75, #84, ( #244 ) ) ;
#87 = ORIENTED_EDGE ( 'NONE', *, *, #436, .F. ) ;
#88 = DIRECTION ( 'NONE',  ( 0.000000000000000000, 0.000000000000000000, -1.000000000000000000 ) ) ;
#89 = FACE_OUTER_BOUND ( 'NONE', #324, .T. ) ;
#90 = CARTESIAN_POINT ( 'NONE',  ( 0.000000000000000000, 0.000000000000000000, 0.000000000000000000 ) ) ;
#91 = FACE_OUTER_BOUND ( 'NONE', #10, .T. ) ;
#92 = AXIS2_PLACEMENT_3D ( 'NONE', #225, #265, #388 ) ;
#93 = CARTESIAN_POINT ( 'NONE',  ( 45.00000000000000000, 5.510910596163089556E-15, 0.000000000000000000 ) ) ;
#94 = DIRECTION ( 'NONE',  ( 1.000000000000000000, 0.000000000000000000, 0.000000000000000000 ) ) ;
#95 = DIRECTION ( 'NONE',  ( 0.000000000000000000, 0.000000000000000000, -1.000000000000000000 ) ) ;
#96 = APPLICATION_CONTEXT ( 'configuration controlled 3d designs of mechanical parts and assemblies' ) ;
#97 = CC_DESIGN_APPROVAL ( #77, ( #244 ) ) ;
#98 = VECTOR ( 'NONE', #216, 1000.000000000000000 ) ;
#99 = ORIENTED_EDGE ( 'NONE', *, *, #147, .F. ) ;
#100 = FACE_OUTER_BOUND ( 'NONE', #376, .T. ) ;
#101 = CARTESIAN_POINT ( 'NONE',  ( -45.00000000000000000, 0.000000000000000000, 725.0000000000000000 ) ) ;
#102 = EDGE_CURVE ( 'NONE', #424, #29, #560, .T. ) ;
#103 = VERTEX_POINT ( 'NONE', #390 ) ;
#104 = APPROVAL_ROLE ( '' ) ;
#105 = DIRECTION ( 'NONE',  ( 1.000000000000000000, 0.000000000000000000, 0.000000000000000000 ) ) ;
#106 = CARTESIAN_POINT ( 'NONE',  ( -90.00000000000000000, 10.00000000000000000, 0.000000000000000000 ) ) ;
#107 = VECTOR ( 'NONE', #47, 1000.000000000000000 ) ;
#108 = APPLICATION_CONTEXT ( 'configuration controlled 3d designs of mechanical parts and assemblies' ) ;
#109 = LINE ( 'NONE', #315, #384 ) ;
#110 = CYLINDRICAL_SURFACE ( 'NONE', #268, 40.00000000000000000 ) ;
#111 = CARTESIAN_POINT ( 'NONE',  ( 90.00000000000000000, 10.00000000000000000, 0.000000000000000000 ) ) ;
#112 = ORIENTED_EDGE ( 'NONE', *, *, #463, .F. ) ;
#113 = DIRECTION ( 'NONE',  ( -1.000000000000000000, 0.000000000000000000, 0.000000000000000000 ) ) ;
#114 = ORIENTED_EDGE ( 'NONE', *, *, #298, .T. ) ;
#115 = AXIS2_PLACEMENT_3D ( 'NONE', #395, #319, #360 ) ;
#116 = DIRECTION ( 'NONE',  ( 0.000000000000000000, 0.000000000000000000, -1.000000000000000000 ) ) ;
#117 = EDGE_LOOP ( 'NONE', ( #112, #160 ) ) ;
#118 = CALENDAR_DATE ( 2026, 8, 4 ) ;
#119 = AXIS2_PLACEMENT_3D ( 'NONE', #305, #218, #520 ) ;
#120 = VECTOR ( 'NONE', #88, 1000.000000000000000 ) ;
#121 = EDGE_LOOP ( 'NONE', ( #28, #415, #72, #508 ) ) ;
#122 = CALENDAR_DATE ( 2026, 8, 4 ) ;
#123 = EDGE_CURVE ( 'NONE', #65, #506, #133, .T. ) ;
#124 = EDGE_CURVE ( 'NONE', #331, #281, #531, .T. ) ;
#125 = ORIENTED_EDGE ( 'NONE', *, *, #521, .T. ) ;
#126 =( LENGTH_UNIT ( ) NAMED_UNIT ( * ) SI_UNIT ( .MILLI., .METRE. ) );
#127 = DIRECTION ( 'NONE',  ( 1.000000000000000000, 0.000000000000000000, 0.000000000000000000 ) ) ;
#128 = EDGE_LOOP ( 'NONE', ( #241, #83, #368, #257 ) ) ;
#129 = PERSON_AND_ORGANIZATION ( #347, #199 ) ;
#130 = AXIS2_PLACEMENT_3D ( 'NONE', #202, #391, #264 ) ;
#131 = EDGE_CURVE ( 'NONE', #206, #36, #26, .T. ) ;
#132 = CLOSED_SHELL ( 'NONE', ( #317, #223, #536, #188, #418, #316, #382, #480, #482, #59, #374, #538, #561, #519, #16, #274, #41 ) ) ;
#133 = LINE ( 'NONE', #473, #98 ) ;
#134 = EDGE_LOOP ( 'NONE', ( #154, #490, #250, #125, #458, #114 ) ) ;
#135 = APPROVAL_DATE_TIME ( #170, #345 ) ;
#136 = CARTESIAN_POINT ( 'NONE',  ( 0.000000000000000000, 0.000000000000000000, 125.0000000000000000 ) ) ;
#137 = PLANE ( 'NONE',  #321 ) ;
#138 = PLANE ( 'NONE',  #481 ) ;
#139 = CARTESIAN_POINT ( 'NONE',  ( 0.000000000000000000, 0.000000000000000000, 0.000000000000000000 ) ) ;
#140 = CC_DESIGN_APPROVAL ( #300, ( #162 ) ) ;
#141 = DIRECTION ( 'NONE',  ( 0.000000000000000000, 0.000000000000000000, 1.000000000000000000 ) ) ;
#142 = CARTESIAN_POINT ( 'NONE',  ( 90.00000000000000000, 10.00000000000000000, 0.000000000000000000 ) ) ;
#143 = DIRECTION ( 'NONE',  ( 1.000000000000000000, 0.000000000000000000, 0.000000000000000000 ) ) ;
#144 = DIRECTION ( 'NONE',  ( -1.000000000000000000, 0.000000000000000000, 0.000000000000000000 ) ) ;
#145 = LOCAL_TIME ( 11, 35, 46.00000000000000000, #246 ) ;
#146 = CARTESIAN_POINT ( 'NONE',  ( 0.000000000000000000, 0.000000000000000000, 725.0000000000000000 ) ) ;
#147 = EDGE_CURVE ( 'NONE', #545, #424, #558, .T. ) ;
#148 = CIRCLE ( 'NONE', #459, 39.99999999999999289 ) ;
#149 = CARTESIAN_POINT ( 'NONE',  ( 90.00000000000000000, 10.00000000000000000, 0.000000000000000000 ) ) ;
#150 = EDGE_CURVE ( 'NONE', #402, #36, #351, .T. ) ;
#151 = AXIS2_PLACEMENT_3D ( 'NONE', #82, #297, #522 ) ;
#152 = ORIENTED_EDGE ( 'NONE', *, *, #124, .F. ) ;
#153 = ORIENTED_EDGE ( 'NONE', *, *, #131, .F. ) ;
#154 = ORIENTED_EDGE ( 'NONE', *, *, #448, .T. ) ;
#155 = AXIS2_PLACEMENT_3D ( 'NONE', #501, #457, #288 ) ;
#156 = DIRECTION ( 'NONE',  ( -1.000000000000000000, 0.000000000000000000, 0.000000000000000000 ) ) ;
#157 = VERTEX_POINT ( 'NONE', #4 ) ;
#158 = FACE_OUTER_BOUND ( 'NONE', #397, .T. ) ;
#159 = AXIS2_PLACEMENT_3D ( 'NONE', #290, #469, #253 ) ;
#160 = ORIENTED_EDGE ( 'NONE', *, *, #443, .F. ) ;
#161 = EDGE_LOOP ( 'NONE', ( #153, #283, #230, #338, #427 ) ) ;
#162 = SECURITY_CLASSIFICATION ( '', '', #284 ) ;
#163 = COORDINATED_UNIVERSAL_TIME_OFFSET ( 8, 0, .AHEAD. ) ;
#164 = EDGE_CURVE ( 'NONE', #236, #217, #476, .T. ) ;
#165 = EDGE_CURVE ( 'NONE', #39, #456, #514, .T. ) ;
#166 = ORIENTED_EDGE ( 'NONE', *, *, #14, .T. ) ;
#167 = VECTOR ( 'NONE', #20, 1000.000000000000000 ) ;
#168 = EDGE_LOOP ( 'NONE', ( #68, #409, #552, #152 ) ) ;
#169 = ORIENTED_EDGE ( 'NONE', *, *, #280, .T. ) ;
#170 = DATE_AND_TIME ( #118, #240 ) ;
#171 = ORIENTED_EDGE ( 'NONE', *, *, #164, .T. ) ;
#172 = APPLICATION_PROTOCOL_DEFINITION ( 'international standard', 'config_control_design', 1994, #96 ) ;
#173 = PRODUCT_DEFINITION_FORMATION_WITH_SPECIFIED_SOURCE ( '任何', '', #401, .NOT_KNOWN. ) ;
#174 = CIRCLE ( 'NONE', #262, 35.00000000000000000 ) ;
#175 = CARTESIAN_POINT ( 'NONE',  ( 90.00000000000000000, -10.00000000000000000, 0.000000000000000000 ) ) ;
#176 = PLANE ( 'NONE',  #119 ) ;
#177 = DIRECTION ( 'NONE',  ( 0.000000000000000000, 0.000000000000000000, -1.000000000000000000 ) ) ;
#178 = CYLINDRICAL_SURFACE ( 'NONE', #70, 45.00000000000000000 ) ;
#179 = EDGE_CURVE ( 'NONE', #503, #198, #304, .T. ) ;
#180 = DIRECTION ( 'NONE',  ( 1.000000000000000000, 0.000000000000000000, 0.000000000000000000 ) ) ;
#181 = EDGE_CURVE ( 'NONE', #515, #217, #412, .T. ) ;
#182 = DIRECTION ( 'NONE',  ( -1.000000000000000000, 0.000000000000000000, 0.000000000000000000 ) ) ;
#183 = EDGE_CURVE ( 'NONE', #103, #545, #174, .T. ) ;
#184 = AXIS2_PLACEMENT_3D ( 'NONE', #528, #322, #362 ) ;
#185 = CARTESIAN_POINT ( 'NONE',  ( 0.000000000000000000, 0.000000000000000000, 125.0000000000000000 ) ) ;
#186 = LINE ( 'NONE', #385, #107 ) ;
#187 = CYLINDRICAL_SURFACE ( 'NONE', #292, 30.00000000000000000 ) ;
#188 = ADVANCED_FACE ( 'NONE', ( #518 ), #138, .F. ) ;
#189 = DIRECTION ( 'NONE',  ( 0.000000000000000000, 0.000000000000000000, 1.000000000000000000 ) ) ;
#190 = CARTESIAN_POINT ( 'NONE',  ( 90.00000000000000000, 0.000000000000000000, -50.00000000000000000 ) ) ;
#191 = AXIS2_PLACEMENT_3D ( 'NONE', #549, #127, #116 ) ;
#192 = PLANE ( 'NONE',  #115 ) ;
#193 = AXIS2_PLACEMENT_3D ( 'NONE', #269, #323, #493 ) ;
#194 = DIRECTION ( 'NONE',  ( 0.000000000000000000, 0.000000000000000000, 1.000000000000000000 ) ) ;
#195 = CARTESIAN_POINT ( 'NONE',  ( -43.87482193696055077, -10.00000000000000000, 0.000000000000000000 ) ) ;
#196 = VERTEX_POINT ( 'NONE', #434 ) ;
#197 = FACE_OUTER_BOUND ( 'NONE', #121, .T. ) ;
#198 = VERTEX_POINT ( 'NONE', #44 ) ;
#199 = ORGANIZATION ( '未指定', '未指定', '' ) ;
#200 = FACE_OUTER_BOUND ( 'NONE', #128, .T. ) ;
#201 = CARTESIAN_POINT ( 'NONE',  ( -45.00000000000000000, 0.000000000000000000, 0.000000000000000000 ) ) ;
#202 = CARTESIAN_POINT ( 'NONE',  ( 0.000000000000000000, 0.000000000000000000, 125.0000000000000000 ) ) ;
#203 = ORIENTED_EDGE ( 'NONE', *, *, #448, .F. ) ;
#204 = EDGE_CURVE ( 'NONE', #36, #413, #229, .T. ) ;
#205 = PRODUCT_RELATED_PRODUCT_CATEGORY ( 'detail', '', ( #401 ) ) ;
#206 = VERTEX_POINT ( 'NONE', #423 ) ;
#207 = CALENDAR_DATE ( 2026, 8, 4 ) ;
#208 = CARTESIAN_POINT ( 'NONE',  ( 90.00000000000000000, 10.00000000000000000, 0.000000000000000000 ) ) ;
#209 = EDGE_LOOP ( 'NONE', ( #381, #404 ) ) ;
#210 = VECTOR ( 'NONE', #411, 1000.000000000000000 ) ;
#211 = ORIENTED_EDGE ( 'NONE', *, *, #181, .T. ) ;
#212 = LINE ( 'NONE', #380, #472 ) ;
#213 = ORIENTED_EDGE ( 'NONE', *, *, #436, .T. ) ;
#214 = COORDINATED_UNIVERSAL_TIME_OFFSET ( 8, 0, .AHEAD. ) ;
#215 = VECTOR ( 'NONE', #485, 1000.000000000000000 ) ;
#216 = DIRECTION ( 'NONE',  ( 0.000000000000000000, 0.000000000000000000, 1.000000000000000000 ) ) ;
#217 = VERTEX_POINT ( 'NONE', #93 ) ;
#218 = DIRECTION ( 'NONE',  ( 0.000000000000000000, 1.000000000000000000, 0.000000000000000000 ) ) ;
#219 = CIRCLE ( 'NONE', #42, 45.00000000000000000 ) ;
#220 = AXIS2_PLACEMENT_3D ( 'NONE', #57, #61, #85 ) ;
#221 = CARTESIAN_POINT ( 'NONE',  ( -45.00000000000000000, 0.000000000000000000, 725.0000000000000000 ) ) ;
#222 = DIRECTION ( 'NONE',  ( 0.000000000000000000, 0.000000000000000000, 1.000000000000000000 ) ) ;
#223 = ADVANCED_FACE ( 'NONE', ( #1 ), #349, .F. ) ;
#224 = EDGE_CURVE ( 'NONE', #413, #515, #235, .T. ) ;
#225 = CARTESIAN_POINT ( 'NONE',  ( 0.000000000000000000, 0.000000000000000000, 0.000000000000000000 ) ) ;
#226 = CARTESIAN_POINT ( 'NONE',  ( -90.00000000000000000, 0.000000000000000000, -50.00000000000000000 ) ) ;
#227 = CARTESIAN_POINT ( 'NONE',  ( -90.00000000000000000, 10.00000000000000000, -11.27016653792584044 ) ) ;
#228 = AXIS2_PLACEMENT_3D ( 'NONE', #494, #278, #276 ) ;
#229 = CIRCLE ( 'NONE', #92, 45.00000000000000000 ) ;
#230 = ORIENTED_EDGE ( 'NONE', *, *, #165, .T. ) ;
#231 = EDGE_LOOP ( 'NONE', ( #421, #11 ) ) ;
#232 = CARTESIAN_POINT ( 'NONE',  ( -90.00000000000000000, 10.00000000000000000, 0.000000000000000000 ) ) ;
#233 = UNCERTAINTY_MEASURE_WITH_UNIT (LENGTH_MEASURE( 1.000000000000000082E-05 ), #126, 'distance_accuracy_value', 'NONE');
#234 = CARTESIAN_POINT ( 'NONE',  ( 90.00000000000000000, 0.000000000000000000, -50.00000000000000000 ) ) ;
#235 = CIRCLE ( 'NONE', #159, 45.00000000000000000 ) ;
#236 = VERTEX_POINT ( 'NONE', #35 ) ;
#237 = PLANE ( 'NONE',  #228 ) ;
#238 = DIRECTION ( 'NONE',  ( 0.000000000000000000, 0.000000000000000000, 1.000000000000000000 ) ) ;
#239 = ORIENTED_EDGE ( 'NONE', *, *, #273, .F. ) ;
#240 = LOCAL_TIME ( 11, 35, 46.00000000000000000, #214 ) ;
#241 = ORIENTED_EDGE ( 'NONE', *, *, #261, .F. ) ;
#242 = CC_DESIGN_PERSON_AND_ORGANIZATION_ASSIGNMENT ( #296, #511, ( #173 ) ) ;
#243 = AXIS2_PLACEMENT_3D ( 'NONE', #190, #113, #272 ) ;
#244 = PRODUCT_DEFINITION ( '未知', '', #173, #15 ) ;
#245 = ORIENTED_EDGE ( 'NONE', *, *, #102, .F. ) ;
#246 = COORDINATED_UNIVERSAL_TIME_OFFSET ( 8, 0, .AHEAD. ) ;
#247 = ORIENTED_EDGE ( 'NONE', *, *, #337, .F. ) ;
#248 =( NAMED_UNIT ( * ) SI_UNIT ( $, .STERADIAN. ) SOLID_ANGLE_UNIT ( ) );
#249 = CARTESIAN_POINT ( 'NONE',  ( -90.00000000000000000, -10.00000000000000000, 0.000000000000000000 ) ) ;
#250 = ORIENTED_EDGE ( 'NONE', *, *, #179, .F. ) ;
#251 = VECTOR ( 'NONE', #465, 1000.000000000000000 ) ;
#252 = DATE_AND_TIME ( #207, #267 ) ;
#253 = DIRECTION ( 'NONE',  ( 1.000000000000000000, 0.000000000000000000, 0.000000000000000000 ) ) ;
#254 = ORIENTED_EDGE ( 'NONE', *, *, #261, .T. ) ;
#255 = PERSON_AND_ORGANIZATION_ROLE ( 'classification_officer' ) ;
#256 = DIRECTION ( 'NONE',  ( 0.000000000000000000, 0.000000000000000000, -1.000000000000000000 ) ) ;
#257 = ORIENTED_EDGE ( 'NONE', *, *, #102, .T. ) ;
#258 = DIRECTION ( 'NONE',  ( 0.000000000000000000, 0.000000000000000000, 1.000000000000000000 ) ) ;
#259 = PLANE ( 'NONE',  #392 ) ;
#260 = CC_DESIGN_PERSON_AND_ORGANIZATION_ASSIGNMENT ( #422, #462, ( #244 ) ) ;
#261 = EDGE_CURVE ( 'NONE', #103, #29, #212, .T. ) ;
#262 = AXIS2_PLACEMENT_3D ( 'NONE', #136, #258, #348 ) ;
#263 = DIRECTION ( 'NONE',  ( 0.000000000000000000, 0.000000000000000000, 1.000000000000000000 ) ) ;
#264 = DIRECTION ( 'NONE',  ( 1.000000000000000000, 0.000000000000000000, 0.000000000000000000 ) ) ;
#265 = DIRECTION ( 'NONE',  ( 0.000000000000000000, 0.000000000000000000, 1.000000000000000000 ) ) ;
#266 = DIRECTION ( 'NONE',  ( 0.000000000000000000, 0.000000000000000000, -1.000000000000000000 ) ) ;
#267 = LOCAL_TIME ( 11, 35, 46.00000000000000000, #80 ) ;
#268 = AXIS2_PLACEMENT_3D ( 'NONE', #527, #25, #238 ) ;
#269 = CARTESIAN_POINT ( 'NONE',  ( 0.000000000000000000, 0.000000000000000000, 725.0000000000000000 ) ) ;
#270 = PLANE ( 'NONE',  #554 ) ;
#271 = DIRECTION ( 'NONE',  ( 1.000000000000000000, 0.000000000000000000, 0.000000000000000000 ) ) ;
#272 = DIRECTION ( 'NONE',  ( 0.000000000000000000, 0.000000000000000000, 1.000000000000000000 ) ) ;
#273 = EDGE_CURVE ( 'NONE', #236, #402, #544, .T. ) ;
#274 = ADVANCED_FACE ( 'NONE', ( #100 ), #270, .F. ) ;
#275 = CIRCLE ( 'NONE', #373, 39.99999999999999289 ) ;
#276 = DIRECTION ( 'NONE',  ( 0.000000000000000000, 0.000000000000000000, -1.000000000000000000 ) ) ;
#277 = ORIENTED_EDGE ( 'NONE', *, *, #150, .F. ) ;
#278 = DIRECTION ( 'NONE',  ( 1.000000000000000000, 0.000000000000000000, 0.000000000000000000 ) ) ;
#279 = DIRECTION ( 'NONE',  ( -1.000000000000000000, 0.000000000000000000, 0.000000000000000000 ) ) ;
#280 = EDGE_CURVE ( 'NONE', #65, #553, #526, .T. ) ;
#281 = VERTEX_POINT ( 'NONE', #311 ) ;
#282 = CIRCLE ( 'NONE', #191, 30.00000000000000000 ) ;
#283 = ORIENTED_EDGE ( 'NONE', *, *, #562, .T. ) ;
#284 = SECURITY_CLASSIFICATION_LEVEL ( 'unclassified' ) ;
#285 = CIRCLE ( 'NONE', #333, 45.00000000000000000 ) ;
#286 = DIRECTION ( 'NONE',  ( -1.000000000000000000, 0.000000000000000000, 0.000000000000000000 ) ) ;
#287 = ORIENTED_EDGE ( 'NONE', *, *, #502, .T. ) ;
#288 = DIRECTION ( 'NONE',  ( 0.000000000000000000, 0.000000000000000000, -1.000000000000000000 ) ) ;
#289 = EDGE_LOOP ( 'NONE', ( #335, #467 ) ) ;
#290 = CARTESIAN_POINT ( 'NONE',  ( 0.000000000000000000, 0.000000000000000000, 0.000000000000000000 ) ) ;
#291 = ORIENTED_EDGE ( 'NONE', *, *, #357, .F. ) ;
#292 = AXIS2_PLACEMENT_3D ( 'NONE', #234, #533, #442 ) ;
#293 = DIRECTION ( 'NONE',  ( 0.000000000000000000, 0.000000000000000000, 1.000000000000000000 ) ) ;
#294 = DIRECTION ( 'NONE',  ( 0.000000000000000000, 0.000000000000000000, -1.000000000000000000 ) ) ;
#295 = ORIENTED_EDGE ( 'NONE', *, *, #562, .F. ) ;
#296 = PERSON_AND_ORGANIZATION ( #347, #199 ) ;
#297 = DIRECTION ( 'NONE',  ( 0.000000000000000000, 0.000000000000000000, 1.000000000000000000 ) ) ;
#298 = EDGE_CURVE ( 'NONE', #413, #456, #488, .T. ) ;
#299 = DIRECTION ( 'NONE',  ( 0.000000000000000000, 0.000000000000000000, -1.000000000000000000 ) ) ;
#300 = APPROVAL ( #359, '未指定' ) ;
#301 = DIRECTION ( 'NONE',  ( 1.000000000000000000, 0.000000000000000000, 0.000000000000000000 ) ) ;
#302 = CARTESIAN_POINT ( 'NONE',  ( 0.000000000000000000, 0.000000000000000000, 125.0000000000000000 ) ) ;
#303 = VECTOR ( 'NONE', #279, 1000.000000000000000 ) ;
#304 = LINE ( 'NONE', #175, #460 ) ;
#305 = CARTESIAN_POINT ( 'NONE',  ( 90.00000000000000000, -10.00000000000000000, 0.000000000000000000 ) ) ;
#306 = CARTESIAN_POINT ( 'NONE',  ( -90.00000000000000000, 0.000000000000000000, -50.00000000000000000 ) ) ;
#307 = LOCAL_TIME ( 11, 35, 46.00000000000000000, #308 ) ;
#308 = COORDINATED_UNIVERSAL_TIME_OFFSET ( 8, 0, .AHEAD. ) ;
#309 = ORIENTED_EDGE ( 'NONE', *, *, #224, .F. ) ;
#310 = VECTOR ( 'NONE', #414, 1000.000000000000000 ) ;
#311 = CARTESIAN_POINT ( 'NONE',  ( -90.00000000000000000, 0.000000000000000000, -20.00000000000000355 ) ) ;
#312 = FACE_BOUND ( 'NONE', #117, .T. ) ;
#313 = DIRECTION ( 'NONE',  ( -1.000000000000000000, 0.000000000000000000, 0.000000000000000000 ) ) ;
#314 = SHAPE_DEFINITION_REPRESENTATION ( #325, #12 ) ;
#315 = CARTESIAN_POINT ( 'NONE',  ( 90.00000000000000000, -10.00000000000000000, 0.000000000000000000 ) ) ;
#316 = ADVANCED_FACE ( 'NONE', ( #19, #394 ), #192, .T. ) ;
#317 = ADVANCED_FACE ( 'NONE', ( #197 ), #187, .F. ) ;
#318 = DIRECTION ( 'NONE',  ( 0.000000000000000000, 0.000000000000000000, 1.000000000000000000 ) ) ;
#319 = DIRECTION ( 'NONE',  ( 0.000000000000000000, 0.000000000000000000, 1.000000000000000000 ) ) ;
#320 = ORIENTED_EDGE ( 'NONE', *, *, #204, .T. ) ;
#321 = AXIS2_PLACEMENT_3D ( 'NONE', #226, #389, #299 ) ;
#322 = DIRECTION ( 'NONE',  ( 0.000000000000000000, 0.000000000000000000, -1.000000000000000000 ) ) ;
#323 = DIRECTION ( 'NONE',  ( 0.000000000000000000, 0.000000000000000000, 1.000000000000000000 ) ) ;
#324 = EDGE_LOOP ( 'NONE', ( #22, #470, #87, #547, #66 ) ) ;
#325 = PRODUCT_DEFINITION_SHAPE ( 'NONE', 'NONE',  #244 ) ;
#326 = VECTOR ( 'NONE', #144, 1000.000000000000000 ) ;
#327 = CARTESIAN_POINT ( 'NONE',  ( -90.00000000000000000, -10.00000000000000000, 0.000000000000000000 ) ) ;
#328 = ORIENTED_EDGE ( 'NONE', *, *, #69, .T. ) ;
#329 = APPROVAL_STATUS ( 'not_yet_approved' ) ;
#330 = APPROVAL_PERSON_ORGANIZATION ( #551, #300, #104 ) ;
#331 = VERTEX_POINT ( 'NONE', #364 ) ;
#332 = APPROVAL_STATUS ( 'not_yet_approved' ) ;
#333 = AXIS2_PLACEMENT_3D ( 'NONE', #492, #318, #271 ) ;
#334 = LINE ( 'NONE', #208, #310 ) ;
#335 = ORIENTED_EDGE ( 'NONE', *, *, #40, .T. ) ;
#336 = MECHANICAL_CONTEXT ( 'NONE', #96, 'mechanical' ) ;
#337 = EDGE_CURVE ( 'NONE', #506, #196, #52, .T. ) ;
#338 = ORIENTED_EDGE ( 'NONE', *, *, #298, .F. ) ;
#339 =( NAMED_UNIT ( * ) PLANE_ANGLE_UNIT ( ) SI_UNIT ( $, .RADIAN. ) );
#340 = DIRECTION ( 'NONE',  ( 0.000000000000000000, 0.000000000000000000, 1.000000000000000000 ) ) ;
#341 = EDGE_LOOP ( 'NONE', ( #245, #74 ) ) ;
#342 = AXIS2_PLACEMENT_3D ( 'NONE', #302, #524, #2 ) ;
#343 = PERSON_AND_ORGANIZATION ( #347, #199 ) ;
#344 = VECTOR ( 'NONE', #426, 1000.000000000000000 ) ;
#345 = APPROVAL ( #329, '未指定' ) ;
#346 = CARTESIAN_POINT ( 'NONE',  ( 0.000000000000000000, 0.000000000000000000, 725.0000000000000000 ) ) ;
#347 = PERSON ( '未指定', '未指定', '未指定', ('未指定'), ('未指定'), ('未指定') ) ;
#348 = DIRECTION ( 'NONE',  ( 1.000000000000000000, 0.000000000000000000, 0.000000000000000000 ) ) ;
#349 = CYLINDRICAL_SURFACE ( 'NONE', #62, 35.00000000000000000 ) ;
#350 = DIRECTION ( 'NONE',  ( 1.000000000000000000, 0.000000000000000000, 0.000000000000000000 ) ) ;
#351 = LINE ( 'NONE', #221, #358 ) ;
#352 = PLANE ( 'NONE',  #342 ) ;
#353 = DIRECTION ( 'NONE',  ( 0.000000000000000000, 0.000000000000000000, 1.000000000000000000 ) ) ;
#354 = FACE_OUTER_BOUND ( 'NONE', #378, .T. ) ;
#355 = DIRECTION ( 'NONE',  ( 0.000000000000000000, 0.000000000000000000, -1.000000000000000000 ) ) ;
#356 = AXIS2_PLACEMENT_3D ( 'NONE', #306, #43, #439 ) ;
#357 = EDGE_CURVE ( 'NONE', #515, #413, #109, .T. ) ;
#358 = VECTOR ( 'NONE', #294, 1000.000000000000000 ) ;
#359 = APPROVAL_STATUS ( 'not_yet_approved' ) ;
#360 = DIRECTION ( 'NONE',  ( 1.000000000000000000, 0.000000000000000000, 0.000000000000000000 ) ) ;
#361 = CYLINDRICAL_SURFACE ( 'NONE', #243, 30.00000000000000000 ) ;
#362 = DIRECTION ( 'NONE',  ( -1.000000000000000000, 0.000000000000000000, 0.000000000000000000 ) ) ;
#363 = DIRECTION ( 'NONE',  ( 1.000000000000000000, 0.000000000000000000, 0.000000000000000000 ) ) ;
#364 = CARTESIAN_POINT ( 'NONE',  ( -90.00000000000000000, 3.673940397442059178E-15, -80.00000000000000000 ) ) ;
#365 = EDGE_LOOP ( 'NONE', ( #495, #254, #166, #99 ) ) ;
#366 = CARTESIAN_POINT ( 'NONE',  ( -35.00000000000000000, 4.286263797015736496E-15, 725.0000000000000000 ) ) ;
#367 = VECTOR ( 'NONE', #286, 1000.000000000000000 ) ;
#368 = ORIENTED_EDGE ( 'NONE', *, *, #147, .T. ) ;
#369 = ORIENTED_EDGE ( 'NONE', *, *, #123, .T. ) ;
#370 = APPROVAL_ROLE ( '' ) ;
#371 = VERTEX_POINT ( 'NONE', #9 ) ;
#372 = DATE_TIME_ROLE ( 'classification_date' ) ;
#373 = AXIS2_PLACEMENT_3D ( 'NONE', #484, #350, #266 ) ;
#374 = ADVANCED_FACE ( 'NONE', ( #446, #312 ), #237, .T. ) ;
#375 = EDGE_CURVE ( 'NONE', #545, #103, #431, .T. ) ;
#376 = EDGE_LOOP ( 'NONE', ( #474, #295, #541, #247, #530, #169 ) ) ;
#377 = DIRECTION ( 'NONE',  ( -1.000000000000000000, 0.000000000000000000, 0.000000000000000000 ) ) ;
#378 = EDGE_LOOP ( 'NONE', ( #510, #408, #466, #320, #33, #211 ) ) ;
#379 = APPROVAL_ROLE ( '' ) ;
#380 = CARTESIAN_POINT ( 'NONE',  ( -35.00000000000000000, 4.286263797015736496E-15, 125.0000000000000000 ) ) ;
#381 = ORIENTED_EDGE ( 'NONE', *, *, #513, .T. ) ;
#382 = ADVANCED_FACE ( 'NONE', ( #403 ), #17, .F. ) ;
#383 = CARTESIAN_POINT ( 'NONE',  ( 35.00000000000000000, 0.000000000000000000, 125.0000000000000000 ) ) ;
#384 = VECTOR ( 'NONE', #63, 1000.000000000000000 ) ;
#385 = CARTESIAN_POINT ( 'NONE',  ( 90.00000000000000000, -10.00000000000000000, 0.000000000000000000 ) ) ;
#386 = CARTESIAN_POINT ( 'NONE',  ( 45.00000000000000000, 5.510910596163089556E-15, 725.0000000000000000 ) ) ;
#387 = CARTESIAN_POINT ( 'NONE',  ( -90.00000000000000000, -10.00000000000000000, -11.27016653792585998 ) ) ;
#388 = DIRECTION ( 'NONE',  ( 1.000000000000000000, 0.000000000000000000, 0.000000000000000000 ) ) ;
#389 = DIRECTION ( 'NONE',  ( 1.000000000000000000, 0.000000000000000000, 0.000000000000000000 ) ) ;
#390 = CARTESIAN_POINT ( 'NONE',  ( -35.00000000000000000, 4.286263797015736496E-15, 125.0000000000000000 ) ) ;
#391 = DIRECTION ( 'NONE',  ( 0.000000000000000000, 0.000000000000000000, 1.000000000000000000 ) ) ;
#392 = AXIS2_PLACEMENT_3D ( 'NONE', #563, #432, #377 ) ;
#393 = VECTOR ( 'NONE', #555, 1000.000000000000000 ) ;
#394 = FACE_OUTER_BOUND ( 'NONE', #289, .T. ) ;
#395 = CARTESIAN_POINT ( 'NONE',  ( 0.000000000000000000, 0.000000000000000000, 725.0000000000000000 ) ) ;
#396 = EDGE_LOOP ( 'NONE', ( #291, #309 ) ) ;
#397 = EDGE_LOOP ( 'NONE', ( #79, #18, #53, #31 ) ) ;
#398 = CC_DESIGN_PERSON_AND_ORGANIZATION_ASSIGNMENT ( #129, #471, ( #173 ) ) ;
#399 = CC_DESIGN_DATE_AND_TIME_ASSIGNMENT ( #30, #372, ( #162 ) ) ;
#400 = CC_DESIGN_SECURITY_CLASSIFICATION ( #162, ( #173 ) ) ;
#401 = PRODUCT ( 'piston-kazan_\X2\9ed88ba4\X0\_sldprt', 'piston-kazan_\X2\9ed88ba4\X0\_sldprt', '', ( #336 ) ) ;
#402 = VERTEX_POINT ( 'NONE', #101 ) ;
#403 = FACE_OUTER_BOUND ( 'NONE', #499, .T. ) ;
#404 = ORIENTED_EDGE ( 'NONE', *, *, #124, .T. ) ;
#405 = DIRECTION ( 'NONE',  ( 0.000000000000000000, 0.000000000000000000, 1.000000000000000000 ) ) ;
#406 = ORIENTED_EDGE ( 'NONE', *, *, #69, .F. ) ;
#407 = PLANE ( 'NONE',  #50 ) ;
#408 = ORIENTED_EDGE ( 'NONE', *, *, #40, .F. ) ;
#409 = ORIENTED_EDGE ( 'NONE', *, *, #443, .T. ) ;
#410 = LOCAL_TIME ( 11, 35, 46.00000000000000000, #163 ) ;
#411 = DIRECTION ( 'NONE',  ( 0.000000000000000000, 0.000000000000000000, -1.000000000000000000 ) ) ;
#412 = CIRCLE ( 'NONE', #505, 45.00000000000000000 ) ;
#413 = VERTEX_POINT ( 'NONE', #195 ) ;
#414 = DIRECTION ( 'NONE',  ( 0.000000000000000000, -1.000000000000000000, 0.000000000000000000 ) ) ;
#415 = ORIENTED_EDGE ( 'NONE', *, *, #76, .T. ) ;
#416 = CALENDAR_DATE ( 2026, 8, 4 ) ;
#417 = CC_DESIGN_PERSON_AND_ORGANIZATION_ASSIGNMENT ( #507, #255, ( #162 ) ) ;
#418 = ADVANCED_FACE ( 'NONE', ( #354 ), #452, .T. ) ;
#419 = ORIENTED_EDGE ( 'NONE', *, *, #487, .F. ) ;
#420 = VECTOR ( 'NONE', #156, 1000.000000000000000 ) ;
#421 = ORIENTED_EDGE ( 'NONE', *, *, #375, .T. ) ;
#422 = PERSON_AND_ORGANIZATION ( #347, #199 ) ;
#423 = CARTESIAN_POINT ( 'NONE',  ( -43.87482193696060051, 10.00000000000000000, 0.000000000000000000 ) ) ;
#424 = VERTEX_POINT ( 'NONE', #535 ) ;
#425 = PERSON_AND_ORGANIZATION_ROLE ( 'design_owner' ) ;
#426 = DIRECTION ( 'NONE',  ( 0.000000000000000000, -1.000000000000000000, 0.000000000000000000 ) ) ;
#427 = ORIENTED_EDGE ( 'NONE', *, *, #204, .F. ) ;
#428 = APPLICATION_PROTOCOL_DEFINITION ( 'international standard', 'config_control_design', 1994, #108 ) ;
#429 = EDGE_CURVE ( 'NONE', #196, #206, #497, .T. ) ;
#430 = DIRECTION ( 'NONE',  ( 1.000000000000000000, 0.000000000000000000, 0.000000000000000000 ) ) ;
#431 = CIRCLE ( 'NONE', #529, 35.00000000000000000 ) ;
#432 = DIRECTION ( 'NONE',  ( 0.000000000000000000, 0.000000000000000000, -1.000000000000000000 ) ) ;
#433 = CIRCLE ( 'NONE', #6, 35.00000000000000000 ) ;
#434 = CARTESIAN_POINT ( 'NONE',  ( 43.87482193696060051, 10.00000000000000000, 0.000000000000000000 ) ) ;
#435 = FACE_OUTER_BOUND ( 'NONE', #455, .T. ) ;
#436 = EDGE_CURVE ( 'NONE', #506, #503, #334, .T. ) ;
#437 = DIRECTION ( 'NONE',  ( 1.000000000000000000, 0.000000000000000000, 0.000000000000000000 ) ) ;
#438 = MANIFOLD_SOLID_BREP ( '输入1', #132 ) ;
#439 = DIRECTION ( 'NONE',  ( 0.000000000000000000, 0.000000000000000000, -1.000000000000000000 ) ) ;
#440 = VECTOR ( 'NONE', #543, 1000.000000000000000 ) ;
#441 = DIRECTION ( 'NONE',  ( 0.000000000000000000, -1.000000000000000000, 0.000000000000000000 ) ) ;
#442 = DIRECTION ( 'NONE',  ( 0.000000000000000000, 0.000000000000000000, 1.000000000000000000 ) ) ;
#443 = EDGE_CURVE ( 'NONE', #157, #371, #48, .T. ) ;
#444 = LINE ( 'NONE', #539, #303 ) ;
#445 = CARTESIAN_POINT ( 'NONE',  ( 90.00000000000000000, 10.00000000000000000, -11.27016653792584044 ) ) ;
#446 = FACE_OUTER_BOUND ( 'NONE', #454, .T. ) ;
#447 = ORIENTED_EDGE ( 'NONE', *, *, #179, .T. ) ;
#448 = EDGE_CURVE ( 'NONE', #456, #556, #78, .T. ) ;
#449 = LINE ( 'NONE', #451, #167 ) ;
#450 = CARTESIAN_POINT ( 'NONE',  ( 90.00000000000000000, -10.00000000000000000, 0.000000000000000000 ) ) ;
#451 = CARTESIAN_POINT ( 'NONE',  ( 90.00000000000000000, 3.673940397442059178E-15, -80.00000000000000000 ) ) ;
#452 = CYLINDRICAL_SURFACE ( 'NONE', #184, 45.00000000000000000 ) ;
#453 = ORIENTED_EDGE ( 'NONE', *, *, #429, .T. ) ;
#454 = EDGE_LOOP ( 'NONE', ( #213, #447, #287, #369 ) ) ;
#455 = EDGE_LOOP ( 'NONE', ( #550, #537, #419, #203 ) ) ;
#456 = VERTEX_POINT ( 'NONE', #249 ) ;
#457 = DIRECTION ( 'NONE',  ( 1.000000000000000000, 0.000000000000000000, 0.000000000000000000 ) ) ;
#458 = ORIENTED_EDGE ( 'NONE', *, *, #357, .T. ) ;
#459 = AXIS2_PLACEMENT_3D ( 'NONE', #5, #94, #95 ) ;
#460 = VECTOR ( 'NONE', #177, 1000.000000000000000 ) ;
#461 = ORIENTED_EDGE ( 'NONE', *, *, #500, .T. ) ;
#462 = PERSON_AND_ORGANIZATION_ROLE ( 'creator' ) ;
#463 = EDGE_CURVE ( 'NONE', #371, #157, #282, .T. ) ;
#464 = EDGE_CURVE ( 'NONE', #198, #556, #27, .T. ) ;
#465 = DIRECTION ( 'NONE',  ( -1.000000000000000000, 0.000000000000000000, 0.000000000000000000 ) ) ;
#466 = ORIENTED_EDGE ( 'NONE', *, *, #150, .T. ) ;
#467 = ORIENTED_EDGE ( 'NONE', *, *, #273, .T. ) ;
#468 = PERSON_AND_ORGANIZATION ( #347, #199 ) ;
#469 = DIRECTION ( 'NONE',  ( 0.000000000000000000, 0.000000000000000000, 1.000000000000000000 ) ) ;
#470 = ORIENTED_EDGE ( 'NONE', *, *, #521, .F. ) ;
#471 = PERSON_AND_ORGANIZATION_ROLE ( 'design_supplier' ) ;
#472 = VECTOR ( 'NONE', #340, 1000.000000000000000 ) ;
#473 = CARTESIAN_POINT ( 'NONE',  ( 90.00000000000000000, 10.00000000000000000, 0.000000000000000000 ) ) ;
#474 = ORIENTED_EDGE ( 'NONE', *, *, #23, .T. ) ;
#475 = LINE ( 'NONE', #37, #32 ) ;
#476 = LINE ( 'NONE', #386, #120 ) ;
#477 = CARTESIAN_POINT ( 'NONE',  ( 35.00000000000000000, 0.000000000000000000, 125.0000000000000000 ) ) ;
#478 = CARTESIAN_POINT ( 'NONE',  ( -90.00000000000000000, 10.00000000000000000, 0.000000000000000000 ) ) ;
#479 = FACE_OUTER_BOUND ( 'NONE', #134, .T. ) ;
#480 = ADVANCED_FACE ( 'NONE', ( #200 ), #67, .F. ) ;
#481 = AXIS2_PLACEMENT_3D ( 'NONE', #90, #263, #180 ) ;
#482 = ADVANCED_FACE ( 'NONE', ( #523 ), #352, .T. ) ;
#483 = DIRECTION ( 'NONE',  ( 0.000000000000000000, 0.000000000000000000, 1.000000000000000000 ) ) ;
#484 = CARTESIAN_POINT ( 'NONE',  ( -90.00000000000000000, 0.000000000000000000, -50.00000000000000000 ) ) ;
#485 = DIRECTION ( 'NONE',  ( -1.000000000000000000, 0.000000000000000000, 0.000000000000000000 ) ) ;
#486 = CARTESIAN_POINT ( 'NONE',  ( 43.87482193696060051, -10.00000000000000000, 0.000000000000000000 ) ) ;
#487 = EDGE_CURVE ( 'NONE', #556, #553, #275, .T. ) ;
#488 = LINE ( 'NONE', #450, #326 ) ;
#489 = APPROVAL_PERSON_ORGANIZATION ( #343, #345, #379 ) ;
#490 = ORIENTED_EDGE ( 'NONE', *, *, #464, .F. ) ;
#491 = CARTESIAN_POINT ( 'NONE',  ( 90.00000000000000000, 10.00000000000000000, 0.000000000000000000 ) ) ;
#492 = CARTESIAN_POINT ( 'NONE',  ( 0.000000000000000000, 0.000000000000000000, 0.000000000000000000 ) ) ;
#493 = DIRECTION ( 'NONE',  ( 1.000000000000000000, 0.000000000000000000, 0.000000000000000000 ) ) ;
#494 = CARTESIAN_POINT ( 'NONE',  ( 90.00000000000000000, 0.000000000000000000, -50.00000000000000000 ) ) ;
#495 = ORIENTED_EDGE ( 'NONE', *, *, #183, .F. ) ;
#496 = CARTESIAN_POINT ( 'NONE',  ( 90.00000000000000000, 10.00000000000000000, -11.27016653792584044 ) ) ;
#497 = LINE ( 'NONE', #111, #251 ) ;
#498 = ORIENTED_EDGE ( 'NONE', *, *, #131, .T. ) ;
#499 = EDGE_LOOP ( 'NONE', ( #406, #453 ) ) ;
#500 = EDGE_CURVE ( 'NONE', #217, #196, #219, .T. ) ;
#501 = CARTESIAN_POINT ( 'NONE',  ( 90.00000000000000000, 0.000000000000000000, -50.00000000000000000 ) ) ;
#502 = EDGE_CURVE ( 'NONE', #198, #65, #148, .T. ) ;
#503 = VERTEX_POINT ( 'NONE', #517 ) ;
#504 = PERSON_AND_ORGANIZATION ( #347, #199 ) ;
#505 = AXIS2_PLACEMENT_3D ( 'NONE', #38, #483, #301 ) ;
#506 = VERTEX_POINT ( 'NONE', #142 ) ;
#507 = PERSON_AND_ORGANIZATION ( #347, #199 ) ;
#508 = ORIENTED_EDGE ( 'NONE', *, *, #58, .F. ) ;
#509 = DIRECTION ( 'NONE',  ( -1.000000000000000000, 0.000000000000000000, 0.000000000000000000 ) ) ;
#510 = ORIENTED_EDGE ( 'NONE', *, *, #164, .F. ) ;
#511 = PERSON_AND_ORGANIZATION_ROLE ( 'creator' ) ;
#512 = APPROVAL_PERSON_ORGANIZATION ( #504, #77, #370 ) ;
#513 = EDGE_CURVE ( 'NONE', #281, #331, #3, .T. ) ;
#514 = LINE ( 'NONE', #478, #344 ) ;
#515 = VERTEX_POINT ( 'NONE', #486 ) ;
#516 = CIRCLE ( 'NONE', #193, 45.00000000000000000 ) ;
#517 = CARTESIAN_POINT ( 'NONE',  ( 90.00000000000000000, -10.00000000000000000, 0.000000000000000000 ) ) ;
#518 = FACE_OUTER_BOUND ( 'NONE', #396, .T. ) ;
#519 = ADVANCED_FACE ( 'NONE', ( #479 ), #176, .F. ) ;
#520 = DIRECTION ( 'NONE',  ( 0.000000000000000000, 0.000000000000000000, 1.000000000000000000 ) ) ;
#521 = EDGE_CURVE ( 'NONE', #503, #515, #186, .T. ) ;
#522 = DIRECTION ( 'NONE',  ( 1.000000000000000000, 0.000000000000000000, 0.000000000000000000 ) ) ;
#523 = FACE_OUTER_BOUND ( 'NONE', #231, .T. ) ;
#524 = DIRECTION ( 'NONE',  ( 0.000000000000000000, 0.000000000000000000, 1.000000000000000000 ) ) ;
#525 = CALENDAR_DATE ( 2026, 8, 4 ) ;
#526 = LINE ( 'NONE', #445, #215 ) ;
#527 = CARTESIAN_POINT ( 'NONE',  ( 90.00000000000000000, 0.000000000000000000, -50.00000000000000000 ) ) ;
#528 = CARTESIAN_POINT ( 'NONE',  ( 0.000000000000000000, 0.000000000000000000, 725.0000000000000000 ) ) ;
#529 = AXIS2_PLACEMENT_3D ( 'NONE', #56, #405, #105 ) ;
#530 = ORIENTED_EDGE ( 'NONE', *, *, #123, .F. ) ;
#531 = CIRCLE ( 'NONE', #71, 30.00000000000000000 ) ;
#532 = DATE_AND_TIME ( #525, #307 ) ;
#533 = DIRECTION ( 'NONE',  ( -1.000000000000000000, 0.000000000000000000, 0.000000000000000000 ) ) ;
#534 = CARTESIAN_POINT ( 'NONE',  ( 90.00000000000000000, 10.00000000000000000, 0.000000000000000000 ) ) ;
#535 = CARTESIAN_POINT ( 'NONE',  ( 35.00000000000000000, 0.000000000000000000, 725.0000000000000000 ) ) ;
#536 = ADVANCED_FACE ( 'NONE', ( #91 ), #178, .T. ) ;
#537 = ORIENTED_EDGE ( 'NONE', *, *, #23, .F. ) ;
#538 = ADVANCED_FACE ( 'NONE', ( #435, #45 ), #137, .F. ) ;
#539 = CARTESIAN_POINT ( 'NONE',  ( 90.00000000000000000, 0.000000000000000000, -20.00000000000000355 ) ) ;
#540 = DIRECTION ( 'NONE',  ( 1.000000000000000000, 0.000000000000000000, 0.000000000000000000 ) ) ;
#541 = ORIENTED_EDGE ( 'NONE', *, *, #429, .F. ) ;
#542 = AXIS2_PLACEMENT_3D ( 'NONE', #73, #293, #34 ) ;
#543 = DIRECTION ( 'NONE',  ( 0.000000000000000000, 0.000000000000000000, 1.000000000000000000 ) ) ;
#544 = CIRCLE ( 'NONE', #8, 45.00000000000000000 ) ;
#545 = VERTEX_POINT ( 'NONE', #477 ) ;
#546 = CC_DESIGN_PERSON_AND_ORGANIZATION_ASSIGNMENT ( #468, #425, ( #401 ) ) ;
#547 = ORIENTED_EDGE ( 'NONE', *, *, #337, .T. ) ;
#548 = APPROVAL_DATE_TIME ( #252, #77 ) ;
#549 = CARTESIAN_POINT ( 'NONE',  ( 90.00000000000000000, 0.000000000000000000, -50.00000000000000000 ) ) ;
#550 = ORIENTED_EDGE ( 'NONE', *, *, #165, .F. ) ;
#551 = PERSON_AND_ORGANIZATION ( #347, #199 ) ;
#552 = ORIENTED_EDGE ( 'NONE', *, *, #58, .T. ) ;
#553 = VERTEX_POINT ( 'NONE', #227 ) ;
#554 = AXIS2_PLACEMENT_3D ( 'NONE', #149, #441, #51 ) ;
#555 = DIRECTION ( 'NONE',  ( 0.000000000000000000, 0.000000000000000000, 1.000000000000000000 ) ) ;
#556 = VERTEX_POINT ( 'NONE', #387 ) ;
#557 = CC_DESIGN_APPROVAL ( #345, ( #173 ) ) ;
#558 = LINE ( 'NONE', #383, #393 ) ;
#559 = DIRECTION ( 'NONE',  ( 0.000000000000000000, 0.000000000000000000, -1.000000000000000000 ) ) ;
#560 = CIRCLE ( 'NONE', #220, 35.00000000000000000 ) ;
#561 = ADVANCED_FACE ( 'NONE', ( #89 ), #259, .F. ) ;
#562 = EDGE_CURVE ( 'NONE', #206, #39, #475, .T. ) ;
#563 = CARTESIAN_POINT ( 'NONE',  ( 90.00000000000000000, 10.00000000000000000, 0.000000000000000000 ) ) ;
ENDSEC;
END-ISO-10303-21;
