ISO-10303-21;
HEADER;
FILE_DESCRIPTION (( 'STEP AP203' ),
    '1' );
FILE_NAME ('piston-rod_默认_sldprt.STEP',
    '2026-04-08T03:35:49',
    ( '' ),
    ( '' ),
    'SwSTEP 2.0',
    'SolidWorks 2022',
    '' );
FILE_SCHEMA (( 'CONFIG_CONTROL_DESIGN' ));
ENDSEC;

DATA;
#1 = AXIS2_PLACEMENT_3D ( 'NONE', #176, #366, #333 ) ;
#2 = CARTESIAN_POINT ( 'NONE',  ( -10.00000000000000000, 60.00000000000000000, -6.429395695523610266E-15 ) ) ;
#3 = VERTEX_POINT ( 'NONE', #417 ) ;
#4 = LINE ( 'NONE', #389, #159 ) ;
#5 = ORIENTED_EDGE ( 'NONE', *, *, #128, .F. ) ;
#6 = LINE ( 'NONE', #135, #434 ) ;
#7 = DIRECTION ( 'NONE',  ( 0.000000000000000000, 0.000000000000000000, 1.000000000000000000 ) ) ;
#8 = DIRECTION ( 'NONE',  ( 0.000000000000000000, 1.000000000000000000, 0.000000000000000000 ) ) ;
#9 = ORIENTED_EDGE ( 'NONE', *, *, #11, .F. ) ;
#10 = ORIENTED_EDGE ( 'NONE', *, *, #440, .F. ) ;
#11 = EDGE_CURVE ( 'NONE', #369, #51, #259, .T. ) ;
#12 = EDGE_CURVE ( 'NONE', #364, #162, #475, .T. ) ;
#13 = COORDINATED_UNIVERSAL_TIME_OFFSET ( 8, 0, .AHEAD. ) ;
#14 = DIRECTION ( 'NONE',  ( 0.000000000000000000, 0.000000000000000000, 1.000000000000000000 ) ) ;
#15 = ORIENTED_EDGE ( 'NONE', *, *, #440, .T. ) ;
#16 = AXIS2_PLACEMENT_3D ( 'NONE', #190, #36, #471 ) ;
#17 = CALENDAR_DATE ( 2026, 8, 4 ) ;
#18 = VECTOR ( 'NONE', #354, 1000.000000000000000 ) ;
#19 = CARTESIAN_POINT ( 'NONE',  ( 3.673940397442059178E-15, 60.00000000000000000, -20.00000000000000355 ) ) ;
#20 = DIRECTION ( 'NONE',  ( 0.000000000000000000, 1.000000000000000000, 0.000000000000000000 ) ) ;
#21 = DATE_AND_TIME ( #17, #124 ) ;
#22 = DIRECTION ( 'NONE',  ( 0.000000000000000000, 0.000000000000000000, 1.000000000000000000 ) ) ;
#23 = EDGE_CURVE ( 'NONE', #164, #131, #6, .T. ) ;
#24 = DATE_AND_TIME ( #379, #167 ) ;
#25 = DIRECTION ( 'NONE',  ( 0.000000000000000000, 0.000000000000000000, 1.000000000000000000 ) ) ;
#26 = AXIS2_PLACEMENT_3D ( 'NONE', #79, #395, #239 ) ;
#27 = DIRECTION ( 'NONE',  ( 0.000000000000000000, 0.000000000000000000, -1.000000000000000000 ) ) ;
#28 = CARTESIAN_POINT ( 'NONE',  ( 10.00000000000000000, 60.00000000000000000, -6.429395695523610266E-15 ) ) ;
#29 = DIRECTION ( 'NONE',  ( 0.000000000000000000, -1.000000000000000000, 0.000000000000000000 ) ) ;
#30 = ORGANIZATION ( '未指定', '未指定', '' ) ;
#31 = DIRECTION ( 'NONE',  ( 0.000000000000000000, -1.000000000000000000, 0.000000000000000000 ) ) ;
#32 = CARTESIAN_POINT ( 'NONE',  ( -10.00000000000000000, 60.00000000000000000, -6.429395695523610266E-15 ) ) ;
#33 = VERTEX_POINT ( 'NONE', #419 ) ;
#34 = ADVANCED_FACE ( 'NONE', ( #56, #324 ), #218, .F. ) ;
#35 = ADVANCED_FACE ( 'NONE', ( #200 ), #271, .F. ) ;
#36 = DIRECTION ( 'NONE',  ( 0.000000000000000000, 1.000000000000000000, 0.000000000000000000 ) ) ;
#37 = APPLICATION_PROTOCOL_DEFINITION ( 'international standard', 'config_control_design', 1994, #377 ) ;
#38 = ORIENTED_EDGE ( 'NONE', *, *, #144, .F. ) ;
#39 = CARTESIAN_POINT ( 'NONE',  ( 10.00000000000000000, 60.00000000000000000, -6.429395695523610266E-15 ) ) ;
#40 = VECTOR ( 'NONE', #114, 1000.000000000000000 ) ;
#41 = DIRECTION ( 'NONE',  ( 1.000000000000000000, 0.000000000000000000, 0.000000000000000000 ) ) ;
#42 = EDGE_LOOP ( 'NONE', ( #211, #513, #132, #248, #282 ) ) ;
#43 = LINE ( 'NONE', #92, #335 ) ;
#44 = VERTEX_POINT ( 'NONE', #319 ) ;
#45 = CYLINDRICAL_SURFACE ( 'NONE', #511, 30.00000000000000000 ) ;
#46 = CARTESIAN_POINT ( 'NONE',  ( 0.000000000000000000, -60.00000000000000000, -50.00000000000000000 ) ) ;
#47 = ORIENTED_EDGE ( 'NONE', *, *, #238, .F. ) ;
#48 = AXIS2_PLACEMENT_3D ( 'NONE', #463, #25, #263 ) ;
#49 = CARTESIAN_POINT ( 'NONE',  ( 10.00000000000000000, -60.00000000000000000, -11.27016653792580136 ) ) ;
#50 = LINE ( 'NONE', #416, #360 ) ;
#51 = VERTEX_POINT ( 'NONE', #392 ) ;
#52 = EDGE_CURVE ( 'NONE', #369, #164, #197, .T. ) ;
#53 = EDGE_CURVE ( 'NONE', #131, #364, #273, .T. ) ;
#54 = ORIENTED_EDGE ( 'NONE', *, *, #168, .F. ) ;
#55 = CARTESIAN_POINT ( 'NONE',  ( -10.00000000000000000, 60.00000000000000000, -6.429395695523610266E-15 ) ) ;
#56 = FACE_OUTER_BOUND ( 'NONE', #121, .T. ) ;
#57 = CARTESIAN_POINT ( 'NONE',  ( 0.000000000000000000, 0.000000000000000000, 600.0000000000000000 ) ) ;
#58 = AXIS2_PLACEMENT_3D ( 'NONE', #368, #495, #414 ) ;
#59 = PERSON_AND_ORGANIZATION ( #204, #30 ) ;
#60 = CARTESIAN_POINT ( 'NONE',  ( 0.000000000000000000, 0.000000000000000000, 0.000000000000000000 ) ) ;
#61 = APPROVAL_DATE_TIME ( #425, #420 ) ;
#62 = CARTESIAN_POINT ( 'NONE',  ( 0.000000000000000000, 0.000000000000000000, 600.0000000000000000 ) ) ;
#63 = VECTOR ( 'NONE', #499, 1000.000000000000000 ) ;
#64 = EDGE_CURVE ( 'NONE', #131, #405, #81, .T. ) ;
#65 = DIRECTION ( 'NONE',  ( 0.000000000000000000, -1.000000000000000000, 0.000000000000000000 ) ) ;
#66 = EDGE_CURVE ( 'NONE', #138, #123, #359, .T. ) ;
#67 = FACE_OUTER_BOUND ( 'NONE', #252, .T. ) ;
#68 = DIRECTION ( 'NONE',  ( 0.000000000000000000, 0.000000000000000000, 1.000000000000000000 ) ) ;
#69 = DIRECTION ( 'NONE',  ( -1.000000000000000000, 0.000000000000000000, 0.000000000000000000 ) ) ;
#70 = DIRECTION ( 'NONE',  ( 1.000000000000000000, 0.000000000000000000, 0.000000000000000000 ) ) ;
#71 = CC_DESIGN_DATE_AND_TIME_ASSIGNMENT ( #21, #338, ( #254 ) ) ;
#72 = PERSON_AND_ORGANIZATION ( #204, #30 ) ;
#73 = LOCAL_TIME ( 11, 35, 49.00000000000000000, #361 ) ;
#74 = EDGE_LOOP ( 'NONE', ( #450, #491 ) ) ;
#75 = DIRECTION ( 'NONE',  ( 0.000000000000000000, 0.000000000000000000, 1.000000000000000000 ) ) ;
#76 = FACE_OUTER_BOUND ( 'NONE', #452, .T. ) ;
#77 = MECHANICAL_CONTEXT ( 'NONE', #320, 'mechanical' ) ;
#78 = ORIENTED_EDGE ( 'NONE', *, *, #497, .T. ) ;
#79 = CARTESIAN_POINT ( 'NONE',  ( 0.000000000000000000, 0.000000000000000000, 0.000000000000000000 ) ) ;
#80 = EDGE_LOOP ( 'NONE', ( #5, #500, #243, #297 ) ) ;
#81 = LINE ( 'NONE', #268, #384 ) ;
#82 = ORIENTED_EDGE ( 'NONE', *, *, #64, .F. ) ;
#83 = CIRCLE ( 'NONE', #150, 35.00000000000000000 ) ;
#84 = ORIENTED_EDGE ( 'NONE', *, *, #128, .T. ) ;
#85 = EDGE_LOOP ( 'NONE', ( #393, #116, #127, #460 ) ) ;
#86 = DIRECTION ( 'NONE',  ( 1.000000000000000000, 0.000000000000000000, 0.000000000000000000 ) ) ;
#87 = CARTESIAN_POINT ( 'NONE',  ( 10.00000000000000000, 60.00000000000000000, -11.27016653792580136 ) ) ;
#88 = ADVANCED_FACE ( 'NONE', ( #76 ), #317, .T. ) ;
#89 = ORIENTED_EDGE ( 'NONE', *, *, #130, .F. ) ;
#90 = AXIS2_PLACEMENT_3D ( 'NONE', #215, #325, #490 ) ;
#91 = UNCERTAINTY_MEASURE_WITH_UNIT (LENGTH_MEASURE( 1.000000000000000082E-05 ), #110, 'distance_accuracy_value', 'NONE');
#92 = CARTESIAN_POINT ( 'NONE',  ( 35.00000000000000000, 4.286263797015736496E-15, 600.0000000000000000 ) ) ;
#93 = EDGE_LOOP ( 'NONE', ( #208, #96, #98, #470 ) ) ;
#94 = PRODUCT ( 'piston-rod_\X2\9ed88ba4\X0\_sldprt', 'piston-rod_\X2\9ed88ba4\X0\_sldprt', '', ( #77 ) ) ;
#95 = DIRECTION ( 'NONE',  ( 0.000000000000000000, 0.000000000000000000, -1.000000000000000000 ) ) ;
#96 = ORIENTED_EDGE ( 'NONE', *, *, #66, .T. ) ;
#97 = CARTESIAN_POINT ( 'NONE',  ( 0.000000000000000000, -60.00000000000000000, -50.00000000000000000 ) ) ;
#98 = ORIENTED_EDGE ( 'NONE', *, *, #387, .T. ) ;
#99 = CARTESIAN_POINT ( 'NONE',  ( 10.00000000000000000, 33.54101966249685063, -6.429395695523610266E-15 ) ) ;
#100 = AXIS2_PLACEMENT_3D ( 'NONE', #505, #173, #331 ) ;
#101 = APPROVAL_STATUS ( 'not_yet_approved' ) ;
#102 = DIRECTION ( 'NONE',  ( 0.000000000000000000, 1.000000000000000000, 0.000000000000000000 ) ) ;
#103 = LINE ( 'NONE', #264, #212 ) ;
#104 = EDGE_CURVE ( 'NONE', #3, #439, #308, .T. ) ;
#105 = ADVANCED_FACE ( 'NONE', ( #476 ), #350, .F. ) ;
#106 = VECTOR ( 'NONE', #189, 1000.000000000000000 ) ;
#107 = CIRCLE ( 'NONE', #413, 35.00000000000000000 ) ;
#108 = CARTESIAN_POINT ( 'NONE',  ( 0.000000000000000000, 60.00000000000000000, -50.00000000000000000 ) ) ;
#109 = DIRECTION ( 'NONE',  ( 0.000000000000000000, 0.000000000000000000, 1.000000000000000000 ) ) ;
#110 =( LENGTH_UNIT ( ) NAMED_UNIT ( * ) SI_UNIT ( .MILLI., .METRE. ) );
#111 = EDGE_CURVE ( 'NONE', #362, #138, #118, .T. ) ;
#112 = DIRECTION ( 'NONE',  ( 0.000000000000000000, 0.000000000000000000, 1.000000000000000000 ) ) ;
#113 = ORIENTED_EDGE ( 'NONE', *, *, #64, .T. ) ;
#114 = DIRECTION ( 'NONE',  ( 0.000000000000000000, 0.000000000000000000, 1.000000000000000000 ) ) ;
#115 = PRODUCT_DEFINITION_FORMATION_WITH_SPECIFIED_SOURCE ( '任何', '', #94, .NOT_KNOWN. ) ;
#116 = ORIENTED_EDGE ( 'NONE', *, *, #238, .T. ) ;
#117 = VECTOR ( 'NONE', #288, 1000.000000000000000 ) ;
#118 = LINE ( 'NONE', #514, #220 ) ;
#119 = ORIENTED_EDGE ( 'NONE', *, *, #291, .T. ) ;
#120 = CARTESIAN_POINT ( 'NONE',  ( 0.000000000000000000, 0.000000000000000000, 0.000000000000000000 ) ) ;
#121 = EDGE_LOOP ( 'NONE', ( #170, #473, #489, #479, #496 ) ) ;
#122 = CC_DESIGN_DATE_AND_TIME_ASSIGNMENT ( #24, #183, ( #504 ) ) ;
#123 = VERTEX_POINT ( 'NONE', #236 ) ;
#124 = LOCAL_TIME ( 11, 35, 49.00000000000000000, #372 ) ;
#125 = AXIS2_PLACEMENT_3D ( 'NONE', #376, #20, #433 ) ;
#126 = FACE_BOUND ( 'NONE', #74, .T. ) ;
#127 = ORIENTED_EDGE ( 'NONE', *, *, #497, .F. ) ;
#128 = EDGE_CURVE ( 'NONE', #162, #482, #277, .T. ) ;
#129 = LINE ( 'NONE', #484, #494 ) ;
#130 = EDGE_CURVE ( 'NONE', #405, #362, #349, .T. ) ;
#131 = VERTEX_POINT ( 'NONE', #39 ) ;
#132 = ORIENTED_EDGE ( 'NONE', *, *, #12, .T. ) ;
#133 = CIRCLE ( 'NONE', #430, 40.00000000000000000 ) ;
#134 = CARTESIAN_POINT ( 'NONE',  ( 0.000000000000000000, 60.00000000000000000, -50.00000000000000000 ) ) ;
#135 = CARTESIAN_POINT ( 'NONE',  ( -10.00000000000000000, 60.00000000000000000, -6.429395695523610266E-15 ) ) ;
#136 = DIRECTION ( 'NONE',  ( 0.000000000000000000, 0.000000000000000000, 1.000000000000000000 ) ) ;
#137 = CARTESIAN_POINT ( 'NONE',  ( 0.000000000000000000, -60.00000000000000000, -50.00000000000000000 ) ) ;
#138 = VERTEX_POINT ( 'NONE', #279 ) ;
#139 = VECTOR ( 'NONE', #182, 1000.000000000000000 ) ;
#140 = PERSON_AND_ORGANIZATION_ROLE ( 'classification_officer' ) ;
#141 = CIRCLE ( 'NONE', #100, 30.00000000000000000 ) ;
#142 = CLOSED_SHELL ( 'NONE', ( #516, #478, #464, #401, #253, #88, #146, #105, #222, #34, #328, #448, #205, #35, #187 ) ) ;
#143 = CALENDAR_DATE ( 2026, 8, 4 ) ;
#144 = EDGE_CURVE ( 'NONE', #362, #456, #194, .T. ) ;
#145 = PERSON_AND_ORGANIZATION ( #204, #30 ) ;
#146 = ADVANCED_FACE ( 'NONE', ( #229 ), #442, .F. ) ;
#147 = FACE_OUTER_BOUND ( 'NONE', #245, .T. ) ;
#148 = CARTESIAN_POINT ( 'NONE',  ( 0.000000000000000000, 0.000000000000000000, 600.0000000000000000 ) ) ;
#149 = AXIS2_PLACEMENT_3D ( 'NONE', #108, #31, #231 ) ;
#150 = AXIS2_PLACEMENT_3D ( 'NONE', #445, #7, #86 ) ;
#151 = DIRECTION ( 'NONE',  ( 0.000000000000000000, 0.000000000000000000, 1.000000000000000000 ) ) ;
#152 = DIRECTION ( 'NONE',  ( 0.000000000000000000, 0.000000000000000000, 1.000000000000000000 ) ) ;
#153 = EDGE_LOOP ( 'NONE', ( #309, #210, #397, #214, #454, #155 ) ) ;
#154 = DIRECTION ( 'NONE',  ( 0.000000000000000000, -1.000000000000000000, 0.000000000000000000 ) ) ;
#155 = ORIENTED_EDGE ( 'NONE', *, *, #11, .T. ) ;
#156 = CARTESIAN_POINT ( 'NONE',  ( -10.00000000000000000, 60.00000000000000000, -6.429395695523610266E-15 ) ) ;
#157 = CALENDAR_DATE ( 2026, 8, 4 ) ;
#158 = ORIENTED_EDGE ( 'NONE', *, *, #385, .F. ) ;
#159 = VECTOR ( 'NONE', #193, 1000.000000000000000 ) ;
#160 = DIRECTION ( 'NONE',  ( 0.000000000000000000, 0.000000000000000000, -1.000000000000000000 ) ) ;
#161 = EDGE_CURVE ( 'NONE', #44, #456, #4, .T. ) ;
#162 = VERTEX_POINT ( 'NONE', #512 ) ;
#163 = DIRECTION ( 'NONE',  ( 0.000000000000000000, 0.000000000000000000, -1.000000000000000000 ) ) ;
#164 = VERTEX_POINT ( 'NONE', #322 ) ;
#165 = DIRECTION ( 'NONE',  ( 0.000000000000000000, 0.000000000000000000, 1.000000000000000000 ) ) ;
#166 = ORIENTED_EDGE ( 'NONE', *, *, #161, .F. ) ;
#167 = LOCAL_TIME ( 11, 35, 49.00000000000000000, #298 ) ;
#168 = EDGE_CURVE ( 'NONE', #456, #138, #83, .T. ) ;
#169 = DIRECTION ( 'NONE',  ( 0.000000000000000000, 0.000000000000000000, 1.000000000000000000 ) ) ;
#170 = ORIENTED_EDGE ( 'NONE', *, *, #387, .F. ) ;
#171 = FACE_OUTER_BOUND ( 'NONE', #42, .T. ) ;
#172 = EDGE_LOOP ( 'NONE', ( #89, #82, #358, #406 ) ) ;
#173 = DIRECTION ( 'NONE',  ( 0.000000000000000000, 1.000000000000000000, 0.000000000000000000 ) ) ;
#174 = COORDINATED_UNIVERSAL_TIME_OFFSET ( 8, 0, .AHEAD. ) ;
#175 = FACE_OUTER_BOUND ( 'NONE', #93, .T. ) ;
#176 = CARTESIAN_POINT ( 'NONE',  ( 0.000000000000000000, 60.00000000000000000, -50.00000000000000000 ) ) ;
#177 = AXIS2_PLACEMENT_3D ( 'NONE', #60, #109, #300 ) ;
#178 = VECTOR ( 'NONE', #160, 1000.000000000000000 ) ;
#179 = CARTESIAN_POINT ( 'NONE',  ( 0.000000000000000000, 0.000000000000000000, 0.000000000000000000 ) ) ;
#180 = LINE ( 'NONE', #336, #63 ) ;
#181 = ORIENTED_EDGE ( 'NONE', *, *, #144, .T. ) ;
#182 = DIRECTION ( 'NONE',  ( 0.000000000000000000, -1.000000000000000000, 0.000000000000000000 ) ) ;
#183 = DATE_TIME_ROLE ( 'classification_date' ) ;
#184 = CARTESIAN_POINT ( 'NONE',  ( -10.00000000000000000, 33.54101966249685063, -6.429395695523610266E-15 ) ) ;
#185 = EDGE_CURVE ( 'NONE', #312, #198, #129, .T. ) ;
#186 = CC_DESIGN_APPROVAL ( #502, ( #115 ) ) ;
#187 = ADVANCED_FACE ( 'NONE', ( #449 ), #45, .F. ) ;
#188 = CIRCLE ( 'NONE', #244, 40.00000000000000000 ) ;
#189 = DIRECTION ( 'NONE',  ( 1.000000000000000000, 0.000000000000000000, 0.000000000000000000 ) ) ;
#190 = CARTESIAN_POINT ( 'NONE',  ( 0.000000000000000000, -60.00000000000000000, -50.00000000000000000 ) ) ;
#191 = DIRECTION ( 'NONE',  ( 0.000000000000000000, -1.000000000000000000, 0.000000000000000000 ) ) ;
#192 = AXIS2_PLACEMENT_3D ( 'NONE', #62, #343, #310 ) ;
#193 = DIRECTION ( 'NONE',  ( 0.000000000000000000, 0.000000000000000000, -1.000000000000000000 ) ) ;
#194 = CIRCLE ( 'NONE', #26, 35.00000000000000000 ) ;
#195 = PERSON_AND_ORGANIZATION_ROLE ( 'creator' ) ;
#196 = ORIENTED_EDGE ( 'NONE', *, *, #53, .F. ) ;
#197 = LINE ( 'NONE', #156, #40 ) ;
#198 = VERTEX_POINT ( 'NONE', #49 ) ;
#199 = LINE ( 'NONE', #225, #281 ) ;
#200 = FACE_OUTER_BOUND ( 'NONE', #153, .T. ) ;
#201 = APPROVAL_STATUS ( 'not_yet_approved' ) ;
#202 = ORIENTED_EDGE ( 'NONE', *, *, #462, .T. ) ;
#203 = CC_DESIGN_PERSON_AND_ORGANIZATION_ASSIGNMENT ( #390, #195, ( #254 ) ) ;
#204 = PERSON ( '未指定', '未指定', '未指定', ('未指定'), ('未指定'), ('未指定') ) ;
#205 = ADVANCED_FACE ( 'NONE', ( #459 ), #296, .T. ) ;
#206 = CARTESIAN_POINT ( 'NONE',  ( 10.00000000000000000, 60.00000000000000000, -6.429395695523610266E-15 ) ) ;
#207 =( GEOMETRIC_REPRESENTATION_CONTEXT ( 3 ) GLOBAL_UNCERTAINTY_ASSIGNED_CONTEXT ( ( #91 ) ) GLOBAL_UNIT_ASSIGNED_CONTEXT ( ( #110, #270, #437 ) ) REPRESENTATION_CONTEXT ( 'NONE', 'WORKASPACE' ) );
#208 = ORIENTED_EDGE ( 'NONE', *, *, #304, .F. ) ;
#209 = ORIENTED_EDGE ( 'NONE', *, *, #168, .T. ) ;
#210 = ORIENTED_EDGE ( 'NONE', *, *, #66, .F. ) ;
#211 = ORIENTED_EDGE ( 'NONE', *, *, #23, .T. ) ;
#212 = VECTOR ( 'NONE', #151, 1000.000000000000000 ) ;
#213 = AXIS2_PLACEMENT_3D ( 'NONE', #46, #8, #169 ) ;
#214 = ORIENTED_EDGE ( 'NONE', *, *, #517, .F. ) ;
#215 = CARTESIAN_POINT ( 'NONE',  ( 0.000000000000000000, 0.000000000000000000, 600.0000000000000000 ) ) ;
#216 = CARTESIAN_POINT ( 'NONE',  ( -10.00000000000000000, 60.00000000000000000, -11.27016653792580136 ) ) ;
#217 = DIRECTION ( 'NONE',  ( 0.000000000000000000, 0.000000000000000000, -1.000000000000000000 ) ) ;
#218 = PLANE ( 'NONE',  #125 ) ;
#219 = AXIS2_PLACEMENT_3D ( 'NONE', #134, #498, #136 ) ;
#220 = VECTOR ( 'NONE', #29, 1000.000000000000000 ) ;
#221 = PERSON_AND_ORGANIZATION_ROLE ( 'design_supplier' ) ;
#222 = ADVANCED_FACE ( 'NONE', ( #171, #126 ), #255, .T. ) ;
#223 = EDGE_CURVE ( 'NONE', #518, #439, #265, .T. ) ;
#224 = SECURITY_CLASSIFICATION_LEVEL ( 'unclassified' ) ;
#225 = CARTESIAN_POINT ( 'NONE',  ( -10.00000000000000000, 60.00000000000000000, -6.429395695523610266E-15 ) ) ;
#226 = DIRECTION ( 'NONE',  ( 0.000000000000000000, 0.000000000000000000, 1.000000000000000000 ) ) ;
#227 = PLANE ( 'NONE',  #305 ) ;
#228 = CARTESIAN_POINT ( 'NONE',  ( -35.00000000000000000, 0.000000000000000000, 0.000000000000000000 ) ) ;
#229 = FACE_OUTER_BOUND ( 'NONE', #436, .T. ) ;
#230 = CC_DESIGN_PERSON_AND_ORGANIZATION_ASSIGNMENT ( #145, #140, ( #504 ) ) ;
#231 = DIRECTION ( 'NONE',  ( 0.000000000000000000, 0.000000000000000000, -1.000000000000000000 ) ) ;
#232 = CIRCLE ( 'NONE', #493, 40.00000000000000000 ) ;
#233 = DIRECTION ( 'NONE',  ( 0.000000000000000000, 0.000000000000000000, -1.000000000000000000 ) ) ;
#234 = ORIENTED_EDGE ( 'NONE', *, *, #291, .F. ) ;
#235 = DIRECTION ( 'NONE',  ( 0.000000000000000000, 0.000000000000000000, 1.000000000000000000 ) ) ;
#236 = CARTESIAN_POINT ( 'NONE',  ( -10.00000000000000000, -60.00000000000000000, -6.429395695523610266E-15 ) ) ;
#237 = ORIENTED_EDGE ( 'NONE', *, *, #370, .T. ) ;
#238 = EDGE_CURVE ( 'NONE', #330, #518, #50, .T. ) ;
#239 = DIRECTION ( 'NONE',  ( 1.000000000000000000, 0.000000000000000000, 0.000000000000000000 ) ) ;
#240 = ORIENTED_EDGE ( 'NONE', *, *, #385, .T. ) ;
#241 = CARTESIAN_POINT ( 'NONE',  ( 0.000000000000000000, 0.000000000000000000, 0.000000000000000000 ) ) ;
#242 = AXIS2_PLACEMENT_3D ( 'NONE', #388, #65, #27 ) ;
#243 = ORIENTED_EDGE ( 'NONE', *, *, #275, .T. ) ;
#244 = AXIS2_PLACEMENT_3D ( 'NONE', #97, #258, #165 ) ;
#245 = EDGE_LOOP ( 'NONE', ( #276, #84, #278, #9 ) ) ;
#246 = ORIENTED_EDGE ( 'NONE', *, *, #344, .T. ) ;
#247 = DIRECTION ( 'NONE',  ( 0.000000000000000000, -1.000000000000000000, 0.000000000000000000 ) ) ;
#248 = ORIENTED_EDGE ( 'NONE', *, *, #441, .T. ) ;
#249 = CC_DESIGN_SECURITY_CLASSIFICATION ( #504, ( #115 ) ) ;
#250 = AXIS2_PLACEMENT_3D ( 'NONE', #356, #70, #233 ) ;
#251 = DIRECTION ( 'NONE',  ( 0.000000000000000000, 0.000000000000000000, 1.000000000000000000 ) ) ;
#252 = EDGE_LOOP ( 'NONE', ( #326, #158, #287 ) ) ;
#253 = ADVANCED_FACE ( 'NONE', ( #329 ), #455, .T. ) ;
#254 = PRODUCT_DEFINITION ( '未知', '', #115, #492 ) ;
#255 = PLANE ( 'NONE',  #283 ) ;
#256 = EDGE_LOOP ( 'NONE', ( #318, #119, #240, #443, #181, #166 ) ) ;
#257 = PERSON_AND_ORGANIZATION ( #204, #30 ) ;
#258 = DIRECTION ( 'NONE',  ( 0.000000000000000000, 1.000000000000000000, 0.000000000000000000 ) ) ;
#259 = LINE ( 'NONE', #216, #485 ) ;
#260 = LOCAL_TIME ( 11, 35, 49.00000000000000000, #13 ) ;
#261 = APPROVAL ( #201, '未指定' ) ;
#262 = APPROVAL_ROLE ( '' ) ;
#263 = DIRECTION ( 'NONE',  ( 1.000000000000000000, 0.000000000000000000, 0.000000000000000000 ) ) ;
#264 = CARTESIAN_POINT ( 'NONE',  ( -10.00000000000000000, -60.00000000000000000, -6.429395695523610266E-15 ) ) ;
#265 = CIRCLE ( 'NONE', #213, 30.00000000000000000 ) ;
#266 = LINE ( 'NONE', #429, #106 ) ;
#267 = CARTESIAN_POINT ( 'NONE',  ( 0.000000000000000000, -60.00000000000000000, -90.00000000000000000 ) ) ;
#268 = CARTESIAN_POINT ( 'NONE',  ( 10.00000000000000000, 60.00000000000000000, -6.429395695523610266E-15 ) ) ;
#269 = PERSON_AND_ORGANIZATION ( #204, #30 ) ;
#270 =( NAMED_UNIT ( * ) PLANE_ANGLE_UNIT ( ) SI_UNIT ( $, .RADIAN. ) );
#271 = PLANE ( 'NONE',  #250 ) ;
#272 = LOCAL_TIME ( 11, 35, 49.00000000000000000, #174 ) ;
#273 = LINE ( 'NONE', #206, #178 ) ;
#274 = VECTOR ( 'NONE', #154, 1000.000000000000000 ) ;
#275 = EDGE_CURVE ( 'NONE', #364, #198, #451, .T. ) ;
#276 = ORIENTED_EDGE ( 'NONE', *, *, #441, .F. ) ;
#277 = LINE ( 'NONE', #438, #274 ) ;
#278 = ORIENTED_EDGE ( 'NONE', *, *, #327, .T. ) ;
#279 = CARTESIAN_POINT ( 'NONE',  ( -10.00000000000000000, -33.54101966249685063, 0.000000000000000000 ) ) ;
#280 = EDGE_LOOP ( 'NONE', ( #78, #290 ) ) ;
#281 = VECTOR ( 'NONE', #191, 1000.000000000000000 ) ;
#282 = ORIENTED_EDGE ( 'NONE', *, *, #52, .T. ) ;
#283 = AXIS2_PLACEMENT_3D ( 'NONE', #488, #408, #286 ) ;
#284 = ORIENTED_EDGE ( 'NONE', *, *, #104, .T. ) ;
#285 = CARTESIAN_POINT ( 'NONE',  ( 0.000000000000000000, 60.00000000000000000, -50.00000000000000000 ) ) ;
#286 = DIRECTION ( 'NONE',  ( 0.000000000000000000, 0.000000000000000000, 1.000000000000000000 ) ) ;
#287 = ORIENTED_EDGE ( 'NONE', *, *, #370, .F. ) ;
#288 = DIRECTION ( 'NONE',  ( 0.000000000000000000, -1.000000000000000000, 0.000000000000000000 ) ) ;
#289 = CC_DESIGN_PERSON_AND_ORGANIZATION_ASSIGNMENT ( #269, #303, ( #94 ) ) ;
#290 = ORIENTED_EDGE ( 'NONE', *, *, #223, .T. ) ;
#291 = EDGE_CURVE ( 'NONE', #486, #371, #43, .T. ) ;
#292 = AXIS2_PLACEMENT_3D ( 'NONE', #120, #112, #363 ) ;
#293 = APPROVAL_DATE_TIME ( #378, #502 ) ;
#294 = DIRECTION ( 'NONE',  ( 0.000000000000000000, -1.000000000000000000, 0.000000000000000000 ) ) ;
#295 = DIRECTION ( 'NONE',  ( 1.000000000000000000, 0.000000000000000000, 0.000000000000000000 ) ) ;
#296 = CYLINDRICAL_SURFACE ( 'NONE', #58, 39.99999999999999289 ) ;
#297 = ORIENTED_EDGE ( 'NONE', *, *, #345, .T. ) ;
#298 = COORDINATED_UNIVERSAL_TIME_OFFSET ( 8, 0, .AHEAD. ) ;
#299 = CIRCLE ( 'NONE', #177, 35.00000000000000000 ) ;
#300 = DIRECTION ( 'NONE',  ( 1.000000000000000000, 0.000000000000000000, 0.000000000000000000 ) ) ;
#301 = CARTESIAN_POINT ( 'NONE',  ( 0.000000000000000000, 60.00000000000000000, -50.00000000000000000 ) ) ;
#302 = LINE ( 'NONE', #424, #139 ) ;
#303 = PERSON_AND_ORGANIZATION_ROLE ( 'design_owner' ) ;
#304 = EDGE_CURVE ( 'NONE', #138, #33, #107, .T. ) ;
#305 = AXIS2_PLACEMENT_3D ( 'NONE', #179, #251, #381 ) ;
#306 = FACE_OUTER_BOUND ( 'NONE', #410, .T. ) ;
#307 = DIRECTION ( 'NONE',  ( 0.000000000000000000, 0.000000000000000000, 1.000000000000000000 ) ) ;
#308 = LINE ( 'NONE', #469, #404 ) ;
#309 = ORIENTED_EDGE ( 'NONE', *, *, #477, .T. ) ;
#310 = DIRECTION ( 'NONE',  ( -1.000000000000000000, 0.000000000000000000, 0.000000000000000000 ) ) ;
#311 = CC_DESIGN_PERSON_AND_ORGANIZATION_ASSIGNMENT ( #59, #221, ( #115 ) ) ;
#312 = VERTEX_POINT ( 'NONE', #365 ) ;
#313 = CARTESIAN_POINT ( 'NONE',  ( 0.000000000000000000, 0.000000000000000000, 600.0000000000000000 ) ) ;
#314 = DATE_AND_TIME ( #157, #73 ) ;
#315 = ORIENTED_EDGE ( 'NONE', *, *, #111, .T. ) ;
#316 = MANIFOLD_SOLID_BREP ( '输入1', #142 ) ;
#317 = PLANE ( 'NONE',  #467 ) ;
#318 = ORIENTED_EDGE ( 'NONE', *, *, #462, .F. ) ;
#319 = CARTESIAN_POINT ( 'NONE',  ( -35.00000000000000000, 0.000000000000000000, 600.0000000000000000 ) ) ;
#320 = APPLICATION_CONTEXT ( 'configuration controlled 3d designs of mechanical parts and assemblies' ) ;
#321 = ORIENTED_EDGE ( 'NONE', *, *, #223, .F. ) ;
#322 = CARTESIAN_POINT ( 'NONE',  ( -10.00000000000000000, 60.00000000000000000, -6.429395695523610266E-15 ) ) ;
#323 = APPROVAL_PERSON_ORGANIZATION ( #72, #261, #357 ) ;
#324 = FACE_BOUND ( 'NONE', #280, .T. ) ;
#325 = DIRECTION ( 'NONE',  ( 0.000000000000000000, 0.000000000000000000, -1.000000000000000000 ) ) ;
#326 = ORIENTED_EDGE ( 'NONE', *, *, #352, .F. ) ;
#327 = EDGE_CURVE ( 'NONE', #482, #51, #188, .T. ) ;
#328 = ADVANCED_FACE ( 'NONE', ( #175 ), #332, .F. ) ;
#329 = FACE_OUTER_BOUND ( 'NONE', #400, .T. ) ;
#330 = VERTEX_POINT ( 'NONE', #19 ) ;
#331 = DIRECTION ( 'NONE',  ( 0.000000000000000000, 0.000000000000000000, 1.000000000000000000 ) ) ;
#332 = PLANE ( 'NONE',  #453 ) ;
#333 = DIRECTION ( 'NONE',  ( 0.000000000000000000, 0.000000000000000000, 1.000000000000000000 ) ) ;
#334 = CIRCLE ( 'NONE', #48, 35.00000000000000000 ) ;
#335 = VECTOR ( 'NONE', #95, 1000.000000000000000 ) ;
#336 = CARTESIAN_POINT ( 'NONE',  ( 10.00000000000000000, 60.00000000000000000, -6.429395695523610266E-15 ) ) ;
#337 = EDGE_LOOP ( 'NONE', ( #47, #515, #284, #321 ) ) ;
#338 = DATE_TIME_ROLE ( 'creation_date' ) ;
#339 = CARTESIAN_POINT ( 'NONE',  ( 0.000000000000000000, -60.00000000000000000, -80.00000000000000000 ) ) ;
#340 = PERSON_AND_ORGANIZATION ( #204, #30 ) ;
#341 = CC_DESIGN_APPROVAL ( #261, ( #254 ) ) ;
#342 = AXIS2_PLACEMENT_3D ( 'NONE', #241, #403, #41 ) ;
#343 = DIRECTION ( 'NONE',  ( 0.000000000000000000, 0.000000000000000000, -1.000000000000000000 ) ) ;
#344 = EDGE_CURVE ( 'NONE', #33, #312, #180, .T. ) ;
#345 = EDGE_CURVE ( 'NONE', #198, #482, #133, .T. ) ;
#346 = DIRECTION ( 'NONE',  ( 1.000000000000000000, 0.000000000000000000, 0.000000000000000000 ) ) ;
#347 = AXIS2_PLACEMENT_3D ( 'NONE', #468, #152, #472 ) ;
#348 = CARTESIAN_POINT ( 'NONE',  ( 3.673940397442059178E-15, -60.00000000000000000, -20.00000000000000355 ) ) ;
#349 = CIRCLE ( 'NONE', #292, 35.00000000000000000 ) ;
#350 = PLANE ( 'NONE',  #446 ) ;
#351 = ORIENTED_EDGE ( 'NONE', *, *, #185, .T. ) ;
#352 = EDGE_CURVE ( 'NONE', #405, #33, #302, .T. ) ;
#353 = DIRECTION ( 'NONE',  ( 0.000000000000000000, 1.000000000000000000, 0.000000000000000000 ) ) ;
#354 = DIRECTION ( 'NONE',  ( 0.000000000000000000, -1.000000000000000000, 0.000000000000000000 ) ) ;
#355 = ORIENTED_EDGE ( 'NONE', *, *, #352, .T. ) ;
#356 = CARTESIAN_POINT ( 'NONE',  ( -10.00000000000000000, 60.00000000000000000, -6.429395695523610266E-15 ) ) ;
#357 = APPROVAL_ROLE ( '' ) ;
#358 = ORIENTED_EDGE ( 'NONE', *, *, #23, .F. ) ;
#359 = LINE ( 'NONE', #2, #18 ) ;
#360 = VECTOR ( 'NONE', #294, 1000.000000000000000 ) ;
#361 = COORDINATED_UNIVERSAL_TIME_OFFSET ( 8, 0, .AHEAD. ) ;
#362 = VERTEX_POINT ( 'NONE', #184 ) ;
#363 = DIRECTION ( 'NONE',  ( 1.000000000000000000, 0.000000000000000000, 0.000000000000000000 ) ) ;
#364 = VERTEX_POINT ( 'NONE', #383 ) ;
#365 = CARTESIAN_POINT ( 'NONE',  ( 10.00000000000000000, -60.00000000000000000, -6.429395695523610266E-15 ) ) ;
#366 = DIRECTION ( 'NONE',  ( 0.000000000000000000, 1.000000000000000000, 0.000000000000000000 ) ) ;
#367 = APPROVAL_PERSON_ORGANIZATION ( #340, #420, #262 ) ;
#368 = CARTESIAN_POINT ( 'NONE',  ( 0.000000000000000000, 60.00000000000000000, -50.00000000000000000 ) ) ;
#369 = VERTEX_POINT ( 'NONE', #380 ) ;
#370 = EDGE_CURVE ( 'NONE', #33, #371, #299, .T. ) ;
#371 = VERTEX_POINT ( 'NONE', #506 ) ;
#372 = COORDINATED_UNIVERSAL_TIME_OFFSET ( 8, 0, .AHEAD. ) ;
#373 = CARTESIAN_POINT ( 'NONE',  ( 0.000000000000000000, 0.000000000000000000, 0.000000000000000000 ) ) ;
#374 = DIRECTION ( 'NONE',  ( 0.000000000000000000, -1.000000000000000000, 0.000000000000000000 ) ) ;
#375 = DIRECTION ( 'NONE',  ( -1.000000000000000000, 0.000000000000000000, 0.000000000000000000 ) ) ;
#376 = CARTESIAN_POINT ( 'NONE',  ( 0.000000000000000000, -60.00000000000000000, -50.00000000000000000 ) ) ;
#377 = APPLICATION_CONTEXT ( 'configuration controlled 3d designs of mechanical parts and assemblies' ) ;
#378 = DATE_AND_TIME ( #421, #260 ) ;
#379 = CALENDAR_DATE ( 2026, 8, 4 ) ;
#380 = CARTESIAN_POINT ( 'NONE',  ( -10.00000000000000000, 60.00000000000000000, -11.27016653792580136 ) ) ;
#381 = DIRECTION ( 'NONE',  ( 1.000000000000000000, 0.000000000000000000, 0.000000000000000000 ) ) ;
#382 = SHAPE_DEFINITION_REPRESENTATION ( #487, #507 ) ;
#383 = CARTESIAN_POINT ( 'NONE',  ( 10.00000000000000000, 60.00000000000000000, -11.27016653792580136 ) ) ;
#384 = VECTOR ( 'NONE', #435, 1000.000000000000000 ) ;
#385 = EDGE_CURVE ( 'NONE', #371, #405, #334, .T. ) ;
#386 = PLANE ( 'NONE',  #444 ) ;
#387 = EDGE_CURVE ( 'NONE', #123, #312, #266, .T. ) ;
#388 = CARTESIAN_POINT ( 'NONE',  ( 0.000000000000000000, 60.00000000000000000, -50.00000000000000000 ) ) ;
#389 = CARTESIAN_POINT ( 'NONE',  ( -35.00000000000000000, 0.000000000000000000, 600.0000000000000000 ) ) ;
#390 = PERSON_AND_ORGANIZATION ( #204, #30 ) ;
#391 = FACE_OUTER_BOUND ( 'NONE', #85, .T. ) ;
#392 = CARTESIAN_POINT ( 'NONE',  ( -10.00000000000000000, -60.00000000000000000, -11.27016653792580136 ) ) ;
#393 = ORIENTED_EDGE ( 'NONE', *, *, #427, .T. ) ;
#394 = CARTESIAN_POINT ( 'NONE',  ( 35.00000000000000000, 4.286263797015736496E-15, 600.0000000000000000 ) ) ;
#395 = DIRECTION ( 'NONE',  ( 0.000000000000000000, 0.000000000000000000, 1.000000000000000000 ) ) ;
#396 = APPLICATION_PROTOCOL_DEFINITION ( 'international standard', 'config_control_design', 1994, #320 ) ;
#397 = ORIENTED_EDGE ( 'NONE', *, *, #111, .F. ) ;
#398 = DIRECTION ( 'NONE',  ( -1.000000000000000000, 0.000000000000000000, 0.000000000000000000 ) ) ;
#399 = APPROVAL_DATE_TIME ( #314, #261 ) ;
#400 = EDGE_LOOP ( 'NONE', ( #234, #10, #481, #209, #447, #237 ) ) ;
#401 = ADVANCED_FACE ( 'NONE', ( #67 ), #227, .F. ) ;
#402 = AXIS2_PLACEMENT_3D ( 'NONE', #148, #235, #428 ) ;
#403 = DIRECTION ( 'NONE',  ( 0.000000000000000000, 0.000000000000000000, 1.000000000000000000 ) ) ;
#404 = VECTOR ( 'NONE', #480, 1000.000000000000000 ) ;
#405 = VERTEX_POINT ( 'NONE', #99 ) ;
#406 = ORIENTED_EDGE ( 'NONE', *, *, #517, .T. ) ;
#407 = DIRECTION ( 'NONE',  ( 0.000000000000000000, 0.000000000000000000, -1.000000000000000000 ) ) ;
#408 = DIRECTION ( 'NONE',  ( 0.000000000000000000, 1.000000000000000000, 0.000000000000000000 ) ) ;
#409 = CC_DESIGN_PERSON_AND_ORGANIZATION_ASSIGNMENT ( #423, #501, ( #115 ) ) ;
#410 = EDGE_LOOP ( 'NONE', ( #351, #415, #196, #113, #355, #246 ) ) ;
#411 = DIRECTION ( 'NONE',  ( 0.000000000000000000, 0.000000000000000000, -1.000000000000000000 ) ) ;
#412 = CIRCLE ( 'NONE', #219, 30.00000000000000000 ) ;
#413 = AXIS2_PLACEMENT_3D ( 'NONE', #373, #14, #418 ) ;
#414 = DIRECTION ( 'NONE',  ( 0.000000000000000000, 0.000000000000000000, -1.000000000000000000 ) ) ;
#415 = ORIENTED_EDGE ( 'NONE', *, *, #275, .F. ) ;
#416 = CARTESIAN_POINT ( 'NONE',  ( 3.673940397442059178E-15, 60.00000000000000000, -20.00000000000000355 ) ) ;
#417 = CARTESIAN_POINT ( 'NONE',  ( 0.000000000000000000, 60.00000000000000000, -80.00000000000000000 ) ) ;
#418 = DIRECTION ( 'NONE',  ( 1.000000000000000000, 0.000000000000000000, 0.000000000000000000 ) ) ;
#419 = CARTESIAN_POINT ( 'NONE',  ( 10.00000000000000000, -33.54101966249685063, -6.429395695523610266E-15 ) ) ;
#420 = APPROVAL ( #503, '未指定' ) ;
#421 = CALENDAR_DATE ( 2026, 8, 4 ) ;
#422 = CIRCLE ( 'NONE', #16, 30.00000000000000000 ) ;
#423 = PERSON_AND_ORGANIZATION ( #204, #30 ) ;
#424 = CARTESIAN_POINT ( 'NONE',  ( 10.00000000000000000, 60.00000000000000000, -6.429395695523610266E-15 ) ) ;
#425 = DATE_AND_TIME ( #143, #272 ) ;
#426 = EDGE_CURVE ( 'NONE', #330, #3, #141, .T. ) ;
#427 = EDGE_CURVE ( 'NONE', #3, #330, #412, .T. ) ;
#428 = DIRECTION ( 'NONE',  ( 1.000000000000000000, 0.000000000000000000, 0.000000000000000000 ) ) ;
#429 = CARTESIAN_POINT ( 'NONE',  ( -10.00000000000000000, -60.00000000000000000, -6.429395695523610266E-15 ) ) ;
#430 = AXIS2_PLACEMENT_3D ( 'NONE', #137, #102, #22 ) ;
#431 = CYLINDRICAL_SURFACE ( 'NONE', #242, 39.99999999999999289 ) ;
#432 = DIRECTION ( 'NONE',  ( 1.000000000000000000, 0.000000000000000000, 0.000000000000000000 ) ) ;
#433 = DIRECTION ( 'NONE',  ( 0.000000000000000000, 0.000000000000000000, 1.000000000000000000 ) ) ;
#434 = VECTOR ( 'NONE', #295, 1000.000000000000000 ) ;
#435 = DIRECTION ( 'NONE',  ( 0.000000000000000000, -1.000000000000000000, 0.000000000000000000 ) ) ;
#436 = EDGE_LOOP ( 'NONE', ( #38, #315, #54 ) ) ;
#437 =( NAMED_UNIT ( * ) SI_UNIT ( $, .STERADIAN. ) SOLID_ANGLE_UNIT ( ) );
#438 = CARTESIAN_POINT ( 'NONE',  ( 0.000000000000000000, 60.00000000000000000, -90.00000000000000000 ) ) ;
#439 = VERTEX_POINT ( 'NONE', #339 ) ;
#440 = EDGE_CURVE ( 'NONE', #44, #486, #466, .T. ) ;
#441 = EDGE_CURVE ( 'NONE', #162, #369, #232, .T. ) ;
#442 = PLANE ( 'NONE',  #342 ) ;
#443 = ORIENTED_EDGE ( 'NONE', *, *, #130, .T. ) ;
#444 = AXIS2_PLACEMENT_3D ( 'NONE', #28, #69, #226 ) ;
#445 = CARTESIAN_POINT ( 'NONE',  ( 0.000000000000000000, 0.000000000000000000, 0.000000000000000000 ) ) ;
#446 = AXIS2_PLACEMENT_3D ( 'NONE', #32, #163, #398 ) ;
#447 = ORIENTED_EDGE ( 'NONE', *, *, #304, .T. ) ;
#448 = ADVANCED_FACE ( 'NONE', ( #306 ), #386, .F. ) ;
#449 = FACE_OUTER_BOUND ( 'NONE', #337, .T. ) ;
#450 = ORIENTED_EDGE ( 'NONE', *, *, #427, .F. ) ;
#451 = LINE ( 'NONE', #87, #117 ) ;
#452 = EDGE_LOOP ( 'NONE', ( #15, #202 ) ) ;
#453 = AXIS2_PLACEMENT_3D ( 'NONE', #55, #217, #375 ) ;
#454 = ORIENTED_EDGE ( 'NONE', *, *, #52, .F. ) ;
#455 = CYLINDRICAL_SURFACE ( 'NONE', #90, 35.00000000000000000 ) ;
#456 = VERTEX_POINT ( 'NONE', #228 ) ;
#457 = PRODUCT_RELATED_PRODUCT_CATEGORY ( 'detail', '', ( #94 ) ) ;
#458 = APPROVAL_ROLE ( '' ) ;
#459 = FACE_OUTER_BOUND ( 'NONE', #80, .T. ) ;
#460 = ORIENTED_EDGE ( 'NONE', *, *, #104, .F. ) ;
#461 = CC_DESIGN_APPROVAL ( #420, ( #504 ) ) ;
#462 = EDGE_CURVE ( 'NONE', #486, #44, #510, .T. ) ;
#463 = CARTESIAN_POINT ( 'NONE',  ( 0.000000000000000000, 0.000000000000000000, 0.000000000000000000 ) ) ;
#464 = ADVANCED_FACE ( 'NONE', ( #465 ), #508, .T. ) ;
#465 = FACE_OUTER_BOUND ( 'NONE', #256, .T. ) ;
#466 = CIRCLE ( 'NONE', #474, 35.00000000000000000 ) ;
#467 = AXIS2_PLACEMENT_3D ( 'NONE', #313, #68, #432 ) ;
#468 = CARTESIAN_POINT ( 'NONE',  ( 0.000000000000000000, 0.000000000000000000, 0.000000000000000000 ) ) ;
#469 = CARTESIAN_POINT ( 'NONE',  ( 0.000000000000000000, 60.00000000000000000, -80.00000000000000000 ) ) ;
#470 = ORIENTED_EDGE ( 'NONE', *, *, #344, .F. ) ;
#471 = DIRECTION ( 'NONE',  ( 0.000000000000000000, 0.000000000000000000, 1.000000000000000000 ) ) ;
#472 = DIRECTION ( 'NONE',  ( 1.000000000000000000, 0.000000000000000000, 0.000000000000000000 ) ) ;
#473 = ORIENTED_EDGE ( 'NONE', *, *, #477, .F. ) ;
#474 = AXIS2_PLACEMENT_3D ( 'NONE', #57, #307, #346 ) ;
#475 = CIRCLE ( 'NONE', #1, 40.00000000000000000 ) ;
#476 = FACE_OUTER_BOUND ( 'NONE', #172, .T. ) ;
#477 = EDGE_CURVE ( 'NONE', #51, #123, #103, .T. ) ;
#478 = ADVANCED_FACE ( 'NONE', ( #147 ), #431, .T. ) ;
#479 = ORIENTED_EDGE ( 'NONE', *, *, #345, .F. ) ;
#480 = DIRECTION ( 'NONE',  ( 0.000000000000000000, -1.000000000000000000, 0.000000000000000000 ) ) ;
#481 = ORIENTED_EDGE ( 'NONE', *, *, #161, .T. ) ;
#482 = VERTEX_POINT ( 'NONE', #267 ) ;
#483 = APPROVAL_PERSON_ORGANIZATION ( #257, #502, #458 ) ;
#484 = CARTESIAN_POINT ( 'NONE',  ( 10.00000000000000000, -60.00000000000000000, -6.429395695523610266E-15 ) ) ;
#485 = VECTOR ( 'NONE', #374, 1000.000000000000000 ) ;
#486 = VERTEX_POINT ( 'NONE', #394 ) ;
#487 = PRODUCT_DEFINITION_SHAPE ( 'NONE', 'NONE',  #254 ) ;
#488 = CARTESIAN_POINT ( 'NONE',  ( 0.000000000000000000, 60.00000000000000000, -50.00000000000000000 ) ) ;
#489 = ORIENTED_EDGE ( 'NONE', *, *, #327, .F. ) ;
#490 = DIRECTION ( 'NONE',  ( -1.000000000000000000, 0.000000000000000000, 0.000000000000000000 ) ) ;
#491 = ORIENTED_EDGE ( 'NONE', *, *, #426, .F. ) ;
#492 = DESIGN_CONTEXT ( 'detailed design', #377, 'design' ) ;
#493 = AXIS2_PLACEMENT_3D ( 'NONE', #301, #353, #75 ) ;
#494 = VECTOR ( 'NONE', #407, 1000.000000000000000 ) ;
#495 = DIRECTION ( 'NONE',  ( 0.000000000000000000, -1.000000000000000000, 0.000000000000000000 ) ) ;
#496 = ORIENTED_EDGE ( 'NONE', *, *, #185, .F. ) ;
#497 = EDGE_CURVE ( 'NONE', #439, #518, #422, .T. ) ;
#498 = DIRECTION ( 'NONE',  ( 0.000000000000000000, 1.000000000000000000, 0.000000000000000000 ) ) ;
#499 = DIRECTION ( 'NONE',  ( 0.000000000000000000, -1.000000000000000000, 0.000000000000000000 ) ) ;
#500 = ORIENTED_EDGE ( 'NONE', *, *, #12, .F. ) ;
#501 = PERSON_AND_ORGANIZATION_ROLE ( 'creator' ) ;
#502 = APPROVAL ( #101, '未指定' ) ;
#503 = APPROVAL_STATUS ( 'not_yet_approved' ) ;
#504 = SECURITY_CLASSIFICATION ( '', '', #224 ) ;
#505 = CARTESIAN_POINT ( 'NONE',  ( 0.000000000000000000, 60.00000000000000000, -50.00000000000000000 ) ) ;
#506 = CARTESIAN_POINT ( 'NONE',  ( 35.00000000000000000, 4.286263797015736496E-15, 0.000000000000000000 ) ) ;
#507 = ADVANCED_BREP_SHAPE_REPRESENTATION ( 'piston-rod_\X2\9ed88ba4\X0\_sldprt', ( #316, #347 ), #207 ) ;
#508 = CYLINDRICAL_SURFACE ( 'NONE', #192, 35.00000000000000000 ) ;
#509 = CYLINDRICAL_SURFACE ( 'NONE', #149, 30.00000000000000000 ) ;
#510 = CIRCLE ( 'NONE', #402, 35.00000000000000000 ) ;
#511 = AXIS2_PLACEMENT_3D ( 'NONE', #285, #247, #411 ) ;
#512 = CARTESIAN_POINT ( 'NONE',  ( 0.000000000000000000, 60.00000000000000000, -90.00000000000000000 ) ) ;
#513 = ORIENTED_EDGE ( 'NONE', *, *, #53, .T. ) ;
#514 = CARTESIAN_POINT ( 'NONE',  ( -10.00000000000000000, 60.00000000000000000, -6.429395695523610266E-15 ) ) ;
#515 = ORIENTED_EDGE ( 'NONE', *, *, #426, .T. ) ;
#516 = ADVANCED_FACE ( 'NONE', ( #391 ), #509, .F. ) ;
#517 = EDGE_CURVE ( 'NONE', #164, #362, #199, .T. ) ;
#518 = VERTEX_POINT ( 'NONE', #348 ) ;
ENDSEC;
END-ISO-10303-21;
