ISO-10303-21;
HEADER;
FILE_DESCRIPTION (( 'STEP AP203' ),
    '1' );
FILE_NAME ('SHAFT_默认_sldprt.STEP',
    '2026-04-08T03:35:42',
    ( '' ),
    ( '' ),
    'SwSTEP 2.0',
    'SolidWorks 2022',
    '' );
FILE_SCHEMA (( 'CONFIG_CONTROL_DESIGN' ));
ENDSEC;

DATA;
#1 = CARTESIAN_POINT ( 'NONE',  ( 0.000000000000000000, 0.000000000000000000, 30.00000000000000000 ) ) ;
#2 = CARTESIAN_POINT ( 'NONE',  ( 0.000000000000000000, 0.000000000000000000, 0.000000000000000000 ) ) ;
#3 = CARTESIAN_POINT ( 'NONE',  ( 639.1177001126052346, 8.560363712539064807, -28.75428515408480479 ) ) ;
#4 = FACE_OUTER_BOUND ( 'NONE', #153, .T. ) ;
#5 = CARTESIAN_POINT ( 'NONE',  ( 623.7089241703192783, 10.83180591483412769, -27.98040622887203810 ) ) ;
#6 = CARTESIAN_POINT ( 'NONE',  ( 0.000000000000000000, 4.286263797015736496E-15, -35.00000000000000000 ) ) ;
#7 = CARTESIAN_POINT ( 'NONE',  ( 660.0000000000000000, 30.00000000000000000, 0.000000000000000000 ) ) ;
#8 = VERTEX_POINT ( 'NONE', #507 ) ;
#9 = CYLINDRICAL_SURFACE ( 'NONE', #521, 35.00000000000000000 ) ;
#10 = CIRCLE ( 'NONE', #382, 30.00000000000000000 ) ;
#11 = CARTESIAN_POINT ( 'NONE',  ( 620.5872560948477030, 8.264545032631557930, -28.84535918582430014 ) ) ;
#12 = COORDINATED_UNIVERSAL_TIME_OFFSET ( 8, 0, .AHEAD. ) ;
#13 = DIRECTION ( 'NONE',  ( -1.000000000000000000, 0.000000000000000000, 0.000000000000000000 ) ) ;
#14 = ORIENTED_EDGE ( 'NONE', *, *, #456, .T. ) ;
#15 = FACE_OUTER_BOUND ( 'NONE', #294, .T. ) ;
#16 = ORIENTED_EDGE ( 'NONE', *, *, #308, .T. ) ;
#17 = CARTESIAN_POINT ( 'NONE',  ( 641.8313382849044046, -4.054667785966453053, 29.72739946985155512 ) ) ;
#18 = ORIENTED_EDGE ( 'NONE', *, *, #355, .F. ) ;
#19 = EDGE_CURVE ( 'NONE', #214, #257, #188, .T. ) ;
#20 = PERSON_AND_ORGANIZATION ( #45, #445 ) ;
#21 = CARTESIAN_POINT ( 'NONE',  ( 639.3892989222878214, -8.261701419908675348, 28.84180585419093745 ) ) ;
#22 = CARTESIAN_POINT ( 'NONE',  ( 619.3992655002227821, -6.636123052647914911, -29.25886335063790611 ) ) ;
#23 = APPROVAL_ROLE ( '' ) ;
#24 = CARTESIAN_POINT ( 'NONE',  ( 642.4169527582837418, -1.656643325582511483, 29.96512839193697175 ) ) ;
#25 = CARTESIAN_POINT ( 'NONE',  ( 635.1865541894226226, -11.38050738658138350, -27.75811504251462836 ) ) ;
#26 = DIRECTION ( 'NONE',  ( -1.000000000000000000, 0.000000000000000000, 0.000000000000000000 ) ) ;
#27 = EDGE_CURVE ( 'NONE', #257, #214, #498, .T. ) ;
#28 = CARTESIAN_POINT ( 'NONE',  ( 623.3730302103039094, -10.60642709357926350, -28.06352009252373136 ) ) ;
#29 = CARTESIAN_POINT ( 'NONE',  ( 640.8278017898219332, 6.297690798647229471, 29.33963621086254747 ) ) ;
#30 = CARTESIAN_POINT ( 'NONE',  ( 641.2147935991230270, -5.582169940505264272, -29.48619244317346144 ) ) ;
#31 = CARTESIAN_POINT ( 'NONE',  ( 638.2598852579596951, 9.417155050259822247, 28.48995243007902545 ) ) ;
#32 = CARTESIAN_POINT ( 'NONE',  ( 627.9312617603499120, -12.33448573145412297, -27.34718275248082264 ) ) ;
#33 = CARTESIAN_POINT ( 'NONE',  ( 620.0749779447896799, -7.642379404052982217, 29.01855320557528373 ) ) ;
#34 = AXIS2_PLACEMENT_3D ( 'NONE', #109, #221, #97 ) ;
#35 = EDGE_CURVE ( 'NONE', #455, #257, #241, .T. ) ;
#36 = CARTESIAN_POINT ( 'NONE',  ( 621.7442338651211458, 9.420910545983543827, 28.48873329322621473 ) ) ;
#37 = AXIS2_PLACEMENT_3D ( 'NONE', #2, #204, #159 ) ;
#38 = DIRECTION ( 'NONE',  ( -1.000000000000000000, 0.000000000000000000, 0.000000000000000000 ) ) ;
#39 = CC_DESIGN_PERSON_AND_ORGANIZATION_ASSIGNMENT ( #423, #467, ( #490 ) ) ;
#40 =( NAMED_UNIT ( * ) PLANE_ANGLE_UNIT ( ) SI_UNIT ( $, .RADIAN. ) );
#41 = CARTESIAN_POINT ( 'NONE',  ( 660.0000000000000000, 0.000000000000000000, 0.000000000000000000 ) ) ;
#42 = EDGE_CURVE ( 'NONE', #55, #368, #479, .T. ) ;
#43 = CARTESIAN_POINT ( 'NONE',  ( 660.0000000000000000, 3.673940397442059178E-15, -30.00000000000000000 ) ) ;
#44 = CYLINDRICAL_SURFACE ( 'NONE', #284, 12.49999999999995559 ) ;
#45 = PERSON ( '未指定', '未指定', '未指定', ('未指定'), ('未指定'), ('未指定') ) ;
#46 = FACE_OUTER_BOUND ( 'NONE', #375, .T. ) ;
#47 = CARTESIAN_POINT ( 'NONE',  ( 634.4415541214721088, 11.69135109107473092, -27.62862779071558705 ) ) ;
#48 = ORIENTED_EDGE ( 'NONE', *, *, #19, .F. ) ;
#49 = DIRECTION ( 'NONE',  ( -1.000000000000000000, 0.000000000000000000, 0.000000000000000000 ) ) ;
#50 = CARTESIAN_POINT ( 'NONE',  ( 628.3487621209775398, 12.39744960585169942, -27.31858878195896523 ) ) ;
#51 = LOCAL_TIME ( 11, 35, 42.00000000000000000, #12 ) ;
#52 = DATE_AND_TIME ( #379, #201 ) ;
#53 = AXIS2_PLACEMENT_3D ( 'NONE', #408, #83, #134 ) ;
#54 = CARTESIAN_POINT ( 'NONE',  ( 622.7002605227197591, 10.15518178969211505, -28.22994989095163021 ) ) ;
#55 = VERTEX_POINT ( 'NONE', #400 ) ;
#56 = APPROVAL_ROLE ( '' ) ;
#57 = CARTESIAN_POINT ( 'NONE',  ( 623.7089241703192783, -10.83180591483412769, 27.98040622887203810 ) ) ;
#58 = DATE_AND_TIME ( #258, #176 ) ;
#59 = CARTESIAN_POINT ( 'NONE',  ( 641.6902801348691128, -4.444645362518589771, 29.67139194331620544 ) ) ;
#60 = CC_DESIGN_PERSON_AND_ORGANIZATION_ASSIGNMENT ( #373, #291, ( #363 ) ) ;
#61 = EDGE_LOOP ( 'NONE', ( #459, #181, #378, #98, #288, #225, #264, #90 ) ) ;
#62 = CALENDAR_DATE ( 2026, 8, 4 ) ;
#63 = CYLINDRICAL_SURFACE ( 'NONE', #34, 12.49999999999995559 ) ;
#64 = AXIS2_PLACEMENT_3D ( 'NONE', #91, #505, #295 ) ;
#65 = CARTESIAN_POINT ( 'NONE',  ( 640.1525122702222461, -7.303392694614116998, -29.09947157155156106 ) ) ;
#66 = CARTESIAN_POINT ( 'NONE',  ( 622.7002605227197591, -10.15518178969211505, 28.22994989095163021 ) ) ;
#67 = CARTESIAN_POINT ( 'NONE',  ( 640.1506520217751586, 7.306161754676998576, -29.09881006997220609 ) ) ;
#68 = CARTESIAN_POINT ( 'NONE',  ( 619.1819690839721488, -6.275916093230691217, 29.33850107711540645 ) ) ;
#69 = CARTESIAN_POINT ( 'NONE',  ( 618.8016471010123496, -5.569013410990558022, -29.48085473155293457 ) ) ;
#70 = LOCAL_TIME ( 11, 35, 42.00000000000000000, #464 ) ;
#71 = LINE ( 'NONE', #523, #128 ) ;
#72 = CARTESIAN_POINT ( 'NONE',  ( 617.5202695066503793, -0.8236303668694298086, -29.99153680502054797 ) ) ;
#73 = CARTESIAN_POINT ( 'NONE',  ( 617.5000000000000000, 0.4115103050098976589, 30.00000000000000355 ) ) ;
#74 = CARTESIAN_POINT ( 'NONE',  ( 624.8127554683326252, -11.38020027818918578, -27.75824159391738988 ) ) ;
#75 = CARTESIAN_POINT ( 'NONE',  ( 623.3730302103039094, 10.60642709357926350, 28.06352009252373136 ) ) ;
#76 = CARTESIAN_POINT ( 'NONE',  ( 629.1718547295195094, 12.47947560237924058, 27.28121612703109378 ) ) ;
#77 = APPROVAL_PERSON_ORGANIZATION ( #255, #118, #23 ) ;
#78 = VECTOR ( 'NONE', #200, 1000.000000000000000 ) ;
#79 = DIRECTION ( 'NONE',  ( 0.000000000000000000, 0.000000000000000000, 1.000000000000000000 ) ) ;
#80 =( LENGTH_UNIT ( ) NAMED_UNIT ( * ) SI_UNIT ( .MILLI., .METRE. ) );
#81 = ADVANCED_FACE ( 'NONE', ( #244 ), #44, .F. ) ;
#82 = CARTESIAN_POINT ( 'NONE',  ( 617.5000000000001137, 0.4118419728193290497, -30.00000000000000711 ) ) ;
#83 = DIRECTION ( 'NONE',  ( 1.000000000000000000, 0.000000000000000000, 0.000000000000000000 ) ) ;
#84 = CARTESIAN_POINT ( 'NONE',  ( 0.000000000000000000, 3.673940397442059178E-15, -30.00000000000000000 ) ) ;
#85 = CARTESIAN_POINT ( 'NONE',  ( 0.000000000000000000, 0.000000000000000000, 0.000000000000000000 ) ) ;
#86 = DIRECTION ( 'NONE',  ( -1.000000000000000000, 0.000000000000000000, 0.000000000000000000 ) ) ;
#87 = EDGE_LOOP ( 'NONE', ( #499, #333, #252, #18 ) ) ;
#88 = DIRECTION ( 'NONE',  ( -1.000000000000000000, 0.000000000000000000, 0.000000000000000000 ) ) ;
#89 = CARTESIAN_POINT ( 'NONE',  ( 629.1773654594001073, 12.47984838350862624, -27.28104532623418521 ) ) ;
#90 = ORIENTED_EDGE ( 'NONE', *, *, #231, .F. ) ;
#91 = CARTESIAN_POINT ( 'NONE',  ( 0.000000000000000000, 0.000000000000000000, 0.000000000000000000 ) ) ;
#92 = CARTESIAN_POINT ( 'NONE',  ( 635.5663810187553509, 11.22166546235478179, -27.82425704276210965 ) ) ;
#93 = LOCAL_TIME ( 11, 35, 42.00000000000000000, #502 ) ;
#94 = ORIENTED_EDGE ( 'NONE', *, *, #418, .T. ) ;
#95 = APPLICATION_CONTEXT ( 'configuration controlled 3d designs of mechanical parts and assemblies' ) ;
#96 = PERSON_AND_ORGANIZATION_ROLE ( 'design_supplier' ) ;
#97 = DIRECTION ( 'NONE',  ( 1.000000000000000000, 0.000000000000000000, 0.000000000000000000 ) ) ;
#98 = ORIENTED_EDGE ( 'NONE', *, *, #377, .T. ) ;
#99 = PERSON_AND_ORGANIZATION ( #45, #445 ) ;
#100 = CARTESIAN_POINT ( 'NONE',  ( 20.00000000000000000, 3.673940397442059178E-15, -30.00000000000000000 ) ) ;
#101 = ADVANCED_FACE ( 'NONE', ( #454 ), #124, .T. ) ;
#102 = ORIENTED_EDGE ( 'NONE', *, *, #42, .T. ) ;
#103 = DATE_TIME_ROLE ( 'creation_date' ) ;
#104 = CARTESIAN_POINT ( 'NONE',  ( 640.1506520217751586, -7.306161754676998576, 29.09881006997220609 ) ) ;
#105 = CARTESIAN_POINT ( 'NONE',  ( 618.1494999861622546, -4.060554832334806186, -29.73381296500720694 ) ) ;
#106 = CARTESIAN_POINT ( 'NONE',  ( 631.6518947734044787, -12.41780904657277063, 27.30988256800049641 ) ) ;
#107 = AXIS2_PLACEMENT_3D ( 'NONE', #265, #421, #511 ) ;
#108 = CARTESIAN_POINT ( 'NONE',  ( 640.8314825209469063, 6.292211901160619014, -29.34094507145562503 ) ) ;
#109 = CARTESIAN_POINT ( 'NONE',  ( 630.0000000000000000, 0.000000000000000000, -30.00000000000000000 ) ) ;
#110 = CARTESIAN_POINT ( 'NONE',  ( 642.5000000000000000, -2.869587368747409809E-15, -30.00000000000000000 ) ) ;
#111 = CARTESIAN_POINT ( 'NONE',  ( 639.3963846350354743, 8.253621029163509704, 28.84411767490153267 ) ) ;
#112 = CARTESIAN_POINT ( 'NONE',  ( 630.8208190417892638, -12.50020776923250132, -27.27168505572138102 ) ) ;
#113 = APPROVAL_PERSON_ORGANIZATION ( #331, #451, #56 ) ;
#114 = CARTESIAN_POINT ( 'NONE',  ( 623.7204280127527909, 10.81592228863013361, 27.98319416703971285 ) ) ;
#115 = AXIS2_PLACEMENT_3D ( 'NONE', #239, #399, #278 ) ;
#116 = CARTESIAN_POINT ( 'NONE',  ( 640.8278017898219332, -6.297690798647229471, -29.33963621086254747 ) ) ;
#117 = CARTESIAN_POINT ( 'NONE',  ( 617.6631365108930822, -2.055484771897400531, 29.93230033038580373 ) ) ;
#118 = APPROVAL ( #420, '未指定' ) ;
#119 = CARTESIAN_POINT ( 'NONE',  ( 626.7215568942294794, 12.09043735589296276, 27.45638533331272768 ) ) ;
#120 = CARTESIAN_POINT ( 'NONE',  ( 617.6023206570370121, 1.649117059806213481, 29.95748754203508923 ) ) ;
#121 = DIRECTION ( 'NONE',  ( 0.000000000000000000, 0.000000000000000000, 1.000000000000000000 ) ) ;
#122 = CARTESIAN_POINT ( 'NONE',  ( 631.6518947734044787, 12.41780904657277063, -27.30988256800049641 ) ) ;
#123 = DIRECTION ( 'NONE',  ( -1.000000000000000000, 0.000000000000000000, 0.000000000000000000 ) ) ;
#124 = CYLINDRICAL_SURFACE ( 'NONE', #37, 30.00000000000000000 ) ;
#125 = CARTESIAN_POINT ( 'NONE',  ( 642.5000000000000000, 2.869587368747409809E-15, 30.00000000000000000 ) ) ;
#126 = CARTESIAN_POINT ( 'NONE',  ( 637.2971920691745709, 10.15714436551369637, -28.22925903578857287 ) ) ;
#127 = EDGE_LOOP ( 'NONE', ( #410, #372 ) ) ;
#128 = VECTOR ( 'NONE', #26, 1000.000000000000000 ) ;
#129 = DIRECTION ( 'NONE',  ( 0.000000000000000000, 0.000000000000000000, 1.000000000000000000 ) ) ;
#130 = CIRCLE ( 'NONE', #427, 35.00000000000000000 ) ;
#131 = DIRECTION ( 'NONE',  ( -1.000000000000000000, 0.000000000000000000, 0.000000000000000000 ) ) ;
#132 = EDGE_CURVE ( 'NONE', #504, #455, #512, .T. ) ;
#133 = ORIENTED_EDGE ( 'NONE', *, *, #42, .F. ) ;
#134 = DIRECTION ( 'NONE',  ( 0.000000000000000000, 0.000000000000000000, -1.000000000000000000 ) ) ;
#135 = CARTESIAN_POINT ( 'NONE',  ( 617.6017536222245781, 1.644309090831164610, -29.95772254932828460 ) ) ;
#136 = EDGE_LOOP ( 'NONE', ( #216, #290, #16, #208 ) ) ;
#137 = APPROVAL_STATUS ( 'not_yet_approved' ) ;
#138 = CARTESIAN_POINT ( 'NONE',  ( 636.2799607076889288, -10.83874847642142569, 27.97777905679832600 ) ) ;
#139 = ORIENTED_EDGE ( 'NONE', *, *, #476, .F. ) ;
#140 = ADVANCED_FACE ( 'NONE', ( #405 ), #367, .F. ) ;
#141 = CARTESIAN_POINT ( 'NONE',  ( 639.1177001126052346, -8.560363712539064807, 28.75428515408480479 ) ) ;
#142 = ORIENTED_EDGE ( 'NONE', *, *, #35, .F. ) ;
#143 = LINE ( 'NONE', #500, #492 ) ;
#144 = CARTESIAN_POINT ( 'NONE',  ( 642.5000000000000000, -2.869587368747409809E-15, -30.00000000000000000 ) ) ;
#145 = APPROVAL_DATE_TIME ( #58, #118 ) ;
#146 = CYLINDRICAL_SURFACE ( 'NONE', #107, 30.00000000000000000 ) ;
#147 = CARTESIAN_POINT ( 'NONE',  ( 629.5848535113138951, -12.49989551701403734, -27.27182817628553479 ) ) ;
#148 = CARTESIAN_POINT ( 'NONE',  ( 638.5475960309926222, -9.129670548563893817, 28.57862588173304275 ) ) ;
#149 = CARTESIAN_POINT ( 'NONE',  ( 642.0911710716679863, -3.275044211349910306, -29.83160326011643448 ) ) ;
#150 = CARTESIAN_POINT ( 'NONE',  ( 624.8127554683326252, 11.38020027818918578, 27.75824159391738988 ) ) ;
#151 = CARTESIAN_POINT ( 'NONE',  ( 639.9113714202717347, -7.627517346555237054, -29.01596739150042126 ) ) ;
#152 = CARTESIAN_POINT ( 'NONE',  ( 641.2147935991230270, 5.582169940505264272, 29.48619244317346144 ) ) ;
#153 = EDGE_LOOP ( 'NONE', ( #170, #139 ) ) ;
#154 = EDGE_CURVE ( 'NONE', #214, #452, #143, .T. ) ;
#155 = CARTESIAN_POINT ( 'NONE',  ( 618.7952478672484631, -5.556117831094967485, 29.48328887536399279 ) ) ;
#156 = CARTESIAN_POINT ( 'NONE',  ( 618.6203646187741469, -5.188398845779339297, 29.55038544484882124 ) ) ;
#157 = CARTESIAN_POINT ( 'NONE',  ( 617.5202695066503793, 0.8236303668694298086, 29.99153680502054797 ) ) ;
#158 = CARTESIAN_POINT ( 'NONE',  ( 642.5000000000000000, 2.869587368747409809E-15, 30.00000000000000000 ) ) ;
#159 = DIRECTION ( 'NONE',  ( 0.000000000000000000, 0.000000000000000000, 1.000000000000000000 ) ) ;
#160 = CARTESIAN_POINT ( 'NONE',  ( 630.8343752007922376, 12.49946080556022920, -27.27202742589265227 ) ) ;
#161 = DIRECTION ( 'NONE',  ( 0.000000000000000000, 0.000000000000000000, 1.000000000000000000 ) ) ;
#162 = DIRECTION ( 'NONE',  ( 0.000000000000000000, 0.000000000000000000, 1.000000000000000000 ) ) ;
#163 = B_SPLINE_CURVE_WITH_KNOTS ( 'NONE', 3,
 ( #196, #73, #157, #120, #356, #438, #230, #522, #437, #315, #482, #477, #317, #237, #267, #36, #481, #75, #114, #236, #150, #198, #119, #350, #269, #76, #311, #391, #233, #393, #514, #275, #227, #189, #348, #309, #31, #474, #111, #194, #432, #29, #152, #434, #286, #491, #203, #243, #168, #125 ),
 .UNSPECIFIED., .F., .F.,
 ( 4, 2, 2, 2, 2, 2, 2, 2, 2, 2, 2, 2, 2, 2, 2, 2, 2, 2, 2, 2, 2, 2, 2, 2, 4 ),
 ( 0.03953707732116401585, 0.04077161597778256041, 0.04200615463440109804, 0.04447523194763811777, 0.04570977060425662764, 0.04694430926087514444, 0.04817884791749365431, 0.04941338657411216417, 0.05188246388734941983, 0.05311700254396804766, 0.05435154120058667548, 0.05682061851382362583, 0.05805515717044210100, 0.05928969582706057617, 0.06175877314029753345, 0.06422785045353449074, 0.06546238911015296591, 0.06669692776677144108, 0.06916600508000866898, 0.07040054373662726905, 0.07163508239324589688, 0.07410415970648293049, 0.07657323701971996410, 0.07780777567633848091, 0.07904231433295701159 ),
 .UNSPECIFIED. ) ;
#164 = FACE_BOUND ( 'NONE', #383, .T. ) ;
#165 = CC_DESIGN_APPROVAL ( #488, ( #242 ) ) ;
#166 = CARTESIAN_POINT ( 'NONE',  ( 639.9053361297491165, 7.635375613581405041, -29.01390209058563485 ) ) ;
#167 = ORIENTED_EDGE ( 'NONE', *, *, #154, .T. ) ;
#168 = CARTESIAN_POINT ( 'NONE',  ( 642.4999999999997726, 0.4177635558571289320, 29.99999999999998934 ) ) ;
#169 = CARTESIAN_POINT ( 'NONE',  ( 617.6631365108930822, 2.055484771897400531, -29.93230033038580373 ) ) ;
#170 = ORIENTED_EDGE ( 'NONE', *, *, #456, .F. ) ;
#171 = APPLICATION_PROTOCOL_DEFINITION ( 'international standard', 'config_control_design', 1994, #95 ) ;
#172 = CYLINDRICAL_SURFACE ( 'NONE', #276, 35.00000000000000000 ) ;
#173 = VERTEX_POINT ( 'NONE', #100 ) ;
#174 = COORDINATED_UNIVERSAL_TIME_OFFSET ( 8, 0, .AHEAD. ) ;
#175 = DIRECTION ( 'NONE',  ( 0.000000000000000000, 0.000000000000000000, 1.000000000000000000 ) ) ;
#176 = LOCAL_TIME ( 11, 35, 42.00000000000000000, #344 ) ;
#177 = ORIENTED_EDGE ( 'NONE', *, *, #470, .T. ) ;
#178 = VECTOR ( 'NONE', #384, 1000.000000000000000 ) ;
#179 = APPROVAL_DATE_TIME ( #52, #488 ) ;
#180 = LINE ( 'NONE', #332, #178 ) ;
#181 = ORIENTED_EDGE ( 'NONE', *, *, #35, .T. ) ;
#182 = APPROVAL_STATUS ( 'not_yet_approved' ) ;
#183 = FACE_OUTER_BOUND ( 'NONE', #61, .T. ) ;
#184 = CARTESIAN_POINT ( 'NONE',  ( 636.6275161933974687, -10.60614094333354096, -28.06363607703497465 ) ) ;
#185 = DATE_AND_TIME ( #220, #93 ) ;
#186 = CARTESIAN_POINT ( 'NONE',  ( 638.2490908971830095, -9.400313736987239821, 28.49048247367038300 ) ) ;
#187 = CARTESIAN_POINT ( 'NONE',  ( 639.3963846350354743, -8.253621029163509704, -28.84411767490153267 ) ) ;
#188 = B_SPLINE_CURVE_WITH_KNOTS ( 'NONE', 3,
 ( #466, #351, #72, #385, #349, #343, #105, #388, #69, #229, #22, #515, #509, #195, #346, #433, #390, #28, #234, #260, #74, #513, #436, #32, #310, #518, #147, #112, #431, #232, #394, #25, #271, #312, #184, #478, #392, #191, #187, #151, #65, #116, #30, #429, #149, #475, #307, #304, #473, #110 ),
 .UNSPECIFIED., .F., .F.,
 ( 4, 2, 2, 2, 2, 2, 2, 2, 2, 2, 2, 2, 2, 2, 2, 2, 2, 2, 2, 2, 2, 2, 2, 2, 4 ),
 ( 0.03953707732116401585, 0.04077161597778256041, 0.04200615463440109804, 0.04447523194763811777, 0.04570977060425662764, 0.04694430926087514444, 0.04817884791749365431, 0.04941338657411216417, 0.05188246388734941983, 0.05311700254396804766, 0.05435154120058667548, 0.05682061851382362583, 0.05805515717044210100, 0.05928969582706057617, 0.06175877314029753345, 0.06422785045353449074, 0.06546238911015296591, 0.06669692776677144108, 0.06916600508000866898, 0.07040054373662726905, 0.07163508239324589688, 0.07410415970648293049, 0.07657323701971996410, 0.07780777567633848091, 0.07904231433295701159 ),
 .UNSPECIFIED. ) ;
#189 = CARTESIAN_POINT ( 'NONE',  ( 636.2770885761868840, 10.81739557830400855, 27.98262704039220949 ) ) ;
#190 = AXIS2_PLACEMENT_3D ( 'NONE', #364, #404, #495 ) ;
#191 = CARTESIAN_POINT ( 'NONE',  ( 639.1210686861292061, -8.556911501922709107, -28.75533542189105063 ) ) ;
#192 = CARTESIAN_POINT ( 'NONE',  ( 617.6017536222245781, -1.644309090831164610, 29.95772254932828460 ) ) ;
#193 = CARTESIAN_POINT ( 'NONE',  ( 641.6902801348691128, 4.444645362518589771, -29.67139194331620544 ) ) ;
#194 = CARTESIAN_POINT ( 'NONE',  ( 639.9113714202717347, 7.627517346555237054, 29.01596739150042126 ) ) ;
#195 = CARTESIAN_POINT ( 'NONE',  ( 620.6065342160530918, -8.256915987799670731, -28.84316865067041391 ) ) ;
#196 = CARTESIAN_POINT ( 'NONE',  ( 617.5000000000000000, -5.142428993309628464E-20, 30.00000000000000000 ) ) ;
#197 = CIRCLE ( 'NONE', #263, 35.00000000000000000 ) ;
#198 = CARTESIAN_POINT ( 'NONE',  ( 625.9424808006965577, 11.85126131512300418, 27.56199093448438830 ) ) ;
#199 = DIRECTION ( 'NONE',  ( -1.000000000000000000, 0.000000000000000000, 0.000000000000000000 ) ) ;
#200 = DIRECTION ( 'NONE',  ( -1.000000000000000000, 0.000000000000000000, 0.000000000000000000 ) ) ;
#201 = LOCAL_TIME ( 11, 35, 42.00000000000000000, #174 ) ;
#202 = CARTESIAN_POINT ( 'NONE',  ( 622.3746552403507621, 9.913143528189069187, -28.31615156754977747 ) ) ;
#203 = CARTESIAN_POINT ( 'NONE',  ( 642.3959205327029167, 1.662255082487218427, 29.95675922458972096 ) ) ;
#204 = DIRECTION ( 'NONE',  ( -1.000000000000000000, 0.000000000000000000, 0.000000000000000000 ) ) ;
#205 = ADVANCED_FACE ( 'NONE', ( #376 ), #172, .T. ) ;
#206 = DIRECTION ( 'NONE',  ( -1.000000000000000000, 0.000000000000000000, 0.000000000000000000 ) ) ;
#207 = CARTESIAN_POINT ( 'NONE',  ( 618.6203646187741469, 5.188398845779339297, -29.55038544484882124 ) ) ;
#208 = ORIENTED_EDGE ( 'NONE', *, *, #470, .F. ) ;
#209 = FACE_OUTER_BOUND ( 'NONE', #494, .T. ) ;
#210 = CARTESIAN_POINT ( 'NONE',  ( 638.2490908971830095, 9.400313736987239821, -28.49048247367038300 ) ) ;
#211 = ORIENTED_EDGE ( 'NONE', *, *, #19, .T. ) ;
#212 = CALENDAR_DATE ( 2026, 8, 4 ) ;
#213 = CARTESIAN_POINT ( 'NONE',  ( 630.8343752007922376, -12.49946080556022920, 27.27202742589265227 ) ) ;
#214 = VERTEX_POINT ( 'NONE', #424 ) ;
#215 = CARTESIAN_POINT ( 'NONE',  ( 622.3746552403507621, -9.913143528189069187, 28.31615156754977747 ) ) ;
#216 = ORIENTED_EDGE ( 'NONE', *, *, #320, .F. ) ;
#217 = PERSON_AND_ORGANIZATION_ROLE ( 'creator' ) ;
#218 = CARTESIAN_POINT ( 'NONE',  ( 642.5000000000002274, -0.8362005272848775927, 30.00000000000000711 ) ) ;
#219 = APPROVAL_PERSON_ORGANIZATION ( #99, #488, #411 ) ;
#220 = CALENDAR_DATE ( 2026, 8, 4 ) ;
#221 = DIRECTION ( 'NONE',  ( 0.000000000000000000, 0.000000000000000000, 1.000000000000000000 ) ) ;
#222 = CARTESIAN_POINT ( 'NONE',  ( 641.8313382849044046, 4.054667785966453053, -29.72739946985155512 ) ) ;
#223 = ADVANCED_FACE ( 'NONE', ( #15 ), #63, .F. ) ;
#224 = DIRECTION ( 'NONE',  ( 0.000000000000000000, 0.000000000000000000, 1.000000000000000000 ) ) ;
#225 = ORIENTED_EDGE ( 'NONE', *, *, #435, .F. ) ;
#226 = PRODUCT_RELATED_PRODUCT_CATEGORY ( 'detail', '', ( #363 ) ) ;
#227 = CARTESIAN_POINT ( 'NONE',  ( 635.5552012429341175, 11.20524998566792441, 27.82958562282036752 ) ) ;
#228 = PRODUCT_DEFINITION_FORMATION_WITH_SPECIFIED_SOURCE ( '任何', '', #363, .NOT_KNOWN. ) ;
#229 = CARTESIAN_POINT ( 'NONE',  ( 619.1893225559525717, -6.288582608412286667, -29.33578761260543288 ) ) ;
#230 = CARTESIAN_POINT ( 'NONE',  ( 618.1494999861622546, 4.060554832334806186, 29.73381296500720694 ) ) ;
#231 = EDGE_CURVE ( 'NONE', #504, #448, #180, .T. ) ;
#232 = CARTESIAN_POINT ( 'NONE',  ( 633.2725212122392122, -12.09268350343611509, -27.45540214575590809 ) ) ;
#233 = CARTESIAN_POINT ( 'NONE',  ( 631.6407786099834993, 12.41975180717602711, 27.30900705532154049 ) ) ;
#234 = CARTESIAN_POINT ( 'NONE',  ( 623.7204280127527909, -10.81592228863013361, -27.98319416703971285 ) ) ;
#235 = ADVANCED_BREP_SHAPE_REPRESENTATION ( 'SHAFT_\X2\9ed88ba4\X0\_sldprt', ( #245, #64 ), #313 ) ;
#236 = CARTESIAN_POINT ( 'NONE',  ( 624.4407175640967580, 11.20319499493623461, 27.83041057277752017 ) ) ;
#237 = CARTESIAN_POINT ( 'NONE',  ( 620.6065342160530918, 8.256915987799670731, 28.84316865067041391 ) ) ;
#238 = VECTOR ( 'NONE', #38, 1000.000000000000000 ) ;
#239 = CARTESIAN_POINT ( 'NONE',  ( 20.00000000000000000, 0.000000000000000000, 0.000000000000000000 ) ) ;
#240 = CARTESIAN_POINT ( 'NONE',  ( 633.2699495029720538, 12.07174587485362238, -27.46434545554921058 ) ) ;
#241 = LINE ( 'NONE', #84, #397 ) ;
#242 = PRODUCT_DEFINITION ( '未知', '', #228, #416 ) ;
#243 = CARTESIAN_POINT ( 'NONE',  ( 642.4788299816988228, 0.8371022041523437096, 29.99116161636789712 ) ) ;
#244 = FACE_OUTER_BOUND ( 'NONE', #87, .T. ) ;
#245 = MANIFOLD_SOLID_BREP ( '输入1', #371 ) ;
#246 = EDGE_LOOP ( 'NONE', ( #142, #336, #419, #340, #406, #327, #422, #211 ) ) ;
#247 = LINE ( 'NONE', #1, #78 ) ;
#248 = CARTESIAN_POINT ( 'NONE',  ( 624.4234639206149495, 11.21746591886343758, -27.82600916148224357 ) ) ;
#249 = SHAPE_DEFINITION_REPRESENTATION ( #277, #235 ) ;
#250 = CC_DESIGN_APPROVAL ( #451, ( #490 ) ) ;
#251 = CARTESIAN_POINT ( 'NONE',  ( 626.7310200406195690, 12.09296722407085234, -27.45526627751753068 ) ) ;
#252 = ORIENTED_EDGE ( 'NONE', *, *, #337, .T. ) ;
#253 = CARTESIAN_POINT ( 'NONE',  ( 627.9402103175513048, -12.33597535780611310, 27.34650960606418124 ) ) ;
#254 = ORIENTED_EDGE ( 'NONE', *, *, #337, .F. ) ;
#255 = PERSON_AND_ORGANIZATION ( #45, #445 ) ;
#256 = CARTESIAN_POINT ( 'NONE',  ( 642.5000000000000000, -2.869587368747409809E-15, -30.00000000000000000 ) ) ;
#257 = VERTEX_POINT ( 'NONE', #256 ) ;
#258 = CALENDAR_DATE ( 2026, 8, 4 ) ;
#259 = CARTESIAN_POINT ( 'NONE',  ( 639.9053361297491165, -7.635375613581405041, 29.01390209058563485 ) ) ;
#260 = CARTESIAN_POINT ( 'NONE',  ( 624.4407175640967580, -11.20319499493623461, -27.83041057277752017 ) ) ;
#261 = PERSON_AND_ORGANIZATION ( #45, #445 ) ;
#262 = CARTESIAN_POINT ( 'NONE',  ( 629.5949883505873004, -12.50026564378527283, 27.27165852899115706 ) ) ;
#263 = AXIS2_PLACEMENT_3D ( 'NONE', #359, #49, #361 ) ;
#264 = ORIENTED_EDGE ( 'NONE', *, *, #355, .T. ) ;
#265 = CARTESIAN_POINT ( 'NONE',  ( 0.000000000000000000, 0.000000000000000000, 0.000000000000000000 ) ) ;
#266 = CARTESIAN_POINT ( 'NONE',  ( 642.4169527582837418, 1.656643325582511483, -29.96512839193697175 ) ) ;
#267 = CARTESIAN_POINT ( 'NONE',  ( 620.8810074731389932, 8.559163673651836390, 28.75467070320296870 ) ) ;
#268 = CARTESIAN_POINT ( 'NONE',  ( 642.0733823169434800, 3.264098021707954711, -29.82455823980242826 ) ) ;
#269 = CARTESIAN_POINT ( 'NONE',  ( 628.3437819529108310, 12.39677690691796208, 27.31889432243306004 ) ) ;
#270 = CC_DESIGN_PERSON_AND_ORGANIZATION_ASSIGNMENT ( #261, #96, ( #228 ) ) ;
#271 = CARTESIAN_POINT ( 'NONE',  ( 635.5552012429341175, -11.20524998566792441, -27.82958562282036752 ) ) ;
#272 = CARTESIAN_POINT ( 'NONE',  ( 642.5000000000000000, 0.000000000000000000, -30.00000000000000000 ) ) ;
#273 = DIRECTION ( 'NONE',  ( 0.000000000000000000, 0.000000000000000000, 1.000000000000000000 ) ) ;
#274 = CC_DESIGN_APPROVAL ( #118, ( #228 ) ) ;
#275 = CARTESIAN_POINT ( 'NONE',  ( 635.1865541894226226, 11.38050738658138350, 27.75811504251462836 ) ) ;
#276 = AXIS2_PLACEMENT_3D ( 'NONE', #339, #13, #506 ) ;
#277 = PRODUCT_DEFINITION_SHAPE ( 'NONE', 'NONE',  #242 ) ;
#278 = DIRECTION ( 'NONE',  ( 0.000000000000000000, 0.000000000000000000, 1.000000000000000000 ) ) ;
#279 = CARTESIAN_POINT ( 'NONE',  ( 617.5203038417006383, 0.8230731600116708568, -29.99152285733405421 ) ) ;
#280 = ADVANCED_FACE ( 'NONE', ( #183 ), #146, .T. ) ;
#281 = DIRECTION ( 'NONE',  ( -1.000000000000000000, 0.000000000000000000, 0.000000000000000000 ) ) ;
#282 = CARTESIAN_POINT ( 'NONE',  ( 660.0000000000000000, 0.000000000000000000, 0.000000000000000000 ) ) ;
#283 = CARTESIAN_POINT ( 'NONE',  ( 627.9402103175513048, 12.33597535780611310, -27.34650960606418124 ) ) ;
#284 = AXIS2_PLACEMENT_3D ( 'NONE', #353, #289, #323 ) ;
#285 = ORIENTED_EDGE ( 'NONE', *, *, #516, .T. ) ;
#286 = CARTESIAN_POINT ( 'NONE',  ( 642.0911710716679863, 3.275044211349910306, 29.83160326011643448 ) ) ;
#287 = CARTESIAN_POINT ( 'NONE',  ( 634.0574697738853729, 11.83032363264170073, -27.56919952620588887 ) ) ;
#288 = ORIENTED_EDGE ( 'NONE', *, *, #516, .F. ) ;
#289 = DIRECTION ( 'NONE',  ( 0.000000000000000000, 0.000000000000000000, 1.000000000000000000 ) ) ;
#290 = ORIENTED_EDGE ( 'NONE', *, *, #476, .T. ) ;
#291 = PERSON_AND_ORGANIZATION_ROLE ( 'design_owner' ) ;
#292 = UNCERTAINTY_MEASURE_WITH_UNIT (LENGTH_MEASURE( 1.000000000000000082E-05 ), #80, 'distance_accuracy_value', 'NONE');
#293 = CARTESIAN_POINT ( 'NONE',  ( 635.5663810187553509, -11.22166546235478179, 27.82425704276210965 ) ) ;
#294 = EDGE_LOOP ( 'NONE', ( #48, #167, #501, #254 ) ) ;
#295 = DIRECTION ( 'NONE',  ( 1.000000000000000000, 0.000000000000000000, 0.000000000000000000 ) ) ;
#296 = CARTESIAN_POINT ( 'NONE',  ( 634.0574697738853729, -11.83032363264170073, 27.56919952620588887 ) ) ;
#297 = ORIENTED_EDGE ( 'NONE', *, *, #308, .F. ) ;
#298 = DATE_AND_TIME ( #62, #51 ) ;
#299 = CARTESIAN_POINT ( 'NONE',  ( 0.000000000000000000, 0.000000000000000000, 35.00000000000000000 ) ) ;
#300 = CC_DESIGN_DATE_AND_TIME_ASSIGNMENT ( #338, #103, ( #242 ) ) ;
#301 = CARTESIAN_POINT ( 'NONE',  ( 642.5000000000002274, 0.8362005272848775927, -30.00000000000000711 ) ) ;
#302 = SECURITY_CLASSIFICATION_LEVEL ( 'unclassified' ) ;
#303 = CARTESIAN_POINT ( 'NONE',  ( 640.8314825209469063, -6.292211901160619014, 29.34094507145562503 ) ) ;
#304 = CARTESIAN_POINT ( 'NONE',  ( 642.4788299816988228, -0.8371022041523437096, -29.99116161636789712 ) ) ;
#305 = VECTOR ( 'NONE', #273, 1000.000000000000000 ) ;
#306 = CARTESIAN_POINT ( 'NONE',  ( 642.5000000000000000, 2.869587368747409809E-15, 30.00000000000000000 ) ) ;
#307 = CARTESIAN_POINT ( 'NONE',  ( 642.3959205327029167, -1.662255082487218427, -29.95675922458972096 ) ) ;
#308 = EDGE_CURVE ( 'NONE', #463, #55, #334, .T. ) ;
#309 = CARTESIAN_POINT ( 'NONE',  ( 637.6370176433645156, 9.928884525934236649, 28.31340379338247359 ) ) ;
#310 = CARTESIAN_POINT ( 'NONE',  ( 628.3437819529108310, -12.39677690691796208, -27.31889432243306004 ) ) ;
#311 = CARTESIAN_POINT ( 'NONE',  ( 629.5848535113138951, 12.49989551701403734, 27.27182817628553479 ) ) ;
#312 = CARTESIAN_POINT ( 'NONE',  ( 636.2770885761868840, -10.81739557830400855, -27.98262704039220949 ) ) ;
#313 =( GEOMETRIC_REPRESENTATION_CONTEXT ( 3 ) GLOBAL_UNCERTAINTY_ASSIGNED_CONTEXT ( ( #292 ) ) GLOBAL_UNIT_ASSIGNED_CONTEXT ( ( #80, #40, #485 ) ) REPRESENTATION_CONTEXT ( 'NONE', 'WORKASPACE' ) );
#314 = CARTESIAN_POINT ( 'NONE',  ( 619.3947516746853807, -6.629043248945210465, 29.26049185982163081 ) ) ;
#315 = CARTESIAN_POINT ( 'NONE',  ( 619.1893225559525717, 6.288582608412286667, 29.33578761260543288 ) ) ;
#316 = EDGE_CURVE ( 'NONE', #448, #452, #381, .T. ) ;
#317 = CARTESIAN_POINT ( 'NONE',  ( 620.0919951670382488, 7.631860932549563437, 29.01481928509673125 ) ) ;
#318 = CARTESIAN_POINT ( 'NONE',  ( 660.0000000000000000, 0.000000000000000000, 30.00000000000000000 ) ) ;
#319 = CARTESIAN_POINT ( 'NONE',  ( 638.5475960309926222, 9.129670548563893817, -28.57862588173304275 ) ) ;
#320 = EDGE_CURVE ( 'NONE', #414, #368, #71, .T. ) ;
#321 = CARTESIAN_POINT ( 'NONE',  ( 617.9092094382754112, 3.279581860231713275, -29.83144022144594132 ) ) ;
#322 = DIRECTION ( 'NONE',  ( 0.000000000000000000, 0.000000000000000000, 1.000000000000000000 ) ) ;
#323 = DIRECTION ( 'NONE',  ( 1.000000000000000000, 0.000000000000000000, 0.000000000000000000 ) ) ;
#324 = CARTESIAN_POINT ( 'NONE',  ( 20.00000000000000000, 4.286263797015736496E-15, -35.00000000000000000 ) ) ;
#325 = CARTESIAN_POINT ( 'NONE',  ( 636.2799607076889288, 10.83874847642142569, -27.97777905679832600 ) ) ;
#326 = VECTOR ( 'NONE', #342, 1000.000000000000000 ) ;
#327 = ORIENTED_EDGE ( 'NONE', *, *, #418, .F. ) ;
#328 = CARTESIAN_POINT ( 'NONE',  ( 0.000000000000000000, 3.673940397442059178E-15, -30.00000000000000000 ) ) ;
#329 = DIRECTION ( 'NONE',  ( 0.000000000000000000, 0.000000000000000000, 1.000000000000000000 ) ) ;
#330 = ORIENTED_EDGE ( 'NONE', *, *, #320, .T. ) ;
#331 = PERSON_AND_ORGANIZATION ( #45, #445 ) ;
#332 = CARTESIAN_POINT ( 'NONE',  ( 0.000000000000000000, 0.000000000000000000, 30.00000000000000000 ) ) ;
#333 = ORIENTED_EDGE ( 'NONE', *, *, #27, .F. ) ;
#334 = LINE ( 'NONE', #299, #326 ) ;
#335 = CIRCLE ( 'NONE', #115, 30.00000000000000000 ) ;
#336 = ORIENTED_EDGE ( 'NONE', *, *, #360, .T. ) ;
#337 = EDGE_CURVE ( 'NONE', #257, #448, #517, .T. ) ;
#338 = DATE_AND_TIME ( #212, #70 ) ;
#339 = CARTESIAN_POINT ( 'NONE',  ( 0.000000000000000000, 0.000000000000000000, 0.000000000000000000 ) ) ;
#340 = ORIENTED_EDGE ( 'NONE', *, *, #316, .T. ) ;
#341 = CC_DESIGN_PERSON_AND_ORGANIZATION_ASSIGNMENT ( #20, #217, ( #228 ) ) ;
#342 = DIRECTION ( 'NONE',  ( -1.000000000000000000, 0.000000000000000000, 0.000000000000000000 ) ) ;
#343 = CARTESIAN_POINT ( 'NONE',  ( 617.9091909345575004, -3.277893851505122580, -29.83145206736962152 ) ) ;
#344 = COORDINATED_UNIVERSAL_TIME_OFFSET ( 8, 0, .AHEAD. ) ;
#345 = CARTESIAN_POINT ( 'NONE',  ( 633.2699495029720538, -12.07174587485362238, 27.46434545554921058 ) ) ;
#346 = CARTESIAN_POINT ( 'NONE',  ( 620.8810074731389932, -8.559163673651836390, -28.75467070320296870 ) ) ;
#347 = CIRCLE ( 'NONE', #357, 35.00000000000000000 ) ;
#348 = CARTESIAN_POINT ( 'NONE',  ( 636.6275161933974687, 10.60614094333354096, 28.06363607703497465 ) ) ;
#349 = CARTESIAN_POINT ( 'NONE',  ( 617.6645502130845671, -2.063308397735454935, -29.93171877111655732 ) ) ;
#350 = CARTESIAN_POINT ( 'NONE',  ( 627.9312617603499120, 12.33448573145412297, 27.34718275248082264 ) ) ;
#351 = CARTESIAN_POINT ( 'NONE',  ( 617.5000000000000000, -0.4115103050098976589, -30.00000000000000355 ) ) ;
#352 = CARTESIAN_POINT ( 'NONE',  ( 620.5872560948477030, -8.264545032631557930, 28.84535918582430014 ) ) ;
#353 = CARTESIAN_POINT ( 'NONE',  ( 630.0000000000000000, 0.000000000000000000, -30.00000000000000000 ) ) ;
#354 = AXIS2_PLACEMENT_3D ( 'NONE', #282, #199, #129 ) ;
#355 = EDGE_CURVE ( 'NONE', #452, #448, #163, .T. ) ;
#356 = CARTESIAN_POINT ( 'NONE',  ( 617.6645502130845671, 2.063308397735454935, 29.93171877111655732 ) ) ;
#357 = AXIS2_PLACEMENT_3D ( 'NONE', #483, #123, #161 ) ;
#358 = CARTESIAN_POINT ( 'NONE',  ( 617.5203038417006383, -0.8230731600116708568, 29.99152285733405421 ) ) ;
#359 = CARTESIAN_POINT ( 'NONE',  ( 20.00000000000000000, 0.000000000000000000, 0.000000000000000000 ) ) ;
#360 = EDGE_CURVE ( 'NONE', #455, #504, #469, .T. ) ;
#361 = DIRECTION ( 'NONE',  ( 0.000000000000000000, 0.000000000000000000, 1.000000000000000000 ) ) ;
#362 = CARTESIAN_POINT ( 'NONE',  ( 639.3892989222878214, 8.261701419908675348, -28.84180585419093745 ) ) ;
#363 = PRODUCT ( 'SHAFT_\X2\9ed88ba4\X0\_sldprt', 'SHAFT_\X2\9ed88ba4\X0\_sldprt', '', ( #460 ) ) ;
#364 = CARTESIAN_POINT ( 'NONE',  ( 20.00000000000000000, 35.00000000000000000, 0.000000000000000000 ) ) ;
#365 = CARTESIAN_POINT ( 'NONE',  ( 625.9445982145379048, 11.85255300110552668, -27.56148245018291121 ) ) ;
#366 = DIRECTION ( 'NONE',  ( -1.000000000000000000, 0.000000000000000000, 0.000000000000000000 ) ) ;
#367 = PLANE ( 'NONE',  #413 ) ;
#368 = VERTEX_POINT ( 'NONE', #6 ) ;
#369 = CARTESIAN_POINT ( 'NONE',  ( 20.00000000000000000, 0.000000000000000000, 0.000000000000000000 ) ) ;
#370 = CARTESIAN_POINT ( 'NONE',  ( 621.7447510690043373, 9.395060532071045856, -28.49223915043621602 ) ) ;
#371 = CLOSED_SHELL ( 'NONE', ( #223, #280, #497, #447, #205, #407, #101, #140, #81 ) ) ;
#372 = ORIENTED_EDGE ( 'NONE', *, *, #360, .F. ) ;
#373 = PERSON_AND_ORGANIZATION ( #45, #445 ) ;
#374 = CARTESIAN_POINT ( 'NONE',  ( 629.1773654594001073, -12.47984838350862624, 27.28104532623418521 ) ) ;
#375 = EDGE_LOOP ( 'NONE', ( #102, #177 ) ) ;
#376 = FACE_OUTER_BOUND ( 'NONE', #136, .T. ) ;
#377 = EDGE_CURVE ( 'NONE', #214, #173, #487, .T. ) ;
#378 = ORIENTED_EDGE ( 'NONE', *, *, #27, .T. ) ;
#379 = CALENDAR_DATE ( 2026, 8, 4 ) ;
#380 = CARTESIAN_POINT ( 'NONE',  ( 626.7310200406195690, -12.09296722407085234, 27.45526627751753068 ) ) ;
#381 = B_SPLINE_CURVE_WITH_KNOTS ( 'NONE', 3,
 ( #306, #218, #24, #503, #472, #17, #59, #465, #303, #104, #259, #21, #141, #148, #186, #508, #430, #138, #293, #468, #296, #345, #458, #106, #213, #262, #374, #462, #253, #380, #428, #417, #57, #66, #215, #387, #389, #352, #33, #314, #68, #155, #156, #519, #480, #117, #192, #358, #398, #396 ),
 .UNSPECIFIED., .F., .F.,
 ( 4, 2, 2, 2, 2, 2, 2, 2, 2, 2, 2, 2, 2, 2, 2, 2, 2, 2, 2, 2, 2, 2, 2, 2, 4 ),
 ( 2.784358981394093452E-18, 0.002471067332572828186, 0.003706600998859273504, 0.004942134665145717087, 0.007413201997718734358, 0.008648735664005242560, 0.009884269330291753364, 0.01111980299657826243, 0.01235533666286477324, 0.01482640399543752423, 0.01606193766172389972, 0.01729747132801027348, 0.01976853866058335060, 0.02100407232686972436, 0.02223960599315609118, 0.02471067332572883524, 0.02718174065830157582, 0.02841727432458795305, 0.02965280799087432334, 0.03212387532344683494, 0.03335940898973299706, 0.03459494265601916613, 0.03706600998859162222, 0.03830154365487781903, 0.03953707732116401585 ),
 .UNSPECIFIED. ) ;
#382 = AXIS2_PLACEMENT_3D ( 'NONE', #369, #88, #322 ) ;
#383 = EDGE_LOOP ( 'NONE', ( #285, #94 ) ) ;
#384 = DIRECTION ( 'NONE',  ( -1.000000000000000000, 0.000000000000000000, 0.000000000000000000 ) ) ;
#385 = CARTESIAN_POINT ( 'NONE',  ( 617.6023206570370121, -1.649117059806213481, -29.95748754203508923 ) ) ;
#386 = APPLICATION_PROTOCOL_DEFINITION ( 'international standard', 'config_control_design', 1994, #520 ) ;
#387 = CARTESIAN_POINT ( 'NONE',  ( 621.7447510690043373, -9.395060532071045856, 28.49223915043621602 ) ) ;
#388 = CARTESIAN_POINT ( 'NONE',  ( 618.6235369711552039, -5.195594574677540045, -29.54915788582964353 ) ) ;
#389 = CARTESIAN_POINT ( 'NONE',  ( 621.4437145720113449, -9.121572933429760610, 28.58122233231156528 ) ) ;
#390 = CARTESIAN_POINT ( 'NONE',  ( 622.3670276732556204, -9.931758686102496014, -28.31236465045988382 ) ) ;
#391 = CARTESIAN_POINT ( 'NONE',  ( 630.8208190417892638, 12.50020776923250132, 27.27168505572138102 ) ) ;
#392 = CARTESIAN_POINT ( 'NONE',  ( 638.2598852579596951, -9.417155050259822247, -28.48995243007902545 ) ) ;
#393 = CARTESIAN_POINT ( 'NONE',  ( 633.2725212122392122, 12.09268350343611509, 27.45540214575590809 ) ) ;
#394 = CARTESIAN_POINT ( 'NONE',  ( 634.0573903129189830, -11.85127650474908378, -27.56198181492072763 ) ) ;
#395 = CC_DESIGN_PERSON_AND_ORGANIZATION_ASSIGNMENT ( #510, #457, ( #242 ) ) ;
#396 = CARTESIAN_POINT ( 'NONE',  ( 617.5000000000000000, -5.142428993309628464E-20, 30.00000000000000000 ) ) ;
#397 = VECTOR ( 'NONE', #446, 1000.000000000000000 ) ;
#398 = CARTESIAN_POINT ( 'NONE',  ( 617.5000000000001137, -0.4118419728193290497, 30.00000000000000711 ) ) ;
#399 = DIRECTION ( 'NONE',  ( -1.000000000000000000, 0.000000000000000000, 0.000000000000000000 ) ) ;
#400 = CARTESIAN_POINT ( 'NONE',  ( 0.000000000000000000, 0.000000000000000000, 35.00000000000000000 ) ) ;
#401 = CC_DESIGN_SECURITY_CLASSIFICATION ( #490, ( #228 ) ) ;
#402 = CARTESIAN_POINT ( 'NONE',  ( 617.5000000000000000, -5.142428993309628464E-20, 30.00000000000000000 ) ) ;
#403 = CARTESIAN_POINT ( 'NONE',  ( 632.8652781451634155, 12.17416796400204859, -27.41892687967650488 ) ) ;
#404 = DIRECTION ( 'NONE',  ( -1.000000000000000000, 0.000000000000000000, 0.000000000000000000 ) ) ;
#405 = FACE_OUTER_BOUND ( 'NONE', #127, .T. ) ;
#406 = ORIENTED_EDGE ( 'NONE', *, *, #435, .T. ) ;
#407 = ADVANCED_FACE ( 'NONE', ( #4, #164 ), #449, .F. ) ;
#408 = CARTESIAN_POINT ( 'NONE',  ( 0.000000000000000000, 0.000000000000000000, 0.000000000000000000 ) ) ;
#409 = CARTESIAN_POINT ( 'NONE',  ( 637.6245142197584528, 9.913636159173924156, -28.31595500843702951 ) ) ;
#410 = ORIENTED_EDGE ( 'NONE', *, *, #132, .F. ) ;
#411 = APPROVAL_ROLE ( '' ) ;
#412 = CARTESIAN_POINT ( 'NONE',  ( 620.0749779447896799, 7.642379404052982217, -29.01855320557528373 ) ) ;
#413 = AXIS2_PLACEMENT_3D ( 'NONE', #7, #131, #175 ) ;
#414 = VERTEX_POINT ( 'NONE', #324 ) ;
#415 = DATE_TIME_ROLE ( 'classification_date' ) ;
#416 = DESIGN_CONTEXT ( 'detailed design', #95, 'design' ) ;
#417 = CARTESIAN_POINT ( 'NONE',  ( 624.4234639206149495, -11.21746591886343758, 27.82600916148224357 ) ) ;
#418 = EDGE_CURVE ( 'NONE', #173, #8, #10, .T. ) ;
#419 = ORIENTED_EDGE ( 'NONE', *, *, #231, .T. ) ;
#420 = APPROVAL_STATUS ( 'not_yet_approved' ) ;
#421 = DIRECTION ( 'NONE',  ( -1.000000000000000000, 0.000000000000000000, 0.000000000000000000 ) ) ;
#422 = ORIENTED_EDGE ( 'NONE', *, *, #377, .F. ) ;
#423 = PERSON_AND_ORGANIZATION ( #45, #445 ) ;
#424 = CARTESIAN_POINT ( 'NONE',  ( 617.5000000000000000, 3.673991821678218782E-15, -30.00000000000000000 ) ) ;
#425 = AXIS2_PLACEMENT_3D ( 'NONE', #493, #86, #329 ) ;
#426 = CARTESIAN_POINT ( 'NONE',  ( 642.1741675243830514, 2.865037663918156063, -29.86561410464710775 ) ) ;
#427 = AXIS2_PLACEMENT_3D ( 'NONE', #85, #366, #121 ) ;
#428 = CARTESIAN_POINT ( 'NONE',  ( 625.9445982145379048, -11.85255300110552668, 27.56148245018291121 ) ) ;
#429 = CARTESIAN_POINT ( 'NONE',  ( 641.8517881171337649, -4.057996444327714336, -29.73430394171626645 ) ) ;
#430 = CARTESIAN_POINT ( 'NONE',  ( 637.2971920691745709, -10.15714436551369637, 28.22925903578857287 ) ) ;
#431 = CARTESIAN_POINT ( 'NONE',  ( 631.6407786099834993, -12.41975180717602711, -27.30900705532154049 ) ) ;
#432 = CARTESIAN_POINT ( 'NONE',  ( 640.1525122702222461, 7.303392694614116998, 29.09947157155156106 ) ) ;
#433 = CARTESIAN_POINT ( 'NONE',  ( 621.7442338651211458, -9.420910545983543827, -28.48873329322621473 ) ) ;
#434 = CARTESIAN_POINT ( 'NONE',  ( 641.8517881171337649, 4.057996444327714336, 29.73430394171626645 ) ) ;
#435 = EDGE_CURVE ( 'NONE', #452, #8, #247, .T. ) ;
#436 = CARTESIAN_POINT ( 'NONE',  ( 626.7215568942294794, -12.09043735589296276, -27.45638533331272768 ) ) ;
#437 = CARTESIAN_POINT ( 'NONE',  ( 618.8016471010123496, 5.569013410990558022, 29.48085473155293457 ) ) ;
#438 = CARTESIAN_POINT ( 'NONE',  ( 617.9091909345575004, 3.277893851505122580, 29.83145206736962152 ) ) ;
#439 = AXIS2_PLACEMENT_3D ( 'NONE', #41, #281, #162 ) ;
#440 = CARTESIAN_POINT ( 'NONE',  ( 0.000000000000000000, 0.000000000000000000, 0.000000000000000000 ) ) ;
#441 = CARTESIAN_POINT ( 'NONE',  ( 618.7952478672484631, 5.556117831094967485, -29.48328887536399279 ) ) ;
#442 = PLANE ( 'NONE',  #53 ) ;
#443 = CARTESIAN_POINT ( 'NONE',  ( 629.5949883505873004, 12.50026564378527283, -27.27165852899115706 ) ) ;
#444 = CARTESIAN_POINT ( 'NONE',  ( 20.00000000000000000, 0.000000000000000000, 35.00000000000000000 ) ) ;
#445 = ORGANIZATION ( '未指定', '未指定', '' ) ;
#446 = DIRECTION ( 'NONE',  ( -1.000000000000000000, 0.000000000000000000, 0.000000000000000000 ) ) ;
#447 = ADVANCED_FACE ( 'NONE', ( #46 ), #442, .F. ) ;
#448 = VERTEX_POINT ( 'NONE', #158 ) ;
#449 = PLANE ( 'NONE',  #190 ) ;
#450 = CARTESIAN_POINT ( 'NONE',  ( 619.1819690839721488, 6.275916093230691217, -29.33850107711540645 ) ) ;
#451 = APPROVAL ( #182, '未指定' ) ;
#452 = VERTEX_POINT ( 'NONE', #402 ) ;
#453 = APPROVAL_DATE_TIME ( #185, #451 ) ;
#454 = FACE_OUTER_BOUND ( 'NONE', #246, .T. ) ;
#455 = VERTEX_POINT ( 'NONE', #43 ) ;
#456 = EDGE_CURVE ( 'NONE', #463, #414, #347, .T. ) ;
#457 = PERSON_AND_ORGANIZATION_ROLE ( 'creator' ) ;
#458 = CARTESIAN_POINT ( 'NONE',  ( 632.8652781451634155, -12.17416796400204859, 27.41892687967650488 ) ) ;
#459 = ORIENTED_EDGE ( 'NONE', *, *, #132, .T. ) ;
#460 = MECHANICAL_CONTEXT ( 'NONE', #520, 'mechanical' ) ;
#461 = CC_DESIGN_DATE_AND_TIME_ASSIGNMENT ( #298, #415, ( #490 ) ) ;
#462 = CARTESIAN_POINT ( 'NONE',  ( 628.3487621209775398, -12.39744960585169942, 27.31858878195896523 ) ) ;
#463 = VERTEX_POINT ( 'NONE', #444 ) ;
#464 = COORDINATED_UNIVERSAL_TIME_OFFSET ( 8, 0, .AHEAD. ) ;
#465 = CARTESIAN_POINT ( 'NONE',  ( 641.2165865237653861, -5.577479258230042980, 29.48689902539442897 ) ) ;
#466 = CARTESIAN_POINT ( 'NONE',  ( 617.5000000000000000, 3.673991821678218782E-15, -30.00000000000000000 ) ) ;
#467 = PERSON_AND_ORGANIZATION_ROLE ( 'classification_officer' ) ;
#468 = CARTESIAN_POINT ( 'NONE',  ( 634.4415541214721088, -11.69135109107473092, 27.62862779071558705 ) ) ;
#469 = CIRCLE ( 'NONE', #354, 30.00000000000000000 ) ;
#470 = EDGE_CURVE ( 'NONE', #368, #55, #130, .T. ) ;
#471 = CARTESIAN_POINT ( 'NONE',  ( 641.2165865237653861, 5.577479258230042980, -29.48689902539442897 ) ) ;
#472 = CARTESIAN_POINT ( 'NONE',  ( 642.0733823169434800, -3.264098021707954711, 29.82455823980242826 ) ) ;
#473 = CARTESIAN_POINT ( 'NONE',  ( 642.4999999999997726, -0.4177635558571289320, -29.99999999999998934 ) ) ;
#474 = CARTESIAN_POINT ( 'NONE',  ( 639.1210686861292061, 8.556911501922709107, 28.75533542189105063 ) ) ;
#475 = CARTESIAN_POINT ( 'NONE',  ( 642.3343317816891158, -2.069382182409162940, -29.93125914987455261 ) ) ;
#476 = EDGE_CURVE ( 'NONE', #414, #463, #197, .T. ) ;
#477 = CARTESIAN_POINT ( 'NONE',  ( 619.8506011359581862, 7.307763255828588100, 29.09838156904863027 ) ) ;
#478 = CARTESIAN_POINT ( 'NONE',  ( 637.6370176433645156, -9.928884525934236649, -28.31340379338247359 ) ) ;
#479 = CIRCLE ( 'NONE', #425, 35.00000000000000000 ) ;
#480 = CARTESIAN_POINT ( 'NONE',  ( 617.9092094382754112, -3.279581860231713275, 29.83144022144594132 ) ) ;
#481 = CARTESIAN_POINT ( 'NONE',  ( 622.3670276732556204, 9.931758686102496014, 28.31236465045988382 ) ) ;
#482 = CARTESIAN_POINT ( 'NONE',  ( 619.3992655002227821, 6.636123052647914911, 29.25886335063790611 ) ) ;
#483 = CARTESIAN_POINT ( 'NONE',  ( 20.00000000000000000, 0.000000000000000000, 0.000000000000000000 ) ) ;
#484 = CARTESIAN_POINT ( 'NONE',  ( 618.1503376604375717, 4.061753120081120549, -29.73350318545701043 ) ) ;
#485 =( NAMED_UNIT ( * ) SI_UNIT ( $, .STERADIAN. ) SOLID_ANGLE_UNIT ( ) );
#486 = CARTESIAN_POINT ( 'NONE',  ( 621.4437145720113449, 9.121572933429760610, -28.58122233231156528 ) ) ;
#487 = LINE ( 'NONE', #328, #238 ) ;
#488 = APPROVAL ( #137, '未指定' ) ;
#489 = CARTESIAN_POINT ( 'NONE',  ( 617.5000000000000000, 3.673991821678218782E-15, -30.00000000000000000 ) ) ;
#490 = SECURITY_CLASSIFICATION ( '', '', #302 ) ;
#491 = CARTESIAN_POINT ( 'NONE',  ( 642.3343317816891158, 2.069382182409162940, 29.93125914987455261 ) ) ;
#492 = VECTOR ( 'NONE', #224, 1000.000000000000000 ) ;
#493 = CARTESIAN_POINT ( 'NONE',  ( 0.000000000000000000, 0.000000000000000000, 0.000000000000000000 ) ) ;
#494 = EDGE_LOOP ( 'NONE', ( #14, #330, #133, #297 ) ) ;
#495 = DIRECTION ( 'NONE',  ( 0.000000000000000000, 0.000000000000000000, 1.000000000000000000 ) ) ;
#496 = CARTESIAN_POINT ( 'NONE',  ( 619.3947516746853807, 6.629043248945210465, -29.26049185982163081 ) ) ;
#497 = ADVANCED_FACE ( 'NONE', ( #209 ), #9, .T. ) ;
#498 = B_SPLINE_CURVE_WITH_KNOTS ( 'NONE', 3,
 ( #144, #301, #266, #426, #268, #222, #193, #471, #108, #67, #166, #362, #3, #319, #210, #409, #126, #325, #92, #47, #287, #240, #403, #122, #160, #443, #89, #50, #283, #251, #365, #248, #5, #54, #202, #370, #486, #11, #412, #496, #450, #441, #207, #484, #321, #169, #135, #279, #82, #489 ),
 .UNSPECIFIED., .F., .F.,
 ( 4, 2, 2, 2, 2, 2, 2, 2, 2, 2, 2, 2, 2, 2, 2, 2, 2, 2, 2, 2, 2, 2, 2, 2, 4 ),
 ( 2.784358981394093452E-18, 0.002471067332572828186, 0.003706600998859273504, 0.004942134665145717087, 0.007413201997718734358, 0.008648735664005242560, 0.009884269330291753364, 0.01111980299657826243, 0.01235533666286477324, 0.01482640399543752423, 0.01606193766172389972, 0.01729747132801027348, 0.01976853866058335060, 0.02100407232686972436, 0.02223960599315609118, 0.02471067332572883524, 0.02718174065830157582, 0.02841727432458795305, 0.02965280799087432334, 0.03212387532344683494, 0.03335940898973299706, 0.03459494265601916613, 0.03706600998859162222, 0.03830154365487781903, 0.03953707732116401585 ),
 .UNSPECIFIED. ) ;
#499 = ORIENTED_EDGE ( 'NONE', *, *, #154, .F. ) ;
#500 = CARTESIAN_POINT ( 'NONE',  ( 617.5000000000000000, 1.530808498934191521E-15, -30.00000000000000000 ) ) ;
#501 = ORIENTED_EDGE ( 'NONE', *, *, #316, .F. ) ;
#502 = COORDINATED_UNIVERSAL_TIME_OFFSET ( 8, 0, .AHEAD. ) ;
#503 = CARTESIAN_POINT ( 'NONE',  ( 642.1741675243830514, -2.865037663918156063, 29.86561410464710775 ) ) ;
#504 = VERTEX_POINT ( 'NONE', #318 ) ;
#505 = DIRECTION ( 'NONE',  ( 0.000000000000000000, 0.000000000000000000, 1.000000000000000000 ) ) ;
#506 = DIRECTION ( 'NONE',  ( 0.000000000000000000, 0.000000000000000000, 1.000000000000000000 ) ) ;
#507 = CARTESIAN_POINT ( 'NONE',  ( 20.00000000000000000, 0.000000000000000000, 30.00000000000000000 ) ) ;
#508 = CARTESIAN_POINT ( 'NONE',  ( 637.6245142197584528, -9.913636159173924156, 28.31595500843702951 ) ) ;
#509 = CARTESIAN_POINT ( 'NONE',  ( 620.0919951670382488, -7.631860932549563437, -29.01481928509673125 ) ) ;
#510 = PERSON_AND_ORGANIZATION ( #45, #445 ) ;
#511 = DIRECTION ( 'NONE',  ( 0.000000000000000000, 0.000000000000000000, 1.000000000000000000 ) ) ;
#512 = CIRCLE ( 'NONE', #439, 30.00000000000000000 ) ;
#513 = CARTESIAN_POINT ( 'NONE',  ( 625.9424808006965577, -11.85126131512300418, -27.56199093448438830 ) ) ;
#514 = CARTESIAN_POINT ( 'NONE',  ( 634.0573903129189830, 11.85127650474908378, 27.56198181492072763 ) ) ;
#515 = CARTESIAN_POINT ( 'NONE',  ( 619.8506011359581862, -7.307763255828588100, -29.09838156904863027 ) ) ;
#516 = EDGE_CURVE ( 'NONE', #8, #173, #335, .T. ) ;
#517 = LINE ( 'NONE', #272, #305 ) ;
#518 = CARTESIAN_POINT ( 'NONE',  ( 629.1718547295195094, -12.47947560237924058, -27.28121612703109378 ) ) ;
#519 = CARTESIAN_POINT ( 'NONE',  ( 618.1503376604375717, -4.061753120081120549, 29.73350318545701043 ) ) ;
#520 = APPLICATION_CONTEXT ( 'configuration controlled 3d designs of mechanical parts and assemblies' ) ;
#521 = AXIS2_PLACEMENT_3D ( 'NONE', #440, #206, #79 ) ;
#522 = CARTESIAN_POINT ( 'NONE',  ( 618.6235369711552039, 5.195594574677540045, 29.54915788582964353 ) ) ;
#523 = CARTESIAN_POINT ( 'NONE',  ( 0.000000000000000000, 4.286263797015736496E-15, -35.00000000000000000 ) ) ;
ENDSEC;
END-ISO-10303-21;
