ISO-10303-21;
HEADER;
FILE_DESCRIPTION (( 'STEP AP203' ),
    '1' );
FILE_NAME ('SHAFT 07_默认_sldprt.STEP',
    '2026-04-08T03:35:40',
    ( '' ),
    ( '' ),
    'SwSTEP 2.0',
    'SolidWorks 2022',
    '' );
FILE_SCHEMA (( 'CONFIG_CONTROL_DESIGN' ));
ENDSEC;

DATA;
#1 = CARTESIAN_POINT ( 'NONE',  ( 422.5606211911174341, 0.9832625766564727643, -29.98489290977617117 ) ) ;
#2 = CARTESIAN_POINT ( 'NONE',  ( 430.9804303353270711, 7.451838451150900156, 29.05993554484959063 ) ) ;
#3 = EDGE_LOOP ( 'NONE', ( #197, #125, #245, #431, #83, #322, #358, #43 ) ) ;
#4 = APPROVAL_PERSON_ORGANIZATION ( #344, #369, #273 ) ;
#5 = CARTESIAN_POINT ( 'NONE',  ( 422.5476456559749181, 0.9794806813873925266, 29.98797605177512438 ) ) ;
#6 = CC_DESIGN_APPROVAL ( #369, ( #114 ) ) ;
#7 = VERTEX_POINT ( 'NONE', #129 ) ;
#8 = COORDINATED_UNIVERSAL_TIME_OFFSET ( 8, 0, .AHEAD. ) ;
#9 = CARTESIAN_POINT ( 'NONE',  ( 424.8673689604307810, 5.474109022542856806, 29.49686430768515066 ) ) ;
#10 = DIRECTION ( 'NONE',  ( -1.000000000000000000, 0.000000000000000000, 0.000000000000000000 ) ) ;
#11 = DIRECTION ( 'NONE',  ( -1.000000000000000000, 0.000000000000000000, 0.000000000000000000 ) ) ;
#12 = EDGE_LOOP ( 'NONE', ( #284, #363 ) ) ;
#13 = AXIS2_PLACEMENT_3D ( 'NONE', #18, #411, #134 ) ;
#14 = DIRECTION ( 'NONE',  ( 0.000000000000000000, 0.000000000000000000, 1.000000000000000000 ) ) ;
#15 = CYLINDRICAL_SURFACE ( 'NONE', #479, 7.500000000000007105 ) ;
#16 = ADVANCED_FACE ( 'NONE', ( #505 ), #281, .F. ) ;
#17 = LINE ( 'NONE', #255, #184 ) ;
#18 = CARTESIAN_POINT ( 'NONE',  ( 0.000000000000000000, 0.000000000000000000, 0.000000000000000000 ) ) ;
#19 = DIRECTION ( 'NONE',  ( 0.000000000000000000, 0.000000000000000000, 1.000000000000000000 ) ) ;
#20 = CARTESIAN_POINT ( 'NONE',  ( 434.5807821420978598, 5.958973722094059511, -29.40355698278097307 ) ) ;
#21 = DIRECTION ( 'NONE',  ( -1.000000000000000000, 0.000000000000000000, 0.000000000000000000 ) ) ;
#22 = EDGE_CURVE ( 'NONE', #250, #465, #323, .T. ) ;
#23 = CARTESIAN_POINT ( 'NONE',  ( 437.5000000000000000, 1.055639116014359845E-15, -30.00000000000000000 ) ) ;
#24 = CARTESIAN_POINT ( 'NONE',  ( 428.5253702175074864, -7.365788337660883478, -29.08181996851923401 ) ) ;
#25 = CARTESIAN_POINT ( 'NONE',  ( 431.9510732255687913, 7.245951031218154981, -29.11188152886204250 ) ) ;
#26 = AXIS2_PLACEMENT_3D ( 'NONE', #120, #196, #247 ) ;
#27 = CARTESIAN_POINT ( 'NONE',  ( 437.3071187278068805, -1.707652680602064654, 29.95232584805419052 ) ) ;
#28 = CARTESIAN_POINT ( 'NONE',  ( 426.6731915203246785, 6.726254618436413146, -29.23647735643820411 ) ) ;
#29 = CARTESIAN_POINT ( 'NONE',  ( 428.0489514086905842, -7.258427441106793054, 29.10884893719727629 ) ) ;
#30 = CALENDAR_DATE ( 2026, 8, 4 ) ;
#31 = CARTESIAN_POINT ( 'NONE',  ( 436.0946531463458200, -4.377862026849593136, -29.67957032641513848 ) ) ;
#32 = CARTESIAN_POINT ( 'NONE',  ( 0.000000000000000000, 0.000000000000000000, 0.000000000000000000 ) ) ;
#33 = CARTESIAN_POINT ( 'NONE',  ( 427.5811138524728108, -7.103464565505893447, -29.14697596698292159 ) ) ;
#34 = VECTOR ( 'NONE', #53, 1000.000000000000000 ) ;
#35 = ORIENTED_EDGE ( 'NONE', *, *, #131, .F. ) ;
#36 = CARTESIAN_POINT ( 'NONE',  ( 423.4964561479172858, -3.767222364970466586, 29.76534298343983664 ) ) ;
#37 = ORIENTED_EDGE ( 'NONE', *, *, #298, .F. ) ;
#38 = CC_DESIGN_PERSON_AND_ORGANIZATION_ASSIGNMENT ( #482, #204, ( #393 ) ) ;
#39 = DATE_AND_TIME ( #30, #119 ) ;
#40 = CARTESIAN_POINT ( 'NONE',  ( 425.6263800944239506, 6.097607577758229702, 29.37411059642588995 ) ) ;
#41 = ORIENTED_EDGE ( 'NONE', *, *, #46, .T. ) ;
#42 = CARTESIAN_POINT ( 'NONE',  ( 434.3709314595448632, 6.099624826751242956, 29.37369707674586650 ) ) ;
#43 = ORIENTED_EDGE ( 'NONE', *, *, #105, .F. ) ;
#44 = VECTOR ( 'NONE', #448, 1000.000000000000000 ) ;
#45 = MANIFOLD_SOLID_BREP ( '输入1', #135 ) ;
#46 = EDGE_CURVE ( 'NONE', #465, #51, #443, .T. ) ;
#47 = CARTESIAN_POINT ( 'NONE',  ( 423.1665960971872096, 3.100705601562545155, 29.84019265033174761 ) ) ;
#48 = CARTESIAN_POINT ( 'NONE',  ( 20.00000000000000000, 0.000000000000000000, 0.000000000000000000 ) ) ;
#49 = SHAPE_DEFINITION_REPRESENTATION ( #285, #270 ) ;
#50 = CARTESIAN_POINT ( 'NONE',  ( 425.0524552059723646, -5.641953339250024513, 29.46512147886505417 ) ) ;
#51 = VERTEX_POINT ( 'NONE', #88 ) ;
#52 = CARTESIAN_POINT ( 'NONE',  ( 425.6264433111927019, 6.097655605946252777, -29.37410078798697910 ) ) ;
#53 = DIRECTION ( 'NONE',  ( 0.000000000000000000, 0.000000000000000000, 1.000000000000000000 ) ) ;
#54 = FACE_OUTER_BOUND ( 'NONE', #3, .T. ) ;
#55 = CARTESIAN_POINT ( 'NONE',  ( 424.0399869628956253, -4.579089799194183463, -29.65132052211539815 ) ) ;
#56 = DIRECTION ( 'NONE',  ( -1.000000000000000000, 0.000000000000000000, 0.000000000000000000 ) ) ;
#57 = CARTESIAN_POINT ( 'NONE',  ( 20.00000000000000000, 4.286263797015736496E-15, -35.00000000000000000 ) ) ;
#58 = AXIS2_PLACEMENT_3D ( 'NONE', #48, #10, #207 ) ;
#59 = APPROVAL ( #74, '未指定' ) ;
#60 = PLANE ( 'NONE',  #425 ) ;
#61 = CYLINDRICAL_SURFACE ( 'NONE', #293, 30.00000000000000000 ) ;
#62 = CARTESIAN_POINT ( 'NONE',  ( 437.1037601261867280, -2.418161407108511796, 29.90332002540619882 ) ) ;
#63 = CARTESIAN_POINT ( 'NONE',  ( 437.0196457003661408, 2.652345673097039391, -29.88339017209212400 ) ) ;
#64 = CARTESIAN_POINT ( 'NONE',  ( 434.5807821420978598, -5.958973722094059511, 29.40355698278097307 ) ) ;
#65 = CARTESIAN_POINT ( 'NONE',  ( 422.5000000000000000, 7.418410087374944410E-21, 30.00000000000000000 ) ) ;
#66 = AXIS2_PLACEMENT_3D ( 'NONE', #179, #373, #172 ) ;
#67 = CARTESIAN_POINT ( 'NONE',  ( 436.5051833849608443, -3.764901158012457394, -29.76568161519924516 ) ) ;
#68 = ORIENTED_EDGE ( 'NONE', *, *, #22, .T. ) ;
#69 = CARTESIAN_POINT ( 'NONE',  ( 422.5120066071089013, 0.4910369687930161153, -29.99699136247962628 ) ) ;
#70 = CARTESIAN_POINT ( 'NONE',  ( 437.1115035431938622, -2.432189754007009874, -29.90468273597378612 ) ) ;
#71 = ORIENTED_EDGE ( 'NONE', *, *, #372, .T. ) ;
#72 = EDGE_CURVE ( 'NONE', #394, #436, #355, .T. ) ;
#73 = CARTESIAN_POINT ( 'NONE',  ( 431.9437080713406090, -7.260381455397897810, -29.10835981801410099 ) ) ;
#74 = APPROVAL_STATUS ( 'not_yet_approved' ) ;
#75 = CC_DESIGN_PERSON_AND_ORGANIZATION_ASSIGNMENT ( #395, #434, ( #114 ) ) ;
#76 = CARTESIAN_POINT ( 'NONE',  ( 424.3489552041647244, 4.955277654340120463, 29.59001043722526347 ) ) ;
#77 = VECTOR ( 'NONE', #155, 1000.000000000000000 ) ;
#78 = DATE_AND_TIME ( #390, #342 ) ;
#79 = CARTESIAN_POINT ( 'NONE',  ( 430.4923495973503691, 7.500154075971718015, 29.04733531431285698 ) ) ;
#80 = ORIENTED_EDGE ( 'NONE', *, *, #165, .F. ) ;
#81 = CARTESIAN_POINT ( 'NONE',  ( 422.5000000000000000, 3.673932979016063634E-15, -30.00000000000000000 ) ) ;
#82 = CARTESIAN_POINT ( 'NONE',  ( 433.3269368689221324, 6.739531184340663117, 29.23381484922108342 ) ) ;
#83 = ORIENTED_EDGE ( 'NONE', *, *, #476, .F. ) ;
#84 = CALENDAR_DATE ( 2026, 8, 4 ) ;
#85 = DIRECTION ( 'NONE',  ( 0.000000000000000000, 0.000000000000000000, 1.000000000000000000 ) ) ;
#86 = ORIENTED_EDGE ( 'NONE', *, *, #418, .T. ) ;
#87 = CARTESIAN_POINT ( 'NONE',  ( 422.5606211911174910, -0.9832625766564696557, 29.98489290977617472 ) ) ;
#88 = CARTESIAN_POINT ( 'NONE',  ( 0.000000000000000000, 4.286263797015736496E-15, -35.00000000000000000 ) ) ;
#89 = EDGE_CURVE ( 'NONE', #279, #192, #248, .T. ) ;
#90 = CARTESIAN_POINT ( 'NONE',  ( 430.9825142430076994, 7.451765871373286387, -29.05995741359842555 ) ) ;
#91 = CARTESIAN_POINT ( 'NONE',  ( 430.0000000000000000, 0.000000000000000000, -30.00000000000000000 ) ) ;
#92 = DIRECTION ( 'NONE',  ( 0.000000000000000000, 0.000000000000000000, 1.000000000000000000 ) ) ;
#93 = DATE_TIME_ROLE ( 'classification_date' ) ;
#94 = VECTOR ( 'NONE', #56, 1000.000000000000000 ) ;
#95 = CARTESIAN_POINT ( 'NONE',  ( 440.0000000000000000, 0.000000000000000000, 0.000000000000000000 ) ) ;
#96 = LOCAL_TIME ( 11, 35, 40.00000000000000000, #8 ) ;
#97 = PLANE ( 'NONE',  #332 ) ;
#98 = APPROVAL ( #326, '未指定' ) ;
#99 = DIRECTION ( 'NONE',  ( -1.000000000000000000, 0.000000000000000000, 0.000000000000000000 ) ) ;
#100 = CARTESIAN_POINT ( 'NONE',  ( 423.5037438589882868, -3.756228388379396765, -29.76471930061524063 ) ) ;
#101 = CARTESIAN_POINT ( 'NONE',  ( 20.00000000000000000, 0.000000000000000000, 0.000000000000000000 ) ) ;
#102 = CIRCLE ( 'NONE', #315, 35.00000000000000000 ) ;
#103 = DIRECTION ( 'NONE',  ( 0.000000000000000000, 0.000000000000000000, 1.000000000000000000 ) ) ;
#104 = CARTESIAN_POINT ( 'NONE',  ( 437.5000000000001705, 0.4975349096369345858, 30.00000000000000355 ) ) ;
#105 = EDGE_CURVE ( 'NONE', #7, #192, #17, .T. ) ;
#106 = CARTESIAN_POINT ( 'NONE',  ( 437.4999999999999432, -0.4975349096369353075, -29.99999999999999289 ) ) ;
#107 = DIRECTION ( 'NONE',  ( 0.000000000000000000, 0.000000000000000000, 1.000000000000000000 ) ) ;
#108 = CARTESIAN_POINT ( 'NONE',  ( 431.9510732255687344, -7.245951031218156757, 29.11188152886203895 ) ) ;
#109 = CARTESIAN_POINT ( 'NONE',  ( 426.6731915203246217, -6.726254618436411370, 29.23647735643820411 ) ) ;
#110 = APPROVAL_PERSON_ORGANIZATION ( #238, #59, #113 ) ;
#111 = CARTESIAN_POINT ( 'NONE',  ( 426.8975496660465865, -6.832681869155027066, 29.21170801783075888 ) ) ;
#112 = EDGE_LOOP ( 'NONE', ( #240, #159, #501, #400, #481, #317, #35, #122 ) ) ;
#113 = APPROVAL_ROLE ( '' ) ;
#114 = PRODUCT_DEFINITION ( '未知', '', #186, #309 ) ;
#115 = CARTESIAN_POINT ( 'NONE',  ( 422.5000000000000000, 7.418410087374944410E-21, 30.00000000000000000 ) ) ;
#116 = CARTESIAN_POINT ( 'NONE',  ( 422.5974646534757539, 1.230095523224919773, -29.97574577311584676 ) ) ;
#117 = CARTESIAN_POINT ( 'NONE',  ( 0.000000000000000000, 0.000000000000000000, 35.00000000000000000 ) ) ;
#118 = ORIENTED_EDGE ( 'NONE', *, *, #89, .T. ) ;
#119 = LOCAL_TIME ( 11, 35, 40.00000000000000000, #195 ) ;
#120 = CARTESIAN_POINT ( 'NONE',  ( 0.000000000000000000, 0.000000000000000000, 0.000000000000000000 ) ) ;
#121 = ADVANCED_FACE ( 'NONE', ( #54 ), #416, .T. ) ;
#122 = ORIENTED_EDGE ( 'NONE', *, *, #259, .T. ) ;
#123 = DATE_AND_TIME ( #84, #96 ) ;
#124 = CARTESIAN_POINT ( 'NONE',  ( 425.6264433111928156, -6.097655605946253665, 29.37410078798698621 ) ) ;
#125 = ORIENTED_EDGE ( 'NONE', *, *, #170, .T. ) ;
#126 = CARTESIAN_POINT ( 'NONE',  ( 423.2608570180912011, -3.327795449961935770, 29.81832724936132450 ) ) ;
#127 = ORIENTED_EDGE ( 'NONE', *, *, #352, .F. ) ;
#128 = CARTESIAN_POINT ( 'NONE',  ( 426.0315601307016777, 6.368742968804856019, -29.31651947262572122 ) ) ;
#129 = CARTESIAN_POINT ( 'NONE',  ( 440.0000000000000000, 0.000000000000000000, 30.00000000000000000 ) ) ;
#130 = APPROVAL_DATE_TIME ( #123, #98 ) ;
#131 = EDGE_CURVE ( 'NONE', #394, #200, #257, .T. ) ;
#132 = CARTESIAN_POINT ( 'NONE',  ( 435.9469883213742492, 4.576366562774983215, 29.64951015493231523 ) ) ;
#133 = CARTESIAN_POINT ( 'NONE',  ( 422.5000000000000000, 3.673932979016063634E-15, -30.00000000000000000 ) ) ;
#134 = DIRECTION ( 'NONE',  ( 0.000000000000000000, 0.000000000000000000, 1.000000000000000000 ) ) ;
#135 = CLOSED_SHELL ( 'NONE', ( #246, #121, #209, #243, #334, #205, #387, #444, #16 ) ) ;
#136 = FACE_BOUND ( 'NONE', #405, .T. ) ;
#137 = LINE ( 'NONE', #370, #94 ) ;
#138 = CARTESIAN_POINT ( 'NONE',  ( 436.0946531463458200, 4.377862026849593136, 29.67957032641513848 ) ) ;
#139 = CARTESIAN_POINT ( 'NONE',  ( 0.000000000000000000, 0.000000000000000000, 0.000000000000000000 ) ) ;
#140 = B_SPLINE_CURVE_WITH_KNOTS ( 'NONE', 3,
 ( #133, #451, #490, #290, #297, #254, #412, #100, #452, #55, #375, #217, #385, #145, #345, #427, #194, #351, #33, #230, #24, #503, #147, #464, #343, #262, #73, #338, #191, #231, #311, #457, #495, #181, #377, #260, #347, #31, #67, #379, #70, #498, #152, #106, #302 ),
 .UNSPECIFIED., .F., .F.,
 ( 4, 2, 2, 2, 2, 2, 2, 2, 2, 2, 1, 2, 2, 2, 2, 2, 2, 2, 2, 2, 2, 2, 4 ),
 ( 0.02354211194794776293, 0.02501309743367226279, 0.02648408291939676265, 0.02721957566225898309, 0.02795506840512120006, 0.02942605389084572767, 0.03016154663370804873, 0.03089703937657037325, 0.03236802486229488351, 0.03310351760515713865, 0.03383901034801939378, 0.03457450309088164198, 0.03530999583374390405, 0.03678098131946857391, 0.03825196680519324377, 0.03972295229091792057, 0.04045844503378025203, 0.04119393777664259043, 0.04192943051950492883, 0.04266492326236726723, 0.04413590874809203424, 0.04560689423381680124, 0.04707787971954156825 ),
 .UNSPECIFIED. ) ;
#141 = CARTESIAN_POINT ( 'NONE',  ( 422.5000000000000000, 3.673932979016063634E-15, -30.00000000000000000 ) ) ;
#142 = EDGE_CURVE ( 'NONE', #436, #361, #137, .T. ) ;
#143 = CARTESIAN_POINT ( 'NONE',  ( 435.6382405445001496, -4.951834820701799700, 29.58912519524126949 ) ) ;
#144 = CARTESIAN_POINT ( 'NONE',  ( 429.5117689435903117, 7.500205360646866382, -29.04732207266959776 ) ) ;
#145 = CARTESIAN_POINT ( 'NONE',  ( 425.4301489099078708, -5.952042260788879879, -29.40405481820603484 ) ) ;
#146 = PERSON_AND_ORGANIZATION ( #296, #380 ) ;
#147 = CARTESIAN_POINT ( 'NONE',  ( 429.5009593062283670, -7.487435690219312434, -29.05062726243437510 ) ) ;
#148 = APPROVAL_DATE_TIME ( #39, #59 ) ;
#149 = CARTESIAN_POINT ( 'NONE',  ( 437.2473696846849975, -1.945904718823572743, 29.93776057018875392 ) ) ;
#150 = CC_DESIGN_DATE_AND_TIME_ASSIGNMENT ( #78, #310, ( #114 ) ) ;
#151 = APPLICATION_PROTOCOL_DEFINITION ( 'international standard', 'config_control_design', 1994, #392 ) ;
#152 = CARTESIAN_POINT ( 'NONE',  ( 437.4509719814529376, -0.9878754551366497605, -29.98763414317784992 ) ) ;
#153 = DIRECTION ( 'NONE',  ( 0.000000000000000000, 0.000000000000000000, 1.000000000000000000 ) ) ;
#154 = CARTESIAN_POINT ( 'NONE',  ( 429.5009593062283102, 7.487435690219312434, 29.05062726243437865 ) ) ;
#155 = DIRECTION ( 'NONE',  ( 0.000000000000000000, 0.000000000000000000, 1.000000000000000000 ) ) ;
#156 = APPLICATION_PROTOCOL_DEFINITION ( 'international standard', 'config_control_design', 1994, #263 ) ;
#157 = CARTESIAN_POINT ( 'NONE',  ( 422.5120066071089582, -0.4910369687930125071, 29.99699136247963693 ) ) ;
#158 = AXIS2_PLACEMENT_3D ( 'NONE', #95, #413, #294 ) ;
#159 = ORIENTED_EDGE ( 'NONE', *, *, #352, .T. ) ;
#160 = CARTESIAN_POINT ( 'NONE',  ( 434.5695862971853671, 5.952199761782162035, 29.40401886732306025 ) ) ;
#161 = ORIENTED_EDGE ( 'NONE', *, *, #22, .F. ) ;
#162 = APPROVAL_ROLE ( '' ) ;
#163 = CARTESIAN_POINT ( 'NONE',  ( 432.4223655301839813, 7.114909328492518448, 29.14472982325569106 ) ) ;
#164 = ORIENTED_EDGE ( 'NONE', *, *, #476, .T. ) ;
#165 = EDGE_CURVE ( 'NONE', #51, #189, #202, .T. ) ;
#166 = SECURITY_CLASSIFICATION_LEVEL ( 'unclassified' ) ;
#167 = CARTESIAN_POINT ( 'NONE',  ( 423.5037438589882868, 3.756228388379402983, 29.76471930061524063 ) ) ;
#168 = ORIENTED_EDGE ( 'NONE', *, *, #89, .F. ) ;
#169 = CIRCLE ( 'NONE', #366, 30.00000000000000000 ) ;
#170 = EDGE_CURVE ( 'NONE', #468, #279, #371, .T. ) ;
#171 = CARTESIAN_POINT ( 'NONE',  ( 429.0124792552373947, 7.450916876608289385, -29.06017365853578127 ) ) ;
#172 = DIRECTION ( 'NONE',  ( 0.000000000000000000, 0.000000000000000000, 1.000000000000000000 ) ) ;
#173 = PERSON_AND_ORGANIZATION ( #296, #380 ) ;
#174 = CARTESIAN_POINT ( 'NONE',  ( 0.000000000000000000, 0.000000000000000000, 35.00000000000000000 ) ) ;
#175 = DIRECTION ( 'NONE',  ( 0.000000000000000000, 0.000000000000000000, -1.000000000000000000 ) ) ;
#176 = DIRECTION ( 'NONE',  ( 1.000000000000000000, 0.000000000000000000, 0.000000000000000000 ) ) ;
#177 = CC_DESIGN_APPROVAL ( #98, ( #393 ) ) ;
#178 = CARTESIAN_POINT ( 'NONE',  ( 437.1115035431939759, 2.432189754007010318, 29.90468273597379678 ) ) ;
#179 = CARTESIAN_POINT ( 'NONE',  ( 0.000000000000000000, 0.000000000000000000, 0.000000000000000000 ) ) ;
#180 = CARTESIAN_POINT ( 'NONE',  ( 437.2576339179962019, 1.954387703503995155, 29.94018149785235394 ) ) ;
#181 = CARTESIAN_POINT ( 'NONE',  ( 435.1281217759946003, -5.478282120341717132, -29.49608364240711822 ) ) ;
#182 = EDGE_LOOP ( 'NONE', ( #242, #86, #473, #80 ) ) ;
#183 = CARTESIAN_POINT ( 'NONE',  ( 431.7093672621809333, 7.306784571400266159, -29.09662152377190125 ) ) ;
#184 = VECTOR ( 'NONE', #336, 1000.000000000000000 ) ;
#185 = CARTESIAN_POINT ( 'NONE',  ( 435.4739708784138088, -5.132734866319894174, 29.55817372314890434 ) ) ;
#186 = PRODUCT_DEFINITION_FORMATION_WITH_SPECIFIED_SOURCE ( '任何', '', #234, .NOT_KNOWN. ) ;
#187 = CARTESIAN_POINT ( 'NONE',  ( 426.2408421516564090, 6.494527552002064219, -29.28882417035287844 ) ) ;
#188 = CARTESIAN_POINT ( 'NONE',  ( 427.5804393426315642, -7.116086327766453223, 29.14445097702282084 ) ) ;
#189 = VERTEX_POINT ( 'NONE', #174 ) ;
#190 = CARTESIAN_POINT ( 'NONE',  ( 425.4306088535706181, 5.952352603980907375, -29.40398816018723238 ) ) ;
#191 = CARTESIAN_POINT ( 'NONE',  ( 433.3269368689221324, -6.739531184340663117, -29.23381484922108342 ) ) ;
#192 = VERTEX_POINT ( 'NONE', #251 ) ;
#193 = AXIS2_PLACEMENT_3D ( 'NONE', #91, #320, #441 ) ;
#194 = CARTESIAN_POINT ( 'NONE',  ( 426.6637639493748111, -6.735247220974182270, -29.23481582659698219 ) ) ;
#195 = COORDINATED_UNIVERSAL_TIME_OFFSET ( 8, 0, .AHEAD. ) ;
#196 = DIRECTION ( 'NONE',  ( -1.000000000000000000, 0.000000000000000000, 0.000000000000000000 ) ) ;
#197 = ORIENTED_EDGE ( 'NONE', *, *, #253, .T. ) ;
#198 = APPROVAL_DATE_TIME ( #271, #369 ) ;
#199 = CARTESIAN_POINT ( 'NONE',  ( 427.5811138524729245, 7.103464565505895223, 29.14697596698292870 ) ) ;
#200 = VERTEX_POINT ( 'NONE', #408 ) ;
#201 = CARTESIAN_POINT ( 'NONE',  ( 425.0504561429189039, 5.640244823291319598, 29.46545240038947000 ) ) ;
#202 = CIRCLE ( 'NONE', #66, 35.00000000000000000 ) ;
#203 = ORIENTED_EDGE ( 'NONE', *, *, #253, .F. ) ;
#204 = PERSON_AND_ORGANIZATION_ROLE ( 'classification_officer' ) ;
#205 = ADVANCED_FACE ( 'NONE', ( #220, #136 ), #60, .F. ) ;
#206 = CARTESIAN_POINT ( 'NONE',  ( 422.8854243124962409, 2.423210534174096153, 29.90541658718312235 ) ) ;
#207 = DIRECTION ( 'NONE',  ( 0.000000000000000000, 0.000000000000000000, 1.000000000000000000 ) ) ;
#208 = CARTESIAN_POINT ( 'NONE',  ( 440.0000000000000000, 0.000000000000000000, 0.000000000000000000 ) ) ;
#209 = ADVANCED_FACE ( 'NONE', ( #333 ), #218, .T. ) ;
#210 = CARTESIAN_POINT ( 'NONE',  ( 0.000000000000000000, 4.286263797015736496E-15, -35.00000000000000000 ) ) ;
#211 = CARTESIAN_POINT ( 'NONE',  ( 435.4724339029295379, 5.134362191894081384, 29.55788981156098316 ) ) ;
#212 = CARTESIAN_POINT ( 'NONE',  ( 0.000000000000000000, 0.000000000000000000, 0.000000000000000000 ) ) ;
#213 = VECTOR ( 'NONE', #216, 1000.000000000000000 ) ;
#214 = PERSON_AND_ORGANIZATION_ROLE ( 'design_supplier' ) ;
#215 = LOCAL_TIME ( 11, 35, 40.00000000000000000, #460 ) ;
#216 = DIRECTION ( 'NONE',  ( -1.000000000000000000, 0.000000000000000000, 0.000000000000000000 ) ) ;
#217 = CARTESIAN_POINT ( 'NONE',  ( 424.8673689604307810, -5.474109022542857694, -29.49686430768515777 ) ) ;
#218 = CYLINDRICAL_SURFACE ( 'NONE', #13, 35.00000000000000000 ) ;
#219 = CARTESIAN_POINT ( 'NONE',  ( 436.7366890706829849, 3.332937694888594482, -29.81776834892824013 ) ) ;
#220 = FACE_OUTER_BOUND ( 'NONE', #226, .T. ) ;
#221 = DIRECTION ( 'NONE',  ( 0.000000000000000000, 0.000000000000000000, 1.000000000000000000 ) ) ;
#222 = CARTESIAN_POINT ( 'NONE',  ( 436.5061101351569164, -3.763005127084286361, 29.76589728466430174 ) ) ;
#223 = CC_DESIGN_PERSON_AND_ORGANIZATION_ASSIGNMENT ( #307, #214, ( #186 ) ) ;
#224 = DIRECTION ( 'NONE',  ( -1.000000000000000000, 0.000000000000000000, 0.000000000000000000 ) ) ;
#225 = CARTESIAN_POINT ( 'NONE',  ( 433.3281545754524586, -6.738822152118832065, 29.23397560473591739 ) ) ;
#226 = EDGE_LOOP ( 'NONE', ( #161, #428 ) ) ;
#227 = CARTESIAN_POINT ( 'NONE',  ( 437.4509719814531081, 0.9878754551366482062, 29.98763414317786413 ) ) ;
#228 = CARTESIAN_POINT ( 'NONE',  ( 430.9825142430077562, -7.451765871373288164, 29.05995741359843976 ) ) ;
#229 = COORDINATED_UNIVERSAL_TIME_OFFSET ( 8, 0, .AHEAD. ) ;
#230 = CARTESIAN_POINT ( 'NONE',  ( 428.0506328248794716, -7.246391284264161570, -29.11177133409470841 ) ) ;
#231 = CARTESIAN_POINT ( 'NONE',  ( 433.7575460812894335, -6.509432145096924138, -29.28660624043990524 ) ) ;
#232 = UNCERTAINTY_MEASURE_WITH_UNIT (LENGTH_MEASURE( 1.000000000000000082E-05 ), #268, 'distance_accuracy_value', 'NONE');
#233 = VECTOR ( 'NONE', #401, 1000.000000000000000 ) ;
#234 = PRODUCT ( 'SHAFT 07_\X2\9ed88ba4\X0\_sldprt', 'SHAFT 07_\X2\9ed88ba4\X0\_sldprt', '', ( #346 ) ) ;
#235 = B_SPLINE_CURVE_WITH_KNOTS ( 'NONE', 3,
 ( #424, #419, #269, #27, #149, #62, #421, #267, #222, #493, #306, #143, #185, #461, #64, #388, #225, #304, #459, #108, #265, #228, #308, #382, #463, #29, #188, #111, #109, #430, #283, #124, #239, #50, #396, #474, #471, #36, #126, #272, #324, #360, #87, #157, #442, #241 ),
 .UNSPECIFIED., .F., .F.,
 ( 4, 2, 2, 2, 2, 2, 2, 2, 2, 2, 2, 2, 2, 2, 2, 2, 2, 2, 2, 2, 2, 2, 4 ),
 ( 1.025280324005819152E-18, 0.001471381996746706344, 0.002207072995120058865, 0.002942763993493411386, 0.004414145990240179313, 0.005149836988613563926, 0.005885527986986947672, 0.007356909983733716900, 0.008828291980480486995, 0.009563982978853871608, 0.01029967397722725796, 0.01177105597397403065, 0.01324243797072080335, 0.01471381996746757778, 0.01544951096584096413, 0.01618520196421434701, 0.01692089296258773509, 0.01765658396096112318, 0.01912796595770777444, 0.02059934795445442918, 0.02207072995120108044, 0.02280642094957442342, 0.02354211194794776640 ),
 .UNSPECIFIED. ) ;
#236 = CARTESIAN_POINT ( 'NONE',  ( 426.2338798582039203, 6.504138381115591727, 29.28776109457456656 ) ) ;
#237 = EDGE_CURVE ( 'NONE', #189, #51, #349, .T. ) ;
#238 = PERSON_AND_ORGANIZATION ( #296, #380 ) ;
#239 = CARTESIAN_POINT ( 'NONE',  ( 425.4306088535706749, -5.952352603980908263, 29.40398816018723949 ) ) ;
#240 = ORIENTED_EDGE ( 'NONE', *, *, #170, .F. ) ;
#241 = CARTESIAN_POINT ( 'NONE',  ( 422.5000000000000000, 7.418410087374944410E-21, 30.00000000000000000 ) ) ;
#242 = ORIENTED_EDGE ( 'NONE', *, *, #46, .F. ) ;
#243 = ADVANCED_FACE ( 'NONE', ( #485 ), #97, .F. ) ;
#244 = FACE_OUTER_BOUND ( 'NONE', #182, .T. ) ;
#245 = ORIENTED_EDGE ( 'NONE', *, *, #488, .T. ) ;
#246 = ADVANCED_FACE ( 'NONE', ( #292 ), #15, .F. ) ;
#247 = DIRECTION ( 'NONE',  ( 0.000000000000000000, 0.000000000000000000, 1.000000000000000000 ) ) ;
#248 = LINE ( 'NONE', #314, #34 ) ;
#249 = CARTESIAN_POINT ( 'NONE',  ( 437.2473696846849975, 1.945904718823572965, -29.93776057018875747 ) ) ;
#250 = VERTEX_POINT ( 'NONE', #454 ) ;
#251 = CARTESIAN_POINT ( 'NONE',  ( 437.5000000000000000, -1.055639116014359845E-15, 30.00000000000000000 ) ) ;
#252 = AXIS2_PLACEMENT_3D ( 'NONE', #362, #11, #467 ) ;
#253 = EDGE_CURVE ( 'NONE', #7, #468, #500, .T. ) ;
#254 = CARTESIAN_POINT ( 'NONE',  ( 423.1665960971873233, -3.100705601562543379, -29.84019265033175827 ) ) ;
#255 = CARTESIAN_POINT ( 'NONE',  ( 0.000000000000000000, 0.000000000000000000, 30.00000000000000000 ) ) ;
#256 = DIRECTION ( 'NONE',  ( -1.000000000000000000, 0.000000000000000000, 0.000000000000000000 ) ) ;
#257 = LINE ( 'NONE', #331, #213 ) ;
#258 = CARTESIAN_POINT ( 'NONE',  ( 434.9571326652047674, 5.649259533973981284, -29.46537410149324288 ) ) ;
#259 = EDGE_CURVE ( 'NONE', #394, #279, #140, .T. ) ;
#260 = CARTESIAN_POINT ( 'NONE',  ( 435.6362429428875771, -4.954045468119900875, -29.58874814594426894 ) ) ;
#261 = CARTESIAN_POINT ( 'NONE',  ( 440.0000000000000000, 30.00000000000000000, 0.000000000000000000 ) ) ;
#262 = CARTESIAN_POINT ( 'NONE',  ( 430.9804303353270711, -7.451838451150900156, -29.05993554484959063 ) ) ;
#263 = APPLICATION_CONTEXT ( 'configuration controlled 3d designs of mechanical parts and assemblies' ) ;
#264 = CARTESIAN_POINT ( 'NONE',  ( 20.00000000000000000, 0.000000000000000000, 0.000000000000000000 ) ) ;
#265 = CARTESIAN_POINT ( 'NONE',  ( 431.7093672621809333, -7.306784571400266159, 29.09662152377190125 ) ) ;
#266 = AXIS2_PLACEMENT_3D ( 'NONE', #484, #21, #92 ) ;
#267 = CARTESIAN_POINT ( 'NONE',  ( 436.7366890706831555, -3.332937694888594482, 29.81776834892824013 ) ) ;
#268 =( LENGTH_UNIT ( ) NAMED_UNIT ( * ) SI_UNIT ( .MILLI., .METRE. ) );
#269 = CARTESIAN_POINT ( 'NONE',  ( 437.4509595093422831, -0.9866354491309847763, 29.98763338499469100 ) ) ;
#270 = ADVANCED_BREP_SHAPE_REPRESENTATION ( 'SHAFT 07_\X2\9ed88ba4\X0\_sldprt', ( #45, #449 ), #340 ) ;
#271 = DATE_AND_TIME ( #426, #215 ) ;
#272 = CARTESIAN_POINT ( 'NONE',  ( 422.8850480195970363, -2.422339572387714579, 29.90550339825158588 ) ) ;
#273 = APPROVAL_ROLE ( '' ) ;
#274 = CIRCLE ( 'NONE', #252, 30.00000000000000000 ) ;
#275 = CARTESIAN_POINT ( 'NONE',  ( 426.6637639493748679, 6.735247220974181381, 29.23481582659698574 ) ) ;
#276 = ORIENTED_EDGE ( 'NONE', *, *, #237, .F. ) ;
#277 = PERSON_AND_ORGANIZATION ( #296, #380 ) ;
#278 = CARTESIAN_POINT ( 'NONE',  ( 427.3479348947640233, 7.019797518865683372, 29.16730953790215608 ) ) ;
#279 = VERTEX_POINT ( 'NONE', #497 ) ;
#280 = CYLINDRICAL_SURFACE ( 'NONE', #26, 35.00000000000000000 ) ;
#281 = CYLINDRICAL_SURFACE ( 'NONE', #193, 7.500000000000007105 ) ;
#282 = CIRCLE ( 'NONE', #410, 30.00000000000000000 ) ;
#283 = CARTESIAN_POINT ( 'NONE',  ( 426.0315601307017346, -6.368742968804856908, 29.31651947262572833 ) ) ;
#284 = ORIENTED_EDGE ( 'NONE', *, *, #237, .T. ) ;
#285 = PRODUCT_DEFINITION_SHAPE ( 'NONE', 'NONE',  #114 ) ;
#286 = COORDINATED_UNIVERSAL_TIME_OFFSET ( 8, 0, .AHEAD. ) ;
#287 = CARTESIAN_POINT ( 'NONE',  ( 437.1037601261865575, 2.418161407108510907, -29.90332002540619172 ) ) ;
#288 = DIRECTION ( 'NONE',  ( -1.000000000000000000, 0.000000000000000000, 0.000000000000000000 ) ) ;
#289 = FACE_OUTER_BOUND ( 'NONE', #112, .T. ) ;
#290 = CARTESIAN_POINT ( 'NONE',  ( 422.7420348296060979, -1.954202972945826788, -29.94026019973071939 ) ) ;
#291 = CALENDAR_DATE ( 2026, 8, 4 ) ;
#292 = FACE_OUTER_BOUND ( 'NONE', #422, .T. ) ;
#293 = AXIS2_PLACEMENT_3D ( 'NONE', #447, #256, #107 ) ;
#294 = DIRECTION ( 'NONE',  ( 0.000000000000000000, 0.000000000000000000, 1.000000000000000000 ) ) ;
#295 = EDGE_CURVE ( 'NONE', #192, #436, #235, .T. ) ;
#296 = PERSON ( '未指定', '未指定', '未指定', ('未指定'), ('未指定'), ('未指定') ) ;
#297 = CARTESIAN_POINT ( 'NONE',  ( 422.8854243124962977, -2.423210534174093489, -29.90541658718311879 ) ) ;
#298 = EDGE_CURVE ( 'NONE', #250, #189, #391, .T. ) ;
#299 = CARTESIAN_POINT ( 'NONE',  ( 436.7355646380315761, 3.334846121075556447, 29.81751830530992464 ) ) ;
#300 = DIRECTION ( 'NONE',  ( -1.000000000000000000, 0.000000000000000000, 0.000000000000000000 ) ) ;
#301 = DIRECTION ( 'NONE',  ( 0.000000000000000000, 0.000000000000000000, 1.000000000000000000 ) ) ;
#302 = CARTESIAN_POINT ( 'NONE',  ( 437.5000000000000000, 1.055639116014359845E-15, -30.00000000000000000 ) ) ;
#303 = CARTESIAN_POINT ( 'NONE',  ( 428.0489514086906411, 7.258427441106794831, -29.10884893719727984 ) ) ;
#304 = CARTESIAN_POINT ( 'NONE',  ( 432.6518920499054843, -7.019761589587380612, 29.16731407996627468 ) ) ;
#305 = CARTESIAN_POINT ( 'NONE',  ( 424.0393453021816867, 4.578061004014043256, -29.65145805373608567 ) ) ;
#306 = CARTESIAN_POINT ( 'NONE',  ( 435.9503866515069603, -4.572015225994859655, 29.65018844264649900 ) ) ;
#307 = PERSON_AND_ORGANIZATION ( #296, #380 ) ;
#308 = CARTESIAN_POINT ( 'NONE',  ( 430.4945201305644673, -7.499793320937955698, 29.04742846085498797 ) ) ;
#309 = DESIGN_CONTEXT ( 'detailed design', #392, 'design' ) ;
#310 = DATE_TIME_ROLE ( 'creation_date' ) ;
#311 = CARTESIAN_POINT ( 'NONE',  ( 434.3709314595447495, -6.099624826751242956, -29.37369707674586294 ) ) ;
#312 = PRODUCT_RELATED_PRODUCT_CATEGORY ( 'detail', '', ( #234 ) ) ;
#313 = CARTESIAN_POINT ( 'NONE',  ( 422.7420348296060979, 1.954202972945829231, 29.94026019973071584 ) ) ;
#314 = CARTESIAN_POINT ( 'NONE',  ( 437.5000000000000000, 0.000000000000000000, -30.00000000000000000 ) ) ;
#315 = AXIS2_PLACEMENT_3D ( 'NONE', #101, #99, #301 ) ;
#316 = CARTESIAN_POINT ( 'NONE',  ( 422.5000000000000000, 0.4905146943063350418, 30.00000000000001776 ) ) ;
#317 = ORIENTED_EDGE ( 'NONE', *, *, #372, .F. ) ;
#318 = LOCAL_TIME ( 11, 35, 40.00000000000000000, #286 ) ;
#319 = CARTESIAN_POINT ( 'NONE',  ( 423.2714198755322172, 3.322168728995419151, 29.81628685276169222 ) ) ;
#320 = DIRECTION ( 'NONE',  ( 0.000000000000000000, 0.000000000000000000, 1.000000000000000000 ) ) ;
#321 = CARTESIAN_POINT ( 'NONE',  ( 434.9476188423967642, 5.641885209922748778, 29.46513429177110055 ) ) ;
#322 = ORIENTED_EDGE ( 'NONE', *, *, #142, .F. ) ;
#323 = CIRCLE ( 'NONE', #58, 35.00000000000000000 ) ;
#324 = CARTESIAN_POINT ( 'NONE',  ( 422.7424486435708673, -1.954637183720548288, 29.94016152399550990 ) ) ;
#325 = ORIENTED_EDGE ( 'NONE', *, *, #72, .F. ) ;
#326 = APPROVAL_STATUS ( 'not_yet_approved' ) ;
#327 = CC_DESIGN_SECURITY_CLASSIFICATION ( #393, ( #186 ) ) ;
#328 = CARTESIAN_POINT ( 'NONE',  ( 440.0000000000000000, 3.673940397442059178E-15, -30.00000000000000000 ) ) ;
#329 = DIRECTION ( 'NONE',  ( 0.000000000000000000, 0.000000000000000000, 1.000000000000000000 ) ) ;
#330 = CARTESIAN_POINT ( 'NONE',  ( 20.00000000000000000, 35.00000000000000000, 0.000000000000000000 ) ) ;
#331 = CARTESIAN_POINT ( 'NONE',  ( 0.000000000000000000, 3.673940397442059178E-15, -30.00000000000000000 ) ) ;
#332 = AXIS2_PLACEMENT_3D ( 'NONE', #139, #176, #175 ) ;
#333 = FACE_OUTER_BOUND ( 'NONE', #478, .T. ) ;
#334 = ADVANCED_FACE ( 'NONE', ( #244 ), #280, .T. ) ;
#335 = DIRECTION ( 'NONE',  ( -1.000000000000000000, 0.000000000000000000, 0.000000000000000000 ) ) ;
#336 = DIRECTION ( 'NONE',  ( -1.000000000000000000, 0.000000000000000000, 0.000000000000000000 ) ) ;
#337 = CARTESIAN_POINT ( 'NONE',  ( 437.3071187278069374, 1.707652680602064876, -29.95232584805419052 ) ) ;
#338 = CARTESIAN_POINT ( 'NONE',  ( 432.4223655301839813, -7.114909328492518448, -29.14472982325569106 ) ) ;
#339 = ORIENTED_EDGE ( 'NONE', *, *, #259, .F. ) ;
#340 =( GEOMETRIC_REPRESENTATION_CONTEXT ( 3 ) GLOBAL_UNCERTAINTY_ASSIGNED_CONTEXT ( ( #232 ) ) GLOBAL_UNIT_ASSIGNED_CONTEXT ( ( #268, #386, #353 ) ) REPRESENTATION_CONTEXT ( 'NONE', 'WORKASPACE' ) );
#341 = FACE_OUTER_BOUND ( 'NONE', #348, .T. ) ;
#342 = LOCAL_TIME ( 11, 35, 40.00000000000000000, #229 ) ;
#343 = CARTESIAN_POINT ( 'NONE',  ( 430.4923495973503691, -7.500154075971718015, -29.04733531431285698 ) ) ;
#344 = PERSON_AND_ORGANIZATION ( #296, #380 ) ;
#345 = CARTESIAN_POINT ( 'NONE',  ( 425.6263800944238938, -6.097607577758231479, -29.37411059642588640 ) ) ;
#346 = MECHANICAL_CONTEXT ( 'NONE', #263, 'mechanical' ) ;
#347 = CARTESIAN_POINT ( 'NONE',  ( 435.9469883213742492, -4.576366562774982327, -29.64951015493231523 ) ) ;
#348 = EDGE_LOOP ( 'NONE', ( #203, #127 ) ) ;
#349 = CIRCLE ( 'NONE', #359, 35.00000000000000000 ) ;
#350 = PERSON_AND_ORGANIZATION_ROLE ( 'design_owner' ) ;
#351 = CARTESIAN_POINT ( 'NONE',  ( 427.3479348947640801, -7.019797518865682484, -29.16730953790216319 ) ) ;
#352 = EDGE_CURVE ( 'NONE', #468, #7, #282, .T. ) ;
#353 =( NAMED_UNIT ( * ) SI_UNIT ( $, .STERADIAN. ) SOLID_ANGLE_UNIT ( ) );
#354 = CARTESIAN_POINT ( 'NONE',  ( 428.0506328248795285, 7.246391284264162458, 29.11177133409470841 ) ) ;
#355 = LINE ( 'NONE', #365, #77 ) ;
#356 = CARTESIAN_POINT ( 'NONE',  ( 423.2608570180913716, 3.327795449961944652, -29.81832724936133516 ) ) ;
#357 = CARTESIAN_POINT ( 'NONE',  ( 428.5253702175073727, 7.365788337660884366, 29.08181996851923401 ) ) ;
#358 = ORIENTED_EDGE ( 'NONE', *, *, #384, .T. ) ;
#359 = AXIS2_PLACEMENT_3D ( 'NONE', #212, #487, #19 ) ;
#360 = CARTESIAN_POINT ( 'NONE',  ( 422.5974646534758676, -1.230095523224917331, 29.97574577311586097 ) ) ;
#361 = VERTEX_POINT ( 'NONE', #364 ) ;
#362 = CARTESIAN_POINT ( 'NONE',  ( 20.00000000000000000, 0.000000000000000000, 0.000000000000000000 ) ) ;
#363 = ORIENTED_EDGE ( 'NONE', *, *, #165, .T. ) ;
#364 = CARTESIAN_POINT ( 'NONE',  ( 20.00000000000000000, 0.000000000000000000, 30.00000000000000000 ) ) ;
#365 = CARTESIAN_POINT ( 'NONE',  ( 422.5000000000000000, 9.184850993605147944E-16, -30.00000000000000000 ) ) ;
#366 = AXIS2_PLACEMENT_3D ( 'NONE', #264, #224, #221 ) ;
#367 = CARTESIAN_POINT ( 'NONE',  ( 435.6362429428875771, 4.954045468119899986, 29.58874814594426894 ) ) ;
#368 = CARTESIAN_POINT ( 'NONE',  ( 0.000000000000000000, 3.673940397442059178E-15, -30.00000000000000000 ) ) ;
#369 = APPROVAL ( #466, '未指定' ) ;
#370 = CARTESIAN_POINT ( 'NONE',  ( 0.000000000000000000, 0.000000000000000000, 30.00000000000000000 ) ) ;
#371 = LINE ( 'NONE', #368, #44 ) ;
#372 = EDGE_CURVE ( 'NONE', #200, #361, #274, .T. ) ;
#373 = DIRECTION ( 'NONE',  ( -1.000000000000000000, 0.000000000000000000, 0.000000000000000000 ) ) ;
#374 = CARTESIAN_POINT ( 'NONE',  ( 435.9503866515069035, 4.572015225994858767, -29.65018844264649545 ) ) ;
#375 = CARTESIAN_POINT ( 'NONE',  ( 424.3489552041646675, -4.955277654340118687, -29.59001043722525992 ) ) ;
#376 = CARTESIAN_POINT ( 'NONE',  ( 435.1281217759946003, 5.478282120341717132, 29.49608364240711822 ) ) ;
#377 = CARTESIAN_POINT ( 'NONE',  ( 435.4724339029295379, -5.134362191894081384, -29.55788981156098316 ) ) ;
#378 = CARTESIAN_POINT ( 'NONE',  ( 432.6518920499054275, 7.019761589587382389, -29.16731407996627468 ) ) ;
#379 = CARTESIAN_POINT ( 'NONE',  ( 436.7355646380315761, -3.334846121075556447, -29.81751830530992464 ) ) ;
#380 = ORGANIZATION ( '未指定', '未指定', '' ) ;
#381 = CARTESIAN_POINT ( 'NONE',  ( 435.4739708784139225, 5.132734866319894174, -29.55817372314891145 ) ) ;
#382 = CARTESIAN_POINT ( 'NONE',  ( 429.5117689435901411, -7.500205360646864605, 29.04732207266958355 ) ) ;
#383 = CARTESIAN_POINT ( 'NONE',  ( 422.7424486435709809, 1.954637183720553839, -29.94016152399551700 ) ) ;
#384 = EDGE_CURVE ( 'NONE', #436, #192, #414, .T. ) ;
#385 = CARTESIAN_POINT ( 'NONE',  ( 425.0504561429189039, -5.640244823291316045, -29.46545240038946645 ) ) ;
#386 =( NAMED_UNIT ( * ) PLANE_ANGLE_UNIT ( ) SI_UNIT ( $, .RADIAN. ) );
#387 = ADVANCED_FACE ( 'NONE', ( #289 ), #61, .T. ) ;
#388 = CARTESIAN_POINT ( 'NONE',  ( 433.7615340881773704, -6.507210935373891836, 29.28710871531715298 ) ) ;
#389 = AXIS2_PLACEMENT_3D ( 'NONE', #261, #335, #14 ) ;
#390 = CALENDAR_DATE ( 2026, 8, 4 ) ;
#391 = LINE ( 'NONE', #117, #233 ) ;
#392 = APPLICATION_CONTEXT ( 'configuration controlled 3d designs of mechanical parts and assemblies' ) ;
#393 = SECURITY_CLASSIFICATION ( '', '', #166 ) ;
#394 = VERTEX_POINT ( 'NONE', #141 ) ;
#395 = PERSON_AND_ORGANIZATION ( #296, #380 ) ;
#396 = CARTESIAN_POINT ( 'NONE',  ( 424.8692203761943915, -5.475897079378627907, 29.49653728453246515 ) ) ;
#397 = EDGE_LOOP ( 'NONE', ( #325, #402, #118, #475 ) ) ;
#398 = PERSON_AND_ORGANIZATION_ROLE ( 'creator' ) ;
#399 = CARTESIAN_POINT ( 'NONE',  ( 433.7575460812894335, 6.509432145096924138, 29.28660624043990524 ) ) ;
#400 = ORIENTED_EDGE ( 'NONE', *, *, #295, .T. ) ;
#401 = DIRECTION ( 'NONE',  ( -1.000000000000000000, 0.000000000000000000, 0.000000000000000000 ) ) ;
#402 = ORIENTED_EDGE ( 'NONE', *, *, #488, .F. ) ;
#403 = APPROVAL_PERSON_ORGANIZATION ( #173, #98, #162 ) ;
#404 = DIRECTION ( 'NONE',  ( -1.000000000000000000, 0.000000000000000000, 0.000000000000000000 ) ) ;
#405 = EDGE_LOOP ( 'NONE', ( #164, #71 ) ) ;
#406 = CARTESIAN_POINT ( 'NONE',  ( 436.5061101351569164, 3.763005127084287693, -29.76589728466430529 ) ) ;
#407 = CC_DESIGN_PERSON_AND_ORGANIZATION_ASSIGNMENT ( #277, #398, ( #186 ) ) ;
#408 = CARTESIAN_POINT ( 'NONE',  ( 20.00000000000000000, 3.673940397442059178E-15, -30.00000000000000000 ) ) ;
#409 = DATE_AND_TIME ( #291, #318 ) ;
#410 = AXIS2_PLACEMENT_3D ( 'NONE', #208, #404, #85 ) ;
#411 = DIRECTION ( 'NONE',  ( -1.000000000000000000, 0.000000000000000000, 0.000000000000000000 ) ) ;
#412 = CARTESIAN_POINT ( 'NONE',  ( 423.2714198755321604, -3.322168728995413822, -29.81628685276169577 ) ) ;
#413 = DIRECTION ( 'NONE',  ( -1.000000000000000000, 0.000000000000000000, 0.000000000000000000 ) ) ;
#414 = B_SPLINE_CURVE_WITH_KNOTS ( 'NONE', 3,
 ( #115, #316, #5, #313, #206, #47, #319, #167, #433, #477, #76, #9, #201, #435, #40, #236, #275, #278, #199, #354, #357, #504, #154, #440, #79, #2, #438, #163, #82, #399, #42, #160, #321, #376, #211, #367, #132, #138, #417, #299, #178, #180, #227, #104, #453 ),
 .UNSPECIFIED., .F., .F.,
 ( 4, 2, 2, 2, 2, 2, 2, 2, 2, 2, 1, 2, 2, 2, 2, 2, 2, 2, 2, 2, 2, 2, 4 ),
 ( 0.02354211194794776640, 0.02501309743367226973, 0.02648408291939677306, 0.02721957566225899003, 0.02795506840512120700, 0.02942605389084573808, 0.03016154663370805913, 0.03089703937657038019, 0.03236802486229489045, 0.03310351760515714559, 0.03383901034801939378, 0.03457450309088164891, 0.03530999583374390405, 0.03678098131946858085, 0.03825196680519325071, 0.03972295229091792057, 0.04045844503378025897, 0.04119393777664259737, 0.04192943051950492883, 0.04266492326236727417, 0.04413590874809203424, 0.04560689423381680818, 0.04707787971954156825 ),
 .UNSPECIFIED. ) ;
#415 = PLANE ( 'NONE',  #389 ) ;
#416 = CYLINDRICAL_SURFACE ( 'NONE', #266, 30.00000000000000000 ) ;
#417 = CARTESIAN_POINT ( 'NONE',  ( 436.5051833849608443, 3.764901158012458726, 29.76568161519924516 ) ) ;
#418 = EDGE_CURVE ( 'NONE', #465, #250, #102, .T. ) ;
#419 = CARTESIAN_POINT ( 'NONE',  ( 437.5000000000000000, -0.4976690225003687074, 30.00000000000000355 ) ) ;
#420 = CARTESIAN_POINT ( 'NONE',  ( 437.5000000000000568, 0.4976690225003683743, -30.00000000000000355 ) ) ;
#421 = CARTESIAN_POINT ( 'NONE',  ( 437.0196457003661408, -2.652345673097039391, 29.88339017209212400 ) ) ;
#422 = EDGE_LOOP ( 'NONE', ( #339, #439, #446, #168 ) ) ;
#423 = CARTESIAN_POINT ( 'NONE',  ( 426.8975496660467002, 6.832681869155027066, -29.21170801783076243 ) ) ;
#424 = CARTESIAN_POINT ( 'NONE',  ( 437.5000000000000000, -1.055639116014359845E-15, 30.00000000000000000 ) ) ;
#425 = AXIS2_PLACEMENT_3D ( 'NONE', #330, #300, #103 ) ;
#426 = CALENDAR_DATE ( 2026, 8, 4 ) ;
#427 = CARTESIAN_POINT ( 'NONE',  ( 426.2338798582039203, -6.504138381115594392, -29.28776109457457366 ) ) ;
#428 = ORIENTED_EDGE ( 'NONE', *, *, #418, .F. ) ;
#429 = CARTESIAN_POINT ( 'NONE',  ( 424.3482116855628874, 4.954662686481928091, -29.59013281602889478 ) ) ;
#430 = CARTESIAN_POINT ( 'NONE',  ( 426.2408421516564090, -6.494527552002064219, 29.28882417035288555 ) ) ;
#431 = ORIENTED_EDGE ( 'NONE', *, *, #131, .T. ) ;
#432 = CARTESIAN_POINT ( 'NONE',  ( 422.5000000000000568, 0.2453234574189387951, -30.00000000000001066 ) ) ;
#433 = CARTESIAN_POINT ( 'NONE',  ( 423.6313564880953777, 3.968669111447772124, 29.73704564188273380 ) ) ;
#434 = PERSON_AND_ORGANIZATION_ROLE ( 'creator' ) ;
#435 = CARTESIAN_POINT ( 'NONE',  ( 425.4301489099079276, 5.952042260788879879, 29.40405481820603484 ) ) ;
#436 = VERTEX_POINT ( 'NONE', #65 ) ;
#437 = CARTESIAN_POINT ( 'NONE',  ( 422.8850480195971500, 2.422339572387716800, -29.90550339825158943 ) ) ;
#438 = CARTESIAN_POINT ( 'NONE',  ( 431.9437080713406090, 7.260381455397897810, 29.10835981801410099 ) ) ;
#439 = ORIENTED_EDGE ( 'NONE', *, *, #72, .T. ) ;
#440 = CARTESIAN_POINT ( 'NONE',  ( 429.7503129760729621, 7.499922413759627204, 29.04739512923571709 ) ) ;
#441 = DIRECTION ( 'NONE',  ( 1.000000000000000000, 0.000000000000000000, 0.000000000000000000 ) ) ;
#442 = CARTESIAN_POINT ( 'NONE',  ( 422.5000000000001705, -0.2453234574189352979, 30.00000000000001421 ) ) ;
#443 = LINE ( 'NONE', #210, #469 ) ;
#444 = ADVANCED_FACE ( 'NONE', ( #341 ), #415, .F. ) ;
#445 = CARTESIAN_POINT ( 'NONE',  ( 436.0978175630400528, 4.373390005155541438, -29.68022358490108203 ) ) ;
#446 = ORIENTED_EDGE ( 'NONE', *, *, #295, .F. ) ;
#447 = CARTESIAN_POINT ( 'NONE',  ( 0.000000000000000000, 0.000000000000000000, 0.000000000000000000 ) ) ;
#448 = DIRECTION ( 'NONE',  ( -1.000000000000000000, 0.000000000000000000, 0.000000000000000000 ) ) ;
#449 = AXIS2_PLACEMENT_3D ( 'NONE', #32, #153, #496 ) ;
#450 = DIRECTION ( 'NONE',  ( 1.000000000000000000, 0.000000000000000000, 0.000000000000000000 ) ) ;
#451 = CARTESIAN_POINT ( 'NONE',  ( 422.4999999999999432, -0.4905146943063313225, -30.00000000000000711 ) ) ;
#452 = CARTESIAN_POINT ( 'NONE',  ( 423.6313564880952640, -3.968669111447769460, -29.73704564188273025 ) ) ;
#453 = CARTESIAN_POINT ( 'NONE',  ( 437.5000000000000000, -1.055639116014359845E-15, 30.00000000000000000 ) ) ;
#454 = CARTESIAN_POINT ( 'NONE',  ( 20.00000000000000000, 0.000000000000000000, 35.00000000000000000 ) ) ;
#455 = CARTESIAN_POINT ( 'NONE',  ( 433.7615340881773704, 6.507210935373893612, -29.28710871531714588 ) ) ;
#456 = CC_DESIGN_DATE_AND_TIME_ASSIGNMENT ( #409, #93, ( #393 ) ) ;
#457 = CARTESIAN_POINT ( 'NONE',  ( 434.5695862971853103, -5.952199761782202003, -29.40401886732305314 ) ) ;
#458 = CARTESIAN_POINT ( 'NONE',  ( 427.5804393426315642, 7.116086327766453223, -29.14445097702281373 ) ) ;
#459 = CARTESIAN_POINT ( 'NONE',  ( 432.4216150523393480, -7.102554020676424607, 29.14719847396459684 ) ) ;
#460 = COORDINATED_UNIVERSAL_TIME_OFFSET ( 8, 0, .AHEAD. ) ;
#461 = CARTESIAN_POINT ( 'NONE',  ( 434.9571326652046537, -5.649259533973981284, 29.46537410149323932 ) ) ;
#462 = CARTESIAN_POINT ( 'NONE',  ( 423.4964561479173426, 3.767222364970469695, -29.76534298343983664 ) ) ;
#463 = CARTESIAN_POINT ( 'NONE',  ( 429.0124792552373378, -7.450916876608287609, 29.06017365853577417 ) ) ;
#464 = CARTESIAN_POINT ( 'NONE',  ( 429.7503129760730189, -7.499922413759627204, -29.04739512923570999 ) ) ;
#465 = VERTEX_POINT ( 'NONE', #57 ) ;
#466 = APPROVAL_STATUS ( 'not_yet_approved' ) ;
#467 = DIRECTION ( 'NONE',  ( 0.000000000000000000, 0.000000000000000000, 1.000000000000000000 ) ) ;
#468 = VERTEX_POINT ( 'NONE', #328 ) ;
#469 = VECTOR ( 'NONE', #288, 1000.000000000000000 ) ;
#470 = CARTESIAN_POINT ( 'NONE',  ( 424.8692203761944484, 5.475897079378628796, -29.49653728453246515 ) ) ;
#471 = CARTESIAN_POINT ( 'NONE',  ( 424.0393453021818573, -4.578061004014045032, 29.65145805373609988 ) ) ;
#472 = CC_DESIGN_APPROVAL ( #59, ( #186 ) ) ;
#473 = ORIENTED_EDGE ( 'NONE', *, *, #298, .T. ) ;
#474 = CARTESIAN_POINT ( 'NONE',  ( 424.3482116855629442, -4.954662686481929867, 29.59013281602890544 ) ) ;
#475 = ORIENTED_EDGE ( 'NONE', *, *, #384, .F. ) ;
#476 = EDGE_CURVE ( 'NONE', #361, #200, #169, .T. ) ;
#477 = CARTESIAN_POINT ( 'NONE',  ( 424.0399869628955685, 4.579089799194184351, 29.65132052211539815 ) ) ;
#478 = EDGE_LOOP ( 'NONE', ( #68, #41, #276, #37 ) ) ;
#479 = AXIS2_PLACEMENT_3D ( 'NONE', #486, #329, #450 ) ;
#480 = CARTESIAN_POINT ( 'NONE',  ( 435.6382405445003201, 4.951834820701798812, -29.58912519524127305 ) ) ;
#481 = ORIENTED_EDGE ( 'NONE', *, *, #142, .T. ) ;
#482 = PERSON_AND_ORGANIZATION ( #296, #380 ) ;
#483 = CARTESIAN_POINT ( 'NONE',  ( 437.4509595093423400, 0.9866354491309849983, -29.98763338499469455 ) ) ;
#484 = CARTESIAN_POINT ( 'NONE',  ( 0.000000000000000000, 0.000000000000000000, 0.000000000000000000 ) ) ;
#485 = FACE_OUTER_BOUND ( 'NONE', #12, .T. ) ;
#486 = CARTESIAN_POINT ( 'NONE',  ( 430.0000000000000000, 0.000000000000000000, -30.00000000000000000 ) ) ;
#487 = DIRECTION ( 'NONE',  ( -1.000000000000000000, 0.000000000000000000, 0.000000000000000000 ) ) ;
#488 = EDGE_CURVE ( 'NONE', #279, #394, #499, .T. ) ;
#489 = CARTESIAN_POINT ( 'NONE',  ( 432.4216150523392344, 7.102554020676422830, -29.14719847396458974 ) ) ;
#490 = CARTESIAN_POINT ( 'NONE',  ( 422.5476456559749749, -0.9794806813873889739, -29.98797605177512438 ) ) ;
#491 = CC_DESIGN_PERSON_AND_ORGANIZATION_ASSIGNMENT ( #146, #350, ( #234 ) ) ;
#492 = CARTESIAN_POINT ( 'NONE',  ( 430.4945201305643536, 7.499793320937952146, -29.04742846085497376 ) ) ;
#493 = CARTESIAN_POINT ( 'NONE',  ( 436.0978175630400528, -4.373390005155540550, 29.68022358490107138 ) ) ;
#494 = CARTESIAN_POINT ( 'NONE',  ( 433.3281545754525155, 6.738822152118832953, -29.23397560473592094 ) ) ;
#495 = CARTESIAN_POINT ( 'NONE',  ( 434.9476188423965937, -5.641885209922792299, -29.46513429177108634 ) ) ;
#496 = DIRECTION ( 'NONE',  ( 1.000000000000000000, 0.000000000000000000, 0.000000000000000000 ) ) ;
#497 = CARTESIAN_POINT ( 'NONE',  ( 437.5000000000000000, 1.055639116014359845E-15, -30.00000000000000000 ) ) ;
#498 = CARTESIAN_POINT ( 'NONE',  ( 437.2576339179960883, -1.954387703503994711, -29.94018149785234684 ) ) ;
#499 = B_SPLINE_CURVE_WITH_KNOTS ( 'NONE', 3,
 ( #23, #420, #483, #337, #249, #287, #63, #219, #406, #445, #374, #480, #381, #258, #20, #455, #494, #378, #489, #25, #183, #90, #492, #144, #171, #303, #458, #423, #28, #187, #128, #52, #190, #502, #470, #429, #305, #462, #356, #437, #383, #116, #1, #69, #432, #81 ),
 .UNSPECIFIED., .F., .F.,
 ( 4, 2, 2, 2, 2, 2, 2, 2, 2, 2, 2, 2, 2, 2, 2, 2, 2, 2, 2, 2, 2, 2, 4 ),
 ( 1.025280324005819152E-18, 0.001471381996746706560, 0.002207072995120059299, 0.002942763993493411820, 0.004414145990240179313, 0.005149836988613564794, 0.005885527986986949407, 0.007356909983733718635, 0.008828291980480488729, 0.009563982978853875078, 0.01029967397722725969, 0.01177105597397403239, 0.01324243797072080335, 0.01471381996746757258, 0.01544951096584096240, 0.01618520196421434701, 0.01692089296258773162, 0.01765658396096111624, 0.01912796595770777097, 0.02059934795445442571, 0.02207072995120107697, 0.02280642094957441995, 0.02354211194794776293 ),
 .UNSPECIFIED. ) ;
#500 = CIRCLE ( 'NONE', #158, 30.00000000000000000 ) ;
#501 = ORIENTED_EDGE ( 'NONE', *, *, #105, .T. ) ;
#502 = CARTESIAN_POINT ( 'NONE',  ( 425.0524552059724215, 5.641953339250027177, -29.46512147886504351 ) ) ;
#503 = CARTESIAN_POINT ( 'NONE',  ( 429.0105034856175621, -7.438523474267928925, -29.06318988134012571 ) ) ;
#504 = CARTESIAN_POINT ( 'NONE',  ( 429.0105034856175052, 7.438523474267928925, 29.06318988134012571 ) ) ;
#505 = FACE_OUTER_BOUND ( 'NONE', #397, .T. ) ;
ENDSEC;
END-ISO-10303-21;
