ISO-10303-21;
HEADER;
FILE_DESCRIPTION (( 'STEP AP203' ),
    '1' );
FILE_NAME ('SHAFT 06_默认_sldprt.STEP',
    '2026-04-08T03:35:39',
    ( '' ),
    ( '' ),
    'SwSTEP 2.0',
    'SolidWorks 2022',
    '' );
FILE_SCHEMA (( 'CONFIG_CONTROL_DESIGN' ));
ENDSEC;

DATA;
#1 = CARTESIAN_POINT ( 'NONE',  ( 482.5606211911176047, 0.9832625766564527803, -29.98489290977618182 ) ) ;
#2 = FACE_OUTER_BOUND ( 'NONE', #300, .T. ) ;
#3 = CARTESIAN_POINT ( 'NONE',  ( 489.5117689435901411, 7.500205360646864605, -29.04732207266958355 ) ) ;
#4 = EDGE_CURVE ( 'NONE', #185, #292, #415, .T. ) ;
#5 = CARTESIAN_POINT ( 'NONE',  ( 491.9437080713406090, -7.260381455397899586, -29.10835981801410455 ) ) ;
#6 = CARTESIAN_POINT ( 'NONE',  ( 497.5000000000000000, 0.000000000000000000, -30.00000000000000000 ) ) ;
#7 = APPROVAL ( #451, '未指定' ) ;
#8 = CARTESIAN_POINT ( 'NONE',  ( 485.0524552059722510, -5.641953339250028954, 29.46512147886504707 ) ) ;
#9 = CARTESIAN_POINT ( 'NONE',  ( 495.6362429428875203, 4.954045468119896434, 29.58874814594426894 ) ) ;
#10 = ORIENTED_EDGE ( 'NONE', *, *, #246, .F. ) ;
#11 = AXIS2_PLACEMENT_3D ( 'NONE', #25, #191, #369 ) ;
#12 = DIRECTION ( 'NONE',  ( -1.000000000000000000, 0.000000000000000000, 0.000000000000000000 ) ) ;
#13 = CARTESIAN_POINT ( 'NONE',  ( 485.6263800944240074, 6.097607577758234143, 29.37411059642588995 ) ) ;
#14 = ADVANCED_BREP_SHAPE_REPRESENTATION ( 'SHAFT 06_\X2\9ed88ba4\X0\_sldprt', ( #434, #172 ), #124 ) ;
#15 = CARTESIAN_POINT ( 'NONE',  ( 482.5000000000001137, 0.4905146943063211640, 30.00000000000000355 ) ) ;
#16 = CARTESIAN_POINT ( 'NONE',  ( 494.5807821420977461, -5.958973722094091485, 29.40355698278095886 ) ) ;
#17 = CARTESIAN_POINT ( 'NONE',  ( 486.6637639493749248, 6.735247220974164506, 29.23481582659699640 ) ) ;
#18 = AXIS2_PLACEMENT_3D ( 'NONE', #149, #165, #382 ) ;
#19 = PERSON_AND_ORGANIZATION_ROLE ( 'design_owner' ) ;
#20 = ORIENTED_EDGE ( 'NONE', *, *, #246, .T. ) ;
#21 = FACE_OUTER_BOUND ( 'NONE', #151, .T. ) ;
#22 = DATE_AND_TIME ( #407, #94 ) ;
#23 = CARTESIAN_POINT ( 'NONE',  ( 500.0000000000000000, 3.673940397442059178E-15, -30.00000000000000000 ) ) ;
#24 = ADVANCED_FACE ( 'NONE', ( #492 ), #408, .F. ) ;
#25 = CARTESIAN_POINT ( 'NONE',  ( 20.00000000000000000, 35.00000000000000000, 0.000000000000000000 ) ) ;
#26 = COORDINATED_UNIVERSAL_TIME_OFFSET ( 8, 0, .AHEAD. ) ;
#27 = DIRECTION ( 'NONE',  ( -1.000000000000000000, 0.000000000000000000, 0.000000000000000000 ) ) ;
#28 = DATE_TIME_ROLE ( 'creation_date' ) ;
#29 = PLANE ( 'NONE',  #18 ) ;
#30 = VERTEX_POINT ( 'NONE', #23 ) ;
#31 = CARTESIAN_POINT ( 'NONE',  ( 483.2608570180914285, -3.327795449961982843, 29.81832724936133516 ) ) ;
#32 = CARTESIAN_POINT ( 'NONE',  ( 483.2714198755322172, -3.322168728995424480, -29.81628685276169222 ) ) ;
#33 = CARTESIAN_POINT ( 'NONE',  ( 492.6518920499052570, 7.019761589587381501, -29.16731407996627112 ) ) ;
#34 = CARTESIAN_POINT ( 'NONE',  ( 496.7355646380316898, -3.334846121075545788, -29.81751830530993175 ) ) ;
#35 = DIRECTION ( 'NONE',  ( -1.000000000000000000, 0.000000000000000000, 0.000000000000000000 ) ) ;
#36 = AXIS2_PLACEMENT_3D ( 'NONE', #123, #271, #503 ) ;
#37 = CARTESIAN_POINT ( 'NONE',  ( 497.5000000000000000, -1.055639116014359845E-15, 30.00000000000000000 ) ) ;
#38 = CARTESIAN_POINT ( 'NONE',  ( 483.2608570180914285, 3.327795449961982843, -29.81832724936133516 ) ) ;
#39 = CARTESIAN_POINT ( 'NONE',  ( 492.4223655301839244, -7.114909328492520224, -29.14472982325568751 ) ) ;
#40 = EDGE_CURVE ( 'NONE', #30, #74, #54, .T. ) ;
#41 = CARTESIAN_POINT ( 'NONE',  ( 0.000000000000000000, 0.000000000000000000, 30.00000000000000000 ) ) ;
#42 = CARTESIAN_POINT ( 'NONE',  ( 497.3071187278069374, 1.707652680602022244, -29.95232584805419407 ) ) ;
#43 = CARTESIAN_POINT ( 'NONE',  ( 493.7575460812892629, -6.509432145096925026, -29.28660624043990168 ) ) ;
#44 = CARTESIAN_POINT ( 'NONE',  ( 487.5804393426313936, 7.116086327766451447, -29.14445097702281373 ) ) ;
#45 = CARTESIAN_POINT ( 'NONE',  ( 497.5000000000000000, 1.055639116014359845E-15, -30.00000000000000000 ) ) ;
#46 = ORGANIZATION ( '未指定', '未指定', '' ) ;
#47 = CARTESIAN_POINT ( 'NONE',  ( 484.0393453021817436, 4.578061004013985524, -29.65145805373609988 ) ) ;
#48 = DIRECTION ( 'NONE',  ( -1.000000000000000000, 0.000000000000000000, 0.000000000000000000 ) ) ;
#49 = EDGE_CURVE ( 'NONE', #227, #185, #225, .T. ) ;
#50 = CARTESIAN_POINT ( 'NONE',  ( 482.5476456559749181, 0.9794806813875047702, 29.98797605177512082 ) ) ;
#51 = CARTESIAN_POINT ( 'NONE',  ( 486.0315601307015640, -6.368742968804819604, 29.31651947262573543 ) ) ;
#52 = CARTESIAN_POINT ( 'NONE',  ( 20.00000000000000000, 3.673940397442059178E-15, -30.00000000000000000 ) ) ;
#53 = DIRECTION ( 'NONE',  ( -1.000000000000000000, 0.000000000000000000, 0.000000000000000000 ) ) ;
#54 = CIRCLE ( 'NONE', #497, 30.00000000000000000 ) ;
#55 = CARTESIAN_POINT ( 'NONE',  ( 490.9804303353270711, 7.451838451150898379, 29.05993554484958352 ) ) ;
#56 = LOCAL_TIME ( 11, 35, 39.00000000000000000, #325 ) ;
#57 = CARTESIAN_POINT ( 'NONE',  ( 494.9476188423965937, 5.641885209922748778, 29.46513429177109344 ) ) ;
#58 = ORIENTED_EDGE ( 'NONE', *, *, #304, .T. ) ;
#59 = B_SPLINE_CURVE_WITH_KNOTS ( 'NONE', 3,
 ( #403, #15, #50, #352, #99, #212, #208, #96, #392, #206, #354, #179, #177, #314, #13, #321, #17, #286, #252, #397, #93, #365, #213, #479, #171, #55, #250, #280, #136, #440, #102, #276, #57, #317, #361, #9, #217, #471, #433, #473, #395, #133, #173, #323, #320 ),
 .UNSPECIFIED., .F., .F.,
 ( 4, 2, 2, 2, 2, 2, 2, 2, 2, 2, 1, 2, 2, 2, 2, 2, 2, 2, 2, 2, 2, 2, 4 ),
 ( 0.02354211194794705170, 0.02501309743367189156, 0.02648408291939673143, 0.02721957566225914962, 0.02795506840512156782, 0.02942605389084632095, 0.03016154663370863853, 0.03089703937657095612, 0.03236802486229545250, 0.03310351760515770070, 0.03383901034801994889, 0.03457450309088219709, 0.03530999583374444528, 0.03678098131946894167, 0.03825196680519343806, 0.03972295229091793445, 0.04045844503378018958, 0.04119393777664243778, 0.04192943051950468597, 0.04266492326236694110, 0.04413590874809134035, 0.04560689423381575347, 0.04707787971954015271 ),
 .UNSPECIFIED. ) ;
#60 = COORDINATED_UNIVERSAL_TIME_OFFSET ( 8, 0, .AHEAD. ) ;
#61 = CIRCLE ( 'NONE', #467, 30.00000000000000000 ) ;
#62 = ADVANCED_FACE ( 'NONE', ( #187 ), #29, .F. ) ;
#63 = APPROVAL_DATE_TIME ( #367, #83 ) ;
#64 = ORIENTED_EDGE ( 'NONE', *, *, #277, .F. ) ;
#65 = APPROVAL_PERSON_ORGANIZATION ( #405, #83, #447 ) ;
#66 = DESIGN_CONTEXT ( 'detailed design', #462, 'design' ) ;
#67 = DIRECTION ( 'NONE',  ( 0.000000000000000000, 0.000000000000000000, 1.000000000000000000 ) ) ;
#68 = DIRECTION ( 'NONE',  ( 0.000000000000000000, 0.000000000000000000, 1.000000000000000000 ) ) ;
#69 = COORDINATED_UNIVERSAL_TIME_OFFSET ( 8, 0, .AHEAD. ) ;
#70 = ORIENTED_EDGE ( 'NONE', *, *, #209, .F. ) ;
#71 = CARTESIAN_POINT ( 'NONE',  ( 482.5120066071088445, -0.4910369687929973526, 29.99699136247963338 ) ) ;
#72 = SECURITY_CLASSIFICATION ( '', '', #371 ) ;
#73 = CARTESIAN_POINT ( 'NONE',  ( 482.8854243124961272, -2.423210534174131237, -29.90541658718311169 ) ) ;
#74 = VERTEX_POINT ( 'NONE', #307 ) ;
#75 = CARTESIAN_POINT ( 'NONE',  ( 490.9804303353270711, -7.451838451150899267, -29.05993554484958352 ) ) ;
#76 = CARTESIAN_POINT ( 'NONE',  ( 482.7424486435708104, -1.954637183720551397, 29.94016152399550634 ) ) ;
#77 = CARTESIAN_POINT ( 'NONE',  ( 496.7366890706830418, 3.332937694888621571, -29.81776834892824013 ) ) ;
#78 = DIRECTION ( 'NONE',  ( -1.000000000000000000, 0.000000000000000000, 0.000000000000000000 ) ) ;
#79 = DIRECTION ( 'NONE',  ( 0.000000000000000000, 0.000000000000000000, 1.000000000000000000 ) ) ;
#80 = CARTESIAN_POINT ( 'NONE',  ( 0.000000000000000000, 4.286263797015736496E-15, -35.00000000000000000 ) ) ;
#81 = VECTOR ( 'NONE', #469, 1000.000000000000000 ) ;
#82 = CARTESIAN_POINT ( 'NONE',  ( 485.0504561429189607, -5.640244823291364007, -29.46545240038945934 ) ) ;
#83 = APPROVAL ( #150, '未指定' ) ;
#84 = CARTESIAN_POINT ( 'NONE',  ( 497.5000000000000000, -1.055639116014359845E-15, 30.00000000000000000 ) ) ;
#85 = CARTESIAN_POINT ( 'NONE',  ( 495.9469883213744765, -4.576366562774981439, -29.64951015493231878 ) ) ;
#86 = DIRECTION ( 'NONE',  ( -1.000000000000000000, 0.000000000000000000, 0.000000000000000000 ) ) ;
#87 = CARTESIAN_POINT ( 'NONE',  ( 486.0315601307016209, 6.368742968804821381, -29.31651947262573543 ) ) ;
#88 = CARTESIAN_POINT ( 'NONE',  ( 488.0506328248797558, -7.246391284264177557, -29.11177133409470130 ) ) ;
#89 = CARTESIAN_POINT ( 'NONE',  ( 486.8975496660466433, 6.832681869155026178, -29.21170801783075532 ) ) ;
#90 = EDGE_CURVE ( 'NONE', #355, #227, #108, .T. ) ;
#91 = AXIS2_PLACEMENT_3D ( 'NONE', #376, #448, #67 ) ;
#92 = CARTESIAN_POINT ( 'NONE',  ( 494.9571326652046537, -5.649259533974030134, 29.46537410149322511 ) ) ;
#93 = CARTESIAN_POINT ( 'NONE',  ( 488.5253700671922275, 7.365788923927428122, 29.08181944898371896 ) ) ;
#94 = LOCAL_TIME ( 11, 35, 39.00000000000000000, #493 ) ;
#95 = CARTESIAN_POINT ( 'NONE',  ( 486.8975496660465296, -6.832681869155024401, 29.21170801783075177 ) ) ;
#96 = CARTESIAN_POINT ( 'NONE',  ( 483.5037438589884005, 3.756228388379406535, 29.76471930061523707 ) ) ;
#97 = CARTESIAN_POINT ( 'NONE',  ( 0.000000000000000000, 0.000000000000000000, 0.000000000000000000 ) ) ;
#98 = CARTESIAN_POINT ( 'NONE',  ( 489.5117689435902548, -7.500205360646865493, 29.04732207266958710 ) ) ;
#99 = CARTESIAN_POINT ( 'NONE',  ( 482.8854243124961840, 2.423210534174133457, 29.90541658718311524 ) ) ;
#100 = CYLINDRICAL_SURFACE ( 'NONE', #114, 7.500000000000007105 ) ;
#101 = CARTESIAN_POINT ( 'NONE',  ( 493.3281545754525723, -6.738822152118830289, 29.23397560473592449 ) ) ;
#102 = CARTESIAN_POINT ( 'NONE',  ( 494.3709314595448063, 6.099624826751242068, 29.37369707674587005 ) ) ;
#103 = EDGE_CURVE ( 'NONE', #377, #214, #169, .T. ) ;
#104 = APPROVAL_DATE_TIME ( #412, #7 ) ;
#105 = ADVANCED_FACE ( 'NONE', ( #349 ), #313, .T. ) ;
#106 = CALENDAR_DATE ( 2026, 8, 4 ) ;
#107 = EDGE_LOOP ( 'NONE', ( #143, #109, #326, #299, #152, #362, #335, #64 ) ) ;
#108 = CIRCLE ( 'NONE', #188, 35.00000000000000000 ) ;
#109 = ORIENTED_EDGE ( 'NONE', *, *, #209, .T. ) ;
#110 = MECHANICAL_CONTEXT ( 'NONE', #437, 'mechanical' ) ;
#111 = EDGE_CURVE ( 'NONE', #452, #218, #147, .T. ) ;
#112 = ORIENTED_EDGE ( 'NONE', *, *, #304, .F. ) ;
#113 = ORIENTED_EDGE ( 'NONE', *, *, #495, .T. ) ;
#114 = AXIS2_PLACEMENT_3D ( 'NONE', #400, #359, #178 ) ;
#115 = VERTEX_POINT ( 'NONE', #426 ) ;
#116 = CARTESIAN_POINT ( 'NONE',  ( 490.4923495973504259, -7.500154075971721568, -29.04733531431287119 ) ) ;
#117 = LOCAL_TIME ( 11, 35, 39.00000000000000000, #60 ) ;
#118 = CARTESIAN_POINT ( 'NONE',  ( 483.6313564880952072, -3.968669111447771236, -29.73704564188273025 ) ) ;
#119 = CARTESIAN_POINT ( 'NONE',  ( 482.7424486435708104, 1.954637183720552951, -29.94016152399550634 ) ) ;
#120 = DIRECTION ( 'NONE',  ( 0.000000000000000000, 0.000000000000000000, 1.000000000000000000 ) ) ;
#121 = DIRECTION ( 'NONE',  ( -1.000000000000000000, 0.000000000000000000, 0.000000000000000000 ) ) ;
#122 = EDGE_CURVE ( 'NONE', #266, #115, #215, .T. ) ;
#123 = CARTESIAN_POINT ( 'NONE',  ( 20.00000000000000000, 0.000000000000000000, 0.000000000000000000 ) ) ;
#124 =( GEOMETRIC_REPRESENTATION_CONTEXT ( 3 ) GLOBAL_UNCERTAINTY_ASSIGNED_CONTEXT ( ( #182 ) ) GLOBAL_UNIT_ASSIGNED_CONTEXT ( ( #134, #140, #254 ) ) REPRESENTATION_CONTEXT ( 'NONE', 'WORKASPACE' ) );
#125 = CARTESIAN_POINT ( 'NONE',  ( 488.0489514086904705, 7.258427441106793054, -29.10884893719727273 ) ) ;
#126 = CARTESIAN_POINT ( 'NONE',  ( 494.5695862971853671, -5.952199761782162035, -29.40401886732305670 ) ) ;
#127 = CARTESIAN_POINT ( 'NONE',  ( 482.7420348296060411, -1.954202972945873640, -29.94026019973070518 ) ) ;
#128 = CARTESIAN_POINT ( 'NONE',  ( 490.9825142430079268, 7.451765871373290828, -29.05995741359843976 ) ) ;
#129 = CARTESIAN_POINT ( 'NONE',  ( 493.7615340881773136, 6.507210935373940686, -29.28710871531713877 ) ) ;
#130 = CARTESIAN_POINT ( 'NONE',  ( 0.000000000000000000, 3.673940397442059178E-15, -30.00000000000000000 ) ) ;
#131 = CIRCLE ( 'NONE', #220, 35.00000000000000000 ) ;
#132 = CARTESIAN_POINT ( 'NONE',  ( 497.1037601261870122, -2.418161407108447847, 29.90332002540621659 ) ) ;
#133 = CARTESIAN_POINT ( 'NONE',  ( 497.2576339179960883, 1.954387703503987828, 29.94018149785235039 ) ) ;
#134 =( LENGTH_UNIT ( ) NAMED_UNIT ( * ) SI_UNIT ( .MILLI., .METRE. ) );
#135 = CARTESIAN_POINT ( 'NONE',  ( 495.6382405445002632, -4.951834820701803253, 29.58912519524128371 ) ) ;
#136 = CARTESIAN_POINT ( 'NONE',  ( 493.3269368689222460, 6.739531184340664893, 29.23381484922109408 ) ) ;
#137 = B_SPLINE_CURVE_WITH_KNOTS ( 'NONE', 3,
 ( #164, #305, #310, #127, #73, #231, #32, #498, #118, #423, #270, #385, #82, #342, #387, #425, #163, #308, #243, #88, #350, #273, #502, #205, #116, #75, #5, #39, #430, #43, #233, #126, #337, #383, #161, #464, #85, #504, #379, #34, #200, #389, #461, #427, #45 ),
 .UNSPECIFIED., .F., .F.,
 ( 4, 2, 2, 2, 2, 2, 2, 2, 2, 2, 1, 2, 2, 2, 2, 2, 2, 2, 2, 2, 2, 2, 4 ),
 ( 0.02354211194794704823, 0.02501309743367189156, 0.02648408291939673143, 0.02721957566225915309, 0.02795506840512157476, 0.02942605389084632442, 0.03016154663370864200, 0.03089703937657095958, 0.03236802486229545944, 0.03310351760515770764, 0.03383901034801995583, 0.03457450309088220403, 0.03530999583374445222, 0.03678098131946894861, 0.03825196680519344500, 0.03972295229091794139, 0.04045844503378019652, 0.04119393777664244471, 0.04192943051950469291, 0.04266492326236694110, 0.04413590874809134035, 0.04560689423381575347, 0.04707787971954015271 ),
 .UNSPECIFIED. ) ;
#138 = ORIENTED_EDGE ( 'NONE', *, *, #90, .F. ) ;
#139 = CARTESIAN_POINT ( 'NONE',  ( 0.000000000000000000, 3.673940397442059178E-15, -30.00000000000000000 ) ) ;
#140 =( NAMED_UNIT ( * ) PLANE_ANGLE_UNIT ( ) SI_UNIT ( $, .RADIAN. ) );
#141 = DIRECTION ( 'NONE',  ( 0.000000000000000000, 0.000000000000000000, 1.000000000000000000 ) ) ;
#142 = APPROVAL_ROLE ( '' ) ;
#143 = ORIENTED_EDGE ( 'NONE', *, *, #153, .T. ) ;
#144 = EDGE_LOOP ( 'NONE', ( #483, #20, #113, #417 ) ) ;
#145 = CYLINDRICAL_SURFACE ( 'NONE', #211, 30.00000000000000000 ) ;
#146 = DIRECTION ( 'NONE',  ( 0.000000000000000000, 0.000000000000000000, 1.000000000000000000 ) ) ;
#147 = CIRCLE ( 'NONE', #36, 30.00000000000000000 ) ;
#148 = PERSON_AND_ORGANIZATION_ROLE ( 'classification_officer' ) ;
#149 = CARTESIAN_POINT ( 'NONE',  ( 0.000000000000000000, 0.000000000000000000, 0.000000000000000000 ) ) ;
#150 = APPROVAL_STATUS ( 'not_yet_approved' ) ;
#151 = EDGE_LOOP ( 'NONE', ( #70, #413, #368, #264, #420, #455, #445, #174 ) ) ;
#152 = ORIENTED_EDGE ( 'NONE', *, *, #111, .F. ) ;
#153 = EDGE_CURVE ( 'NONE', #74, #30, #61, .T. ) ;
#154 = CIRCLE ( 'NONE', #338, 35.00000000000000000 ) ;
#155 = CARTESIAN_POINT ( 'NONE',  ( 497.4509595093421126, 0.9866354491309687891, -29.98763338499469100 ) ) ;
#156 = CARTESIAN_POINT ( 'NONE',  ( 497.5000000000000000, 1.055639116014359845E-15, -30.00000000000000000 ) ) ;
#157 = DIRECTION ( 'NONE',  ( -1.000000000000000000, 0.000000000000000000, 0.000000000000000000 ) ) ;
#158 = EDGE_CURVE ( 'NONE', #218, #452, #203, .T. ) ;
#159 = CYLINDRICAL_SURFACE ( 'NONE', #278, 7.500000000000007105 ) ;
#160 = CARTESIAN_POINT ( 'NONE',  ( 493.3281545754524586, 6.738822152118829401, -29.23397560473591383 ) ) ;
#161 = CARTESIAN_POINT ( 'NONE',  ( 495.4724339029294811, -5.134362191894080496, -29.55788981156098671 ) ) ;
#162 = DIRECTION ( 'NONE',  ( 0.000000000000000000, 0.000000000000000000, 1.000000000000000000 ) ) ;
#163 = CARTESIAN_POINT ( 'NONE',  ( 486.6637639493748111, -6.735247220974162730, -29.23481582659698930 ) ) ;
#164 = CARTESIAN_POINT ( 'NONE',  ( 482.5000000000000000, 3.673932979016063634E-15, -30.00000000000000000 ) ) ;
#165 = DIRECTION ( 'NONE',  ( 1.000000000000000000, 0.000000000000000000, 0.000000000000000000 ) ) ;
#166 = DIRECTION ( 'NONE',  ( -1.000000000000000000, 0.000000000000000000, 0.000000000000000000 ) ) ;
#167 = CARTESIAN_POINT ( 'NONE',  ( 497.0196457003661976, 2.652345673097101120, -29.88339017209212045 ) ) ;
#168 = CARTESIAN_POINT ( 'NONE',  ( 0.000000000000000000, 0.000000000000000000, 0.000000000000000000 ) ) ;
#169 = B_SPLINE_CURVE_WITH_KNOTS ( 'NONE', 3,
 ( #465, #424, #155, #42, #274, #232, #167, #77, #241, #470, #272, #431, #388, #347, #275, #129, #160, #33, #463, #311, #195, #128, #268, #3, #199, #125, #44, #89, #235, #302, #87, #201, #242, #343, #336, #306, #47, #429, #38, #460, #119, #390, #1, #197, #468, #204 ),
 .UNSPECIFIED., .F., .F.,
 ( 4, 2, 2, 2, 2, 2, 2, 2, 2, 2, 2, 2, 2, 2, 2, 2, 2, 2, 2, 2, 2, 2, 4 ),
 ( 1.025280324005750974E-18, 0.001471381996746661458, 0.002207072995119991644, 0.002942763993493321614, 0.004414145990239985023, 0.005149836988613316728, 0.005885527986986647565, 0.007356909983733310975, 0.008828291980479975251, 0.009563982978853307823, 0.01029967397722664040, 0.01177105597397330554, 0.01324243797071997068, 0.01471381996746663756, 0.01544951096583997013, 0.01618520196421329924, 0.01692089296258663528, 0.01765658396095996785, 0.01912796595770674402, 0.02059934795445352365, 0.02207072995120029982, 0.02280642094957367402, 0.02354211194794704823 ),
 .UNSPECIFIED. ) ;
#170 = CARTESIAN_POINT ( 'NONE',  ( 495.9503866515069035, -4.572015225994862320, 29.65018844264648834 ) ) ;
#171 = CARTESIAN_POINT ( 'NONE',  ( 490.4923495973504828, 7.500154075971719791, 29.04733531431286053 ) ) ;
#172 = AXIS2_PLACEMENT_3D ( 'NONE', #186, #416, #373 ) ;
#173 = CARTESIAN_POINT ( 'NONE',  ( 497.4509719814528239, 0.9878754551366484282, 29.98763414317786058 ) ) ;
#174 = ORIENTED_EDGE ( 'NONE', *, *, #298, .T. ) ;
#175 = CC_DESIGN_DATE_AND_TIME_ASSIGNMENT ( #22, #442, ( #72 ) ) ;
#176 = CARTESIAN_POINT ( 'NONE',  ( 496.5061101351568027, -3.763005127084300572, 29.76589728466429108 ) ) ;
#177 = CARTESIAN_POINT ( 'NONE',  ( 485.0504561429189607, 5.640244823291363119, 29.46545240038945934 ) ) ;
#178 = DIRECTION ( 'NONE',  ( 1.000000000000000000, 0.000000000000000000, 0.000000000000000000 ) ) ;
#179 = CARTESIAN_POINT ( 'NONE',  ( 484.8673689604307810, 5.474109022542859471, 29.49686430768515066 ) ) ;
#180 = CARTESIAN_POINT ( 'NONE',  ( 489.0124792552374515, -7.450916876608288497, 29.06017365853578127 ) ) ;
#181 = PERSON_AND_ORGANIZATION_ROLE ( 'creator' ) ;
#182 = UNCERTAINTY_MEASURE_WITH_UNIT (LENGTH_MEASURE( 1.000000000000000082E-05 ), #134, 'distance_accuracy_value', 'NONE');
#183 = CALENDAR_DATE ( 2026, 8, 4 ) ;
#184 = ORIENTED_EDGE ( 'NONE', *, *, #103, .F. ) ;
#185 = VERTEX_POINT ( 'NONE', #80 ) ;
#186 = CARTESIAN_POINT ( 'NONE',  ( 0.000000000000000000, 0.000000000000000000, 0.000000000000000000 ) ) ;
#187 = FACE_OUTER_BOUND ( 'NONE', #190, .T. ) ;
#188 = AXIS2_PLACEMENT_3D ( 'NONE', #378, #499, #162 ) ;
#189 = PERSON_AND_ORGANIZATION ( #309, #46 ) ;
#190 = EDGE_LOOP ( 'NONE', ( #58, #229 ) ) ;
#191 = DIRECTION ( 'NONE',  ( -1.000000000000000000, 0.000000000000000000, 0.000000000000000000 ) ) ;
#192 = ADVANCED_FACE ( 'NONE', ( #237, #449 ), #411, .F. ) ;
#193 = EDGE_LOOP ( 'NONE', ( #263, #496, #458, #410 ) ) ;
#194 = ADVANCED_FACE ( 'NONE', ( #21 ), #145, .T. ) ;
#195 = CARTESIAN_POINT ( 'NONE',  ( 491.7093672621810470, 7.306784571400267936, -29.09662152377191191 ) ) ;
#196 = AXIS2_PLACEMENT_3D ( 'NONE', #344, #78, #236 ) ;
#197 = CARTESIAN_POINT ( 'NONE',  ( 482.5120066071088445, 0.4910369687930007387, -29.99699136247963338 ) ) ;
#198 = LINE ( 'NONE', #312, #81 ) ;
#199 = CARTESIAN_POINT ( 'NONE',  ( 489.0124792552373947, 7.450916876608289385, -29.06017365853578127 ) ) ;
#200 = CARTESIAN_POINT ( 'NONE',  ( 497.1115035431938622, -2.432189754006998328, -29.90468273597379323 ) ) ;
#201 = CARTESIAN_POINT ( 'NONE',  ( 485.6264433111928724, 6.097655605946219914, -29.37410078798698976 ) ) ;
#202 = DIRECTION ( 'NONE',  ( 0.000000000000000000, 0.000000000000000000, 1.000000000000000000 ) ) ;
#203 = CIRCLE ( 'NONE', #474, 30.00000000000000000 ) ;
#204 = CARTESIAN_POINT ( 'NONE',  ( 482.5000000000000000, 3.673932979016063634E-15, -30.00000000000000000 ) ) ;
#205 = CARTESIAN_POINT ( 'NONE',  ( 489.7503129760730189, -7.499922413759629869, -29.04739512923571709 ) ) ;
#206 = CARTESIAN_POINT ( 'NONE',  ( 484.0399869628955116, 4.579089799194187016, 29.65132052211539460 ) ) ;
#207 = CARTESIAN_POINT ( 'NONE',  ( 485.6264433111927588, -6.097655605946218138, 29.37410078798698621 ) ) ;
#208 = CARTESIAN_POINT ( 'NONE',  ( 483.2714198755322172, 3.322168728995428033, 29.81628685276169222 ) ) ;
#209 = EDGE_CURVE ( 'NONE', #30, #377, #219, .T. ) ;
#210 = CARTESIAN_POINT ( 'NONE',  ( 482.5000000000000000, 3.673932979016063634E-15, -30.00000000000000000 ) ) ;
#211 = AXIS2_PLACEMENT_3D ( 'NONE', #97, #249, #141 ) ;
#212 = CARTESIAN_POINT ( 'NONE',  ( 483.1665960971872664, 3.100705601562565139, 29.84019265033175827 ) ) ;
#213 = CARTESIAN_POINT ( 'NONE',  ( 489.5009593062283670, 7.487435690219312434, 29.05062726243438576 ) ) ;
#214 = VERTEX_POINT ( 'NONE', #210 ) ;
#215 = B_SPLINE_CURVE_WITH_KNOTS ( 'NONE', 3,
 ( #84, #239, #386, #285, #247, #132, #216, #360, #176, #279, #170, #135, #441, #92, #16, #435, #101, #324, #282, #364, #251, #316, #472, #98, #180, #481, #439, #95, #402, #393, #51, #207, #353, #8, #476, #234, #226, #262, #31, #421, #76, #296, #418, #71, #414, #453 ),
 .UNSPECIFIED., .F., .F.,
 ( 4, 2, 2, 2, 2, 2, 2, 2, 2, 2, 2, 2, 2, 2, 2, 2, 2, 2, 2, 2, 2, 2, 4 ),
 ( 1.025280324005750974E-18, 0.001471381996746662108, 0.002207072995119992078, 0.002942763993493322048, 0.004414145990239985023, 0.005149836988613316728, 0.005885527986986648433, 0.007356909983733311842, 0.008828291980479976986, 0.009563982978853309558, 0.01029967397722664386, 0.01177105597397330727, 0.01324243797071997589, 0.01471381996746663930, 0.01544951096583997534, 0.01618520196421330617, 0.01692089296258663875, 0.01765658396095997132, 0.01912796595770674749, 0.02059934795445352712, 0.02207072995120030329, 0.02280642094957367749, 0.02354211194794705170 ),
 .UNSPECIFIED. ) ;
#216 = CARTESIAN_POINT ( 'NONE',  ( 497.0196457003662545, -2.652345673097101120, 29.88339017209212045 ) ) ;
#217 = CARTESIAN_POINT ( 'NONE',  ( 495.9469883213745902, 4.576366562774986768, 29.64951015493233655 ) ) ;
#218 = VERTEX_POINT ( 'NONE', #52 ) ;
#219 = LINE ( 'NONE', #139, #480 ) ;
#220 = AXIS2_PLACEMENT_3D ( 'NONE', #363, #157, #79 ) ;
#221 = EDGE_LOOP ( 'NONE', ( #258, #399 ) ) ;
#222 = PERSON_AND_ORGANIZATION ( #309, #46 ) ;
#223 = EDGE_CURVE ( 'NONE', #115, #452, #253, .T. ) ;
#224 = CARTESIAN_POINT ( 'NONE',  ( 500.0000000000000000, 30.00000000000000000, 0.000000000000000000 ) ) ;
#225 = LINE ( 'NONE', #374, #446 ) ;
#226 = CARTESIAN_POINT ( 'NONE',  ( 484.0393453021817436, -4.578061004013985524, 29.65145805373609988 ) ) ;
#227 = VERTEX_POINT ( 'NONE', #284 ) ;
#228 = APPROVAL_ROLE ( '' ) ;
#229 = ORIENTED_EDGE ( 'NONE', *, *, #4, .T. ) ;
#230 = CC_DESIGN_PERSON_AND_ORGANIZATION_ASSIGNMENT ( #482, #181, ( #438 ) ) ;
#231 = CARTESIAN_POINT ( 'NONE',  ( 483.1665960971872096, -3.100705601562562030, -29.84019265033175117 ) ) ;
#232 = CARTESIAN_POINT ( 'NONE',  ( 497.1037601261867849, 2.418161407108446515, -29.90332002540620593 ) ) ;
#233 = CARTESIAN_POINT ( 'NONE',  ( 494.3709314595448632, -6.099624826751243845, -29.37369707674585939 ) ) ;
#234 = CARTESIAN_POINT ( 'NONE',  ( 484.3482116855628306, -4.954662686481883682, 29.59013281602890189 ) ) ;
#235 = CARTESIAN_POINT ( 'NONE',  ( 486.6731915203246217, 6.726254618436410482, -29.23647735643820056 ) ) ;
#236 = DIRECTION ( 'NONE',  ( 0.000000000000000000, 0.000000000000000000, 1.000000000000000000 ) ) ;
#237 = FACE_OUTER_BOUND ( 'NONE', #261, .T. ) ;
#238 = AXIS2_PLACEMENT_3D ( 'NONE', #432, #339, #501 ) ;
#239 = CARTESIAN_POINT ( 'NONE',  ( 497.5000000000000000, -0.4976690225003699841, 30.00000000000000711 ) ) ;
#240 = FACE_OUTER_BOUND ( 'NONE', #107, .T. ) ;
#241 = CARTESIAN_POINT ( 'NONE',  ( 496.5061101351569164, 3.763005127084301016, -29.76589728466430174 ) ) ;
#242 = CARTESIAN_POINT ( 'NONE',  ( 485.4306088535707886, 5.952352603980902934, -29.40398816018723593 ) ) ;
#243 = CARTESIAN_POINT ( 'NONE',  ( 487.5811138524729813, -7.103464565505915651, -29.14697596698292159 ) ) ;
#244 = ADVANCED_FACE ( 'NONE', ( #404 ), #100, .F. ) ;
#245 = LINE ( 'NONE', #6, #319 ) ;
#246 = EDGE_CURVE ( 'NONE', #227, #355, #131, .T. ) ;
#247 = CARTESIAN_POINT ( 'NONE',  ( 497.2473696846849975, -1.945904718823534552, 29.93776057018876813 ) ) ;
#248 = CARTESIAN_POINT ( 'NONE',  ( 0.000000000000000000, 0.000000000000000000, 35.00000000000000000 ) ) ;
#249 = DIRECTION ( 'NONE',  ( -1.000000000000000000, 0.000000000000000000, 0.000000000000000000 ) ) ;
#250 = CARTESIAN_POINT ( 'NONE',  ( 491.9437080713404953, 7.260381455397897810, 29.10835981801410099 ) ) ;
#251 = CARTESIAN_POINT ( 'NONE',  ( 491.7093672621810470, -7.306784571400267936, 29.09662152377191191 ) ) ;
#252 = CARTESIAN_POINT ( 'NONE',  ( 487.5811138524728676, 7.103464565505914763, 29.14697596698291804 ) ) ;
#253 = LINE ( 'NONE', #356, #391 ) ;
#254 =( NAMED_UNIT ( * ) SI_UNIT ( $, .STERADIAN. ) SOLID_ANGLE_UNIT ( ) );
#255 = CALENDAR_DATE ( 2026, 8, 4 ) ;
#256 = PERSON_AND_ORGANIZATION_ROLE ( 'design_supplier' ) ;
#257 = VECTOR ( 'NONE', #53, 1000.000000000000000 ) ;
#258 = ORIENTED_EDGE ( 'NONE', *, *, #153, .F. ) ;
#259 = CC_DESIGN_PERSON_AND_ORGANIZATION_ASSIGNMENT ( #291, #287, ( #478 ) ) ;
#260 = PERSON_AND_ORGANIZATION ( #309, #46 ) ;
#261 = EDGE_LOOP ( 'NONE', ( #138, #10 ) ) ;
#262 = CARTESIAN_POINT ( 'NONE',  ( 483.4964561479172858, -3.767222364970391535, 29.76534298343985085 ) ) ;
#263 = ORIENTED_EDGE ( 'NONE', *, *, #298, .F. ) ;
#264 = ORIENTED_EDGE ( 'NONE', *, *, #122, .T. ) ;
#265 = LINE ( 'NONE', #41, #490 ) ;
#266 = VERTEX_POINT ( 'NONE', #37 ) ;
#267 = APPROVAL_PERSON_ORGANIZATION ( #222, #328, #142 ) ;
#268 = CARTESIAN_POINT ( 'NONE',  ( 490.4945201305644105, 7.499793320937953922, -29.04742846085498087 ) ) ;
#269 = DIRECTION ( 'NONE',  ( 0.000000000000000000, 0.000000000000000000, 1.000000000000000000 ) ) ;
#270 = CARTESIAN_POINT ( 'NONE',  ( 484.3489552041646675, -4.955277654340121352, -29.59001043722524571 ) ) ;
#271 = DIRECTION ( 'NONE',  ( -1.000000000000000000, 0.000000000000000000, 0.000000000000000000 ) ) ;
#272 = CARTESIAN_POINT ( 'NONE',  ( 495.9503866515069603, 4.572015225994862320, -29.65018844264649189 ) ) ;
#273 = CARTESIAN_POINT ( 'NONE',  ( 489.0105034856176189, -7.438523474267929814, -29.06318988134012571 ) ) ;
#274 = CARTESIAN_POINT ( 'NONE',  ( 497.2473696846849975, 1.945904718823534107, -29.93776057018876458 ) ) ;
#275 = CARTESIAN_POINT ( 'NONE',  ( 494.5807821420977461, 5.958973722094091485, -29.40355698278095886 ) ) ;
#276 = CARTESIAN_POINT ( 'NONE',  ( 494.5695862971853103, 5.952199761782162035, 29.40401886732305670 ) ) ;
#277 = EDGE_CURVE ( 'NONE', #74, #266, #265, .T. ) ;
#278 = AXIS2_PLACEMENT_3D ( 'NONE', #505, #301, #457 ) ;
#279 = CARTESIAN_POINT ( 'NONE',  ( 496.0978175630398823, -4.373390005155546767, 29.68022358490106427 ) ) ;
#280 = CARTESIAN_POINT ( 'NONE',  ( 492.4223655301839244, 7.114909328492519336, 29.14472982325568751 ) ) ;
#281 = CC_DESIGN_SECURITY_CLASSIFICATION ( #72, ( #478 ) ) ;
#282 = CARTESIAN_POINT ( 'NONE',  ( 492.4216150523392912, -7.102554020676443258, 29.14719847396459684 ) ) ;
#283 = DIRECTION ( 'NONE',  ( 0.000000000000000000, 0.000000000000000000, 1.000000000000000000 ) ) ;
#284 = CARTESIAN_POINT ( 'NONE',  ( 20.00000000000000000, 4.286263797015736496E-15, -35.00000000000000000 ) ) ;
#285 = CARTESIAN_POINT ( 'NONE',  ( 497.3071187278067669, -1.707652680602022244, 29.95232584805418341 ) ) ;
#286 = CARTESIAN_POINT ( 'NONE',  ( 487.3479348947640233, 7.019797518865659391, 29.16730953790217384 ) ) ;
#287 = PERSON_AND_ORGANIZATION_ROLE ( 'creator' ) ;
#288 = DATE_AND_TIME ( #255, #294 ) ;
#289 = ORIENTED_EDGE ( 'NONE', *, *, #90, .T. ) ;
#290 = ADVANCED_FACE ( 'NONE', ( #345 ), #159, .F. ) ;
#291 = PERSON_AND_ORGANIZATION ( #309, #46 ) ;
#292 = VERTEX_POINT ( 'NONE', #419 ) ;
#293 = CARTESIAN_POINT ( 'NONE',  ( 20.00000000000000000, 0.000000000000000000, 0.000000000000000000 ) ) ;
#294 = LOCAL_TIME ( 11, 35, 39.00000000000000000, #26 ) ;
#295 = CARTESIAN_POINT ( 'NONE',  ( 500.0000000000000000, 0.000000000000000000, 0.000000000000000000 ) ) ;
#296 = CARTESIAN_POINT ( 'NONE',  ( 482.5974646534760950, -1.230095523224913112, 29.97574577311585386 ) ) ;
#297 = CALENDAR_DATE ( 2026, 8, 4 ) ;
#298 = EDGE_CURVE ( 'NONE', #214, #377, #137, .T. ) ;
#299 = ORIENTED_EDGE ( 'NONE', *, *, #398, .T. ) ;
#300 = EDGE_LOOP ( 'NONE', ( #289, #322, #112, #485 ) ) ;
#301 = DIRECTION ( 'NONE',  ( 0.000000000000000000, 0.000000000000000000, 1.000000000000000000 ) ) ;
#302 = CARTESIAN_POINT ( 'NONE',  ( 486.2408421516565227, 6.494527552002065107, -29.28882417035288910 ) ) ;
#303 = CYLINDRICAL_SURFACE ( 'NONE', #196, 30.00000000000000000 ) ;
#304 = EDGE_CURVE ( 'NONE', #292, #185, #154, .T. ) ;
#305 = CARTESIAN_POINT ( 'NONE',  ( 482.5000000000002274, -0.4905146943063174447, -30.00000000000000711 ) ) ;
#306 = CARTESIAN_POINT ( 'NONE',  ( 484.3482116855628306, 4.954662686481884570, -29.59013281602890189 ) ) ;
#307 = CARTESIAN_POINT ( 'NONE',  ( 500.0000000000000000, 0.000000000000000000, 30.00000000000000000 ) ) ;
#308 = CARTESIAN_POINT ( 'NONE',  ( 487.3479348947641370, -7.019797518865658503, -29.16730953790217029 ) ) ;
#309 = PERSON ( '未指定', '未指定', '未指定', ('未指定'), ('未指定'), ('未指定') ) ;
#310 = CARTESIAN_POINT ( 'NONE',  ( 482.5476456559750318, -0.9794806813875015505, -29.98797605177512438 ) ) ;
#311 = CARTESIAN_POINT ( 'NONE',  ( 491.9510732255688481, 7.245951031218174521, -29.11188152886204250 ) ) ;
#312 = CARTESIAN_POINT ( 'NONE',  ( 482.5000000000000000, 9.184850993605147944E-16, -30.00000000000000000 ) ) ;
#313 = CYLINDRICAL_SURFACE ( 'NONE', #238, 35.00000000000000000 ) ;
#314 = CARTESIAN_POINT ( 'NONE',  ( 485.4301489099080413, 5.952042260788918071, 29.40405481820602773 ) ) ;
#315 = CC_DESIGN_PERSON_AND_ORGANIZATION_ASSIGNMENT ( #260, #19, ( #351 ) ) ;
#316 = CARTESIAN_POINT ( 'NONE',  ( 490.9825142430078699, -7.451765871373288164, 29.05995741359843265 ) ) ;
#317 = CARTESIAN_POINT ( 'NONE',  ( 495.1281217759943729, 5.478282120341714467, 29.49608364240710756 ) ) ;
#318 = EDGE_LOOP ( 'NONE', ( #327, #184, #443, #487 ) ) ;
#319 = VECTOR ( 'NONE', #283, 1000.000000000000000 ) ;
#320 = CARTESIAN_POINT ( 'NONE',  ( 497.5000000000000000, -1.055639116014359845E-15, 30.00000000000000000 ) ) ;
#321 = CARTESIAN_POINT ( 'NONE',  ( 486.2338798582040909, 6.504138381115586398, 29.28776109457457721 ) ) ;
#322 = ORIENTED_EDGE ( 'NONE', *, *, #49, .T. ) ;
#323 = CARTESIAN_POINT ( 'NONE',  ( 497.5000000000001137, 0.4975349096369329205, 30.00000000000000355 ) ) ;
#324 = CARTESIAN_POINT ( 'NONE',  ( 492.6518920499053706, -7.019761589587383277, 29.16731407996627823 ) ) ;
#325 = COORDINATED_UNIVERSAL_TIME_OFFSET ( 8, 0, .AHEAD. ) ;
#326 = ORIENTED_EDGE ( 'NONE', *, *, #103, .T. ) ;
#327 = ORIENTED_EDGE ( 'NONE', *, *, #394, .F. ) ;
#328 = APPROVAL ( #330, '未指定' ) ;
#329 = DIRECTION ( 'NONE',  ( -1.000000000000000000, 0.000000000000000000, 0.000000000000000000 ) ) ;
#330 = APPROVAL_STATUS ( 'not_yet_approved' ) ;
#331 = EDGE_LOOP ( 'NONE', ( #494, #334 ) ) ;
#332 = PERSON_AND_ORGANIZATION ( #309, #46 ) ;
#333 = CC_DESIGN_APPROVAL ( #328, ( #478 ) ) ;
#334 = ORIENTED_EDGE ( 'NONE', *, *, #158, .T. ) ;
#335 = ORIENTED_EDGE ( 'NONE', *, *, #486, .T. ) ;
#336 = CARTESIAN_POINT ( 'NONE',  ( 484.8692203761942778, 5.475897079378567511, -29.49653728453247581 ) ) ;
#337 = CARTESIAN_POINT ( 'NONE',  ( 494.9476188423965368, -5.641885209922747890, -29.46513429177109344 ) ) ;
#338 = AXIS2_PLACEMENT_3D ( 'NONE', #500, #48, #202 ) ;
#339 = DIRECTION ( 'NONE',  ( -1.000000000000000000, 0.000000000000000000, 0.000000000000000000 ) ) ;
#340 = LINE ( 'NONE', #130, #257 ) ;
#341 = CC_DESIGN_PERSON_AND_ORGANIZATION_ASSIGNMENT ( #332, #148, ( #72 ) ) ;
#342 = CARTESIAN_POINT ( 'NONE',  ( 485.4301489099076434, -5.952042260788917183, -29.40405481820602418 ) ) ;
#343 = CARTESIAN_POINT ( 'NONE',  ( 485.0524552059724215, 5.641953339250028954, -29.46512147886505417 ) ) ;
#344 = CARTESIAN_POINT ( 'NONE',  ( 0.000000000000000000, 0.000000000000000000, 0.000000000000000000 ) ) ;
#345 = FACE_OUTER_BOUND ( 'NONE', #193, .T. ) ;
#346 = PRODUCT_DEFINITION_SHAPE ( 'NONE', 'NONE',  #438 ) ;
#347 = CARTESIAN_POINT ( 'NONE',  ( 494.9571326652046537, 5.649259533974030134, -29.46537410149322511 ) ) ;
#348 = CARTESIAN_POINT ( 'NONE',  ( 20.00000000000000000, 0.000000000000000000, 35.00000000000000000 ) ) ;
#349 = FACE_OUTER_BOUND ( 'NONE', #144, .T. ) ;
#350 = CARTESIAN_POINT ( 'NONE',  ( 488.5253700671922275, -7.365788923927428122, -29.08181944898372251 ) ) ;
#351 = PRODUCT ( 'SHAFT 06_\X2\9ed88ba4\X0\_sldprt', 'SHAFT 06_\X2\9ed88ba4\X0\_sldprt', '', ( #110 ) ) ;
#352 = CARTESIAN_POINT ( 'NONE',  ( 482.7420348296060979, 1.954202972945876082, 29.94026019973071229 ) ) ;
#353 = CARTESIAN_POINT ( 'NONE',  ( 485.4306088535706749, -5.952352603980902046, 29.40398816018723238 ) ) ;
#354 = CARTESIAN_POINT ( 'NONE',  ( 484.3489552041644970, 4.955277654340119575, 29.59001043722524216 ) ) ;
#355 = VERTEX_POINT ( 'NONE', #348 ) ;
#356 = CARTESIAN_POINT ( 'NONE',  ( 0.000000000000000000, 0.000000000000000000, 30.00000000000000000 ) ) ;
#357 = VECTOR ( 'NONE', #477, 1000.000000000000000 ) ;
#358 = CARTESIAN_POINT ( 'NONE',  ( 20.00000000000000000, 0.000000000000000000, 30.00000000000000000 ) ) ;
#359 = DIRECTION ( 'NONE',  ( 0.000000000000000000, 0.000000000000000000, 1.000000000000000000 ) ) ;
#360 = CARTESIAN_POINT ( 'NONE',  ( 496.7366890706831555, -3.332937694888622460, 29.81776834892824368 ) ) ;
#361 = CARTESIAN_POINT ( 'NONE',  ( 495.4724339029297653, 5.134362191894082272, 29.55788981156099737 ) ) ;
#362 = ORIENTED_EDGE ( 'NONE', *, *, #223, .F. ) ;
#363 = CARTESIAN_POINT ( 'NONE',  ( 20.00000000000000000, 0.000000000000000000, 0.000000000000000000 ) ) ;
#364 = CARTESIAN_POINT ( 'NONE',  ( 491.9510732255688481, -7.245951031218174521, 29.11188152886203540 ) ) ;
#365 = CARTESIAN_POINT ( 'NONE',  ( 489.0105034856175052, 7.438523474267927149, 29.06318988134011860 ) ) ;
#366 = ADVANCED_FACE ( 'NONE', ( #2 ), #466, .T. ) ;
#367 = DATE_AND_TIME ( #297, #117 ) ;
#368 = ORIENTED_EDGE ( 'NONE', *, *, #277, .T. ) ;
#369 = DIRECTION ( 'NONE',  ( 0.000000000000000000, 0.000000000000000000, 1.000000000000000000 ) ) ;
#370 = CC_DESIGN_APPROVAL ( #83, ( #72 ) ) ;
#371 = SECURITY_CLASSIFICATION_LEVEL ( 'unclassified' ) ;
#372 = DIRECTION ( 'NONE',  ( -1.000000000000000000, 0.000000000000000000, 0.000000000000000000 ) ) ;
#373 = DIRECTION ( 'NONE',  ( 1.000000000000000000, 0.000000000000000000, 0.000000000000000000 ) ) ;
#374 = CARTESIAN_POINT ( 'NONE',  ( 0.000000000000000000, 4.286263797015736496E-15, -35.00000000000000000 ) ) ;
#375 = APPLICATION_PROTOCOL_DEFINITION ( 'international standard', 'config_control_design', 1994, #462 ) ;
#376 = CARTESIAN_POINT ( 'NONE',  ( 0.000000000000000000, 0.000000000000000000, 0.000000000000000000 ) ) ;
#377 = VERTEX_POINT ( 'NONE', #156 ) ;
#378 = CARTESIAN_POINT ( 'NONE',  ( 20.00000000000000000, 0.000000000000000000, 0.000000000000000000 ) ) ;
#379 = CARTESIAN_POINT ( 'NONE',  ( 496.5051833849610716, -3.764901158012451621, -29.76568161519924871 ) ) ;
#380 = CARTESIAN_POINT ( 'NONE',  ( 500.0000000000000000, 0.000000000000000000, 0.000000000000000000 ) ) ;
#381 = ADVANCED_FACE ( 'NONE', ( #240 ), #303, .T. ) ;
#382 = DIRECTION ( 'NONE',  ( 0.000000000000000000, 0.000000000000000000, -1.000000000000000000 ) ) ;
#383 = CARTESIAN_POINT ( 'NONE',  ( 495.1281217759943729, -5.478282120341715355, -29.49608364240711111 ) ) ;
#384 = LOCAL_TIME ( 11, 35, 39.00000000000000000, #69 ) ;
#385 = CARTESIAN_POINT ( 'NONE',  ( 484.8673689604308379, -5.474109022542859471, -29.49686430768515777 ) ) ;
#386 = CARTESIAN_POINT ( 'NONE',  ( 497.4509595093422831, -0.9866354491309687891, 29.98763338499468745 ) ) ;
#387 = CARTESIAN_POINT ( 'NONE',  ( 485.6263800944238938, -6.097607577758233255, -29.37411059642588640 ) ) ;
#388 = CARTESIAN_POINT ( 'NONE',  ( 495.4739708784137520, 5.132734866319940359, -29.55817372314889369 ) ) ;
#389 = CARTESIAN_POINT ( 'NONE',  ( 497.2576339179961451, -1.954387703503990492, -29.94018149785235394 ) ) ;
#390 = CARTESIAN_POINT ( 'NONE',  ( 482.5974646534760950, 1.230095523224915333, -29.97574577311585386 ) ) ;
#391 = VECTOR ( 'NONE', #12, 1000.000000000000000 ) ;
#392 = CARTESIAN_POINT ( 'NONE',  ( 483.6313564880952640, 3.968669111447773901, 29.73704564188272670 ) ) ;
#393 = CARTESIAN_POINT ( 'NONE',  ( 486.2408421516564090, -6.494527552002032245, 29.28882417035287489 ) ) ;
#394 = EDGE_CURVE ( 'NONE', #214, #115, #198, .T. ) ;
#395 = CARTESIAN_POINT ( 'NONE',  ( 497.1115035431938622, 2.432189754007000548, 29.90468273597378612 ) ) ;
#396 = DIRECTION ( 'NONE',  ( -1.000000000000000000, 0.000000000000000000, 0.000000000000000000 ) ) ;
#397 = CARTESIAN_POINT ( 'NONE',  ( 488.0506328248796422, 7.246391284264176669, 29.11177133409470486 ) ) ;
#398 = EDGE_CURVE ( 'NONE', #214, #218, #340, .T. ) ;
#399 = ORIENTED_EDGE ( 'NONE', *, *, #40, .F. ) ;
#400 = CARTESIAN_POINT ( 'NONE',  ( 490.0000000000000000, 0.000000000000000000, -30.00000000000000000 ) ) ;
#401 = APPROVAL_PERSON_ORGANIZATION ( #409, #7, #228 ) ;
#402 = CARTESIAN_POINT ( 'NONE',  ( 486.6731915203246217, -6.726254618436385613, 29.23647735643821832 ) ) ;
#403 = CARTESIAN_POINT ( 'NONE',  ( 482.5000000000000000, 7.418410087374944410E-21, 30.00000000000000000 ) ) ;
#404 = FACE_OUTER_BOUND ( 'NONE', #318, .T. ) ;
#405 = PERSON_AND_ORGANIZATION ( #309, #46 ) ;
#406 = AXIS2_PLACEMENT_3D ( 'NONE', #168, #166, #120 ) ;
#407 = CALENDAR_DATE ( 2026, 8, 4 ) ;
#408 = PLANE ( 'NONE',  #428 ) ;
#409 = PERSON_AND_ORGANIZATION ( #309, #46 ) ;
#410 = ORIENTED_EDGE ( 'NONE', *, *, #459, .F. ) ;
#411 = PLANE ( 'NONE',  #11 ) ;
#412 = DATE_AND_TIME ( #106, #384 ) ;
#413 = ORIENTED_EDGE ( 'NONE', *, *, #40, .T. ) ;
#414 = CARTESIAN_POINT ( 'NONE',  ( 482.5000000000002274, -0.2453234574189282480, 30.00000000000001776 ) ) ;
#415 = CIRCLE ( 'NONE', #91, 35.00000000000000000 ) ;
#416 = DIRECTION ( 'NONE',  ( 0.000000000000000000, 0.000000000000000000, 1.000000000000000000 ) ) ;
#417 = ORIENTED_EDGE ( 'NONE', *, *, #4, .F. ) ;
#418 = CARTESIAN_POINT ( 'NONE',  ( 482.5606211911176047, -0.9832625766564488945, 29.98489290977618182 ) ) ;
#419 = CARTESIAN_POINT ( 'NONE',  ( 0.000000000000000000, 0.000000000000000000, 35.00000000000000000 ) ) ;
#420 = ORIENTED_EDGE ( 'NONE', *, *, #223, .T. ) ;
#421 = CARTESIAN_POINT ( 'NONE',  ( 482.8850480195969794, -2.422339572387714579, 29.90550339825157522 ) ) ;
#422 = CC_DESIGN_DATE_AND_TIME_ASSIGNMENT ( #288, #28, ( #438 ) ) ;
#423 = CARTESIAN_POINT ( 'NONE',  ( 484.0399869628953979, -4.579089799194183463, -29.65132052211538749 ) ) ;
#424 = CARTESIAN_POINT ( 'NONE',  ( 497.5000000000001137, 0.4976690225003700951, -30.00000000000000355 ) ) ;
#425 = CARTESIAN_POINT ( 'NONE',  ( 486.2338798582040340, -6.504138381115588174, -29.28776109457457721 ) ) ;
#426 = CARTESIAN_POINT ( 'NONE',  ( 482.5000000000000000, 7.418410087374944410E-21, 30.00000000000000000 ) ) ;
#427 = CARTESIAN_POINT ( 'NONE',  ( 497.5000000000000000, -0.4975349096369354185, -30.00000000000000355 ) ) ;
#428 = AXIS2_PLACEMENT_3D ( 'NONE', #224, #372, #68 ) ;
#429 = CARTESIAN_POINT ( 'NONE',  ( 483.4964561479172858, 3.767222364970391091, -29.76534298343985085 ) ) ;
#430 = CARTESIAN_POINT ( 'NONE',  ( 493.3269368689221324, -6.739531184340665781, -29.23381484922108697 ) ) ;
#431 = CARTESIAN_POINT ( 'NONE',  ( 495.6382405445002632, 4.951834820701804141, -29.58912519524127305 ) ) ;
#432 = CARTESIAN_POINT ( 'NONE',  ( 0.000000000000000000, 0.000000000000000000, 0.000000000000000000 ) ) ;
#433 = CARTESIAN_POINT ( 'NONE',  ( 496.5051833849608443, 3.764901158012449844, 29.76568161519924871 ) ) ;
#434 = MANIFOLD_SOLID_BREP ( '输入1', #456 ) ;
#435 = CARTESIAN_POINT ( 'NONE',  ( 493.7615340881772568, -6.507210935373939797, 29.28710871531713522 ) ) ;
#436 = LINE ( 'NONE', #248, #357 ) ;
#437 = APPLICATION_CONTEXT ( 'configuration controlled 3d designs of mechanical parts and assemblies' ) ;
#438 = PRODUCT_DEFINITION ( '未知', '', #478, #66 ) ;
#439 = CARTESIAN_POINT ( 'NONE',  ( 487.5804393426315642, -7.116086327766449671, 29.14445097702281018 ) ) ;
#440 = CARTESIAN_POINT ( 'NONE',  ( 493.7575460812893766, 6.509432145096925915, 29.28660624043990524 ) ) ;
#441 = CARTESIAN_POINT ( 'NONE',  ( 495.4739708784137520, -5.132734866319939471, 29.55817372314888658 ) ) ;
#442 = DATE_TIME_ROLE ( 'classification_date' ) ;
#443 = ORIENTED_EDGE ( 'NONE', *, *, #459, .T. ) ;
#444 = DATE_AND_TIME ( #183, #56 ) ;
#445 = ORIENTED_EDGE ( 'NONE', *, *, #398, .F. ) ;
#446 = VECTOR ( 'NONE', #27, 1000.000000000000000 ) ;
#447 = APPROVAL_ROLE ( '' ) ;
#448 = DIRECTION ( 'NONE',  ( -1.000000000000000000, 0.000000000000000000, 0.000000000000000000 ) ) ;
#449 = FACE_BOUND ( 'NONE', #331, .T. ) ;
#450 = CC_DESIGN_APPROVAL ( #7, ( #438 ) ) ;
#451 = APPROVAL_STATUS ( 'not_yet_approved' ) ;
#452 = VERTEX_POINT ( 'NONE', #358 ) ;
#453 = CARTESIAN_POINT ( 'NONE',  ( 482.5000000000000000, 7.418410087374944410E-21, 30.00000000000000000 ) ) ;
#454 = SHAPE_DEFINITION_REPRESENTATION ( #346, #14 ) ;
#455 = ORIENTED_EDGE ( 'NONE', *, *, #158, .F. ) ;
#456 = CLOSED_SHELL ( 'NONE', ( #290, #381, #366, #62, #105, #192, #194, #24, #244 ) ) ;
#457 = DIRECTION ( 'NONE',  ( 1.000000000000000000, 0.000000000000000000, 0.000000000000000000 ) ) ;
#458 = ORIENTED_EDGE ( 'NONE', *, *, #122, .F. ) ;
#459 = EDGE_CURVE ( 'NONE', #377, #266, #245, .T. ) ;
#460 = CARTESIAN_POINT ( 'NONE',  ( 482.8850480195969794, 2.422339572387714135, -29.90550339825157522 ) ) ;
#461 = CARTESIAN_POINT ( 'NONE',  ( 497.4509719814527102, -0.9878754551366458747, -29.98763414317785703 ) ) ;
#462 = APPLICATION_CONTEXT ( 'configuration controlled 3d designs of mechanical parts and assemblies' ) ;
#463 = CARTESIAN_POINT ( 'NONE',  ( 492.4216150523391775, 7.102554020676442370, -29.14719847396458974 ) ) ;
#464 = CARTESIAN_POINT ( 'NONE',  ( 495.6362429428874634, -4.954045468119897322, -29.58874814594426539 ) ) ;
#465 = CARTESIAN_POINT ( 'NONE',  ( 497.5000000000000000, 1.055639116014359845E-15, -30.00000000000000000 ) ) ;
#466 = CYLINDRICAL_SURFACE ( 'NONE', #406, 35.00000000000000000 ) ;
#467 = AXIS2_PLACEMENT_3D ( 'NONE', #380, #35, #488 ) ;
#468 = CARTESIAN_POINT ( 'NONE',  ( 482.5000000000002274, 0.2453234574189316619, -30.00000000000001776 ) ) ;
#469 = DIRECTION ( 'NONE',  ( 0.000000000000000000, 0.000000000000000000, 1.000000000000000000 ) ) ;
#470 = CARTESIAN_POINT ( 'NONE',  ( 496.0978175630399392, 4.373390005155547655, -29.68022358490106782 ) ) ;
#471 = CARTESIAN_POINT ( 'NONE',  ( 496.0946531463458200, 4.377862026849586918, 29.67957032641514914 ) ) ;
#472 = CARTESIAN_POINT ( 'NONE',  ( 490.4945201305644105, -7.499793320937953922, 29.04742846085498087 ) ) ;
#473 = CARTESIAN_POINT ( 'NONE',  ( 496.7355646380316898, 3.334846121075548009, 29.81751830530993175 ) ) ;
#474 = AXIS2_PLACEMENT_3D ( 'NONE', #293, #121, #269 ) ;
#475 = CC_DESIGN_PERSON_AND_ORGANIZATION_ASSIGNMENT ( #189, #256, ( #478 ) ) ;
#476 = CARTESIAN_POINT ( 'NONE',  ( 484.8692203761942778, -5.475897079378568399, 29.49653728453247581 ) ) ;
#477 = DIRECTION ( 'NONE',  ( -1.000000000000000000, 0.000000000000000000, 0.000000000000000000 ) ) ;
#478 = PRODUCT_DEFINITION_FORMATION_WITH_SPECIFIED_SOURCE ( '任何', '', #351, .NOT_KNOWN. ) ;
#479 = CARTESIAN_POINT ( 'NONE',  ( 489.7503129760730189, 7.499922413759628093, 29.04739512923571354 ) ) ;
#480 = VECTOR ( 'NONE', #396, 1000.000000000000000 ) ;
#481 = CARTESIAN_POINT ( 'NONE',  ( 488.0489514086904137, -7.258427441106793943, 29.10884893719727629 ) ) ;
#482 = PERSON_AND_ORGANIZATION ( #309, #46 ) ;
#483 = ORIENTED_EDGE ( 'NONE', *, *, #49, .F. ) ;
#484 = APPLICATION_PROTOCOL_DEFINITION ( 'international standard', 'config_control_design', 1994, #437 ) ;
#485 = ORIENTED_EDGE ( 'NONE', *, *, #495, .F. ) ;
#486 = EDGE_CURVE ( 'NONE', #115, #266, #59, .T. ) ;
#487 = ORIENTED_EDGE ( 'NONE', *, *, #486, .F. ) ;
#488 = DIRECTION ( 'NONE',  ( 0.000000000000000000, 0.000000000000000000, 1.000000000000000000 ) ) ;
#489 = PRODUCT_RELATED_PRODUCT_CATEGORY ( 'detail', '', ( #351 ) ) ;
#490 = VECTOR ( 'NONE', #86, 1000.000000000000000 ) ;
#491 = APPROVAL_DATE_TIME ( #444, #328 ) ;
#492 = FACE_OUTER_BOUND ( 'NONE', #221, .T. ) ;
#493 = COORDINATED_UNIVERSAL_TIME_OFFSET ( 8, 0, .AHEAD. ) ;
#494 = ORIENTED_EDGE ( 'NONE', *, *, #111, .T. ) ;
#495 = EDGE_CURVE ( 'NONE', #355, #292, #436, .T. ) ;
#496 = ORIENTED_EDGE ( 'NONE', *, *, #394, .T. ) ;
#497 = AXIS2_PLACEMENT_3D ( 'NONE', #295, #329, #146 ) ;
#498 = CARTESIAN_POINT ( 'NONE',  ( 483.5037438589882868, -3.756228388379404315, -29.76471930061523352 ) ) ;
#499 = DIRECTION ( 'NONE',  ( -1.000000000000000000, 0.000000000000000000, 0.000000000000000000 ) ) ;
#500 = CARTESIAN_POINT ( 'NONE',  ( 0.000000000000000000, 0.000000000000000000, 0.000000000000000000 ) ) ;
#501 = DIRECTION ( 'NONE',  ( 0.000000000000000000, 0.000000000000000000, 1.000000000000000000 ) ) ;
#502 = CARTESIAN_POINT ( 'NONE',  ( 489.5009593062283670, -7.487435690219312434, -29.05062726243437154 ) ) ;
#503 = DIRECTION ( 'NONE',  ( 0.000000000000000000, 0.000000000000000000, 1.000000000000000000 ) ) ;
#504 = CARTESIAN_POINT ( 'NONE',  ( 496.0946531463456495, -4.377862026849587807, -29.67957032641513848 ) ) ;
#505 = CARTESIAN_POINT ( 'NONE',  ( 490.0000000000000000, 0.000000000000000000, -30.00000000000000000 ) ) ;
ENDSEC;
END-ISO-10303-21;
