ISO-10303-21;
HEADER;
FILE_DESCRIPTION (( 'STEP AP203' ),
    '1' );
FILE_NAME ('SPACER(Varsay_lan)_默认_sldprt.STEP',
    '2026-04-08T03:35:45',
    ( '' ),
    ( '' ),
    'SwSTEP 2.0',
    'SolidWorks 2022',
    '' );
FILE_SCHEMA (( 'CONFIG_CONTROL_DESIGN' ));
ENDSEC;

DATA;
#1 = EDGE_CURVE ( 'NONE', #111, #400, #464, .T. ) ;
#2 = CYLINDRICAL_SURFACE ( 'NONE', #159, 115.3380461810842235 ) ;
#3 = DIRECTION ( 'NONE',  ( 1.000000000000000000, 0.000000000000000000, 0.000000000000000000 ) ) ;
#4 = CARTESIAN_POINT ( 'NONE',  ( 5809.503782986570513, 3629.215227432414849, 15.07808196999680028 ) ) ;
#5 = PERSON ( '未指定', '未指定', '未指定', ('未指定'), ('未指定'), ('未指定') ) ;
#6 = CARTESIAN_POINT ( 'NONE',  ( 5804.303536830079793, 3612.804689115275323, 125.0000000000000000 ) ) ;
#7 = CARTESIAN_POINT ( 'NONE',  ( 5804.258409014470089, 3612.661638493960254, 17.99999999999970157 ) ) ;
#8 = ORIENTED_EDGE ( 'NONE', *, *, #176, .F. ) ;
#9 = DIRECTION ( 'NONE',  ( 0.3008521040918674672, 0.9536708087508478648, 0.000000000000000000 ) ) ;
#10 = CARTESIAN_POINT ( 'NONE',  ( 6116.344094594010130, 3768.274805253469822, 0.000000000000000000 ) ) ;
#11 = EDGE_CURVE ( 'NONE', #338, #769, #440, .T. ) ;
#12 = EDGE_LOOP ( 'NONE', ( #571, #742, #22, #554 ) ) ;
#13 = AXIS2_PLACEMENT_3D ( 'NONE', #365, #645, #14 ) ;
#14 = DIRECTION ( 'NONE',  ( -0.3008521040917515044, -0.9536708087508845022, -5.782411586594656023E-15 ) ) ;
#15 = DIRECTION ( 'NONE',  ( 0.000000000000000000, 0.000000000000000000, 1.000000000000000000 ) ) ;
#16 = ORIENTED_EDGE ( 'NONE', *, *, #750, .F. ) ;
#17 = LINE ( 'NONE', #881, #655 ) ;
#18 = CYLINDRICAL_SURFACE ( 'NONE', #13, 2.999999999997250644 ) ;
#19 = CC_DESIGN_APPROVAL ( #101, ( #812 ) ) ;
#20 = CARTESIAN_POINT ( 'NONE',  ( 5804.303536830079793, 3612.804689115275323, 17.99999999999970157 ) ) ;
#21 = AXIS2_PLACEMENT_3D ( 'NONE', #535, #542, #34 ) ;
#22 = ORIENTED_EDGE ( 'NONE', *, *, #23, .T. ) ;
#23 = EDGE_CURVE ( 'NONE', #585, #590, #468, .T. ) ;
#24 = DIRECTION ( 'NONE',  ( 1.000000000000000000, 0.000000000000000000, 0.000000000000000000 ) ) ;
#25 = DIRECTION ( 'NONE',  ( -0.9536708087508350973, 0.3008521040919080458, 2.429184967052800329E-15 ) ) ;
#26 = ORIENTED_EDGE ( 'NONE', *, *, #139, .T. ) ;
#27 = CARTESIAN_POINT ( 'NONE',  ( 5804.303536830079793, 3612.804689115275323, 125.0000000000000000 ) ) ;
#28 = DIRECTION ( 'NONE',  ( 0.000000000000000000, 0.000000000000000000, -1.000000000000000000 ) ) ;
#29 = CIRCLE ( 'NONE', #521, 30.00000000000024869 ) ;
#30 = FACE_BOUND ( 'NONE', #251, .T. ) ;
#31 = ORIENTED_EDGE ( 'NONE', *, *, #732, .F. ) ;
#32 = ORIENTED_EDGE ( 'NONE', *, *, #114, .T. ) ;
#33 = LINE ( 'NONE', #866, #573 ) ;
#34 = DIRECTION ( 'NONE',  ( 1.000000000000000000, 0.000000000000000000, 0.000000000000000000 ) ) ;
#35 = LINE ( 'NONE', #601, #532 ) ;
#36 = EDGE_CURVE ( 'NONE', #559, #436, #558, .T. ) ;
#37 = VECTOR ( 'NONE', #414, 1000.000000000000000 ) ;
#38 = PERSON_AND_ORGANIZATION ( #5, #543 ) ;
#39 = CARTESIAN_POINT ( 'NONE',  ( 5808.864012915360036, 3627.253565024700492, 17.62706499715909914 ) ) ;
#40 = CARTESIAN_POINT ( 'NONE',  ( 5804.480967581393998, 3613.352383250394723, 13.33291376683327201 ) ) ;
#41 = ADVANCED_FACE ( 'NONE', ( #276 ), #60, .F. ) ;
#42 = ORIENTED_EDGE ( 'NONE', *, *, #435, .F. ) ;
#43 = EDGE_CURVE ( 'NONE', #111, #246, #739, .T. ) ;
#44 = ADVANCED_FACE ( 'NONE', ( #200 ), #702, .F. ) ;
#45 = DESIGN_CONTEXT ( 'detailed design', #203, 'design' ) ;
#46 = AXIS2_PLACEMENT_3D ( 'NONE', #497, #426, #574 ) ;
#47 = FACE_OUTER_BOUND ( 'NONE', #130, .T. ) ;
#48 = LINE ( 'NONE', #332, #500 ) ;
#49 = VERTEX_POINT ( 'NONE', #408 ) ;
#50 = LINE ( 'NONE', #466, #99 ) ;
#51 = CALENDAR_DATE ( 2026, 8, 4 ) ;
#52 = VECTOR ( 'NONE', #403, 1000.000000000000000 ) ;
#53 = CARTESIAN_POINT ( 'NONE',  ( 5809.179017024096538, 3628.207867266953144, 15.60099947280648003 ) ) ;
#54 = ORIENTED_EDGE ( 'NONE', *, *, #152, .F. ) ;
#55 = PRODUCT ( 'SPACER(Varsay_lan)_\X2\9ed88ba4\X0\_sldprt', 'SPACER(Varsay_lan)_\X2\9ed88ba4\X0\_sldprt', '', ( #611 ) ) ;
#56 = AXIS2_PLACEMENT_3D ( 'NONE', #483, #394, #330 ) ;
#57 = EDGE_CURVE ( 'NONE', #469, #186, #897, .T. ) ;
#58 = EDGE_LOOP ( 'NONE', ( #66, #546, #386, #416 ) ) ;
#59 = CARTESIAN_POINT ( 'NONE',  ( 6011.324311648510047, 4101.721043206979630, -113.1370849898482049 ) ) ;
#60 = CYLINDRICAL_SURFACE ( 'NONE', #458, 30.00000000000024869 ) ;
#61 = ORIENTED_EDGE ( 'NONE', *, *, #789, .T. ) ;
#62 = DIRECTION ( 'NONE',  ( -0.9536708087508350973, 0.3008521040919075462, 0.000000000000000000 ) ) ;
#63 = ORIENTED_EDGE ( 'NONE', *, *, #700, .F. ) ;
#64 = DIRECTION ( 'NONE',  ( 0.000000000000000000, 6.982962677686270655E-15, -1.000000000000000000 ) ) ;
#65 = PLANE ( 'NONE',  #735 ) ;
#66 = ORIENTED_EDGE ( 'NONE', *, *, #628, .F. ) ;
#67 = CARTESIAN_POINT ( 'NONE',  ( 6041.152785902670075, 3826.721043206979630, 15.00000000000000000 ) ) ;
#68 = FACE_OUTER_BOUND ( 'NONE', #433, .T. ) ;
#69 = ORIENTED_EDGE ( 'NONE', *, *, #587, .T. ) ;
#70 = CC_DESIGN_PERSON_AND_ORGANIZATION_ASSIGNMENT ( #108, #677, ( #541 ) ) ;
#71 = DIRECTION ( 'NONE',  ( 0.000000000000000000, 0.000000000000000000, 1.000000000000000000 ) ) ;
#72 = EDGE_CURVE ( 'NONE', #294, #173, #253, .T. ) ;
#73 = AXIS2_PLACEMENT_3D ( 'NONE', #475, #757, #821 ) ;
#74 = ORIENTED_EDGE ( 'NONE', *, *, #750, .T. ) ;
#75 = CARTESIAN_POINT ( 'NONE',  ( 5804.305652260230090, 3612.804021765905418, 15.64338069473160076 ) ) ;
#76 = EDGE_CURVE ( 'NONE', #277, #590, #382, .T. ) ;
#77 = DIRECTION ( 'NONE',  ( 0.000000000000000000, 0.000000000000000000, 1.000000000000000000 ) ) ;
#78 = EDGE_LOOP ( 'NONE', ( #170, #488, #91, #662 ) ) ;
#79 = AXIS2_PLACEMENT_3D ( 'NONE', #797, #877, #883 ) ;
#80 = CARTESIAN_POINT ( 'NONE',  ( 5919.373424222510948, 3824.932944611365201, 15.00000000000000000 ) ) ;
#81 = DIRECTION ( 'NONE',  ( -0.3008521040919075462, -0.9536708087508350973, -6.378061202868541938E-15 ) ) ;
#82 = ORIENTED_EDGE ( 'NONE', *, *, #133, .F. ) ;
#83 = DIRECTION ( 'NONE',  ( 0.9536708087508446452, -0.3008521040918774037, 0.000000000000000000 ) ) ;
#84 = B_SPLINE_CURVE_WITH_KNOTS ( 'NONE', 3,
 ( #612, #480, #199, #761, #412, #690, #396, #345, #467, #537, #264, #900, #749, #183, #40, #391, #675, #275 ),
 .UNSPECIFIED., .F., .F.,
 ( 4, 2, 2, 2, 2, 2, 2, 2, 4 ),
 ( 0.000000000000000000, 0.1249999999999999722, 0.2499999999999999445, 0.3749999999999998890, 0.4999999999999998890, 0.6249999999999998890, 0.7499999999999998890, 0.8750000000000000000, 1.000000000000000000 ),
 .UNSPECIFIED. ) ;
#85 = EDGE_CURVE ( 'NONE', #224, #619, #813, .T. ) ;
#86 = DIRECTION ( 'NONE',  ( -0.000000000000000000, -0.000000000000000000, -1.000000000000000000 ) ) ;
#87 = SHAPE_DEFINITION_REPRESENTATION ( #254, #872 ) ;
#88 = ORIENTED_EDGE ( 'NONE', *, *, #139, .F. ) ;
#89 = CARTESIAN_POINT ( 'NONE',  ( 6069.319511455009888, 4129.483363415190070, 15.00000000000000000 ) ) ;
#90 = LINE ( 'NONE', #366, #274 ) ;
#91 = ORIENTED_EDGE ( 'NONE', *, *, #85, .T. ) ;
#92 = ORIENTED_EDGE ( 'NONE', *, *, #799, .F. ) ;
#93 = VECTOR ( 'NONE', #726, 1000.000000000000000 ) ;
#94 = LINE ( 'NONE', #158, #368 ) ;
#95 = EDGE_CURVE ( 'NONE', #436, #173, #48, .T. ) ;
#96 = EDGE_LOOP ( 'NONE', ( #444, #753, #157, #667 ) ) ;
#97 = CARTESIAN_POINT ( 'NONE',  ( 5941.405790318180152, 4127.687113471534758, 0.000000000000000000 ) ) ;
#98 = CARTESIAN_POINT ( 'NONE',  ( 5808.816318391460300, 3627.109751246534870, 125.0000000000000000 ) ) ;
#99 = VECTOR ( 'NONE', #62, 1000.000000000000114 ) ;
#100 = DIRECTION ( 'NONE',  ( -0.9996894970330497676, -0.02491805614023844678, 0.000000000000000000 ) ) ;
#101 = APPROVAL ( #387, '未指定' ) ;
#102 = VERTEX_POINT ( 'NONE', #613 ) ;
#103 = DIRECTION ( 'NONE',  ( -0.3008521040919075462, -0.9536708087508350973, -6.378061202868541938E-15 ) ) ;
#104 = CARTESIAN_POINT ( 'NONE',  ( 5808.888432405999083, 3627.323601954380138, 17.25441115140259996 ) ) ;
#105 = ORIENTED_EDGE ( 'NONE', *, *, #11, .F. ) ;
#106 = ORIENTED_EDGE ( 'NONE', *, *, #85, .F. ) ;
#107 = CARTESIAN_POINT ( 'NONE',  ( 6041.324311648510047, 4101.721043206979630, 0.000000000000000000 ) ) ;
#108 = PERSON_AND_ORGANIZATION ( #5, #543 ) ;
#109 = AXIS2_PLACEMENT_3D ( 'NONE', #89, #796, #526 ) ;
#110 = PLANE ( 'NONE',  #438 ) ;
#111 = VERTEX_POINT ( 'NONE', #891 ) ;
#112 = DATE_AND_TIME ( #748, #448 ) ;
#113 = DIRECTION ( 'NONE',  ( 0.000000000000000000, 0.000000000000000000, -1.000000000000000000 ) ) ;
#114 = EDGE_CURVE ( 'NONE', #173, #695, #697, .T. ) ;
#115 = VECTOR ( 'NONE', #728, 1000.000000000000000 ) ;
#116 = ORIENTED_EDGE ( 'NONE', *, *, #57, .F. ) ;
#117 = DIRECTION ( 'NONE',  ( 0.000000000000000000, 0.000000000000000000, 1.000000000000000000 ) ) ;
#118 = VERTEX_POINT ( 'NONE', #122 ) ;
#119 = ORIENTED_EDGE ( 'NONE', *, *, #856, .T. ) ;
#120 = CARTESIAN_POINT ( 'NONE',  ( 6008.796675622559633, 3567.168196230374633, 2.560451850541770099E-12 ) ) ;
#121 = DIRECTION ( 'NONE',  ( -1.000000000000000000, 0.000000000000000000, 0.000000000000000000 ) ) ;
#122 = CARTESIAN_POINT ( 'NONE',  ( 6007.894119310279166, 3564.307183804140095, 125.0000000000000000 ) ) ;
#123 = ORIENTED_EDGE ( 'NONE', *, *, #245, .T. ) ;
#124 = ADVANCED_FACE ( 'NONE', ( #404 ), #65, .T. ) ;
#125 = CARTESIAN_POINT ( 'NONE',  ( 5831.710038369579706, 3899.886234583660098, 15.00000000000000000 ) ) ;
#126 = DATE_AND_TIME ( #51, #419 ) ;
#127 = CARTESIAN_POINT ( 'NONE',  ( 5809.281250604489287, 3628.524565679309035, 15.37864083493851552 ) ) ;
#128 = DIRECTION ( 'NONE',  ( -0.9536708087508350973, 0.3008521040919075462, 2.603240987229341200E-29 ) ) ;
#129 = MANIFOLD_SOLID_BREP ( '输入1', #226 ) ;
#130 = EDGE_LOOP ( 'NONE', ( #747, #267, #119, #333 ) ) ;
#131 = DIRECTION ( 'NONE',  ( -0.3008521040919529543, -0.9536708087508207754, 0.000000000000000000 ) ) ;
#132 = CARTESIAN_POINT ( 'NONE',  ( 6141.405790318180152, 4129.483363415190070, 15.00000000000000000 ) ) ;
#133 = EDGE_CURVE ( 'NONE', #836, #577, #653, .T. ) ;
#134 = VECTOR ( 'NONE', #77, 1000.000000000000000 ) ;
#135 = AXIS2_PLACEMENT_3D ( 'NONE', #513, #790, #162 ) ;
#136 = DIRECTION ( 'NONE',  ( 1.000000000000000000, 0.000000000000000000, 0.000000000000000000 ) ) ;
#137 = ORIENTED_EDGE ( 'NONE', *, *, #1, .F. ) ;
#138 = EDGE_LOOP ( 'NONE', ( #770, #180, #309, #556 ) ) ;
#139 = EDGE_CURVE ( 'NONE', #577, #782, #849, .T. ) ;
#140 = CARTESIAN_POINT ( 'NONE',  ( 5808.818433440265835, 3627.109084017467012, 17.60730091830135180 ) ) ;
#141 = ORIENTED_EDGE ( 'NONE', *, *, #348, .T. ) ;
#142 = VECTOR ( 'NONE', #103, 1000.000000000000114 ) ;
#143 = DATE_AND_TIME ( #156, #280 ) ;
#144 = APPROVAL_PERSON_ORGANIZATION ( #876, #235, #193 ) ;
#145 = LINE ( 'NONE', #207, #286 ) ;
#146 = CARTESIAN_POINT ( 'NONE',  ( 5806.405701917589795, 3619.416738255154996, 3.605996836828719854 ) ) ;
#147 = ORIENTED_EDGE ( 'NONE', *, *, #392, .T. ) ;
#148 = DIRECTION ( 'NONE',  ( 0.9536708087508446452, -0.3008521040918774037, 0.000000000000000000 ) ) ;
#149 = CARTESIAN_POINT ( 'NONE',  ( 6026.067744137100817, 3840.059521210640014, 15.00000000000000000 ) ) ;
#150 = CARTESIAN_POINT ( 'NONE',  ( 5804.303536830079793, 3612.804689115275323, 17.99999999999970157 ) ) ;
#151 = AXIS2_PLACEMENT_3D ( 'NONE', #290, #785, #227 ) ;
#152 = EDGE_CURVE ( 'NONE', #769, #372, #498, .T. ) ;
#153 = DIRECTION ( 'NONE',  ( 0.3008521040919076017, 0.9536708087508352083, 6.279320566282151742E-15 ) ) ;
#154 = CARTESIAN_POINT ( 'NONE',  ( 6007.894119310290080, 3564.307183804145097, 18.00000000000000000 ) ) ;
#155 = LINE ( 'NONE', #568, #134 ) ;
#156 = CALENDAR_DATE ( 2026, 8, 4 ) ;
#157 = ORIENTED_EDGE ( 'NONE', *, *, #632, .T. ) ;
#158 = CARTESIAN_POINT ( 'NONE',  ( 6361.937094597329633, 3463.628235499294533, 0.000000000000000000 ) ) ;
#159 = AXIS2_PLACEMENT_3D ( 'NONE', #231, #512, #161 ) ;
#160 = ORIENTED_EDGE ( 'NONE', *, *, #569, .F. ) ;
#161 = DIRECTION ( 'NONE',  ( -1.000000000000000000, 0.000000000000000000, 0.000000000000000000 ) ) ;
#162 = DIRECTION ( 'NONE',  ( 1.000000000000000000, 0.000000000000000000, 0.000000000000000000 ) ) ;
#163 = EDGE_CURVE ( 'NONE', #490, #277, #155, .T. ) ;
#164 = ORIENTED_EDGE ( 'NONE', *, *, #334, .F. ) ;
#165 = CIRCLE ( 'NONE', #711, 576.6902309054255511 ) ;
#166 = LINE ( 'NONE', #875, #616 ) ;
#167 = DIRECTION ( 'NONE',  ( -0.9536708087508350973, 0.3008521040919075462, 0.000000000000000000 ) ) ;
#168 = FACE_OUTER_BOUND ( 'NONE', #328, .T. ) ;
#169 = ADVANCED_FACE ( 'NONE', ( #359 ), #471, .F. ) ;
#170 = ORIENTED_EDGE ( 'NONE', *, *, #773, .F. ) ;
#171 = LINE ( 'NONE', #430, #884 ) ;
#172 = DIRECTION ( 'NONE',  ( 0.000000000000000000, 1.000000000000000000, 0.000000000000000000 ) ) ;
#173 = VERTEX_POINT ( 'NONE', #869 ) ;
#174 = DIRECTION ( 'NONE',  ( 1.000000000000000000, 0.000000000000000000, 0.000000000000000000 ) ) ;
#175 = CARTESIAN_POINT ( 'NONE',  ( 6007.894119310279166, 3564.307183804140095, 18.00000000000000000 ) ) ;
#176 = EDGE_CURVE ( 'NONE', #577, #294, #257, .T. ) ;
#177 = DATE_AND_TIME ( #803, #848 ) ;
#178 = CARTESIAN_POINT ( 'NONE',  ( 6003.381337748909573, 3550.002121672875091, 125.0000000000000000 ) ) ;
#179 = DIRECTION ( 'NONE',  ( 0.000000000000000000, 0.000000000000000000, 1.000000000000000000 ) ) ;
#180 = ORIENTED_EDGE ( 'NONE', *, *, #650, .T. ) ;
#181 = DIRECTION ( 'NONE',  ( -0.9536708087508350973, 0.3008521040919075462, 0.000000000000000000 ) ) ;
#182 = DIRECTION ( 'NONE',  ( 1.000000000000000000, 0.000000000000000000, 0.000000000000000000 ) ) ;
#183 = CARTESIAN_POINT ( 'NONE',  ( 5804.585406852272172, 3613.679759339157954, 12.20011814947764961 ) ) ;
#184 = DIRECTION ( 'NONE',  ( 0.000000000000000000, 0.000000000000000000, 1.000000000000000000 ) ) ;
#185 =( GEOMETRIC_REPRESENTATION_CONTEXT ( 3 ) GLOBAL_UNCERTAINTY_ASSIGNED_CONTEXT ( ( #864 ) ) GLOBAL_UNIT_ASSIGNED_CONTEXT ( ( #808, #187, #269 ) ) REPRESENTATION_CONTEXT ( 'NONE', 'WORKASPACE' ) );
#186 = VERTEX_POINT ( 'NONE', #241 ) ;
#187 =( NAMED_UNIT ( * ) PLANE_ANGLE_UNIT ( ) SI_UNIT ( $, .RADIAN. ) );
#188 = EDGE_CURVE ( 'NONE', #716, #692, #317, .T. ) ;
#189 = CARTESIAN_POINT ( 'NONE',  ( 6011.135944842029858, 3574.294581845770153, 0.000000000000000000 ) ) ;
#190 = DIRECTION ( 'NONE',  ( -0.9536708087508378728, 0.3008521040918989420, 0.000000000000000000 ) ) ;
#191 = ORIENTED_EDGE ( 'NONE', *, *, #43, .F. ) ;
#192 = CARTESIAN_POINT ( 'NONE',  ( 5947.012271745119506, 3902.760234493510325, 15.00000000000000000 ) ) ;
#193 = APPROVAL_ROLE ( '' ) ;
#194 = VECTOR ( 'NONE', #860, 1000.000000000000227 ) ;
#195 = VERTEX_POINT ( 'NONE', #312 ) ;
#196 = CARTESIAN_POINT ( 'NONE',  ( 6013.469686177900257, 4201.569642278370338, 15.00000000000000000 ) ) ;
#197 = DIRECTION ( 'NONE',  ( 0.9536708087508208864, -0.3008521040919530098, -2.100839014377489561E-15 ) ) ;
#198 = DIRECTION ( 'NONE',  ( 1.000000000000000000, 0.000000000000000000, 0.000000000000000000 ) ) ;
#199 = CARTESIAN_POINT ( 'NONE',  ( 5809.033282934669842, 3627.716418029192937, 0.1160295818300868531 ) ) ;
#200 = FACE_OUTER_BOUND ( 'NONE', #657, .T. ) ;
#201 = CYLINDRICAL_SURFACE ( 'NONE', #443, 634.3592539959672649 ) ;
#202 = CYLINDRICAL_SURFACE ( 'NONE', #680, 17.99999999999723244 ) ;
#203 = APPLICATION_CONTEXT ( 'configuration controlled 3d designs of mechanical parts and assemblies' ) ;
#204 = CARTESIAN_POINT ( 'NONE',  ( 6141.405790318180152, 4129.483363415190070, 15.00000000000000000 ) ) ;
#205 = ORIENTED_EDGE ( 'NONE', *, *, #245, .F. ) ;
#206 = ADVANCED_FACE ( 'NONE', ( #524 ), #674, .F. ) ;
#207 = CARTESIAN_POINT ( 'NONE',  ( 6141.405790318180152, 3450.166494749720187, 0.000000000000000000 ) ) ;
#208 = CIRCLE ( 'NONE', #402, 72.08627886317842126 ) ;
#209 = CARTESIAN_POINT ( 'NONE',  ( 5808.816318391460300, 3627.109751246534870, 18.00000000000000000 ) ) ;
#210 = DIRECTION ( 'NONE',  ( 0.000000000000000000, 0.000000000000000000, -1.000000000000000000 ) ) ;
#211 = ORIENTED_EDGE ( 'NONE', *, *, #188, .T. ) ;
#212 = CARTESIAN_POINT ( 'NONE',  ( 5808.938693478579808, 3627.468181041545449, 16.48914305888754939 ) ) ;
#213 = ORIENTED_EDGE ( 'NONE', *, *, #282, .T. ) ;
#214 = AXIS2_PLACEMENT_3D ( 'NONE', #888, #15, #501 ) ;
#215 = PERSON_AND_ORGANIZATION ( #5, #543 ) ;
#216 = AXIS2_PLACEMENT_3D ( 'NONE', #725, #738, #243 ) ;
#217 = CARTESIAN_POINT ( 'NONE',  ( 6041.324311648510047, 4101.721043206979630, 15.00000000000000000 ) ) ;
#218 = ORIENTED_EDGE ( 'NONE', *, *, #318, .F. ) ;
#219 = CARTESIAN_POINT ( 'NONE',  ( 5804.448713677490559, 3613.250141629985137, 13.28853808153012039 ) ) ;
#220 = ADVANCED_FACE ( 'NONE', ( #325 ), #249, .T. ) ;
#221 = CARTESIAN_POINT ( 'NONE',  ( 5831.710038369579706, 3899.886234583660098, 0.000000000000000000 ) ) ;
#222 = VECTOR ( 'NONE', #819, 1000.000000000000000 ) ;
#223 = CARTESIAN_POINT ( 'NONE',  ( 5809.744255289449029, 3629.962756923975121, 15.15150000000254948 ) ) ;
#224 = VERTEX_POINT ( 'NONE', #530 ) ;
#225 = CARTESIAN_POINT ( 'NONE',  ( 6041.152785902670075, 3826.721043206979630, 0.000000000000000000 ) ) ;
#226 = CLOSED_SHELL ( 'NONE', ( #682, #41, #723, #229, #410, #566, #220, #456, #889, #344, #763, #783, #841, #124, #870, #169, #745, #390, #549, #911, #262, #478, #329, #206, #505, #44 ) ) ;
#227 = DIRECTION ( 'NONE',  ( 1.000000000000000000, 0.000000000000000000, 0.000000000000000000 ) ) ;
#228 = ORIENTED_EDGE ( 'NONE', *, *, #289, .F. ) ;
#229 = ADVANCED_FACE ( 'NONE', ( #594, #536, #30 ), #321, .T. ) ;
#230 = CARTESIAN_POINT ( 'NONE',  ( 6357.690353486990716, 3450.166494749720187, 0.000000000000000000 ) ) ;
#231 = CARTESIAN_POINT ( 'NONE',  ( 5831.710038369579706, 3899.886234583660098, 15.00000000000000000 ) ) ;
#232 = VECTOR ( 'NONE', #560, 1000.000000000000000 ) ;
#233 = DIRECTION ( 'NONE',  ( 8.074349270001140771E-15, 4.037174635000570385E-15, -1.000000000000000000 ) ) ;
#234 = DIRECTION ( 'NONE',  ( 0.02491805614023844678, -0.9996894970330497676, 0.000000000000000000 ) ) ;
#235 = APPROVAL ( #529, '未指定' ) ;
#236 = AXIS2_PLACEMENT_3D ( 'NONE', #886, #259, #413 ) ;
#237 = ORIENTED_EDGE ( 'NONE', *, *, #356, .F. ) ;
#238 = AXIS2_PLACEMENT_3D ( 'NONE', #527, #801, #182 ) ;
#239 = CARTESIAN_POINT ( 'NONE',  ( 5808.816318391460300, 3627.109751246534870, 18.00000000000000000 ) ) ;
#240 = CYLINDRICAL_SURFACE ( 'NONE', #838, 30.00000000000024869 ) ;
#241 = CARTESIAN_POINT ( 'NONE',  ( 6003.381337748909573, 3550.002121672875091, 125.0000000000000000 ) ) ;
#242 = ORIENTED_EDGE ( 'NONE', *, *, #76, .F. ) ;
#243 = DIRECTION ( 'NONE',  ( 1.000000000000000000, 0.000000000000000000, 0.000000000000000000 ) ) ;
#244 = CARTESIAN_POINT ( 'NONE',  ( 6357.690353486990716, 3450.166494749720187, 15.00000000000000000 ) ) ;
#245 = EDGE_CURVE ( 'NONE', #313, #644, #913, .T. ) ;
#246 = VERTEX_POINT ( 'NONE', #660 ) ;
#247 = DIRECTION ( 'NONE',  ( 0.000000000000000000, -8.074349270001140771E-15, 1.000000000000000000 ) ) ;
#248 = PERSON_AND_ORGANIZATION ( #5, #543 ) ;
#249 = PLANE ( 'NONE',  #256 ) ;
#250 = CARTESIAN_POINT ( 'NONE',  ( 6071.324311648510047, 4101.721043206979630, -113.1370849898482049 ) ) ;
#251 = EDGE_LOOP ( 'NONE', ( #205, #92 ) ) ;
#252 = CARTESIAN_POINT ( 'NONE',  ( 6071.152785902670985, 3826.721043206979630, 15.00000000000000000 ) ) ;
#253 = CIRCLE ( 'NONE', #399, 2.999999999997250644 ) ;
#254 = PRODUCT_DEFINITION_SHAPE ( 'NONE', 'NONE',  #424 ) ;
#255 = COORDINATED_UNIVERSAL_TIME_OFFSET ( 8, 0, .AHEAD. ) ;
#256 = AXIS2_PLACEMENT_3D ( 'NONE', #605, #174, #172 ) ;
#257 = LINE ( 'NONE', #447, #646 ) ;
#258 = LINE ( 'NONE', #59, #786 ) ;
#259 = DIRECTION ( 'NONE',  ( 0.000000000000000000, 0.000000000000000000, 1.000000000000000000 ) ) ;
#260 = VERTEX_POINT ( 'NONE', #804 ) ;
#261 = FACE_OUTER_BOUND ( 'NONE', #383, .T. ) ;
#262 = ADVANCED_FACE ( 'NONE', ( #734 ), #110, .F. ) ;
#263 = LOCAL_TIME ( 11, 35, 45.00000000000000000, #429 ) ;
#264 = CARTESIAN_POINT ( 'NONE',  ( 5805.423673509338187, 3616.318550745470930, 7.020183746007578662 ) ) ;
#265 = CARTESIAN_POINT ( 'NONE',  ( 6008.796675622559633, 3567.168196230389640, 15.00000000000254907 ) ) ;
#266 = AXIS2_PLACEMENT_3D ( 'NONE', #196, #531, #121 ) ;
#267 = ORIENTED_EDGE ( 'NONE', *, *, #36, .T. ) ;
#268 = DIRECTION ( 'NONE',  ( -1.000000000000000000, 0.000000000000000000, 0.000000000000000000 ) ) ;
#269 =( NAMED_UNIT ( * ) SI_UNIT ( $, .STERADIAN. ) SOLID_ANGLE_UNIT ( ) );
#270 = CC_DESIGN_DATE_AND_TIME_ASSIGNMENT ( #112, #472, ( #424 ) ) ;
#271 = CARTESIAN_POINT ( 'NONE',  ( 5809.503782986570513, 3629.215227432414395, 15.07808196999699746 ) ) ;
#272 = ORIENTED_EDGE ( 'NONE', *, *, #422, .T. ) ;
#273 = ORIENTED_EDGE ( 'NONE', *, *, #789, .F. ) ;
#274 = VECTOR ( 'NONE', #846, 1000.000000000000000 ) ;
#275 = CARTESIAN_POINT ( 'NONE',  ( 5804.303536830079793, 3612.804689115275323, 17.99999999999970157 ) ) ;
#276 = FACE_OUTER_BOUND ( 'NONE', #820, .T. ) ;
#277 = VERTEX_POINT ( 'NONE', #730 ) ;
#278 = DIRECTION ( 'NONE',  ( 0.000000000000000000, 0.000000000000000000, 1.000000000000000000 ) ) ;
#279 = ORIENTED_EDGE ( 'NONE', *, *, #656, .T. ) ;
#280 = LOCAL_TIME ( 11, 35, 45.00000000000000000, #839 ) ;
#281 = CARTESIAN_POINT ( 'NONE',  ( 5808.844039614039502, 3627.182881283873485, 17.21475634692232504 ) ) ;
#282 = EDGE_CURVE ( 'NONE', #559, #874, #385, .T. ) ;
#283 = CARTESIAN_POINT ( 'NONE',  ( 5941.405790318180152, 4127.687113471534758, 15.00000000000000000 ) ) ;
#284 = CIRCLE ( 'NONE', #216, 30.00000000000024869 ) ;
#285 = CARTESIAN_POINT ( 'NONE',  ( 5809.044153681449643, 3627.795107521520094, 16.24946366815190046 ) ) ;
#286 = VECTOR ( 'NONE', #775, 1000.000000000000000 ) ;
#287 = CARTESIAN_POINT ( 'NONE',  ( 5804.260524444609473, 3612.660971144594896, 15.62374220049910178 ) ) ;
#288 = VECTOR ( 'NONE', #190, 1000.000000000000114 ) ;
#289 = EDGE_CURVE ( 'NONE', #173, #836, #35, .T. ) ;
#290 = CARTESIAN_POINT ( 'NONE',  ( 6013.469686177900257, 4129.483363415190070, 15.00000000000000000 ) ) ;
#291 = EDGE_CURVE ( 'NONE', #49, #581, #165, .T. ) ;
#292 = CARTESIAN_POINT ( 'NONE',  ( 5809.281250604489287, 3628.524565679309489, 15.37864083493835032 ) ) ;
#293 = CARTESIAN_POINT ( 'NONE',  ( 5809.033145982770293, 3627.715985234590335, 5.083885647807019869E-14 ) ) ;
#294 = VERTEX_POINT ( 'NONE', #154 ) ;
#295 = CARTESIAN_POINT ( 'NONE',  ( 6011.053066403250341, 3574.320727296024870, 15.00000000000000000 ) ) ;
#296 = CYLINDRICAL_SURFACE ( 'NONE', #151, 72.08627886317754019 ) ;
#297 = EDGE_CURVE ( 'NONE', #393, #836, #473, .T. ) ;
#298 = ORIENTED_EDGE ( 'NONE', *, *, #593, .F. ) ;
#299 = CARTESIAN_POINT ( 'NONE',  ( 6013.469686177900257, 4201.569642278370338, 15.00000000000000000 ) ) ;
#300 = FACE_OUTER_BOUND ( 'NONE', #58, .T. ) ;
#301 = DIRECTION ( 'NONE',  ( -0.9536708087508350973, 0.3008521040919075462, 0.000000000000000000 ) ) ;
#302 = AXIS2_PLACEMENT_3D ( 'NONE', #591, #807, #671 ) ;
#303 = EDGE_CURVE ( 'NONE', #246, #224, #793, .T. ) ;
#304 = ORIENTED_EDGE ( 'NONE', *, *, #656, .F. ) ;
#305 = CYLINDRICAL_SURFACE ( 'NONE', #109, 72.08627886317842126 ) ;
#306 = DIRECTION ( 'NONE',  ( 0.3008521040919079348, 0.9536708087508349863, 3.491481338843135327E-15 ) ) ;
#307 = DIRECTION ( 'NONE',  ( -1.000000000000000000, -0.000000000000000000, -0.000000000000000000 ) ) ;
#308 = VECTOR ( 'NONE', #233, 1000.000000000000000 ) ;
#309 = ORIENTED_EDGE ( 'NONE', *, *, #492, .T. ) ;
#310 = DIRECTION ( 'NONE',  ( 0.000000000000000000, 0.000000000000000000, 1.000000000000000000 ) ) ;
#311 = FACE_OUTER_BOUND ( 'NONE', #764, .T. ) ;
#312 = CARTESIAN_POINT ( 'NONE',  ( 6069.319511455009888, 4201.569642278370338, 15.00000000000000000 ) ) ;
#313 = VERTEX_POINT ( 'NONE', #638 ) ;
#314 = CIRCLE ( 'NONE', #608, 115.3380461810842235 ) ;
#315 = CARTESIAN_POINT ( 'NONE',  ( 6013.469686177900257, 4201.569642278370338, 15.00000000000000000 ) ) ;
#316 = DIRECTION ( 'NONE',  ( 1.000000000000000000, 0.000000000000000000, 0.000000000000000000 ) ) ;
#317 = LINE ( 'NONE', #380, #765 ) ;
#318 = EDGE_CURVE ( 'NONE', #363, #418, #555, .T. ) ;
#319 = LINE ( 'NONE', #27, #389 ) ;
#320 = COORDINATED_UNIVERSAL_TIME_OFFSET ( 8, 0, .AHEAD. ) ;
#321 = PLANE ( 'NONE',  #384 ) ;
#322 = ORIENTED_EDGE ( 'NONE', *, *, #710, .T. ) ;
#323 = DIRECTION ( 'NONE',  ( 0.000000000000000000, 0.000000000000000000, 1.000000000000000000 ) ) ;
#324 = APPLICATION_PROTOCOL_DEFINITION ( 'international standard', 'config_control_design', 1994, #736 ) ;
#325 = FACE_OUTER_BOUND ( 'NONE', #829, .T. ) ;
#326 = CARTESIAN_POINT ( 'NONE',  ( 6011.053066403250341, 3574.320727296024870, 15.00000000000254907 ) ) ;
#327 = CC_DESIGN_DATE_AND_TIME_ASSIGNMENT ( #580, #494, ( #541 ) ) ;
#328 = EDGE_LOOP ( 'NONE', ( #106, #454, #539, #16 ) ) ;
#329 = ADVANCED_FACE ( 'NONE', ( #579 ), #854, .T. ) ;
#330 = DIRECTION ( 'NONE',  ( -0.3008521040918773481, -0.9536708087508447562, 0.000000000000000000 ) ) ;
#331 = FACE_OUTER_BOUND ( 'NONE', #724, .T. ) ;
#332 = CARTESIAN_POINT ( 'NONE',  ( 6011.053066403250341, 3574.320727296024870, 15.00000000000254907 ) ) ;
#333 = ORIENTED_EDGE ( 'NONE', *, *, #442, .T. ) ;
#334 = EDGE_CURVE ( 'NONE', #525, #450, #643, .T. ) ;
#335 = CIRCLE ( 'NONE', #214, 72.08627886317754019 ) ;
#336 = CARTESIAN_POINT ( 'NONE',  ( 5809.007705591455306, 3627.679570754486122, 16.15635984007584014 ) ) ;
#337 = CIRCLE ( 'NONE', #495, 30.00000000000024869 ) ;
#338 = VERTEX_POINT ( 'NONE', #10 ) ;
#339 = DIRECTION ( 'NONE',  ( 0.000000000000000000, 0.000000000000000000, 1.000000000000000000 ) ) ;
#340 = ORIENTED_EDGE ( 'NONE', *, *, #95, .T. ) ;
#341 = FACE_OUTER_BOUND ( 'NONE', #907, .T. ) ;
#342 = DIRECTION ( 'NONE',  ( 0.000000000000000000, 0.000000000000000000, 1.000000000000000000 ) ) ;
#343 = ORIENTED_EDGE ( 'NONE', *, *, #11, .T. ) ;
#344 = ADVANCED_FACE ( 'NONE', ( #168 ), #296, .T. ) ;
#345 = CARTESIAN_POINT ( 'NONE',  ( 5806.430379222844749, 3619.494962822445814, 3.688062739527294465 ) ) ;
#346 = CARTESIAN_POINT ( 'NONE',  ( 5809.744255289590001, 3629.962756924419864, 15.00000000000000000 ) ) ;
#347 = ORIENTED_EDGE ( 'NONE', *, *, #297, .F. ) ;
#348 = EDGE_CURVE ( 'NONE', #836, #581, #90, .T. ) ;
#349 = DIRECTION ( 'NONE',  ( 0.3008521040919529543, 0.9536708087508207754, 0.000000000000000000 ) ) ;
#350 = FACE_BOUND ( 'NONE', #787, .T. ) ;
#351 = ORIENTED_EDGE ( 'NONE', *, *, #43, .T. ) ;
#352 = CARTESIAN_POINT ( 'NONE',  ( 5809.304205101219850, 3628.597329117440040, 15.51101947277405024 ) ) ;
#353 = AXIS2_PLACEMENT_3D ( 'NONE', #776, #100, #234 ) ;
#354 = CARTESIAN_POINT ( 'NONE',  ( 5804.956054305610451, 3614.843616780939556, 8.859315506263449436 ) ) ;
#355 = ORIENTED_EDGE ( 'NONE', *, *, #669, .T. ) ;
#356 = EDGE_CURVE ( 'NONE', #260, #372, #766, .T. ) ;
#357 = AXIS2_PLACEMENT_3D ( 'NONE', #715, #83, #9 ) ;
#358 = CARTESIAN_POINT ( 'NONE',  ( 5809.744255289449029, 3629.962756923975121, 15.00000000000254907 ) ) ;
#359 = FACE_OUTER_BOUND ( 'NONE', #652, .T. ) ;
#360 = ORIENTED_EDGE ( 'NONE', *, *, #334, .T. ) ;
#361 = CARTESIAN_POINT ( 'NONE',  ( 6011.152785902670075, 3826.721043206979630, 0.000000000000000000 ) ) ;
#362 = PLANE ( 'NONE',  #353 ) ;
#363 = VERTEX_POINT ( 'NONE', #584 ) ;
#364 = ORIENTED_EDGE ( 'NONE', *, *, #710, .F. ) ;
#365 = CARTESIAN_POINT ( 'NONE',  ( 6008.796675622559633, 3567.168196230394642, 18.00000000000000000 ) ) ;
#366 = CARTESIAN_POINT ( 'NONE',  ( 5809.744255289439934, 3629.962756923969664, 15.00000000000254907 ) ) ;
#367 = EDGE_CURVE ( 'NONE', #224, #614, #779, .T. ) ;
#368 = VECTOR ( 'NONE', #873, 1000.000000000000114 ) ;
#369 = ORIENTED_EDGE ( 'NONE', *, *, #809, .T. ) ;
#370 = DIRECTION ( 'NONE',  ( 1.000000000000000000, 0.000000000000000000, 0.000000000000000000 ) ) ;
#371 = CIRCLE ( 'NONE', #729, 30.00000000000024869 ) ;
#372 = VERTEX_POINT ( 'NONE', #840 ) ;
#373 = CARTESIAN_POINT ( 'NONE',  ( 6041.152785902670075, 3826.721043206979630, -113.1370849898482049 ) ) ;
#374 = DIRECTION ( 'NONE',  ( 1.000000000000000000, 0.000000000000000000, 0.000000000000000000 ) ) ;
#375 = AXIS2_PLACEMENT_3D ( 'NONE', #67, #754, #629 ) ;
#376 = ORIENTED_EDGE ( 'NONE', *, *, #718, .F. ) ;
#377 = ORIENTED_EDGE ( 'NONE', *, *, #76, .T. ) ;
#378 = EDGE_CURVE ( 'NONE', #102, #49, #314, .T. ) ;
#379 = DIRECTION ( 'NONE',  ( 0.000000000000000000, 0.000000000000000000, 1.000000000000000000 ) ) ;
#380 = CARTESIAN_POINT ( 'NONE',  ( 5947.012271745119506, 3902.760234493510325, 15.00000000000000000 ) ) ;
#381 = ORIENTED_EDGE ( 'NONE', *, *, #36, .F. ) ;
#382 = CIRCLE ( 'NONE', #425, 30.00000000000024869 ) ;
#383 = EDGE_LOOP ( 'NONE', ( #670, #705, #522, #794 ) ) ;
#384 = AXIS2_PLACEMENT_3D ( 'NONE', #244, #457, #810 ) ;
#385 = LINE ( 'NONE', #668, #595 ) ;
#386 = ORIENTED_EDGE ( 'NONE', *, *, #732, .T. ) ;
#387 = APPROVAL_STATUS ( 'not_yet_approved' ) ;
#388 = DIRECTION ( 'NONE',  ( 0.9536708087508364295, -0.3008521040919036049, 0.000000000000000000 ) ) ;
#389 = VECTOR ( 'NONE', #181, 1000.000000000000114 ) ;
#390 = ADVANCED_FACE ( 'NONE', ( #496 ), #202, .T. ) ;
#391 = CARTESIAN_POINT ( 'NONE',  ( 5804.340559622716682, 3612.914675911347786, 15.64383464058226281 ) ) ;
#392 = EDGE_CURVE ( 'NONE', #769, #111, #145, .T. ) ;
#393 = VERTEX_POINT ( 'NONE', #80 ) ;
#394 = DIRECTION ( 'NONE',  ( -0.9536708087508447562, 0.3008521040918773481, 0.000000000000000000 ) ) ;
#395 = PERSON_AND_ORGANIZATION ( #5, #543 ) ;
#396 = CARTESIAN_POINT ( 'NONE',  ( 5807.021894868071286, 3621.362636003229909, 2.379031217572256995 ) ) ;
#397 = EDGE_CURVE ( 'NONE', #338, #260, #694, .T. ) ;
#398 = DIRECTION ( 'NONE',  ( 0.000000000000000000, 0.000000000000000000, 1.000000000000000000 ) ) ;
#399 = AXIS2_PLACEMENT_3D ( 'NONE', #762, #476, #751 ) ;
#400 = VERTEX_POINT ( 'NONE', #132 ) ;
#401 = CARTESIAN_POINT ( 'NONE',  ( 1561.922828014314973, 4951.137739571060592, 17.99999999999970157 ) ) ;
#402 = AXIS2_PLACEMENT_3D ( 'NONE', #523, #379, #24 ) ;
#403 = DIRECTION ( 'NONE',  ( -0.9536708087508446452, 0.3008521040918774037, -0.000000000000000000 ) ) ;
#404 = FACE_OUTER_BOUND ( 'NONE', #596, .T. ) ;
#405 = ORIENTED_EDGE ( 'NONE', *, *, #435, .T. ) ;
#406 = APPROVAL_DATE_TIME ( #126, #101 ) ;
#407 = FACE_OUTER_BOUND ( 'NONE', #599, .T. ) ;
#408 = CARTESIAN_POINT ( 'NONE',  ( 5919.373424222510948, 3824.932944611365201, 0.000000000000000000 ) ) ;
#409 = CYLINDRICAL_SURFACE ( 'NONE', #861, 30.00000000000024869 ) ;
#410 = ADVANCED_FACE ( 'NONE', ( #68, #350, #484 ), #659, .F. ) ;
#411 = ORIENTED_EDGE ( 'NONE', *, *, #133, .T. ) ;
#412 = CARTESIAN_POINT ( 'NONE',  ( 5807.994061009211691, 3624.433246981612683, 0.9193301173812263860 ) ) ;
#413 = DIRECTION ( 'NONE',  ( 1.000000000000000000, 0.000000000000000000, 0.000000000000000000 ) ) ;
#414 = DIRECTION ( 'NONE',  ( 8.074349270001140771E-15, 4.037174635000570385E-15, -1.000000000000000000 ) ) ;
#415 = AXIS2_PLACEMENT_3D ( 'NONE', #578, #153, #167 ) ;
#416 = ORIENTED_EDGE ( 'NONE', *, *, #188, .F. ) ;
#417 = ORIENTED_EDGE ( 'NONE', *, *, #650, .F. ) ;
#418 = VERTEX_POINT ( 'NONE', #863 ) ;
#419 = LOCAL_TIME ( 11, 35, 45.00000000000000000, #255 ) ;
#420 = APPROVAL ( #432, '未指定' ) ;
#421 = CARTESIAN_POINT ( 'NONE',  ( 5809.179017024101086, 3628.207867266954963, 15.60099947280630062 ) ) ;
#422 = EDGE_CURVE ( 'NONE', #400, #195, #208, .T. ) ;
#423 = DIRECTION ( 'NONE',  ( 0.000000000000000000, 0.000000000000000000, 1.000000000000000000 ) ) ;
#424 = PRODUCT_DEFINITION ( '未知', '', #812, #45 ) ;
#425 = AXIS2_PLACEMENT_3D ( 'NONE', #627, #825, #538 ) ;
#426 = DIRECTION ( 'NONE',  ( 0.000000000000000000, 0.000000000000000000, 1.000000000000000000 ) ) ;
#427 = AXIS2_PLACEMENT_3D ( 'NONE', #441, #431, #301 ) ;
#428 = CARTESIAN_POINT ( 'NONE',  ( 5809.007705591459853, 3627.679570754485212, 16.15635984007564829 ) ) ;
#429 = COORDINATED_UNIVERSAL_TIME_OFFSET ( 8, 0, .AHEAD. ) ;
#430 = CARTESIAN_POINT ( 'NONE',  ( 5947.012271745119506, 3902.760234493510325, 0.000000000000000000 ) ) ;
#431 = DIRECTION ( 'NONE',  ( 0.3008521040919076017, 0.9536708087508352083, 6.279320566282151742E-15 ) ) ;
#432 = APPROVAL_STATUS ( 'not_yet_approved' ) ;
#433 = EDGE_LOOP ( 'NONE', ( #834, #304, #369, #640, #509, #800, #561, #687, #191, #676, #105, #42 ) ) ;
#434 = DIRECTION ( 'NONE',  ( -0.000000000000000000, -0.000000000000000000, -1.000000000000000000 ) ) ;
#435 = EDGE_CURVE ( 'NONE', #874, #338, #902, .T. ) ;
#436 = VERTEX_POINT ( 'NONE', #295 ) ;
#437 = DIRECTION ( 'NONE',  ( 0.02491805614023844331, -0.9996894970330497676, 0.000000000000000000 ) ) ;
#438 = AXIS2_PLACEMENT_3D ( 'NONE', #178, #25, #741 ) ;
#439 = FACE_OUTER_BOUND ( 'NONE', #486, .T. ) ;
#440 = CIRCLE ( 'NONE', #626, 115.3380461810833424 ) ;
#441 = CARTESIAN_POINT ( 'NONE',  ( 1566.435609575695025, 4965.442801702320139, 3.269430795126004759E-11 ) ) ;
#442 = EDGE_CURVE ( 'NONE', #622, #874, #94, .T. ) ;
#443 = AXIS2_PLACEMENT_3D ( 'NONE', #625, #893, #268 ) ;
#444 = ORIENTED_EDGE ( 'NONE', *, *, #701, .F. ) ;
#445 = CARTESIAN_POINT ( 'NONE',  ( 5809.744255289590001, 3629.962756924419864, 0.000000000000000000 ) ) ;
#446 = FACE_OUTER_BOUND ( 'NONE', #12, .T. ) ;
#447 = CARTESIAN_POINT ( 'NONE',  ( 5808.816318391460300, 3627.109751246534870, 18.00000000000000000 ) ) ;
#448 = LOCAL_TIME ( 11, 35, 45.00000000000000000, #547 ) ;
#449 = ORIENTED_EDGE ( 'NONE', *, *, #773, .T. ) ;
#450 = VERTEX_POINT ( 'NONE', #98 ) ;
#451 = LINE ( 'NONE', #455, #630 ) ;
#452 = PERSON_AND_ORGANIZATION ( #5, #543 ) ;
#453 = CARTESIAN_POINT ( 'NONE',  ( 5808.861897485230656, 3627.254232374060393, 18.00000000000000000 ) ) ;
#454 = ORIENTED_EDGE ( 'NONE', *, *, #367, .T. ) ;
#455 = CARTESIAN_POINT ( 'NONE',  ( 6006.806325292919610, 3560.858986546465076, 0.000000000000000000 ) ) ;
#456 = ADVANCED_FACE ( 'NONE', ( #507 ), #305, .T. ) ;
#457 = DIRECTION ( 'NONE',  ( 0.000000000000000000, 0.000000000000000000, 1.000000000000000000 ) ) ;
#458 = AXIS2_PLACEMENT_3D ( 'NONE', #482, #398, #901 ) ;
#459 = ORIENTED_EDGE ( 'NONE', *, *, #576, .T. ) ;
#460 = DIRECTION ( 'NONE',  ( 0.02491805614023844331, -0.9996894970330497676, 0.000000000000000000 ) ) ;
#461 = EDGE_CURVE ( 'NONE', #195, #619, #720, .T. ) ;
#462 = VECTOR ( 'NONE', #885, 1000.000000000000000 ) ;
#463 = CARTESIAN_POINT ( 'NONE',  ( 5809.744255289590001, 3629.962756924419864, 15.00000000000000000 ) ) ;
#464 = LINE ( 'NONE', #204, #842 ) ;
#465 = ORIENTED_EDGE ( 'NONE', *, *, #397, .F. ) ;
#466 = CARTESIAN_POINT ( 'NONE',  ( 5808.816318391460300, 3627.109751246534870, 125.0000000000000000 ) ) ;
#467 = CARTESIAN_POINT ( 'NONE',  ( 5806.154022390650425, 3618.622625413784590, 4.439037387732575723 ) ) ;
#468 = LINE ( 'NONE', #545, #684 ) ;
#469 = VERTEX_POINT ( 'NONE', #791 ) ;
#470 = LINE ( 'NONE', #904, #232 ) ;
#471 = B_SPLINE_SURFACE_WITH_KNOTS ( 'NONE', 1, 3, ( 
 ( #910, #708, #912, #837, #850, #641, #354, #493, #287, #7 ),
 ( #843, #293, #778, #487, #146, #772, #768, #219, #75, #150 ),
 ( #358, #634, #4, #292, #421, #428, #212, #633, #572, #575 ),
 ( #223, #504, #780, #352, #631, #285, #665, #104, #39, #453 ) ),
 .UNSPECIFIED., .F., .F., .F.,
 ( 2, 1, 1, 2 ),
 ( 4, 2, 2, 2, 4 ),
 ( -0.01000000000000000021, 0.000000000000000000, 1.000000000000000000, 1.010099999999999998 ),
 ( 0.000000000000000000, 0.2500000000000000000, 0.5000000000000000000, 0.7500000000000000000, 1.000000000000000000 ),
 .UNSPECIFIED. ) ;
#472 = DATE_TIME_ROLE ( 'creation_date' ) ;
#473 = CIRCLE ( 'NONE', #46, 576.6902309054255511 ) ;
#474 = EDGE_LOOP ( 'NONE', ( #322, #164, #806, #61 ) ) ;
#475 = CARTESIAN_POINT ( 'NONE',  ( 5804.303536830079793, 3612.804689115275323, 15.00000000000000000 ) ) ;
#476 = DIRECTION ( 'NONE',  ( 0.9536708087508446452, -0.3008521040918774037, 0.000000000000000000 ) ) ;
#477 = EDGE_LOOP ( 'NONE', ( #609, #381, #852, #832, #567, #272, #879, #74, #211, #355, #661, #228 ) ) ;
#478 = ADVANCED_FACE ( 'NONE', ( #642 ), #516, .F. ) ;
#479 = CC_DESIGN_APPROVAL ( #420, ( #541 ) ) ;
#480 = CARTESIAN_POINT ( 'NONE',  ( 5809.388764730031653, 3628.839573586006736, 1.476114152784702149E-12 ) ) ;
#481 = DIRECTION ( 'NONE',  ( 0.000000000000000000, 0.000000000000000000, 1.000000000000000000 ) ) ;
#482 = CARTESIAN_POINT ( 'NONE',  ( 6041.152785902670075, 3826.721043206979630, -113.1370849898482049 ) ) ;
#483 = CARTESIAN_POINT ( 'NONE',  ( 6008.796675622559633, 3567.168196230394642, 18.00000000000000000 ) ) ;
#484 = FACE_BOUND ( 'NONE', #603, .T. ) ;
#485 = EDGE_CURVE ( 'NONE', #614, #102, #171, .T. ) ;
#486 = EDGE_LOOP ( 'NONE', ( #689, #411, #681, #709 ) ) ;
#487 = CARTESIAN_POINT ( 'NONE',  ( 5807.008528155920430, 3621.320264874630084, 2.271845009619239963 ) ) ;
#488 = ORIENTED_EDGE ( 'NONE', *, *, #303, .T. ) ;
#489 = DIRECTION ( 'NONE',  ( -1.000000000000000000, 0.000000000000000000, 0.000000000000000000 ) ) ;
#490 = VERTEX_POINT ( 'NONE', #361 ) ;
#491 = APPROVAL_PERSON_ORGANIZATION ( #215, #420, #774 ) ;
#492 = EDGE_CURVE ( 'NONE', #469, #695, #722, .T. ) ;
#493 = CARTESIAN_POINT ( 'NONE',  ( 5804.404760418119622, 3613.110814233445126, 13.24927589887620094 ) ) ;
#494 = DATE_TIME_ROLE ( 'classification_date' ) ;
#495 = AXIS2_PLACEMENT_3D ( 'NONE', #217, #550, #623 ) ;
#496 = FACE_OUTER_BOUND ( 'NONE', #714, .T. ) ;
#497 = CARTESIAN_POINT ( 'NONE',  ( 6357.690353486990716, 3450.166494749720187, 15.00000000000000000 ) ) ;
#498 = LINE ( 'NONE', #707, #851 ) ;
#499 = CARTESIAN_POINT ( 'NONE',  ( 6008.796675622559633, 3567.168196230394642, 18.00000000000000000 ) ) ;
#500 = VECTOR ( 'NONE', #131, 1000.000000000000000 ) ;
#501 = DIRECTION ( 'NONE',  ( 1.000000000000000000, 0.000000000000000000, 0.000000000000000000 ) ) ;
#502 = CARTESIAN_POINT ( 'NONE',  ( 6357.690353486990716, 4201.569642278370338, 0.000000000000000000 ) ) ;
#503 = AXIS2_PLACEMENT_3D ( 'NONE', #664, #28, #598 ) ;
#504 = CARTESIAN_POINT ( 'NONE',  ( 5809.629941579019032, 3629.607767047569723, 15.15150000000214980 ) ) ;
#505 = ADVANCED_FACE ( 'NONE', ( #446 ), #240, .F. ) ;
#506 = ORIENTED_EDGE ( 'NONE', *, *, #587, .F. ) ;
#507 = FACE_OUTER_BOUND ( 'NONE', #731, .T. ) ;
#508 = DIRECTION ( 'NONE',  ( -0.9536708087508446452, 0.3008521040918774037, -0.000000000000000000 ) ) ;
#509 = ORIENTED_EDGE ( 'NONE', *, *, #378, .F. ) ;
#510 = AXIS2_PLACEMENT_3D ( 'NONE', #896, #818, #696 ) ;
#511 = CARTESIAN_POINT ( 'NONE',  ( 6026.067744137100817, 3840.059521210640014, 15.00000000000000000 ) ) ;
#512 = DIRECTION ( 'NONE',  ( 0.000000000000000000, 0.000000000000000000, -1.000000000000000000 ) ) ;
#513 = CARTESIAN_POINT ( 'NONE',  ( 6013.469686177900257, 4129.483363415190070, 0.000000000000000000 ) ) ;
#514 = ORIENTED_EDGE ( 'NONE', *, *, #637, .F. ) ;
#515 = DIRECTION ( 'NONE',  ( -0.000000000000000000, -0.000000000000000000, -1.000000000000000000 ) ) ;
#516 = PLANE ( 'NONE',  #415 ) ;
#517 = CARTESIAN_POINT ( 'NONE',  ( 6141.405790318180152, 3840.059521210640014, 0.000000000000000000 ) ) ;
#518 = DIRECTION ( 'NONE',  ( 0.000000000000000000, 0.000000000000000000, 1.000000000000000000 ) ) ;
#519 = VECTOR ( 'NONE', #81, 1000.000000000000114 ) ;
#520 = EDGE_CURVE ( 'NONE', #585, #490, #29, .T. ) ;
#521 = AXIS2_PLACEMENT_3D ( 'NONE', #225, #434, #788 ) ;
#522 = ORIENTED_EDGE ( 'NONE', *, *, #799, .T. ) ;
#523 = CARTESIAN_POINT ( 'NONE',  ( 6069.319511455009888, 4129.483363415190070, 15.00000000000000000 ) ) ;
#524 = FACE_OUTER_BOUND ( 'NONE', #474, .T. ) ;
#525 = VERTEX_POINT ( 'NONE', #717 ) ;
#526 = DIRECTION ( 'NONE',  ( 1.000000000000000000, 0.000000000000000000, 0.000000000000000000 ) ) ;
#527 = CARTESIAN_POINT ( 'NONE',  ( 6041.324311648510047, 4101.721043206979630, 15.00000000000000000 ) ) ;
#528 = ORIENTED_EDGE ( 'NONE', *, *, #618, .F. ) ;
#529 = APPROVAL_STATUS ( 'not_yet_approved' ) ;
#530 = CARTESIAN_POINT ( 'NONE',  ( 6013.469686177900257, 4201.569642278370338, 0.000000000000000000 ) ) ;
#531 = DIRECTION ( 'NONE',  ( 0.000000000000000000, 1.000000000000000000, 0.000000000000000000 ) ) ;
#532 = VECTOR ( 'NONE', #508, 1000.000000000000000 ) ;
#533 = DIRECTION ( 'NONE',  ( 1.000000000000000000, 0.000000000000000000, 0.000000000000000000 ) ) ;
#534 = CC_DESIGN_PERSON_AND_ORGANIZATION_ASSIGNMENT ( #452, #882, ( #812 ) ) ;
#535 = CARTESIAN_POINT ( 'NONE',  ( 0.000000000000000000, 0.000000000000000000, 0.000000000000000000 ) ) ;
#536 = FACE_BOUND ( 'NONE', #833, .T. ) ;
#537 = CARTESIAN_POINT ( 'NONE',  ( 5805.650663336773505, 3617.034399731044687, 6.105118489541937699 ) ) ;
#538 = DIRECTION ( 'NONE',  ( 1.000000000000000000, 0.000000000000000000, 0.000000000000000000 ) ) ;
#539 = ORIENTED_EDGE ( 'NONE', *, *, #628, .T. ) ;
#540 = LINE ( 'NONE', #698, #37 ) ;
#541 = SECURITY_CLASSIFICATION ( '', '', #733 ) ;
#542 = DIRECTION ( 'NONE',  ( 0.000000000000000000, 0.000000000000000000, 1.000000000000000000 ) ) ;
#543 = ORGANIZATION ( '未指定', '未指定', '' ) ;
#544 = LINE ( 'NONE', #326, #890 ) ;
#545 = CARTESIAN_POINT ( 'NONE',  ( 6071.152785902670985, 3826.721043206979630, -113.1370849898482049 ) ) ;
#546 = ORIENTED_EDGE ( 'NONE', *, *, #485, .T. ) ;
#547 = COORDINATED_UNIVERSAL_TIME_OFFSET ( 8, 0, .AHEAD. ) ;
#548 = ORIENTED_EDGE ( 'NONE', *, *, #602, .F. ) ;
#549 = ADVANCED_FACE ( 'NONE', ( #439 ), #18, .F. ) ;
#550 = DIRECTION ( 'NONE',  ( 0.000000000000000000, 0.000000000000000000, 1.000000000000000000 ) ) ;
#551 = DIRECTION ( 'NONE',  ( 0.000000000000000000, -8.074349270001140771E-15, 1.000000000000000000 ) ) ;
#552 = ORIENTED_EDGE ( 'NONE', *, *, #856, .F. ) ;
#553 = VECTOR ( 'NONE', #184, 1000.000000000000000 ) ;
#554 = ORIENTED_EDGE ( 'NONE', *, *, #718, .T. ) ;
#555 = CIRCLE ( 'NONE', #570, 30.00000000000024869 ) ;
#556 = ORIENTED_EDGE ( 'NONE', *, *, #114, .F. ) ;
#557 = CARTESIAN_POINT ( 'NONE',  ( 6357.690353486990716, 3450.166494749720187, 15.00000000000000000 ) ) ;
#558 = LINE ( 'NONE', #607, #288 ) ;
#559 = VERTEX_POINT ( 'NONE', #582 ) ;
#560 = DIRECTION ( 'NONE',  ( 0.000000000000000000, 0.000000000000000000, 1.000000000000000000 ) ) ;
#561 = ORIENTED_EDGE ( 'NONE', *, *, #367, .F. ) ;
#562 = VECTOR ( 'NONE', #128, 1000.000000000000114 ) ;
#563 = CARTESIAN_POINT ( 'NONE',  ( 6026.067744137100817, 3840.059521210640014, 0.000000000000000000 ) ) ;
#564 = PRODUCT_RELATED_PRODUCT_CATEGORY ( 'detail', '', ( #55 ) ) ;
#565 = PLANE ( 'NONE',  #56 ) ;
#566 = ADVANCED_FACE ( 'NONE', ( #311 ), #858, .T. ) ;
#567 = ORIENTED_EDGE ( 'NONE', *, *, #637, .T. ) ;
#568 = CARTESIAN_POINT ( 'NONE',  ( 6011.152785902670075, 3826.721043206979630, -113.1370849898482049 ) ) ;
#569 = EDGE_CURVE ( 'NONE', #525, #782, #654, .T. ) ;
#570 = AXIS2_PLACEMENT_3D ( 'NONE', #589, #86, #3 ) ;
#571 = ORIENTED_EDGE ( 'NONE', *, *, #163, .F. ) ;
#572 = CARTESIAN_POINT ( 'NONE',  ( 5808.818433821589679, 3627.109083897174969, 17.60723011798424764 ) ) ;
#573 = VECTOR ( 'NONE', #323, 1000.000000000000000 ) ;
#574 = DIRECTION ( 'NONE',  ( 1.000000000000000000, 0.000000000000000000, 0.000000000000000000 ) ) ;
#575 = CARTESIAN_POINT ( 'NONE',  ( 5808.816318391460300, 3627.109751246534870, 18.00000000000000000 ) ) ;
#576 = EDGE_CURVE ( 'NONE', #49, #393, #17, .T. ) ;
#577 = VERTEX_POINT ( 'NONE', #239 ) ;
#578 = CARTESIAN_POINT ( 'NONE',  ( 1561.922828014314973, 4951.137739571060592, 3.264193573117739946E-11 ) ) ;
#579 = FACE_OUTER_BOUND ( 'NONE', #699, .T. ) ;
#580 = DATE_AND_TIME ( #781, #263 ) ;
#581 = VERTEX_POINT ( 'NONE', #445 ) ;
#582 = CARTESIAN_POINT ( 'NONE',  ( 6011.135944842029858, 3574.294581845770153, 15.00000000000000000 ) ) ;
#583 = DIRECTION ( 'NONE',  ( 0.000000000000000000, 0.000000000000000000, 1.000000000000000000 ) ) ;
#584 = CARTESIAN_POINT ( 'NONE',  ( 6071.324311648510047, 4101.721043206979630, 0.000000000000000000 ) ) ;
#585 = VERTEX_POINT ( 'NONE', #663 ) ;
#586 = CIRCLE ( 'NONE', #844, 115.3380461810842235 ) ;
#587 = EDGE_CURVE ( 'NONE', #294, #118, #166, .T. ) ;
#588 = CARTESIAN_POINT ( 'NONE',  ( 5804.303536830079793, 3612.804689115275323, 15.00000000000000000 ) ) ;
#589 = CARTESIAN_POINT ( 'NONE',  ( 6041.324311648510047, 4101.721043206979630, 0.000000000000000000 ) ) ;
#590 = VERTEX_POINT ( 'NONE', #252 ) ;
#591 = CARTESIAN_POINT ( 'NONE',  ( 6612.864022107190067, 3373.458867489274780, 15.00000000000000000 ) ) ;
#592 = DIRECTION ( 'NONE',  ( 0.000000000000000000, 0.000000000000000000, 1.000000000000000000 ) ) ;
#593 = EDGE_CURVE ( 'NONE', #418, #363, #371, .T. ) ;
#594 = FACE_OUTER_BOUND ( 'NONE', #477, .T. ) ;
#595 = VECTOR ( 'NONE', #113, 1000.000000000000000 ) ;
#596 = EDGE_LOOP ( 'NONE', ( #32, #279, #552, #340 ) ) ;
#597 = CARTESIAN_POINT ( 'NONE',  ( 6011.324311648510047, 4101.721043206979630, 15.00000000000000000 ) ) ;
#598 = DIRECTION ( 'NONE',  ( -1.000000000000000000, 0.000000000000000000, 0.000000000000000000 ) ) ;
#599 = EDGE_LOOP ( 'NONE', ( #895, #347, #759, #823 ) ) ;
#600 = CARTESIAN_POINT ( 'NONE',  ( 6011.053066403250341, 3574.320727296024870, 0.000000000000000000 ) ) ;
#601 = CARTESIAN_POINT ( 'NONE',  ( 6008.796675622559633, 3567.168196230389640, 15.00000000000254907 ) ) ;
#602 = EDGE_CURVE ( 'NONE', #490, #585, #284, .T. ) ;
#603 = EDGE_LOOP ( 'NONE', ( #218, #298 ) ) ;
#604 = PERSON_AND_ORGANIZATION_ROLE ( 'creator' ) ;
#605 = CARTESIAN_POINT ( 'NONE',  ( 6141.405790318180152, 4129.483363415190070, 15.00000000000000000 ) ) ;
#606 = PLANE ( 'NONE',  #510 ) ;
#607 = CARTESIAN_POINT ( 'NONE',  ( 6018.205597468880114, 3572.064336515334617, 15.00000000000254907 ) ) ;
#608 = AXIS2_PLACEMENT_3D ( 'NONE', #221, #210, #489 ) ;
#609 = ORIENTED_EDGE ( 'NONE', *, *, #95, .F. ) ;
#610 = DIRECTION ( 'NONE',  ( 1.000000000000000000, 0.000000000000000000, 0.000000000000000000 ) ) ;
#611 = MECHANICAL_CONTEXT ( 'NONE', #736, 'mechanical' ) ;
#612 = CARTESIAN_POINT ( 'NONE',  ( 5809.744255289590001, 3629.962756924419864, 0.000000000000000000 ) ) ;
#613 = CARTESIAN_POINT ( 'NONE',  ( 5947.012271745119506, 3902.760234493510325, 0.000000000000000000 ) ) ;
#614 = VERTEX_POINT ( 'NONE', #97 ) ;
#615 = CARTESIAN_POINT ( 'NONE',  ( 6041.324311648510047, 4101.721043206979630, -113.1370849898482049 ) ) ;
#616 = VECTOR ( 'NONE', #247, 1000.000000000000000 ) ;
#617 = PERSON_AND_ORGANIZATION ( #5, #543 ) ;
#618 = EDGE_CURVE ( 'NONE', #559, #260, #706, .T. ) ;
#619 = VERTEX_POINT ( 'NONE', #315 ) ;
#620 = DIRECTION ( 'NONE',  ( 1.000000000000000000, 0.000000000000000000, 0.000000000000000000 ) ) ;
#621 = CARTESIAN_POINT ( 'NONE',  ( 5808.938693478578898, 3627.468181041545449, 16.48914305888772702 ) ) ;
#622 = VERTEX_POINT ( 'NONE', #600 ) ;
#623 = DIRECTION ( 'NONE',  ( 1.000000000000000000, 0.000000000000000000, 0.000000000000000000 ) ) ;
#624 = DIRECTION ( 'NONE',  ( 1.000000000000000000, 0.000000000000000000, 0.000000000000000000 ) ) ;
#625 = CARTESIAN_POINT ( 'NONE',  ( 6612.864022107190067, 3373.458867489274780, 15.00000000000000000 ) ) ;
#626 = AXIS2_PLACEMENT_3D ( 'NONE', #563, #746, #624 ) ;
#627 = CARTESIAN_POINT ( 'NONE',  ( 6041.152785902670075, 3826.721043206979630, 15.00000000000000000 ) ) ;
#628 = EDGE_CURVE ( 'NONE', #614, #716, #33, .T. ) ;
#629 = DIRECTION ( 'NONE',  ( 1.000000000000000000, 0.000000000000000000, 0.000000000000000000 ) ) ;
#630 = VECTOR ( 'NONE', #349, 1000.000000000000000 ) ;
#631 = CARTESIAN_POINT ( 'NONE',  ( 5809.207027506669874, 3628.296657669974593, 15.72214899942965260 ) ) ;
#632 = EDGE_CURVE ( 'NONE', #186, #525, #319, .T. ) ;
#633 = CARTESIAN_POINT ( 'NONE',  ( 5808.844039614040412, 3627.182881283874849, 17.21475634692215095 ) ) ;
#634 = CARTESIAN_POINT ( 'NONE',  ( 5809.623974213879592, 3629.588851102304943, 15.00000000000214939 ) ) ;
#635 = CARTESIAN_POINT ( 'NONE',  ( 6116.344094594010130, 3768.274805253469822, 15.00000000000000000 ) ) ;
#636 = CARTESIAN_POINT ( 'NONE',  ( 6069.319511455009888, 4201.569642278370338, 15.00000000000000000 ) ) ;
#637 = EDGE_CURVE ( 'NONE', #372, #400, #802, .T. ) ;
#638 = CARTESIAN_POINT ( 'NONE',  ( 6071.324311648510047, 4101.721043206979630, 15.00000000000000000 ) ) ;
#639 = CC_DESIGN_SECURITY_CLASSIFICATION ( #541, ( #812 ) ) ;
#640 = ORIENTED_EDGE ( 'NONE', *, *, #291, .F. ) ;
#641 = CARTESIAN_POINT ( 'NONE',  ( 5805.362896592019752, 3616.125894051025170, 6.845977032451160404 ) ) ;
#642 = FACE_OUTER_BOUND ( 'NONE', #96, .T. ) ;
#643 = LINE ( 'NONE', #6, #194 ) ;
#644 = VERTEX_POINT ( 'NONE', #597 ) ;
#645 = DIRECTION ( 'NONE',  ( 0.9536708087508446452, -0.3008521040918774037, 0.000000000000000000 ) ) ;
#646 = VECTOR ( 'NONE', #388, 1000.000000000000000 ) ;
#647 = LINE ( 'NONE', #636, #744 ) ;
#648 = AXIS2_PLACEMENT_3D ( 'NONE', #230, #867, #316 ) ;
#649 = DIRECTION ( 'NONE',  ( 1.000000000000000000, 0.000000000000000000, 0.000000000000000000 ) ) ;
#650 = EDGE_CURVE ( 'NONE', #294, #469, #743, .T. ) ;
#651 = APPROVAL_DATE_TIME ( #143, #420 ) ;
#652 = EDGE_LOOP ( 'NONE', ( #88, #82, #141, #756 ) ) ;
#653 = B_SPLINE_CURVE_WITH_KNOTS ( 'NONE', 3,
 ( #346, #906, #271, #127, #53, #336, #621, #281, #140, #713 ),
 .UNSPECIFIED., .F., .F.,
 ( 4, 2, 2, 2, 4 ),
 ( 0.000000000000000000, 0.2500000000000000000, 0.5000000000000000000, 0.7500000000000000000, 1.000000000000000000 ),
 .UNSPECIFIED. ) ;
#654 = LINE ( 'NONE', #588, #308 ) ;
#655 = VECTOR ( 'NONE', #310, 1000.000000000000000 ) ;
#656 = EDGE_CURVE ( 'NONE', #695, #622, #451, .T. ) ;
#657 = EDGE_LOOP ( 'NONE', ( #719, #905, #862, #123 ) ) ;
#658 = CC_DESIGN_APPROVAL ( #235, ( #424 ) ) ;
#659 = PLANE ( 'NONE',  #648 ) ;
#660 = CARTESIAN_POINT ( 'NONE',  ( 6069.319511455009888, 4201.569642278370338, 0.000000000000000000 ) ) ;
#661 = ORIENTED_EDGE ( 'NONE', *, *, #297, .T. ) ;
#662 = ORIENTED_EDGE ( 'NONE', *, *, #461, .F. ) ;
#663 = CARTESIAN_POINT ( 'NONE',  ( 6071.152785902670985, 3826.721043206979630, 0.000000000000000000 ) ) ;
#664 = CARTESIAN_POINT ( 'NONE',  ( 6612.864022107190067, 3373.458867489274780, 0.000000000000000000 ) ) ;
#665 = CARTESIAN_POINT ( 'NONE',  ( 5808.978519870310265, 3627.594426684154769, 16.56544133441379785 ) ) ;
#666 = ORIENTED_EDGE ( 'NONE', *, *, #378, .T. ) ;
#667 = ORIENTED_EDGE ( 'NONE', *, *, #569, .T. ) ;
#668 = CARTESIAN_POINT ( 'NONE',  ( 6011.135944842029858, 3574.294581845770153, 15.00000000000000000 ) ) ;
#669 = EDGE_CURVE ( 'NONE', #692, #393, #586, .T. ) ;
#670 = ORIENTED_EDGE ( 'NONE', *, *, #318, .T. ) ;
#671 = DIRECTION ( 'NONE',  ( 1.000000000000000000, 0.000000000000000000, 0.000000000000000000 ) ) ;
#672 = PERSON_AND_ORGANIZATION_ROLE ( 'design_owner' ) ;
#673 = CIRCLE ( 'NONE', #375, 30.00000000000024869 ) ;
#674 = PLANE ( 'NONE',  #79 ) ;
#675 = CARTESIAN_POINT ( 'NONE',  ( 5804.304594354483925, 3612.804355500738893, 16.82190275490308551 ) ) ;
#676 = ORIENTED_EDGE ( 'NONE', *, *, #392, .F. ) ;
#677 = PERSON_AND_ORGANIZATION_ROLE ( 'classification_officer' ) ;
#678 = CYLINDRICAL_SURFACE ( 'NONE', #816, 576.6902309054255511 ) ;
#679 = CARTESIAN_POINT ( 'NONE',  ( 6013.469686177900257, 4201.569642278370338, 15.00000000000000000 ) ) ;
#680 = AXIS2_PLACEMENT_3D ( 'NONE', #499, #148, #835 ) ;
#681 = ORIENTED_EDGE ( 'NONE', *, *, #176, .T. ) ;
#682 = ADVANCED_FACE ( 'NONE', ( #261 ), #409, .F. ) ;
#683 = APPLICATION_PROTOCOL_DEFINITION ( 'international standard', 'config_control_design', 1994, #203 ) ;
#684 = VECTOR ( 'NONE', #481, 1000.000000000000000 ) ;
#685 = PLANE ( 'NONE',  #73 ) ;
#686 = CARTESIAN_POINT ( 'NONE',  ( 6011.053066403250341, 3574.320727296024870, 15.00000000000254907 ) ) ;
#687 = ORIENTED_EDGE ( 'NONE', *, *, #303, .F. ) ;
#688 = CC_DESIGN_PERSON_AND_ORGANIZATION_ASSIGNMENT ( #617, #815, ( #424 ) ) ;
#689 = ORIENTED_EDGE ( 'NONE', *, *, #289, .T. ) ;
#690 = CARTESIAN_POINT ( 'NONE',  ( 5807.337039107011151, 3622.357925576956859, 1.821006712206473255 ) ) ;
#691 = CARTESIAN_POINT ( 'NONE',  ( 6003.381337748909573, 3550.002121672875091, 125.0000000000000000 ) ) ;
#692 = VERTEX_POINT ( 'NONE', #192 ) ;
#693 = LINE ( 'NONE', #401, #562 ) ;
#694 = LINE ( 'NONE', #635, #752 ) ;
#695 = VERTEX_POINT ( 'NONE', #120 ) ;
#696 = DIRECTION ( 'NONE',  ( 0.9536708087508378728, -0.3008521040918989420, 0.000000000000000000 ) ) ;
#697 = LINE ( 'NONE', #265, #222 ) ;
#698 = CARTESIAN_POINT ( 'NONE',  ( 5808.816318391460300, 3627.109751246534870, 15.00000000000000000 ) ) ;
#699 = EDGE_LOOP ( 'NONE', ( #506, #8, #63, #364 ) ) ;
#700 = EDGE_CURVE ( 'NONE', #450, #577, #540, .T. ) ;
#701 = EDGE_CURVE ( 'NONE', #469, #782, #693, .T. ) ;
#702 = CYLINDRICAL_SURFACE ( 'NONE', #236, 30.00000000000024869 ) ;
#703 = ORIENTED_EDGE ( 'NONE', *, *, #700, .T. ) ;
#704 = APPROVAL_PERSON_ORGANIZATION ( #395, #101, #755 ) ;
#705 = ORIENTED_EDGE ( 'NONE', *, *, #899, .T. ) ;
#706 = CIRCLE ( 'NONE', #302, 634.3592539959672649 ) ;
#707 = CARTESIAN_POINT ( 'NONE',  ( 6141.405790318180152, 3840.059521210640014, 15.00000000000000000 ) ) ;
#708 = CARTESIAN_POINT ( 'NONE',  ( 5809.027237700459409, 3627.697256575910160, -0.1499999999999700184 ) ) ;
#709 = ORIENTED_EDGE ( 'NONE', *, *, #72, .T. ) ;
#710 = EDGE_CURVE ( 'NONE', #118, #450, #50, .T. ) ;
#711 = AXIS2_PLACEMENT_3D ( 'NONE', #777, #518, #374 ) ;
#712 = DIRECTION ( 'NONE',  ( 0.000000000000000000, 0.000000000000000000, 1.000000000000000000 ) ) ;
#713 = CARTESIAN_POINT ( 'NONE',  ( 5808.816318391460300, 3627.109751246534870, 18.00000000000000000 ) ) ;
#714 = EDGE_LOOP ( 'NONE', ( #865, #887, #892, #903 ) ) ;
#715 = CARTESIAN_POINT ( 'NONE',  ( 6008.796675622559633, 3567.168196230394642, 18.00000000000000000 ) ) ;
#716 = VERTEX_POINT ( 'NONE', #283 ) ;
#717 = CARTESIAN_POINT ( 'NONE',  ( 5804.303536830079793, 3612.804689115275323, 125.0000000000000000 ) ) ;
#718 = EDGE_CURVE ( 'NONE', #590, #277, #673, .T. ) ;
#719 = ORIENTED_EDGE ( 'NONE', *, *, #899, .F. ) ;
#720 = LINE ( 'NONE', #299, #93 ) ;
#721 = LINE ( 'NONE', #845, #894 ) ;
#722 = CIRCLE ( 'NONE', #357, 17.99999999999723244 ) ;
#723 = ADVANCED_FACE ( 'NONE', ( #341 ), #201, .F. ) ;
#724 = EDGE_LOOP ( 'NONE', ( #26, #160, #360, #703 ) ) ;
#725 = CARTESIAN_POINT ( 'NONE',  ( 6041.152785902670075, 3826.721043206979630, 0.000000000000000000 ) ) ;
#726 = DIRECTION ( 'NONE',  ( -1.000000000000000000, 0.000000000000000000, 0.000000000000000000 ) ) ;
#727 = ORIENTED_EDGE ( 'NONE', *, *, #1, .T. ) ;
#728 = DIRECTION ( 'NONE',  ( 0.000000000000000000, 1.000000000000000000, 0.000000000000000000 ) ) ;
#729 = AXIS2_PLACEMENT_3D ( 'NONE', #107, #515, #533 ) ;
#730 = CARTESIAN_POINT ( 'NONE',  ( 6011.152785902670075, 3826.721043206979630, 15.00000000000000000 ) ) ;
#731 = EDGE_LOOP ( 'NONE', ( #137, #351, #449, #909 ) ) ;
#732 = EDGE_CURVE ( 'NONE', #102, #692, #470, .T. ) ;
#733 = SECURITY_CLASSIFICATION_LEVEL ( 'unclassified' ) ;
#734 = FACE_OUTER_BOUND ( 'NONE', #826, .T. ) ;
#735 = AXIS2_PLACEMENT_3D ( 'NONE', #686, #197, #758 ) ;
#736 = APPLICATION_CONTEXT ( 'configuration controlled 3d designs of mechanical parts and assemblies' ) ;
#737 = ORIENTED_EDGE ( 'NONE', *, *, #152, .T. ) ;
#738 = DIRECTION ( 'NONE',  ( -0.000000000000000000, -0.000000000000000000, -1.000000000000000000 ) ) ;
#739 = CIRCLE ( 'NONE', #855, 72.08627886317842126 ) ;
#740 = APPROVAL_DATE_TIME ( #177, #235 ) ;
#741 = DIRECTION ( 'NONE',  ( -0.3008521040919079903, -0.9536708087508349863, 0.000000000000000000 ) ) ;
#742 = ORIENTED_EDGE ( 'NONE', *, *, #602, .T. ) ;
#743 = LINE ( 'NONE', #175, #142 ) ;
#744 = VECTOR ( 'NONE', #583, 1000.000000000000000 ) ;
#745 = ADVANCED_FACE ( 'NONE', ( #908 ), #565, .F. ) ;
#746 = DIRECTION ( 'NONE',  ( 0.000000000000000000, 0.000000000000000000, 1.000000000000000000 ) ) ;
#747 = ORIENTED_EDGE ( 'NONE', *, *, #282, .F. ) ;
#748 = CALENDAR_DATE ( 2026, 8, 4 ) ;
#749 = CARTESIAN_POINT ( 'NONE',  ( 5804.858793201845401, 3614.538994757512228, 10.02327828537218046 ) ) ;
#750 = EDGE_CURVE ( 'NONE', #619, #716, #335, .T. ) ;
#751 = DIRECTION ( 'NONE',  ( 0.3008521040917515044, 0.9536708087508845022, 0.000000000000000000 ) ) ;
#752 = VECTOR ( 'NONE', #342, 1000.000000000000000 ) ;
#753 = ORIENTED_EDGE ( 'NONE', *, *, #57, .T. ) ;
#754 = DIRECTION ( 'NONE',  ( 0.000000000000000000, 0.000000000000000000, 1.000000000000000000 ) ) ;
#755 = APPROVAL_ROLE ( '' ) ;
#756 = ORIENTED_EDGE ( 'NONE', *, *, #830, .T. ) ;
#757 = DIRECTION ( 'NONE',  ( 0.9536708087508350973, -0.3008521040919080458, 6.485678714932301084E-15 ) ) ;
#758 = DIRECTION ( 'NONE',  ( 0.3008521040919529543, 0.9536708087508207754, 0.000000000000000000 ) ) ;
#759 = ORIENTED_EDGE ( 'NONE', *, *, #576, .F. ) ;
#760 = EDGE_LOOP ( 'NONE', ( #31, #666, #459, #857 ) ) ;
#761 = CARTESIAN_POINT ( 'NONE',  ( 5808.335922478603607, 3625.513227479633315, 0.5757003236524236289 ) ) ;
#762 = CARTESIAN_POINT ( 'NONE',  ( 6008.796675622559633, 3567.168196230394642, 18.00000000000000000 ) ) ;
#763 = ADVANCED_FACE ( 'NONE', ( #300 ), #362, .T. ) ;
#764 = EDGE_LOOP ( 'NONE', ( #465, #343, #737, #237 ) ) ;
#765 = VECTOR ( 'NONE', #460, 1000.000000000000000 ) ;
#766 = CIRCLE ( 'NONE', #792, 115.3380461810833424 ) ;
#767 = ORIENTED_EDGE ( 'NONE', *, *, #397, .T. ) ;
#768 = CARTESIAN_POINT ( 'NONE',  ( 5804.995486376629742, 3614.968612466690047, 8.934858353319139468 ) ) ;
#769 = VERTEX_POINT ( 'NONE', #517 ) ;
#770 = ORIENTED_EDGE ( 'NONE', *, *, #72, .F. ) ;
#771 = AXIS2_PLACEMENT_3D ( 'NONE', #511, #592, #370 ) ;
#772 = CARTESIAN_POINT ( 'NONE',  ( 5805.398983809840502, 3616.240286889675190, 6.938159040447439807 ) ) ;
#773 = EDGE_CURVE ( 'NONE', #246, #195, #647, .T. ) ;
#774 = APPROVAL_ROLE ( '' ) ;
#775 = DIRECTION ( 'NONE',  ( 0.000000000000000000, 1.000000000000000000, 0.000000000000000000 ) ) ;
#776 = CARTESIAN_POINT ( 'NONE',  ( 5947.012271745119506, 3902.760234493510325, 15.00000000000000000 ) ) ;
#777 = CARTESIAN_POINT ( 'NONE',  ( 6357.690353486990716, 3450.166494749720187, 0.000000000000000000 ) ) ;
#778 = CARTESIAN_POINT ( 'NONE',  ( 5808.322571960309688, 3625.470907683939913, 0.4684918199686149975 ) ) ;
#779 = CIRCLE ( 'NONE', #135, 72.08627886317754019 ) ;
#780 = CARTESIAN_POINT ( 'NONE',  ( 5809.515713217940174, 3629.253045061875127, 15.22563883051210176 ) ) ;
#781 = CALENDAR_DATE ( 2026, 8, 4 ) ;
#782 = VERTEX_POINT ( 'NONE', #20 ) ;
#783 = ADVANCED_FACE ( 'NONE', ( #859 ), #2, .F. ) ;
#784 = DIRECTION ( 'NONE',  ( 1.000000000000000000, 0.000000000000000000, 0.000000000000000000 ) ) ;
#785 = DIRECTION ( 'NONE',  ( 0.000000000000000000, 0.000000000000000000, 1.000000000000000000 ) ) ;
#786 = VECTOR ( 'NONE', #117, 1000.000000000000000 ) ;
#787 = EDGE_LOOP ( 'NONE', ( #798, #548 ) ) ;
#788 = DIRECTION ( 'NONE',  ( 1.000000000000000000, 0.000000000000000000, 0.000000000000000000 ) ) ;
#789 = EDGE_CURVE ( 'NONE', #186, #118, #721, .T. ) ;
#790 = DIRECTION ( 'NONE',  ( 0.000000000000000000, 0.000000000000000000, 1.000000000000000000 ) ) ;
#791 = CARTESIAN_POINT ( 'NONE',  ( 6003.381337748909573, 3550.002121672875091, 17.99999999999970157 ) ) ;
#792 = AXIS2_PLACEMENT_3D ( 'NONE', #149, #712, #649 ) ;
#793 = LINE ( 'NONE', #502, #868 ) ;
#794 = ORIENTED_EDGE ( 'NONE', *, *, #880, .F. ) ;
#795 = CARTESIAN_POINT ( 'NONE',  ( 6141.405790318180152, 4129.483363415190070, 15.00000000000000000 ) ) ;
#796 = DIRECTION ( 'NONE',  ( 0.000000000000000000, 0.000000000000000000, 1.000000000000000000 ) ) ;
#797 = CARTESIAN_POINT ( 'NONE',  ( 5804.303536830079793, 3612.804689115275323, 125.0000000000000000 ) ) ;
#798 = ORIENTED_EDGE ( 'NONE', *, *, #520, .F. ) ;
#799 = EDGE_CURVE ( 'NONE', #644, #313, #337, .T. ) ;
#800 = ORIENTED_EDGE ( 'NONE', *, *, #485, .F. ) ;
#801 = DIRECTION ( 'NONE',  ( 0.000000000000000000, 0.000000000000000000, 1.000000000000000000 ) ) ;
#802 = LINE ( 'NONE', #795, #115 ) ;
#803 = CALENDAR_DATE ( 2026, 8, 4 ) ;
#804 = CARTESIAN_POINT ( 'NONE',  ( 6116.344094594010130, 3768.274805253469822, 15.00000000000000000 ) ) ;
#805 = CARTESIAN_POINT ( 'NONE',  ( 6008.796675622559633, 3567.168196230374633, 2.560451850541770099E-12 ) ) ;
#806 = ORIENTED_EDGE ( 'NONE', *, *, #632, .F. ) ;
#807 = DIRECTION ( 'NONE',  ( 0.000000000000000000, 0.000000000000000000, -1.000000000000000000 ) ) ;
#808 =( LENGTH_UNIT ( ) NAMED_UNIT ( * ) SI_UNIT ( .MILLI., .METRE. ) );
#809 = EDGE_CURVE ( 'NONE', #695, #581, #811, .T. ) ;
#810 = DIRECTION ( 'NONE',  ( 1.000000000000000000, 0.000000000000000000, 0.000000000000000000 ) ) ;
#811 = LINE ( 'NONE', #805, #52 ) ;
#812 = PRODUCT_DEFINITION_FORMATION_WITH_SPECIFIED_SOURCE ( '任何', '', #55, .NOT_KNOWN. ) ;
#813 = LINE ( 'NONE', #679, #553 ) ;
#814 = ORIENTED_EDGE ( 'NONE', *, *, #163, .T. ) ;
#815 = PERSON_AND_ORGANIZATION_ROLE ( 'creator' ) ;
#816 = AXIS2_PLACEMENT_3D ( 'NONE', #557, #179, #620 ) ;
#817 = CC_DESIGN_PERSON_AND_ORGANIZATION_ASSIGNMENT ( #248, #672, ( #55 ) ) ;
#818 = DIRECTION ( 'NONE',  ( -0.3008521040918989420, -0.9536708087508378728, -6.659447664305979302E-15 ) ) ;
#819 = DIRECTION ( 'NONE',  ( -3.665712078274734762E-13, -1.161993735389795934E-12, -1.000000000000000000 ) ) ;
#820 = EDGE_LOOP ( 'NONE', ( #898, #814, #377, #871 ) ) ;
#821 = DIRECTION ( 'NONE',  ( 0.3008521040919079903, 0.9536708087508349863, 0.000000000000000000 ) ) ;
#822 = VECTOR ( 'NONE', #551, 1000.000000000000000 ) ;
#823 = ORIENTED_EDGE ( 'NONE', *, *, #291, .T. ) ;
#824 = FACE_OUTER_BOUND ( 'NONE', #78, .T. ) ;
#825 = DIRECTION ( 'NONE',  ( 0.000000000000000000, 0.000000000000000000, 1.000000000000000000 ) ) ;
#826 = EDGE_LOOP ( 'NONE', ( #417, #69, #273, #116 ) ) ;
#827 = PLANE ( 'NONE',  #266 ) ;
#828 = CARTESIAN_POINT ( 'NONE',  ( 6069.319511455009888, 4129.483363415190070, 0.000000000000000000 ) ) ;
#829 = EDGE_LOOP ( 'NONE', ( #54, #147, #727, #514 ) ) ;
#830 = EDGE_CURVE ( 'NONE', #581, #782, #84, .T. ) ;
#831 = DIRECTION ( 'NONE',  ( 0.000000000000000000, 0.000000000000000000, -1.000000000000000000 ) ) ;
#832 = ORIENTED_EDGE ( 'NONE', *, *, #356, .T. ) ;
#833 = EDGE_LOOP ( 'NONE', ( #376, #242 ) ) ;
#834 = ORIENTED_EDGE ( 'NONE', *, *, #442, .F. ) ;
#835 = DIRECTION ( 'NONE',  ( -0.3008521040918674672, -0.9536708087508478648, -6.360652745249270604E-15 ) ) ;
#836 = VERTEX_POINT ( 'NONE', #463 ) ;
#837 = CARTESIAN_POINT ( 'NONE',  ( 5806.985800931429367, 3621.248221866585027, 2.140777051366045125 ) ) ;
#838 = AXIS2_PLACEMENT_3D ( 'NONE', #373, #853, #784 ) ;
#839 = COORDINATED_UNIVERSAL_TIME_OFFSET ( 8, 0, .AHEAD. ) ;
#840 = CARTESIAN_POINT ( 'NONE',  ( 6141.405790318180152, 3840.059521210640014, 15.00000000000000000 ) ) ;
#841 = ADVANCED_FACE ( 'NONE', ( #407 ), #678, .T. ) ;
#842 = VECTOR ( 'NONE', #71, 1000.000000000000000 ) ;
#843 = CARTESIAN_POINT ( 'NONE',  ( 5809.744255289449029, 3629.962756923995130, 2.563921297493720078E-12 ) ) ;
#844 = AXIS2_PLACEMENT_3D ( 'NONE', #125, #831, #198 ) ;
#845 = CARTESIAN_POINT ( 'NONE',  ( 6003.381337748909573, 3550.002121672875091, 125.0000000000000000 ) ) ;
#846 = DIRECTION ( 'NONE',  ( -3.665712078274734762E-13, -1.161993735389795934E-12, -1.000000000000000000 ) ) ;
#847 = CC_DESIGN_PERSON_AND_ORGANIZATION_ASSIGNMENT ( #38, #604, ( #812 ) ) ;
#848 = LOCAL_TIME ( 11, 35, 45.00000000000000000, #320 ) ;
#849 = LINE ( 'NONE', #209, #519 ) ;
#850 = CARTESIAN_POINT ( 'NONE',  ( 5806.377968766520098, 3619.328826965035205, 3.486046810468939938 ) ) ;
#851 = VECTOR ( 'NONE', #423, 1000.000000000000000 ) ;
#852 = ORIENTED_EDGE ( 'NONE', *, *, #618, .T. ) ;
#853 = DIRECTION ( 'NONE',  ( 0.000000000000000000, 0.000000000000000000, 1.000000000000000000 ) ) ;
#854 = PLANE ( 'NONE',  #427 ) ;
#855 = AXIS2_PLACEMENT_3D ( 'NONE', #828, #339, #136 ) ;
#856 = EDGE_CURVE ( 'NONE', #436, #622, #544, .T. ) ;
#857 = ORIENTED_EDGE ( 'NONE', *, *, #669, .F. ) ;
#858 = CYLINDRICAL_SURFACE ( 'NONE', #771, 115.3380461810833424 ) ;
#859 = FACE_OUTER_BOUND ( 'NONE', #760, .T. ) ;
#860 = DIRECTION ( 'NONE',  ( 0.3008521040919079348, 0.9536708087508349863, 3.491481338843135327E-15 ) ) ;
#861 = AXIS2_PLACEMENT_3D ( 'NONE', #615, #278, #610 ) ;
#862 = ORIENTED_EDGE ( 'NONE', *, *, #880, .T. ) ;
#863 = CARTESIAN_POINT ( 'NONE',  ( 6011.324311648510047, 4101.721043206979630, 0.000000000000000000 ) ) ;
#864 = UNCERTAINTY_MEASURE_WITH_UNIT (LENGTH_MEASURE( 1.000000000000000082E-05 ), #808, 'distance_accuracy_value', 'NONE');
#865 = ORIENTED_EDGE ( 'NONE', *, *, #809, .F. ) ;
#866 = CARTESIAN_POINT ( 'NONE',  ( 5941.405790318180152, 4127.687113471534758, 15.00000000000000000 ) ) ;
#867 = DIRECTION ( 'NONE',  ( 0.000000000000000000, 0.000000000000000000, 1.000000000000000000 ) ) ;
#868 = VECTOR ( 'NONE', #307, 1000.000000000000000 ) ;
#869 = CARTESIAN_POINT ( 'NONE',  ( 6008.796675622559633, 3567.168196230394642, 15.00000000000000000 ) ) ;
#870 = ADVANCED_FACE ( 'NONE', ( #47 ), #606, .T. ) ;
#871 = ORIENTED_EDGE ( 'NONE', *, *, #23, .F. ) ;
#872 = ADVANCED_BREP_SHAPE_REPRESENTATION ( 'SPACER(Varsay_lan)_\X2\9ed88ba4\X0\_sldprt', ( #129, #21 ), #185 ) ;
#873 = DIRECTION ( 'NONE',  ( 0.9536708087508378728, -0.3008521040918989420, 0.000000000000000000 ) ) ;
#874 = VERTEX_POINT ( 'NONE', #189 ) ;
#875 = CARTESIAN_POINT ( 'NONE',  ( 6007.894119310279166, 3564.307183804140095, 125.0000000000000000 ) ) ;
#876 = PERSON_AND_ORGANIZATION ( #5, #543 ) ;
#877 = DIRECTION ( 'NONE',  ( 1.050419507188586022E-15, 3.329723832152979790E-15, -1.000000000000000000 ) ) ;
#878 = LINE ( 'NONE', #250, #462 ) ;
#879 = ORIENTED_EDGE ( 'NONE', *, *, #461, .T. ) ;
#880 = EDGE_CURVE ( 'NONE', #363, #313, #878, .T. ) ;
#881 = CARTESIAN_POINT ( 'NONE',  ( 5919.373424222510948, 3824.932944611365201, 15.00000000000000000 ) ) ;
#882 = PERSON_AND_ORGANIZATION_ROLE ( 'design_supplier' ) ;
#883 = DIRECTION ( 'NONE',  ( 0.000000000000000000, 1.000000000000000000, 3.329723832152979790E-15 ) ) ;
#884 = VECTOR ( 'NONE', #437, 1000.000000000000000 ) ;
#885 = DIRECTION ( 'NONE',  ( 0.000000000000000000, 0.000000000000000000, 1.000000000000000000 ) ) ;
#886 = CARTESIAN_POINT ( 'NONE',  ( 6041.324311648510047, 4101.721043206979630, -113.1370849898482049 ) ) ;
#887 = ORIENTED_EDGE ( 'NONE', *, *, #492, .F. ) ;
#888 = CARTESIAN_POINT ( 'NONE',  ( 6013.469686177900257, 4129.483363415190070, 15.00000000000000000 ) ) ;
#889 = ADVANCED_FACE ( 'NONE', ( #824 ), #827, .T. ) ;
#890 = VECTOR ( 'NONE', #64, 1000.000000000000000 ) ;
#891 = CARTESIAN_POINT ( 'NONE',  ( 6141.405790318180152, 4129.483363415190070, 0.000000000000000000 ) ) ;
#892 = ORIENTED_EDGE ( 'NONE', *, *, #701, .T. ) ;
#893 = DIRECTION ( 'NONE',  ( 0.000000000000000000, 0.000000000000000000, -1.000000000000000000 ) ) ;
#894 = VECTOR ( 'NONE', #306, 1000.000000000000227 ) ;
#895 = ORIENTED_EDGE ( 'NONE', *, *, #348, .F. ) ;
#896 = CARTESIAN_POINT ( 'NONE',  ( 6018.205597468880114, 3572.064336515334617, 15.00000000000254907 ) ) ;
#897 = LINE ( 'NONE', #691, #822 ) ;
#898 = ORIENTED_EDGE ( 'NONE', *, *, #520, .T. ) ;
#899 = EDGE_CURVE ( 'NONE', #418, #644, #258, .T. ) ;
#900 = CARTESIAN_POINT ( 'NONE',  ( 5805.027733572824218, 3615.070832824314039, 8.979287865277694181 ) ) ;
#901 = DIRECTION ( 'NONE',  ( 1.000000000000000000, 0.000000000000000000, 0.000000000000000000 ) ) ;
#902 = CIRCLE ( 'NONE', #503, 634.3592539959672649 ) ;
#903 = ORIENTED_EDGE ( 'NONE', *, *, #830, .F. ) ;
#904 = CARTESIAN_POINT ( 'NONE',  ( 5947.012271745119506, 3902.760234493510325, 15.00000000000000000 ) ) ;
#905 = ORIENTED_EDGE ( 'NONE', *, *, #593, .T. ) ;
#906 = CARTESIAN_POINT ( 'NONE',  ( 5809.623995895631197, 3629.588918502204706, 15.00000000000232703 ) ) ;
#907 = EDGE_LOOP ( 'NONE', ( #528, #213, #405, #767 ) ) ;
#908 = FACE_OUTER_BOUND ( 'NONE', #138, .T. ) ;
#909 = ORIENTED_EDGE ( 'NONE', *, *, #422, .F. ) ;
#910 = CARTESIAN_POINT ( 'NONE',  ( 5809.744255289449029, 3629.962756923995130, -0.1499999999974360176 ) ) ;
#911 = ADVANCED_FACE ( 'NONE', ( #331 ), #685, .F. ) ;
#912 = CARTESIAN_POINT ( 'NONE',  ( 5808.310759850050090, 3625.433464486455250, 0.3223959184683330426 ) ) ;
#913 = CIRCLE ( 'NONE', #238, 30.00000000000024869 ) ;
ENDSEC;
END-ISO-10303-21;
