ISO-10303-21;
HEADER;
FILE_DESCRIPTION (( 'STEP AP203' ),
    '1' );
FILE_NAME ('SPACER 02(Varsay_lan)_默认_sldprt.STEP',
    '2026-04-08T03:35:43',
    ( '' ),
    ( '' ),
    'SwSTEP 2.0',
    'SolidWorks 2022',
    '' );
FILE_SCHEMA (( 'CONFIG_CONTROL_DESIGN' ));
ENDSEC;

DATA;
#1 = DIRECTION ( 'NONE',  ( 0.000000000000000000, 0.000000000000000000, 1.000000000000000000 ) ) ;
#2 = CARTESIAN_POINT ( 'NONE',  ( 5808.861897485230656, 3627.254232374064941, -3.000000000000115019 ) ) ;
#3 = ORIENTED_EDGE ( 'NONE', *, *, #879, .F. ) ;
#4 = DIRECTION ( 'NONE',  ( -1.000000000000000000, 0.000000000000000000, 0.000000000000000000 ) ) ;
#5 = FACE_OUTER_BOUND ( 'NONE', #254, .T. ) ;
#6 = ADVANCED_FACE ( 'NONE', ( #902 ), #640, .F. ) ;
#7 = CARTESIAN_POINT ( 'NONE',  ( 6007.894119310279166, 3564.307183804140095, -3.000000000000115019 ) ) ;
#8 = ORIENTED_EDGE ( 'NONE', *, *, #157, .T. ) ;
#9 = FACE_BOUND ( 'NONE', #362, .T. ) ;
#10 = CIRCLE ( 'NONE', #589, 30.00000000000024869 ) ;
#11 = FACE_OUTER_BOUND ( 'NONE', #399, .T. ) ;
#12 = CARTESIAN_POINT ( 'NONE',  ( 5809.503782986570513, 3629.215227432417123, -0.07808196999608391087 ) ) ;
#13 = EDGE_LOOP ( 'NONE', ( #301, #886, #108, #842 ) ) ;
#14 = CARTESIAN_POINT ( 'NONE',  ( 6116.344094594010130, 3768.274805253469822, 0.000000000000000000 ) ) ;
#15 = VECTOR ( 'NONE', #727, 1000.000000000000000 ) ;
#16 = AXIS2_PLACEMENT_3D ( 'NONE', #739, #600, #527 ) ;
#17 = CARTESIAN_POINT ( 'NONE',  ( 1566.435609575690023, 4965.442801702320139, -1.264794822068124017E-11 ) ) ;
#18 = B_SPLINE_CURVE_WITH_KNOTS ( 'NONE', 3,
 ( #37, #882, #475, #329, #757, #333, #537, #815, #405, #184, #44, #688, #53, #243, #459, #245, #487, #417 ),
 .UNSPECIFIED., .F., .F.,
 ( 4, 2, 2, 2, 2, 2, 2, 2, 4 ),
 ( 0.000000000000000000, 0.1250000000000000833, 0.2500000000000001665, 0.3750000000000002220, 0.5000000000000002220, 0.6250000000000002220, 0.7500000000000001110, 0.8750000000000001110, 1.000000000000000000 ),
 .UNSPECIFIED. ) ;
#19 = FACE_OUTER_BOUND ( 'NONE', #311, .T. ) ;
#20 = ORIENTED_EDGE ( 'NONE', *, *, #393, .T. ) ;
#21 = LINE ( 'NONE', #726, #57 ) ;
#22 = EDGE_CURVE ( 'NONE', #406, #615, #345, .T. ) ;
#23 = CARTESIAN_POINT ( 'NONE',  ( 6069.319511455009888, 4129.483363415190070, 15.00000000000000000 ) ) ;
#24 = CARTESIAN_POINT ( 'NONE',  ( 6116.344094594010130, 3768.274805253469822, 0.000000000000000000 ) ) ;
#25 = VERTEX_POINT ( 'NONE', #554 ) ;
#26 = CARTESIAN_POINT ( 'NONE',  ( 5947.012271745119506, 3902.760234493510325, 0.000000000000000000 ) ) ;
#27 =( GEOMETRIC_REPRESENTATION_CONTEXT ( 3 ) GLOBAL_UNCERTAINTY_ASSIGNED_CONTEXT ( ( #324 ) ) GLOBAL_UNIT_ASSIGNED_CONTEXT ( ( #175, #825, #122 ) ) REPRESENTATION_CONTEXT ( 'NONE', 'WORKASPACE' ) );
#28 = AXIS2_PLACEMENT_3D ( 'NONE', #851, #646, #379 ) ;
#29 = EDGE_CURVE ( 'NONE', #426, #546, #548, .T. ) ;
#30 = FACE_BOUND ( 'NONE', #356, .T. ) ;
#31 = LINE ( 'NONE', #715, #747 ) ;
#32 = APPROVAL_DATE_TIME ( #666, #75 ) ;
#33 = ORIENTED_EDGE ( 'NONE', *, *, #123, .F. ) ;
#34 = PERSON_AND_ORGANIZATION_ROLE ( 'design_owner' ) ;
#35 = LINE ( 'NONE', #106, #888 ) ;
#36 = AXIS2_PLACEMENT_3D ( 'NONE', #507, #789, #719 ) ;
#37 = CARTESIAN_POINT ( 'NONE',  ( 5804.303536830079793, 3612.804689115275323, -3.000000000000075051 ) ) ;
#38 = ORIENTED_EDGE ( 'NONE', *, *, #669, .F. ) ;
#39 = PERSON_AND_ORGANIZATION ( #521, #531 ) ;
#40 = EDGE_CURVE ( 'NONE', #384, #274, #742, .T. ) ;
#41 = CARTESIAN_POINT ( 'NONE',  ( 5831.710038369579706, 3899.886234583660098, 0.000000000000000000 ) ) ;
#42 = ORIENTED_EDGE ( 'NONE', *, *, #657, .T. ) ;
#43 = LINE ( 'NONE', #756, #364 ) ;
#44 = CARTESIAN_POINT ( 'NONE',  ( 5806.430379222839292, 3619.494962822439902, 11.31193726046589632 ) ) ;
#45 = ORIENTED_EDGE ( 'NONE', *, *, #567, .T. ) ;
#46 = FACE_BOUND ( 'NONE', #204, .T. ) ;
#47 = DIRECTION ( 'NONE',  ( 0.000000000000000000, 0.000000000000000000, -1.000000000000000000 ) ) ;
#48 = B_SPLINE_SURFACE_WITH_KNOTS ( 'NONE', 1, 3, ( 
 ( #431, #284, #64, #339, #627, #710, #352, #636, #848, #903 ),
 ( #357, #483, #762, #912, #132, #69, #129, #564, #845, #212 ),
 ( #411, #347, #899, #622, #205, #140, #641, #568, #271, #268 ),
 ( #2, #498, #782, #694, #771, #136, #60, #421, #631, #908 ) ),
 .UNSPECIFIED., .F., .F., .F.,
 ( 2, 1, 1, 2 ),
 ( 4, 2, 2, 2, 4 ),
 ( -0.01000000000000000021, 0.000000000000000000, 1.000000000000000000, 1.010099999999999998 ),
 ( 0.000000000000000000, 0.2500000000000000000, 0.5000000000000000000, 0.7500000000000000000, 1.000000000000000000 ),
 .UNSPECIFIED. ) ;
#49 = EDGE_LOOP ( 'NONE', ( #250, #45, #42, #750 ) ) ;
#50 = FACE_OUTER_BOUND ( 'NONE', #83, .T. ) ;
#51 = CIRCLE ( 'NONE', #36, 30.00000000000024869 ) ;
#52 = ADVANCED_FACE ( 'NONE', ( #779 ), #429, .T. ) ;
#53 = CARTESIAN_POINT ( 'NONE',  ( 5807.337039107007513, 3622.357925576948674, 13.17899328778788970 ) ) ;
#54 = VERTEX_POINT ( 'NONE', #492 ) ;
#55 = APPROVAL_DATE_TIME ( #266, #910 ) ;
#56 = LOCAL_TIME ( 11, 35, 43.00000000000000000, #186 ) ;
#57 = VECTOR ( 'NONE', #735, 1000.000000000000000 ) ;
#58 = LINE ( 'NONE', #127, #433 ) ;
#59 = COORDINATED_UNIVERSAL_TIME_OFFSET ( 8, 0, .AHEAD. ) ;
#60 = CARTESIAN_POINT ( 'NONE',  ( 5809.304205101219850, 3628.597329117434583, -0.5110194727739140186 ) ) ;
#61 = CARTESIAN_POINT ( 'NONE',  ( 6041.152785902670075, 3826.721043206979630, 128.1370849898482049 ) ) ;
#62 = EDGE_CURVE ( 'NONE', #406, #125, #629, .T. ) ;
#63 = VECTOR ( 'NONE', #131, 1000.000000000000000 ) ;
#64 = CARTESIAN_POINT ( 'NONE',  ( 5804.404760418119622, 3613.110814233445126, 1.750724101119744969 ) ) ;
#65 = EDGE_LOOP ( 'NONE', ( #137, #239, #218, #141 ) ) ;
#66 = AXIS2_PLACEMENT_3D ( 'NONE', #158, #241, #443 ) ;
#67 = CARTESIAN_POINT ( 'NONE',  ( 6011.152785902670075, 3826.721043206979630, 128.1370849898482049 ) ) ;
#68 = ADVANCED_FACE ( 'NONE', ( #264 ), #71, .T. ) ;
#69 = CARTESIAN_POINT ( 'NONE',  ( 5806.405701917589795, 3619.416738255149994, 11.39400316316524098 ) ) ;
#70 = ORIENTED_EDGE ( 'NONE', *, *, #242, .T. ) ;
#71 = PLANE ( 'NONE',  #827 ) ;
#72 = PERSON_AND_ORGANIZATION ( #521, #531 ) ;
#73 = FACE_OUTER_BOUND ( 'NONE', #49, .T. ) ;
#74 = ORIENTED_EDGE ( 'NONE', *, *, #296, .F. ) ;
#75 = APPROVAL ( #128, '未指定' ) ;
#76 = EDGE_LOOP ( 'NONE', ( #155, #760 ) ) ;
#77 = CARTESIAN_POINT ( 'NONE',  ( 5809.718874703729853, 3629.970763672789872, -3.000000000000120348 ) ) ;
#78 = VERTEX_POINT ( 'NONE', #500 ) ;
#79 = CIRCLE ( 'NONE', #656, 634.3592539959672649 ) ;
#80 = EDGE_CURVE ( 'NONE', #496, #78, #58, .T. ) ;
#81 = DIRECTION ( 'NONE',  ( 0.000000000000000000, 0.000000000000000000, -1.000000000000000000 ) ) ;
#82 = CARTESIAN_POINT ( 'NONE',  ( 6003.381337748900478, 3550.002121672875091, -3.000000000000075051 ) ) ;
#83 = EDGE_LOOP ( 'NONE', ( #174, #846, #223, #450 ) ) ;
#84 = DIRECTION ( 'NONE',  ( 0.000000000000000000, 0.000000000000000000, -1.000000000000000000 ) ) ;
#85 = DIRECTION ( 'NONE',  ( 1.000000000000000000, 0.000000000000000000, 0.000000000000000000 ) ) ;
#86 = CARTESIAN_POINT ( 'NONE',  ( 5809.007705591451668, 3627.679570754489305, -1.156359840076070622 ) ) ;
#87 = ORIENTED_EDGE ( 'NONE', *, *, #536, .T. ) ;
#88 = FACE_OUTER_BOUND ( 'NONE', #805, .T. ) ;
#89 = LINE ( 'NONE', #371, #901 ) ;
#90 = EDGE_CURVE ( 'NONE', #768, #54, #620, .T. ) ;
#91 = DIRECTION ( 'NONE',  ( 0.000000000000000000, -1.000000000000000000, 3.329723832152979790E-15 ) ) ;
#92 = EDGE_LOOP ( 'NONE', ( #230, #334, #855, #165 ) ) ;
#93 = CARTESIAN_POINT ( 'NONE',  ( 6006.806325292919610, 3560.858986546465076, 15.00000000000000000 ) ) ;
#94 = VECTOR ( 'NONE', #382, 1000.000000000000000 ) ;
#95 = PLANE ( 'NONE',  #209 ) ;
#96 = LINE ( 'NONE', #595, #227 ) ;
#97 = ORIENTED_EDGE ( 'NONE', *, *, #736, .T. ) ;
#98 = CC_DESIGN_PERSON_AND_ORGANIZATION_ASSIGNMENT ( #547, #635, ( #557 ) ) ;
#99 = CARTESIAN_POINT ( 'NONE',  ( 6069.319511455009888, 4201.569642278370338, 0.000000000000000000 ) ) ;
#100 = CARTESIAN_POINT ( 'NONE',  ( 6141.405790318180152, 3840.059521210640014, 0.000000000000000000 ) ) ;
#101 = CARTESIAN_POINT ( 'NONE',  ( 5809.623995895630287, 3629.588918502207889, -9.903140289391366153E-13 ) ) ;
#102 = ORIENTED_EDGE ( 'NONE', *, *, #202, .F. ) ;
#103 = CARTESIAN_POINT ( 'NONE',  ( 6008.796675622559633, 3567.168196230389640, -3.000000000000120348 ) ) ;
#104 = PRODUCT_DEFINITION_FORMATION_WITH_SPECIFIED_SOURCE ( '任何', '', #259, .NOT_KNOWN. ) ;
#105 = VECTOR ( 'NONE', #236, 1000.000000000000341 ) ;
#106 = CARTESIAN_POINT ( 'NONE',  ( 6141.405790318180152, 3450.166494749720187, 15.00000000000000000 ) ) ;
#107 = DIRECTION ( 'NONE',  ( 0.000000000000000000, 1.000000000000000000, 0.000000000000000000 ) ) ;
#108 = ORIENTED_EDGE ( 'NONE', *, *, #380, .T. ) ;
#109 = DIRECTION ( 'NONE',  ( 0.000000000000000000, 0.000000000000000000, 1.000000000000000000 ) ) ;
#110 = EDGE_CURVE ( 'NONE', #725, #488, #135, .T. ) ;
#111 = PRODUCT_DEFINITION_SHAPE ( 'NONE', 'NONE',  #557 ) ;
#112 = AXIS2_PLACEMENT_3D ( 'NONE', #785, #650, #660 ) ;
#113 = DIRECTION ( 'NONE',  ( 0.000000000000000000, 0.000000000000000000, -1.000000000000000000 ) ) ;
#114 = ORIENTED_EDGE ( 'NONE', *, *, #639, .F. ) ;
#115 = ADVANCED_BREP_SHAPE_REPRESENTATION ( 'SPACER 02(Varsay_lan)_\X2\9ed88ba4\X0\_sldprt', ( #359, #892 ), #27 ) ;
#116 = LINE ( 'NONE', #686, #618 ) ;
#117 = CARTESIAN_POINT ( 'NONE',  ( 5808.816318391460300, 3627.109751246534870, -3.000000000000115019 ) ) ;
#118 = EDGE_LOOP ( 'NONE', ( #133, #906, #490, #97 ) ) ;
#119 = DIRECTION ( 'NONE',  ( 1.000000000000000000, 0.000000000000000000, 0.000000000000000000 ) ) ;
#120 = DIRECTION ( 'NONE',  ( -1.000000000000000000, 0.000000000000000000, 0.000000000000000000 ) ) ;
#121 = ORIENTED_EDGE ( 'NONE', *, *, #516, .T. ) ;
#122 =( NAMED_UNIT ( * ) SI_UNIT ( $, .STERADIAN. ) SOLID_ANGLE_UNIT ( ) );
#123 = EDGE_CURVE ( 'NONE', #617, #677, #765, .T. ) ;
#124 = FACE_OUTER_BOUND ( 'NONE', #235, .T. ) ;
#125 = VERTEX_POINT ( 'NONE', #413 ) ;
#126 = VECTOR ( 'NONE', #147, 1000.000000000000000 ) ;
#127 = CARTESIAN_POINT ( 'NONE',  ( 6071.324311648510047, 4101.721043206979630, 128.1370849898482049 ) ) ;
#128 = APPROVAL_STATUS ( 'not_yet_approved' ) ;
#129 = CARTESIAN_POINT ( 'NONE',  ( 5807.008528155909516, 3621.320264874620079, 12.72815499037479903 ) ) ;
#130 = CIRCLE ( 'NONE', #572, 30.00000000000024869 ) ;
#131 = DIRECTION ( 'NONE',  ( 0.000000000000000000, 0.000000000000000000, -1.000000000000000000 ) ) ;
#132 = CARTESIAN_POINT ( 'NONE',  ( 5805.398983809829588, 3616.240286889670188, 8.061840959546728413 ) ) ;
#133 = ORIENTED_EDGE ( 'NONE', *, *, #695, .F. ) ;
#134 = EDGE_CURVE ( 'NONE', #261, #488, #181, .T. ) ;
#135 = LINE ( 'NONE', #197, #465 ) ;
#136 = CARTESIAN_POINT ( 'NONE',  ( 5809.207027506669874, 3628.296657669974593, -0.7221489994297529691 ) ) ;
#137 = ORIENTED_EDGE ( 'NONE', *, *, #792, .F. ) ;
#138 = VECTOR ( 'NONE', #257, 1000.000000000000114 ) ;
#139 = DIRECTION ( 'NONE',  ( 0.000000000000000000, 0.000000000000000000, -1.000000000000000000 ) ) ;
#140 = CARTESIAN_POINT ( 'NONE',  ( 5809.179017024101086, 3628.207867266954963, -0.6009994728064390612 ) ) ;
#141 = ORIENTED_EDGE ( 'NONE', *, *, #781, .T. ) ;
#142 = CARTESIAN_POINT ( 'NONE',  ( 6026.067744137100817, 3840.059521210640014, 0.000000000000000000 ) ) ;
#143 = AXIS2_PLACEMENT_3D ( 'NONE', #530, #109, #404 ) ;
#144 = DIRECTION ( 'NONE',  ( 0.000000000000000000, 1.000000000000000000, 0.000000000000000000 ) ) ;
#145 = EDGE_CURVE ( 'NONE', #890, #495, #701, .T. ) ;
#146 = LINE ( 'NONE', #350, #412 ) ;
#147 = DIRECTION ( 'NONE',  ( -1.000000000000000000, 0.000000000000000000, 0.000000000000000000 ) ) ;
#148 = LINE ( 'NONE', #524, #452 ) ;
#149 = ORIENTED_EDGE ( 'NONE', *, *, #775, .F. ) ;
#150 = VECTOR ( 'NONE', #832, 1000.000000000000000 ) ;
#151 = CARTESIAN_POINT ( 'NONE',  ( 6041.324311648510047, 4101.721043206979630, 15.00000000000000000 ) ) ;
#152 = AXIS2_PLACEMENT_3D ( 'NONE', #304, #794, #454 ) ;
#153 = CARTESIAN_POINT ( 'NONE',  ( 6069.319511455009888, 4201.569642278370338, 15.00000000000000000 ) ) ;
#154 = CARTESIAN_POINT ( 'NONE',  ( 5809.179017024091991, 3628.207867266954963, -0.6009994728064381730 ) ) ;
#155 = ORIENTED_EDGE ( 'NONE', *, *, #687, .F. ) ;
#156 = DIRECTION ( 'NONE',  ( 1.000000000000000000, 0.000000000000000000, 0.000000000000000000 ) ) ;
#157 = EDGE_CURVE ( 'NONE', #295, #580, #447, .T. ) ;
#158 = CARTESIAN_POINT ( 'NONE',  ( 5804.303536830079793, 3612.804689115275323, -110.0000000000000000 ) ) ;
#159 = DIRECTION ( 'NONE',  ( -1.000000000000000000, 0.000000000000000000, 0.000000000000000000 ) ) ;
#160 = ORIENTED_EDGE ( 'NONE', *, *, #763, .F. ) ;
#161 = CYLINDRICAL_SURFACE ( 'NONE', #216, 30.00000000000024869 ) ;
#162 = CARTESIAN_POINT ( 'NONE',  ( 5809.744255289439934, 3629.962756923975121, 14.99999999999910116 ) ) ;
#163 = ADVANCED_FACE ( 'NONE', ( #228 ), #309, .T. ) ;
#164 = DIRECTION ( 'NONE',  ( -8.074349270001140771E-15, 0.000000000000000000, -1.000000000000000000 ) ) ;
#165 = ORIENTED_EDGE ( 'NONE', *, *, #62, .T. ) ;
#166 = LINE ( 'NONE', #451, #693 ) ;
#167 = VECTOR ( 'NONE', #315, 1000.000000000000000 ) ;
#168 = CARTESIAN_POINT ( 'NONE',  ( 6003.381337748909573, 3550.002121672875091, 5.237222008264379440E-14 ) ) ;
#169 = CARTESIAN_POINT ( 'NONE',  ( 6071.324311648510047, 4101.721043206979630, 15.00000000000000000 ) ) ;
#170 = VERTEX_POINT ( 'NONE', #162 ) ;
#171 = FACE_OUTER_BOUND ( 'NONE', #472, .T. ) ;
#172 = CARTESIAN_POINT ( 'NONE',  ( 6011.135944842019853, 3574.294581845765151, 15.00000000000000000 ) ) ;
#173 = DIRECTION ( 'NONE',  ( 1.000000000000000000, 0.000000000000000000, 0.000000000000000000 ) ) ;
#174 = ORIENTED_EDGE ( 'NONE', *, *, #110, .F. ) ;
#175 =( LENGTH_UNIT ( ) NAMED_UNIT ( * ) SI_UNIT ( .MILLI., .METRE. ) );
#176 = EDGE_CURVE ( 'NONE', #586, #272, #332, .T. ) ;
#177 = VECTOR ( 'NONE', #178, 1000.000000000000114 ) ;
#178 = DIRECTION ( 'NONE',  ( 0.9536708087508378728, -0.3008521040918989420, 0.000000000000000000 ) ) ;
#179 = EDGE_LOOP ( 'NONE', ( #673, #8, #246, #149 ) ) ;
#180 = APPROVAL_ROLE ( '' ) ;
#181 = CIRCLE ( 'NONE', #699, 17.99999999999945999 ) ;
#182 = CC_DESIGN_PERSON_AND_ORGANIZATION_ASSIGNMENT ( #828, #262, ( #401 ) ) ;
#183 = AXIS2_PLACEMENT_3D ( 'NONE', #749, #107, #889 ) ;
#184 = CARTESIAN_POINT ( 'NONE',  ( 5806.154022390643149, 3618.622625413780952, 10.56096261226048938 ) ) ;
#185 = ORIENTED_EDGE ( 'NONE', *, *, #775, .T. ) ;
#186 = COORDINATED_UNIVERSAL_TIME_OFFSET ( 8, 0, .AHEAD. ) ;
#187 = EDGE_CURVE ( 'NONE', #837, #878, #233, .T. ) ;
#188 = DIRECTION ( 'NONE',  ( -0.3008521040919066025, -0.9536708087508354303, 2.503722994132715513E-15 ) ) ;
#189 = ORIENTED_EDGE ( 'NONE', *, *, #40, .F. ) ;
#190 = DIRECTION ( 'NONE',  ( 0.000000000000000000, 0.000000000000000000, 1.000000000000000000 ) ) ;
#191 = CIRCLE ( 'NONE', #28, 115.3380461810842235 ) ;
#192 = EDGE_CURVE ( 'NONE', #878, #213, #613, .T. ) ;
#193 = CARTESIAN_POINT ( 'NONE',  ( 6008.796675622559633, 3567.168196230389640, -9.081277396738579081E-13 ) ) ;
#194 = ORIENTED_EDGE ( 'NONE', *, *, #448, .F. ) ;
#195 = EDGE_LOOP ( 'NONE', ( #651, #533, #560, #824 ) ) ;
#196 = PERSON_AND_ORGANIZATION ( #521, #531 ) ;
#197 = CARTESIAN_POINT ( 'NONE',  ( 6007.894119310279166, 3564.307183804140095, -3.000000000000115019 ) ) ;
#198 = CALENDAR_DATE ( 2026, 8, 4 ) ;
#199 = CARTESIAN_POINT ( 'NONE',  ( 6041.152785902670075, 3826.721043206979630, 15.00000000000000000 ) ) ;
#200 = ORIENTED_EDGE ( 'NONE', *, *, #322, .T. ) ;
#201 = DIRECTION ( 'NONE',  ( 0.000000000000000000, 0.000000000000000000, -1.000000000000000000 ) ) ;
#202 = EDGE_CURVE ( 'NONE', #529, #861, #859, .T. ) ;
#203 = AXIS2_PLACEMENT_3D ( 'NONE', #542, #821, #255 ) ;
#204 = EDGE_LOOP ( 'NONE', ( #684, #508 ) ) ;
#205 = CARTESIAN_POINT ( 'NONE',  ( 5809.007705591450758, 3627.679570754490214, -1.156359840076071954 ) ) ;
#206 = ORIENTED_EDGE ( 'NONE', *, *, #408, .F. ) ;
#207 = LINE ( 'NONE', #777, #252 ) ;
#208 = ORIENTED_EDGE ( 'NONE', *, *, #355, .T. ) ;
#209 = AXIS2_PLACEMENT_3D ( 'NONE', #434, #439, #793 ) ;
#210 = VERTEX_POINT ( 'NONE', #802 ) ;
#211 = ADVANCED_FACE ( 'NONE', ( #5 ), #659, .F. ) ;
#212 = CARTESIAN_POINT ( 'NONE',  ( 5809.744255289439934, 3629.962756923975121, 14.99999999999910116 ) ) ;
#213 = VERTEX_POINT ( 'NONE', #648 ) ;
#214 = CIRCLE ( 'NONE', #850, 634.3592539959672649 ) ;
#215 = DIRECTION ( 'NONE',  ( 0.3008521040919529543, 0.9536708087508207754, 0.000000000000000000 ) ) ;
#216 = AXIS2_PLACEMENT_3D ( 'NONE', #862, #456, #570 ) ;
#217 = CARTESIAN_POINT ( 'NONE',  ( 5808.816318391460300, 3627.109751246534870, -3.000000000000115019 ) ) ;
#218 = ORIENTED_EDGE ( 'NONE', *, *, #202, .T. ) ;
#219 = CARTESIAN_POINT ( 'NONE',  ( 6011.324311648510047, 4101.721043206979630, 0.000000000000000000 ) ) ;
#220 = PRODUCT_RELATED_PRODUCT_CATEGORY ( 'detail', '', ( #259 ) ) ;
#221 = CARTESIAN_POINT ( 'NONE',  ( 6011.135944842019853, 3574.294581845765151, 0.000000000000000000 ) ) ;
#222 = DIRECTION ( 'NONE',  ( 1.000000000000000000, 0.000000000000000000, 0.000000000000000000 ) ) ;
#223 = ORIENTED_EDGE ( 'NONE', *, *, #616, .T. ) ;
#224 = CLOSED_SHELL ( 'NONE', ( #707, #753, #543, #856, #278, #838, #748, #477, #553, #867, #226, #467, #612, #52, #68, #905, #349, #337, #211, #256, #232, #308, #163, #438, #6, #344 ) ) ;
#225 = CARTESIAN_POINT ( 'NONE',  ( 5808.816318391460300, 3627.109751246534870, -3.000000000000115019 ) ) ;
#226 = ADVANCED_FACE ( 'NONE', ( #863 ), #95, .T. ) ;
#227 = VECTOR ( 'NONE', #238, 1000.000000000000000 ) ;
#228 = FACE_OUTER_BOUND ( 'NONE', #895, .T. ) ;
#229 = LINE ( 'NONE', #864, #94 ) ;
#230 = ORIENTED_EDGE ( 'NONE', *, *, #503, .T. ) ;
#231 = CARTESIAN_POINT ( 'NONE',  ( 6071.152785902670985, 3826.721043206979630, 15.00000000000000000 ) ) ;
#232 = ADVANCED_FACE ( 'NONE', ( #11 ), #788, .F. ) ;
#233 = LINE ( 'NONE', #376, #126 ) ;
#234 = DIRECTION ( 'NONE',  ( 0.000000000000000000, 0.000000000000000000, 1.000000000000000000 ) ) ;
#235 = EDGE_LOOP ( 'NONE', ( #395, #741, #552, #33 ) ) ;
#236 = DIRECTION ( 'NONE',  ( 0.9536708087508354303, -0.3008521040919066025, -1.774937036747275511E-30 ) ) ;
#237 = FACE_OUTER_BOUND ( 'NONE', #608, .T. ) ;
#238 = DIRECTION ( 'NONE',  ( 0.000000000000000000, 0.000000000000000000, -1.000000000000000000 ) ) ;
#239 = ORIENTED_EDGE ( 'NONE', *, *, #616, .F. ) ;
#240 = CARTESIAN_POINT ( 'NONE',  ( 6041.152785902670075, 3826.721043206979630, 15.00000000000000000 ) ) ;
#241 = DIRECTION ( 'NONE',  ( 0.9536708087508350973, -0.3008521040919080458, -7.700271198458702826E-15 ) ) ;
#242 = EDGE_CURVE ( 'NONE', #295, #210, #79, .T. ) ;
#243 = CARTESIAN_POINT ( 'NONE',  ( 5807.994061009203506, 3624.433246981601314, 14.08066988261458441 ) ) ;
#244 = ORIENTED_EDGE ( 'NONE', *, *, #752, .F. ) ;
#245 = CARTESIAN_POINT ( 'NONE',  ( 5809.033282934662566, 3627.716418029178840, 14.88397041816890898 ) ) ;
#246 = ORIENTED_EDGE ( 'NONE', *, *, #893, .T. ) ;
#247 = PLANE ( 'NONE',  #143 ) ;
#248 = VECTOR ( 'NONE', #576, 1000.000000000000000 ) ;
#249 = LINE ( 'NONE', #819, #138 ) ;
#250 = ORIENTED_EDGE ( 'NONE', *, *, #397, .F. ) ;
#251 = EDGE_CURVE ( 'NONE', #378, #837, #675, .T. ) ;
#252 = VECTOR ( 'NONE', #705, 1000.000000000000000 ) ;
#253 = DIRECTION ( 'NONE',  ( 0.02491805614023844331, -0.9996894970330497676, 0.000000000000000000 ) ) ;
#254 = EDGE_LOOP ( 'NONE', ( #326, #416, #432, #667 ) ) ;
#255 = DIRECTION ( 'NONE',  ( 1.000000000000000000, 0.000000000000000000, 0.000000000000000000 ) ) ;
#256 = ADVANCED_FACE ( 'NONE', ( #237 ), #522, .F. ) ;
#257 = DIRECTION ( 'NONE',  ( 0.9536708087508378728, -0.3008521040918989420, 0.000000000000000000 ) ) ;
#258 = VERTEX_POINT ( 'NONE', #643 ) ;
#259 = PRODUCT ( 'SPACER 02(Varsay_lan)_\X2\9ed88ba4\X0\_sldprt', 'SPACER 02(Varsay_lan)_\X2\9ed88ba4\X0\_sldprt', '', ( #312 ) ) ;
#260 = CIRCLE ( 'NONE', #367, 576.6902309054255511 ) ;
#261 = VERTEX_POINT ( 'NONE', #853 ) ;
#262 = PERSON_AND_ORGANIZATION_ROLE ( 'classification_officer' ) ;
#263 = APPLICATION_CONTEXT ( 'configuration controlled 3d designs of mechanical parts and assemblies' ) ;
#264 = FACE_OUTER_BOUND ( 'NONE', #65, .T. ) ;
#265 = CIRCLE ( 'NONE', #392, 30.00000000000024869 ) ;
#266 = DATE_AND_TIME ( #346, #737 ) ;
#267 = EDGE_CURVE ( 'NONE', #274, #378, #89, .T. ) ;
#268 = CARTESIAN_POINT ( 'NONE',  ( 5809.744255289439934, 3629.962756923975121, -9.081277396738579081E-13 ) ) ;
#269 = ORIENTED_EDGE ( 'NONE', *, *, #29, .F. ) ;
#270 = DIRECTION ( 'NONE',  ( 0.9536708087508337650, -0.3008521040919124312, -0.000000000000000000 ) ) ;
#271 = CARTESIAN_POINT ( 'NONE',  ( 5809.623974213879592, 3629.588851102304943, -9.904855529811641876E-13 ) ) ;
#272 = VERTEX_POINT ( 'NONE', #153 ) ;
#273 = CC_DESIGN_DATE_AND_TIME_ASSIGNMENT ( #840, #480, ( #401 ) ) ;
#274 = VERTEX_POINT ( 'NONE', #100 ) ;
#275 = COORDINATED_UNIVERSAL_TIME_OFFSET ( 8, 0, .AHEAD. ) ;
#276 = DIRECTION ( 'NONE',  ( -0.000000000000000000, -0.000000000000000000, -1.000000000000000000 ) ) ;
#277 = EDGE_LOOP ( 'NONE', ( #628, #87, #194, #369 ) ) ;
#278 = ADVANCED_FACE ( 'NONE', ( #381, #664, #30 ), #594, .F. ) ;
#279 = VECTOR ( 'NONE', #81, 1000.000000000000000 ) ;
#280 = EDGE_LOOP ( 'NONE', ( #592, #114, #545, #909 ) ) ;
#281 = CARTESIAN_POINT ( 'NONE',  ( 6041.324311648510047, 4101.721043206979630, 128.1370849898482049 ) ) ;
#282 = ORIENTED_EDGE ( 'NONE', *, *, #792, .T. ) ;
#283 = CARTESIAN_POINT ( 'NONE',  ( 6011.053066403250341, 3574.320727296019413, -9.081277396738579081E-13 ) ) ;
#284 = CARTESIAN_POINT ( 'NONE',  ( 5804.260524444609473, 3612.660971144594896, -0.6237422005010719861 ) ) ;
#285 = EDGE_LOOP ( 'NONE', ( #74, #745, #813, #774 ) ) ;
#286 = LINE ( 'NONE', #363, #428 ) ;
#287 = CC_DESIGN_APPROVAL ( #75, ( #401 ) ) ;
#288 = DIRECTION ( 'NONE',  ( -0.9536708087508350973, 0.3008521040919080458, -1.214592483526400165E-15 ) ) ;
#289 = VECTOR ( 'NONE', #812, 1000.000000000000000 ) ;
#290 = DIRECTION ( 'NONE',  ( 0.9536708087508350973, -0.3008521040919075462, 0.000000000000000000 ) ) ;
#291 = ORIENTED_EDGE ( 'NONE', *, *, #322, .F. ) ;
#292 = DIRECTION ( 'NONE',  ( -1.000000000000000000, 0.000000000000000000, 0.000000000000000000 ) ) ;
#293 = CARTESIAN_POINT ( 'NONE',  ( 6013.469686177900257, 4129.483363415190070, 0.000000000000000000 ) ) ;
#294 = DIRECTION ( 'NONE',  ( -0.9536708087508350973, 0.3008521040919075462, 0.000000000000000000 ) ) ;
#295 = VERTEX_POINT ( 'NONE', #172 ) ;
#296 = EDGE_CURVE ( 'NONE', #272, #837, #388, .T. ) ;
#297 = LINE ( 'NONE', #93, #766 ) ;
#298 = AXIS2_PLACEMENT_3D ( 'NONE', #574, #854, #222 ) ;
#299 = DIRECTION ( 'NONE',  ( 0.000000000000000000, 0.000000000000000000, -1.000000000000000000 ) ) ;
#300 = CARTESIAN_POINT ( 'NONE',  ( 6013.469686177900257, 4201.569642278370338, 15.00000000000000000 ) ) ;
#301 = ORIENTED_EDGE ( 'NONE', *, *, #80, .F. ) ;
#302 = PLANE ( 'NONE',  #647 ) ;
#303 = CARTESIAN_POINT ( 'NONE',  ( 6069.319511455009888, 4129.483363415190070, 0.000000000000000000 ) ) ;
#304 = CARTESIAN_POINT ( 'NONE',  ( 6026.067744137100817, 3840.059521210640014, 15.00000000000000000 ) ) ;
#305 = ORIENTED_EDGE ( 'NONE', *, *, #424, .F. ) ;
#306 = CIRCLE ( 'NONE', #461, 115.3380461810842235 ) ;
#307 = FACE_OUTER_BOUND ( 'NONE', #565, .T. ) ;
#308 = ADVANCED_FACE ( 'NONE', ( #876 ), #457, .F. ) ;
#309 = PLANE ( 'NONE',  #801 ) ;
#310 = CARTESIAN_POINT ( 'NONE',  ( 5804.303536830079793, 3612.804689115275323, -110.0000000000000000 ) ) ;
#311 = EDGE_LOOP ( 'NONE', ( #206, #269, #729, #637 ) ) ;
#312 = MECHANICAL_CONTEXT ( 'NONE', #263, 'mechanical' ) ;
#313 = AXIS2_PLACEMENT_3D ( 'NONE', #142, #625, #897 ) ;
#314 = CIRCLE ( 'NONE', #152, 115.3380461810833424 ) ;
#315 = DIRECTION ( 'NONE',  ( 0.000000000000000000, 0.000000000000000000, -1.000000000000000000 ) ) ;
#316 = FACE_OUTER_BOUND ( 'NONE', #645, .T. ) ;
#317 = ORIENTED_EDGE ( 'NONE', *, *, #682, .T. ) ;
#318 = APPROVAL_STATUS ( 'not_yet_approved' ) ;
#319 = CARTESIAN_POINT ( 'NONE',  ( 6361.937094597329633, 3463.628235499294533, 15.00000000000000000 ) ) ;
#320 = VERTEX_POINT ( 'NONE', #808 ) ;
#321 = CYLINDRICAL_SURFACE ( 'NONE', #203, 576.6902309054255511 ) ;
#322 = EDGE_CURVE ( 'NONE', #358, #586, #35, .T. ) ;
#323 = AXIS2_PLACEMENT_3D ( 'NONE', #331, #190, #473 ) ;
#324 = UNCERTAINTY_MEASURE_WITH_UNIT (LENGTH_MEASURE( 1.000000000000000082E-05 ), #175, 'distance_accuracy_value', 'NONE');
#325 = FACE_OUTER_BOUND ( 'NONE', #179, .T. ) ;
#326 = ORIENTED_EDGE ( 'NONE', *, *, #491, .T. ) ;
#327 = APPROVAL ( #318, '未指定' ) ;
#328 = AXIS2_PLACEMENT_3D ( 'NONE', #440, #665, #591 ) ;
#329 = CARTESIAN_POINT ( 'NONE',  ( 5804.480967581393088, 3613.352383250397452, 1.667086233163334263 ) ) ;
#330 = ORIENTED_EDGE ( 'NONE', *, *, #110, .T. ) ;
#331 = CARTESIAN_POINT ( 'NONE',  ( 6069.319511455009888, 4129.483363415190070, 0.000000000000000000 ) ) ;
#332 = CIRCLE ( 'NONE', #807, 72.08627886317842126 ) ;
#333 = CARTESIAN_POINT ( 'NONE',  ( 5804.858793201845401, 3614.538994757513137, 4.976721714622470927 ) ) ;
#334 = ORIENTED_EDGE ( 'NONE', *, *, #583, .F. ) ;
#335 = APPROVAL_PERSON_ORGANIZATION ( #761, #75, #410 ) ;
#336 = AXIS2_PLACEMENT_3D ( 'NONE', #809, #394, #676 ) ;
#337 = ADVANCED_FACE ( 'NONE', ( #555 ), #836, .T. ) ;
#338 = CARTESIAN_POINT ( 'NONE',  ( 6003.381337748909573, 3550.002121672875091, -110.0000000000000000 ) ) ;
#339 = CARTESIAN_POINT ( 'NONE',  ( 5804.956054305610451, 3614.843616780939556, 6.140684493729760440 ) ) ;
#340 = CARTESIAN_POINT ( 'NONE',  ( 6008.796675622559633, 3567.168196230389640, -3.000000000000120348 ) ) ;
#341 = AXIS2_PLACEMENT_3D ( 'NONE', #377, #234, #654 ) ;
#342 = PERSON_AND_ORGANIZATION_ROLE ( 'design_supplier' ) ;
#343 = DIRECTION ( 'NONE',  ( -0.9536708087508337650, 0.3008521040919124312, 0.000000000000000000 ) ) ;
#344 = ADVANCED_FACE ( 'NONE', ( #698 ), #702, .F. ) ;
#345 = LINE ( 'NONE', #338, #671 ) ;
#346 = CALENDAR_DATE ( 2026, 8, 4 ) ;
#347 = CARTESIAN_POINT ( 'NONE',  ( 5808.818433821589679, 3627.109083897174969, -2.607230117984605133 ) ) ;
#348 = VERTEX_POINT ( 'NONE', #489 ) ;
#349 = ADVANCED_FACE ( 'NONE', ( #73 ), #48, .F. ) ;
#350 = CARTESIAN_POINT ( 'NONE',  ( 6141.405790318180152, 4129.483363415190070, 0.000000000000000000 ) ) ;
#351 = ORIENTED_EDGE ( 'NONE', *, *, #486, .F. ) ;
#352 = CARTESIAN_POINT ( 'NONE',  ( 5806.985800931429367, 3621.248221866575022, 12.85922294862792015 ) ) ;
#353 = ORIENTED_EDGE ( 'NONE', *, *, #296, .T. ) ;
#354 = DIRECTION ( 'NONE',  ( 0.000000000000000000, 4.037174635000570385E-15, 1.000000000000000000 ) ) ;
#355 = EDGE_CURVE ( 'NONE', #170, #261, #767, .T. ) ;
#356 = EDGE_LOOP ( 'NONE', ( #525, #603 ) ) ;
#357 = CARTESIAN_POINT ( 'NONE',  ( 5804.303536830079793, 3612.804689115275323, -3.000000000000075051 ) ) ;
#358 = VERTEX_POINT ( 'NONE', #833 ) ;
#359 = MANIFOLD_SOLID_BREP ( '输入1', #224 ) ;
#360 = DIRECTION ( 'NONE',  ( 1.000000000000000000, 0.000000000000000000, 0.000000000000000000 ) ) ;
#361 = CARTESIAN_POINT ( 'NONE',  ( 5809.718874703729853, 3629.970763672789872, -9.081277396738579081E-13 ) ) ;
#362 = EDGE_LOOP ( 'NONE', ( #844, #463 ) ) ;
#363 = CARTESIAN_POINT ( 'NONE',  ( 6357.690353486990716, 4201.569642278370338, 15.00000000000000000 ) ) ;
#364 = VECTOR ( 'NONE', #751, 1000.000000000000000 ) ;
#365 = CARTESIAN_POINT ( 'NONE',  ( 6008.796675622559633, 3567.168196230389640, -9.081277396738579081E-13 ) ) ;
#366 = EDGE_CURVE ( 'NONE', #768, #890, #730, .T. ) ;
#367 = AXIS2_PLACEMENT_3D ( 'NONE', #614, #877, #754 ) ;
#368 = CARTESIAN_POINT ( 'NONE',  ( 5809.281250604490197, 3628.524565679311763, -0.3786408349382510696 ) ) ;
#369 = ORIENTED_EDGE ( 'NONE', *, *, #123, .T. ) ;
#370 = CYLINDRICAL_SURFACE ( 'NONE', #619, 30.00000000000024869 ) ;
#371 = CARTESIAN_POINT ( 'NONE',  ( 6141.405790318180152, 4129.483363415190070, 0.000000000000000000 ) ) ;
#372 = FACE_OUTER_BOUND ( 'NONE', #92, .T. ) ;
#373 = EDGE_LOOP ( 'NONE', ( #160, #538, #185, #790 ) ) ;
#374 = DIRECTION ( 'NONE',  ( 0.000000000000000000, 0.000000000000000000, -1.000000000000000000 ) ) ;
#375 = AXIS2_PLACEMENT_3D ( 'NONE', #168, #288, #578 ) ;
#376 = CARTESIAN_POINT ( 'NONE',  ( 6013.469686177900257, 4201.569642278370338, 0.000000000000000000 ) ) ;
#377 = CARTESIAN_POINT ( 'NONE',  ( 6026.067744137100817, 3840.059521210640014, 0.000000000000000000 ) ) ;
#378 = VERTEX_POINT ( 'NONE', #494 ) ;
#379 = DIRECTION ( 'NONE',  ( -1.000000000000000000, 0.000000000000000000, 0.000000000000000000 ) ) ;
#380 = EDGE_CURVE ( 'NONE', #704, #834, #207, .T. ) ;
#381 = FACE_OUTER_BOUND ( 'NONE', #870, .T. ) ;
#382 = DIRECTION ( 'NONE',  ( 0.000000000000000000, 0.000000000000000000, -1.000000000000000000 ) ) ;
#383 = SHAPE_DEFINITION_REPRESENTATION ( #111, #115 ) ;
#384 = VERTEX_POINT ( 'NONE', #24 ) ;
#385 = VECTOR ( 'NONE', #354, 1000.000000000000000 ) ;
#386 = CARTESIAN_POINT ( 'NONE',  ( 6041.152785902670075, 3826.721043206979630, 0.000000000000000000 ) ) ;
#387 = EDGE_CURVE ( 'NONE', #426, #878, #96, .T. ) ;
#388 = LINE ( 'NONE', #670, #167 ) ;
#389 = LINE ( 'NONE', #528, #420 ) ;
#390 = ORIENTED_EDGE ( 'NONE', *, *, #192, .F. ) ;
#391 = APPLICATION_PROTOCOL_DEFINITION ( 'international standard', 'config_control_design', 1994, #263 ) ;
#392 = AXIS2_PLACEMENT_3D ( 'NONE', #644, #724, #159 ) ;
#393 = EDGE_CURVE ( 'NONE', #210, #358, #314, .T. ) ;
#394 = DIRECTION ( 'NONE',  ( 0.000000000000000000, 0.000000000000000000, -1.000000000000000000 ) ) ;
#395 = ORIENTED_EDGE ( 'NONE', *, *, #829, .F. ) ;
#396 = DIRECTION ( 'NONE',  ( 0.9536708087508336540, -0.3008521040919124312, 0.000000000000000000 ) ) ;
#397 = EDGE_CURVE ( 'NONE', #720, #25, #764, .T. ) ;
#398 = CARTESIAN_POINT ( 'NONE',  ( 6141.405790318180152, 4129.483363415190070, 15.00000000000000000 ) ) ;
#399 = EDGE_LOOP ( 'NONE', ( #330, #514, #460, #317 ) ) ;
#400 = DIRECTION ( 'NONE',  ( -8.074349270001140771E-15, 0.000000000000000000, -1.000000000000000000 ) ) ;
#401 = SECURITY_CLASSIFICATION ( '', '', #907 ) ;
#402 = CARTESIAN_POINT ( 'NONE',  ( 5947.012271745119506, 3902.760234493510325, 15.00000000000000000 ) ) ;
#403 = ORIENTED_EDGE ( 'NONE', *, *, #380, .F. ) ;
#404 = DIRECTION ( 'NONE',  ( 1.000000000000000000, 0.000000000000000000, 0.000000000000000000 ) ) ;
#405 = CARTESIAN_POINT ( 'NONE',  ( 5805.650663336770776, 3617.034399731041958, 8.894881510451227768 ) ) ;
#406 = VERTEX_POINT ( 'NONE', #310 ) ;
#407 = DATE_TIME_ROLE ( 'creation_date' ) ;
#408 = EDGE_CURVE ( 'NONE', #546, #213, #229, .T. ) ;
#409 = DIRECTION ( 'NONE',  ( 0.000000000000000000, 0.000000000000000000, -1.000000000000000000 ) ) ;
#410 = APPROVAL_ROLE ( '' ) ;
#411 = CARTESIAN_POINT ( 'NONE',  ( 5808.816318391460300, 3627.109751246534870, -3.000000000000115019 ) ) ;
#412 = VECTOR ( 'NONE', #201, 1000.000000000000000 ) ;
#413 = CARTESIAN_POINT ( 'NONE',  ( 5808.816318391460300, 3627.109751246534870, -110.0000000000000000 ) ) ;
#414 = DATE_AND_TIME ( #898, #556 ) ;
#415 = DIRECTION ( 'NONE',  ( -0.3008521040919289180, -0.9536708087508285470, 2.433431542689760787E-15 ) ) ;
#416 = ORIENTED_EDGE ( 'NONE', *, *, #744, .T. ) ;
#417 = CARTESIAN_POINT ( 'NONE',  ( 5809.744255289439934, 3629.962756923975121, 14.99999999999910116 ) ) ;
#418 = ORIENTED_EDGE ( 'NONE', *, *, #657, .F. ) ;
#419 = EDGE_CURVE ( 'NONE', #834, #78, #265, .T. ) ;
#420 = VECTOR ( 'NONE', #602, 1000.000000000000227 ) ;
#421 = CARTESIAN_POINT ( 'NONE',  ( 5809.515713217940174, 3629.253045061875127, -0.2256388305113284920 ) ) ;
#422 = DIRECTION ( 'NONE',  ( 0.9536708087508378728, -0.3008521040918989420, 0.000000000000000000 ) ) ;
#423 = DATE_AND_TIME ( #780, #56 ) ;
#424 = EDGE_CURVE ( 'NONE', #725, #720, #501, .T. ) ;
#425 = DIRECTION ( 'NONE',  ( 0.000000000000000000, 0.000000000000000000, -1.000000000000000000 ) ) ;
#426 = VERTEX_POINT ( 'NONE', #300 ) ;
#427 = CARTESIAN_POINT ( 'NONE',  ( 6007.894119310279166, 3564.307183804140095, -3.155443620884044711E-27 ) ) ;
#428 = VECTOR ( 'NONE', #658, 1000.000000000000000 ) ;
#429 = PLANE ( 'NONE',  #505 ) ;
#430 = APPLICATION_CONTEXT ( 'configuration controlled 3d designs of mechanical parts and assemblies' ) ;
#431 = CARTESIAN_POINT ( 'NONE',  ( 5804.258409014460085, 3612.661638493960254, -3.000000000000075051 ) ) ;
#432 = ORIENTED_EDGE ( 'NONE', *, *, #424, .T. ) ;
#433 = VECTOR ( 'NONE', #409, 1000.000000000000000 ) ;
#434 = CARTESIAN_POINT ( 'NONE',  ( 6141.405790318180152, 4129.483363415190070, 0.000000000000000000 ) ) ;
#435 = DIRECTION ( 'NONE',  ( 1.050419507188586022E-15, 3.329723832152979790E-15, 1.000000000000000000 ) ) ;
#436 = ORIENTED_EDGE ( 'NONE', *, *, #695, .T. ) ;
#437 = DIRECTION ( 'NONE',  ( -0.3008521040918508693, -0.9536708087508529719, -5.348730717596559643E-15 ) ) ;
#438 = ADVANCED_FACE ( 'NONE', ( #372 ), #804, .F. ) ;
#439 = DIRECTION ( 'NONE',  ( 1.000000000000000000, 0.000000000000000000, 0.000000000000000000 ) ) ;
#440 = CARTESIAN_POINT ( 'NONE',  ( 6357.690353486990716, 3450.166494749720187, 15.00000000000000000 ) ) ;
#441 = ORIENTED_EDGE ( 'NONE', *, *, #29, .T. ) ;
#442 = DIRECTION ( 'NONE',  ( 0.02491805614023844331, -0.9996894970330497676, 0.000000000000000000 ) ) ;
#443 = DIRECTION ( 'NONE',  ( 0.3008521040919079903, 0.9536708087508349863, 0.000000000000000000 ) ) ;
#444 = CARTESIAN_POINT ( 'NONE',  ( 6003.381337748909573, 3550.002121672875091, -110.0000000000000000 ) ) ;
#445 = EDGE_LOOP ( 'NONE', ( #610, #418, #436, #655 ) ) ;
#446 = CARTESIAN_POINT ( 'NONE',  ( 5947.012271745119506, 3902.760234493510325, 0.000000000000000000 ) ) ;
#447 = LINE ( 'NONE', #221, #279 ) ;
#448 = EDGE_CURVE ( 'NONE', #617, #170, #509, .T. ) ;
#449 = LINE ( 'NONE', #361, #624 ) ;
#450 = ORIENTED_EDGE ( 'NONE', *, *, #134, .T. ) ;
#451 = CARTESIAN_POINT ( 'NONE',  ( 6141.405790318180152, 3840.059521210640014, 0.000000000000000000 ) ) ;
#452 = VECTOR ( 'NONE', #164, 1000.000000000000000 ) ;
#453 = DIRECTION ( 'NONE',  ( 0.000000000000000000, 0.000000000000000000, 1.000000000000000000 ) ) ;
#454 = DIRECTION ( 'NONE',  ( 1.000000000000000000, 0.000000000000000000, 0.000000000000000000 ) ) ;
#455 = ORIENTED_EDGE ( 'NONE', *, *, #639, .T. ) ;
#456 = DIRECTION ( 'NONE',  ( 0.000000000000000000, 0.000000000000000000, -1.000000000000000000 ) ) ;
#457 = PLANE ( 'NONE',  #16 ) ;
#458 = LOCAL_TIME ( 11, 35, 43.00000000000000000, #59 ) ;
#459 = CARTESIAN_POINT ( 'NONE',  ( 5808.335922478597240, 3625.513227479619673, 14.42429967634431875 ) ) ;
#460 = ORIENTED_EDGE ( 'NONE', *, *, #583, .T. ) ;
#461 = AXIS2_PLACEMENT_3D ( 'NONE', #41, #47, #173 ) ;
#462 = CARTESIAN_POINT ( 'NONE',  ( 5941.405790318180152, 4127.687113471534758, 15.00000000000000000 ) ) ;
#463 = ORIENTED_EDGE ( 'NONE', *, *, #366, .T. ) ;
#464 = CARTESIAN_POINT ( 'NONE',  ( 6612.864022107190067, 3373.458867489274780, 0.000000000000000000 ) ) ;
#465 = VECTOR ( 'NONE', #482, 1000.000000000000341 ) ;
#466 = AXIS2_PLACEMENT_3D ( 'NONE', #303, #453, #732 ) ;
#467 = ADVANCED_FACE ( 'NONE', ( #798 ), #860, .T. ) ;
#468 = CARTESIAN_POINT ( 'NONE',  ( 6008.796675622559633, 3567.168196230389640, -9.081277396738579081E-13 ) ) ;
#469 = ORIENTED_EDGE ( 'NONE', *, *, #448, .T. ) ;
#470 = DIRECTION ( 'NONE',  ( 1.000000000000000000, 0.000000000000000000, 0.000000000000000000 ) ) ;
#471 = LINE ( 'NONE', #193, #289 ) ;
#472 = EDGE_LOOP ( 'NONE', ( #569, #826, #810, #541 ) ) ;
#473 = DIRECTION ( 'NONE',  ( 1.000000000000000000, 0.000000000000000000, 0.000000000000000000 ) ) ;
#474 = AXIS2_PLACEMENT_3D ( 'NONE', #678, #396, #535 ) ;
#475 = CARTESIAN_POINT ( 'NONE',  ( 5804.340559622713954, 3612.914675911351424, -0.6438346405841101072 ) ) ;
#476 = ORIENTED_EDGE ( 'NONE', *, *, #829, .T. ) ;
#477 = ADVANCED_FACE ( 'NONE', ( #19 ), #518, .T. ) ;
#478 = VECTOR ( 'NONE', #559, 1000.000000000000114 ) ;
#479 = ORIENTED_EDGE ( 'NONE', *, *, #601, .F. ) ;
#480 = DATE_TIME_ROLE ( 'classification_date' ) ;
#481 = DIRECTION ( 'NONE',  ( -1.000000000000000000, 0.000000000000000000, 0.000000000000000000 ) ) ;
#482 = DIRECTION ( 'NONE',  ( -0.3008521040919066025, -0.9536708087508354303, 2.503722994132715513E-15 ) ) ;
#483 = CARTESIAN_POINT ( 'NONE',  ( 5804.305652260230090, 3612.804021765905418, -0.6433806947335820592 ) ) ;
#484 = DIRECTION ( 'NONE',  ( 0.000000000000000000, 0.000000000000000000, -1.000000000000000000 ) ) ;
#485 = CC_DESIGN_SECURITY_CLASSIFICATION ( #401, ( #104 ) ) ;
#486 = EDGE_CURVE ( 'NONE', #348, #406, #148, .T. ) ;
#487 = CARTESIAN_POINT ( 'NONE',  ( 5809.388764730023468, 3628.839573585991275, 14.99999999999884892 ) ) ;
#488 = VERTEX_POINT ( 'NONE', #82 ) ;
#489 = CARTESIAN_POINT ( 'NONE',  ( 5804.303536830079793, 3612.804689115275323, -3.000000000000075051 ) ) ;
#490 = ORIENTED_EDGE ( 'NONE', *, *, #22, .T. ) ;
#491 = EDGE_CURVE ( 'NONE', #25, #529, #449, .T. ) ;
#492 = CARTESIAN_POINT ( 'NONE',  ( 6071.152785902670985, 3826.721043206979630, 0.000000000000000000 ) ) ;
#493 = AXIS2_PLACEMENT_3D ( 'NONE', #77, #343, #415 ) ;
#494 = CARTESIAN_POINT ( 'NONE',  ( 6141.405790318180152, 4129.483363415190070, 0.000000000000000000 ) ) ;
#495 = VERTEX_POINT ( 'NONE', #869 ) ;
#496 = VERTEX_POINT ( 'NONE', #169 ) ;
#497 = COORDINATED_UNIVERSAL_TIME_OFFSET ( 8, 0, .AHEAD. ) ;
#498 = CARTESIAN_POINT ( 'NONE',  ( 5808.864012915360036, 3627.253565024700492, -2.627064997159440196 ) ) ;
#499 = AXIS2_PLACEMENT_3D ( 'NONE', #638, #484, #292 ) ;
#500 = CARTESIAN_POINT ( 'NONE',  ( 6071.324311648510047, 4101.721043206979630, 0.000000000000000000 ) ) ;
#501 = LINE ( 'NONE', #7, #830 ) ;
#502 = ORIENTED_EDGE ( 'NONE', *, *, #884, .F. ) ;
#503 = EDGE_CURVE ( 'NONE', #125, #320, #31, .T. ) ;
#504 = FACE_OUTER_BOUND ( 'NONE', #734, .T. ) ;
#505 = AXIS2_PLACEMENT_3D ( 'NONE', #283, #709, #422 ) ;
#506 = DIRECTION ( 'NONE',  ( 0.3008521040919529543, 0.9536708087508207754, 0.000000000000000000 ) ) ;
#507 = CARTESIAN_POINT ( 'NONE',  ( 6041.324311648510047, 4101.721043206979630, 0.000000000000000000 ) ) ;
#508 = ORIENTED_EDGE ( 'NONE', *, *, #512, .T. ) ;
#509 = CIRCLE ( 'NONE', #328, 576.6902309054255511 ) ;
#510 = DIRECTION ( 'NONE',  ( 0.000000000000000000, 0.000000000000000000, -1.000000000000000000 ) ) ;
#511 = DIRECTION ( 'NONE',  ( -0.9536708087508354303, 0.3008521040919066025, 0.000000000000000000 ) ) ;
#512 = EDGE_CURVE ( 'NONE', #496, #704, #858, .T. ) ;
#513 = CARTESIAN_POINT ( 'NONE',  ( 5808.818433440264926, 3627.109084017470195, -2.607300918301544979 ) ) ;
#514 = ORIENTED_EDGE ( 'NONE', *, *, #736, .F. ) ;
#515 = LINE ( 'NONE', #520, #852 ) ;
#516 = EDGE_CURVE ( 'NONE', #78, #834, #51, .T. ) ;
#517 = DIRECTION ( 'NONE',  ( -0.9536708087508337650, 0.3008521040919124312, 0.000000000000000000 ) ) ;
#518 = CYLINDRICAL_SURFACE ( 'NONE', #112, 72.08627886317754019 ) ;
#519 = ORIENTED_EDGE ( 'NONE', *, *, #626, .F. ) ;
#520 = CARTESIAN_POINT ( 'NONE',  ( 6003.381337748909573, 3550.002121672875091, 5.237222008264379440E-14 ) ) ;
#521 = PERSON ( '未指定', '未指定', '未指定', ('未指定'), ('未指定'), ('未指定') ) ;
#522 = PLANE ( 'NONE',  #66 ) ;
#523 = CC_DESIGN_PERSON_AND_ORGANIZATION_ASSIGNMENT ( #668, #34, ( #259 ) ) ;
#524 = CARTESIAN_POINT ( 'NONE',  ( 5804.303536830079793, 3612.804689115275323, -110.0000000000000000 ) ) ;
#525 = ORIENTED_EDGE ( 'NONE', *, *, #419, .F. ) ;
#526 = LINE ( 'NONE', #806, #881 ) ;
#527 = DIRECTION ( 'NONE',  ( -0.9536708087508354303, 0.3008521040919066025, 0.000000000000000000 ) ) ;
#528 = CARTESIAN_POINT ( 'NONE',  ( 6003.381337748909573, 3550.002121672875091, -110.0000000000000000 ) ) ;
#529 = VERTEX_POINT ( 'NONE', #468 ) ;
#530 = CARTESIAN_POINT ( 'NONE',  ( 6357.690353486990716, 3450.166494749720187, 15.00000000000000000 ) ) ;
#531 = ORGANIZATION ( '未指定', '未指定', '' ) ;
#532 = LINE ( 'NONE', #117, #549 ) ;
#533 = ORIENTED_EDGE ( 'NONE', *, *, #723, .F. ) ;
#534 = AXIS2_PLACEMENT_3D ( 'NONE', #151, #871, #156 ) ;
#535 = DIRECTION ( 'NONE',  ( 0.3008521040919123757, 0.9536708087508335430, 0.000000000000000000 ) ) ;
#536 = EDGE_CURVE ( 'NONE', #25, #170, #740, .T. ) ;
#537 = CARTESIAN_POINT ( 'NONE',  ( 5805.027733572820580, 3615.070832824314948, 6.020712134716442954 ) ) ;
#538 = ORIENTED_EDGE ( 'NONE', *, *, #393, .F. ) ;
#539 = CARTESIAN_POINT ( 'NONE',  ( 0.000000000000000000, 0.000000000000000000, 0.000000000000000000 ) ) ;
#540 = CARTESIAN_POINT ( 'NONE',  ( 6011.135944842019853, 3574.294581845765151, -9.081277396738579081E-13 ) ) ;
#541 = ORIENTED_EDGE ( 'NONE', *, *, #145, .F. ) ;
#542 = CARTESIAN_POINT ( 'NONE',  ( 6357.690353486990716, 3450.166494749720187, 0.000000000000000000 ) ) ;
#543 = ADVANCED_FACE ( 'NONE', ( #325 ), #609, .F. ) ;
#544 = DIRECTION ( 'NONE',  ( -4.247178452247970067E-14, -1.346312707930076013E-13, 1.000000000000000000 ) ) ;
#545 = ORIENTED_EDGE ( 'NONE', *, *, #781, .F. ) ;
#546 = VERTEX_POINT ( 'NONE', #462 ) ;
#547 = PERSON_AND_ORGANIZATION ( #521, #531 ) ;
#548 = CIRCLE ( 'NONE', #623, 72.08627886317754019 ) ;
#549 = VECTOR ( 'NONE', #188, 1000.000000000000341 ) ;
#550 = CARTESIAN_POINT ( 'NONE',  ( 6071.152785902670985, 3826.721043206979630, 128.1370849898482049 ) ) ;
#551 = CARTESIAN_POINT ( 'NONE',  ( 5809.718874703729853, 3629.970763672785324, 14.99999999999910116 ) ) ;
#552 = ORIENTED_EDGE ( 'NONE', *, *, #626, .T. ) ;
#553 = ADVANCED_FACE ( 'NONE', ( #316 ), #885, .T. ) ;
#554 = CARTESIAN_POINT ( 'NONE',  ( 5809.744255289439934, 3629.962756923975121, -9.083445801083560187E-13 ) ) ;
#555 = FACE_OUTER_BOUND ( 'NONE', #445, .T. ) ;
#556 = LOCAL_TIME ( 11, 35, 43.00000000000000000, #497 ) ;
#557 = PRODUCT_DEFINITION ( '未知', '', #104, #605 ) ;
#558 = DIRECTION ( 'NONE',  ( 0.9536708087508350973, -0.3008521040919075462, 0.000000000000000000 ) ) ;
#559 = DIRECTION ( 'NONE',  ( 0.9536708087508336540, -0.3008521040919124312, -0.000000000000000000 ) ) ;
#560 = ORIENTED_EDGE ( 'NONE', *, *, #145, .T. ) ;
#561 = DIRECTION ( 'NONE',  ( 1.000000000000000000, 0.000000000000000000, 0.000000000000000000 ) ) ;
#562 = AXIS2_PLACEMENT_3D ( 'NONE', #872, #718, #85 ) ;
#563 = EDGE_CURVE ( 'NONE', #546, #883, #607, .T. ) ;
#564 = CARTESIAN_POINT ( 'NONE',  ( 5808.322571960299683, 3625.470907683924906, 14.53150818002809963 ) ) ;
#565 = EDGE_LOOP ( 'NONE', ( #904, #680, #121, #403 ) ) ;
#566 = DIRECTION ( 'NONE',  ( -1.000000000000000000, 0.000000000000000000, 0.000000000000000000 ) ) ;
#567 = EDGE_CURVE ( 'NONE', #720, #348, #532, .T. ) ;
#568 = CARTESIAN_POINT ( 'NONE',  ( 5809.503782986570513, 3629.215227432414849, -0.07808196999608420230 ) ) ;
#569 = ORIENTED_EDGE ( 'NONE', *, *, #366, .F. ) ;
#570 = DIRECTION ( 'NONE',  ( -1.000000000000000000, 0.000000000000000000, 0.000000000000000000 ) ) ;
#571 = LOCAL_TIME ( 11, 35, 43.00000000000000000, #275 ) ;
#572 = AXIS2_PLACEMENT_3D ( 'NONE', #240, #716, #866 ) ;
#573 = CARTESIAN_POINT ( 'NONE',  ( 6612.864022107190067, 3373.458867489274780, 15.00000000000000000 ) ) ;
#574 = CARTESIAN_POINT ( 'NONE',  ( 6041.324311648510047, 4101.721043206979630, 15.00000000000000000 ) ) ;
#575 = ORIENTED_EDGE ( 'NONE', *, *, #893, .F. ) ;
#576 = DIRECTION ( 'NONE',  ( 0.000000000000000000, 0.000000000000000000, -1.000000000000000000 ) ) ;
#577 = AXIS2_PLACEMENT_3D ( 'NONE', #61, #139, #566 ) ;
#578 = DIRECTION ( 'NONE',  ( -0.3008521040919079903, -0.9536708087508349863, 0.000000000000000000 ) ) ;
#579 = CARTESIAN_POINT ( 'NONE',  ( 5808.844039614037683, 3627.182881283876668, -2.214756346922584385 ) ) ;
#580 = VERTEX_POINT ( 'NONE', #540 ) ;
#581 = AXIS2_PLACEMENT_3D ( 'NONE', #199, #276, #841 ) ;
#582 = DIRECTION ( 'NONE',  ( 0.000000000000000000, 4.037174635000570385E-15, 1.000000000000000000 ) ) ;
#583 = EDGE_CURVE ( 'NONE', #615, #320, #389, .T. ) ;
#584 = DIRECTION ( 'NONE',  ( 1.000000000000000000, 0.000000000000000000, 0.000000000000000000 ) ) ;
#585 = CARTESIAN_POINT ( 'NONE',  ( 5809.744255289439934, 3629.962756923975121, -9.083445801083560187E-13 ) ) ;
#586 = VERTEX_POINT ( 'NONE', #398 ) ;
#587 = DIRECTION ( 'NONE',  ( 0.3008521040919529543, 0.9536708087508207754, 0.000000000000000000 ) ) ;
#588 = CC_DESIGN_PERSON_AND_ORGANIZATION_ASSIGNMENT ( #72, #630, ( #104 ) ) ;
#589 = AXIS2_PLACEMENT_3D ( 'NONE', #386, #374, #4 ) ;
#590 = DIRECTION ( 'NONE',  ( 0.3008521040919066025, 0.9536708087508354303, -2.429184967052791257E-15 ) ) ;
#591 = DIRECTION ( 'NONE',  ( 1.000000000000000000, 0.000000000000000000, 0.000000000000000000 ) ) ;
#592 = ORIENTED_EDGE ( 'NONE', *, *, #157, .F. ) ;
#593 = CARTESIAN_POINT ( 'NONE',  ( 6041.324311648510047, 4101.721043206979630, 128.1370849898482049 ) ) ;
#594 = PLANE ( 'NONE',  #562 ) ;
#595 = CARTESIAN_POINT ( 'NONE',  ( 6013.469686177900257, 4201.569642278370338, 0.000000000000000000 ) ) ;
#596 = ORIENTED_EDGE ( 'NONE', *, *, #682, .F. ) ;
#597 = PLANE ( 'NONE',  #474 ) ;
#598 = VECTOR ( 'NONE', #544, 1000.000000000000000 ) ;
#599 = AXIS2_PLACEMENT_3D ( 'NONE', #293, #868, #360 ) ;
#600 = DIRECTION ( 'NONE',  ( 0.3008521040919066025, 0.9536708087508354303, -2.429184967052791257E-15 ) ) ;
#601 = EDGE_CURVE ( 'NONE', #861, #580, #249, .T. ) ;
#602 = DIRECTION ( 'NONE',  ( 0.3008521040919079348, 0.9536708087508349863, -3.491481338843135327E-15 ) ) ;
#603 = ORIENTED_EDGE ( 'NONE', *, *, #516, .F. ) ;
#604 = CYLINDRICAL_SURFACE ( 'NONE', #323, 72.08627886317842126 ) ;
#605 = DESIGN_CONTEXT ( 'detailed design', #430, 'design' ) ;
#606 = APPROVAL_PERSON_ORGANIZATION ( #196, #910, #690 ) ;
#607 = LINE ( 'NONE', #402, #817 ) ;
#608 = EDGE_LOOP ( 'NONE', ( #865, #900, #689, #351 ) ) ;
#609 = CYLINDRICAL_SURFACE ( 'NONE', #713, 634.3592539959672649 ) ;
#610 = ORIENTED_EDGE ( 'NONE', *, *, #355, .F. ) ;
#611 = CARTESIAN_POINT ( 'NONE',  ( 5947.012271745119506, 3902.760234493510325, 15.00000000000000000 ) ) ;
#612 = ADVANCED_FACE ( 'NONE', ( #124 ), #672, .F. ) ;
#613 = CIRCLE ( 'NONE', #599, 72.08627886317754019 ) ;
#614 = CARTESIAN_POINT ( 'NONE',  ( 6357.690353486990716, 3450.166494749720187, 0.000000000000000000 ) ) ;
#615 = VERTEX_POINT ( 'NONE', #823 ) ;
#616 = EDGE_CURVE ( 'NONE', #529, #261, #471, .T. ) ;
#617 = VERTEX_POINT ( 'NONE', #679 ) ;
#618 = VECTOR ( 'NONE', #400, 1000.000000000000000 ) ;
#619 = AXIS2_PLACEMENT_3D ( 'NONE', #593, #510, #786 ) ;
#620 = LINE ( 'NONE', #550, #150 ) ;
#621 = CALENDAR_DATE ( 2026, 8, 4 ) ;
#622 = CARTESIAN_POINT ( 'NONE',  ( 5808.938693478579808, 3627.468181041545449, -1.489143058887999915 ) ) ;
#623 = AXIS2_PLACEMENT_3D ( 'NONE', #634, #1, #561 ) ;
#624 = VECTOR ( 'NONE', #728, 1000.000000000000114 ) ;
#625 = DIRECTION ( 'NONE',  ( 0.000000000000000000, 0.000000000000000000, 1.000000000000000000 ) ) ;
#626 = EDGE_CURVE ( 'NONE', #706, #677, #306, .T. ) ;
#627 = CARTESIAN_POINT ( 'NONE',  ( 5805.362896592019752, 3616.125894051020168, 8.154022967542958966 ) ) ;
#628 = ORIENTED_EDGE ( 'NONE', *, *, #649, .T. ) ;
#629 = LINE ( 'NONE', #691, #685 ) ;
#630 = PERSON_AND_ORGANIZATION_ROLE ( 'creator' ) ;
#631 = CARTESIAN_POINT ( 'NONE',  ( 5809.629941579009937, 3629.607767047569723, -0.1515000000009864844 ) ) ;
#632 = ORIENTED_EDGE ( 'NONE', *, *, #814, .T. ) ;
#633 = CARTESIAN_POINT ( 'NONE',  ( 5919.373424222510948, 3824.932944611365201, 0.000000000000000000 ) ) ;
#634 = CARTESIAN_POINT ( 'NONE',  ( 6013.469686177900257, 4129.483363415190070, 15.00000000000000000 ) ) ;
#635 = PERSON_AND_ORGANIZATION_ROLE ( 'creator' ) ;
#636 = CARTESIAN_POINT ( 'NONE',  ( 5808.310759850040085, 3625.433464486444791, 14.67760408152831886 ) ) ;
#637 = ORIENTED_EDGE ( 'NONE', *, *, #192, .T. ) ;
#638 = CARTESIAN_POINT ( 'NONE',  ( 6041.152785902670075, 3826.721043206979630, 0.000000000000000000 ) ) ;
#639 = EDGE_CURVE ( 'NONE', #258, #295, #873, .T. ) ;
#640 = CYLINDRICAL_SURFACE ( 'NONE', #577, 30.00000000000024869 ) ;
#641 = CARTESIAN_POINT ( 'NONE',  ( 5809.281250604489287, 3628.524565679309489, -0.3786408349382514582 ) ) ;
#642 = ORIENTED_EDGE ( 'NONE', *, *, #267, .F. ) ;
#643 = CARTESIAN_POINT ( 'NONE',  ( 6011.053066403250341, 3574.320727296019413, 15.00000000000000000 ) ) ;
#644 = CARTESIAN_POINT ( 'NONE',  ( 6041.324311648510047, 4101.721043206979630, 0.000000000000000000 ) ) ;
#645 = EDGE_LOOP ( 'NONE', ( #820, #913, #353, #795 ) ) ;
#646 = DIRECTION ( 'NONE',  ( 0.000000000000000000, 0.000000000000000000, -1.000000000000000000 ) ) ;
#647 = AXIS2_PLACEMENT_3D ( 'NONE', #446, #800, #662 ) ;
#648 = CARTESIAN_POINT ( 'NONE',  ( 5941.405790318180152, 4127.687113471534758, 0.000000000000000000 ) ) ;
#649 = EDGE_CURVE ( 'NONE', #677, #25, #260, .T. ) ;
#650 = DIRECTION ( 'NONE',  ( 0.000000000000000000, 0.000000000000000000, 1.000000000000000000 ) ) ;
#651 = ORIENTED_EDGE ( 'NONE', *, *, #90, .F. ) ;
#652 = LINE ( 'NONE', #14, #248 ) ;
#653 = CARTESIAN_POINT ( 'NONE',  ( 5809.718874703729853, 3629.970763672789872, -3.000000000000120348 ) ) ;
#654 = DIRECTION ( 'NONE',  ( 1.000000000000000000, 0.000000000000000000, 0.000000000000000000 ) ) ;
#655 = ORIENTED_EDGE ( 'NONE', *, *, #134, .F. ) ;
#656 = AXIS2_PLACEMENT_3D ( 'NONE', #573, #299, #797 ) ;
#657 = EDGE_CURVE ( 'NONE', #348, #170, #18, .T. ) ;
#658 = DIRECTION ( 'NONE',  ( -1.000000000000000000, -0.000000000000000000, -0.000000000000000000 ) ) ;
#659 = CYLINDRICAL_SURFACE ( 'NONE', #773, 2.999999999999212186 ) ;
#660 = DIRECTION ( 'NONE',  ( 1.000000000000000000, 0.000000000000000000, 0.000000000000000000 ) ) ;
#661 = ORIENTED_EDGE ( 'NONE', *, *, #563, .T. ) ;
#662 = DIRECTION ( 'NONE',  ( 0.02491805614023844678, -0.9996894970330497676, 0.000000000000000000 ) ) ;
#663 = CC_DESIGN_APPROVAL ( #327, ( #557 ) ) ;
#664 = FACE_BOUND ( 'NONE', #76, .T. ) ;
#665 = DIRECTION ( 'NONE',  ( 0.000000000000000000, 0.000000000000000000, 1.000000000000000000 ) ) ;
#666 = DATE_AND_TIME ( #621, #458 ) ;
#667 = ORIENTED_EDGE ( 'NONE', *, *, #397, .T. ) ;
#668 = PERSON_AND_ORGANIZATION ( #521, #531 ) ;
#669 = EDGE_CURVE ( 'NONE', #586, #378, #146, .T. ) ;
#670 = CARTESIAN_POINT ( 'NONE',  ( 6069.319511455009888, 4201.569642278370338, 0.000000000000000000 ) ) ;
#671 = VECTOR ( 'NONE', #558, 1000.000000000000114 ) ;
#672 = CYLINDRICAL_SURFACE ( 'NONE', #336, 115.3380461810842235 ) ;
#673 = ORIENTED_EDGE ( 'NONE', *, *, #242, .F. ) ;
#674 = APPLICATION_PROTOCOL_DEFINITION ( 'international standard', 'config_control_design', 1994, #430 ) ;
#675 = CIRCLE ( 'NONE', #466, 72.08627886317842126 ) ;
#676 = DIRECTION ( 'NONE',  ( -1.000000000000000000, 0.000000000000000000, 0.000000000000000000 ) ) ;
#677 = VERTEX_POINT ( 'NONE', #633 ) ;
#678 = CARTESIAN_POINT ( 'NONE',  ( 6008.796675622559633, 3567.168196230389640, -3.000000000000120348 ) ) ;
#679 = CARTESIAN_POINT ( 'NONE',  ( 5919.373424222510948, 3824.932944611365201, 15.00000000000000000 ) ) ;
#680 = ORIENTED_EDGE ( 'NONE', *, *, #80, .T. ) ;
#681 = CARTESIAN_POINT ( 'NONE',  ( 6013.469686177900257, 4201.569642278370338, 0.000000000000000000 ) ) ;
#682 = EDGE_CURVE ( 'NONE', #320, #725, #712, .T. ) ;
#683 = CARTESIAN_POINT ( 'NONE',  ( 6612.864022107190067, 3373.458867489274780, 0.000000000000000000 ) ) ;
#684 = ORIENTED_EDGE ( 'NONE', *, *, #717, .T. ) ;
#685 = VECTOR ( 'NONE', #839, 1000.000000000000227 ) ;
#686 = CARTESIAN_POINT ( 'NONE',  ( 5808.816318391460300, 3627.109751246534870, -110.0000000000000000 ) ) ;
#687 = EDGE_CURVE ( 'NONE', #495, #54, #894, .T. ) ;
#688 = CARTESIAN_POINT ( 'NONE',  ( 5807.021894868069467, 3621.362636003222633, 12.62096878242158127 ) ) ;
#689 = ORIENTED_EDGE ( 'NONE', *, *, #62, .F. ) ;
#690 = APPROVAL_ROLE ( '' ) ;
#691 = CARTESIAN_POINT ( 'NONE',  ( 5804.303536830079793, 3612.804689115275323, -110.0000000000000000 ) ) ;
#692 = APPROVAL_PERSON_ORGANIZATION ( #39, #327, #180 ) ;
#693 = VECTOR ( 'NONE', #84, 1000.000000000000000 ) ;
#694 = CARTESIAN_POINT ( 'NONE',  ( 5808.978519870310265, 3627.594426684150221, -1.565441334414179986 ) ) ;
#695 = EDGE_CURVE ( 'NONE', #348, #488, #857, .T. ) ;
#696 = CARTESIAN_POINT ( 'NONE',  ( 5919.373424222510948, 3824.932944611365201, 0.000000000000000000 ) ) ;
#697 = PERSON_AND_ORGANIZATION ( #521, #531 ) ;
#698 = FACE_OUTER_BOUND ( 'NONE', #13, .T. ) ;
#699 = AXIS2_PLACEMENT_3D ( 'NONE', #340, #270, #769 ) ;
#700 = AXIS2_PLACEMENT_3D ( 'NONE', #281, #425, #481 ) ;
#701 = LINE ( 'NONE', #67, #15 ) ;
#702 = CYLINDRICAL_SURFACE ( 'NONE', #700, 30.00000000000024869 ) ;
#703 = ORIENTED_EDGE ( 'NONE', *, *, #649, .F. ) ;
#704 = VERTEX_POINT ( 'NONE', #791 ) ;
#705 = DIRECTION ( 'NONE',  ( 0.000000000000000000, 0.000000000000000000, -1.000000000000000000 ) ) ;
#706 = VERTEX_POINT ( 'NONE', #26 ) ;
#707 = ADVANCED_FACE ( 'NONE', ( #307 ), #370, .F. ) ;
#708 = AXIS2_PLACEMENT_3D ( 'NONE', #103, #796, #437 ) ;
#709 = DIRECTION ( 'NONE',  ( -0.3008521040918989420, -0.9536708087508378728, 0.000000000000000000 ) ) ;
#710 = CARTESIAN_POINT ( 'NONE',  ( 5806.377968766520098, 3619.328826965029748, 11.51395318952496005 ) ) ;
#711 = ORIENTED_EDGE ( 'NONE', *, *, #503, .F. ) ;
#712 = LINE ( 'NONE', #427, #385 ) ;
#713 = AXIS2_PLACEMENT_3D ( 'NONE', #683, #113, #120 ) ;
#714 = DIRECTION ( 'NONE',  ( 0.000000000000000000, 1.000000000000000000, 0.000000000000000000 ) ) ;
#715 = CARTESIAN_POINT ( 'NONE',  ( 6007.894119310279166, 3564.307183804140095, -110.0000000000000000 ) ) ;
#716 = DIRECTION ( 'NONE',  ( -0.000000000000000000, -0.000000000000000000, -1.000000000000000000 ) ) ;
#717 = EDGE_CURVE ( 'NONE', #704, #496, #738, .T. ) ;
#718 = DIRECTION ( 'NONE',  ( 0.000000000000000000, 0.000000000000000000, 1.000000000000000000 ) ) ;
#719 = DIRECTION ( 'NONE',  ( -1.000000000000000000, 0.000000000000000000, 0.000000000000000000 ) ) ;
#720 = VERTEX_POINT ( 'NONE', #225 ) ;
#721 = CARTESIAN_POINT ( 'NONE',  ( 6007.894119310279166, 3564.307183804140095, -3.000000000000115019 ) ) ;
#722 = DIRECTION ( 'NONE',  ( 0.000000000000000000, 0.000000000000000000, 1.000000000000000000 ) ) ;
#723 = EDGE_CURVE ( 'NONE', #890, #768, #130, .T. ) ;
#724 = DIRECTION ( 'NONE',  ( 0.000000000000000000, 0.000000000000000000, -1.000000000000000000 ) ) ;
#725 = VERTEX_POINT ( 'NONE', #721 ) ;
#726 = CARTESIAN_POINT ( 'NONE',  ( 6011.053066403250341, 3574.320727296019413, -9.081277396738579081E-13 ) ) ;
#727 = DIRECTION ( 'NONE',  ( 0.000000000000000000, 0.000000000000000000, -1.000000000000000000 ) ) ;
#728 = DIRECTION ( 'NONE',  ( 0.9536708087508336540, -0.3008521040919124312, -0.000000000000000000 ) ) ;
#729 = ORIENTED_EDGE ( 'NONE', *, *, #387, .T. ) ;
#730 = CIRCLE ( 'NONE', #581, 30.00000000000024869 ) ;
#731 = CARTESIAN_POINT ( 'NONE',  ( 1561.922828014309971, 4951.137739571060592, -3.000000000000075051 ) ) ;
#732 = DIRECTION ( 'NONE',  ( 1.000000000000000000, 0.000000000000000000, 0.000000000000000000 ) ) ;
#733 = CARTESIAN_POINT ( 'NONE',  ( 5808.938693478579808, 3627.468181041547723, -1.489143058888000359 ) ) ;
#734 = EDGE_LOOP ( 'NONE', ( #469, #208, #282, #455, #70, #20, #200, #849, #632, #441, #661, #476 ) ) ;
#735 = DIRECTION ( 'NONE',  ( 0.000000000000000000, 0.000000000000000000, 1.000000000000000000 ) ) ;
#736 = EDGE_CURVE ( 'NONE', #615, #488, #515, .T. ) ;
#737 = LOCAL_TIME ( 11, 35, 43.00000000000000000, #776 ) ;
#738 = CIRCLE ( 'NONE', #534, 30.00000000000024869 ) ;
#739 = CARTESIAN_POINT ( 'NONE',  ( 1561.922828014309971, 4951.137739571060592, -1.259557600059860174E-11 ) ) ;
#740 = LINE ( 'NONE', #743, #598 ) ;
#741 = ORIENTED_EDGE ( 'NONE', *, *, #879, .T. ) ;
#742 = CIRCLE ( 'NONE', #313, 115.3380461810833424 ) ;
#743 = CARTESIAN_POINT ( 'NONE',  ( 5809.744255289439934, 3629.962756923975121, -9.081277396738579081E-13 ) ) ;
#744 = EDGE_CURVE ( 'NONE', #529, #725, #822, .T. ) ;
#745 = ORIENTED_EDGE ( 'NONE', *, *, #176, .F. ) ;
#746 = CARTESIAN_POINT ( 'NONE',  ( 6011.152785902670075, 3826.721043206979630, 15.00000000000000000 ) ) ;
#747 = VECTOR ( 'NONE', #290, 1000.000000000000114 ) ;
#748 = ADVANCED_FACE ( 'NONE', ( #88 ), #302, .T. ) ;
#749 = CARTESIAN_POINT ( 'NONE',  ( 6013.469686177900257, 4201.569642278370338, 0.000000000000000000 ) ) ;
#750 = ORIENTED_EDGE ( 'NONE', *, *, #536, .F. ) ;
#751 = DIRECTION ( 'NONE',  ( 0.000000000000000000, 0.000000000000000000, -1.000000000000000000 ) ) ;
#752 = EDGE_CURVE ( 'NONE', #213, #706, #526, .T. ) ;
#753 = ADVANCED_FACE ( 'NONE', ( #171 ), #161, .F. ) ;
#754 = DIRECTION ( 'NONE',  ( 1.000000000000000000, 0.000000000000000000, 0.000000000000000000 ) ) ;
#755 = ORIENTED_EDGE ( 'NONE', *, *, #267, .T. ) ;
#756 = CARTESIAN_POINT ( 'NONE',  ( 5947.012271745119506, 3902.760234493510325, 0.000000000000000000 ) ) ;
#757 = CARTESIAN_POINT ( 'NONE',  ( 5804.585406852270353, 3613.679759339161592, 2.799881850518239901 ) ) ;
#758 = ORIENTED_EDGE ( 'NONE', *, *, #752, .T. ) ;
#759 = DIRECTION ( 'NONE',  ( 0.000000000000000000, 0.000000000000000000, 1.000000000000000000 ) ) ;
#760 = ORIENTED_EDGE ( 'NONE', *, *, #803, .F. ) ;
#761 = PERSON_AND_ORGANIZATION ( #521, #531 ) ;
#762 = CARTESIAN_POINT ( 'NONE',  ( 5804.448713677490559, 3613.250141629985137, 1.711461918465860155 ) ) ;
#763 = EDGE_CURVE ( 'NONE', #358, #274, #166, .T. ) ;
#764 = B_SPLINE_CURVE_WITH_KNOTS ( 'NONE', 3,
 ( #217, #513, #579, #733, #86, #154, #368, #12, #101, #585 ),
 .UNSPECIFIED., .F., .F.,
 ( 4, 2, 2, 2, 4 ),
 ( 0.000000000000000000, 0.2499999999999998890, 0.4999999999999998890, 0.7499999999999998890, 1.000000000000000000 ),
 .UNSPECIFIED. ) ;
#765 = LINE ( 'NONE', #696, #63 ) ;
#766 = VECTOR ( 'NONE', #587, 1000.000000000000000 ) ;
#767 = LINE ( 'NONE', #551, #478 ) ;
#768 = VERTEX_POINT ( 'NONE', #231 ) ;
#769 = DIRECTION ( 'NONE',  ( -0.3008521040919289180, -0.9536708087508285470, -7.107547575182964983E-15 ) ) ;
#770 = APPROVAL_STATUS ( 'not_yet_approved' ) ;
#771 = CARTESIAN_POINT ( 'NONE',  ( 5809.044153681449643, 3627.795107521520094, -1.249463668152262175 ) ) ;
#772 = ORIENTED_EDGE ( 'NONE', *, *, #563, .F. ) ;
#773 = AXIS2_PLACEMENT_3D ( 'NONE', #653, #517, #784 ) ;
#774 = ORIENTED_EDGE ( 'NONE', *, *, #251, .T. ) ;
#775 = EDGE_CURVE ( 'NONE', #210, #384, #652, .T. ) ;
#776 = COORDINATED_UNIVERSAL_TIME_OFFSET ( 8, 0, .AHEAD. ) ;
#777 = CARTESIAN_POINT ( 'NONE',  ( 6011.324311648510047, 4101.721043206979630, 128.1370849898482049 ) ) ;
#778 = ORIENTED_EDGE ( 'NONE', *, *, #763, .T. ) ;
#779 = FACE_OUTER_BOUND ( 'NONE', #280, .T. ) ;
#780 = CALENDAR_DATE ( 2026, 8, 4 ) ;
#781 = EDGE_CURVE ( 'NONE', #861, #258, #21, .T. ) ;
#782 = CARTESIAN_POINT ( 'NONE',  ( 5808.888432405999083, 3627.323601954380138, -2.254411151403009850 ) ) ;
#783 = ORIENTED_EDGE ( 'NONE', *, *, #491, .F. ) ;
#784 = DIRECTION ( 'NONE',  ( -0.3008521040918508693, -0.9536708087508529719, 2.457524924301122137E-15 ) ) ;
#785 = CARTESIAN_POINT ( 'NONE',  ( 6013.469686177900257, 4129.483363415190070, 0.000000000000000000 ) ) ;
#786 = DIRECTION ( 'NONE',  ( -1.000000000000000000, 0.000000000000000000, 0.000000000000000000 ) ) ;
#787 = AXIS2_PLACEMENT_3D ( 'NONE', #444, #435, #91 ) ;
#788 = PLANE ( 'NONE',  #375 ) ;
#789 = DIRECTION ( 'NONE',  ( 0.000000000000000000, 0.000000000000000000, -1.000000000000000000 ) ) ;
#790 = ORIENTED_EDGE ( 'NONE', *, *, #40, .T. ) ;
#791 = CARTESIAN_POINT ( 'NONE',  ( 6011.324311648510047, 4101.721043206979630, 15.00000000000000000 ) ) ;
#792 = EDGE_CURVE ( 'NONE', #261, #258, #297, .T. ) ;
#793 = DIRECTION ( 'NONE',  ( 0.000000000000000000, 1.000000000000000000, 0.000000000000000000 ) ) ;
#794 = DIRECTION ( 'NONE',  ( 0.000000000000000000, 0.000000000000000000, 1.000000000000000000 ) ) ;
#795 = ORIENTED_EDGE ( 'NONE', *, *, #187, .T. ) ;
#796 = DIRECTION ( 'NONE',  ( 0.9536708087508337650, -0.3008521040919124312, -0.000000000000000000 ) ) ;
#797 = DIRECTION ( 'NONE',  ( -1.000000000000000000, 0.000000000000000000, 0.000000000000000000 ) ) ;
#798 = FACE_OUTER_BOUND ( 'NONE', #373, .T. ) ;
#799 = EDGE_LOOP ( 'NONE', ( #38, #291, #778, #755 ) ) ;
#800 = DIRECTION ( 'NONE',  ( -0.9996894970330497676, -0.02491805614023844678, 0.000000000000000000 ) ) ;
#801 = AXIS2_PLACEMENT_3D ( 'NONE', #17, #590, #511 ) ;
#802 = CARTESIAN_POINT ( 'NONE',  ( 6116.344094594010130, 3768.274805253469822, 15.00000000000000000 ) ) ;
#803 = EDGE_CURVE ( 'NONE', #54, #495, #10, .T. ) ;
#804 = PLANE ( 'NONE',  #787 ) ;
#805 = EDGE_LOOP ( 'NONE', ( #3, #772, #816, #758 ) ) ;
#806 = CARTESIAN_POINT ( 'NONE',  ( 5947.012271745119506, 3902.760234493510325, 0.000000000000000000 ) ) ;
#807 = AXIS2_PLACEMENT_3D ( 'NONE', #23, #722, #584 ) ;
#808 = CARTESIAN_POINT ( 'NONE',  ( 6007.894119310279166, 3564.307183804140095, -110.0000000000000000 ) ) ;
#809 = CARTESIAN_POINT ( 'NONE',  ( 5831.710038369579706, 3899.886234583660098, 0.000000000000000000 ) ) ;
#810 = ORIENTED_EDGE ( 'NONE', *, *, #803, .T. ) ;
#811 = FACE_OUTER_BOUND ( 'NONE', #277, .T. ) ;
#812 = DIRECTION ( 'NONE',  ( -6.476300976981780393E-14, -1.341519488089081873E-13, 1.000000000000000000 ) ) ;
#813 = ORIENTED_EDGE ( 'NONE', *, *, #669, .T. ) ;
#814 = EDGE_CURVE ( 'NONE', #272, #426, #286, .T. ) ;
#815 = CARTESIAN_POINT ( 'NONE',  ( 5805.423673509331820, 3616.318550745470475, 7.979816253985814178 ) ) ;
#816 = ORIENTED_EDGE ( 'NONE', *, *, #408, .T. ) ;
#817 = VECTOR ( 'NONE', #253, 1000.000000000000000 ) ;
#818 = CC_DESIGN_DATE_AND_TIME_ASSIGNMENT ( #414, #407, ( #557 ) ) ;
#819 = CARTESIAN_POINT ( 'NONE',  ( 6011.053066403250341, 3574.320727296019413, -9.081277396738579081E-13 ) ) ;
#820 = ORIENTED_EDGE ( 'NONE', *, *, #387, .F. ) ;
#821 = DIRECTION ( 'NONE',  ( 0.000000000000000000, 0.000000000000000000, 1.000000000000000000 ) ) ;
#822 = CIRCLE ( 'NONE', #708, 2.999999999999212186 ) ;
#823 = CARTESIAN_POINT ( 'NONE',  ( 6003.381337748909573, 3550.002121672875091, -110.0000000000000000 ) ) ;
#824 = ORIENTED_EDGE ( 'NONE', *, *, #687, .T. ) ;
#825 =( NAMED_UNIT ( * ) PLANE_ANGLE_UNIT ( ) SI_UNIT ( $, .RADIAN. ) );
#826 = ORIENTED_EDGE ( 'NONE', *, *, #90, .T. ) ;
#827 = AXIS2_PLACEMENT_3D ( 'NONE', #911, #847, #215 ) ;
#828 = PERSON_AND_ORGANIZATION ( #521, #531 ) ;
#829 = EDGE_CURVE ( 'NONE', #883, #617, #191, .T. ) ;
#830 = VECTOR ( 'NONE', #294, 1000.000000000000114 ) ;
#831 = VECTOR ( 'NONE', #506, 1000.000000000000000 ) ;
#832 = DIRECTION ( 'NONE',  ( 0.000000000000000000, 0.000000000000000000, -1.000000000000000000 ) ) ;
#833 = CARTESIAN_POINT ( 'NONE',  ( 6141.405790318180152, 3840.059521210640014, 15.00000000000000000 ) ) ;
#834 = VERTEX_POINT ( 'NONE', #219 ) ;
#835 = ORIENTED_EDGE ( 'NONE', *, *, #251, .F. ) ;
#836 = CYLINDRICAL_SURFACE ( 'NONE', #493, 17.99999999999945999 ) ;
#837 = VERTEX_POINT ( 'NONE', #99 ) ;
#838 = ADVANCED_FACE ( 'NONE', ( #504, #9, #46 ), #247, .T. ) ;
#839 = DIRECTION ( 'NONE',  ( 0.3008521040919079348, 0.9536708087508349863, -3.491481338843135327E-15 ) ) ;
#840 = DATE_AND_TIME ( #198, #571 ) ;
#841 = DIRECTION ( 'NONE',  ( 1.000000000000000000, 0.000000000000000000, 0.000000000000000000 ) ) ;
#842 = ORIENTED_EDGE ( 'NONE', *, *, #419, .T. ) ;
#843 = CC_DESIGN_PERSON_AND_ORGANIZATION_ASSIGNMENT ( #697, #342, ( #104 ) ) ;
#844 = ORIENTED_EDGE ( 'NONE', *, *, #723, .T. ) ;
#845 = CARTESIAN_POINT ( 'NONE',  ( 5809.033145982760288, 3627.715985234564869, 14.99999999999860023 ) ) ;
#846 = ORIENTED_EDGE ( 'NONE', *, *, #744, .F. ) ;
#847 = DIRECTION ( 'NONE',  ( 0.9536708087508208864, -0.3008521040919530098, 0.000000000000000000 ) ) ;
#848 = CARTESIAN_POINT ( 'NONE',  ( 5809.027237700450314, 3627.697256575890151, 15.14999999999859881 ) ) ;
#849 = ORIENTED_EDGE ( 'NONE', *, *, #176, .T. ) ;
#850 = AXIS2_PLACEMENT_3D ( 'NONE', #464, #891, #119 ) ;
#851 = CARTESIAN_POINT ( 'NONE',  ( 5831.710038369579706, 3899.886234583660098, 15.00000000000000000 ) ) ;
#852 = VECTOR ( 'NONE', #582, 1000.000000000000000 ) ;
#853 = CARTESIAN_POINT ( 'NONE',  ( 6008.796675622559633, 3567.168196230389640, 15.00000000000000000 ) ) ;
#854 = DIRECTION ( 'NONE',  ( -0.000000000000000000, -0.000000000000000000, -1.000000000000000000 ) ) ;
#855 = ORIENTED_EDGE ( 'NONE', *, *, #22, .F. ) ;
#856 = ADVANCED_FACE ( 'NONE', ( #811 ), #321, .T. ) ;
#857 = LINE ( 'NONE', #731, #105 ) ;
#858 = CIRCLE ( 'NONE', #298, 30.00000000000024869 ) ;
#859 = LINE ( 'NONE', #365, #831 ) ;
#860 = CYLINDRICAL_SURFACE ( 'NONE', #341, 115.3380461810833424 ) ;
#861 = VERTEX_POINT ( 'NONE', #887 ) ;
#862 = CARTESIAN_POINT ( 'NONE',  ( 6041.152785902670075, 3826.721043206979630, 128.1370849898482049 ) ) ;
#863 = FACE_OUTER_BOUND ( 'NONE', #799, .T. ) ;
#864 = CARTESIAN_POINT ( 'NONE',  ( 5941.405790318180152, 4127.687113471534758, 0.000000000000000000 ) ) ;
#865 = ORIENTED_EDGE ( 'NONE', *, *, #567, .F. ) ;
#866 = DIRECTION ( 'NONE',  ( 1.000000000000000000, 0.000000000000000000, 0.000000000000000000 ) ) ;
#867 = ADVANCED_FACE ( 'NONE', ( #875 ), #604, .T. ) ;
#868 = DIRECTION ( 'NONE',  ( 0.000000000000000000, 0.000000000000000000, 1.000000000000000000 ) ) ;
#869 = CARTESIAN_POINT ( 'NONE',  ( 6011.152785902670075, 3826.721043206979630, 0.000000000000000000 ) ) ;
#870 = EDGE_LOOP ( 'NONE', ( #783, #703, #519, #244, #390, #874, #835, #642, #189, #575, #479, #102 ) ) ;
#871 = DIRECTION ( 'NONE',  ( -0.000000000000000000, -0.000000000000000000, -1.000000000000000000 ) ) ;
#872 = CARTESIAN_POINT ( 'NONE',  ( 6357.690353486990716, 3450.166494749720187, 0.000000000000000000 ) ) ;
#873 = LINE ( 'NONE', #319, #177 ) ;
#874 = ORIENTED_EDGE ( 'NONE', *, *, #187, .F. ) ;
#875 = FACE_OUTER_BOUND ( 'NONE', #285, .T. ) ;
#876 = FACE_OUTER_BOUND ( 'NONE', #118, .T. ) ;
#877 = DIRECTION ( 'NONE',  ( 0.000000000000000000, 0.000000000000000000, 1.000000000000000000 ) ) ;
#878 = VERTEX_POINT ( 'NONE', #681 ) ;
#879 = EDGE_CURVE ( 'NONE', #883, #706, #43, .T. ) ;
#880 = CC_DESIGN_APPROVAL ( #910, ( #104 ) ) ;
#881 = VECTOR ( 'NONE', #442, 1000.000000000000000 ) ;
#882 = CARTESIAN_POINT ( 'NONE',  ( 5804.304594354480287, 3612.804355500742076, -1.821902754904113353 ) ) ;
#883 = VERTEX_POINT ( 'NONE', #611 ) ;
#884 = EDGE_CURVE ( 'NONE', #720, #125, #116, .T. ) ;
#885 = PLANE ( 'NONE',  #183 ) ;
#886 = ORIENTED_EDGE ( 'NONE', *, *, #717, .F. ) ;
#887 = CARTESIAN_POINT ( 'NONE',  ( 6011.053066403250341, 3574.320727296019413, -9.081277396738579081E-13 ) ) ;
#888 = VECTOR ( 'NONE', #144, 1000.000000000000000 ) ;
#889 = DIRECTION ( 'NONE',  ( -1.000000000000000000, 0.000000000000000000, 0.000000000000000000 ) ) ;
#890 = VERTEX_POINT ( 'NONE', #746 ) ;
#891 = DIRECTION ( 'NONE',  ( 0.000000000000000000, 0.000000000000000000, -1.000000000000000000 ) ) ;
#892 = AXIS2_PLACEMENT_3D ( 'NONE', #539, #759, #470 ) ;
#893 = EDGE_CURVE ( 'NONE', #580, #384, #214, .T. ) ;
#894 = CIRCLE ( 'NONE', #499, 30.00000000000024869 ) ;
#895 = EDGE_LOOP ( 'NONE', ( #502, #305, #596, #711 ) ) ;
#896 = APPROVAL_DATE_TIME ( #423, #327 ) ;
#897 = DIRECTION ( 'NONE',  ( 1.000000000000000000, 0.000000000000000000, 0.000000000000000000 ) ) ;
#898 = CALENDAR_DATE ( 2026, 8, 4 ) ;
#899 = CARTESIAN_POINT ( 'NONE',  ( 5808.844039614040412, 3627.182881283874849, -2.214756346922584829 ) ) ;
#900 = ORIENTED_EDGE ( 'NONE', *, *, #884, .T. ) ;
#901 = VECTOR ( 'NONE', #714, 1000.000000000000000 ) ;
#902 = FACE_OUTER_BOUND ( 'NONE', #195, .T. ) ;
#903 = CARTESIAN_POINT ( 'NONE',  ( 5809.744255289439934, 3629.962756923975121, 15.14999999999909974 ) ) ;
#904 = ORIENTED_EDGE ( 'NONE', *, *, #512, .F. ) ;
#905 = ADVANCED_FACE ( 'NONE', ( #50 ), #597, .T. ) ;
#906 = ORIENTED_EDGE ( 'NONE', *, *, #486, .T. ) ;
#907 = SECURITY_CLASSIFICATION_LEVEL ( 'unclassified' ) ;
#908 = CARTESIAN_POINT ( 'NONE',  ( 5809.744255289439934, 3629.962756923975121, -0.1515000000009079917 ) ) ;
#909 = ORIENTED_EDGE ( 'NONE', *, *, #601, .T. ) ;
#910 = APPROVAL ( #770, '未指定' ) ;
#911 = CARTESIAN_POINT ( 'NONE',  ( 6008.796675622559633, 3567.168196230389640, -9.081277396738579081E-13 ) ) ;
#912 = CARTESIAN_POINT ( 'NONE',  ( 5804.995486376629742, 3614.968612466685045, 6.065141646674139686 ) ) ;
#913 = ORIENTED_EDGE ( 'NONE', *, *, #814, .F. ) ;
ENDSEC;
END-ISO-10303-21;
