ISO-10303-21;
HEADER;
FILE_DESCRIPTION (( 'STEP AP203' ),
    '1' );
FILE_NAME ('BUSHING 03_默认_sldprt.STEP',
    '2026-04-10T07:03:21',
    ( '' ),
    ( '' ),
    'SwSTEP 2.0',
    'SolidWorks 2022',
    '' );
FILE_SCHEMA (( 'CONFIG_CONTROL_DESIGN' ));
ENDSEC;

DATA;
#1 = PERSON_AND_ORGANIZATION ( #79, #246 ) ;
#2 = COORDINATED_UNIVERSAL_TIME_OFFSET ( 8, 0, .AHEAD. ) ;
#3 = EDGE_LOOP ( 'NONE', ( #112, #183 ) ) ;
#4 = ADVANCED_FACE ( 'NONE', ( #203, #241 ), #86, .T. ) ;
#5 = ORIENTED_EDGE ( 'NONE', *, *, #169, .T. ) ;
#6 = EDGE_LOOP ( 'NONE', ( #5, #239, #106, #146 ) ) ;
#7 = PRODUCT_DEFINITION ( '未知', '', #230, #46 ) ;
#8 = CARTESIAN_POINT ( 'NONE',  ( 30.00000000000000000, 3.673940397442059178E-15, 110.0000000000000000 ) ) ;
#9 = ORIENTED_EDGE ( 'NONE', *, *, #28, .T. ) ;
#10 = DIRECTION ( 'NONE',  ( 1.000000000000000000, 0.000000000000000000, 0.000000000000000000 ) ) ;
#11 = AXIS2_PLACEMENT_3D ( 'NONE', #50, #128, #208 ) ;
#12 = CARTESIAN_POINT ( 'NONE',  ( 0.000000000000000000, 0.000000000000000000, 110.0000000000000000 ) ) ;
#13 = CARTESIAN_POINT ( 'NONE',  ( 0.000000000000000000, 0.000000000000000000, 0.000000000000000000 ) ) ;
#14 = DIRECTION ( 'NONE',  ( 0.000000000000000000, 0.000000000000000000, 1.000000000000000000 ) ) ;
#15 = CC_DESIGN_PERSON_AND_ORGANIZATION_ASSIGNMENT ( #1, #197, ( #230 ) ) ;
#16 = LOCAL_TIME ( 15, 3, 21.00000000000000000, #81 ) ;
#17 = APPROVAL_DATE_TIME ( #236, #129 ) ;
#18 = SHAPE_DEFINITION_REPRESENTATION ( #61, #97 ) ;
#19 = CC_DESIGN_DATE_AND_TIME_ASSIGNMENT ( #121, #119, ( #7 ) ) ;
#20 = DATE_TIME_ROLE ( 'classification_date' ) ;
#21 = AXIS2_PLACEMENT_3D ( 'NONE', #42, #149, #26 ) ;
#22 = AXIS2_PLACEMENT_3D ( 'NONE', #34, #154, #189 ) ;
#23 = SECURITY_CLASSIFICATION_LEVEL ( 'unclassified' ) ;
#24 = APPROVAL ( #181, '未指定' ) ;
#25 = ORIENTED_EDGE ( 'NONE', *, *, #215, .F. ) ;
#26 = DIRECTION ( 'NONE',  ( 1.000000000000000000, 0.000000000000000000, 0.000000000000000000 ) ) ;
#27 = DIRECTION ( 'NONE',  ( 0.000000000000000000, 0.000000000000000000, -1.000000000000000000 ) ) ;
#28 = EDGE_CURVE ( 'NONE', #65, #83, #165, .T. ) ;
#29 = CARTESIAN_POINT ( 'NONE',  ( 40.00000000000000000, 4.898587196589413026E-15, 0.000000000000000000 ) ) ;
#30 = AXIS2_PLACEMENT_3D ( 'NONE', #224, #44, #150 ) ;
#31 = APPROVAL_PERSON_ORGANIZATION ( #82, #24, #99 ) ;
#32 = EDGE_LOOP ( 'NONE', ( #47, #25, #200, #138 ) ) ;
#33 = DIRECTION ( 'NONE',  ( 0.000000000000000000, 0.000000000000000000, -1.000000000000000000 ) ) ;
#34 = CARTESIAN_POINT ( 'NONE',  ( 0.000000000000000000, 0.000000000000000000, 110.0000000000000000 ) ) ;
#35 = CARTESIAN_POINT ( 'NONE',  ( 30.00000000000000000, 3.673940397442059178E-15, 0.000000000000000000 ) ) ;
#36 = DIRECTION ( 'NONE',  ( 0.000000000000000000, 0.000000000000000000, -1.000000000000000000 ) ) ;
#37 = DIRECTION ( 'NONE',  ( 0.000000000000000000, 0.000000000000000000, 1.000000000000000000 ) ) ;
#38 = CC_DESIGN_APPROVAL ( #24, ( #214 ) ) ;
#39 = PERSON_AND_ORGANIZATION ( #79, #246 ) ;
#40 = CALENDAR_DATE ( 2026, 10, 4 ) ;
#41 = PERSON_AND_ORGANIZATION ( #79, #246 ) ;
#42 = CARTESIAN_POINT ( 'NONE',  ( 0.000000000000000000, 0.000000000000000000, 110.0000000000000000 ) ) ;
#43 = AXIS2_PLACEMENT_3D ( 'NONE', #84, #14, #115 ) ;
#44 = DIRECTION ( 'NONE',  ( 0.000000000000000000, 0.000000000000000000, -1.000000000000000000 ) ) ;
#45 = DIRECTION ( 'NONE',  ( 0.000000000000000000, 0.000000000000000000, 1.000000000000000000 ) ) ;
#46 = DESIGN_CONTEXT ( 'detailed design', #75, 'design' ) ;
#47 = ORIENTED_EDGE ( 'NONE', *, *, #28, .F. ) ;
#48 = VECTOR ( 'NONE', #89, 1000.000000000000000 ) ;
#49 =( GEOMETRIC_REPRESENTATION_CONTEXT ( 3 ) GLOBAL_UNCERTAINTY_ASSIGNED_CONTEXT ( ( #113 ) ) GLOBAL_UNIT_ASSIGNED_CONTEXT ( ( #232, #153, #192 ) ) REPRESENTATION_CONTEXT ( 'NONE', 'WORKASPACE' ) );
#50 = CARTESIAN_POINT ( 'NONE',  ( 0.000000000000000000, 0.000000000000000000, 0.000000000000000000 ) ) ;
#51 = DIRECTION ( 'NONE',  ( 1.000000000000000000, 0.000000000000000000, 0.000000000000000000 ) ) ;
#52 = AXIS2_PLACEMENT_3D ( 'NONE', #126, #111, #168 ) ;
#53 = ADVANCED_FACE ( 'NONE', ( #87 ), #67, .F. ) ;
#54 = FACE_BOUND ( 'NONE', #3, .T. ) ;
#55 = CARTESIAN_POINT ( 'NONE',  ( 0.000000000000000000, 0.000000000000000000, 110.0000000000000000 ) ) ;
#56 = EDGE_CURVE ( 'NONE', #107, #108, #124, .T. ) ;
#57 = AXIS2_PLACEMENT_3D ( 'NONE', #135, #37, #211 ) ;
#58 = AXIS2_PLACEMENT_3D ( 'NONE', #213, #247, #176 ) ;
#59 = APPROVAL_DATE_TIME ( #141, #110 ) ;
#60 = CALENDAR_DATE ( 2026, 10, 4 ) ;
#61 = PRODUCT_DEFINITION_SHAPE ( 'NONE', 'NONE',  #7 ) ;
#62 = PERSON_AND_ORGANIZATION ( #79, #246 ) ;
#63 = CC_DESIGN_APPROVAL ( #129, ( #7 ) ) ;
#64 = APPROVAL_STATUS ( 'not_yet_approved' ) ;
#65 = VERTEX_POINT ( 'NONE', #185 ) ;
#66 = ORIENTED_EDGE ( 'NONE', *, *, #184, .F. ) ;
#67 = CYLINDRICAL_SURFACE ( 'NONE', #30, 30.00000000000000000 ) ;
#68 = ORIENTED_EDGE ( 'NONE', *, *, #207, .T. ) ;
#69 = CYLINDRICAL_SURFACE ( 'NONE', #52, 30.00000000000000000 ) ;
#70 = FACE_OUTER_BOUND ( 'NONE', #6, .T. ) ;
#71 = CC_DESIGN_PERSON_AND_ORGANIZATION_ASSIGNMENT ( #199, #161, ( #230 ) ) ;
#72 = AXIS2_PLACEMENT_3D ( 'NONE', #55, #36, #155 ) ;
#73 = FACE_OUTER_BOUND ( 'NONE', #32, .T. ) ;
#74 = EDGE_CURVE ( 'NONE', #108, #217, #174, .T. ) ;
#75 = APPLICATION_CONTEXT ( 'configuration controlled 3d designs of mechanical parts and assemblies' ) ;
#76 = DIRECTION ( 'NONE',  ( -1.000000000000000000, 0.000000000000000000, 0.000000000000000000 ) ) ;
#77 = CYLINDRICAL_SURFACE ( 'NONE', #72, 40.00000000000000000 ) ;
#78 = APPLICATION_PROTOCOL_DEFINITION ( 'international standard', 'config_control_design', 1994, #75 ) ;
#79 = PERSON ( '未指定', '未指定', '未指定', ('未指定'), ('未指定'), ('未指定') ) ;
#80 = PERSON_AND_ORGANIZATION_ROLE ( 'creator' ) ;
#81 = COORDINATED_UNIVERSAL_TIME_OFFSET ( 8, 0, .AHEAD. ) ;
#82 = PERSON_AND_ORGANIZATION ( #79, #246 ) ;
#83 = VERTEX_POINT ( 'NONE', #29 ) ;
#84 = CARTESIAN_POINT ( 'NONE',  ( 0.000000000000000000, 0.000000000000000000, 110.0000000000000000 ) ) ;
#85 = MANIFOLD_SOLID_BREP ( '输入1', #131 ) ;
#86 = PLANE ( 'NONE',  #21 ) ;
#87 = FACE_OUTER_BOUND ( 'NONE', #204, .T. ) ;
#88 = AXIS2_PLACEMENT_3D ( 'NONE', #229, #96, #10 ) ;
#89 = DIRECTION ( 'NONE',  ( 0.000000000000000000, 0.000000000000000000, -1.000000000000000000 ) ) ;
#90 = ORIENTED_EDGE ( 'NONE', *, *, #147, .F. ) ;
#91 = DIRECTION ( 'NONE',  ( 0.000000000000000000, 0.000000000000000000, -1.000000000000000000 ) ) ;
#92 = AXIS2_PLACEMENT_3D ( 'NONE', #12, #91, #76 ) ;
#93 = APPLICATION_CONTEXT ( 'configuration controlled 3d designs of mechanical parts and assemblies' ) ;
#94 = CARTESIAN_POINT ( 'NONE',  ( 30.00000000000000000, 3.673940397442059178E-15, 110.0000000000000000 ) ) ;
#95 = DIRECTION ( 'NONE',  ( 0.000000000000000000, 0.000000000000000000, 1.000000000000000000 ) ) ;
#96 = DIRECTION ( 'NONE',  ( 0.000000000000000000, 0.000000000000000000, 1.000000000000000000 ) ) ;
#97 = ADVANCED_BREP_SHAPE_REPRESENTATION ( 'BUSHING 03_\X2\9ed88ba4\X0\_sldprt', ( #85, #57 ), #49 ) ;
#98 = PERSON_AND_ORGANIZATION ( #79, #246 ) ;
#99 = APPROVAL_ROLE ( '' ) ;
#100 = ORIENTED_EDGE ( 'NONE', *, *, #151, .F. ) ;
#101 = COORDINATED_UNIVERSAL_TIME_OFFSET ( 8, 0, .AHEAD. ) ;
#102 = EDGE_CURVE ( 'NONE', #206, #217, #186, .T. ) ;
#103 = PERSON_AND_ORGANIZATION_ROLE ( 'design_owner' ) ;
#104 = CC_DESIGN_PERSON_AND_ORGANIZATION_ASSIGNMENT ( #98, #103, ( #180 ) ) ;
#105 = ORIENTED_EDGE ( 'NONE', *, *, #215, .T. ) ;
#106 = ORIENTED_EDGE ( 'NONE', *, *, #74, .F. ) ;
#107 = VERTEX_POINT ( 'NONE', #167 ) ;
#108 = VERTEX_POINT ( 'NONE', #242 ) ;
#109 = AXIS2_PLACEMENT_3D ( 'NONE', #228, #231, #134 ) ;
#110 = APPROVAL ( #137, '未指定' ) ;
#111 = DIRECTION ( 'NONE',  ( 0.000000000000000000, 0.000000000000000000, -1.000000000000000000 ) ) ;
#112 = ORIENTED_EDGE ( 'NONE', *, *, #74, .T. ) ;
#113 = UNCERTAINTY_MEASURE_WITH_UNIT (LENGTH_MEASURE( 1.000000000000000082E-05 ), #232, 'distance_accuracy_value', 'NONE');
#114 = PRODUCT_RELATED_PRODUCT_CATEGORY ( 'detail', '', ( #180 ) ) ;
#115 = DIRECTION ( 'NONE',  ( 1.000000000000000000, 0.000000000000000000, 0.000000000000000000 ) ) ;
#116 = CIRCLE ( 'NONE', #190, 30.00000000000000000 ) ;
#117 = DIRECTION ( 'NONE',  ( 0.000000000000000000, 0.000000000000000000, 1.000000000000000000 ) ) ;
#118 = CC_DESIGN_DATE_AND_TIME_ASSIGNMENT ( #122, #20, ( #214 ) ) ;
#119 = DATE_TIME_ROLE ( 'creation_date' ) ;
#120 = CALENDAR_DATE ( 2026, 10, 4 ) ;
#121 = DATE_AND_TIME ( #160, #222 ) ;
#122 = DATE_AND_TIME ( #120, #132 ) ;
#123 = EDGE_LOOP ( 'NONE', ( #225, #221 ) ) ;
#124 = LINE ( 'NONE', #166, #140 ) ;
#125 = EDGE_LOOP ( 'NONE', ( #105, #227 ) ) ;
#126 = CARTESIAN_POINT ( 'NONE',  ( 0.000000000000000000, 0.000000000000000000, 110.0000000000000000 ) ) ;
#127 = AXIS2_PLACEMENT_3D ( 'NONE', #148, #45, #205 ) ;
#128 = DIRECTION ( 'NONE',  ( 0.000000000000000000, 0.000000000000000000, 1.000000000000000000 ) ) ;
#129 = APPROVAL ( #64, '未指定' ) ;
#130 = CYLINDRICAL_SURFACE ( 'NONE', #92, 40.00000000000000000 ) ;
#131 = CLOSED_SHELL ( 'NONE', ( #139, #210, #4, #235, #195, #53 ) ) ;
#132 = LOCAL_TIME ( 15, 3, 21.00000000000000000, #2 ) ;
#133 = PLANE ( 'NONE',  #109 ) ;
#134 = DIRECTION ( 'NONE',  ( 1.000000000000000000, 0.000000000000000000, 0.000000000000000000 ) ) ;
#135 = CARTESIAN_POINT ( 'NONE',  ( 0.000000000000000000, 0.000000000000000000, 0.000000000000000000 ) ) ;
#136 = CC_DESIGN_SECURITY_CLASSIFICATION ( #214, ( #230 ) ) ;
#137 = APPROVAL_STATUS ( 'not_yet_approved' ) ;
#138 = ORIENTED_EDGE ( 'NONE', *, *, #184, .T. ) ;
#139 = ADVANCED_FACE ( 'NONE', ( #70 ), #69, .F. ) ;
#140 = VECTOR ( 'NONE', #27, 1000.000000000000000 ) ;
#141 = DATE_AND_TIME ( #40, #233 ) ;
#142 = VECTOR ( 'NONE', #245, 1000.000000000000000 ) ;
#143 = CALENDAR_DATE ( 2026, 10, 4 ) ;
#144 = VERTEX_POINT ( 'NONE', #243 ) ;
#145 = CC_DESIGN_APPROVAL ( #110, ( #230 ) ) ;
#146 = ORIENTED_EDGE ( 'NONE', *, *, #56, .F. ) ;
#147 = EDGE_CURVE ( 'NONE', #83, #144, #159, .T. ) ;
#148 = CARTESIAN_POINT ( 'NONE',  ( 0.000000000000000000, 0.000000000000000000, 0.000000000000000000 ) ) ;
#149 = DIRECTION ( 'NONE',  ( 0.000000000000000000, 0.000000000000000000, 1.000000000000000000 ) ) ;
#150 = DIRECTION ( 'NONE',  ( -1.000000000000000000, 0.000000000000000000, 0.000000000000000000 ) ) ;
#151 = EDGE_CURVE ( 'NONE', #65, #238, #175, .T. ) ;
#152 = CIRCLE ( 'NONE', #58, 30.00000000000000000 ) ;
#153 =( NAMED_UNIT ( * ) PLANE_ANGLE_UNIT ( ) SI_UNIT ( $, .RADIAN. ) );
#154 = DIRECTION ( 'NONE',  ( 0.000000000000000000, 0.000000000000000000, 1.000000000000000000 ) ) ;
#155 = DIRECTION ( 'NONE',  ( -1.000000000000000000, 0.000000000000000000, 0.000000000000000000 ) ) ;
#156 = FACE_OUTER_BOUND ( 'NONE', #188, .T. ) ;
#157 = ORIENTED_EDGE ( 'NONE', *, *, #147, .T. ) ;
#158 = EDGE_CURVE ( 'NONE', #238, #144, #209, .T. ) ;
#159 = CIRCLE ( 'NONE', #11, 40.00000000000000000 ) ;
#160 = CALENDAR_DATE ( 2026, 10, 4 ) ;
#161 = PERSON_AND_ORGANIZATION_ROLE ( 'creator' ) ;
#162 = CIRCLE ( 'NONE', #198, 40.00000000000000000 ) ;
#163 = CC_DESIGN_PERSON_AND_ORGANIZATION_ASSIGNMENT ( #237, #220, ( #214 ) ) ;
#164 = ORIENTED_EDGE ( 'NONE', *, *, #56, .T. ) ;
#165 = LINE ( 'NONE', #240, #219 ) ;
#166 = CARTESIAN_POINT ( 'NONE',  ( -30.00000000000000000, 0.000000000000000000, 110.0000000000000000 ) ) ;
#167 = CARTESIAN_POINT ( 'NONE',  ( -30.00000000000000000, 0.000000000000000000, 110.0000000000000000 ) ) ;
#168 = DIRECTION ( 'NONE',  ( -1.000000000000000000, 0.000000000000000000, 0.000000000000000000 ) ) ;
#169 = EDGE_CURVE ( 'NONE', #107, #206, #170, .T. ) ;
#170 = CIRCLE ( 'NONE', #22, 30.00000000000000000 ) ;
#171 = FACE_OUTER_BOUND ( 'NONE', #223, .T. ) ;
#172 = MECHANICAL_CONTEXT ( 'NONE', #93, 'mechanical' ) ;
#173 = DIRECTION ( 'NONE',  ( 1.000000000000000000, 0.000000000000000000, 0.000000000000000000 ) ) ;
#174 = CIRCLE ( 'NONE', #127, 30.00000000000000000 ) ;
#175 = CIRCLE ( 'NONE', #43, 40.00000000000000000 ) ;
#176 = DIRECTION ( 'NONE',  ( 1.000000000000000000, 0.000000000000000000, 0.000000000000000000 ) ) ;
#177 = APPROVAL_ROLE ( '' ) ;
#178 = EDGE_CURVE ( 'NONE', #217, #108, #152, .T. ) ;
#179 = APPROVAL_DATE_TIME ( #248, #24 ) ;
#180 = PRODUCT ( 'BUSHING 03_\X2\9ed88ba4\X0\_sldprt', 'BUSHING 03_\X2\9ed88ba4\X0\_sldprt', '', ( #172 ) ) ;
#181 = APPROVAL_STATUS ( 'not_yet_approved' ) ;
#182 = ORIENTED_EDGE ( 'NONE', *, *, #158, .F. ) ;
#183 = ORIENTED_EDGE ( 'NONE', *, *, #178, .T. ) ;
#184 = EDGE_CURVE ( 'NONE', #144, #83, #162, .T. ) ;
#185 = CARTESIAN_POINT ( 'NONE',  ( 40.00000000000000000, 4.898587196589413026E-15, 110.0000000000000000 ) ) ;
#186 = LINE ( 'NONE', #8, #48 ) ;
#187 = ORIENTED_EDGE ( 'NONE', *, *, #102, .F. ) ;
#188 = EDGE_LOOP ( 'NONE', ( #66, #90 ) ) ;
#189 = DIRECTION ( 'NONE',  ( 1.000000000000000000, 0.000000000000000000, 0.000000000000000000 ) ) ;
#190 = AXIS2_PLACEMENT_3D ( 'NONE', #212, #95, #173 ) ;
#191 = APPLICATION_PROTOCOL_DEFINITION ( 'international standard', 'config_control_design', 1994, #93 ) ;
#192 =( NAMED_UNIT ( * ) SI_UNIT ( $, .STERADIAN. ) SOLID_ANGLE_UNIT ( ) );
#193 = CARTESIAN_POINT ( 'NONE',  ( -40.00000000000000000, 0.000000000000000000, 110.0000000000000000 ) ) ;
#194 = LOCAL_TIME ( 15, 3, 21.00000000000000000, #101 ) ;
#195 = ADVANCED_FACE ( 'NONE', ( #73 ), #130, .T. ) ;
#196 = COORDINATED_UNIVERSAL_TIME_OFFSET ( 8, 0, .AHEAD. ) ;
#197 = PERSON_AND_ORGANIZATION_ROLE ( 'design_supplier' ) ;
#198 = AXIS2_PLACEMENT_3D ( 'NONE', #13, #117, #51 ) ;
#199 = PERSON_AND_ORGANIZATION ( #79, #246 ) ;
#200 = ORIENTED_EDGE ( 'NONE', *, *, #158, .T. ) ;
#201 = APPROVAL_PERSON_ORGANIZATION ( #41, #129, #234 ) ;
#202 = CIRCLE ( 'NONE', #88, 40.00000000000000000 ) ;
#203 = FACE_OUTER_BOUND ( 'NONE', #125, .T. ) ;
#204 = EDGE_LOOP ( 'NONE', ( #187, #68, #164, #249 ) ) ;
#205 = DIRECTION ( 'NONE',  ( 1.000000000000000000, 0.000000000000000000, 0.000000000000000000 ) ) ;
#206 = VERTEX_POINT ( 'NONE', #94 ) ;
#207 = EDGE_CURVE ( 'NONE', #206, #107, #116, .T. ) ;
#208 = DIRECTION ( 'NONE',  ( 1.000000000000000000, 0.000000000000000000, 0.000000000000000000 ) ) ;
#209 = LINE ( 'NONE', #193, #142 ) ;
#210 = ADVANCED_FACE ( 'NONE', ( #171 ), #77, .T. ) ;
#211 = DIRECTION ( 'NONE',  ( 1.000000000000000000, 0.000000000000000000, 0.000000000000000000 ) ) ;
#212 = CARTESIAN_POINT ( 'NONE',  ( 0.000000000000000000, 0.000000000000000000, 110.0000000000000000 ) ) ;
#213 = CARTESIAN_POINT ( 'NONE',  ( 0.000000000000000000, 0.000000000000000000, 0.000000000000000000 ) ) ;
#214 = SECURITY_CLASSIFICATION ( '', '', #23 ) ;
#215 = EDGE_CURVE ( 'NONE', #238, #65, #202, .T. ) ;
#216 = COORDINATED_UNIVERSAL_TIME_OFFSET ( 8, 0, .AHEAD. ) ;
#217 = VERTEX_POINT ( 'NONE', #35 ) ;
#218 = CC_DESIGN_PERSON_AND_ORGANIZATION_ASSIGNMENT ( #62, #80, ( #7 ) ) ;
#219 = VECTOR ( 'NONE', #33, 1000.000000000000000 ) ;
#220 = PERSON_AND_ORGANIZATION_ROLE ( 'classification_officer' ) ;
#221 = ORIENTED_EDGE ( 'NONE', *, *, #207, .F. ) ;
#222 = LOCAL_TIME ( 15, 3, 21.00000000000000000, #216 ) ;
#223 = EDGE_LOOP ( 'NONE', ( #100, #9, #157, #182 ) ) ;
#224 = CARTESIAN_POINT ( 'NONE',  ( 0.000000000000000000, 0.000000000000000000, 110.0000000000000000 ) ) ;
#225 = ORIENTED_EDGE ( 'NONE', *, *, #169, .F. ) ;
#226 = APPROVAL_PERSON_ORGANIZATION ( #39, #110, #177 ) ;
#227 = ORIENTED_EDGE ( 'NONE', *, *, #151, .T. ) ;
#228 = CARTESIAN_POINT ( 'NONE',  ( 0.000000000000000000, 0.000000000000000000, 0.000000000000000000 ) ) ;
#229 = CARTESIAN_POINT ( 'NONE',  ( 0.000000000000000000, 0.000000000000000000, 110.0000000000000000 ) ) ;
#230 = PRODUCT_DEFINITION_FORMATION_WITH_SPECIFIED_SOURCE ( '任何', '', #180, .NOT_KNOWN. ) ;
#231 = DIRECTION ( 'NONE',  ( 0.000000000000000000, 0.000000000000000000, 1.000000000000000000 ) ) ;
#232 =( LENGTH_UNIT ( ) NAMED_UNIT ( * ) SI_UNIT ( .MILLI., .METRE. ) );
#233 = LOCAL_TIME ( 15, 3, 21.00000000000000000, #196 ) ;
#234 = APPROVAL_ROLE ( '' ) ;
#235 = ADVANCED_FACE ( 'NONE', ( #156, #54 ), #133, .F. ) ;
#236 = DATE_AND_TIME ( #143, #16 ) ;
#237 = PERSON_AND_ORGANIZATION ( #79, #246 ) ;
#238 = VERTEX_POINT ( 'NONE', #244 ) ;
#239 = ORIENTED_EDGE ( 'NONE', *, *, #102, .T. ) ;
#240 = CARTESIAN_POINT ( 'NONE',  ( 40.00000000000000000, 4.898587196589413026E-15, 110.0000000000000000 ) ) ;
#241 = FACE_BOUND ( 'NONE', #123, .T. ) ;
#242 = CARTESIAN_POINT ( 'NONE',  ( -30.00000000000000000, 0.000000000000000000, 0.000000000000000000 ) ) ;
#243 = CARTESIAN_POINT ( 'NONE',  ( -40.00000000000000000, 0.000000000000000000, 0.000000000000000000 ) ) ;
#244 = CARTESIAN_POINT ( 'NONE',  ( -40.00000000000000000, 0.000000000000000000, 110.0000000000000000 ) ) ;
#245 = DIRECTION ( 'NONE',  ( 0.000000000000000000, 0.000000000000000000, -1.000000000000000000 ) ) ;
#246 = ORGANIZATION ( '未指定', '未指定', '' ) ;
#247 = DIRECTION ( 'NONE',  ( 0.000000000000000000, 0.000000000000000000, 1.000000000000000000 ) ) ;
#248 = DATE_AND_TIME ( #60, #194 ) ;
#249 = ORIENTED_EDGE ( 'NONE', *, *, #178, .F. ) ;
ENDSEC;
END-ISO-10303-21;
