ISO-10303-21;
HEADER;
FILE_DESCRIPTION (( 'STEP AP203' ),
    '1' );
FILE_NAME ('COVER 03_默认_sldprt.STEP',
    '2026-04-10T07:03:26',
    ( '' ),
    ( '' ),
    'SwSTEP 2.0',
    'SolidWorks 2022',
    '' );
FILE_SCHEMA (( 'CONFIG_CONTROL_DESIGN' ));
ENDSEC;

DATA;
#1 = CC_DESIGN_APPROVAL ( #27, ( #138 ) ) ;
#2 = DIRECTION ( 'NONE',  ( 0.000000000000000000, 0.000000000000000000, -1.000000000000000000 ) ) ;
#3 = DIRECTION ( 'NONE',  ( 0.000000000000000000, 0.000000000000000000, 1.000000000000000000 ) ) ;
#4 = ORIENTED_EDGE ( 'NONE', *, *, #13, .T. ) ;
#5 = EDGE_CURVE ( 'NONE', #8, #328, #190, .T. ) ;
#6 = AXIS2_PLACEMENT_3D ( 'NONE', #253, #58, #351 ) ;
#7 = ORIENTED_EDGE ( 'NONE', *, *, #159, .F. ) ;
#8 = VERTEX_POINT ( 'NONE', #366 ) ;
#9 = EDGE_CURVE ( 'NONE', #331, #95, #334, .T. ) ;
#10 = ORIENTED_EDGE ( 'NONE', *, *, #211, .F. ) ;
#11 = VERTEX_POINT ( 'NONE', #71 ) ;
#12 = DIRECTION ( 'NONE',  ( 0.000000000000000000, 0.000000000000000000, -1.000000000000000000 ) ) ;
#13 = EDGE_CURVE ( 'NONE', #31, #11, #129, .T. ) ;
#14 = EDGE_LOOP ( 'NONE', ( #212, #241, #152, #360, #208, #177, #358, #296 ) ) ;
#15 = CIRCLE ( 'NONE', #364, 559.3876599837482217 ) ;
#16 = PERSON_AND_ORGANIZATION ( #265, #275 ) ;
#17 = CARTESIAN_POINT ( 'NONE',  ( 2683.361184815539673, 2448.486053591475411, 460.0000000000000000 ) ) ;
#18 = PERSON_AND_ORGANIZATION_ROLE ( 'classification_officer' ) ;
#19 = CARTESIAN_POINT ( 'NONE',  ( 2539.485704518490365, 1947.628249876240034, 0.000000000000000000 ) ) ;
#20 = SECURITY_CLASSIFICATION_LEVEL ( 'unclassified' ) ;
#21 = ADVANCED_FACE ( 'NONE', ( #75 ), #308, .F. ) ;
#22 = ORIENTED_EDGE ( 'NONE', *, *, #344, .F. ) ;
#23 = MECHANICAL_CONTEXT ( 'NONE', #119, 'mechanical' ) ;
#24 = PLANE ( 'NONE',  #191 ) ;
#25 = DIRECTION ( 'NONE',  ( 1.000000000000000000, 0.000000000000000000, 0.000000000000000000 ) ) ;
#26 = LINE ( 'NONE', #262, #77 ) ;
#27 = APPROVAL ( #367, '未指定' ) ;
#28 = CARTESIAN_POINT ( 'NONE',  ( 2673.358078821449908, 2448.486053591475411, 460.0000000000000000 ) ) ;
#29 = FACE_OUTER_BOUND ( 'NONE', #126, .T. ) ;
#30 = AXIS2_PLACEMENT_3D ( 'NONE', #203, #235, #175 ) ;
#31 = VERTEX_POINT ( 'NONE', #19 ) ;
#32 = LINE ( 'NONE', #28, #251 ) ;
#33 = ORIENTED_EDGE ( 'NONE', *, *, #249, .F. ) ;
#34 = ORIENTED_EDGE ( 'NONE', *, *, #89, .T. ) ;
#35 = AXIS2_PLACEMENT_3D ( 'NONE', #254, #309, #25 ) ;
#36 = ORIENTED_EDGE ( 'NONE', *, *, #5, .F. ) ;
#37 = PRODUCT ( 'COVER 03_\X2\9ed88ba4\X0\_sldprt', 'COVER 03_\X2\9ed88ba4\X0\_sldprt', '', ( #23 ) ) ;
#38 = ORIENTED_EDGE ( 'NONE', *, *, #269, .F. ) ;
#39 = VERTEX_POINT ( 'NONE', #104 ) ;
#40 = AXIS2_PLACEMENT_3D ( 'NONE', #145, #376, #287 ) ;
#41 = CC_DESIGN_SECURITY_CLASSIFICATION ( #78, ( #138 ) ) ;
#42 = DIRECTION ( 'NONE',  ( 1.000000000000000000, 0.000000000000000000, 0.000000000000000000 ) ) ;
#43 = CARTESIAN_POINT ( 'NONE',  ( 2673.358078821449908, 2448.486053591475411, 0.000000000000000000 ) ) ;
#44 = PERSON_AND_ORGANIZATION ( #265, #275 ) ;
#45 = DIRECTION ( 'NONE',  ( 0.9613517378191362983, -0.2753231486673915485, 0.000000000000000000 ) ) ;
#46 = AXIS2_PLACEMENT_3D ( 'NONE', #51, #245, #359 ) ;
#47 = PERSON_AND_ORGANIZATION_ROLE ( 'creator' ) ;
#48 = DIRECTION ( 'NONE',  ( -1.000000000000000000, 0.000000000000000000, 0.000000000000000000 ) ) ;
#49 = EDGE_CURVE ( 'NONE', #355, #31, #285, .T. ) ;
#50 = PERSON_AND_ORGANIZATION ( #265, #275 ) ;
#51 = CARTESIAN_POINT ( 'NONE',  ( 2578.852609708759701, 2231.719260780215336, 460.0000000000000000 ) ) ;
#52 = CARTESIAN_POINT ( 'NONE',  ( 2662.365698432745376, 2160.314526697125075, 460.0000000000000000 ) ) ;
#53 = CARTESIAN_POINT ( 'NONE',  ( 3079.931142053899748, 1803.290856283120092, 460.0000000000000000 ) ) ;
#54 = CARTESIAN_POINT ( 'NONE',  ( 2673.358078821449908, 2448.486053591475411, 460.0000000000000000 ) ) ;
#55 = CC_DESIGN_DATE_AND_TIME_ASSIGNMENT ( #335, #84, ( #237 ) ) ;
#56 = LOCAL_TIME ( 15, 3, 26.00000000000000000, #105 ) ;
#57 = CARTESIAN_POINT ( 'NONE',  ( 2578.852609708759701, 2231.719260780215336, 0.000000000000000000 ) ) ;
#58 = DIRECTION ( 'NONE',  ( 0.000000000000000000, 0.000000000000000000, -1.000000000000000000 ) ) ;
#59 = CARTESIAN_POINT ( 'NONE',  ( 2673.358078821449908, 2448.486053591475411, 460.0000000000000000 ) ) ;
#60 = AXIS2_PLACEMENT_3D ( 'NONE', #365, #229, #223 ) ;
#61 = ADVANCED_FACE ( 'NONE', ( #135 ), #215, .T. ) ;
#62 = VERTEX_POINT ( 'NONE', #52 ) ;
#63 = CC_DESIGN_PERSON_AND_ORGANIZATION_ASSIGNMENT ( #197, #47, ( #138 ) ) ;
#64 = ORIENTED_EDGE ( 'NONE', *, *, #83, .T. ) ;
#65 = AXIS2_PLACEMENT_3D ( 'NONE', #113, #230, #234 ) ;
#66 = LOCAL_TIME ( 15, 3, 26.00000000000000000, #143 ) ;
#67 = ORIENTED_EDGE ( 'NONE', *, *, #168, .T. ) ;
#68 = ORIENTED_EDGE ( 'NONE', *, *, #350, .F. ) ;
#69 = FACE_OUTER_BOUND ( 'NONE', #302, .T. ) ;
#70 = EDGE_CURVE ( 'NONE', #328, #267, #80, .T. ) ;
#71 = CARTESIAN_POINT ( 'NONE',  ( 2549.100798322214814, 1944.874566914395018, 0.000000000000000000 ) ) ;
#72 = APPROVAL_ROLE ( '' ) ;
#73 = CARTESIAN_POINT ( 'NONE',  ( 2539.485704518490365, 1947.628249876240034, 460.0000000000000000 ) ) ;
#74 = DATE_AND_TIME ( #221, #56 ) ;
#75 = FACE_OUTER_BOUND ( 'NONE', #299, .T. ) ;
#76 = CC_DESIGN_PERSON_AND_ORGANIZATION_ASSIGNMENT ( #16, #218, ( #237 ) ) ;
#77 = VECTOR ( 'NONE', #347, 1000.000000000000000 ) ;
#78 = SECURITY_CLASSIFICATION ( '', '', #20 ) ;
#79 = CALENDAR_DATE ( 2026, 10, 4 ) ;
#80 = LINE ( 'NONE', #43, #148 ) ;
#81 = COORDINATED_UNIVERSAL_TIME_OFFSET ( 8, 0, .AHEAD. ) ;
#82 = DIRECTION ( 'NONE',  ( 0.02491805614023449508, -0.9996894970330498786, 0.000000000000000000 ) ) ;
#83 = EDGE_CURVE ( 'NONE', #95, #31, #15, .T. ) ;
#84 = DATE_TIME_ROLE ( 'creation_date' ) ;
#85 = LINE ( 'NONE', #266, #300 ) ;
#86 = CARTESIAN_POINT ( 'NONE',  ( 2688.696024405825028, 2234.457195291055086, 460.0000000000000000 ) ) ;
#87 = CARTESIAN_POINT ( 'NONE',  ( 2549.100798322214814, 1944.874566914395018, 460.0000000000000000 ) ) ;
#88 = CARTESIAN_POINT ( 'NONE',  ( 2678.699129435490249, 2234.208014729655133, 0.000000000000000000 ) ) ;
#89 = EDGE_CURVE ( 'NONE', #267, #181, #108, .T. ) ;
#90 = LOCAL_TIME ( 15, 3, 26.00000000000000000, #227 ) ;
#91 = VERTEX_POINT ( 'NONE', #286 ) ;
#92 = ADVANCED_FACE ( 'NONE', ( #69 ), #224, .F. ) ;
#93 = PLANE ( 'NONE',  #264 ) ;
#94 = EDGE_LOOP ( 'NONE', ( #34, #38, #7, #272 ) ) ;
#95 = VERTEX_POINT ( 'NONE', #222 ) ;
#96 = ORIENTED_EDGE ( 'NONE', *, *, #225, .F. ) ;
#97 = ORIENTED_EDGE ( 'NONE', *, *, #316, .F. ) ;
#98 = PRODUCT_RELATED_PRODUCT_CATEGORY ( 'detail', '', ( #37 ) ) ;
#99 = DIRECTION ( 'NONE',  ( 1.000000000000000000, 0.000000000000000000, 0.000000000000000000 ) ) ;
#100 = CARTESIAN_POINT ( 'NONE',  ( 3079.931142053899748, 1803.290856283120092, 0.000000000000000000 ) ) ;
#101 = VECTOR ( 'NONE', #187, 1000.000000000000000 ) ;
#102 = CC_DESIGN_APPROVAL ( #375, ( #78 ) ) ;
#103 = PERSON_AND_ORGANIZATION ( #265, #275 ) ;
#104 = CARTESIAN_POINT ( 'NONE',  ( 2688.696024405825028, 2234.457195291055086, 0.000000000000000000 ) ) ;
#105 = COORDINATED_UNIVERSAL_TIME_OFFSET ( 8, 0, .AHEAD. ) ;
#106 = DIRECTION ( 'NONE',  ( 0.000000000000000000, 0.000000000000000000, -1.000000000000000000 ) ) ;
#107 = APPROVAL_DATE_TIME ( #74, #27 ) ;
#108 = LINE ( 'NONE', #228, #280 ) ;
#109 = LOCAL_TIME ( 15, 3, 26.00000000000000000, #338 ) ;
#110 = DATE_TIME_ROLE ( 'classification_date' ) ;
#111 = ORIENTED_EDGE ( 'NONE', *, *, #89, .F. ) ;
#112 = DATE_AND_TIME ( #256, #109 ) ;
#113 = CARTESIAN_POINT ( 'NONE',  ( 2673.358078821449908, 2448.486053591475411, 460.0000000000000000 ) ) ;
#114 = CARTESIAN_POINT ( 'NONE',  ( 2673.358078821449908, 2448.486053591475411, 460.0000000000000000 ) ) ;
#115 = CIRCLE ( 'NONE', #173, 559.3876599837482217 ) ;
#116 = CARTESIAN_POINT ( 'NONE',  ( 2673.358078821449908, 2448.486053591475411, 460.0000000000000000 ) ) ;
#117 = LINE ( 'NONE', #141, #271 ) ;
#118 = DIRECTION ( 'NONE',  ( 0.000000000000000000, 0.000000000000000000, -1.000000000000000000 ) ) ;
#119 = APPLICATION_CONTEXT ( 'configuration controlled 3d designs of mechanical parts and assemblies' ) ;
#120 = VECTOR ( 'NONE', #45, 1000.000000000000114 ) ;
#121 = VERTEX_POINT ( 'NONE', #184 ) ;
#122 = ORIENTED_EDGE ( 'NONE', *, *, #294, .F. ) ;
#123 = VERTEX_POINT ( 'NONE', #157 ) ;
#124 = ORIENTED_EDGE ( 'NONE', *, *, #326, .F. ) ;
#125 = CIRCLE ( 'NONE', #30, 549.3876599837487902 ) ;
#126 = EDGE_LOOP ( 'NONE', ( #4, #97, #151, #166 ) ) ;
#127 = ADVANCED_BREP_SHAPE_REPRESENTATION ( 'COVER 03_\X2\9ed88ba4\X0\_sldprt', ( #220, #60 ), #333 ) ;
#128 = DIRECTION ( 'NONE',  ( -1.000000000000000000, 0.000000000000000000, 0.000000000000000000 ) ) ;
#129 = LINE ( 'NONE', #337, #341 ) ;
#130 = VECTOR ( 'NONE', #106, 1000.000000000000000 ) ;
#131 = ADVANCED_FACE ( 'NONE', ( #371 ), #188, .F. ) ;
#132 = DIRECTION ( 'NONE',  ( 1.000000000000000000, 0.000000000000000000, 0.000000000000000000 ) ) ;
#133 = CYLINDRICAL_SURFACE ( 'NONE', #6, 109.8775319967493260 ) ;
#134 =( NAMED_UNIT ( * ) PLANE_ANGLE_UNIT ( ) SI_UNIT ( $, .RADIAN. ) );
#135 = FACE_OUTER_BOUND ( 'NONE', #180, .T. ) ;
#136 = DATE_AND_TIME ( #79, #174 ) ;
#137 = CARTESIAN_POINT ( 'NONE',  ( 2683.361184815539673, 2448.486053591475411, 460.0000000000000000 ) ) ;
#138 = PRODUCT_DEFINITION_FORMATION_WITH_SPECIFIED_SOURCE ( '任何', '', #37, .NOT_KNOWN. ) ;
#139 = APPROVAL_DATE_TIME ( #112, #186 ) ;
#140 = PLANE ( 'NONE',  #65 ) ;
#141 = CARTESIAN_POINT ( 'NONE',  ( 2662.365698432745376, 2160.314526697125075, 460.0000000000000000 ) ) ;
#142 = EDGE_CURVE ( 'NONE', #39, #328, #248, .T. ) ;
#143 = COORDINATED_UNIVERSAL_TIME_OFFSET ( 8, 0, .AHEAD. ) ;
#144 = DIRECTION ( 'NONE',  ( -0.9613517378191362983, 0.2753231486673915485, 0.000000000000000000 ) ) ;
#145 = CARTESIAN_POINT ( 'NONE',  ( 3079.931142053899748, 1803.290856283120092, 460.0000000000000000 ) ) ;
#146 = EDGE_CURVE ( 'NONE', #355, #121, #362, .T. ) ;
#147 = ORIENTED_EDGE ( 'NONE', *, *, #49, .F. ) ;
#148 = VECTOR ( 'NONE', #369, 1000.000000000000000 ) ;
#149 = ORIENTED_EDGE ( 'NONE', *, *, #142, .F. ) ;
#150 = APPLICATION_CONTEXT ( 'configuration controlled 3d designs of mechanical parts and assemblies' ) ;
#151 = ORIENTED_EDGE ( 'NONE', *, *, #146, .F. ) ;
#152 = ORIENTED_EDGE ( 'NONE', *, *, #350, .T. ) ;
#153 = ADVANCED_FACE ( 'NONE', ( #281 ), #133, .T. ) ;
#154 = ORIENTED_EDGE ( 'NONE', *, *, #283, .F. ) ;
#155 = CIRCLE ( 'NONE', #282, 99.87753199674909865 ) ;
#156 = LINE ( 'NONE', #312, #199 ) ;
#157 = CARTESIAN_POINT ( 'NONE',  ( 2662.365698432745376, 2160.314526697125075, 0.000000000000000000 ) ) ;
#158 = DIRECTION ( 'NONE',  ( 0.000000000000000000, 0.000000000000000000, 1.000000000000000000 ) ) ;
#159 = EDGE_CURVE ( 'NONE', #213, #303, #32, .T. ) ;
#160 = DIRECTION ( 'NONE',  ( 0.000000000000000000, 0.000000000000000000, 1.000000000000000000 ) ) ;
#161 = CARTESIAN_POINT ( 'NONE',  ( 2578.852609708759701, 2231.719260780215336, 460.0000000000000000 ) ) ;
#162 = CIRCLE ( 'NONE', #318, 549.3876599837487902 ) ;
#163 = PERSON_AND_ORGANIZATION ( #265, #275 ) ;
#164 = DIRECTION ( 'NONE',  ( 0.000000000000000000, 0.000000000000000000, -1.000000000000000000 ) ) ;
#165 = APPROVAL_ROLE ( '' ) ;
#166 = ORIENTED_EDGE ( 'NONE', *, *, #49, .T. ) ;
#167 = APPLICATION_PROTOCOL_DEFINITION ( 'international standard', 'config_control_design', 1994, #119 ) ;
#168 = EDGE_CURVE ( 'NONE', #62, #123, #117, .T. ) ;
#169 = DIRECTION ( 'NONE',  ( 0.000000000000000000, 0.000000000000000000, -1.000000000000000000 ) ) ;
#170 = DIRECTION ( 'NONE',  ( -0.02491805614023449161, 0.9996894970330497676, 0.000000000000000000 ) ) ;
#171 = DIRECTION ( 'NONE',  ( -1.000000000000000000, 0.000000000000000000, 0.000000000000000000 ) ) ;
#172 = ORIENTED_EDGE ( 'NONE', *, *, #13, .F. ) ;
#173 = AXIS2_PLACEMENT_3D ( 'NONE', #268, #3, #291 ) ;
#174 = LOCAL_TIME ( 15, 3, 26.00000000000000000, #81 ) ;
#175 = DIRECTION ( 'NONE',  ( 1.000000000000000000, 0.000000000000000000, 0.000000000000000000 ) ) ;
#176 = EDGE_LOOP ( 'NONE', ( #270, #10, #96, #242 ) ) ;
#177 = ORIENTED_EDGE ( 'NONE', *, *, #372, .T. ) ;
#178 = FACE_OUTER_BOUND ( 'NONE', #209, .T. ) ;
#179 = CIRCLE ( 'NONE', #35, 99.87753199674909865 ) ;
#180 = EDGE_LOOP ( 'NONE', ( #64, #147, #122, #273 ) ) ;
#181 = VERTEX_POINT ( 'NONE', #88 ) ;
#182 = ADVANCED_FACE ( 'NONE', ( #263 ), #232, .T. ) ;
#183 = ORIENTED_EDGE ( 'NONE', *, *, #283, .T. ) ;
#184 = CARTESIAN_POINT ( 'NONE',  ( 2549.100798322214814, 1944.874566914395018, 460.0000000000000000 ) ) ;
#185 = AXIS2_PLACEMENT_3D ( 'NONE', #161, #164, #128 ) ;
#186 = APPROVAL ( #279, '未指定' ) ;
#187 = DIRECTION ( 'NONE',  ( 0.000000000000000000, 0.000000000000000000, -1.000000000000000000 ) ) ;
#188 = PLANE ( 'NONE',  #243 ) ;
#189 = CARTESIAN_POINT ( 'NONE',  ( 2683.361184815539673, 2448.486053591475411, 0.000000000000000000 ) ) ;
#190 = LINE ( 'NONE', #137, #101 ) ;
#191 = AXIS2_PLACEMENT_3D ( 'NONE', #87, #374, #144 ) ;
#192 =( NAMED_UNIT ( * ) SI_UNIT ( $, .STERADIAN. ) SOLID_ANGLE_UNIT ( ) );
#193 = DIRECTION ( 'NONE',  ( 0.000000000000000000, 0.000000000000000000, -1.000000000000000000 ) ) ;
#194 = ADVANCED_FACE ( 'NONE', ( #204 ), #140, .F. ) ;
#195 = PERSON_AND_ORGANIZATION ( #265, #275 ) ;
#196 = LINE ( 'NONE', #116, #370 ) ;
#197 = PERSON_AND_ORGANIZATION ( #265, #275 ) ;
#198 = CARTESIAN_POINT ( 'NONE',  ( 2673.358078821449908, 2448.486053591475411, 0.000000000000000000 ) ) ;
#199 = VECTOR ( 'NONE', #206, 999.9999999999998863 ) ;
#200 = CALENDAR_DATE ( 2026, 10, 4 ) ;
#201 = LINE ( 'NONE', #86, #325 ) ;
#202 = DATE_AND_TIME ( #200, #66 ) ;
#203 = CARTESIAN_POINT ( 'NONE',  ( 3079.931142053899748, 1803.290856283120092, 0.000000000000000000 ) ) ;
#204 = FACE_OUTER_BOUND ( 'NONE', #176, .T. ) ;
#205 = PRODUCT_DEFINITION_SHAPE ( 'NONE', 'NONE',  #237 ) ;
#206 = DIRECTION ( 'NONE',  ( -0.02491805614023494611, 0.9996894970330498786, 0.000000000000000000 ) ) ;
#207 = CIRCLE ( 'NONE', #329, 109.8775319967493260 ) ;
#208 = ORIENTED_EDGE ( 'NONE', *, *, #159, .T. ) ;
#209 = EDGE_LOOP ( 'NONE', ( #154, #172, #301, #293, #111, #274, #149, #124 ) ) ;
#210 = VECTOR ( 'NONE', #171, 1000.000000000000000 ) ;
#211 = EDGE_CURVE ( 'NONE', #213, #267, #196, .T. ) ;
#212 = ORIENTED_EDGE ( 'NONE', *, *, #249, .T. ) ;
#213 = VERTEX_POINT ( 'NONE', #114 ) ;
#214 = ORIENTED_EDGE ( 'NONE', *, *, #316, .T. ) ;
#215 = CYLINDRICAL_SURFACE ( 'NONE', #353, 559.3876599837482217 ) ;
#216 = AXIS2_PLACEMENT_3D ( 'NONE', #342, #193, #48 ) ;
#217 = APPROVAL_PERSON_ORGANIZATION ( #195, #375, #354 ) ;
#218 = PERSON_AND_ORGANIZATION_ROLE ( 'creator' ) ;
#219 = DIRECTION ( 'NONE',  ( -1.000000000000000000, 0.000000000000000000, 0.000000000000000000 ) ) ;
#220 = MANIFOLD_SOLID_BREP ( '输入1', #289 ) ;
#221 = CALENDAR_DATE ( 2026, 10, 4 ) ;
#222 = CARTESIAN_POINT ( 'NONE',  ( 2654.765137407519887, 2166.813101317899964, 0.000000000000000000 ) ) ;
#223 = DIRECTION ( 'NONE',  ( 1.000000000000000000, 0.000000000000000000, 0.000000000000000000 ) ) ;
#224 = CYLINDRICAL_SURFACE ( 'NONE', #216, 549.3876599837487902 ) ;
#225 = EDGE_CURVE ( 'NONE', #8, #213, #349, .T. ) ;
#226 = VECTOR ( 'NONE', #339, 1000.000000000000000 ) ;
#227 = COORDINATED_UNIVERSAL_TIME_OFFSET ( 8, 0, .AHEAD. ) ;
#228 = CARTESIAN_POINT ( 'NONE',  ( 2673.358078821449908, 2448.486053591475411, 0.000000000000000000 ) ) ;
#229 = DIRECTION ( 'NONE',  ( 0.000000000000000000, 0.000000000000000000, 1.000000000000000000 ) ) ;
#230 = DIRECTION ( 'NONE',  ( 0.000000000000000000, -1.000000000000000000, 0.000000000000000000 ) ) ;
#231 = CC_DESIGN_PERSON_AND_ORGANIZATION_ASSIGNMENT ( #284, #18, ( #78 ) ) ;
#232 = PLANE ( 'NONE',  #40 ) ;
#233 = VECTOR ( 'NONE', #314, 999.9999999999998863 ) ;
#234 = DIRECTION ( 'NONE',  ( 0.000000000000000000, 0.000000000000000000, -1.000000000000000000 ) ) ;
#235 = DIRECTION ( 'NONE',  ( 0.000000000000000000, 0.000000000000000000, -1.000000000000000000 ) ) ;
#236 = ORIENTED_EDGE ( 'NONE', *, *, #9, .F. ) ;
#237 = PRODUCT_DEFINITION ( '未知', '', #138, #238 ) ;
#238 = DESIGN_CONTEXT ( 'detailed design', #150, 'design' ) ;
#239 = APPROVAL_PERSON_ORGANIZATION ( #103, #27, #165 ) ;
#240 = ORIENTED_EDGE ( 'NONE', *, *, #372, .F. ) ;
#241 = ORIENTED_EDGE ( 'NONE', *, *, #344, .T. ) ;
#242 = ORIENTED_EDGE ( 'NONE', *, *, #5, .T. ) ;
#243 = AXIS2_PLACEMENT_3D ( 'NONE', #17, #278, #277 ) ;
#244 = EDGE_LOOP ( 'NONE', ( #255, #276, #22, #67 ) ) ;
#245 = DIRECTION ( 'NONE',  ( 0.000000000000000000, 0.000000000000000000, 1.000000000000000000 ) ) ;
#246 = ORIENTED_EDGE ( 'NONE', *, *, #168, .F. ) ;
#247 = UNCERTAINTY_MEASURE_WITH_UNIT (LENGTH_MEASURE( 1.000000000000000082E-05 ), #259, 'distance_accuracy_value', 'NONE');
#248 = LINE ( 'NONE', #310, #233 ) ;
#249 = EDGE_CURVE ( 'NONE', #121, #62, #162, .T. ) ;
#250 = CARTESIAN_POINT ( 'NONE',  ( 2549.100798322214814, 1944.874566914395018, 460.0000000000000000 ) ) ;
#251 = VECTOR ( 'NONE', #82, 999.9999999999998863 ) ;
#252 = APPLICATION_PROTOCOL_DEFINITION ( 'international standard', 'config_control_design', 1994, #150 ) ;
#253 = CARTESIAN_POINT ( 'NONE',  ( 2578.852609708759701, 2231.719260780215336, 460.0000000000000000 ) ) ;
#254 = CARTESIAN_POINT ( 'NONE',  ( 2578.852609708759701, 2231.719260780215336, 460.0000000000000000 ) ) ;
#255 = ORIENTED_EDGE ( 'NONE', *, *, #326, .T. ) ;
#256 = CALENDAR_DATE ( 2026, 10, 4 ) ;
#257 = CARTESIAN_POINT ( 'NONE',  ( 3079.931142053899748, 1803.290856283120092, 460.0000000000000000 ) ) ;
#258 = CC_DESIGN_APPROVAL ( #186, ( #237 ) ) ;
#259 =( LENGTH_UNIT ( ) NAMED_UNIT ( * ) SI_UNIT ( .MILLI., .METRE. ) );
#260 = CARTESIAN_POINT ( 'NONE',  ( 2578.852609708759701, 2231.719260780215336, 0.000000000000000000 ) ) ;
#261 = ADVANCED_FACE ( 'NONE', ( #29 ), #24, .F. ) ;
#262 = CARTESIAN_POINT ( 'NONE',  ( 2549.100798322214814, 1944.874566914395018, 460.0000000000000000 ) ) ;
#263 = FACE_OUTER_BOUND ( 'NONE', #14, .T. ) ;
#264 = AXIS2_PLACEMENT_3D ( 'NONE', #361, #160, #132 ) ;
#265 = PERSON ( '未指定', '未指定', '未指定', ('未指定'), ('未指定'), ('未指定') ) ;
#266 = CARTESIAN_POINT ( 'NONE',  ( 2678.699129435490249, 2234.208014729655133, 460.0000000000000000 ) ) ;
#267 = VERTEX_POINT ( 'NONE', #198 ) ;
#268 = CARTESIAN_POINT ( 'NONE',  ( 3079.931142053899748, 1803.290856283120092, 460.0000000000000000 ) ) ;
#269 = EDGE_CURVE ( 'NONE', #303, #181, #85, .T. ) ;
#270 = ORIENTED_EDGE ( 'NONE', *, *, #70, .T. ) ;
#271 = VECTOR ( 'NONE', #315, 1000.000000000000000 ) ;
#272 = ORIENTED_EDGE ( 'NONE', *, *, #211, .T. ) ;
#273 = ORIENTED_EDGE ( 'NONE', *, *, #9, .T. ) ;
#274 = ORIENTED_EDGE ( 'NONE', *, *, #70, .F. ) ;
#275 = ORGANIZATION ( '未指定', '未指定', '' ) ;
#276 = ORIENTED_EDGE ( 'NONE', *, *, #322, .F. ) ;
#277 = DIRECTION ( 'NONE',  ( 0.02491805614023494264, -0.9996894970330497676, 0.000000000000000000 ) ) ;
#278 = DIRECTION ( 'NONE',  ( -0.9996894970330497676, -0.02491805614023494264, 0.000000000000000000 ) ) ;
#279 = APPROVAL_STATUS ( 'not_yet_approved' ) ;
#280 = VECTOR ( 'NONE', #313, 999.9999999999998863 ) ;
#281 = FACE_OUTER_BOUND ( 'NONE', #244, .T. ) ;
#282 = AXIS2_PLACEMENT_3D ( 'NONE', #260, #118, #295 ) ;
#283 = EDGE_CURVE ( 'NONE', #11, #123, #125, .T. ) ;
#284 = PERSON_AND_ORGANIZATION ( #265, #275 ) ;
#285 = LINE ( 'NONE', #73, #130 ) ;
#286 = CARTESIAN_POINT ( 'NONE',  ( 2688.696024405825028, 2234.457195291055086, 460.0000000000000000 ) ) ;
#287 = DIRECTION ( 'NONE',  ( 1.000000000000000000, 0.000000000000000000, 0.000000000000000000 ) ) ;
#288 = EDGE_CURVE ( 'NONE', #181, #95, #155, .T. ) ;
#289 = CLOSED_SHELL ( 'NONE', ( #92, #153, #131, #194, #311, #21, #61, #261, #182, #363 ) ) ;
#290 = PERSON_AND_ORGANIZATION_ROLE ( 'design_owner' ) ;
#291 = DIRECTION ( 'NONE',  ( 1.000000000000000000, 0.000000000000000000, 0.000000000000000000 ) ) ;
#292 = PLANE ( 'NONE',  #348 ) ;
#293 = ORIENTED_EDGE ( 'NONE', *, *, #288, .F. ) ;
#294 = EDGE_CURVE ( 'NONE', #331, #355, #115, .T. ) ;
#295 = DIRECTION ( 'NONE',  ( 1.000000000000000000, 0.000000000000000000, 0.000000000000000000 ) ) ;
#296 = ORIENTED_EDGE ( 'NONE', *, *, #146, .T. ) ;
#297 = APPROVAL_DATE_TIME ( #202, #375 ) ;
#298 = CC_DESIGN_PERSON_AND_ORGANIZATION_ASSIGNMENT ( #163, #340, ( #138 ) ) ;
#299 = EDGE_LOOP ( 'NONE', ( #356, #236, #240, #357 ) ) ;
#300 = VECTOR ( 'NONE', #2, 1000.000000000000000 ) ;
#301 = ORIENTED_EDGE ( 'NONE', *, *, #83, .F. ) ;
#302 = EDGE_LOOP ( 'NONE', ( #183, #246, #33, #214 ) ) ;
#303 = VERTEX_POINT ( 'NONE', #317 ) ;
#304 = CC_DESIGN_PERSON_AND_ORGANIZATION_ASSIGNMENT ( #50, #290, ( #37 ) ) ;
#305 = APPROVAL_PERSON_ORGANIZATION ( #44, #186, #72 ) ;
#306 = CARTESIAN_POINT ( 'NONE',  ( 2654.765137407519887, 2166.813101317899964, 460.0000000000000000 ) ) ;
#307 = CARTESIAN_POINT ( 'NONE',  ( 2654.765137407519887, 2166.813101317899964, 460.0000000000000000 ) ) ;
#308 = CYLINDRICAL_SURFACE ( 'NONE', #185, 99.87753199674909865 ) ;
#309 = DIRECTION ( 'NONE',  ( 0.000000000000000000, 0.000000000000000000, -1.000000000000000000 ) ) ;
#310 = CARTESIAN_POINT ( 'NONE',  ( 2683.361184815539673, 2448.486053591475411, 0.000000000000000000 ) ) ;
#311 = ADVANCED_FACE ( 'NONE', ( #343 ), #292, .F. ) ;
#312 = CARTESIAN_POINT ( 'NONE',  ( 2683.361184815539673, 2448.486053591475411, 460.0000000000000000 ) ) ;
#313 = DIRECTION ( 'NONE',  ( 0.02491805614023449508, -0.9996894970330498786, 0.000000000000000000 ) ) ;
#314 = DIRECTION ( 'NONE',  ( -0.02491805614023494611, 0.9996894970330498786, 0.000000000000000000 ) ) ;
#315 = DIRECTION ( 'NONE',  ( 0.000000000000000000, 0.000000000000000000, -1.000000000000000000 ) ) ;
#316 = EDGE_CURVE ( 'NONE', #121, #11, #26, .T. ) ;
#317 = CARTESIAN_POINT ( 'NONE',  ( 2678.699129435490249, 2234.208014729655133, 460.0000000000000000 ) ) ;
#318 = AXIS2_PLACEMENT_3D ( 'NONE', #53, #169, #346 ) ;
#319 = SHAPE_DEFINITION_REPRESENTATION ( #205, #127 ) ;
#320 = DIRECTION ( 'NONE',  ( 0.000000000000000000, 0.000000000000000000, -1.000000000000000000 ) ) ;
#321 = DIRECTION ( 'NONE',  ( 0.000000000000000000, 0.000000000000000000, 1.000000000000000000 ) ) ;
#322 = EDGE_CURVE ( 'NONE', #91, #39, #201, .T. ) ;
#323 = APPROVAL_STATUS ( 'not_yet_approved' ) ;
#324 = DIRECTION ( 'NONE',  ( 0.000000000000000000, 0.000000000000000000, -1.000000000000000000 ) ) ;
#325 = VECTOR ( 'NONE', #320, 1000.000000000000000 ) ;
#326 = EDGE_CURVE ( 'NONE', #123, #39, #207, .T. ) ;
#327 = EDGE_LOOP ( 'NONE', ( #332, #36, #68, #330 ) ) ;
#328 = VERTEX_POINT ( 'NONE', #189 ) ;
#329 = AXIS2_PLACEMENT_3D ( 'NONE', #57, #321, #99 ) ;
#330 = ORIENTED_EDGE ( 'NONE', *, *, #322, .T. ) ;
#331 = VERTEX_POINT ( 'NONE', #307 ) ;
#332 = ORIENTED_EDGE ( 'NONE', *, *, #142, .T. ) ;
#333 =( GEOMETRIC_REPRESENTATION_CONTEXT ( 3 ) GLOBAL_UNCERTAINTY_ASSIGNED_CONTEXT ( ( #247 ) ) GLOBAL_UNIT_ASSIGNED_CONTEXT ( ( #259, #134, #192 ) ) REPRESENTATION_CONTEXT ( 'NONE', 'WORKASPACE' ) );
#334 = LINE ( 'NONE', #306, #226 ) ;
#335 = DATE_AND_TIME ( #345, #90 ) ;
#336 = CC_DESIGN_DATE_AND_TIME_ASSIGNMENT ( #136, #110, ( #78 ) ) ;
#337 = CARTESIAN_POINT ( 'NONE',  ( 2549.100798322214814, 1944.874566914395018, 0.000000000000000000 ) ) ;
#338 = COORDINATED_UNIVERSAL_TIME_OFFSET ( 8, 0, .AHEAD. ) ;
#339 = DIRECTION ( 'NONE',  ( 0.000000000000000000, 0.000000000000000000, -1.000000000000000000 ) ) ;
#340 = PERSON_AND_ORGANIZATION_ROLE ( 'design_supplier' ) ;
#341 = VECTOR ( 'NONE', #368, 1000.000000000000114 ) ;
#342 = CARTESIAN_POINT ( 'NONE',  ( 3079.931142053899748, 1803.290856283120092, 460.0000000000000000 ) ) ;
#343 = FACE_OUTER_BOUND ( 'NONE', #94, .T. ) ;
#344 = EDGE_CURVE ( 'NONE', #62, #91, #377, .T. ) ;
#345 = CALENDAR_DATE ( 2026, 10, 4 ) ;
#346 = DIRECTION ( 'NONE',  ( 1.000000000000000000, 0.000000000000000000, 0.000000000000000000 ) ) ;
#347 = DIRECTION ( 'NONE',  ( 0.000000000000000000, 0.000000000000000000, -1.000000000000000000 ) ) ;
#348 = AXIS2_PLACEMENT_3D ( 'NONE', #54, #373, #170 ) ;
#349 = LINE ( 'NONE', #59, #210 ) ;
#350 = EDGE_CURVE ( 'NONE', #91, #8, #156, .T. ) ;
#351 = DIRECTION ( 'NONE',  ( -1.000000000000000000, 0.000000000000000000, 0.000000000000000000 ) ) ;
#352 = CARTESIAN_POINT ( 'NONE',  ( 2539.485704518490365, 1947.628249876240034, 460.0000000000000000 ) ) ;
#353 = AXIS2_PLACEMENT_3D ( 'NONE', #257, #12, #219 ) ;
#354 = APPROVAL_ROLE ( '' ) ;
#355 = VERTEX_POINT ( 'NONE', #352 ) ;
#356 = ORIENTED_EDGE ( 'NONE', *, *, #288, .T. ) ;
#357 = ORIENTED_EDGE ( 'NONE', *, *, #269, .T. ) ;
#358 = ORIENTED_EDGE ( 'NONE', *, *, #294, .T. ) ;
#359 = DIRECTION ( 'NONE',  ( 1.000000000000000000, 0.000000000000000000, 0.000000000000000000 ) ) ;
#360 = ORIENTED_EDGE ( 'NONE', *, *, #225, .T. ) ;
#361 = CARTESIAN_POINT ( 'NONE',  ( 3079.931142053899748, 1803.290856283120092, 0.000000000000000000 ) ) ;
#362 = LINE ( 'NONE', #250, #120 ) ;
#363 = ADVANCED_FACE ( 'NONE', ( #178 ), #93, .F. ) ;
#364 = AXIS2_PLACEMENT_3D ( 'NONE', #100, #158, #42 ) ;
#365 = CARTESIAN_POINT ( 'NONE',  ( 0.000000000000000000, 0.000000000000000000, 0.000000000000000000 ) ) ;
#366 = CARTESIAN_POINT ( 'NONE',  ( 2683.361184815539673, 2448.486053591475411, 460.0000000000000000 ) ) ;
#367 = APPROVAL_STATUS ( 'not_yet_approved' ) ;
#368 = DIRECTION ( 'NONE',  ( 0.9613517378191362983, -0.2753231486673915485, 0.000000000000000000 ) ) ;
#369 = DIRECTION ( 'NONE',  ( -1.000000000000000000, 0.000000000000000000, 0.000000000000000000 ) ) ;
#370 = VECTOR ( 'NONE', #324, 1000.000000000000000 ) ;
#371 = FACE_OUTER_BOUND ( 'NONE', #327, .T. ) ;
#372 = EDGE_CURVE ( 'NONE', #303, #331, #179, .T. ) ;
#373 = DIRECTION ( 'NONE',  ( 0.9996894970330497676, 0.02491805614023449161, 0.000000000000000000 ) ) ;
#374 = DIRECTION ( 'NONE',  ( 0.2753231486673915485, 0.9613517378191362983, 0.000000000000000000 ) ) ;
#375 = APPROVAL ( #323, '未指定' ) ;
#376 = DIRECTION ( 'NONE',  ( 0.000000000000000000, 0.000000000000000000, 1.000000000000000000 ) ) ;
#377 = CIRCLE ( 'NONE', #46, 109.8775319967493260 ) ;
ENDSEC;
END-ISO-10303-21;
