ISO-10303-21;
HEADER;
FILE_DESCRIPTION (( 'STEP AP203' ),
    '1' );
FILE_NAME ('COVER 02_默认_sldprt.STEP',
    '2026-04-10T07:03:25',
    ( '' ),
    ( '' ),
    'SwSTEP 2.0',
    'SolidWorks 2022',
    '' );
FILE_SCHEMA (( 'CONFIG_CONTROL_DESIGN' ));
ENDSEC;

DATA;
#1 = ORIENTED_EDGE ( 'NONE', *, *, #79, .T. ) ;
#2 = ORIENTED_EDGE ( 'NONE', *, *, #233, .F. ) ;
#3 = ADVANCED_FACE ( 'NONE', ( #74 ), #221, .F. ) ;
#4 = DIRECTION ( 'NONE',  ( -0.3624796339402933665, -0.9319916925480135061, 0.000000000000000000 ) ) ;
#5 = PRODUCT_DEFINITION ( '未知', '', #271, #300 ) ;
#6 = DIRECTION ( 'NONE',  ( -1.000000000000000000, 0.000000000000000000, 0.000000000000000000 ) ) ;
#7 = APPROVAL_PERSON_ORGANIZATION ( #21, #188, #40 ) ;
#8 = DIRECTION ( 'NONE',  ( 0.3008521040918959999, 0.9536708087508388720, 0.000000000000000000 ) ) ;
#9 = CARTESIAN_POINT ( 'NONE',  ( 2709.063164578962642, 1808.283703845979971, 430.0000000000000000 ) ) ;
#10 = ADVANCED_FACE ( 'NONE', ( #131 ), #181, .T. ) ;
#11 = CARTESIAN_POINT ( 'NONE',  ( 3052.559283902834977, 1293.126232147355950, 430.0000000000000000 ) ) ;
#12 = AXIS2_PLACEMENT_3D ( 'NONE', #185, #61, #6 ) ;
#13 = CARTESIAN_POINT ( 'NONE',  ( 3052.559283902834977, 1293.126232147355950, 0.000000000000000000 ) ) ;
#14 = APPROVAL ( #117, '未指定' ) ;
#15 = PERSON_AND_ORGANIZATION_ROLE ( 'design_owner' ) ;
#16 = VERTEX_POINT ( 'NONE', #159 ) ;
#17 = SHAPE_DEFINITION_REPRESENTATION ( #78, #125 ) ;
#18 = ORIENTED_EDGE ( 'NONE', *, *, #63, .F. ) ;
#19 = AXIS2_PLACEMENT_3D ( 'NONE', #179, #291, #203 ) ;
#20 = APPLICATION_PROTOCOL_DEFINITION ( 'international standard', 'config_control_design', 1994, #298 ) ;
#21 = PERSON_AND_ORGANIZATION ( #41, #168 ) ;
#22 = ORIENTED_EDGE ( 'NONE', *, *, #59, .F. ) ;
#23 = ORIENTED_EDGE ( 'NONE', *, *, #90, .F. ) ;
#24 = VECTOR ( 'NONE', #51, 1000.000000000000000 ) ;
#25 =( GEOMETRIC_REPRESENTATION_CONTEXT ( 3 ) GLOBAL_UNCERTAINTY_ASSIGNED_CONTEXT ( ( #205 ) ) GLOBAL_UNIT_ASSIGNED_CONTEXT ( ( #255, #165, #46 ) ) REPRESENTATION_CONTEXT ( 'NONE', 'WORKASPACE' ) );
#26 = CARTESIAN_POINT ( 'NONE',  ( 2722.163894248149973, 1925.885180988620050, 0.000000000000000000 ) ) ;
#27 = CARTESIAN_POINT ( 'NONE',  ( 2709.063164578962642, 1808.283703845979971, 0.000000000000000000 ) ) ;
#28 = DIRECTION ( 'NONE',  ( 1.000000000000000000, 0.000000000000000000, 0.000000000000000000 ) ) ;
#29 = VECTOR ( 'NONE', #198, 999.9999999999998863 ) ;
#30 = CYLINDRICAL_SURFACE ( 'NONE', #75, 534.3876599837477670 ) ;
#31 = EDGE_CURVE ( 'NONE', #121, #245, #224, .T. ) ;
#32 = CARTESIAN_POINT ( 'NONE',  ( 3243.450824562710295, 1808.283703845979971, 0.000000000000000000 ) ) ;
#33 = CARTESIAN_POINT ( 'NONE',  ( 3243.450824562710295, 1808.283703845979971, 0.000000000000000000 ) ) ;
#34 = CARTESIAN_POINT ( 'NONE',  ( 798.9516365339479762, 2532.596059668574981, 430.0000000000000000 ) ) ;
#35 = DIRECTION ( 'NONE',  ( 1.000000000000000000, 0.000000000000000000, 0.000000000000000000 ) ) ;
#36 = CC_DESIGN_PERSON_AND_ORGANIZATION_ASSIGNMENT ( #244, #174, ( #271 ) ) ;
#37 = DIRECTION ( 'NONE',  ( 0.000000000000000000, 0.000000000000000000, 1.000000000000000000 ) ) ;
#38 = DIRECTION ( 'NONE',  ( 0.000000000000000000, 0.000000000000000000, 1.000000000000000000 ) ) ;
#39 = COORDINATED_UNIVERSAL_TIME_OFFSET ( 8, 0, .AHEAD. ) ;
#40 = APPROVAL_ROLE ( '' ) ;
#41 = PERSON ( '未指定', '未指定', '未指定', ('未指定'), ('未指定'), ('未指定') ) ;
#42 = DATE_TIME_ROLE ( 'creation_date' ) ;
#43 = CLOSED_SHELL ( 'NONE', ( #234, #71, #141, #216, #311, #3, #10, #282 ) ) ;
#44 = COORDINATED_UNIVERSAL_TIME_OFFSET ( 8, 0, .AHEAD. ) ;
#45 = EDGE_CURVE ( 'NONE', #16, #245, #77, .T. ) ;
#46 =( NAMED_UNIT ( * ) SI_UNIT ( $, .STERADIAN. ) SOLID_ANGLE_UNIT ( ) );
#47 = EDGE_LOOP ( 'NONE', ( #172, #177, #158, #241 ) ) ;
#48 = LINE ( 'NONE', #253, #242 ) ;
#49 = AXIS2_PLACEMENT_3D ( 'NONE', #294, #81, #296 ) ;
#50 = EDGE_CURVE ( 'NONE', #97, #121, #173, .T. ) ;
#51 = DIRECTION ( 'NONE',  ( 0.3624796339402933665, 0.9319916925480135061, 0.000000000000000000 ) ) ;
#52 = CC_DESIGN_DATE_AND_TIME_ASSIGNMENT ( #62, #169, ( #191 ) ) ;
#53 = ORIENTED_EDGE ( 'NONE', *, *, #178, .T. ) ;
#54 = CARTESIAN_POINT ( 'NONE',  ( 798.9516365339479762, 2532.596059668574981, 0.000000000000000000 ) ) ;
#55 = LINE ( 'NONE', #161, #257 ) ;
#56 = EDGE_CURVE ( 'NONE', #263, #129, #214, .T. ) ;
#57 = DIRECTION ( 'NONE',  ( 0.3624796339402933665, 0.9319916925480135061, 0.000000000000000000 ) ) ;
#58 = FACE_OUTER_BOUND ( 'NONE', #102, .T. ) ;
#59 = EDGE_CURVE ( 'NONE', #119, #97, #72, .T. ) ;
#60 = CYLINDRICAL_SURFACE ( 'NONE', #252, 534.3876599837477670 ) ;
#61 = DIRECTION ( 'NONE',  ( 0.000000000000000000, 0.000000000000000000, -1.000000000000000000 ) ) ;
#62 = DATE_AND_TIME ( #91, #302 ) ;
#63 = EDGE_CURVE ( 'NONE', #263, #119, #48, .T. ) ;
#64 = SECURITY_CLASSIFICATION_LEVEL ( 'unclassified' ) ;
#65 = ORIENTED_EDGE ( 'NONE', *, *, #90, .T. ) ;
#66 = PERSON_AND_ORGANIZATION ( #41, #168 ) ;
#67 = EDGE_LOOP ( 'NONE', ( #197, #2, #70, #239, #95, #107 ) ) ;
#68 = CC_DESIGN_APPROVAL ( #14, ( #271 ) ) ;
#69 = APPROVAL_ROLE ( '' ) ;
#70 = ORIENTED_EDGE ( 'NONE', *, *, #56, .T. ) ;
#71 = ADVANCED_FACE ( 'NONE', ( #288 ), #30, .F. ) ;
#72 = LINE ( 'NONE', #54, #29 ) ;
#73 = CC_DESIGN_DATE_AND_TIME_ASSIGNMENT ( #152, #42, ( #5 ) ) ;
#74 = FACE_OUTER_BOUND ( 'NONE', #309, .T. ) ;
#75 = AXIS2_PLACEMENT_3D ( 'NONE', #134, #135, #80 ) ;
#76 = ORIENTED_EDGE ( 'NONE', *, *, #238, .T. ) ;
#77 = LINE ( 'NONE', #182, #289 ) ;
#78 = PRODUCT_DEFINITION_SHAPE ( 'NONE', 'NONE',  #5 ) ;
#79 = EDGE_CURVE ( 'NONE', #292, #245, #277, .T. ) ;
#80 = DIRECTION ( 'NONE',  ( -1.000000000000000000, 0.000000000000000000, 0.000000000000000000 ) ) ;
#81 = DIRECTION ( 'NONE',  ( 0.000000000000000000, 0.000000000000000000, -1.000000000000000000 ) ) ;
#82 = PRODUCT_RELATED_PRODUCT_CATEGORY ( 'detail', '', ( #226 ) ) ;
#83 = PLANE ( 'NONE',  #128 ) ;
#84 = EDGE_CURVE ( 'NONE', #175, #121, #55, .T. ) ;
#85 = CARTESIAN_POINT ( 'NONE',  ( 2694.063164578962187, 1808.283703845979971, 430.0000000000000000 ) ) ;
#86 = VECTOR ( 'NONE', #287, 1000.000000000000000 ) ;
#87 = CC_DESIGN_SECURITY_CLASSIFICATION ( #191, ( #271 ) ) ;
#88 = LINE ( 'NONE', #186, #160 ) ;
#89 = CARTESIAN_POINT ( 'NONE',  ( 3243.450824562710295, 1808.283703845979971, 430.0000000000000000 ) ) ;
#90 = EDGE_CURVE ( 'NONE', #119, #124, #206, .T. ) ;
#91 = CALENDAR_DATE ( 2026, 10, 4 ) ;
#92 = EDGE_CURVE ( 'NONE', #225, #292, #229, .T. ) ;
#93 = AXIS2_PLACEMENT_3D ( 'NONE', #310, #275, #104 ) ;
#94 = ORIENTED_EDGE ( 'NONE', *, *, #92, .T. ) ;
#95 = ORIENTED_EDGE ( 'NONE', *, *, #274, .T. ) ;
#96 = CALENDAR_DATE ( 2026, 10, 4 ) ;
#97 = VERTEX_POINT ( 'NONE', #26 ) ;
#98 = DIRECTION ( 'NONE',  ( 1.000000000000000000, 0.000000000000000000, 0.000000000000000000 ) ) ;
#99 = ORIENTED_EDGE ( 'NONE', *, *, #233, .T. ) ;
#100 = CIRCLE ( 'NONE', #276, 534.3876599837477670 ) ;
#101 = LOCAL_TIME ( 15, 3, 25.00000000000000000, #39 ) ;
#102 = EDGE_LOOP ( 'NONE', ( #22, #18, #99, #76 ) ) ;
#103 = DIRECTION ( 'NONE',  ( 0.000000000000000000, 0.000000000000000000, -1.000000000000000000 ) ) ;
#104 = DIRECTION ( 'NONE',  ( 1.000000000000000000, 0.000000000000000000, 0.000000000000000000 ) ) ;
#105 = ORIENTED_EDGE ( 'NONE', *, *, #50, .T. ) ;
#106 = CARTESIAN_POINT ( 'NONE',  ( 0.000000000000000000, 0.000000000000000000, 430.0000000000000000 ) ) ;
#107 = ORIENTED_EDGE ( 'NONE', *, *, #178, .F. ) ;
#108 = CIRCLE ( 'NONE', #219, 549.3876599837479944 ) ;
#109 = LOCAL_TIME ( 15, 3, 25.00000000000000000, #212 ) ;
#110 = CARTESIAN_POINT ( 'NONE',  ( 3057.997199688729779, 1307.107962050741889, 0.000000000000000000 ) ) ;
#111 = DIRECTION ( 'NONE',  ( 0.000000000000000000, 0.000000000000000000, -1.000000000000000000 ) ) ;
#112 = CC_DESIGN_PERSON_AND_ORGANIZATION_ASSIGNMENT ( #120, #153, ( #271 ) ) ;
#113 = LINE ( 'NONE', #137, #114 ) ;
#114 = VECTOR ( 'NONE', #189, 1000.000000000000000 ) ;
#115 = APPROVAL_PERSON_ORGANIZATION ( #149, #247, #69 ) ;
#116 = DIRECTION ( 'NONE',  ( 1.000000000000000000, 0.000000000000000000, 0.000000000000000000 ) ) ;
#117 = APPROVAL_STATUS ( 'not_yet_approved' ) ;
#118 = APPROVAL_STATUS ( 'not_yet_approved' ) ;
#119 = VERTEX_POINT ( 'NONE', #157 ) ;
#120 = PERSON_AND_ORGANIZATION ( #41, #168 ) ;
#121 = VERTEX_POINT ( 'NONE', #27 ) ;
#122 = APPROVAL_DATE_TIME ( #213, #247 ) ;
#123 = EDGE_LOOP ( 'NONE', ( #217, #220, #151, #65 ) ) ;
#124 = VERTEX_POINT ( 'NONE', #235 ) ;
#125 = ADVANCED_BREP_SHAPE_REPRESENTATION ( 'COVER 02_\X2\9ed88ba4\X0\_sldprt', ( #223, #207 ), #25 ) ;
#126 = ORIENTED_EDGE ( 'NONE', *, *, #79, .F. ) ;
#127 = AXIS2_PLACEMENT_3D ( 'NONE', #273, #272, #28 ) ;
#128 = AXIS2_PLACEMENT_3D ( 'NONE', #162, #38, #280 ) ;
#129 = VERTEX_POINT ( 'NONE', #85 ) ;
#130 = ORIENTED_EDGE ( 'NONE', *, *, #133, .F. ) ;
#131 = FACE_OUTER_BOUND ( 'NONE', #67, .T. ) ;
#132 = AXIS2_PLACEMENT_3D ( 'NONE', #258, #236, #116 ) ;
#133 = EDGE_CURVE ( 'NONE', #124, #292, #108, .T. ) ;
#134 = CARTESIAN_POINT ( 'NONE',  ( 3243.450824562710295, 1808.283703845979971, 430.0000000000000000 ) ) ;
#135 = DIRECTION ( 'NONE',  ( 0.000000000000000000, 0.000000000000000000, -1.000000000000000000 ) ) ;
#136 = CC_DESIGN_PERSON_AND_ORGANIZATION_ASSIGNMENT ( #66, #286, ( #5 ) ) ;
#137 = CARTESIAN_POINT ( 'NONE',  ( 2694.063164578962187, 1808.283703845979971, 430.0000000000000000 ) ) ;
#138 = APPROVAL_PERSON_ORGANIZATION ( #303, #14, #215 ) ;
#139 = FACE_OUTER_BOUND ( 'NONE', #264, .T. ) ;
#140 = DIRECTION ( 'NONE',  ( -1.000000000000000000, 0.000000000000000000, 0.000000000000000000 ) ) ;
#141 = ADVANCED_FACE ( 'NONE', ( #237 ), #60, .F. ) ;
#142 = VECTOR ( 'NONE', #57, 1000.000000000000000 ) ;
#143 = LOCAL_TIME ( 15, 3, 25.00000000000000000, #266 ) ;
#144 = CARTESIAN_POINT ( 'NONE',  ( 2214.624727957469986, -861.3342448476710160, 430.0000000000000000 ) ) ;
#145 = CC_DESIGN_PERSON_AND_ORGANIZATION_ASSIGNMENT ( #262, #267, ( #191 ) ) ;
#146 = DIRECTION ( 'NONE',  ( 0.000000000000000000, 0.000000000000000000, 1.000000000000000000 ) ) ;
#147 = COORDINATED_UNIVERSAL_TIME_OFFSET ( 8, 0, .AHEAD. ) ;
#148 = ORIENTED_EDGE ( 'NONE', *, *, #84, .T. ) ;
#149 = PERSON_AND_ORGANIZATION ( #41, #168 ) ;
#150 = LOCAL_TIME ( 15, 3, 25.00000000000000000, #147 ) ;
#151 = ORIENTED_EDGE ( 'NONE', *, *, #63, .T. ) ;
#152 = DATE_AND_TIME ( #301, #143 ) ;
#153 = PERSON_AND_ORGANIZATION_ROLE ( 'design_supplier' ) ;
#154 = EDGE_LOOP ( 'NONE', ( #243, #53, #246, #261 ) ) ;
#155 = EDGE_CURVE ( 'NONE', #129, #225, #265, .T. ) ;
#156 = DIRECTION ( 'NONE',  ( 0.000000000000000000, 0.000000000000000000, 1.000000000000000000 ) ) ;
#157 = CARTESIAN_POINT ( 'NONE',  ( 2707.809953618605050, 1930.413382125515000, 0.000000000000000000 ) ) ;
#158 = ORIENTED_EDGE ( 'NONE', *, *, #133, .T. ) ;
#159 = CARTESIAN_POINT ( 'NONE',  ( 3057.997199688729779, 1307.107962050741889, 430.0000000000000000 ) ) ;
#160 = VECTOR ( 'NONE', #111, 1000.000000000000000 ) ;
#161 = CARTESIAN_POINT ( 'NONE',  ( 2709.063164578962642, 1808.283703845979971, 430.0000000000000000 ) ) ;
#162 = CARTESIAN_POINT ( 'NONE',  ( 0.000000000000000000, 0.000000000000000000, 0.000000000000000000 ) ) ;
#163 = DIRECTION ( 'NONE',  ( 0.9536708087508388720, -0.3008521040918959999, 0.000000000000000000 ) ) ;
#164 = CIRCLE ( 'NONE', #132, 534.3876599837477670 ) ;
#165 =( NAMED_UNIT ( * ) PLANE_ANGLE_UNIT ( ) SI_UNIT ( $, .RADIAN. ) );
#166 = DIRECTION ( 'NONE',  ( 0.000000000000000000, 0.000000000000000000, 1.000000000000000000 ) ) ;
#167 = DIRECTION ( 'NONE',  ( -0.9536708087508387610, 0.3008521040918959444, 0.000000000000000000 ) ) ;
#168 = ORGANIZATION ( '未指定', '未指定', '' ) ;
#169 = DATE_TIME_ROLE ( 'classification_date' ) ;
#170 = APPROVAL_STATUS ( 'not_yet_approved' ) ;
#171 = DATE_AND_TIME ( #285, #109 ) ;
#172 = ORIENTED_EDGE ( 'NONE', *, *, #155, .F. ) ;
#173 = CIRCLE ( 'NONE', #93, 534.3876599837477670 ) ;
#174 = PERSON_AND_ORGANIZATION_ROLE ( 'creator' ) ;
#175 = VERTEX_POINT ( 'NONE', #9 ) ;
#176 = PERSON_AND_ORGANIZATION ( #41, #168 ) ;
#177 = ORIENTED_EDGE ( 'NONE', *, *, #199, .T. ) ;
#178 = EDGE_CURVE ( 'NONE', #175, #16, #164, .T. ) ;
#179 = CARTESIAN_POINT ( 'NONE',  ( 3243.450824562710295, 1808.283703845979971, 0.000000000000000000 ) ) ;
#180 = ORIENTED_EDGE ( 'NONE', *, *, #274, .F. ) ;
#181 = PLANE ( 'NONE',  #200 ) ;
#182 = CARTESIAN_POINT ( 'NONE',  ( 3057.997199688729779, 1307.107962050741889, 430.0000000000000000 ) ) ;
#183 = CARTESIAN_POINT ( 'NONE',  ( 2214.624727957469986, -861.3342448476710160, 0.000000000000000000 ) ) ;
#184 = AXIS2_PLACEMENT_3D ( 'NONE', #32, #156, #249 ) ;
#185 = CARTESIAN_POINT ( 'NONE',  ( 3243.450824562710295, 1808.283703845979971, 430.0000000000000000 ) ) ;
#186 = CARTESIAN_POINT ( 'NONE',  ( 2722.163894248149973, 1925.885180988620050, 430.0000000000000000 ) ) ;
#187 = LINE ( 'NONE', #144, #142 ) ;
#188 = APPROVAL ( #170, '未指定' ) ;
#189 = DIRECTION ( 'NONE',  ( 0.000000000000000000, 0.000000000000000000, -1.000000000000000000 ) ) ;
#190 = CALENDAR_DATE ( 2026, 10, 4 ) ;
#191 = SECURITY_CLASSIFICATION ( '', '', #64 ) ;
#192 = MECHANICAL_CONTEXT ( 'NONE', #227, 'mechanical' ) ;
#193 = ORIENTED_EDGE ( 'NONE', *, *, #59, .T. ) ;
#194 = CARTESIAN_POINT ( 'NONE',  ( 0.000000000000000000, 0.000000000000000000, 0.000000000000000000 ) ) ;
#195 = APPROVAL_DATE_TIME ( #240, #188 ) ;
#196 = ORIENTED_EDGE ( 'NONE', *, *, #238, .F. ) ;
#197 = ORIENTED_EDGE ( 'NONE', *, *, #270, .F. ) ;
#198 = DIRECTION ( 'NONE',  ( 0.9536708087508388720, -0.3008521040918959999, 0.000000000000000000 ) ) ;
#199 = EDGE_CURVE ( 'NONE', #129, #124, #113, .T. ) ;
#200 = AXIS2_PLACEMENT_3D ( 'NONE', #106, #228, #202 ) ;
#201 = CARTESIAN_POINT ( 'NONE',  ( 2214.624727957469986, -861.3342448476710160, 430.0000000000000000 ) ) ;
#202 = DIRECTION ( 'NONE',  ( 1.000000000000000000, 0.000000000000000000, 0.000000000000000000 ) ) ;
#203 = DIRECTION ( 'NONE',  ( 1.000000000000000000, 0.000000000000000000, 0.000000000000000000 ) ) ;
#204 = FACE_OUTER_BOUND ( 'NONE', #123, .T. ) ;
#205 = UNCERTAINTY_MEASURE_WITH_UNIT (LENGTH_MEASURE( 1.000000000000000082E-05 ), #255, 'distance_accuracy_value', 'NONE');
#206 = CIRCLE ( 'NONE', #184, 549.3876599837479944 ) ;
#207 = AXIS2_PLACEMENT_3D ( 'NONE', #194, #146, #98 ) ;
#208 = CARTESIAN_POINT ( 'NONE',  ( 2707.809953618605050, 1930.413382125515000, 430.0000000000000000 ) ) ;
#209 = CYLINDRICAL_SURFACE ( 'NONE', #49, 549.3876599837479944 ) ;
#210 = PLANE ( 'NONE',  #307 ) ;
#211 = LINE ( 'NONE', #34, #279 ) ;
#212 = COORDINATED_UNIVERSAL_TIME_OFFSET ( 8, 0, .AHEAD. ) ;
#213 = DATE_AND_TIME ( #190, #101 ) ;
#214 = CIRCLE ( 'NONE', #127, 549.3876599837479944 ) ;
#215 = APPROVAL_ROLE ( '' ) ;
#216 = ADVANCED_FACE ( 'NONE', ( #58 ), #210, .T. ) ;
#217 = ORIENTED_EDGE ( 'NONE', *, *, #199, .F. ) ;
#218 = VERTEX_POINT ( 'NONE', #297 ) ;
#219 = AXIS2_PLACEMENT_3D ( 'NONE', #33, #166, #259 ) ;
#220 = ORIENTED_EDGE ( 'NONE', *, *, #56, .F. ) ;
#221 = PLANE ( 'NONE',  #231 ) ;
#222 = ORIENTED_EDGE ( 'NONE', *, *, #50, .F. ) ;
#223 = MANIFOLD_SOLID_BREP ( '输入1', #43 ) ;
#224 = CIRCLE ( 'NONE', #19, 534.3876599837477670 ) ;
#225 = VERTEX_POINT ( 'NONE', #11 ) ;
#226 = PRODUCT ( 'COVER 02_\X2\9ed88ba4\X0\_sldprt', 'COVER 02_\X2\9ed88ba4\X0\_sldprt', '', ( #192 ) ) ;
#227 = APPLICATION_CONTEXT ( 'configuration controlled 3d designs of mechanical parts and assemblies' ) ;
#228 = DIRECTION ( 'NONE',  ( 0.000000000000000000, 0.000000000000000000, 1.000000000000000000 ) ) ;
#229 = LINE ( 'NONE', #250, #86 ) ;
#230 = CYLINDRICAL_SURFACE ( 'NONE', #12, 549.3876599837479944 ) ;
#231 = AXIS2_PLACEMENT_3D ( 'NONE', #201, #290, #4 ) ;
#232 = DIRECTION ( 'NONE',  ( 0.000000000000000000, 0.000000000000000000, -1.000000000000000000 ) ) ;
#233 = EDGE_CURVE ( 'NONE', #263, #218, #211, .T. ) ;
#234 = ADVANCED_FACE ( 'NONE', ( #256 ), #230, .T. ) ;
#235 = CARTESIAN_POINT ( 'NONE',  ( 2694.063164578962187, 1808.283703845979971, 0.000000000000000000 ) ) ;
#236 = DIRECTION ( 'NONE',  ( 0.000000000000000000, 0.000000000000000000, 1.000000000000000000 ) ) ;
#237 = FACE_OUTER_BOUND ( 'NONE', #154, .T. ) ;
#238 = EDGE_CURVE ( 'NONE', #218, #97, #88, .T. ) ;
#239 = ORIENTED_EDGE ( 'NONE', *, *, #155, .T. ) ;
#240 = DATE_AND_TIME ( #96, #150 ) ;
#241 = ORIENTED_EDGE ( 'NONE', *, *, #92, .F. ) ;
#242 = VECTOR ( 'NONE', #269, 1000.000000000000000 ) ;
#243 = ORIENTED_EDGE ( 'NONE', *, *, #84, .F. ) ;
#244 = PERSON_AND_ORGANIZATION ( #41, #168 ) ;
#245 = VERTEX_POINT ( 'NONE', #110 ) ;
#246 = ORIENTED_EDGE ( 'NONE', *, *, #45, .T. ) ;
#247 = APPROVAL ( #118, '未指定' ) ;
#248 = CC_DESIGN_APPROVAL ( #247, ( #5 ) ) ;
#249 = DIRECTION ( 'NONE',  ( 1.000000000000000000, 0.000000000000000000, 0.000000000000000000 ) ) ;
#250 = CARTESIAN_POINT ( 'NONE',  ( 3052.559283902834977, 1293.126232147355950, 430.0000000000000000 ) ) ;
#251 = ORIENTED_EDGE ( 'NONE', *, *, #31, .T. ) ;
#252 = AXIS2_PLACEMENT_3D ( 'NONE', #299, #232, #140 ) ;
#253 = CARTESIAN_POINT ( 'NONE',  ( 2707.809953618605050, 1930.413382125515000, 430.0000000000000000 ) ) ;
#254 = DIRECTION ( 'NONE',  ( 0.000000000000000000, 0.000000000000000000, -1.000000000000000000 ) ) ;
#255 =( LENGTH_UNIT ( ) NAMED_UNIT ( * ) SI_UNIT ( .MILLI., .METRE. ) );
#256 = FACE_OUTER_BOUND ( 'NONE', #47, .T. ) ;
#257 = VECTOR ( 'NONE', #254, 1000.000000000000000 ) ;
#258 = CARTESIAN_POINT ( 'NONE',  ( 3243.450824562710295, 1808.283703845979971, 430.0000000000000000 ) ) ;
#259 = DIRECTION ( 'NONE',  ( 1.000000000000000000, 0.000000000000000000, 0.000000000000000000 ) ) ;
#260 = CARTESIAN_POINT ( 'NONE',  ( 3243.450824562710295, 1808.283703845979971, 430.0000000000000000 ) ) ;
#261 = ORIENTED_EDGE ( 'NONE', *, *, #31, .F. ) ;
#262 = PERSON_AND_ORGANIZATION ( #41, #168 ) ;
#263 = VERTEX_POINT ( 'NONE', #208 ) ;
#264 = EDGE_LOOP ( 'NONE', ( #105, #251, #126, #130, #23, #193 ) ) ;
#265 = CIRCLE ( 'NONE', #293, 549.3876599837479944 ) ;
#266 = COORDINATED_UNIVERSAL_TIME_OFFSET ( 8, 0, .AHEAD. ) ;
#267 = PERSON_AND_ORGANIZATION_ROLE ( 'classification_officer' ) ;
#268 = ORIENTED_EDGE ( 'NONE', *, *, #45, .F. ) ;
#269 = DIRECTION ( 'NONE',  ( 0.000000000000000000, 0.000000000000000000, -1.000000000000000000 ) ) ;
#270 = EDGE_CURVE ( 'NONE', #218, #175, #100, .T. ) ;
#271 = PRODUCT_DEFINITION_FORMATION_WITH_SPECIFIED_SOURCE ( '任何', '', #226, .NOT_KNOWN. ) ;
#272 = DIRECTION ( 'NONE',  ( 0.000000000000000000, 0.000000000000000000, 1.000000000000000000 ) ) ;
#273 = CARTESIAN_POINT ( 'NONE',  ( 3243.450824562710295, 1808.283703845979971, 430.0000000000000000 ) ) ;
#274 = EDGE_CURVE ( 'NONE', #225, #16, #187, .T. ) ;
#275 = DIRECTION ( 'NONE',  ( 0.000000000000000000, 0.000000000000000000, 1.000000000000000000 ) ) ;
#276 = AXIS2_PLACEMENT_3D ( 'NONE', #260, #295, #278 ) ;
#277 = LINE ( 'NONE', #183, #24 ) ;
#278 = DIRECTION ( 'NONE',  ( 1.000000000000000000, 0.000000000000000000, 0.000000000000000000 ) ) ;
#279 = VECTOR ( 'NONE', #163, 999.9999999999998863 ) ;
#280 = DIRECTION ( 'NONE',  ( 1.000000000000000000, 0.000000000000000000, 0.000000000000000000 ) ) ;
#281 = CARTESIAN_POINT ( 'NONE',  ( 798.9516365339479762, 2532.596059668574981, 430.0000000000000000 ) ) ;
#282 = ADVANCED_FACE ( 'NONE', ( #139 ), #83, .F. ) ;
#283 = APPROVAL_DATE_TIME ( #171, #14 ) ;
#284 = CC_DESIGN_APPROVAL ( #188, ( #191 ) ) ;
#285 = CALENDAR_DATE ( 2026, 10, 4 ) ;
#286 = PERSON_AND_ORGANIZATION_ROLE ( 'creator' ) ;
#287 = DIRECTION ( 'NONE',  ( 0.000000000000000000, 0.000000000000000000, -1.000000000000000000 ) ) ;
#288 = FACE_OUTER_BOUND ( 'NONE', #305, .T. ) ;
#289 = VECTOR ( 'NONE', #103, 1000.000000000000000 ) ;
#290 = DIRECTION ( 'NONE',  ( -0.9319916925480135061, 0.3624796339402933665, 0.000000000000000000 ) ) ;
#291 = DIRECTION ( 'NONE',  ( 0.000000000000000000, 0.000000000000000000, 1.000000000000000000 ) ) ;
#292 = VERTEX_POINT ( 'NONE', #13 ) ;
#293 = AXIS2_PLACEMENT_3D ( 'NONE', #89, #37, #35 ) ;
#294 = CARTESIAN_POINT ( 'NONE',  ( 3243.450824562710295, 1808.283703845979971, 430.0000000000000000 ) ) ;
#295 = DIRECTION ( 'NONE',  ( 0.000000000000000000, 0.000000000000000000, 1.000000000000000000 ) ) ;
#296 = DIRECTION ( 'NONE',  ( -1.000000000000000000, 0.000000000000000000, 0.000000000000000000 ) ) ;
#297 = CARTESIAN_POINT ( 'NONE',  ( 2722.163894248149973, 1925.885180988620050, 430.0000000000000000 ) ) ;
#298 = APPLICATION_CONTEXT ( 'configuration controlled 3d designs of mechanical parts and assemblies' ) ;
#299 = CARTESIAN_POINT ( 'NONE',  ( 3243.450824562710295, 1808.283703845979971, 430.0000000000000000 ) ) ;
#300 = DESIGN_CONTEXT ( 'detailed design', #298, 'design' ) ;
#301 = CALENDAR_DATE ( 2026, 10, 4 ) ;
#302 = LOCAL_TIME ( 15, 3, 25.00000000000000000, #44 ) ;
#303 = PERSON_AND_ORGANIZATION ( #41, #168 ) ;
#304 = ORIENTED_EDGE ( 'NONE', *, *, #270, .T. ) ;
#305 = EDGE_LOOP ( 'NONE', ( #304, #148, #222, #196 ) ) ;
#306 = APPLICATION_PROTOCOL_DEFINITION ( 'international standard', 'config_control_design', 1994, #227 ) ;
#307 = AXIS2_PLACEMENT_3D ( 'NONE', #281, #8, #167 ) ;
#308 = CC_DESIGN_PERSON_AND_ORGANIZATION_ASSIGNMENT ( #176, #15, ( #226 ) ) ;
#309 = EDGE_LOOP ( 'NONE', ( #1, #268, #180, #94 ) ) ;
#310 = CARTESIAN_POINT ( 'NONE',  ( 3243.450824562710295, 1808.283703845979971, 0.000000000000000000 ) ) ;
#311 = ADVANCED_FACE ( 'NONE', ( #204 ), #209, .T. ) ;
ENDSEC;
END-ISO-10303-21;
