ISO-10303-21;
HEADER;
FILE_DESCRIPTION (( 'STEP AP203' ),
    '1' );
FILE_NAME ('COVER 01_默认_sldprt.STEP',
    '2026-04-10T07:03:23',
    ( '' ),
    ( '' ),
    'SwSTEP 2.0',
    'SolidWorks 2022',
    '' );
FILE_SCHEMA (( 'CONFIG_CONTROL_DESIGN' ));
ENDSEC;

DATA;
#1 = DIRECTION ( 'NONE',  ( -0.9536708087508387610, 0.3008521040918959444, 0.000000000000000000 ) ) ;
#2 = EDGE_LOOP ( 'NONE', ( #171, #266, #51, #188, #10, #166 ) ) ;
#3 = EDGE_CURVE ( 'NONE', #117, #26, #98, .T. ) ;
#4 = CARTESIAN_POINT ( 'NONE',  ( 798.9516365339479762, 2532.596059668574981, 370.0000000000000000 ) ) ;
#5 = VERTEX_POINT ( 'NONE', #191 ) ;
#6 =( NAMED_UNIT ( * ) SI_UNIT ( $, .STERADIAN. ) SOLID_ANGLE_UNIT ( ) );
#7 = AXIS2_PLACEMENT_3D ( 'NONE', #309, #90, #45 ) ;
#8 = DIRECTION ( 'NONE',  ( 0.3624796339402933665, 0.9319916925480135061, 0.000000000000000000 ) ) ;
#9 = CC_DESIGN_SECURITY_CLASSIFICATION ( #49, ( #243 ) ) ;
#10 = ORIENTED_EDGE ( 'NONE', *, *, #173, .T. ) ;
#11 = CARTESIAN_POINT ( 'NONE',  ( 3243.450824562710295, 1808.283703845979971, 370.0000000000000000 ) ) ;
#12 = ADVANCED_FACE ( 'NONE', ( #210 ), #46, .T. ) ;
#13 = MECHANICAL_CONTEXT ( 'NONE', #277, 'mechanical' ) ;
#14 = DIRECTION ( 'NONE',  ( 0.9536708087508388720, -0.3008521040918959999, 0.000000000000000000 ) ) ;
#15 = SHAPE_DEFINITION_REPRESENTATION ( #30, #219 ) ;
#16 = DIRECTION ( 'NONE',  ( 0.000000000000000000, 0.000000000000000000, -1.000000000000000000 ) ) ;
#17 = EDGE_CURVE ( 'NONE', #52, #145, #56, .T. ) ;
#18 = PLANE ( 'NONE',  #165 ) ;
#19 = COORDINATED_UNIVERSAL_TIME_OFFSET ( 8, 0, .AHEAD. ) ;
#20 = FACE_OUTER_BOUND ( 'NONE', #209, .T. ) ;
#21 = COORDINATED_UNIVERSAL_TIME_OFFSET ( 8, 0, .AHEAD. ) ;
#22 = DIRECTION ( 'NONE',  ( 1.000000000000000000, 0.000000000000000000, 0.000000000000000000 ) ) ;
#23 = APPLICATION_CONTEXT ( 'configuration controlled 3d designs of mechanical parts and assemblies' ) ;
#24 = CARTESIAN_POINT ( 'NONE',  ( 3052.559283902834977, 1293.126232147355950, 0.000000000000000000 ) ) ;
#25 = CC_DESIGN_PERSON_AND_ORGANIZATION_ASSIGNMENT ( #178, #254, ( #243 ) ) ;
#26 = VERTEX_POINT ( 'NONE', #54 ) ;
#27 = ORIENTED_EDGE ( 'NONE', *, *, #279, .T. ) ;
#28 = AXIS2_PLACEMENT_3D ( 'NONE', #235, #218, #172 ) ;
#29 = ORIENTED_EDGE ( 'NONE', *, *, #239, .T. ) ;
#30 = PRODUCT_DEFINITION_SHAPE ( 'NONE', 'NONE',  #109 ) ;
#31 = ORIENTED_EDGE ( 'NONE', *, *, #163, .F. ) ;
#32 = CARTESIAN_POINT ( 'NONE',  ( 2709.063164578962642, 1808.283703845979971, 0.000000000000000000 ) ) ;
#33 = DIRECTION ( 'NONE',  ( 0.000000000000000000, 0.000000000000000000, 1.000000000000000000 ) ) ;
#34 = AXIS2_PLACEMENT_3D ( 'NONE', #307, #304, #22 ) ;
#35 = DATE_AND_TIME ( #108, #280 ) ;
#36 = FACE_OUTER_BOUND ( 'NONE', #94, .T. ) ;
#37 = PERSON_AND_ORGANIZATION ( #124, #65 ) ;
#38 = LINE ( 'NONE', #198, #207 ) ;
#39 = DATE_AND_TIME ( #221, #211 ) ;
#40 = DIRECTION ( 'NONE',  ( -0.3624796339402933665, -0.9319916925480135061, 0.000000000000000000 ) ) ;
#41 = CIRCLE ( 'NONE', #189, 549.3876599837479944 ) ;
#42 = LOCAL_TIME ( 15, 3, 23.00000000000000000, #201 ) ;
#43 = ORIENTED_EDGE ( 'NONE', *, *, #228, .T. ) ;
#44 = ORIENTED_EDGE ( 'NONE', *, *, #89, .T. ) ;
#45 = DIRECTION ( 'NONE',  ( 1.000000000000000000, 0.000000000000000000, 0.000000000000000000 ) ) ;
#46 = CYLINDRICAL_SURFACE ( 'NONE', #28, 549.3876599837479944 ) ;
#47 = ORIENTED_EDGE ( 'NONE', *, *, #163, .T. ) ;
#48 = CARTESIAN_POINT ( 'NONE',  ( 798.9516365339479762, 2532.596059668574981, 0.000000000000000000 ) ) ;
#49 = SECURITY_CLASSIFICATION ( '', '', #153 ) ;
#50 = ORIENTED_EDGE ( 'NONE', *, *, #248, .T. ) ;
#51 = ORIENTED_EDGE ( 'NONE', *, *, #64, .T. ) ;
#52 = VERTEX_POINT ( 'NONE', #247 ) ;
#53 = EDGE_CURVE ( 'NONE', #26, #145, #81, .T. ) ;
#54 = CARTESIAN_POINT ( 'NONE',  ( 2709.063164578962642, 1808.283703845979971, 370.0000000000000000 ) ) ;
#55 = APPROVAL_ROLE ( '' ) ;
#56 = CIRCLE ( 'NONE', #59, 534.3876599837477670 ) ;
#57 = VECTOR ( 'NONE', #16, 1000.000000000000000 ) ;
#58 = CARTESIAN_POINT ( 'NONE',  ( 3243.450824562710295, 1808.283703845979971, 0.000000000000000000 ) ) ;
#59 = AXIS2_PLACEMENT_3D ( 'NONE', #268, #33, #245 ) ;
#60 = DATE_AND_TIME ( #298, #63 ) ;
#61 = FACE_OUTER_BOUND ( 'NONE', #2, .T. ) ;
#62 = DIRECTION ( 'NONE',  ( 0.000000000000000000, 0.000000000000000000, 1.000000000000000000 ) ) ;
#63 = LOCAL_TIME ( 15, 3, 23.00000000000000000, #19 ) ;
#64 = EDGE_CURVE ( 'NONE', #258, #143, #217, .T. ) ;
#65 = ORGANIZATION ( '未指定', '未指定', '' ) ;
#66 = EDGE_LOOP ( 'NONE', ( #213, #167, #69, #47 ) ) ;
#67 = AXIS2_PLACEMENT_3D ( 'NONE', #4, #234, #1 ) ;
#68 = DIRECTION ( 'NONE',  ( 0.9536708087508388720, -0.3008521040918959999, 0.000000000000000000 ) ) ;
#69 = ORIENTED_EDGE ( 'NONE', *, *, #85, .T. ) ;
#70 = ORIENTED_EDGE ( 'NONE', *, *, #53, .F. ) ;
#71 = AXIS2_PLACEMENT_3D ( 'NONE', #123, #180, #225 ) ;
#72 = ORIENTED_EDGE ( 'NONE', *, *, #89, .F. ) ;
#73 = EDGE_CURVE ( 'NONE', #143, #212, #41, .T. ) ;
#74 = DIRECTION ( 'NONE',  ( 0.000000000000000000, 0.000000000000000000, 1.000000000000000000 ) ) ;
#75 = CARTESIAN_POINT ( 'NONE',  ( 3243.450824562710295, 1808.283703845979971, 0.000000000000000000 ) ) ;
#76 = PERSON_AND_ORGANIZATION ( #124, #65 ) ;
#77 = AXIS2_PLACEMENT_3D ( 'NONE', #58, #102, #275 ) ;
#78 = CARTESIAN_POINT ( 'NONE',  ( 2722.163894248149973, 1925.885180988620050, 370.0000000000000000 ) ) ;
#79 = APPROVAL_DATE_TIME ( #60, #120 ) ;
#80 = CC_DESIGN_PERSON_AND_ORGANIZATION_ASSIGNMENT ( #106, #82, ( #109 ) ) ;
#81 = LINE ( 'NONE', #292, #57 ) ;
#82 = PERSON_AND_ORGANIZATION_ROLE ( 'creator' ) ;
#83 = CARTESIAN_POINT ( 'NONE',  ( 3057.997199688729779, 1307.107962050741889, 370.0000000000000000 ) ) ;
#84 = PERSON_AND_ORGANIZATION_ROLE ( 'design_owner' ) ;
#85 = EDGE_CURVE ( 'NONE', #258, #117, #128, .T. ) ;
#86 = VECTOR ( 'NONE', #204, 1000.000000000000000 ) ;
#87 = CARTESIAN_POINT ( 'NONE',  ( 2707.809953618605050, 1930.413382125515000, 370.0000000000000000 ) ) ;
#88 = APPROVAL_PERSON_ORGANIZATION ( #37, #253, #129 ) ;
#89 = EDGE_CURVE ( 'NONE', #142, #5, #38, .T. ) ;
#90 = DIRECTION ( 'NONE',  ( 0.000000000000000000, 0.000000000000000000, 1.000000000000000000 ) ) ;
#91 = ORIENTED_EDGE ( 'NONE', *, *, #173, .F. ) ;
#92 = VECTOR ( 'NONE', #282, 1000.000000000000000 ) ;
#93 = CARTESIAN_POINT ( 'NONE',  ( 2214.624727957469986, -861.3342448476710160, 0.000000000000000000 ) ) ;
#94 = EDGE_LOOP ( 'NONE', ( #208, #141, #192, #285, #283, #194 ) ) ;
#95 = EDGE_LOOP ( 'NONE', ( #115, #238, #267, #31 ) ) ;
#96 = UNCERTAINTY_MEASURE_WITH_UNIT (LENGTH_MEASURE( 1.000000000000000082E-05 ), #122, 'distance_accuracy_value', 'NONE');
#97 = VERTEX_POINT ( 'NONE', #300 ) ;
#98 = CIRCLE ( 'NONE', #7, 534.3876599837477670 ) ;
#99 = CYLINDRICAL_SURFACE ( 'NONE', #203, 549.3876599837479944 ) ;
#100 = PLANE ( 'NONE',  #302 ) ;
#101 = CARTESIAN_POINT ( 'NONE',  ( 0.000000000000000000, 0.000000000000000000, 0.000000000000000000 ) ) ;
#102 = DIRECTION ( 'NONE',  ( 0.000000000000000000, 0.000000000000000000, 1.000000000000000000 ) ) ;
#103 = ADVANCED_FACE ( 'NONE', ( #36 ), #18, .F. ) ;
#104 = DATE_AND_TIME ( #202, #118 ) ;
#105 = CARTESIAN_POINT ( 'NONE',  ( 0.000000000000000000, 0.000000000000000000, 0.000000000000000000 ) ) ;
#106 = PERSON_AND_ORGANIZATION ( #124, #65 ) ;
#107 = DIRECTION ( 'NONE',  ( 1.000000000000000000, 0.000000000000000000, 0.000000000000000000 ) ) ;
#108 = CALENDAR_DATE ( 2026, 10, 4 ) ;
#109 = PRODUCT_DEFINITION ( '未知', '', #243, #200 ) ;
#110 = CARTESIAN_POINT ( 'NONE',  ( 3243.450824562710295, 1808.283703845979971, 370.0000000000000000 ) ) ;
#111 = DIRECTION ( 'NONE',  ( 0.000000000000000000, 0.000000000000000000, 1.000000000000000000 ) ) ;
#112 = CC_DESIGN_PERSON_AND_ORGANIZATION_ASSIGNMENT ( #251, #151, ( #243 ) ) ;
#113 = DIRECTION ( 'NONE',  ( 0.000000000000000000, 0.000000000000000000, -1.000000000000000000 ) ) ;
#114 = CLOSED_SHELL ( 'NONE', ( #12, #168, #205, #308, #179, #116, #186, #103 ) ) ;
#115 = ORIENTED_EDGE ( 'NONE', *, *, #3, .T. ) ;
#116 = ADVANCED_FACE ( 'NONE', ( #250 ), #154, .F. ) ;
#117 = VERTEX_POINT ( 'NONE', #78 ) ;
#118 = LOCAL_TIME ( 15, 3, 23.00000000000000000, #303 ) ;
#119 = PRODUCT ( 'COVER 01_\X2\9ed88ba4\X0\_sldprt', 'COVER 01_\X2\9ed88ba4\X0\_sldprt', '', ( #13 ) ) ;
#120 = APPROVAL ( #272, '未指定' ) ;
#121 = ORIENTED_EDGE ( 'NONE', *, *, #64, .F. ) ;
#122 =( LENGTH_UNIT ( ) NAMED_UNIT ( * ) SI_UNIT ( .MILLI., .METRE. ) );
#123 = CARTESIAN_POINT ( 'NONE',  ( 3243.450824562710295, 1808.283703845979971, 370.0000000000000000 ) ) ;
#124 = PERSON ( '未指定', '未指定', '未指定', ('未指定'), ('未指定'), ('未指定') ) ;
#125 = VECTOR ( 'NONE', #240, 1000.000000000000000 ) ;
#126 = DIRECTION ( 'NONE',  ( 0.000000000000000000, 0.000000000000000000, -1.000000000000000000 ) ) ;
#127 = PERSON_AND_ORGANIZATION ( #124, #65 ) ;
#128 = LINE ( 'NONE', #199, #132 ) ;
#129 = APPROVAL_ROLE ( '' ) ;
#130 = DIRECTION ( 'NONE',  ( 1.000000000000000000, 0.000000000000000000, 0.000000000000000000 ) ) ;
#131 = APPROVAL_DATE_TIME ( #35, #134 ) ;
#132 = VECTOR ( 'NONE', #14, 999.9999999999998863 ) ;
#133 = FACE_OUTER_BOUND ( 'NONE', #95, .T. ) ;
#134 = APPROVAL ( #156, '未指定' ) ;
#135 = PERSON_AND_ORGANIZATION ( #124, #65 ) ;
#136 = CARTESIAN_POINT ( 'NONE',  ( 3243.450824562710295, 1808.283703845979971, 370.0000000000000000 ) ) ;
#137 = CIRCLE ( 'NONE', #34, 534.3876599837477670 ) ;
#138 = CARTESIAN_POINT ( 'NONE',  ( 2694.063164578962187, 1808.283703845979971, 370.0000000000000000 ) ) ;
#139 = EDGE_CURVE ( 'NONE', #261, #97, #157, .T. ) ;
#140 = CIRCLE ( 'NONE', #149, 534.3876599837477670 ) ;
#141 = ORIENTED_EDGE ( 'NONE', *, *, #215, .T. ) ;
#142 = VERTEX_POINT ( 'NONE', #83 ) ;
#143 = VERTEX_POINT ( 'NONE', #197 ) ;
#144 = FACE_OUTER_BOUND ( 'NONE', #66, .T. ) ;
#145 = VERTEX_POINT ( 'NONE', #32 ) ;
#146 = DIRECTION ( 'NONE',  ( -1.000000000000000000, 0.000000000000000000, 0.000000000000000000 ) ) ;
#147 = DIRECTION ( 'NONE',  ( 0.000000000000000000, 0.000000000000000000, -1.000000000000000000 ) ) ;
#148 = CALENDAR_DATE ( 2026, 10, 4 ) ;
#149 = AXIS2_PLACEMENT_3D ( 'NONE', #136, #111, #183 ) ;
#150 = LINE ( 'NONE', #294, #264 ) ;
#151 = PERSON_AND_ORGANIZATION_ROLE ( 'creator' ) ;
#152 = DIRECTION ( 'NONE',  ( 1.000000000000000000, 0.000000000000000000, 0.000000000000000000 ) ) ;
#153 = SECURITY_CLASSIFICATION_LEVEL ( 'unclassified' ) ;
#154 = PLANE ( 'NONE',  #162 ) ;
#155 = CC_DESIGN_DATE_AND_TIME_ASSIGNMENT ( #249, #227, ( #49 ) ) ;
#156 = APPROVAL_STATUS ( 'not_yet_approved' ) ;
#157 = CIRCLE ( 'NONE', #77, 549.3876599837479944 ) ;
#158 = DIRECTION ( 'NONE',  ( -1.000000000000000000, 0.000000000000000000, 0.000000000000000000 ) ) ;
#159 = APPLICATION_PROTOCOL_DEFINITION ( 'international standard', 'config_control_design', 1994, #23 ) ;
#160 = CARTESIAN_POINT ( 'NONE',  ( 3052.559283902834977, 1293.126232147355950, 370.0000000000000000 ) ) ;
#161 = CC_DESIGN_DATE_AND_TIME_ASSIGNMENT ( #104, #296, ( #109 ) ) ;
#162 = AXIS2_PLACEMENT_3D ( 'NONE', #220, #297, #40 ) ;
#163 = EDGE_CURVE ( 'NONE', #117, #52, #150, .T. ) ;
#164 = ORIENTED_EDGE ( 'NONE', *, *, #193, .T. ) ;
#165 = AXIS2_PLACEMENT_3D ( 'NONE', #105, #62, #107 ) ;
#166 = ORIENTED_EDGE ( 'NONE', *, *, #239, .F. ) ;
#167 = ORIENTED_EDGE ( 'NONE', *, *, #248, .F. ) ;
#168 = ADVANCED_FACE ( 'NONE', ( #133 ), #181, .F. ) ;
#169 = VECTOR ( 'NONE', #305, 1000.000000000000000 ) ;
#170 = ORIENTED_EDGE ( 'NONE', *, *, #73, .F. ) ;
#171 = ORIENTED_EDGE ( 'NONE', *, *, #3, .F. ) ;
#172 = DIRECTION ( 'NONE',  ( -1.000000000000000000, 0.000000000000000000, 0.000000000000000000 ) ) ;
#173 = EDGE_CURVE ( 'NONE', #212, #142, #270, .T. ) ;
#174 = PERSON_AND_ORGANIZATION_ROLE ( 'classification_officer' ) ;
#175 = DIRECTION ( 'NONE',  ( 0.000000000000000000, 0.000000000000000000, 1.000000000000000000 ) ) ;
#176 = CC_DESIGN_APPROVAL ( #120, ( #109 ) ) ;
#177 = FACE_OUTER_BOUND ( 'NONE', #286, .T. ) ;
#178 = PERSON_AND_ORGANIZATION ( #124, #65 ) ;
#179 = ADVANCED_FACE ( 'NONE', ( #177 ), #99, .T. ) ;
#180 = DIRECTION ( 'NONE',  ( 0.000000000000000000, 0.000000000000000000, 1.000000000000000000 ) ) ;
#181 = CYLINDRICAL_SURFACE ( 'NONE', #306, 534.3876599837477670 ) ;
#182 = PERSON_AND_ORGANIZATION ( #124, #65 ) ;
#183 = DIRECTION ( 'NONE',  ( 1.000000000000000000, 0.000000000000000000, 0.000000000000000000 ) ) ;
#184 = CC_DESIGN_PERSON_AND_ORGANIZATION_ASSIGNMENT ( #135, #84, ( #119 ) ) ;
#185 = AXIS2_PLACEMENT_3D ( 'NONE', #110, #113, #158 ) ;
#186 = ADVANCED_FACE ( 'NONE', ( #61 ), #100, .T. ) ;
#187 = ORIENTED_EDGE ( 'NONE', *, *, #228, .F. ) ;
#188 = ORIENTED_EDGE ( 'NONE', *, *, #73, .T. ) ;
#189 = AXIS2_PLACEMENT_3D ( 'NONE', #278, #74, #241 ) ;
#190 = AXIS2_PLACEMENT_3D ( 'NONE', #75, #175, #152 ) ;
#191 = CARTESIAN_POINT ( 'NONE',  ( 3057.997199688729779, 1307.107962050741889, 0.000000000000000000 ) ) ;
#192 = ORIENTED_EDGE ( 'NONE', *, *, #279, .F. ) ;
#193 = EDGE_CURVE ( 'NONE', #97, #214, #284, .T. ) ;
#194 = ORIENTED_EDGE ( 'NONE', *, *, #299, .T. ) ;
#195 = CARTESIAN_POINT ( 'NONE',  ( 3243.450824562710295, 1808.283703845979971, 370.0000000000000000 ) ) ;
#196 = CARTESIAN_POINT ( 'NONE',  ( 0.000000000000000000, 0.000000000000000000, 370.0000000000000000 ) ) ;
#197 = CARTESIAN_POINT ( 'NONE',  ( 2694.063164578962187, 1808.283703845979971, 370.0000000000000000 ) ) ;
#198 = CARTESIAN_POINT ( 'NONE',  ( 3057.997199688729779, 1307.107962050741889, 370.0000000000000000 ) ) ;
#199 = CARTESIAN_POINT ( 'NONE',  ( 798.9516365339479762, 2532.596059668574981, 370.0000000000000000 ) ) ;
#200 = DESIGN_CONTEXT ( 'detailed design', #23, 'design' ) ;
#201 = COORDINATED_UNIVERSAL_TIME_OFFSET ( 8, 0, .AHEAD. ) ;
#202 = CALENDAR_DATE ( 2026, 10, 4 ) ;
#203 = AXIS2_PLACEMENT_3D ( 'NONE', #195, #126, #274 ) ;
#204 = DIRECTION ( 'NONE',  ( 0.000000000000000000, 0.000000000000000000, -1.000000000000000000 ) ) ;
#205 = ADVANCED_FACE ( 'NONE', ( #20 ), #230, .F. ) ;
#206 = CARTESIAN_POINT ( 'NONE',  ( 3052.559283902834977, 1293.126232147355950, 370.0000000000000000 ) ) ;
#207 = VECTOR ( 'NONE', #147, 1000.000000000000000 ) ;
#208 = ORIENTED_EDGE ( 'NONE', *, *, #17, .T. ) ;
#209 = EDGE_LOOP ( 'NONE', ( #70, #29, #44, #287 ) ) ;
#210 = FACE_OUTER_BOUND ( 'NONE', #310, .T. ) ;
#211 = LOCAL_TIME ( 15, 3, 23.00000000000000000, #21 ) ;
#212 = VERTEX_POINT ( 'NONE', #206 ) ;
#213 = ORIENTED_EDGE ( 'NONE', *, *, #299, .F. ) ;
#214 = VERTEX_POINT ( 'NONE', #24 ) ;
#215 = EDGE_CURVE ( 'NONE', #145, #5, #137, .T. ) ;
#216 = CARTESIAN_POINT ( 'NONE',  ( 2214.624727957469986, -861.3342448476710160, 370.0000000000000000 ) ) ;
#217 = CIRCLE ( 'NONE', #71, 549.3876599837479944 ) ;
#218 = DIRECTION ( 'NONE',  ( 0.000000000000000000, 0.000000000000000000, -1.000000000000000000 ) ) ;
#219 = ADVANCED_BREP_SHAPE_REPRESENTATION ( 'COVER 01_\X2\9ed88ba4\X0\_sldprt', ( #291, #295 ), #311 ) ;
#220 = CARTESIAN_POINT ( 'NONE',  ( 2214.624727957469986, -861.3342448476710160, 370.0000000000000000 ) ) ;
#221 = CALENDAR_DATE ( 2026, 10, 4 ) ;
#222 = LINE ( 'NONE', #138, #92 ) ;
#223 = DIRECTION ( 'NONE',  ( 0.000000000000000000, 0.000000000000000000, -1.000000000000000000 ) ) ;
#224 = DIRECTION ( 'NONE',  ( 1.000000000000000000, 0.000000000000000000, 0.000000000000000000 ) ) ;
#225 = DIRECTION ( 'NONE',  ( 1.000000000000000000, 0.000000000000000000, 0.000000000000000000 ) ) ;
#226 = APPROVAL_ROLE ( '' ) ;
#227 = DATE_TIME_ROLE ( 'classification_date' ) ;
#228 = EDGE_CURVE ( 'NONE', #212, #214, #252, .T. ) ;
#229 = VECTOR ( 'NONE', #8, 1000.000000000000000 ) ;
#230 = CYLINDRICAL_SURFACE ( 'NONE', #185, 534.3876599837477670 ) ;
#231 = APPROVAL_PERSON_ORGANIZATION ( #182, #134, #55 ) ;
#232 = LINE ( 'NONE', #93, #125 ) ;
#233 = ORIENTED_EDGE ( 'NONE', *, *, #263, .T. ) ;
#234 = DIRECTION ( 'NONE',  ( 0.3008521040918959999, 0.9536708087508388720, 0.000000000000000000 ) ) ;
#235 = CARTESIAN_POINT ( 'NONE',  ( 3243.450824562710295, 1808.283703845979971, 370.0000000000000000 ) ) ;
#236 = CC_DESIGN_APPROVAL ( #134, ( #243 ) ) ;
#237 = PLANE ( 'NONE',  #67 ) ;
#238 = ORIENTED_EDGE ( 'NONE', *, *, #53, .T. ) ;
#239 = EDGE_CURVE ( 'NONE', #26, #142, #140, .T. ) ;
#240 = DIRECTION ( 'NONE',  ( 0.3624796339402933665, 0.9319916925480135061, 0.000000000000000000 ) ) ;
#241 = DIRECTION ( 'NONE',  ( 1.000000000000000000, 0.000000000000000000, 0.000000000000000000 ) ) ;
#242 = DIRECTION ( 'NONE',  ( 0.000000000000000000, 0.000000000000000000, -1.000000000000000000 ) ) ;
#243 = PRODUCT_DEFINITION_FORMATION_WITH_SPECIFIED_SOURCE ( '任何', '', #119, .NOT_KNOWN. ) ;
#244 = APPROVAL_STATUS ( 'not_yet_approved' ) ;
#245 = DIRECTION ( 'NONE',  ( 1.000000000000000000, 0.000000000000000000, 0.000000000000000000 ) ) ;
#246 = APPLICATION_PROTOCOL_DEFINITION ( 'international standard', 'config_control_design', 1994, #277 ) ;
#247 = CARTESIAN_POINT ( 'NONE',  ( 2722.163894248149973, 1925.885180988620050, 0.000000000000000000 ) ) ;
#248 = EDGE_CURVE ( 'NONE', #258, #261, #281, .T. ) ;
#249 = DATE_AND_TIME ( #148, #42 ) ;
#250 = FACE_OUTER_BOUND ( 'NONE', #262, .T. ) ;
#251 = PERSON_AND_ORGANIZATION ( #124, #65 ) ;
#252 = LINE ( 'NONE', #160, #86 ) ;
#253 = APPROVAL ( #244, '未指定' ) ;
#254 = PERSON_AND_ORGANIZATION_ROLE ( 'design_supplier' ) ;
#255 = CC_DESIGN_APPROVAL ( #253, ( #49 ) ) ;
#256 = CARTESIAN_POINT ( 'NONE',  ( 2707.809953618605050, 1930.413382125515000, 370.0000000000000000 ) ) ;
#257 = CC_DESIGN_PERSON_AND_ORGANIZATION_ASSIGNMENT ( #127, #174, ( #49 ) ) ;
#258 = VERTEX_POINT ( 'NONE', #87 ) ;
#259 = PRODUCT_RELATED_PRODUCT_CATEGORY ( 'detail', '', ( #119 ) ) ;
#260 = ORIENTED_EDGE ( 'NONE', *, *, #139, .T. ) ;
#261 = VERTEX_POINT ( 'NONE', #273 ) ;
#262 = EDGE_LOOP ( 'NONE', ( #27, #72, #91, #43 ) ) ;
#263 = EDGE_CURVE ( 'NONE', #143, #97, #222, .T. ) ;
#264 = VECTOR ( 'NONE', #223, 1000.000000000000000 ) ;
#265 =( NAMED_UNIT ( * ) PLANE_ANGLE_UNIT ( ) SI_UNIT ( $, .RADIAN. ) );
#266 = ORIENTED_EDGE ( 'NONE', *, *, #85, .F. ) ;
#267 = ORIENTED_EDGE ( 'NONE', *, *, #17, .F. ) ;
#268 = CARTESIAN_POINT ( 'NONE',  ( 3243.450824562710295, 1808.283703845979971, 0.000000000000000000 ) ) ;
#269 = DIRECTION ( 'NONE',  ( 0.000000000000000000, 0.000000000000000000, 1.000000000000000000 ) ) ;
#270 = LINE ( 'NONE', #216, #229 ) ;
#271 = VECTOR ( 'NONE', #68, 999.9999999999998863 ) ;
#272 = APPROVAL_STATUS ( 'not_yet_approved' ) ;
#273 = CARTESIAN_POINT ( 'NONE',  ( 2707.809953618605050, 1930.413382125515000, 0.000000000000000000 ) ) ;
#274 = DIRECTION ( 'NONE',  ( -1.000000000000000000, 0.000000000000000000, 0.000000000000000000 ) ) ;
#275 = DIRECTION ( 'NONE',  ( 1.000000000000000000, 0.000000000000000000, 0.000000000000000000 ) ) ;
#276 = APPROVAL_DATE_TIME ( #39, #253 ) ;
#277 = APPLICATION_CONTEXT ( 'configuration controlled 3d designs of mechanical parts and assemblies' ) ;
#278 = CARTESIAN_POINT ( 'NONE',  ( 3243.450824562710295, 1808.283703845979971, 370.0000000000000000 ) ) ;
#279 = EDGE_CURVE ( 'NONE', #214, #5, #232, .T. ) ;
#280 = LOCAL_TIME ( 15, 3, 23.00000000000000000, #301 ) ;
#281 = LINE ( 'NONE', #256, #169 ) ;
#282 = DIRECTION ( 'NONE',  ( 0.000000000000000000, 0.000000000000000000, -1.000000000000000000 ) ) ;
#283 = ORIENTED_EDGE ( 'NONE', *, *, #139, .F. ) ;
#284 = CIRCLE ( 'NONE', #190, 549.3876599837479944 ) ;
#285 = ORIENTED_EDGE ( 'NONE', *, *, #193, .F. ) ;
#286 = EDGE_LOOP ( 'NONE', ( #289, #121, #50, #260 ) ) ;
#287 = ORIENTED_EDGE ( 'NONE', *, *, #215, .F. ) ;
#288 = LINE ( 'NONE', #48, #271 ) ;
#289 = ORIENTED_EDGE ( 'NONE', *, *, #263, .F. ) ;
#290 = APPROVAL_PERSON_ORGANIZATION ( #76, #120, #226 ) ;
#291 = MANIFOLD_SOLID_BREP ( '输入1', #114 ) ;
#292 = CARTESIAN_POINT ( 'NONE',  ( 2709.063164578962642, 1808.283703845979971, 370.0000000000000000 ) ) ;
#293 = DIRECTION ( 'NONE',  ( 0.000000000000000000, 0.000000000000000000, 1.000000000000000000 ) ) ;
#294 = CARTESIAN_POINT ( 'NONE',  ( 2722.163894248149973, 1925.885180988620050, 370.0000000000000000 ) ) ;
#295 = AXIS2_PLACEMENT_3D ( 'NONE', #101, #269, #224 ) ;
#296 = DATE_TIME_ROLE ( 'creation_date' ) ;
#297 = DIRECTION ( 'NONE',  ( -0.9319916925480135061, 0.3624796339402933665, 0.000000000000000000 ) ) ;
#298 = CALENDAR_DATE ( 2026, 10, 4 ) ;
#299 = EDGE_CURVE ( 'NONE', #261, #52, #288, .T. ) ;
#300 = CARTESIAN_POINT ( 'NONE',  ( 2694.063164578962187, 1808.283703845979971, 0.000000000000000000 ) ) ;
#301 = COORDINATED_UNIVERSAL_TIME_OFFSET ( 8, 0, .AHEAD. ) ;
#302 = AXIS2_PLACEMENT_3D ( 'NONE', #196, #293, #130 ) ;
#303 = COORDINATED_UNIVERSAL_TIME_OFFSET ( 8, 0, .AHEAD. ) ;
#304 = DIRECTION ( 'NONE',  ( 0.000000000000000000, 0.000000000000000000, 1.000000000000000000 ) ) ;
#305 = DIRECTION ( 'NONE',  ( 0.000000000000000000, 0.000000000000000000, -1.000000000000000000 ) ) ;
#306 = AXIS2_PLACEMENT_3D ( 'NONE', #11, #242, #146 ) ;
#307 = CARTESIAN_POINT ( 'NONE',  ( 3243.450824562710295, 1808.283703845979971, 0.000000000000000000 ) ) ;
#308 = ADVANCED_FACE ( 'NONE', ( #144 ), #237, .T. ) ;
#309 = CARTESIAN_POINT ( 'NONE',  ( 3243.450824562710295, 1808.283703845979971, 370.0000000000000000 ) ) ;
#310 = EDGE_LOOP ( 'NONE', ( #170, #233, #164, #187 ) ) ;
#311 =( GEOMETRIC_REPRESENTATION_CONTEXT ( 3 ) GLOBAL_UNCERTAINTY_ASSIGNED_CONTEXT ( ( #96 ) ) GLOBAL_UNIT_ASSIGNED_CONTEXT ( ( #122, #265, #6 ) ) REPRESENTATION_CONTEXT ( 'NONE', 'WORKASPACE' ) );
ENDSEC;
END-ISO-10303-21;
