ISO-10303-21;
HEADER;
FILE_DESCRIPTION (( 'STEP AP203' ),
    '1' );
FILE_NAME ('GRIPPER_默认_sldprt.STEP',
    '2026-04-10T07:03:27',
    ( '' ),
    ( '' ),
    'SwSTEP 2.0',
    'SolidWorks 2022',
    '' );
FILE_SCHEMA (( 'CONFIG_CONTROL_DESIGN' ));
ENDSEC;

DATA;
#1 = VECTOR ( 'NONE', #534, 1000.000000000000000 ) ;
#2 = AXIS2_PLACEMENT_3D ( 'NONE', #35, #45, #149 ) ;
#3 = EDGE_CURVE ( 'NONE', #412, #32, #140, .T. ) ;
#4 = LINE ( 'NONE', #218, #268 ) ;
#5 = FACE_OUTER_BOUND ( 'NONE', #526, .T. ) ;
#6 = CARTESIAN_POINT ( 'NONE',  ( 6804.632647107378943, 3925.218631807570091, 15.00000000000000000 ) ) ;
#7 = CARTESIAN_POINT ( 'NONE',  ( 6804.469242001679049, 3650.218631807570091, 15.00000000000000000 ) ) ;
#8 = EDGE_CURVE ( 'NONE', #161, #126, #240, .T. ) ;
#9 = LINE ( 'NONE', #435, #91 ) ;
#10 = CARTESIAN_POINT ( 'NONE',  ( 6853.052157154530505, 4010.759517410519948, 15.00000000000000000 ) ) ;
#11 = ORIENTED_EDGE ( 'NONE', *, *, #380, .T. ) ;
#12 = CARTESIAN_POINT ( 'NONE',  ( 6931.194327475610407, 3942.086059912549899, 15.00000000000000000 ) ) ;
#13 = AXIS2_PLACEMENT_3D ( 'NONE', #639, #90, #629 ) ;
#14 = COORDINATED_UNIVERSAL_TIME_OFFSET ( 8, 0, .AHEAD. ) ;
#15 = ADVANCED_FACE ( 'NONE', ( #572 ), #137, .F. ) ;
#16 = PERSON_AND_ORGANIZATION ( #342, #536 ) ;
#17 = DIRECTION ( 'NONE',  ( 0.000000000000000000, 0.000000000000000000, 1.000000000000000000 ) ) ;
#18 = CALENDAR_DATE ( 2026, 10, 4 ) ;
#19 = DIRECTION ( 'NONE',  ( 0.000000000000000000, 0.000000000000000000, 1.000000000000000000 ) ) ;
#20 = LINE ( 'NONE', #199, #293 ) ;
#21 = EDGE_CURVE ( 'NONE', #126, #312, #292, .T. ) ;
#22 = CIRCLE ( 'NONE', #437, 30.00000000000024869 ) ;
#23 = ORIENTED_EDGE ( 'NONE', *, *, #370, .T. ) ;
#24 = VECTOR ( 'NONE', #27, 1000.000000000000000 ) ;
#25 = DIRECTION ( 'NONE',  ( 0.02491805614023464427, -0.9996894970330498786, 0.000000000000000000 ) ) ;
#26 = DIRECTION ( 'NONE',  ( 0.000000000000000000, 0.000000000000000000, 1.000000000000000000 ) ) ;
#27 = DIRECTION ( 'NONE',  ( 0.000000000000000000, 0.000000000000000000, 1.000000000000000000 ) ) ;
#28 = SHAPE_DEFINITION_REPRESENTATION ( #74, #530 ) ;
#29 = ORIENTED_EDGE ( 'NONE', *, *, #503, .F. ) ;
#30 = ORIENTED_EDGE ( 'NONE', *, *, #465, .F. ) ;
#31 = CARTESIAN_POINT ( 'NONE',  ( 6936.878955077850151, 2779.773001274889793, 15.00000000000000000 ) ) ;
#32 = VERTEX_POINT ( 'NONE', #83 ) ;
#33 = AXIS2_PLACEMENT_3D ( 'NONE', #442, #654, #333 ) ;
#34 = LOCAL_TIME ( 15, 3, 27.00000000000000000, #139 ) ;
#35 = CARTESIAN_POINT ( 'NONE',  ( 6799.846461661270951, 3942.086059912549899, 0.000000000000000000 ) ) ;
#36 = DIRECTION ( 'NONE',  ( -1.669329592379185168E-14, -1.000000000000000000, 0.000000000000000000 ) ) ;
#37 = EDGE_CURVE ( 'NONE', #580, #695, #452, .T. ) ;
#38 = ORIENTED_EDGE ( 'NONE', *, *, #97, .T. ) ;
#39 = PLANE ( 'NONE',  #329 ) ;
#40 = CARTESIAN_POINT ( 'NONE',  ( 6731.194327475610407, 3940.374850843274544, 0.000000000000000000 ) ) ;
#41 = PERSON_AND_ORGANIZATION ( #342, #536 ) ;
#42 = APPROVAL_DATE_TIME ( #98, #409 ) ;
#43 = ORIENTED_EDGE ( 'NONE', *, *, #171, .T. ) ;
#44 = VERTEX_POINT ( 'NONE', #232 ) ;
#45 = DIRECTION ( 'NONE',  ( 0.000000000000000000, 0.000000000000000000, 1.000000000000000000 ) ) ;
#46 = PLANE ( 'NONE',  #628 ) ;
#47 = COORDINATED_UNIVERSAL_TIME_OFFSET ( 8, 0, .AHEAD. ) ;
#48 = ORIENTED_EDGE ( 'NONE', *, *, #439, .T. ) ;
#49 = EDGE_CURVE ( 'NONE', #132, #208, #517, .T. ) ;
#50 = EDGE_LOOP ( 'NONE', ( #455, #30 ) ) ;
#51 = FACE_OUTER_BOUND ( 'NONE', #446, .T. ) ;
#52 = CIRCLE ( 'NONE', #233, 30.00000000000024869 ) ;
#53 = SECURITY_CLASSIFICATION ( '', '', #681 ) ;
#54 = ORIENTED_EDGE ( 'NONE', *, *, #380, .F. ) ;
#55 = CARTESIAN_POINT ( 'NONE',  ( 6864.469242001679959, 3650.218631807570091, 15.00000000000000000 ) ) ;
#56 = VERTEX_POINT ( 'NONE', #508 ) ;
#57 = DIRECTION ( 'NONE',  ( 0.000000000000000000, 0.000000000000000000, -1.000000000000000000 ) ) ;
#58 = ORIENTED_EDGE ( 'NONE', *, *, #97, .F. ) ;
#59 = VECTOR ( 'NONE', #113, 999.9999999999998863 ) ;
#60 = CARTESIAN_POINT ( 'NONE',  ( 6626.691963392579964, 3723.358877470605421, 15.00000000000000000 ) ) ;
#61 = ADVANCED_FACE ( 'NONE', ( #627 ), #298, .T. ) ;
#62 = AXIS2_PLACEMENT_3D ( 'NONE', #266, #481, #430 ) ;
#63 = DIRECTION ( 'NONE',  ( 1.000000000000000000, 0.000000000000000000, 0.000000000000000000 ) ) ;
#64 = DIRECTION ( 'NONE',  ( 0.000000000000000000, 0.000000000000000000, 1.000000000000000000 ) ) ;
#65 = EDGE_CURVE ( 'NONE', #56, #106, #107, .T. ) ;
#66 = CARTESIAN_POINT ( 'NONE',  ( 6834.469242001679049, 3650.218631807570091, -113.1370849898482049 ) ) ;
#67 = ADVANCED_FACE ( 'NONE', ( #397 ), #314, .F. ) ;
#68 = ADVANCED_FACE ( 'NONE', ( #75 ), #417, .T. ) ;
#69 = AXIS2_PLACEMENT_3D ( 'NONE', #641, #36, #692 ) ;
#70 = CARTESIAN_POINT ( 'NONE',  ( 7380.922448723639718, 3222.598146057955091, 15.00000000000000000 ) ) ;
#71 = CIRCLE ( 'NONE', #607, 604.3264259821228279 ) ;
#72 = DIRECTION ( 'NONE',  ( 0.000000000000000000, 0.000000000000000000, 1.000000000000000000 ) ) ;
#73 = ORIENTED_EDGE ( 'NONE', *, *, #625, .F. ) ;
#74 = PRODUCT_DEFINITION_SHAPE ( 'NONE', 'NONE',  #319 ) ;
#75 = FACE_OUTER_BOUND ( 'NONE', #262, .T. ) ;
#76 = CARTESIAN_POINT ( 'NONE',  ( 0.000000000000000000, 0.000000000000000000, 0.000000000000000000 ) ) ;
#77 = EDGE_LOOP ( 'NONE', ( #99, #179, #451, #334, #586, #359, #197, #43, #11, #153, #344, #186, #276 ) ) ;
#78 = DIRECTION ( 'NONE',  ( 1.000000000000000000, 0.000000000000000000, 0.000000000000000000 ) ) ;
#79 = ORIENTED_EDGE ( 'NONE', *, *, #567, .F. ) ;
#80 = DIRECTION ( 'NONE',  ( 0.000000000000000000, 1.000000000000000000, 0.000000000000000000 ) ) ;
#81 = AXIS2_PLACEMENT_3D ( 'NONE', #274, #377, #601 ) ;
#82 = CIRCLE ( 'NONE', #226, 549.3876599837479944 ) ;
#83 = CARTESIAN_POINT ( 'NONE',  ( 6804.632647107378943, 3925.218631807570091, 0.000000000000000000 ) ) ;
#84 = EDGE_LOOP ( 'NONE', ( #632, #385, #557, #87 ) ) ;
#85 = DIRECTION ( 'NONE',  ( -0.000000000000000000, -0.000000000000000000, -1.000000000000000000 ) ) ;
#86 = CARTESIAN_POINT ( 'NONE',  ( 7127.770495737719102, 3294.930472973515407, 15.00000000000000000 ) ) ;
#87 = ORIENTED_EDGE ( 'NONE', *, *, #336, .T. ) ;
#88 = ADVANCED_FACE ( 'NONE', ( #343, #289, #150 ), #46, .F. ) ;
#89 = ORIENTED_EDGE ( 'NONE', *, *, #177, .F. ) ;
#90 = DIRECTION ( 'NONE',  ( 0.000000000000000000, 0.000000000000000000, 1.000000000000000000 ) ) ;
#91 = VECTOR ( 'NONE', #267, 1000.000000000000000 ) ;
#92 = ORIENTED_EDGE ( 'NONE', *, *, #503, .T. ) ;
#93 = AXIS2_PLACEMENT_3D ( 'NONE', #582, #416, #198 ) ;
#94 = PRODUCT_RELATED_PRODUCT_CATEGORY ( 'detail', '', ( #440 ) ) ;
#95 = DIRECTION ( 'NONE',  ( -0.000000000000000000, -0.000000000000000000, -1.000000000000000000 ) ) ;
#96 = CARTESIAN_POINT ( 'NONE',  ( 6578.382835753971449, 3294.930472973515407, 15.00000000000000000 ) ) ;
#97 = EDGE_CURVE ( 'NONE', #148, #256, #689, .T. ) ;
#98 = DATE_AND_TIME ( #512, #429 ) ;
#99 = ORIENTED_EDGE ( 'NONE', *, *, #177, .T. ) ;
#100 = ORIENTED_EDGE ( 'NONE', *, *, #549, .T. ) ;
#101 = CARTESIAN_POINT ( 'NONE',  ( 6834.632647107378943, 3925.218631807570091, 15.00000000000000000 ) ) ;
#102 = CARTESIAN_POINT ( 'NONE',  ( 6931.194327475610407, 3942.086059912549899, 15.00000000000000000 ) ) ;
#103 = EDGE_CURVE ( 'NONE', #464, #369, #187, .T. ) ;
#104 = VERTEX_POINT ( 'NONE', #474 ) ;
#105 = ORIENTED_EDGE ( 'NONE', *, *, #625, .T. ) ;
#106 = VERTEX_POINT ( 'NONE', #40 ) ;
#107 = CIRCLE ( 'NONE', #245, 68.67345749796794507 ) ;
#108 = DIRECTION ( 'NONE',  ( 0.000000000000000000, 0.000000000000000000, -1.000000000000000000 ) ) ;
#109 = VECTOR ( 'NONE', #636, 1000.000000000000000 ) ;
#110 = CIRCLE ( 'NONE', #322, 604.3264259821228279 ) ;
#111 = CARTESIAN_POINT ( 'NONE',  ( 6736.535378089650294, 3726.096811981450173, 0.000000000000000000 ) ) ;
#112 = ORIENTED_EDGE ( 'NONE', *, *, #671, .F. ) ;
#113 = DIRECTION ( 'NONE',  ( 0.02491805614023464427, -0.9996894970330498786, 0.000000000000000000 ) ) ;
#114 = ORIENTED_EDGE ( 'NONE', *, *, #210, .T. ) ;
#115 = CARTESIAN_POINT ( 'NONE',  ( 6931.194327475610407, 3942.086059912549899, 15.00000000000000000 ) ) ;
#116 = DIRECTION ( 'NONE',  ( 0.3624796339403966727, 0.9319916925479733161, 0.000000000000000000 ) ) ;
#117 = DIRECTION ( 'NONE',  ( 0.000000000000000000, 0.000000000000000000, 1.000000000000000000 ) ) ;
#118 = VECTOR ( 'NONE', #271, 1000.000000000000000 ) ;
#119 = LINE ( 'NONE', #317, #1 ) ;
#120 = LOCAL_TIME ( 15, 3, 27.00000000000000000, #445 ) ;
#121 = EDGE_CURVE ( 'NONE', #148, #337, #562, .T. ) ;
#122 = DIRECTION ( 'NONE',  ( -0.02491805614023464080, 0.9996894970330497676, 0.000000000000000000 ) ) ;
#123 = CC_DESIGN_PERSON_AND_ORGANIZATION_ASSIGNMENT ( #275, #283, ( #440 ) ) ;
#124 = LINE ( 'NONE', #12, #280 ) ;
#125 = DIRECTION ( 'NONE',  ( 1.000000000000000000, 0.000000000000000000, 0.000000000000000000 ) ) ;
#126 = VERTEX_POINT ( 'NONE', #393 ) ;
#127 = CYLINDRICAL_SURFACE ( 'NONE', #495, 30.00000000000024869 ) ;
#128 =( LENGTH_UNIT ( ) NAMED_UNIT ( * ) SI_UNIT ( .MILLI., .METRE. ) );
#129 = AXIS2_PLACEMENT_3D ( 'NONE', #60, #538, #651 ) ;
#130 = DIRECTION ( 'NONE',  ( 0.000000000000000000, 0.000000000000000000, 1.000000000000000000 ) ) ;
#131 = VECTOR ( 'NONE', #650, 1000.000000000000000 ) ;
#132 = VERTEX_POINT ( 'NONE', #96 ) ;
#133 = DIRECTION ( 'NONE',  ( 0.000000000000000000, 0.000000000000000000, 1.000000000000000000 ) ) ;
#134 = DIRECTION ( 'NONE',  ( 1.000000000000000000, 0.000000000000000000, 0.000000000000000000 ) ) ;
#135 = EDGE_CURVE ( 'NONE', #161, #106, #20, .T. ) ;
#136 = LINE ( 'NONE', #347, #373 ) ;
#137 = CYLINDRICAL_SURFACE ( 'NONE', #260, 30.00000000000024869 ) ;
#138 = CARTESIAN_POINT ( 'NONE',  ( 6945.940945926359745, 2803.072793588589775, 15.00000000000000000 ) ) ;
#139 = COORDINATED_UNIVERSAL_TIME_OFFSET ( 8, 0, .AHEAD. ) ;
#140 = CIRCLE ( 'NONE', #457, 30.00000000000024869 ) ;
#141 = CIRCLE ( 'NONE', #691, 604.3264259821228279 ) ;
#142 = DIRECTION ( 'NONE',  ( 1.000000000000000000, 0.000000000000000000, 0.000000000000000000 ) ) ;
#143 = DIRECTION ( 'NONE',  ( 1.000000000000000000, 0.000000000000000000, 0.000000000000000000 ) ) ;
#144 = CC_DESIGN_PERSON_AND_ORGANIZATION_ASSIGNMENT ( #643, #571, ( #618 ) ) ;
#145 = EDGE_LOOP ( 'NONE', ( #79, #676 ) ) ;
#146 = VERTEX_POINT ( 'NONE', #578 ) ;
#147 = FACE_OUTER_BOUND ( 'NONE', #77, .T. ) ;
#148 = VERTEX_POINT ( 'NONE', #250 ) ;
#149 = DIRECTION ( 'NONE',  ( 1.000000000000000000, 0.000000000000000000, 0.000000000000000000 ) ) ;
#150 = FACE_BOUND ( 'NONE', #50, .T. ) ;
#151 = ORIENTED_EDGE ( 'NONE', *, *, #285, .F. ) ;
#152 = AXIS2_PLACEMENT_3D ( 'NONE', #253, #528, #158 ) ;
#153 = ORIENTED_EDGE ( 'NONE', *, *, #558, .T. ) ;
#154 = AXIS2_PLACEMENT_3D ( 'NONE', #456, #201, #196 ) ;
#155 = CARTESIAN_POINT ( 'NONE',  ( 6907.319141749790106, 3597.978402283245487, 15.00000000000000000 ) ) ;
#156 = EDGE_CURVE ( 'NONE', #256, #478, #235, .T. ) ;
#157 = ADVANCED_FACE ( 'NONE', ( #202 ), #519, .F. ) ;
#158 = DIRECTION ( 'NONE',  ( -1.000000000000000000, 0.000000000000000000, 0.000000000000000000 ) ) ;
#159 = EDGE_LOOP ( 'NONE', ( #224, #58, #290, #477 ) ) ;
#160 = EDGE_LOOP ( 'NONE', ( #502, #513, #315, #188 ) ) ;
#161 = VERTEX_POINT ( 'NONE', #366 ) ;
#162 = ORIENTED_EDGE ( 'NONE', *, *, #21, .F. ) ;
#163 = CIRCLE ( 'NONE', #554, 30.00000000000024869 ) ;
#164 = DIRECTION ( 'NONE',  ( 0.000000000000000000, 0.000000000000000000, -1.000000000000000000 ) ) ;
#165 = ADVANCED_FACE ( 'NONE', ( #583 ), #207, .F. ) ;
#166 = FACE_OUTER_BOUND ( 'NONE', #160, .T. ) ;
#167 = DIRECTION ( 'NONE',  ( 1.000000000000000000, 0.000000000000000000, 0.000000000000000000 ) ) ;
#168 = LINE ( 'NONE', #593, #577 ) ;
#169 = CARTESIAN_POINT ( 'NONE',  ( 7380.922448723639718, 3222.598146057955091, 15.00000000000000000 ) ) ;
#170 = EDGE_CURVE ( 'NONE', #581, #148, #616, .T. ) ;
#171 = EDGE_CURVE ( 'NONE', #337, #259, #564, .T. ) ;
#172 = CIRCLE ( 'NONE', #390, 68.67345749796794507 ) ;
#173 = DIRECTION ( 'NONE',  ( 0.000000000000000000, 0.000000000000000000, -1.000000000000000000 ) ) ;
#174 = MECHANICAL_CONTEXT ( 'NONE', #309, 'mechanical' ) ;
#175 = CARTESIAN_POINT ( 'NONE',  ( 7380.922448723639718, 3222.598146057955091, 15.00000000000000000 ) ) ;
#176 = FACE_OUTER_BOUND ( 'NONE', #84, .T. ) ;
#177 = EDGE_CURVE ( 'NONE', #312, #132, #475, .T. ) ;
#178 = DATE_AND_TIME ( #18, #486 ) ;
#179 = ORIENTED_EDGE ( 'NONE', *, *, #696, .T. ) ;
#180 = VECTOR ( 'NONE', #622, 1000.000000000000000 ) ;
#181 = PERSON_AND_ORGANIZATION ( #342, #536 ) ;
#182 = APPROVAL_PERSON_ORGANIZATION ( #493, #192, #443 ) ;
#183 = DIRECTION ( 'NONE',  ( 1.000000000000000000, 0.000000000000000000, 0.000000000000000000 ) ) ;
#184 = EDGE_CURVE ( 'NONE', #104, #209, #449, .T. ) ;
#185 = CALENDAR_DATE ( 2026, 10, 4 ) ;
#186 = ORIENTED_EDGE ( 'NONE', *, *, #8, .T. ) ;
#187 = LINE ( 'NONE', #684, #509 ) ;
#188 = ORIENTED_EDGE ( 'NONE', *, *, #584, .F. ) ;
#189 = LINE ( 'NONE', #511, #24 ) ;
#190 = EDGE_LOOP ( 'NONE', ( #697, #112, #272, #690, #394, #323, #476, #345, #570, #591, #454, #673, #612 ) ) ;
#191 = PLANE ( 'NONE',  #640 ) ;
#192 = APPROVAL ( #609, '未指定' ) ;
#193 = ORIENTED_EDGE ( 'NONE', *, *, #254, .T. ) ;
#194 = CIRCLE ( 'NONE', #13, 30.00000000000024869 ) ;
#195 = CARTESIAN_POINT ( 'NONE',  ( 6736.535378089650294, 3726.096811981450173, 15.00000000000000000 ) ) ;
#196 = DIRECTION ( 'NONE',  ( 1.000000000000000000, 0.000000000000000000, 0.000000000000000000 ) ) ;
#197 = ORIENTED_EDGE ( 'NONE', *, *, #121, .T. ) ;
#198 = DIRECTION ( 'NONE',  ( 1.000000000000000000, 0.000000000000000000, 0.000000000000000000 ) ) ;
#199 = CARTESIAN_POINT ( 'NONE',  ( 6731.194327475610407, 3940.374850843274544, 15.00000000000000000 ) ) ;
#200 = EDGE_LOOP ( 'NONE', ( #649, #151, #529, #38 ) ) ;
#201 = DIRECTION ( 'NONE',  ( 0.000000000000000000, 0.000000000000000000, 1.000000000000000000 ) ) ;
#202 = FACE_OUTER_BOUND ( 'NONE', #694, .T. ) ;
#203 = EDGE_LOOP ( 'NONE', ( #100, #402, #321, #341 ) ) ;
#204 = VECTOR ( 'NONE', #463, 1000.000000000000000 ) ;
#205 = EDGE_CURVE ( 'NONE', #259, #146, #136, .T. ) ;
#206 = ORIENTED_EDGE ( 'NONE', *, *, #549, .F. ) ;
#207 = PLANE ( 'NONE',  #320 ) ;
#208 = VERTEX_POINT ( 'NONE', #325 ) ;
#209 = VERTEX_POINT ( 'NONE', #282 ) ;
#210 = EDGE_CURVE ( 'NONE', #420, #630, #4, .T. ) ;
#211 = FACE_OUTER_BOUND ( 'NONE', #645, .T. ) ;
#212 = ORIENTED_EDGE ( 'NONE', *, *, #285, .T. ) ;
#213 = LINE ( 'NONE', #426, #131 ) ;
#214 = CARTESIAN_POINT ( 'NONE',  ( 6945.940945926359745, 2803.072793588589775, 0.000000000000000000 ) ) ;
#215 = CC_DESIGN_PERSON_AND_ORGANIZATION_ASSIGNMENT ( #181, #448, ( #53 ) ) ;
#216 = AXIS2_PLACEMENT_3D ( 'NONE', #670, #133, #78 ) ;
#217 = CYLINDRICAL_SURFACE ( 'NONE', #129, 109.8775319967488713 ) ;
#218 = CARTESIAN_POINT ( 'NONE',  ( 6864.469242001679959, 3650.218631807570091, -113.1370849898482049 ) ) ;
#219 = EDGE_CURVE ( 'NONE', #464, #316, #656, .T. ) ;
#220 = DIRECTION ( 'NONE',  ( -1.000000000000000000, 1.669329592379185168E-14, 0.000000000000000000 ) ) ;
#221 = DIRECTION ( 'NONE',  ( 0.9996894970330497676, 0.02491805614023464080, 0.000000000000000000 ) ) ;
#222 = EDGE_CURVE ( 'NONE', #369, #364, #485, .T. ) ;
#223 = CYLINDRICAL_SURFACE ( 'NONE', #362, 68.67345749796794507 ) ;
#224 = ORIENTED_EDGE ( 'NONE', *, *, #415, .T. ) ;
#225 = AXIS2_PLACEMENT_3D ( 'NONE', #101, #635, #688 ) ;
#226 = AXIS2_PLACEMENT_3D ( 'NONE', #382, #72, #125 ) ;
#227 = DIRECTION ( 'NONE',  ( 0.000000000000000000, 0.000000000000000000, 1.000000000000000000 ) ) ;
#228 = CARTESIAN_POINT ( 'NONE',  ( 6862.524006533469219, 3942.742403137215206, 0.000000000000000000 ) ) ;
#229 = EDGE_CURVE ( 'NONE', #478, #146, #172, .T. ) ;
#230 = DIRECTION ( 'NONE',  ( 1.000000000000000000, 0.000000000000000000, 0.000000000000000000 ) ) ;
#231 = PERSON_AND_ORGANIZATION_ROLE ( 'creator' ) ;
#232 = CARTESIAN_POINT ( 'NONE',  ( 6804.469242001679049, 3650.218631807570091, 0.000000000000000000 ) ) ;
#233 = AXIS2_PLACEMENT_3D ( 'NONE', #249, #95, #310 ) ;
#234 = CIRCLE ( 'NONE', #2, 68.67345749796794507 ) ;
#235 = LINE ( 'NONE', #524, #204 ) ;
#236 = ORIENTED_EDGE ( 'NONE', *, *, #205, .T. ) ;
#237 = VERTEX_POINT ( 'NONE', #432 ) ;
#238 = ADVANCED_FACE ( 'NONE', ( #176 ), #608, .F. ) ;
#239 = EDGE_CURVE ( 'NONE', #369, #104, #141, .T. ) ;
#240 = LINE ( 'NONE', #195, #605 ) ;
#241 = CARTESIAN_POINT ( 'NONE',  ( 6834.469242001679049, 3650.218631807570091, 15.00000000000000000 ) ) ;
#242 = EDGE_LOOP ( 'NONE', ( #29, #539, #243, #284 ) ) ;
#243 = ORIENTED_EDGE ( 'NONE', *, *, #37, .T. ) ;
#244 = DIRECTION ( 'NONE',  ( 1.000000000000000000, 0.000000000000000000, 0.000000000000000000 ) ) ;
#245 = AXIS2_PLACEMENT_3D ( 'NONE', #355, #26, #669 ) ;
#246 = CIRCLE ( 'NONE', #81, 604.3264259821228279 ) ;
#247 = CIRCLE ( 'NONE', #62, 109.8775319967488713 ) ;
#248 = ORIENTED_EDGE ( 'NONE', *, *, #696, .F. ) ;
#249 = CARTESIAN_POINT ( 'NONE',  ( 6834.632647107378943, 3925.218631807570091, 0.000000000000000000 ) ) ;
#250 = CARTESIAN_POINT ( 'NONE',  ( 6931.194327475610407, 3666.364573937979912, 15.00000000000000000 ) ) ;
#251 = EDGE_LOOP ( 'NONE', ( #472, #544, #114, #585 ) ) ;
#252 = DIRECTION ( 'NONE',  ( 0.000000000000000000, 0.000000000000000000, 1.000000000000000000 ) ) ;
#253 = CARTESIAN_POINT ( 'NONE',  ( 7127.770495737719102, 3294.930472973515407, 15.00000000000000000 ) ) ;
#254 = EDGE_CURVE ( 'NONE', #208, #316, #261, .T. ) ;
#255 = ORIENTED_EDGE ( 'NONE', *, *, #8, .F. ) ;
#256 = VERTEX_POINT ( 'NONE', #661 ) ;
#257 = LINE ( 'NONE', #408, #460 ) ;
#258 = DIRECTION ( 'NONE',  ( 1.000000000000000000, 0.000000000000000000, 0.000000000000000000 ) ) ;
#259 = VERTEX_POINT ( 'NONE', #10 ) ;
#260 = AXIS2_PLACEMENT_3D ( 'NONE', #401, #19, #134 ) ;
#261 = CIRCLE ( 'NONE', #33, 549.3876599837479944 ) ;
#262 = EDGE_LOOP ( 'NONE', ( #308, #89, #48, #23 ) ) ;
#263 = ORIENTED_EDGE ( 'NONE', *, *, #492, .F. ) ;
#264 = APPROVAL ( #588, '未指定' ) ;
#265 = CARTESIAN_POINT ( 'NONE',  ( 6799.846461661270951, 3942.086059912549899, 15.00000000000000000 ) ) ;
#266 = CARTESIAN_POINT ( 'NONE',  ( 6626.691963392579964, 3723.358877470605421, 0.000000000000000000 ) ) ;
#267 = DIRECTION ( 'NONE',  ( -1.000000000000000000, 1.669329592379185168E-14, 0.000000000000000000 ) ) ;
#268 = VECTOR ( 'NONE', #227, 1000.000000000000000 ) ;
#269 = DIRECTION ( 'NONE',  ( -1.000000000000000000, 0.000000000000000000, 0.000000000000000000 ) ) ;
#270 = ADVANCED_FACE ( 'NONE', ( #166 ), #378, .F. ) ;
#271 = DIRECTION ( 'NONE',  ( 0.000000000000000000, 0.000000000000000000, -1.000000000000000000 ) ) ;
#272 = ORIENTED_EDGE ( 'NONE', *, *, #433, .F. ) ;
#273 = DIRECTION ( 'NONE',  ( 0.000000000000000000, 0.000000000000000000, 1.000000000000000000 ) ) ;
#274 = CARTESIAN_POINT ( 'NONE',  ( 7380.922448723639718, 3222.598146057955091, 0.000000000000000000 ) ) ;
#275 = PERSON_AND_ORGANIZATION ( #342, #536 ) ;
#276 = ORIENTED_EDGE ( 'NONE', *, *, #21, .T. ) ;
#277 = CARTESIAN_POINT ( 'NONE',  ( 6945.940945926359745, 2803.072793588589775, 15.00000000000000000 ) ) ;
#278 = APPLICATION_PROTOCOL_DEFINITION ( 'international standard', 'config_control_design', 1994, #309 ) ;
#279 = ADVANCED_FACE ( 'NONE', ( #387 ), #127, .F. ) ;
#280 = VECTOR ( 'NONE', #173, 1000.000000000000000 ) ;
#281 = AXIS2_PLACEMENT_3D ( 'NONE', #379, #473, #395 ) ;
#282 = CARTESIAN_POINT ( 'NONE',  ( 6776.596022741517118, 3222.598146057955091, 0.000000000000000000 ) ) ;
#283 = PERSON_AND_ORGANIZATION_ROLE ( 'design_owner' ) ;
#284 = ORIENTED_EDGE ( 'NONE', *, *, #589, .T. ) ;
#285 = EDGE_CURVE ( 'NONE', #337, #478, #124, .T. ) ;
#286 = DATE_AND_TIME ( #386, #34 ) ;
#287 = CARTESIAN_POINT ( 'NONE',  ( 6931.194327475610407, 3942.086059912549899, 15.00000000000000000 ) ) ;
#288 = EDGE_LOOP ( 'NONE', ( #354, #677, #255, #374 ) ) ;
#289 = FACE_BOUND ( 'NONE', #561, .T. ) ;
#290 = ORIENTED_EDGE ( 'NONE', *, *, #170, .F. ) ;
#291 = CARTESIAN_POINT ( 'NONE',  ( 6799.846461661270951, 4010.759517410519948, 15.00000000000000000 ) ) ;
#292 = CIRCLE ( 'NONE', #533, 109.8775319967488713 ) ;
#293 = VECTOR ( 'NONE', #340, 1000.000000000000000 ) ;
#294 = VECTOR ( 'NONE', #313, 1000.000000000000000 ) ;
#295 = DIRECTION ( 'NONE',  ( 0.000000000000000000, 0.000000000000000000, 1.000000000000000000 ) ) ;
#296 = EDGE_CURVE ( 'NONE', #316, #364, #384, .T. ) ;
#297 = DIRECTION ( 'NONE',  ( -1.000000000000000000, 0.000000000000000000, 0.000000000000000000 ) ) ;
#298 = CYLINDRICAL_SURFACE ( 'NONE', #553, 549.3876599837479944 ) ;
#299 = DESIGN_CONTEXT ( 'detailed design', #400, 'design' ) ;
#300 = CARTESIAN_POINT ( 'NONE',  ( 6799.846461661270951, 3942.086059912549899, 15.00000000000000000 ) ) ;
#301 = VERTEX_POINT ( 'NONE', #7 ) ;
#302 = DIRECTION ( 'NONE',  ( 0.000000000000000000, 0.000000000000000000, -1.000000000000000000 ) ) ;
#303 = CYLINDRICAL_SURFACE ( 'NONE', #545, 68.67345749796794507 ) ;
#304 = MANIFOLD_SOLID_BREP ( '输入1', #507 ) ;
#305 = VECTOR ( 'NONE', #116, 1000.000000000000114 ) ;
#306 = VECTOR ( 'NONE', #552, 1000.000000000000000 ) ;
#307 = CIRCLE ( 'NONE', #447, 30.00000000000024869 ) ;
#308 = ORIENTED_EDGE ( 'NONE', *, *, #49, .F. ) ;
#309 = APPLICATION_CONTEXT ( 'configuration controlled 3d designs of mechanical parts and assemblies' ) ;
#310 = DIRECTION ( 'NONE',  ( 1.000000000000000000, 0.000000000000000000, 0.000000000000000000 ) ) ;
#311 = ADVANCED_FACE ( 'NONE', ( #335 ), #328, .F. ) ;
#312 = VERTEX_POINT ( 'NONE', #331 ) ;
#313 = DIRECTION ( 'NONE',  ( 0.000000000000000000, 0.000000000000000000, -1.000000000000000000 ) ) ;
#314 = CYLINDRICAL_SURFACE ( 'NONE', #459, 30.00000000000024869 ) ;
#315 = ORIENTED_EDGE ( 'NONE', *, *, #504, .T. ) ;
#316 = VERTEX_POINT ( 'NONE', #550 ) ;
#317 = CARTESIAN_POINT ( 'NONE',  ( 6864.632647107379853, 3925.218631807570091, -113.1370849898482049 ) ) ;
#318 = VECTOR ( 'NONE', #389, 1000.000000000000000 ) ;
#319 = PRODUCT_DEFINITION ( '未知', '', #618, #299 ) ;
#320 = AXIS2_PLACEMENT_3D ( 'NONE', #102, #613, #130 ) ;
#321 = ORIENTED_EDGE ( 'NONE', *, *, #615, .T. ) ;
#322 = AXIS2_PLACEMENT_3D ( 'NONE', #527, #403, #573 ) ;
#323 = ORIENTED_EDGE ( 'NONE', *, *, #672, .F. ) ;
#324 = DIRECTION ( 'NONE',  ( 0.000000000000000000, 0.000000000000000000, -1.000000000000000000 ) ) ;
#325 = CARTESIAN_POINT ( 'NONE',  ( 6578.382835753971449, 3294.930472973515407, 0.000000000000000000 ) ) ;
#326 = EDGE_LOOP ( 'NONE', ( #644, #92, #525, #646 ) ) ;
#327 = CARTESIAN_POINT ( 'NONE',  ( 7127.770495737719102, 3294.930472973515407, 0.000000000000000000 ) ) ;
#328 = PLANE ( 'NONE',  #678 ) ;
#329 = AXIS2_PLACEMENT_3D ( 'NONE', #86, #252, #244 ) ;
#330 = CARTESIAN_POINT ( 'NONE',  ( 6821.316795478859603, 3666.364573937979912, 0.000000000000000000 ) ) ;
#331 = CARTESIAN_POINT ( 'NONE',  ( 6710.205052116800289, 3651.954143387785280, 15.00000000000000000 ) ) ;
#332 =( NAMED_UNIT ( * ) PLANE_ANGLE_UNIT ( ) SI_UNIT ( $, .RADIAN. ) );
#333 = DIRECTION ( 'NONE',  ( 1.000000000000000000, 0.000000000000000000, 0.000000000000000000 ) ) ;
#334 = ORIENTED_EDGE ( 'NONE', *, *, #239, .T. ) ;
#335 = FACE_OUTER_BOUND ( 'NONE', #288, .T. ) ;
#336 = EDGE_CURVE ( 'NONE', #364, #209, #246, .T. ) ;
#337 = VERTEX_POINT ( 'NONE', #115 ) ;
#338 = AXIS2_PLACEMENT_3D ( 'NONE', #175, #611, #551 ) ;
#339 = CC_DESIGN_APPROVAL ( #264, ( #618 ) ) ;
#340 = DIRECTION ( 'NONE',  ( 0.000000000000000000, 0.000000000000000000, -1.000000000000000000 ) ) ;
#341 = ORIENTED_EDGE ( 'NONE', *, *, #210, .F. ) ;
#342 = PERSON ( '未指定', '未指定', '未指定', ('未指定'), ('未指定'), ('未指定') ) ;
#343 = FACE_OUTER_BOUND ( 'NONE', #190, .T. ) ;
#344 = ORIENTED_EDGE ( 'NONE', *, *, #367, .T. ) ;
#345 = ORIENTED_EDGE ( 'NONE', *, *, #156, .F. ) ;
#346 = ADVANCED_FACE ( 'NONE', ( #211 ), #217, .F. ) ;
#347 = CARTESIAN_POINT ( 'NONE',  ( 6853.052157154530505, 4010.759517410519948, 15.00000000000000000 ) ) ;
#348 = DIRECTION ( 'NONE',  ( 1.000000000000000000, 0.000000000000000000, 0.000000000000000000 ) ) ;
#349 = CARTESIAN_POINT ( 'NONE',  ( 6799.846461661270951, 4010.759517410519948, 15.00000000000000000 ) ) ;
#350 = VECTOR ( 'NONE', #324, 1000.000000000000000 ) ;
#351 =( GEOMETRIC_REPRESENTATION_CONTEXT ( 3 ) GLOBAL_UNCERTAINTY_ASSIGNED_CONTEXT ( ( #675 ) ) GLOBAL_UNIT_ASSIGNED_CONTEXT ( ( #128, #332, #501 ) ) REPRESENTATION_CONTEXT ( 'NONE', 'WORKASPACE' ) );
#352 = CARTESIAN_POINT ( 'NONE',  ( 6626.691963392579964, 3723.358877470605421, 15.00000000000000000 ) ) ;
#353 = CARTESIAN_POINT ( 'NONE',  ( 6907.319141749790106, 3597.978402283245487, 0.000000000000000000 ) ) ;
#354 = ORIENTED_EDGE ( 'NONE', *, *, #433, .T. ) ;
#355 = CARTESIAN_POINT ( 'NONE',  ( 6799.846461661270951, 3942.086059912549899, 0.000000000000000000 ) ) ;
#356 = LINE ( 'NONE', #633, #294 ) ;
#357 = ORIENTED_EDGE ( 'NONE', *, *, #603, .T. ) ;
#358 = EDGE_CURVE ( 'NONE', #412, #399, #119, .T. ) ;
#359 = ORIENTED_EDGE ( 'NONE', *, *, #170, .T. ) ;
#360 = FACE_OUTER_BOUND ( 'NONE', #242, .T. ) ;
#361 = CARTESIAN_POINT ( 'NONE',  ( 7127.770495737719102, 3294.930472973515407, 0.000000000000000000 ) ) ;
#362 = AXIS2_PLACEMENT_3D ( 'NONE', #480, #164, #436 ) ;
#363 = ORIENTED_EDGE ( 'NONE', *, *, #483, .F. ) ;
#364 = VERTEX_POINT ( 'NONE', #214 ) ;
#365 = CARTESIAN_POINT ( 'NONE',  ( 6834.469242001679049, 3650.218631807570091, 0.000000000000000000 ) ) ;
#366 = CARTESIAN_POINT ( 'NONE',  ( 6731.194327475610407, 3940.374850843274544, 15.00000000000000000 ) ) ;
#367 = EDGE_CURVE ( 'NONE', #563, #161, #484, .T. ) ;
#368 = PERSON_AND_ORGANIZATION ( #342, #536 ) ;
#369 = VERTEX_POINT ( 'NONE', #647 ) ;
#370 = EDGE_CURVE ( 'NONE', #237, #208, #428, .T. ) ;
#371 = VERTEX_POINT ( 'NONE', #6 ) ;
#372 = DIRECTION ( 'NONE',  ( 0.000000000000000000, 0.000000000000000000, 1.000000000000000000 ) ) ;
#373 = VECTOR ( 'NONE', #57, 1000.000000000000000 ) ;
#374 = ORIENTED_EDGE ( 'NONE', *, *, #135, .T. ) ;
#375 = CIRCLE ( 'NONE', #93, 30.00000000000024869 ) ;
#376 = CARTESIAN_POINT ( 'NONE',  ( 7380.922448723639718, 3222.598146057955091, 15.00000000000000000 ) ) ;
#377 = DIRECTION ( 'NONE',  ( 0.000000000000000000, 0.000000000000000000, -1.000000000000000000 ) ) ;
#378 = CYLINDRICAL_SURFACE ( 'NONE', #614, 604.3264259821228279 ) ;
#379 = CARTESIAN_POINT ( 'NONE',  ( 6862.524006533469219, 3942.742403137215206, 15.00000000000000000 ) ) ;
#380 = EDGE_CURVE ( 'NONE', #259, #580, #9, .T. ) ;
#381 = CARTESIAN_POINT ( 'NONE',  ( 6945.940945926359745, 2803.072793588589775, 0.000000000000000000 ) ) ;
#382 = CARTESIAN_POINT ( 'NONE',  ( 7127.770495737719102, 3294.930472973515407, 15.00000000000000000 ) ) ;
#383 = CC_DESIGN_DATE_AND_TIME_ASSIGNMENT ( #620, #560, ( #319 ) ) ;
#384 = LINE ( 'NONE', #381, #305 ) ;
#385 = ORIENTED_EDGE ( 'NONE', *, *, #239, .F. ) ;
#386 = CALENDAR_DATE ( 2026, 10, 4 ) ;
#387 = FACE_OUTER_BOUND ( 'NONE', #203, .T. ) ;
#388 = APPROVAL_DATE_TIME ( #178, #192 ) ;
#389 = DIRECTION ( 'NONE',  ( 0.000000000000000000, 0.000000000000000000, -1.000000000000000000 ) ) ;
#390 = AXIS2_PLACEMENT_3D ( 'NONE', #228, #64, #663 ) ;
#391 = VECTOR ( 'NONE', #220, 1000.000000000000000 ) ;
#392 = APPROVAL_ROLE ( '' ) ;
#393 = CARTESIAN_POINT ( 'NONE',  ( 6736.535378089650294, 3726.096811981450173, 15.00000000000000000 ) ) ;
#394 = ORIENTED_EDGE ( 'NONE', *, *, #589, .F. ) ;
#395 = DIRECTION ( 'NONE',  ( -1.000000000000000000, 0.000000000000000000, 0.000000000000000000 ) ) ;
#396 = EDGE_CURVE ( 'NONE', #126, #450, #168, .T. ) ;
#397 = FACE_OUTER_BOUND ( 'NONE', #664, .T. ) ;
#398 = CARTESIAN_POINT ( 'NONE',  ( 6776.596022741517118, 3222.598146057955091, 15.00000000000000000 ) ) ;
#399 = VERTEX_POINT ( 'NONE', #604 ) ;
#400 = APPLICATION_CONTEXT ( 'configuration controlled 3d designs of mechanical parts and assemblies' ) ;
#401 = CARTESIAN_POINT ( 'NONE',  ( 6834.469242001679049, 3650.218631807570091, -113.1370849898482049 ) ) ;
#402 = ORIENTED_EDGE ( 'NONE', *, *, #662, .T. ) ;
#403 = DIRECTION ( 'NONE',  ( 0.000000000000000000, 0.000000000000000000, -1.000000000000000000 ) ) ;
#404 = VECTOR ( 'NONE', #80, 1000.000000000000000 ) ;
#405 = AXIS2_PLACEMENT_3D ( 'NONE', #655, #487, #700 ) ;
#406 = ORIENTED_EDGE ( 'NONE', *, *, #229, .T. ) ;
#407 = DIRECTION ( 'NONE',  ( 0.000000000000000000, 0.000000000000000000, -1.000000000000000000 ) ) ;
#408 = CARTESIAN_POINT ( 'NONE',  ( 6907.319141749790106, 3597.978402283245487, 15.00000000000000000 ) ) ;
#409 = APPROVAL ( #665, '未指定' ) ;
#410 = FACE_BOUND ( 'NONE', #145, .T. ) ;
#411 = DIRECTION ( 'NONE',  ( 0.3624796339403966727, 0.9319916925479733161, 0.000000000000000000 ) ) ;
#412 = VERTEX_POINT ( 'NONE', #431 ) ;
#413 = COORDINATED_UNIVERSAL_TIME_OFFSET ( 8, 0, .AHEAD. ) ;
#414 = ORIENTED_EDGE ( 'NONE', *, *, #358, .T. ) ;
#415 = EDGE_CURVE ( 'NONE', #623, #256, #658, .T. ) ;
#416 = DIRECTION ( 'NONE',  ( -0.000000000000000000, -0.000000000000000000, -1.000000000000000000 ) ) ;
#417 = CYLINDRICAL_SURFACE ( 'NONE', #152, 549.3876599837479944 ) ;
#418 = AXIS2_PLACEMENT_3D ( 'NONE', #265, #424, #657 ) ;
#419 = DATE_AND_TIME ( #469, #579 ) ;
#420 = VERTEX_POINT ( 'NONE', #548 ) ;
#421 = ADVANCED_FACE ( 'NONE', ( #490 ), #223, .T. ) ;
#422 = PERSON_AND_ORGANIZATION_ROLE ( 'design_supplier' ) ;
#423 = ORIENTED_EDGE ( 'NONE', *, *, #103, .F. ) ;
#424 = DIRECTION ( 'NONE',  ( 0.000000000000000000, 0.000000000000000000, 1.000000000000000000 ) ) ;
#425 = ORIENTED_EDGE ( 'NONE', *, *, #439, .F. ) ;
#426 = CARTESIAN_POINT ( 'NONE',  ( 6804.469242001679049, 3650.218631807570091, -113.1370849898482049 ) ) ;
#427 = CARTESIAN_POINT ( 'NONE',  ( 6710.205052116800289, 3651.954143387785280, 15.00000000000000000 ) ) ;
#428 = CIRCLE ( 'NONE', #520, 549.3876599837479944 ) ;
#429 = LOCAL_TIME ( 15, 3, 27.00000000000000000, #47 ) ;
#430 = DIRECTION ( 'NONE',  ( 1.000000000000000000, 0.000000000000000000, 0.000000000000000000 ) ) ;
#431 = CARTESIAN_POINT ( 'NONE',  ( 6864.632647107379853, 3925.218631807570091, 0.000000000000000000 ) ) ;
#432 = CARTESIAN_POINT ( 'NONE',  ( 6710.205052116800289, 3651.954143387785280, 0.000000000000000000 ) ) ;
#433 = EDGE_CURVE ( 'NONE', #106, #450, #599, .T. ) ;
#434 = CYLINDRICAL_SURFACE ( 'NONE', #281, 68.67345749796794507 ) ;
#435 = CARTESIAN_POINT ( 'NONE',  ( 6799.846461661270951, 4010.759517410519948, 15.00000000000000000 ) ) ;
#436 = DIRECTION ( 'NONE',  ( -1.000000000000000000, 0.000000000000000000, 0.000000000000000000 ) ) ;
#437 = AXIS2_PLACEMENT_3D ( 'NONE', #365, #680, #683 ) ;
#438 = EDGE_LOOP ( 'NONE', ( #248, #660, #193, #575 ) ) ;
#439 = EDGE_CURVE ( 'NONE', #312, #237, #699, .T. ) ;
#440 = PRODUCT ( 'GRIPPER_\X2\9ed88ba4\X0\_sldprt', 'GRIPPER_\X2\9ed88ba4\X0\_sldprt', '', ( #174 ) ) ;
#441 = CARTESIAN_POINT ( 'NONE',  ( 6799.846461661270951, 4010.759517410519948, 0.000000000000000000 ) ) ;
#442 = CARTESIAN_POINT ( 'NONE',  ( 7127.770495737719102, 3294.930472973515407, 0.000000000000000000 ) ) ;
#443 = APPROVAL_ROLE ( '' ) ;
#444 = CARTESIAN_POINT ( 'NONE',  ( 6834.632647107378943, 3925.218631807570091, -113.1370849898482049 ) ) ;
#445 = COORDINATED_UNIVERSAL_TIME_OFFSET ( 8, 0, .AHEAD. ) ;
#446 = EDGE_LOOP ( 'NONE', ( #674, #357, #105, #466 ) ) ;
#447 = AXIS2_PLACEMENT_3D ( 'NONE', #488, #117, #592 ) ;
#448 = PERSON_AND_ORGANIZATION_ROLE ( 'classification_officer' ) ;
#449 = LINE ( 'NONE', #398, #180 ) ;
#450 = VERTEX_POINT ( 'NONE', #482 ) ;
#451 = ORIENTED_EDGE ( 'NONE', *, *, #103, .T. ) ;
#452 = LINE ( 'NONE', #291, #626 ) ;
#453 = DIRECTION ( 'NONE',  ( 0.000000000000000000, 0.000000000000000000, 1.000000000000000000 ) ) ;
#454 = ORIENTED_EDGE ( 'NONE', *, *, #336, .F. ) ;
#455 = ORIENTED_EDGE ( 'NONE', *, *, #3, .F. ) ;
#456 = CARTESIAN_POINT ( 'NONE',  ( 6799.846461661270951, 3942.086059912549899, 15.00000000000000000 ) ) ;
#457 = AXIS2_PLACEMENT_3D ( 'NONE', #510, #85, #142 ) ;
#458 = ADVANCED_FACE ( 'NONE', ( #360 ), #303, .T. ) ;
#459 = AXIS2_PLACEMENT_3D ( 'NONE', #444, #295, #183 ) ;
#460 = VECTOR ( 'NONE', #566, 1000.000000000000000 ) ;
#461 = DIRECTION ( 'NONE',  ( 0.000000000000000000, 0.000000000000000000, -1.000000000000000000 ) ) ;
#462 = FACE_BOUND ( 'NONE', #522, .T. ) ;
#463 = DIRECTION ( 'NONE',  ( 0.000000000000000000, 1.000000000000000000, 0.000000000000000000 ) ) ;
#464 = VERTEX_POINT ( 'NONE', #31 ) ;
#465 = EDGE_CURVE ( 'NONE', #32, #412, #52, .T. ) ;
#466 = ORIENTED_EDGE ( 'NONE', *, *, #358, .F. ) ;
#467 = CARTESIAN_POINT ( 'NONE',  ( 6931.194327475610407, 3942.086059912549899, 0.000000000000000000 ) ) ;
#468 = DIRECTION ( 'NONE',  ( 0.000000000000000000, 0.000000000000000000, 1.000000000000000000 ) ) ;
#469 = CALENDAR_DATE ( 2026, 10, 4 ) ;
#470 = ADVANCED_FACE ( 'NONE', ( #624 ), #191, .F. ) ;
#471 = ADVANCED_FACE ( 'NONE', ( #147, #410, #462 ), #39, .T. ) ;
#472 = ORIENTED_EDGE ( 'NONE', *, *, #662, .F. ) ;
#473 = DIRECTION ( 'NONE',  ( 0.000000000000000000, 0.000000000000000000, -1.000000000000000000 ) ) ;
#474 = CARTESIAN_POINT ( 'NONE',  ( 6776.596022741517118, 3222.598146057955091, 15.00000000000000000 ) ) ;
#475 = CIRCLE ( 'NONE', #216, 549.3876599837479944 ) ;
#476 = ORIENTED_EDGE ( 'NONE', *, *, #229, .F. ) ;
#477 = ORIENTED_EDGE ( 'NONE', *, *, #584, .T. ) ;
#478 = VERTEX_POINT ( 'NONE', #467 ) ;
#479 = CYLINDRICAL_SURFACE ( 'NONE', #497, 109.8775319967488713 ) ;
#480 = CARTESIAN_POINT ( 'NONE',  ( 6799.846461661270951, 3942.086059912549899, 15.00000000000000000 ) ) ;
#481 = DIRECTION ( 'NONE',  ( 0.000000000000000000, 0.000000000000000000, -1.000000000000000000 ) ) ;
#482 = CARTESIAN_POINT ( 'NONE',  ( 6736.535378089650294, 3726.096811981450173, 0.000000000000000000 ) ) ;
#483 = EDGE_CURVE ( 'NONE', #44, #420, #22, .T. ) ;
#484 = CIRCLE ( 'NONE', #418, 68.67345749796794507 ) ;
#485 = LINE ( 'NONE', #277, #306 ) ;
#486 = LOCAL_TIME ( 15, 3, 27.00000000000000000, #14 ) ;
#487 = DIRECTION ( 'NONE',  ( 0.000000000000000000, 0.000000000000000000, 1.000000000000000000 ) ) ;
#488 = CARTESIAN_POINT ( 'NONE',  ( 6834.632647107378943, 3925.218631807570091, 15.00000000000000000 ) ) ;
#489 = DIRECTION ( 'NONE',  ( -1.000000000000000000, 0.000000000000000000, 0.000000000000000000 ) ) ;
#490 = FACE_OUTER_BOUND ( 'NONE', #326, .T. ) ;
#491 = CARTESIAN_POINT ( 'NONE',  ( 6936.878955077850151, 2779.773001274889793, 15.00000000000000000 ) ) ;
#492 = EDGE_CURVE ( 'NONE', #399, #371, #535, .T. ) ;
#493 = PERSON_AND_ORGANIZATION ( #342, #536 ) ;
#494 = DIRECTION ( 'NONE',  ( 0.000000000000000000, 0.000000000000000000, -1.000000000000000000 ) ) ;
#495 = AXIS2_PLACEMENT_3D ( 'NONE', #66, #543, #602 ) ;
#496 = APPLICATION_PROTOCOL_DEFINITION ( 'international standard', 'config_control_design', 1994, #400 ) ;
#497 = AXIS2_PLACEMENT_3D ( 'NONE', #698, #598, #269 ) ;
#498 = DIRECTION ( 'NONE',  ( 0.000000000000000000, 0.000000000000000000, -1.000000000000000000 ) ) ;
#499 = DATE_TIME_ROLE ( 'classification_date' ) ;
#500 = CARTESIAN_POINT ( 'NONE',  ( 6821.316795478859603, 3666.364573937979912, 15.00000000000000000 ) ) ;
#501 =( NAMED_UNIT ( * ) SI_UNIT ( $, .STERADIAN. ) SOLID_ANGLE_UNIT ( ) );
#502 = ORIENTED_EDGE ( 'NONE', *, *, #634, .F. ) ;
#503 = EDGE_CURVE ( 'NONE', #563, #56, #356, .T. ) ;
#504 = EDGE_CURVE ( 'NONE', #209, #623, #110, .T. ) ;
#505 = CARTESIAN_POINT ( 'NONE',  ( 6862.524006533469219, 3942.742403137215206, 15.00000000000000000 ) ) ;
#506 = ORIENTED_EDGE ( 'NONE', *, *, #671, .T. ) ;
#507 = CLOSED_SHELL ( 'NONE', ( #648, #279, #421, #270, #61, #471, #88, #68, #470, #238, #637, #165, #685, #157, #458, #311, #346, #15, #67 ) ) ;
#508 = CARTESIAN_POINT ( 'NONE',  ( 6731.173004163302721, 3942.086059912549899, 0.000000000000000000 ) ) ;
#509 = VECTOR ( 'NONE', #411, 1000.000000000000114 ) ;
#510 = CARTESIAN_POINT ( 'NONE',  ( 6834.632647107378943, 3925.218631807570091, 0.000000000000000000 ) ) ;
#511 = CARTESIAN_POINT ( 'NONE',  ( 6804.632647107378943, 3925.218631807570091, -113.1370849898482049 ) ) ;
#512 = CALENDAR_DATE ( 2026, 10, 4 ) ;
#513 = ORIENTED_EDGE ( 'NONE', *, *, #184, .T. ) ;
#514 = CC_DESIGN_PERSON_AND_ORGANIZATION_ASSIGNMENT ( #556, #231, ( #319 ) ) ;
#515 = CARTESIAN_POINT ( 'NONE',  ( 7127.770495737719102, 3294.930472973515407, 15.00000000000000000 ) ) ;
#516 = DIRECTION ( 'NONE',  ( -1.000000000000000000, 0.000000000000000000, 0.000000000000000000 ) ) ;
#517 = LINE ( 'NONE', #568, #318 ) ;
#518 = CARTESIAN_POINT ( 'NONE',  ( 6731.173004163302721, 3942.086059912549899, 15.00000000000000000 ) ) ;
#519 = PLANE ( 'NONE',  #69 ) ;
#520 = AXIS2_PLACEMENT_3D ( 'NONE', #327, #372, #63 ) ;
#521 = CC_DESIGN_APPROVAL ( #409, ( #53 ) ) ;
#522 = EDGE_LOOP ( 'NONE', ( #263, #73 ) ) ;
#523 = DIRECTION ( 'NONE',  ( 0.000000000000000000, 0.000000000000000000, -1.000000000000000000 ) ) ;
#524 = CARTESIAN_POINT ( 'NONE',  ( 6931.194327475610407, 3942.086059912549899, 0.000000000000000000 ) ) ;
#525 = ORIENTED_EDGE ( 'NONE', *, *, #65, .T. ) ;
#526 = EDGE_LOOP ( 'NONE', ( #406, #687, #600, #212 ) ) ;
#527 = CARTESIAN_POINT ( 'NONE',  ( 7380.922448723639718, 3222.598146057955091, 0.000000000000000000 ) ) ;
#528 = DIRECTION ( 'NONE',  ( 0.000000000000000000, 0.000000000000000000, -1.000000000000000000 ) ) ;
#529 = ORIENTED_EDGE ( 'NONE', *, *, #121, .F. ) ;
#530 = ADVANCED_BREP_SHAPE_REPRESENTATION ( 'GRIPPER_\X2\9ed88ba4\X0\_sldprt', ( #304, #679 ), #351 ) ;
#531 = ORIENTED_EDGE ( 'NONE', *, *, #603, .F. ) ;
#532 = FACE_OUTER_BOUND ( 'NONE', #159, .T. ) ;
#533 = AXIS2_PLACEMENT_3D ( 'NONE', #352, #461, #348 ) ;
#534 = DIRECTION ( 'NONE',  ( 0.000000000000000000, 0.000000000000000000, 1.000000000000000000 ) ) ;
#535 = CIRCLE ( 'NONE', #225, 30.00000000000024869 ) ;
#536 = ORGANIZATION ( '未指定', '未指定', '' ) ;
#537 = ORIENTED_EDGE ( 'NONE', *, *, #219, .T. ) ;
#538 = DIRECTION ( 'NONE',  ( 0.000000000000000000, 0.000000000000000000, -1.000000000000000000 ) ) ;
#539 = ORIENTED_EDGE ( 'NONE', *, *, #558, .F. ) ;
#540 = CYLINDRICAL_SURFACE ( 'NONE', #405, 30.00000000000024869 ) ;
#541 = CC_DESIGN_DATE_AND_TIME_ASSIGNMENT ( #286, #499, ( #53 ) ) ;
#542 = DIRECTION ( 'NONE',  ( 0.000000000000000000, 0.000000000000000000, -1.000000000000000000 ) ) ;
#543 = DIRECTION ( 'NONE',  ( 0.000000000000000000, 0.000000000000000000, 1.000000000000000000 ) ) ;
#544 = ORIENTED_EDGE ( 'NONE', *, *, #483, .T. ) ;
#545 = AXIS2_PLACEMENT_3D ( 'NONE', #300, #523, #516 ) ;
#546 = CARTESIAN_POINT ( 'NONE',  ( 6736.535378089650294, 3726.096811981450173, 15.00000000000000000 ) ) ;
#547 = CC_DESIGN_APPROVAL ( #192, ( #319 ) ) ;
#548 = CARTESIAN_POINT ( 'NONE',  ( 6864.469242001679959, 3650.218631807570091, 0.000000000000000000 ) ) ;
#549 = EDGE_CURVE ( 'NONE', #420, #44, #375, .T. ) ;
#550 = CARTESIAN_POINT ( 'NONE',  ( 6936.878955077850151, 2779.773001274889793, 0.000000000000000000 ) ) ;
#551 = DIRECTION ( 'NONE',  ( -1.000000000000000000, 0.000000000000000000, 0.000000000000000000 ) ) ;
#552 = DIRECTION ( 'NONE',  ( 0.000000000000000000, 0.000000000000000000, -1.000000000000000000 ) ) ;
#553 = AXIS2_PLACEMENT_3D ( 'NONE', #515, #407, #297 ) ;
#554 = AXIS2_PLACEMENT_3D ( 'NONE', #241, #453, #143 ) ;
#555 = CARTESIAN_POINT ( 'NONE',  ( 6931.194327475610407, 3666.364573937979912, 15.00000000000000000 ) ) ;
#556 = PERSON_AND_ORGANIZATION ( #342, #536 ) ;
#557 = ORIENTED_EDGE ( 'NONE', *, *, #222, .T. ) ;
#558 = EDGE_CURVE ( 'NONE', #580, #563, #595, .T. ) ;
#559 = DIRECTION ( 'NONE',  ( 0.000000000000000000, 0.000000000000000000, 1.000000000000000000 ) ) ;
#560 = DATE_TIME_ROLE ( 'creation_date' ) ;
#561 = EDGE_LOOP ( 'NONE', ( #206, #363 ) ) ;
#562 = LINE ( 'NONE', #287, #404 ) ;
#563 = VERTEX_POINT ( 'NONE', #518 ) ;
#564 = CIRCLE ( 'NONE', #594, 68.67345749796794507 ) ;
#565 = CC_DESIGN_SECURITY_CLASSIFICATION ( #53, ( #618 ) ) ;
#566 = DIRECTION ( 'NONE',  ( 0.000000000000000000, 0.000000000000000000, -1.000000000000000000 ) ) ;
#567 = EDGE_CURVE ( 'NONE', #630, #301, #194, .T. ) ;
#568 = CARTESIAN_POINT ( 'NONE',  ( 6578.382835753971449, 3294.930472973515407, 15.00000000000000000 ) ) ;
#569 = DIRECTION ( 'NONE',  ( -0.9319916925479733161, 0.3624796339403966727, 0.000000000000000000 ) ) ;
#570 = ORIENTED_EDGE ( 'NONE', *, *, #415, .F. ) ;
#571 = PERSON_AND_ORGANIZATION_ROLE ( 'creator' ) ;
#572 = FACE_OUTER_BOUND ( 'NONE', #251, .T. ) ;
#573 = DIRECTION ( 'NONE',  ( 1.000000000000000000, 0.000000000000000000, 0.000000000000000000 ) ) ;
#574 = ORIENTED_EDGE ( 'NONE', *, *, #296, .T. ) ;
#575 = ORIENTED_EDGE ( 'NONE', *, *, #219, .F. ) ;
#576 = DIRECTION ( 'NONE',  ( -0.3624796339403966727, -0.9319916925479733161, 0.000000000000000000 ) ) ;
#577 = VECTOR ( 'NONE', #542, 1000.000000000000000 ) ;
#578 = CARTESIAN_POINT ( 'NONE',  ( 6853.052157154530505, 4010.759517410519948, 0.000000000000000000 ) ) ;
#579 = LOCAL_TIME ( 15, 3, 27.00000000000000000, #413 ) ;
#580 = VERTEX_POINT ( 'NONE', #349 ) ;
#581 = VERTEX_POINT ( 'NONE', #155 ) ;
#582 = CARTESIAN_POINT ( 'NONE',  ( 6834.469242001679049, 3650.218631807570091, 0.000000000000000000 ) ) ;
#583 = FACE_OUTER_BOUND ( 'NONE', #200, .T. ) ;
#584 = EDGE_CURVE ( 'NONE', #581, #623, #257, .T. ) ;
#585 = ORIENTED_EDGE ( 'NONE', *, *, #567, .T. ) ;
#586 = ORIENTED_EDGE ( 'NONE', *, *, #634, .T. ) ;
#587 = LINE ( 'NONE', #652, #391 ) ;
#588 = APPROVAL_STATUS ( 'not_yet_approved' ) ;
#589 = EDGE_CURVE ( 'NONE', #695, #56, #234, .T. ) ;
#590 = APPROVAL_ROLE ( '' ) ;
#591 = ORIENTED_EDGE ( 'NONE', *, *, #504, .F. ) ;
#592 = DIRECTION ( 'NONE',  ( 1.000000000000000000, 0.000000000000000000, 0.000000000000000000 ) ) ;
#593 = CARTESIAN_POINT ( 'NONE',  ( 6736.535378089650294, 3726.096811981450173, 15.00000000000000000 ) ) ;
#594 = AXIS2_PLACEMENT_3D ( 'NONE', #505, #559, #666 ) ;
#595 = CIRCLE ( 'NONE', #154, 68.67345749796794507 ) ;
#596 = CC_DESIGN_PERSON_AND_ORGANIZATION_ASSIGNMENT ( #368, #422, ( #618 ) ) ;
#597 = ORIENTED_EDGE ( 'NONE', *, *, #37, .F. ) ;
#598 = DIRECTION ( 'NONE',  ( 0.000000000000000000, 0.000000000000000000, -1.000000000000000000 ) ) ;
#599 = LINE ( 'NONE', #111, #59 ) ;
#600 = ORIENTED_EDGE ( 'NONE', *, *, #171, .F. ) ;
#601 = DIRECTION ( 'NONE',  ( 1.000000000000000000, 0.000000000000000000, 0.000000000000000000 ) ) ;
#602 = DIRECTION ( 'NONE',  ( 1.000000000000000000, 0.000000000000000000, 0.000000000000000000 ) ) ;
#603 = EDGE_CURVE ( 'NONE', #32, #371, #189, .T. ) ;
#604 = CARTESIAN_POINT ( 'NONE',  ( 6864.632647107379853, 3925.218631807570091, 15.00000000000000000 ) ) ;
#605 = VECTOR ( 'NONE', #25, 999.9999999999998863 ) ;
#606 = AXIS2_PLACEMENT_3D ( 'NONE', #500, #17, #230 ) ;
#607 = AXIS2_PLACEMENT_3D ( 'NONE', #376, #108, #167 ) ;
#608 = CYLINDRICAL_SURFACE ( 'NONE', #338, 604.3264259821228279 ) ;
#609 = APPROVAL_STATUS ( 'not_yet_approved' ) ;
#610 = EDGE_LOOP ( 'NONE', ( #574, #638, #423, #537 ) ) ;
#611 = DIRECTION ( 'NONE',  ( 0.000000000000000000, 0.000000000000000000, -1.000000000000000000 ) ) ;
#612 = ORIENTED_EDGE ( 'NONE', *, *, #254, .F. ) ;
#613 = DIRECTION ( 'NONE',  ( -1.000000000000000000, 0.000000000000000000, 0.000000000000000000 ) ) ;
#614 = AXIS2_PLACEMENT_3D ( 'NONE', #70, #494, #489 ) ;
#615 = EDGE_CURVE ( 'NONE', #301, #630, #163, .T. ) ;
#616 = CIRCLE ( 'NONE', #606, 109.8775319967488713 ) ;
#617 = DIRECTION ( 'NONE',  ( 0.000000000000000000, 0.000000000000000000, 1.000000000000000000 ) ) ;
#618 = PRODUCT_DEFINITION_FORMATION_WITH_SPECIFIED_SOURCE ( '任何', '', #440, .NOT_KNOWN. ) ;
#619 = ORIENTED_EDGE ( 'NONE', *, *, #396, .T. ) ;
#620 = DATE_AND_TIME ( #185, #120 ) ;
#621 = ORIENTED_EDGE ( 'NONE', *, *, #492, .T. ) ;
#622 = DIRECTION ( 'NONE',  ( 0.000000000000000000, 0.000000000000000000, -1.000000000000000000 ) ) ;
#623 = VERTEX_POINT ( 'NONE', #353 ) ;
#624 = FACE_OUTER_BOUND ( 'NONE', #610, .T. ) ;
#625 = EDGE_CURVE ( 'NONE', #371, #399, #307, .T. ) ;
#626 = VECTOR ( 'NONE', #302, 1000.000000000000000 ) ;
#627 = FACE_OUTER_BOUND ( 'NONE', #438, .T. ) ;
#628 = AXIS2_PLACEMENT_3D ( 'NONE', #361, #468, #258 ) ;
#629 = DIRECTION ( 'NONE',  ( 1.000000000000000000, 0.000000000000000000, 0.000000000000000000 ) ) ;
#630 = VERTEX_POINT ( 'NONE', #55 ) ;
#631 = APPROVAL_DATE_TIME ( #419, #264 ) ;
#632 = ORIENTED_EDGE ( 'NONE', *, *, #184, .F. ) ;
#633 = CARTESIAN_POINT ( 'NONE',  ( 6731.173004163302721, 3942.086059912549899, 15.00000000000000000 ) ) ;
#634 = EDGE_CURVE ( 'NONE', #104, #581, #71, .T. ) ;
#635 = DIRECTION ( 'NONE',  ( 0.000000000000000000, 0.000000000000000000, 1.000000000000000000 ) ) ;
#636 = DIRECTION ( 'NONE',  ( 0.000000000000000000, 0.000000000000000000, -1.000000000000000000 ) ) ;
#637 = ADVANCED_FACE ( 'NONE', ( #532 ), #479, .T. ) ;
#638 = ORIENTED_EDGE ( 'NONE', *, *, #222, .F. ) ;
#639 = CARTESIAN_POINT ( 'NONE',  ( 6834.469242001679049, 3650.218631807570091, 15.00000000000000000 ) ) ;
#640 = AXIS2_PLACEMENT_3D ( 'NONE', #138, #569, #576 ) ;
#641 = CARTESIAN_POINT ( 'NONE',  ( 6799.846461661270951, 4010.759517410519948, 15.00000000000000000 ) ) ;
#642 = APPROVAL_PERSON_ORGANIZATION ( #41, #264, #590 ) ;
#643 = PERSON_AND_ORGANIZATION ( #342, #536 ) ;
#644 = ORIENTED_EDGE ( 'NONE', *, *, #367, .F. ) ;
#645 = EDGE_LOOP ( 'NONE', ( #506, #425, #162, #619 ) ) ;
#646 = ORIENTED_EDGE ( 'NONE', *, *, #135, .F. ) ;
#647 = CARTESIAN_POINT ( 'NONE',  ( 6945.940945926359745, 2803.072793588589775, 15.00000000000000000 ) ) ;
#648 = ADVANCED_FACE ( 'NONE', ( #51 ), #540, .F. ) ;
#649 = ORIENTED_EDGE ( 'NONE', *, *, #156, .T. ) ;
#650 = DIRECTION ( 'NONE',  ( 0.000000000000000000, 0.000000000000000000, 1.000000000000000000 ) ) ;
#651 = DIRECTION ( 'NONE',  ( -1.000000000000000000, 0.000000000000000000, 0.000000000000000000 ) ) ;
#652 = CARTESIAN_POINT ( 'NONE',  ( 6799.846461661270951, 4010.759517410519948, 0.000000000000000000 ) ) ;
#653 = DIRECTION ( 'NONE',  ( 1.000000000000000000, 0.000000000000000000, 0.000000000000000000 ) ) ;
#654 = DIRECTION ( 'NONE',  ( 0.000000000000000000, 0.000000000000000000, 1.000000000000000000 ) ) ;
#655 = CARTESIAN_POINT ( 'NONE',  ( 6834.632647107378943, 3925.218631807570091, -113.1370849898482049 ) ) ;
#656 = LINE ( 'NONE', #491, #118 ) ;
#657 = DIRECTION ( 'NONE',  ( 1.000000000000000000, 0.000000000000000000, 0.000000000000000000 ) ) ;
#658 = CIRCLE ( 'NONE', #667, 109.8775319967488713 ) ;
#659 = DIRECTION ( 'NONE',  ( 1.000000000000000000, 0.000000000000000000, 0.000000000000000000 ) ) ;
#660 = ORIENTED_EDGE ( 'NONE', *, *, #49, .T. ) ;
#661 = CARTESIAN_POINT ( 'NONE',  ( 6931.194327475610407, 3666.364573937979912, 0.000000000000000000 ) ) ;
#662 = EDGE_CURVE ( 'NONE', #44, #301, #213, .T. ) ;
#663 = DIRECTION ( 'NONE',  ( 1.000000000000000000, 0.000000000000000000, 0.000000000000000000 ) ) ;
#664 = EDGE_LOOP ( 'NONE', ( #531, #686, #414, #621 ) ) ;
#665 = APPROVAL_STATUS ( 'not_yet_approved' ) ;
#666 = DIRECTION ( 'NONE',  ( 1.000000000000000000, 0.000000000000000000, 0.000000000000000000 ) ) ;
#667 = AXIS2_PLACEMENT_3D ( 'NONE', #330, #273, #653 ) ;
#668 = DIRECTION ( 'NONE',  ( 1.000000000000000000, 0.000000000000000000, 0.000000000000000000 ) ) ;
#669 = DIRECTION ( 'NONE',  ( 1.000000000000000000, 0.000000000000000000, 0.000000000000000000 ) ) ;
#670 = CARTESIAN_POINT ( 'NONE',  ( 7127.770495737719102, 3294.930472973515407, 15.00000000000000000 ) ) ;
#671 = EDGE_CURVE ( 'NONE', #450, #237, #247, .T. ) ;
#672 = EDGE_CURVE ( 'NONE', #146, #695, #587, .T. ) ;
#673 = ORIENTED_EDGE ( 'NONE', *, *, #296, .F. ) ;
#674 = ORIENTED_EDGE ( 'NONE', *, *, #3, .T. ) ;
#675 = UNCERTAINTY_MEASURE_WITH_UNIT (LENGTH_MEASURE( 1.000000000000000082E-05 ), #128, 'distance_accuracy_value', 'NONE');
#676 = ORIENTED_EDGE ( 'NONE', *, *, #615, .F. ) ;
#677 = ORIENTED_EDGE ( 'NONE', *, *, #396, .F. ) ;
#678 = AXIS2_PLACEMENT_3D ( 'NONE', #546, #221, #122 ) ;
#679 = AXIS2_PLACEMENT_3D ( 'NONE', #76, #617, #668 ) ;
#680 = DIRECTION ( 'NONE',  ( -0.000000000000000000, -0.000000000000000000, -1.000000000000000000 ) ) ;
#681 = SECURITY_CLASSIFICATION_LEVEL ( 'unclassified' ) ;
#682 = ORIENTED_EDGE ( 'NONE', *, *, #672, .T. ) ;
#683 = DIRECTION ( 'NONE',  ( 1.000000000000000000, 0.000000000000000000, 0.000000000000000000 ) ) ;
#684 = CARTESIAN_POINT ( 'NONE',  ( 6945.940945926359745, 2803.072793588589775, 15.00000000000000000 ) ) ;
#685 = ADVANCED_FACE ( 'NONE', ( #5 ), #434, .T. ) ;
#686 = ORIENTED_EDGE ( 'NONE', *, *, #465, .T. ) ;
#687 = ORIENTED_EDGE ( 'NONE', *, *, #205, .F. ) ;
#688 = DIRECTION ( 'NONE',  ( 1.000000000000000000, 0.000000000000000000, 0.000000000000000000 ) ) ;
#689 = LINE ( 'NONE', #555, #109 ) ;
#690 = ORIENTED_EDGE ( 'NONE', *, *, #65, .F. ) ;
#691 = AXIS2_PLACEMENT_3D ( 'NONE', #169, #498, #659 ) ;
#692 = DIRECTION ( 'NONE',  ( 1.000000000000000000, -1.669329592379185168E-14, 0.000000000000000000 ) ) ;
#693 = APPROVAL_PERSON_ORGANIZATION ( #16, #409, #392 ) ;
#694 = EDGE_LOOP ( 'NONE', ( #682, #597, #54, #236 ) ) ;
#695 = VERTEX_POINT ( 'NONE', #441 ) ;
#696 = EDGE_CURVE ( 'NONE', #132, #464, #82, .T. ) ;
#697 = ORIENTED_EDGE ( 'NONE', *, *, #370, .F. ) ;
#698 = CARTESIAN_POINT ( 'NONE',  ( 6821.316795478859603, 3666.364573937979912, 15.00000000000000000 ) ) ;
#699 = LINE ( 'NONE', #427, #350 ) ;
#700 = DIRECTION ( 'NONE',  ( 1.000000000000000000, 0.000000000000000000, 0.000000000000000000 ) ) ;
ENDSEC;
END-ISO-10303-21;
