ISO-10303-21;
HEADER;
FILE_DESCRIPTION (( 'STEP AP203' ),
    '1' );
FILE_NAME ('LINK_默认_sldprt.STEP',
    '2026-04-10T07:03:29',
    ( '' ),
    ( '' ),
    'SwSTEP 2.0',
    'SolidWorks 2022',
    '' );
FILE_SCHEMA (( 'CONFIG_CONTROL_DESIGN' ));
ENDSEC;

DATA;
#1 = CYLINDRICAL_SURFACE ( 'NONE', #231, 30.00000000000002842 ) ;
#2 = AXIS2_PLACEMENT_3D ( 'NONE', #445, #523, #212 ) ;
#3 = CIRCLE ( 'NONE', #209, 10.00000000000000888 ) ;
#4 = AXIS2_PLACEMENT_3D ( 'NONE', #221, #431, #59 ) ;
#5 = EDGE_CURVE ( 'NONE', #93, #124, #327, .T. ) ;
#6 = ORIENTED_EDGE ( 'NONE', *, *, #191, .T. ) ;
#7 = CARTESIAN_POINT ( 'NONE',  ( 70.00000000000000000, 65.00000000000000000, 40.00000000000000000 ) ) ;
#8 = EDGE_LOOP ( 'NONE', ( #48, #66, #64, #375 ) ) ;
#9 = VERTEX_POINT ( 'NONE', #29 ) ;
#10 = ADVANCED_FACE ( 'NONE', ( #511 ), #401, .F. ) ;
#11 = CIRCLE ( 'NONE', #487, 30.00000000000000000 ) ;
#12 = ORIENTED_EDGE ( 'NONE', *, *, #336, .T. ) ;
#13 = CC_DESIGN_PERSON_AND_ORGANIZATION_ASSIGNMENT ( #101, #189, ( #43 ) ) ;
#14 = DATE_AND_TIME ( #341, #16 ) ;
#15 = PLANE ( 'NONE',  #4 ) ;
#16 = LOCAL_TIME ( 15, 3, 29.00000000000000000, #96 ) ;
#17 = CIRCLE ( 'NONE', #267, 30.00000000000002842 ) ;
#18 = CARTESIAN_POINT ( 'NONE',  ( 70.00000000000000000, 65.00000000000000000, 40.00000000000000000 ) ) ;
#19 = PLANE ( 'NONE',  #242 ) ;
#20 = DIRECTION ( 'NONE',  ( -1.000000000000000000, 0.000000000000000000, 0.000000000000000000 ) ) ;
#21 = CLOSED_SHELL ( 'NONE', ( #30, #419, #229, #494, #207, #290, #168, #10, #109, #370, #326, #84, #98, #239 ) ) ;
#22 = LINE ( 'NONE', #383, #222 ) ;
#23 = VECTOR ( 'NONE', #470, 1000.000000000000000 ) ;
#24 = PERSON ( '未指定', '未指定', '未指定', ('未指定'), ('未指定'), ('未指定') ) ;
#25 = APPROVAL_DATE_TIME ( #437, #58 ) ;
#26 = EDGE_LOOP ( 'NONE', ( #390, #185, #353, #204 ) ) ;
#27 =( LENGTH_UNIT ( ) NAMED_UNIT ( * ) SI_UNIT ( .MILLI., .METRE. ) );
#28 = COORDINATED_UNIVERSAL_TIME_OFFSET ( 8, 0, .AHEAD. ) ;
#29 = CARTESIAN_POINT ( 'NONE',  ( 1082.000000000000000, 65.00000000000000000, 40.00000000000000000 ) ) ;
#30 = ADVANCED_FACE ( 'NONE', ( #520 ), #1, .F. ) ;
#31 = DIRECTION ( 'NONE',  ( 0.000000000000000000, 0.000000000000000000, -1.000000000000000000 ) ) ;
#32 = CARTESIAN_POINT ( 'NONE',  ( 0.000000000000000000, 0.000000000000000000, 0.000000000000000000 ) ) ;
#33 = VERTEX_POINT ( 'NONE', #159 ) ;
#34 = DIRECTION ( 'NONE',  ( 0.000000000000000000, 0.000000000000000000, -1.000000000000000000 ) ) ;
#35 = CYLINDRICAL_SURFACE ( 'NONE', #374, 10.00000000000000000 ) ;
#36 = VECTOR ( 'NONE', #31, 1000.000000000000000 ) ;
#37 = LINE ( 'NONE', #509, #465 ) ;
#38 = FACE_OUTER_BOUND ( 'NONE', #8, .T. ) ;
#39 = DIRECTION ( 'NONE',  ( 0.000000000000000000, 0.000000000000000000, 1.000000000000000000 ) ) ;
#40 = EDGE_LOOP ( 'NONE', ( #52, #146 ) ) ;
#41 = DIRECTION ( 'NONE',  ( 0.000000000000000000, 0.000000000000000000, -1.000000000000000000 ) ) ;
#42 = CARTESIAN_POINT ( 'NONE',  ( 100.0000000000000000, 65.00000000000000000, 40.00000000000000000 ) ) ;
#43 = PRODUCT_DEFINITION ( '未知', '', #72, #415 ) ;
#44 = VERTEX_POINT ( 'NONE', #282 ) ;
#45 = LINE ( 'NONE', #42, #97 ) ;
#46 = VECTOR ( 'NONE', #86, 1000.000000000000000 ) ;
#47 = VECTOR ( 'NONE', #155, 1000.000000000000000 ) ;
#48 = ORIENTED_EDGE ( 'NONE', *, *, #262, .T. ) ;
#49 = DIRECTION ( 'NONE',  ( 0.000000000000000000, 0.000000000000000000, 1.000000000000000000 ) ) ;
#50 = ORIENTED_EDGE ( 'NONE', *, *, #462, .T. ) ;
#51 = EDGE_CURVE ( 'NONE', #69, #213, #232, .T. ) ;
#52 = ORIENTED_EDGE ( 'NONE', *, *, #483, .T. ) ;
#53 = UNCERTAINTY_MEASURE_WITH_UNIT (LENGTH_MEASURE( 1.000000000000000082E-05 ), #27, 'distance_accuracy_value', 'NONE');
#54 = ORIENTED_EDGE ( 'NONE', *, *, #137, .T. ) ;
#55 = APPROVAL ( #363, '未指定' ) ;
#56 = CIRCLE ( 'NONE', #439, 30.00000000000000000 ) ;
#57 = CARTESIAN_POINT ( 'NONE',  ( 1022.000000000000000, 65.00000000000000000, 40.00000000000000000 ) ) ;
#58 = APPROVAL ( #302, '未指定' ) ;
#59 = DIRECTION ( 'NONE',  ( -1.000000000000000000, 0.000000000000000000, 0.000000000000000000 ) ) ;
#60 = PERSON_AND_ORGANIZATION_ROLE ( 'design_owner' ) ;
#61 = CARTESIAN_POINT ( 'NONE',  ( 1112.000000000000000, 0.000000000000000000, 0.000000000000000000 ) ) ;
#62 = AXIS2_PLACEMENT_3D ( 'NONE', #118, #113, #361 ) ;
#63 = CARTESIAN_POINT ( 'NONE',  ( 1.734723475976804925E-15, 120.0000000000000000, 40.00000000000000000 ) ) ;
#64 = ORIENTED_EDGE ( 'NONE', *, *, #191, .F. ) ;
#65 = CYLINDRICAL_SURFACE ( 'NONE', #174, 10.00000000000000888 ) ;
#66 = ORIENTED_EDGE ( 'NONE', *, *, #336, .F. ) ;
#67 = CC_DESIGN_PERSON_AND_ORGANIZATION_ASSIGNMENT ( #111, #463, ( #72 ) ) ;
#68 = FACE_OUTER_BOUND ( 'NONE', #26, .T. ) ;
#69 = VERTEX_POINT ( 'NONE', #245 ) ;
#70 = AXIS2_PLACEMENT_3D ( 'NONE', #448, #334, #120 ) ;
#71 = DIRECTION ( 'NONE',  ( -1.000000000000000000, 0.000000000000000000, 0.000000000000000000 ) ) ;
#72 = PRODUCT_DEFINITION_FORMATION_WITH_SPECIFIED_SOURCE ( '任何', '', #340, .NOT_KNOWN. ) ;
#73 = PERSON_AND_ORGANIZATION_ROLE ( 'classification_officer' ) ;
#74 = ORIENTED_EDGE ( 'NONE', *, *, #435, .T. ) ;
#75 = EDGE_CURVE ( 'NONE', #203, #488, #373, .T. ) ;
#76 = CARTESIAN_POINT ( 'NONE',  ( 1122.000000000000000, 10.00000000000000000, 0.000000000000000000 ) ) ;
#77 = PERSON_AND_ORGANIZATION ( #24, #133 ) ;
#78 = CARTESIAN_POINT ( 'NONE',  ( 70.00000000000000000, 65.00000000000000000, 0.000000000000000000 ) ) ;
#79 = DIRECTION ( 'NONE',  ( 1.000000000000000000, 0.000000000000000000, 0.000000000000000000 ) ) ;
#80 = DIRECTION ( 'NONE',  ( 0.000000000000000000, 0.000000000000000000, 1.000000000000000000 ) ) ;
#81 = CARTESIAN_POINT ( 'NONE',  ( 0.000000000000000000, 10.00000000000000000, 0.000000000000000000 ) ) ;
#82 = FACE_OUTER_BOUND ( 'NONE', #395, .T. ) ;
#83 = EDGE_LOOP ( 'NONE', ( #516, #214, #255, #211, #6, #313, #408, #493 ) ) ;
#84 = ADVANCED_FACE ( 'NONE', ( #88 ), #489, .F. ) ;
#85 = LINE ( 'NONE', #121, #396 ) ;
#86 = DIRECTION ( 'NONE',  ( 0.000000000000000000, -1.000000000000000000, 0.000000000000000000 ) ) ;
#87 = EDGE_LOOP ( 'NONE', ( #469, #246, #453, #108 ) ) ;
#88 = FACE_OUTER_BOUND ( 'NONE', #455, .T. ) ;
#89 = VERTEX_POINT ( 'NONE', #285 ) ;
#90 = CARTESIAN_POINT ( 'NONE',  ( 1052.000000000000000, 65.00000000000000000, 40.00000000000000000 ) ) ;
#91 = VECTOR ( 'NONE', #365, 1000.000000000000000 ) ;
#92 = EDGE_CURVE ( 'NONE', #9, #335, #138, .T. ) ;
#93 = VERTEX_POINT ( 'NONE', #407 ) ;
#94 = CC_DESIGN_PERSON_AND_ORGANIZATION_ASSIGNMENT ( #273, #73, ( #244 ) ) ;
#95 = VERTEX_POINT ( 'NONE', #324 ) ;
#96 = COORDINATED_UNIVERSAL_TIME_OFFSET ( 8, 0, .AHEAD. ) ;
#97 = VECTOR ( 'NONE', #379, 1000.000000000000000 ) ;
#98 = ADVANCED_FACE ( 'NONE', ( #82 ), #410, .F. ) ;
#99 = DIRECTION ( 'NONE',  ( -1.000000000000000000, 0.000000000000000000, 0.000000000000000000 ) ) ;
#100 = CARTESIAN_POINT ( 'NONE',  ( 10.00000000000000000, 0.000000000000000000, 0.000000000000000000 ) ) ;
#101 = PERSON_AND_ORGANIZATION ( #24, #133 ) ;
#102 = CARTESIAN_POINT ( 'NONE',  ( 10.00000000000000000, 0.000000000000000000, 40.00000000000000000 ) ) ;
#103 = EDGE_CURVE ( 'NONE', #213, #266, #293, .T. ) ;
#104 = AXIS2_PLACEMENT_3D ( 'NONE', #186, #306, #268 ) ;
#105 = DIRECTION ( 'NONE',  ( 0.000000000000000000, 0.000000000000000000, 1.000000000000000000 ) ) ;
#106 = ORIENTED_EDGE ( 'NONE', *, *, #350, .T. ) ;
#107 = CARTESIAN_POINT ( 'NONE',  ( 0.000000000000000000, 10.00000000000000000, 40.00000000000000000 ) ) ;
#108 = ORIENTED_EDGE ( 'NONE', *, *, #297, .T. ) ;
#109 = ADVANCED_FACE ( 'NONE', ( #38 ), #491, .T. ) ;
#110 = CARTESIAN_POINT ( 'NONE',  ( 1112.000000000000000, 130.0000000000000000, 0.000000000000000000 ) ) ;
#111 = PERSON_AND_ORGANIZATION ( #24, #133 ) ;
#112 = EDGE_LOOP ( 'NONE', ( #381, #172 ) ) ;
#113 = DIRECTION ( 'NONE',  ( 0.000000000000000000, 0.000000000000000000, 1.000000000000000000 ) ) ;
#114 = AXIS2_PLACEMENT_3D ( 'NONE', #322, #80, #200 ) ;
#115 = DIRECTION ( 'NONE',  ( 0.000000000000000000, 0.000000000000000000, -1.000000000000000000 ) ) ;
#116 = DATE_TIME_ROLE ( 'classification_date' ) ;
#117 = ORIENTED_EDGE ( 'NONE', *, *, #252, .T. ) ;
#118 = CARTESIAN_POINT ( 'NONE',  ( 10.00000000000000000, 10.00000000000000000, 40.00000000000000000 ) ) ;
#119 = LINE ( 'NONE', #323, #47 ) ;
#120 = DIRECTION ( 'NONE',  ( 2.018587317500284798E-15, -1.000000000000000000, 0.000000000000000000 ) ) ;
#121 = CARTESIAN_POINT ( 'NONE',  ( 10.00000000000000000, 0.000000000000000000, 40.00000000000000000 ) ) ;
#122 = DIRECTION ( 'NONE',  ( 0.000000000000000000, 0.000000000000000000, -1.000000000000000000 ) ) ;
#123 = EDGE_CURVE ( 'NONE', #339, #203, #3, .T. ) ;
#124 = VERTEX_POINT ( 'NONE', #248 ) ;
#125 = DIRECTION ( 'NONE',  ( -1.000000000000000000, 0.000000000000000000, 0.000000000000000000 ) ) ;
#126 = DIRECTION ( 'NONE',  ( 0.000000000000000000, 0.000000000000000000, -1.000000000000000000 ) ) ;
#127 = AXIS2_PLACEMENT_3D ( 'NONE', #394, #261, #265 ) ;
#128 = EDGE_LOOP ( 'NONE', ( #74, #135, #413, #117 ) ) ;
#129 = CARTESIAN_POINT ( 'NONE',  ( 1052.000000000000000, 65.00000000000000000, 40.00000000000000000 ) ) ;
#130 = ORIENTED_EDGE ( 'NONE', *, *, #151, .F. ) ;
#131 = CARTESIAN_POINT ( 'NONE',  ( 1112.000000000000000, 10.00000000000000000, 40.00000000000000000 ) ) ;
#132 = ORIENTED_EDGE ( 'NONE', *, *, #144, .F. ) ;
#133 = ORGANIZATION ( '未指定', '未指定', '' ) ;
#134 = CIRCLE ( 'NONE', #104, 9.999999999999786837 ) ;
#135 = ORIENTED_EDGE ( 'NONE', *, *, #497, .F. ) ;
#136 = ORIENTED_EDGE ( 'NONE', *, *, #279, .T. ) ;
#137 = EDGE_CURVE ( 'NONE', #124, #193, #45, .T. ) ;
#138 = CIRCLE ( 'NONE', #436, 30.00000000000002842 ) ;
#139 = CIRCLE ( 'NONE', #62, 10.00000000000000000 ) ;
#140 = SHAPE_DEFINITION_REPRESENTATION ( #460, #249 ) ;
#141 = FACE_OUTER_BOUND ( 'NONE', #83, .T. ) ;
#142 = PERSON_AND_ORGANIZATION ( #24, #133 ) ;
#143 = FACE_OUTER_BOUND ( 'NONE', #490, .T. ) ;
#144 = EDGE_CURVE ( 'NONE', #203, #458, #454, .T. ) ;
#145 = DIRECTION ( 'NONE',  ( 0.000000000000000000, 0.000000000000000000, -1.000000000000000000 ) ) ;
#146 = ORIENTED_EDGE ( 'NONE', *, *, #176, .T. ) ;
#147 = CIRCLE ( 'NONE', #287, 30.00000000000002842 ) ;
#148 = DIRECTION ( 'NONE',  ( 1.000000000000000000, 0.000000000000000000, 0.000000000000000000 ) ) ;
#149 = DIRECTION ( 'NONE',  ( 0.000000000000000000, 0.000000000000000000, 1.000000000000000000 ) ) ;
#150 = CALENDAR_DATE ( 2026, 10, 4 ) ;
#151 = EDGE_CURVE ( 'NONE', #33, #364, #154, .T. ) ;
#152 = CARTESIAN_POINT ( 'NONE',  ( 1122.000000000000000, 120.0000000000000000, 40.00000000000000000 ) ) ;
#153 = PERSON_AND_ORGANIZATION ( #24, #133 ) ;
#154 = CIRCLE ( 'NONE', #308, 10.00000000000000000 ) ;
#155 = DIRECTION ( 'NONE',  ( 0.000000000000000000, 0.000000000000000000, -1.000000000000000000 ) ) ;
#156 = LOCAL_TIME ( 15, 3, 29.00000000000000000, #303 ) ;
#157 = DIRECTION ( 'NONE',  ( -1.000000000000000000, 0.000000000000000000, 0.000000000000000000 ) ) ;
#158 = DIRECTION ( 'NONE',  ( -1.000000000000000000, 0.000000000000000000, 0.000000000000000000 ) ) ;
#159 = CARTESIAN_POINT ( 'NONE',  ( 10.00000000000000000, 130.0000000000000000, 0.000000000000000000 ) ) ;
#160 = EDGE_CURVE ( 'NONE', #95, #508, #300, .T. ) ;
#161 = DIRECTION ( 'NONE',  ( 0.000000000000000000, 0.000000000000000000, 1.000000000000000000 ) ) ;
#162 = CARTESIAN_POINT ( 'NONE',  ( 1122.000000000000000, 10.00000000000000000, 0.000000000000000000 ) ) ;
#163 = ORIENTED_EDGE ( 'NONE', *, *, #219, .F. ) ;
#164 = LINE ( 'NONE', #402, #187 ) ;
#165 = AXIS2_PLACEMENT_3D ( 'NONE', #443, #197, #438 ) ;
#166 = DIRECTION ( 'NONE',  ( 1.000000000000000000, 0.000000000000000000, 0.000000000000000000 ) ) ;
#167 = AXIS2_PLACEMENT_3D ( 'NONE', #284, #41, #158 ) ;
#168 = ADVANCED_FACE ( 'NONE', ( #403 ), #35, .T. ) ;
#169 = VERTEX_POINT ( 'NONE', #426 ) ;
#170 = DIRECTION ( 'NONE',  ( 0.000000000000000000, 0.000000000000000000, -1.000000000000000000 ) ) ;
#171 = ORIENTED_EDGE ( 'NONE', *, *, #182, .T. ) ;
#172 = ORIENTED_EDGE ( 'NONE', *, *, #92, .F. ) ;
#173 = VERTEX_POINT ( 'NONE', #61 ) ;
#174 = AXIS2_PLACEMENT_3D ( 'NONE', #391, #475, #352 ) ;
#175 = ORIENTED_EDGE ( 'NONE', *, *, #309, .F. ) ;
#176 = EDGE_CURVE ( 'NONE', #44, #450, #147, .T. ) ;
#177 = DATE_TIME_ROLE ( 'creation_date' ) ;
#178 = DIRECTION ( 'NONE',  ( 0.000000000000000000, 0.000000000000000000, -1.000000000000000000 ) ) ;
#179 = VECTOR ( 'NONE', #501, 1000.000000000000000 ) ;
#180 = COORDINATED_UNIVERSAL_TIME_OFFSET ( 8, 0, .AHEAD. ) ;
#181 = CC_DESIGN_APPROVAL ( #55, ( #244 ) ) ;
#182 = EDGE_CURVE ( 'NONE', #335, #450, #393, .T. ) ;
#183 = FACE_BOUND ( 'NONE', #112, .T. ) ;
#184 = DIRECTION ( 'NONE',  ( 0.000000000000000000, -1.000000000000000000, 0.000000000000000000 ) ) ;
#185 = ORIENTED_EDGE ( 'NONE', *, *, #297, .F. ) ;
#186 = CARTESIAN_POINT ( 'NONE',  ( 1112.000000000000000, 120.0000000000000000, 40.00000000000000000 ) ) ;
#187 = VECTOR ( 'NONE', #34, 1000.000000000000000 ) ;
#188 = DIRECTION ( 'NONE',  ( 0.000000000000000000, 0.000000000000000000, -1.000000000000000000 ) ) ;
#189 = PERSON_AND_ORGANIZATION_ROLE ( 'creator' ) ;
#190 = ORIENTED_EDGE ( 'NONE', *, *, #259, .F. ) ;
#191 = EDGE_CURVE ( 'NONE', #266, #286, #139, .T. ) ;
#192 = PERSON_AND_ORGANIZATION_ROLE ( 'design_supplier' ) ;
#193 = VERTEX_POINT ( 'NONE', #236 ) ;
#194 = DIRECTION ( 'NONE',  ( 1.000000000000000000, 0.000000000000000000, 0.000000000000000000 ) ) ;
#195 = CARTESIAN_POINT ( 'NONE',  ( 1.734723475976804925E-15, 120.0000000000000000, 0.000000000000000000 ) ) ;
#196 = APPROVAL_DATE_TIME ( #312, #467 ) ;
#197 = DIRECTION ( 'NONE',  ( 0.000000000000000000, 0.000000000000000000, 1.000000000000000000 ) ) ;
#198 = EDGE_CURVE ( 'NONE', #193, #89, #56, .T. ) ;
#199 = LINE ( 'NONE', #272, #418 ) ;
#200 = DIRECTION ( 'NONE',  ( -1.000000000000000000, 0.000000000000000000, 0.000000000000000000 ) ) ;
#201 = LINE ( 'NONE', #152, #233 ) ;
#202 = DIRECTION ( 'NONE',  ( 0.000000000000000000, 0.000000000000000000, 1.000000000000000000 ) ) ;
#203 = VERTEX_POINT ( 'NONE', #256 ) ;
#204 = ORIENTED_EDGE ( 'NONE', *, *, #424, .T. ) ;
#205 = FACE_BOUND ( 'NONE', #505, .T. ) ;
#206 = CARTESIAN_POINT ( 'NONE',  ( 1122.000000000000000, 10.00000000000000000, 40.00000000000000000 ) ) ;
#207 = ADVANCED_FACE ( 'NONE', ( #68 ), #304, .T. ) ;
#208 = ORIENTED_EDGE ( 'NONE', *, *, #257, .F. ) ;
#209 = AXIS2_PLACEMENT_3D ( 'NONE', #131, #202, #456 ) ;
#210 = DIRECTION ( 'NONE',  ( -1.000000000000000000, 0.000000000000000000, 0.000000000000000000 ) ) ;
#211 = ORIENTED_EDGE ( 'NONE', *, *, #103, .T. ) ;
#212 = DIRECTION ( 'NONE',  ( -1.000000000000000000, 0.000000000000000000, 0.000000000000000000 ) ) ;
#213 = VERTEX_POINT ( 'NONE', #63 ) ;
#214 = ORIENTED_EDGE ( 'NONE', *, *, #512, .T. ) ;
#215 = CC_DESIGN_PERSON_AND_ORGANIZATION_ASSIGNMENT ( #223, #60, ( #340 ) ) ;
#216 = AXIS2_PLACEMENT_3D ( 'NONE', #409, #372, #281 ) ;
#217 = DIRECTION ( 'NONE',  ( 1.000000000000000000, 0.000000000000000000, 0.000000000000000000 ) ) ;
#218 = DIRECTION ( 'NONE',  ( 1.000000000000000000, 0.000000000000000000, 0.000000000000000000 ) ) ;
#219 = EDGE_CURVE ( 'NONE', #93, #89, #270, .T. ) ;
#220 = DIRECTION ( 'NONE',  ( 0.000000000000000000, 0.000000000000000000, 1.000000000000000000 ) ) ;
#221 = CARTESIAN_POINT ( 'NONE',  ( 1112.000000000000000, 120.0000000000000000, 40.00000000000000000 ) ) ;
#222 = VECTOR ( 'NONE', #500, 1000.000000000000000 ) ;
#223 = PERSON_AND_ORGANIZATION ( #24, #133 ) ;
#224 = CARTESIAN_POINT ( 'NONE',  ( 1052.000000000000000, 65.00000000000000000, 0.000000000000000000 ) ) ;
#225 = DIRECTION ( 'NONE',  ( 1.000000000000000000, 0.000000000000000000, 0.000000000000000000 ) ) ;
#226 = DIRECTION ( 'NONE',  ( 0.000000000000000000, 0.000000000000000000, 1.000000000000000000 ) ) ;
#227 = ORIENTED_EDGE ( 'NONE', *, *, #219, .T. ) ;
#228 = CARTESIAN_POINT ( 'NONE',  ( 1112.000000000000000, 130.0000000000000000, 40.00000000000000000 ) ) ;
#229 = ADVANCED_FACE ( 'NONE', ( #141, #427, #183 ), #15, .F. ) ;
#230 = ORIENTED_EDGE ( 'NONE', *, *, #235, .F. ) ;
#231 = AXIS2_PLACEMENT_3D ( 'NONE', #90, #241, #289 ) ;
#232 = CIRCLE ( 'NONE', #2, 10.00000000000000000 ) ;
#233 = VECTOR ( 'NONE', #115, 1000.000000000000000 ) ;
#234 = CARTESIAN_POINT ( 'NONE',  ( 0.000000000000000000, 10.00000000000000000, 40.00000000000000000 ) ) ;
#235 = EDGE_CURVE ( 'NONE', #89, #193, #260, .T. ) ;
#236 = CARTESIAN_POINT ( 'NONE',  ( 100.0000000000000000, 65.00000000000000000, 0.000000000000000000 ) ) ;
#237 = FACE_BOUND ( 'NONE', #40, .T. ) ;
#238 = ORIENTED_EDGE ( 'NONE', *, *, #483, .F. ) ;
#239 = ADVANCED_FACE ( 'NONE', ( #143 ), #503, .F. ) ;
#240 = PLANE ( 'NONE',  #345 ) ;
#241 = DIRECTION ( 'NONE',  ( 0.000000000000000000, 0.000000000000000000, -1.000000000000000000 ) ) ;
#242 = AXIS2_PLACEMENT_3D ( 'NONE', #386, #184, #188 ) ;
#243 = DIRECTION ( 'NONE',  ( 0.000000000000000000, 0.000000000000000000, -1.000000000000000000 ) ) ;
#244 = SECURITY_CLASSIFICATION ( '', '', #476 ) ;
#245 = CARTESIAN_POINT ( 'NONE',  ( 10.00000000000000000, 130.0000000000000000, 40.00000000000000000 ) ) ;
#246 = ORIENTED_EDGE ( 'NONE', *, *, #350, .F. ) ;
#247 = CARTESIAN_POINT ( 'NONE',  ( 1022.000000000000000, 65.00000000000000000, 0.000000000000000000 ) ) ;
#248 = CARTESIAN_POINT ( 'NONE',  ( 100.0000000000000000, 65.00000000000000000, 40.00000000000000000 ) ) ;
#249 = ADVANCED_BREP_SHAPE_REPRESENTATION ( 'LINK_\X2\9ed88ba4\X0\_sldprt', ( #498, #513 ), #338 ) ;
#250 = EDGE_LOOP ( 'NONE', ( #269, #54, #230, #163 ) ) ;
#251 = DIRECTION ( 'NONE',  ( -1.000000000000000000, 0.000000000000000000, 0.000000000000000000 ) ) ;
#252 = EDGE_CURVE ( 'NONE', #213, #364, #22, .T. ) ;
#253 = ORIENTED_EDGE ( 'NONE', *, *, #198, .F. ) ;
#254 = DIRECTION ( 'NONE',  ( 0.000000000000000000, 0.000000000000000000, 1.000000000000000000 ) ) ;
#255 = ORIENTED_EDGE ( 'NONE', *, *, #51, .T. ) ;
#256 = CARTESIAN_POINT ( 'NONE',  ( 1122.000000000000000, 10.00000000000000000, 40.00000000000000000 ) ) ;
#257 = EDGE_CURVE ( 'NONE', #508, #33, #263, .T. ) ;
#258 = ORIENTED_EDGE ( 'NONE', *, *, #262, .F. ) ;
#259 = EDGE_CURVE ( 'NONE', #417, #173, #506, .T. ) ;
#260 = CIRCLE ( 'NONE', #366, 30.00000000000000000 ) ;
#261 = DIRECTION ( 'NONE',  ( 0.000000000000000000, 0.000000000000000000, -1.000000000000000000 ) ) ;
#262 = EDGE_CURVE ( 'NONE', #169, #417, #496, .T. ) ;
#263 = LINE ( 'NONE', #499, #179 ) ;
#264 =( NAMED_UNIT ( * ) SI_UNIT ( $, .STERADIAN. ) SOLID_ANGLE_UNIT ( ) );
#265 = DIRECTION ( 'NONE',  ( -1.000000000000000000, 0.000000000000000000, 0.000000000000000000 ) ) ;
#266 = VERTEX_POINT ( 'NONE', #107 ) ;
#267 = AXIS2_PLACEMENT_3D ( 'NONE', #389, #344, #354 ) ;
#268 = DIRECTION ( 'NONE',  ( -1.000000000000000000, 0.000000000000000000, 0.000000000000000000 ) ) ;
#269 = ORIENTED_EDGE ( 'NONE', *, *, #5, .T. ) ;
#270 = LINE ( 'NONE', #420, #23 ) ;
#271 = ORIENTED_EDGE ( 'NONE', *, *, #235, .T. ) ;
#272 = CARTESIAN_POINT ( 'NONE',  ( 10.00000000000000000, 130.0000000000000000, 40.00000000000000000 ) ) ;
#273 = PERSON_AND_ORGANIZATION ( #24, #133 ) ;
#274 = ORIENTED_EDGE ( 'NONE', *, *, #252, .F. ) ;
#275 = AXIS2_PLACEMENT_3D ( 'NONE', #310, #226, #20 ) ;
#276 = LINE ( 'NONE', #358, #387 ) ;
#277 = APPLICATION_PROTOCOL_DEFINITION ( 'international standard', 'config_control_design', 1994, #280 ) ;
#278 = ORIENTED_EDGE ( 'NONE', *, *, #435, .F. ) ;
#279 = EDGE_CURVE ( 'NONE', #335, #9, #17, .T. ) ;
#280 = APPLICATION_CONTEXT ( 'configuration controlled 3d designs of mechanical parts and assemblies' ) ;
#281 = DIRECTION ( 'NONE',  ( 1.000000000000000000, 0.000000000000000000, 0.000000000000000000 ) ) ;
#282 = CARTESIAN_POINT ( 'NONE',  ( 1082.000000000000000, 65.00000000000000000, 0.000000000000000000 ) ) ;
#283 = EDGE_LOOP ( 'NONE', ( #473, #132, #492, #356 ) ) ;
#284 = CARTESIAN_POINT ( 'NONE',  ( 70.00000000000000000, 65.00000000000000000, 40.00000000000000000 ) ) ;
#285 = CARTESIAN_POINT ( 'NONE',  ( 40.00000000000000711, 65.00000000000000000, 0.000000000000000000 ) ) ;
#286 = VERTEX_POINT ( 'NONE', #102 ) ;
#287 = AXIS2_PLACEMENT_3D ( 'NONE', #224, #161, #194 ) ;
#288 = FACE_OUTER_BOUND ( 'NONE', #250, .T. ) ;
#289 = DIRECTION ( 'NONE',  ( -1.000000000000000000, 0.000000000000000000, 0.000000000000000000 ) ) ;
#290 = ADVANCED_FACE ( 'NONE', ( #349 ), #19, .F. ) ;
#291 = DIRECTION ( 'NONE',  ( 1.000000000000000000, 0.000000000000000000, 0.000000000000000000 ) ) ;
#292 = EDGE_LOOP ( 'NONE', ( #337, #274, #432, #106 ) ) ;
#293 = LINE ( 'NONE', #377, #46 ) ;
#294 = LOCAL_TIME ( 15, 3, 29.00000000000000000, #507 ) ;
#295 = ORIENTED_EDGE ( 'NONE', *, *, #474, .F. ) ;
#296 = CC_DESIGN_SECURITY_CLASSIFICATION ( #244, ( #72 ) ) ;
#297 = EDGE_CURVE ( 'NONE', #317, #508, #466, .T. ) ;
#298 = EDGE_LOOP ( 'NONE', ( #136, #360, #238, #380 ) ) ;
#299 = VECTOR ( 'NONE', #331, 1000.000000000000000 ) ;
#300 = CIRCLE ( 'NONE', #114, 9.999999999999786837 ) ;
#301 = CIRCLE ( 'NONE', #504, 30.00000000000002842 ) ;
#302 = APPROVAL_STATUS ( 'not_yet_approved' ) ;
#303 = COORDINATED_UNIVERSAL_TIME_OFFSET ( 8, 0, .AHEAD. ) ;
#304 = CYLINDRICAL_SURFACE ( 'NONE', #127, 9.999999999999786837 ) ;
#305 = ORIENTED_EDGE ( 'NONE', *, *, #259, .T. ) ;
#306 = DIRECTION ( 'NONE',  ( 0.000000000000000000, 0.000000000000000000, 1.000000000000000000 ) ) ;
#307 = EDGE_LOOP ( 'NONE', ( #351, #461, #295, #190, #258, #278, #130, #208 ) ) ;
#308 = AXIS2_PLACEMENT_3D ( 'NONE', #414, #49, #157 ) ;
#309 = EDGE_CURVE ( 'NONE', #124, #93, #11, .T. ) ;
#310 = CARTESIAN_POINT ( 'NONE',  ( 10.00000000000000000, 10.00000000000000000, 0.000000000000000000 ) ) ;
#311 = ORIENTED_EDGE ( 'NONE', *, *, #75, .F. ) ;
#312 = DATE_AND_TIME ( #150, #294 ) ;
#313 = ORIENTED_EDGE ( 'NONE', *, *, #405, .T. ) ;
#314 = EDGE_CURVE ( 'NONE', #488, #317, #134, .T. ) ;
#315 = LINE ( 'NONE', #162, #449 ) ;
#316 = DATE_AND_TIME ( #359, #385 ) ;
#317 = VERTEX_POINT ( 'NONE', #423 ) ;
#318 = VECTOR ( 'NONE', #225, 1000.000000000000000 ) ;
#319 = CC_DESIGN_APPROVAL ( #58, ( #43 ) ) ;
#320 = CARTESIAN_POINT ( 'NONE',  ( 10.00000000000000000, 0.000000000000000000, 0.000000000000000000 ) ) ;
#321 = PRODUCT_RELATED_PRODUCT_CATEGORY ( 'detail', '', ( #340 ) ) ;
#322 = CARTESIAN_POINT ( 'NONE',  ( 1112.000000000000000, 120.0000000000000000, 0.000000000000000000 ) ) ;
#323 = CARTESIAN_POINT ( 'NONE',  ( 10.00000000000000000, 130.0000000000000000, 40.00000000000000000 ) ) ;
#324 = CARTESIAN_POINT ( 'NONE',  ( 1122.000000000000000, 120.0000000000000000, 0.000000000000000000 ) ) ;
#325 = CARTESIAN_POINT ( 'NONE',  ( 1052.000000000000000, 65.00000000000000000, 0.000000000000000000 ) ) ;
#326 = ADVANCED_FACE ( 'NONE', ( #429 ), #65, .T. ) ;
#327 = CIRCLE ( 'NONE', #165, 30.00000000000000000 ) ;
#328 = ORIENTED_EDGE ( 'NONE', *, *, #198, .T. ) ;
#329 = AXIS2_PLACEMENT_3D ( 'NONE', #472, #178, #468 ) ;
#330 = LINE ( 'NONE', #81, #457 ) ;
#331 = DIRECTION ( 'NONE',  ( -2.018587317500284798E-15, 1.000000000000000000, 0.000000000000000000 ) ) ;
#332 = DIRECTION ( 'NONE',  ( 1.000000000000000000, 0.000000000000000000, 0.000000000000000000 ) ) ;
#333 = ORIENTED_EDGE ( 'NONE', *, *, #424, .F. ) ;
#334 = DIRECTION ( 'NONE',  ( -1.000000000000000000, -2.018587317500284798E-15, 0.000000000000000000 ) ) ;
#335 = VERTEX_POINT ( 'NONE', #57 ) ;
#336 = EDGE_CURVE ( 'NONE', #286, #417, #406, .T. ) ;
#337 = ORIENTED_EDGE ( 'NONE', *, *, #151, .T. ) ;
#338 =( GEOMETRIC_REPRESENTATION_CONTEXT ( 3 ) GLOBAL_UNCERTAINTY_ASSIGNED_CONTEXT ( ( #53 ) ) GLOBAL_UNIT_ASSIGNED_CONTEXT ( ( #27, #397, #264 ) ) REPRESENTATION_CONTEXT ( 'NONE', 'WORKASPACE' ) );
#339 = VERTEX_POINT ( 'NONE', #481 ) ;
#340 = PRODUCT ( 'LINK_\X2\9ed88ba4\X0\_sldprt', 'LINK_\X2\9ed88ba4\X0\_sldprt', '', ( #382 ) ) ;
#341 = CALENDAR_DATE ( 2026, 10, 4 ) ;
#342 = EDGE_CURVE ( 'NONE', #339, #173, #37, .T. ) ;
#343 = AXIS2_PLACEMENT_3D ( 'NONE', #7, #452, #251 ) ;
#344 = DIRECTION ( 'NONE',  ( 0.000000000000000000, 0.000000000000000000, 1.000000000000000000 ) ) ;
#345 = AXIS2_PLACEMENT_3D ( 'NONE', #369, #243, #125 ) ;
#346 = CALENDAR_DATE ( 2026, 10, 4 ) ;
#347 = CC_DESIGN_PERSON_AND_ORGANIZATION_ASSIGNMENT ( #142, #192, ( #72 ) ) ;
#348 = CARTESIAN_POINT ( 'NONE',  ( 70.00000000000000000, 65.00000000000000000, 0.000000000000000000 ) ) ;
#349 = FACE_OUTER_BOUND ( 'NONE', #87, .T. ) ;
#350 = EDGE_CURVE ( 'NONE', #69, #33, #119, .T. ) ;
#351 = ORIENTED_EDGE ( 'NONE', *, *, #160, .F. ) ;
#352 = DIRECTION ( 'NONE',  ( -1.000000000000000000, 0.000000000000000000, 0.000000000000000000 ) ) ;
#353 = ORIENTED_EDGE ( 'NONE', *, *, #314, .F. ) ;
#354 = DIRECTION ( 'NONE',  ( 1.000000000000000000, 0.000000000000000000, 0.000000000000000000 ) ) ;
#355 = APPROVAL_STATUS ( 'not_yet_approved' ) ;
#356 = ORIENTED_EDGE ( 'NONE', *, *, #342, .T. ) ;
#357 = CC_DESIGN_DATE_AND_TIME_ASSIGNMENT ( #400, #177, ( #43 ) ) ;
#358 = CARTESIAN_POINT ( 'NONE',  ( 1082.000000000000000, 65.00000000000000000, 40.00000000000000000 ) ) ;
#359 = CALENDAR_DATE ( 2026, 10, 4 ) ;
#360 = ORIENTED_EDGE ( 'NONE', *, *, #446, .T. ) ;
#361 = DIRECTION ( 'NONE',  ( -1.000000000000000000, 0.000000000000000000, 0.000000000000000000 ) ) ;
#362 = CARTESIAN_POINT ( 'NONE',  ( 10.00000000000000000, 0.000000000000000000, 40.00000000000000000 ) ) ;
#363 = APPROVAL_STATUS ( 'not_yet_approved' ) ;
#364 = VERTEX_POINT ( 'NONE', #195 ) ;
#365 = DIRECTION ( 'NONE',  ( 0.000000000000000000, 0.000000000000000000, -1.000000000000000000 ) ) ;
#366 = AXIS2_PLACEMENT_3D ( 'NONE', #348, #105, #148 ) ;
#367 = CYLINDRICAL_SURFACE ( 'NONE', #167, 30.00000000000000000 ) ;
#368 = CARTESIAN_POINT ( 'NONE',  ( 10.00000000000000000, 10.00000000000000000, 40.00000000000000000 ) ) ;
#369 = CARTESIAN_POINT ( 'NONE',  ( 1112.000000000000000, 120.0000000000000000, 0.000000000000000000 ) ) ;
#370 = ADVANCED_FACE ( 'NONE', ( #514 ), #451, .F. ) ;
#371 = ORIENTED_EDGE ( 'NONE', *, *, #405, .F. ) ;
#372 = DIRECTION ( 'NONE',  ( 0.000000000000000000, 0.000000000000000000, 1.000000000000000000 ) ) ;
#373 = LINE ( 'NONE', #206, #299 ) ;
#374 = AXIS2_PLACEMENT_3D ( 'NONE', #485, #122, #99 ) ;
#375 = ORIENTED_EDGE ( 'NONE', *, *, #497, .T. ) ;
#376 = APPROVAL_PERSON_ORGANIZATION ( #153, #467, #479 ) ;
#377 = CARTESIAN_POINT ( 'NONE',  ( 0.000000000000000000, 10.00000000000000000, 40.00000000000000000 ) ) ;
#378 = ORIENTED_EDGE ( 'NONE', *, *, #342, .F. ) ;
#379 = DIRECTION ( 'NONE',  ( 0.000000000000000000, 0.000000000000000000, -1.000000000000000000 ) ) ;
#380 = ORIENTED_EDGE ( 'NONE', *, *, #182, .F. ) ;
#381 = ORIENTED_EDGE ( 'NONE', *, *, #279, .F. ) ;
#382 = MECHANICAL_CONTEXT ( 'NONE', #280, 'mechanical' ) ;
#383 = CARTESIAN_POINT ( 'NONE',  ( 1.734723475976804925E-15, 120.0000000000000000, 40.00000000000000000 ) ) ;
#384 = ORIENTED_EDGE ( 'NONE', *, *, #446, .F. ) ;
#385 = LOCAL_TIME ( 15, 3, 29.00000000000000000, #28 ) ;
#386 = CARTESIAN_POINT ( 'NONE',  ( 10.00000000000000000, 130.0000000000000000, 40.00000000000000000 ) ) ;
#387 = VECTOR ( 'NONE', #519, 1000.000000000000000 ) ;
#388 = APPROVAL_PERSON_ORGANIZATION ( #442, #58, #422 ) ;
#389 = CARTESIAN_POINT ( 'NONE',  ( 1052.000000000000000, 65.00000000000000000, 40.00000000000000000 ) ) ;
#390 = ORIENTED_EDGE ( 'NONE', *, *, #160, .T. ) ;
#391 = CARTESIAN_POINT ( 'NONE',  ( 1112.000000000000000, 10.00000000000000000, 40.00000000000000000 ) ) ;
#392 = ORIENTED_EDGE ( 'NONE', *, *, #309, .T. ) ;
#393 = LINE ( 'NONE', #433, #91 ) ;
#394 = CARTESIAN_POINT ( 'NONE',  ( 1112.000000000000000, 120.0000000000000000, 40.00000000000000000 ) ) ;
#395 = EDGE_LOOP ( 'NONE', ( #411, #392, #227, #253 ) ) ;
#396 = VECTOR ( 'NONE', #399, 1000.000000000000000 ) ;
#397 =( NAMED_UNIT ( * ) PLANE_ANGLE_UNIT ( ) SI_UNIT ( $, .RADIAN. ) );
#398 = EDGE_LOOP ( 'NONE', ( #305, #378, #371, #12 ) ) ;
#399 = DIRECTION ( 'NONE',  ( 1.000000000000000000, 0.000000000000000000, 0.000000000000000000 ) ) ;
#400 = DATE_AND_TIME ( #346, #156 ) ;
#401 = PLANE ( 'NONE',  #464 ) ;
#402 = CARTESIAN_POINT ( 'NONE',  ( 0.000000000000000000, 10.00000000000000000, 40.00000000000000000 ) ) ;
#403 = FACE_OUTER_BOUND ( 'NONE', #292, .T. ) ;
#404 = AXIS2_PLACEMENT_3D ( 'NONE', #368, #482, #210 ) ;
#405 = EDGE_CURVE ( 'NONE', #286, #339, #85, .T. ) ;
#406 = LINE ( 'NONE', #434, #36 ) ;
#407 = CARTESIAN_POINT ( 'NONE',  ( 40.00000000000000711, 65.00000000000000000, 40.00000000000000000 ) ) ;
#408 = ORIENTED_EDGE ( 'NONE', *, *, #123, .T. ) ;
#409 = CARTESIAN_POINT ( 'NONE',  ( 1112.000000000000000, 10.00000000000000000, 0.000000000000000000 ) ) ;
#410 = CYLINDRICAL_SURFACE ( 'NONE', #343, 30.00000000000000000 ) ;
#411 = ORIENTED_EDGE ( 'NONE', *, *, #137, .F. ) ;
#412 = CARTESIAN_POINT ( 'NONE',  ( 1122.000000000000000, 10.00000000000000000, 40.00000000000000000 ) ) ;
#413 = ORIENTED_EDGE ( 'NONE', *, *, #103, .F. ) ;
#414 = CARTESIAN_POINT ( 'NONE',  ( 10.00000000000000000, 120.0000000000000000, 0.000000000000000000 ) ) ;
#415 = DESIGN_CONTEXT ( 'detailed design', #421, 'design' ) ;
#416 = ORIENTED_EDGE ( 'NONE', *, *, #92, .T. ) ;
#417 = VERTEX_POINT ( 'NONE', #320 ) ;
#418 = VECTOR ( 'NONE', #71, 1000.000000000000000 ) ;
#419 = ADVANCED_FACE ( 'NONE', ( #288 ), #367, .F. ) ;
#420 = CARTESIAN_POINT ( 'NONE',  ( 40.00000000000000711, 65.00000000000000000, 40.00000000000000000 ) ) ;
#421 = APPLICATION_CONTEXT ( 'configuration controlled 3d designs of mechanical parts and assemblies' ) ;
#422 = APPROVAL_ROLE ( '' ) ;
#423 = CARTESIAN_POINT ( 'NONE',  ( 1112.000000000000000, 130.0000000000000000, 40.00000000000000000 ) ) ;
#424 = EDGE_CURVE ( 'NONE', #488, #95, #201, .T. ) ;
#425 = CALENDAR_DATE ( 2026, 10, 4 ) ;
#426 = CARTESIAN_POINT ( 'NONE',  ( 0.000000000000000000, 10.00000000000000000, 0.000000000000000000 ) ) ;
#427 = FACE_BOUND ( 'NONE', #524, .T. ) ;
#428 = AXIS2_PLACEMENT_3D ( 'NONE', #362, #484, #522 ) ;
#429 = FACE_OUTER_BOUND ( 'NONE', #283, .T. ) ;
#430 = ORIENTED_EDGE ( 'NONE', *, *, #176, .F. ) ;
#431 = DIRECTION ( 'NONE',  ( 0.000000000000000000, 0.000000000000000000, -1.000000000000000000 ) ) ;
#432 = ORIENTED_EDGE ( 'NONE', *, *, #51, .F. ) ;
#433 = CARTESIAN_POINT ( 'NONE',  ( 1022.000000000000000, 65.00000000000000000, 40.00000000000000000 ) ) ;
#434 = CARTESIAN_POINT ( 'NONE',  ( 10.00000000000000000, 0.000000000000000000, 40.00000000000000000 ) ) ;
#435 = EDGE_CURVE ( 'NONE', #364, #169, #330, .T. ) ;
#436 = AXIS2_PLACEMENT_3D ( 'NONE', #129, #254, #291 ) ;
#437 = DATE_AND_TIME ( #425, #518 ) ;
#438 = DIRECTION ( 'NONE',  ( 1.000000000000000000, 0.000000000000000000, 0.000000000000000000 ) ) ;
#439 = AXIS2_PLACEMENT_3D ( 'NONE', #78, #39, #332 ) ;
#440 = APPROVAL_PERSON_ORGANIZATION ( #77, #55, #515 ) ;
#441 = DIRECTION ( 'NONE',  ( -2.018587317500284798E-15, 1.000000000000000000, 0.000000000000000000 ) ) ;
#442 = PERSON_AND_ORGANIZATION ( #24, #133 ) ;
#443 = CARTESIAN_POINT ( 'NONE',  ( 70.00000000000000000, 65.00000000000000000, 40.00000000000000000 ) ) ;
#444 = DIRECTION ( 'NONE',  ( 0.000000000000000000, 0.000000000000000000, 1.000000000000000000 ) ) ;
#445 = CARTESIAN_POINT ( 'NONE',  ( 10.00000000000000000, 120.0000000000000000, 40.00000000000000000 ) ) ;
#446 = EDGE_CURVE ( 'NONE', #9, #44, #276, .T. ) ;
#447 = CARTESIAN_POINT ( 'NONE',  ( 1122.000000000000000, 120.0000000000000000, 40.00000000000000000 ) ) ;
#448 = CARTESIAN_POINT ( 'NONE',  ( 1122.000000000000000, 10.00000000000000000, 40.00000000000000000 ) ) ;
#449 = VECTOR ( 'NONE', #441, 1000.000000000000000 ) ;
#450 = VERTEX_POINT ( 'NONE', #247 ) ;
#451 = PLANE ( 'NONE',  #428 ) ;
#452 = DIRECTION ( 'NONE',  ( 0.000000000000000000, 0.000000000000000000, -1.000000000000000000 ) ) ;
#453 = ORIENTED_EDGE ( 'NONE', *, *, #512, .F. ) ;
#454 = LINE ( 'NONE', #412, #471 ) ;
#455 = EDGE_LOOP ( 'NONE', ( #50, #333, #311, #502 ) ) ;
#456 = DIRECTION ( 'NONE',  ( 1.000000000000000000, 0.000000000000000000, 0.000000000000000000 ) ) ;
#457 = VECTOR ( 'NONE', #486, 1000.000000000000000 ) ;
#458 = VERTEX_POINT ( 'NONE', #76 ) ;
#459 = CC_DESIGN_APPROVAL ( #467, ( #72 ) ) ;
#460 = PRODUCT_DEFINITION_SHAPE ( 'NONE', 'NONE',  #43 ) ;
#461 = ORIENTED_EDGE ( 'NONE', *, *, #462, .F. ) ;
#462 = EDGE_CURVE ( 'NONE', #458, #95, #315, .T. ) ;
#463 = PERSON_AND_ORGANIZATION_ROLE ( 'creator' ) ;
#464 = AXIS2_PLACEMENT_3D ( 'NONE', #234, #166, #126 ) ;
#465 = VECTOR ( 'NONE', #478, 1000.000000000000000 ) ;
#466 = LINE ( 'NONE', #228, #480 ) ;
#467 = APPROVAL ( #355, '未指定' ) ;
#468 = DIRECTION ( 'NONE',  ( -1.000000000000000000, 0.000000000000000000, 0.000000000000000000 ) ) ;
#469 = ORIENTED_EDGE ( 'NONE', *, *, #257, .T. ) ;
#470 = DIRECTION ( 'NONE',  ( 0.000000000000000000, 0.000000000000000000, -1.000000000000000000 ) ) ;
#471 = VECTOR ( 'NONE', #170, 1000.000000000000000 ) ;
#472 = CARTESIAN_POINT ( 'NONE',  ( 1052.000000000000000, 65.00000000000000000, 40.00000000000000000 ) ) ;
#473 = ORIENTED_EDGE ( 'NONE', *, *, #474, .T. ) ;
#474 = EDGE_CURVE ( 'NONE', #173, #458, #517, .T. ) ;
#475 = DIRECTION ( 'NONE',  ( 0.000000000000000000, 0.000000000000000000, -1.000000000000000000 ) ) ;
#476 = SECURITY_CLASSIFICATION_LEVEL ( 'unclassified' ) ;
#477 = CC_DESIGN_DATE_AND_TIME_ASSIGNMENT ( #316, #116, ( #244 ) ) ;
#478 = DIRECTION ( 'NONE',  ( 0.000000000000000000, 0.000000000000000000, -1.000000000000000000 ) ) ;
#479 = APPROVAL_ROLE ( '' ) ;
#480 = VECTOR ( 'NONE', #145, 1000.000000000000000 ) ;
#481 = CARTESIAN_POINT ( 'NONE',  ( 1112.000000000000000, 0.000000000000000000, 40.00000000000000000 ) ) ;
#482 = DIRECTION ( 'NONE',  ( 0.000000000000000000, 0.000000000000000000, -1.000000000000000000 ) ) ;
#483 = EDGE_CURVE ( 'NONE', #450, #44, #301, .T. ) ;
#484 = DIRECTION ( 'NONE',  ( 0.000000000000000000, 1.000000000000000000, 0.000000000000000000 ) ) ;
#485 = CARTESIAN_POINT ( 'NONE',  ( 10.00000000000000000, 120.0000000000000000, 40.00000000000000000 ) ) ;
#486 = DIRECTION ( 'NONE',  ( 0.000000000000000000, -1.000000000000000000, 0.000000000000000000 ) ) ;
#487 = AXIS2_PLACEMENT_3D ( 'NONE', #18, #149, #218 ) ;
#488 = VERTEX_POINT ( 'NONE', #447 ) ;
#489 = PLANE ( 'NONE',  #70 ) ;
#490 = EDGE_LOOP ( 'NONE', ( #384, #416, #171, #430 ) ) ;
#491 = CYLINDRICAL_SURFACE ( 'NONE', #404, 10.00000000000000000 ) ;
#492 = ORIENTED_EDGE ( 'NONE', *, *, #123, .F. ) ;
#493 = ORIENTED_EDGE ( 'NONE', *, *, #75, .T. ) ;
#494 = ADVANCED_FACE ( 'NONE', ( #205, #525, #237 ), #240, .T. ) ;
#495 = APPROVAL_DATE_TIME ( #14, #55 ) ;
#496 = CIRCLE ( 'NONE', #275, 10.00000000000000000 ) ;
#497 = EDGE_CURVE ( 'NONE', #266, #169, #164, .T. ) ;
#498 = MANIFOLD_SOLID_BREP ( '输入1', #21 ) ;
#499 = CARTESIAN_POINT ( 'NONE',  ( 10.00000000000000000, 130.0000000000000000, 0.000000000000000000 ) ) ;
#500 = DIRECTION ( 'NONE',  ( 0.000000000000000000, 0.000000000000000000, -1.000000000000000000 ) ) ;
#501 = DIRECTION ( 'NONE',  ( -1.000000000000000000, 0.000000000000000000, 0.000000000000000000 ) ) ;
#502 = ORIENTED_EDGE ( 'NONE', *, *, #144, .T. ) ;
#503 = CYLINDRICAL_SURFACE ( 'NONE', #329, 30.00000000000002842 ) ;
#504 = AXIS2_PLACEMENT_3D ( 'NONE', #325, #444, #79 ) ;
#505 = EDGE_LOOP ( 'NONE', ( #271, #328 ) ) ;
#506 = LINE ( 'NONE', #100, #318 ) ;
#507 = COORDINATED_UNIVERSAL_TIME_OFFSET ( 8, 0, .AHEAD. ) ;
#508 = VERTEX_POINT ( 'NONE', #110 ) ;
#509 = CARTESIAN_POINT ( 'NONE',  ( 1112.000000000000000, 0.000000000000000000, 40.00000000000000000 ) ) ;
#510 = APPLICATION_PROTOCOL_DEFINITION ( 'international standard', 'config_control_design', 1994, #421 ) ;
#511 = FACE_OUTER_BOUND ( 'NONE', #128, .T. ) ;
#512 = EDGE_CURVE ( 'NONE', #317, #69, #199, .T. ) ;
#513 = AXIS2_PLACEMENT_3D ( 'NONE', #32, #220, #217 ) ;
#514 = FACE_OUTER_BOUND ( 'NONE', #398, .T. ) ;
#515 = APPROVAL_ROLE ( '' ) ;
#516 = ORIENTED_EDGE ( 'NONE', *, *, #314, .T. ) ;
#517 = CIRCLE ( 'NONE', #216, 10.00000000000000888 ) ;
#518 = LOCAL_TIME ( 15, 3, 29.00000000000000000, #180 ) ;
#519 = DIRECTION ( 'NONE',  ( 0.000000000000000000, 0.000000000000000000, -1.000000000000000000 ) ) ;
#520 = FACE_OUTER_BOUND ( 'NONE', #298, .T. ) ;
#521 = ORIENTED_EDGE ( 'NONE', *, *, #5, .F. ) ;
#522 = DIRECTION ( 'NONE',  ( 0.000000000000000000, 0.000000000000000000, 1.000000000000000000 ) ) ;
#523 = DIRECTION ( 'NONE',  ( 0.000000000000000000, 0.000000000000000000, 1.000000000000000000 ) ) ;
#524 = EDGE_LOOP ( 'NONE', ( #521, #175 ) ) ;
#525 = FACE_OUTER_BOUND ( 'NONE', #307, .T. ) ;
ENDSEC;
END-ISO-10303-21;
