ISO-10303-21;
HEADER;
FILE_DESCRIPTION (( 'STEP AP203' ),
    '1' );
FILE_NAME ('piston-kazan_默认_sldprt.STEP',
    '2026-04-10T07:03:36',
    ( '' ),
    ( '' ),
    'SwSTEP 2.0',
    'SolidWorks 2022',
    '' );
FILE_SCHEMA (( 'CONFIG_CONTROL_DESIGN' ));
ENDSEC;

DATA;
#1 = CARTESIAN_POINT ( 'NONE',  ( 90.00000000000000000, 3.673940397442059178E-15, -80.00000000000000000 ) ) ;
#2 = APPLICATION_CONTEXT ( 'configuration controlled 3d designs of mechanical parts and assemblies' ) ;
#3 = EDGE_CURVE ( 'NONE', #408, #68, #516, .T. ) ;
#4 = DIRECTION ( 'NONE',  ( -1.000000000000000000, 0.000000000000000000, 0.000000000000000000 ) ) ;
#5 = EDGE_CURVE ( 'NONE', #174, #503, #43, .T. ) ;
#6 = FACE_BOUND ( 'NONE', #410, .T. ) ;
#7 = VECTOR ( 'NONE', #326, 1000.000000000000000 ) ;
#8 = CYLINDRICAL_SURFACE ( 'NONE', #122, 40.00000000000000000 ) ;
#9 = DIRECTION ( 'NONE',  ( 0.000000000000000000, 0.000000000000000000, -1.000000000000000000 ) ) ;
#10 = EDGE_CURVE ( 'NONE', #237, #177, #352, .T. ) ;
#11 = CARTESIAN_POINT ( 'NONE',  ( -90.00000000000000000, 0.000000000000000000, -50.00000000000000000 ) ) ;
#12 = ORIENTED_EDGE ( 'NONE', *, *, #353, .T. ) ;
#13 = CARTESIAN_POINT ( 'NONE',  ( 90.00000000000000000, -10.00000000000000000, 0.000000000000000000 ) ) ;
#14 = ADVANCED_FACE ( 'NONE', ( #89 ), #48, .T. ) ;
#15 = PERSON_AND_ORGANIZATION ( #39, #203 ) ;
#16 = COORDINATED_UNIVERSAL_TIME_OFFSET ( 8, 0, .AHEAD. ) ;
#17 = LINE ( 'NONE', #404, #499 ) ;
#18 = EDGE_LOOP ( 'NONE', ( #165, #109, #327, #197 ) ) ;
#19 = ADVANCED_FACE ( 'NONE', ( #137 ), #182, .F. ) ;
#20 = CARTESIAN_POINT ( 'NONE',  ( 0.000000000000000000, 0.000000000000000000, 0.000000000000000000 ) ) ;
#21 = CARTESIAN_POINT ( 'NONE',  ( 0.000000000000000000, 0.000000000000000000, 125.0000000000000000 ) ) ;
#22 = EDGE_LOOP ( 'NONE', ( #117, #251 ) ) ;
#23 = ORIENTED_EDGE ( 'NONE', *, *, #336, .F. ) ;
#24 = LINE ( 'NONE', #152, #83 ) ;
#25 = CIRCLE ( 'NONE', #275, 45.00000000000000000 ) ;
#26 = CC_DESIGN_APPROVAL ( #436, ( #317 ) ) ;
#27 = VERTEX_POINT ( 'NONE', #1 ) ;
#28 = APPROVAL_STATUS ( 'not_yet_approved' ) ;
#29 = ORIENTED_EDGE ( 'NONE', *, *, #10, .F. ) ;
#30 = SECURITY_CLASSIFICATION_LEVEL ( 'unclassified' ) ;
#31 = ORIENTED_EDGE ( 'NONE', *, *, #223, .F. ) ;
#32 = CARTESIAN_POINT ( 'NONE',  ( 0.000000000000000000, 0.000000000000000000, 0.000000000000000000 ) ) ;
#33 = DATE_AND_TIME ( #461, #563 ) ;
#34 = AXIS2_PLACEMENT_3D ( 'NONE', #371, #487, #438 ) ;
#35 = APPROVAL_PERSON_ORGANIZATION ( #290, #432, #496 ) ;
#36 = EDGE_CURVE ( 'NONE', #92, #462, #413, .T. ) ;
#37 = CARTESIAN_POINT ( 'NONE',  ( -90.00000000000000000, 10.00000000000000000, 0.000000000000000000 ) ) ;
#38 = FACE_OUTER_BOUND ( 'NONE', #225, .T. ) ;
#39 = PERSON ( '未指定', '未指定', '未指定', ('未指定'), ('未指定'), ('未指定') ) ;
#40 = DIRECTION ( 'NONE',  ( 1.000000000000000000, 0.000000000000000000, 0.000000000000000000 ) ) ;
#41 = CARTESIAN_POINT ( 'NONE',  ( 0.000000000000000000, 0.000000000000000000, 125.0000000000000000 ) ) ;
#42 = LINE ( 'NONE', #344, #160 ) ;
#43 = LINE ( 'NONE', #179, #454 ) ;
#44 = EDGE_CURVE ( 'NONE', #479, #445, #50, .T. ) ;
#45 = AXIS2_PLACEMENT_3D ( 'NONE', #147, #189, #405 ) ;
#46 = FACE_OUTER_BOUND ( 'NONE', #18, .T. ) ;
#47 = CARTESIAN_POINT ( 'NONE',  ( 45.00000000000000000, 5.510910596163089556E-15, 0.000000000000000000 ) ) ;
#48 = CYLINDRICAL_SURFACE ( 'NONE', #148, 45.00000000000000000 ) ;
#49 = CARTESIAN_POINT ( 'NONE',  ( -90.00000000000000000, 0.000000000000000000, -50.00000000000000000 ) ) ;
#50 = CIRCLE ( 'NONE', #186, 45.00000000000000000 ) ;
#51 =( GEOMETRIC_REPRESENTATION_CONTEXT ( 3 ) GLOBAL_UNCERTAINTY_ASSIGNED_CONTEXT ( ( #230 ) ) GLOBAL_UNIT_ASSIGNED_CONTEXT ( ( #247, #450, #252 ) ) REPRESENTATION_CONTEXT ( 'NONE', 'WORKASPACE' ) );
#52 = DIRECTION ( 'NONE',  ( 0.000000000000000000, 0.000000000000000000, -1.000000000000000000 ) ) ;
#53 = ORIENTED_EDGE ( 'NONE', *, *, #276, .F. ) ;
#54 = FACE_OUTER_BOUND ( 'NONE', #79, .T. ) ;
#55 = DIRECTION ( 'NONE',  ( -1.000000000000000000, 0.000000000000000000, 0.000000000000000000 ) ) ;
#56 = VERTEX_POINT ( 'NONE', #396 ) ;
#57 = DATE_TIME_ROLE ( 'creation_date' ) ;
#58 = APPLICATION_CONTEXT ( 'configuration controlled 3d designs of mechanical parts and assemblies' ) ;
#59 = DIRECTION ( 'NONE',  ( 1.000000000000000000, 0.000000000000000000, 0.000000000000000000 ) ) ;
#60 = CARTESIAN_POINT ( 'NONE',  ( -90.00000000000000000, 0.000000000000000000, -20.00000000000000355 ) ) ;
#61 = CIRCLE ( 'NONE', #517, 35.00000000000000000 ) ;
#62 = DIRECTION ( 'NONE',  ( 0.000000000000000000, 0.000000000000000000, -1.000000000000000000 ) ) ;
#63 = DIRECTION ( 'NONE',  ( -1.000000000000000000, 0.000000000000000000, 0.000000000000000000 ) ) ;
#64 = AXIS2_PLACEMENT_3D ( 'NONE', #380, #306, #80 ) ;
#65 = APPROVAL_DATE_TIME ( #33, #432 ) ;
#66 = DIRECTION ( 'NONE',  ( 0.000000000000000000, 0.000000000000000000, 1.000000000000000000 ) ) ;
#67 = ADVANCED_FACE ( 'NONE', ( #309 ), #229, .T. ) ;
#68 = VERTEX_POINT ( 'NONE', #47 ) ;
#69 = ADVANCED_FACE ( 'NONE', ( #355, #6 ), #138, .F. ) ;
#70 = PLANE ( 'NONE',  #235 ) ;
#71 = VECTOR ( 'NONE', #63, 1000.000000000000000 ) ;
#72 = CIRCLE ( 'NONE', #205, 35.00000000000000000 ) ;
#73 = VERTEX_POINT ( 'NONE', #91 ) ;
#74 = ORIENTED_EDGE ( 'NONE', *, *, #467, .F. ) ;
#75 = DIRECTION ( 'NONE',  ( 1.000000000000000000, 0.000000000000000000, 0.000000000000000000 ) ) ;
#76 = CALENDAR_DATE ( 2026, 10, 4 ) ;
#77 = VERTEX_POINT ( 'NONE', #472 ) ;
#78 = CARTESIAN_POINT ( 'NONE',  ( -45.00000000000000000, 0.000000000000000000, 725.0000000000000000 ) ) ;
#79 = EDGE_LOOP ( 'NONE', ( #23, #220, #287, #453 ) ) ;
#80 = DIRECTION ( 'NONE',  ( 1.000000000000000000, 0.000000000000000000, 0.000000000000000000 ) ) ;
#81 = ORIENTED_EDGE ( 'NONE', *, *, #258, .F. ) ;
#82 = AXIS2_PLACEMENT_3D ( 'NONE', #11, #363, #102 ) ;
#83 = VECTOR ( 'NONE', #204, 1000.000000000000000 ) ;
#84 = DIRECTION ( 'NONE',  ( 1.000000000000000000, 0.000000000000000000, 0.000000000000000000 ) ) ;
#85 = EDGE_CURVE ( 'NONE', #451, #408, #25, .T. ) ;
#86 = DIRECTION ( 'NONE',  ( 0.000000000000000000, 0.000000000000000000, 1.000000000000000000 ) ) ;
#87 = ORIENTED_EDGE ( 'NONE', *, *, #541, .F. ) ;
#88 = PLANE ( 'NONE',  #99 ) ;
#89 = FACE_OUTER_BOUND ( 'NONE', #216, .T. ) ;
#90 = DIRECTION ( 'NONE',  ( 0.000000000000000000, 0.000000000000000000, 1.000000000000000000 ) ) ;
#91 = CARTESIAN_POINT ( 'NONE',  ( -35.00000000000000000, 4.286263797015736496E-15, 125.0000000000000000 ) ) ;
#92 = VERTEX_POINT ( 'NONE', #314 ) ;
#93 = EDGE_CURVE ( 'NONE', #536, #479, #561, .T. ) ;
#94 = DIRECTION ( 'NONE',  ( 0.000000000000000000, 0.000000000000000000, 1.000000000000000000 ) ) ;
#95 = CYLINDRICAL_SURFACE ( 'NONE', #488, 30.00000000000000000 ) ;
#96 = CYLINDRICAL_SURFACE ( 'NONE', #34, 45.00000000000000000 ) ;
#97 = EDGE_LOOP ( 'NONE', ( #546, #159, #512, #259 ) ) ;
#98 = AXIS2_PLACEMENT_3D ( 'NONE', #227, #433, #434 ) ;
#99 = AXIS2_PLACEMENT_3D ( 'NONE', #228, #361, #231 ) ;
#100 = LINE ( 'NONE', #283, #401 ) ;
#101 = ORIENTED_EDGE ( 'NONE', *, *, #223, .T. ) ;
#102 = DIRECTION ( 'NONE',  ( 0.000000000000000000, 0.000000000000000000, -1.000000000000000000 ) ) ;
#103 = ORIENTED_EDGE ( 'NONE', *, *, #127, .T. ) ;
#104 = APPROVAL_ROLE ( '' ) ;
#105 = CARTESIAN_POINT ( 'NONE',  ( 90.00000000000000000, 10.00000000000000000, 0.000000000000000000 ) ) ;
#106 = LINE ( 'NONE', #195, #71 ) ;
#107 = PERSON_AND_ORGANIZATION_ROLE ( 'creator' ) ;
#108 = AXIS2_PLACEMENT_3D ( 'NONE', #126, #40, #262 ) ;
#109 = ORIENTED_EDGE ( 'NONE', *, *, #5, .F. ) ;
#110 = ADVANCED_FACE ( 'NONE', ( #143 ), #318, .F. ) ;
#111 = ORIENTED_EDGE ( 'NONE', *, *, #460, .F. ) ;
#112 = CARTESIAN_POINT ( 'NONE',  ( -45.00000000000000000, 0.000000000000000000, 725.0000000000000000 ) ) ;
#113 = EDGE_LOOP ( 'NONE', ( #334, #300 ) ) ;
#114 = CALENDAR_DATE ( 2026, 10, 4 ) ;
#115 = VERTEX_POINT ( 'NONE', #425 ) ;
#116 = CC_DESIGN_PERSON_AND_ORGANIZATION_ASSIGNMENT ( #443, #161, ( #523 ) ) ;
#117 = ORIENTED_EDGE ( 'NONE', *, *, #232, .F. ) ;
#118 = CARTESIAN_POINT ( 'NONE',  ( 90.00000000000000000, -10.00000000000000000, 0.000000000000000000 ) ) ;
#119 = ADVANCED_FACE ( 'NONE', ( #38 ), #219, .F. ) ;
#120 = CIRCLE ( 'NONE', #485, 30.00000000000000000 ) ;
#121 = EDGE_CURVE ( 'NONE', #27, #237, #120, .T. ) ;
#122 = AXIS2_PLACEMENT_3D ( 'NONE', #534, #188, #530 ) ;
#123 = EDGE_LOOP ( 'NONE', ( #399, #87 ) ) ;
#124 = CARTESIAN_POINT ( 'NONE',  ( 90.00000000000000000, 10.00000000000000000, 0.000000000000000000 ) ) ;
#125 = ORIENTED_EDGE ( 'NONE', *, *, #232, .T. ) ;
#126 = CARTESIAN_POINT ( 'NONE',  ( -90.00000000000000000, 0.000000000000000000, -50.00000000000000000 ) ) ;
#127 = EDGE_CURVE ( 'NONE', #77, #73, #61, .T. ) ;
#128 = ORIENTED_EDGE ( 'NONE', *, *, #210, .T. ) ;
#129 = ADVANCED_FACE ( 'NONE', ( #538 ), #368, .F. ) ;
#130 = DIRECTION ( 'NONE',  ( -1.000000000000000000, 0.000000000000000000, 0.000000000000000000 ) ) ;
#131 = CARTESIAN_POINT ( 'NONE',  ( 90.00000000000000000, 10.00000000000000000, 0.000000000000000000 ) ) ;
#132 = AXIS2_PLACEMENT_3D ( 'NONE', #158, #364, #362 ) ;
#133 = AXIS2_PLACEMENT_3D ( 'NONE', #185, #357, #529 ) ;
#134 = VECTOR ( 'NONE', #218, 1000.000000000000000 ) ;
#135 = ORIENTED_EDGE ( 'NONE', *, *, #207, .F. ) ;
#136 = DIRECTION ( 'NONE',  ( -1.000000000000000000, 0.000000000000000000, 0.000000000000000000 ) ) ;
#137 = FACE_OUTER_BOUND ( 'NONE', #264, .T. ) ;
#138 = PLANE ( 'NONE',  #180 ) ;
#139 = CC_DESIGN_PERSON_AND_ORGANIZATION_ASSIGNMENT ( #342, #489, ( #256 ) ) ;
#140 = DIRECTION ( 'NONE',  ( 1.000000000000000000, 0.000000000000000000, 0.000000000000000000 ) ) ;
#141 = AXIS2_PLACEMENT_3D ( 'NONE', #190, #441, #402 ) ;
#142 = APPROVAL_PERSON_ORGANIZATION ( #157, #436, #506 ) ;
#143 = FACE_OUTER_BOUND ( 'NONE', #271, .T. ) ;
#144 = EDGE_CURVE ( 'NONE', #503, #442, #17, .T. ) ;
#145 = DIRECTION ( 'NONE',  ( 1.000000000000000000, 0.000000000000000000, 0.000000000000000000 ) ) ;
#146 = VECTOR ( 'NONE', #397, 1000.000000000000000 ) ;
#147 = CARTESIAN_POINT ( 'NONE',  ( 90.00000000000000000, 0.000000000000000000, -50.00000000000000000 ) ) ;
#148 = AXIS2_PLACEMENT_3D ( 'NONE', #348, #474, #4 ) ;
#149 = LOCAL_TIME ( 15, 3, 36.00000000000000000, #212 ) ;
#150 = DIRECTION ( 'NONE',  ( 0.000000000000000000, 0.000000000000000000, 1.000000000000000000 ) ) ;
#151 = DIRECTION ( 'NONE',  ( 1.000000000000000000, 0.000000000000000000, 0.000000000000000000 ) ) ;
#152 = CARTESIAN_POINT ( 'NONE',  ( 90.00000000000000000, 10.00000000000000000, 0.000000000000000000 ) ) ;
#153 = DIRECTION ( 'NONE',  ( 1.000000000000000000, 0.000000000000000000, 0.000000000000000000 ) ) ;
#154 = PERSON_AND_ORGANIZATION_ROLE ( 'classification_officer' ) ;
#155 = PRODUCT_RELATED_PRODUCT_CATEGORY ( 'detail', '', ( #523 ) ) ;
#156 = ORIENTED_EDGE ( 'NONE', *, *, #253, .F. ) ;
#157 = PERSON_AND_ORGANIZATION ( #39, #203 ) ;
#158 = CARTESIAN_POINT ( 'NONE',  ( 90.00000000000000000, 10.00000000000000000, 0.000000000000000000 ) ) ;
#159 = ORIENTED_EDGE ( 'NONE', *, *, #121, .T. ) ;
#160 = VECTOR ( 'NONE', #555, 1000.000000000000000 ) ;
#161 = PERSON_AND_ORGANIZATION_ROLE ( 'design_owner' ) ;
#162 = CIRCLE ( 'NONE', #519, 35.00000000000000000 ) ;
#163 = MECHANICAL_CONTEXT ( 'NONE', #2, 'mechanical' ) ;
#164 = ORIENTED_EDGE ( 'NONE', *, *, #325, .F. ) ;
#165 = ORIENTED_EDGE ( 'NONE', *, *, #276, .T. ) ;
#166 = LINE ( 'NONE', #260, #292 ) ;
#167 = APPROVAL_STATUS ( 'not_yet_approved' ) ;
#168 = ORIENTED_EDGE ( 'NONE', *, *, #337, .T. ) ;
#169 = LINE ( 'NONE', #124, #500 ) ;
#170 = AXIS2_PLACEMENT_3D ( 'NONE', #41, #86, #524 ) ;
#171 = SHAPE_DEFINITION_REPRESENTATION ( #477, #522 ) ;
#172 = ORIENTED_EDGE ( 'NONE', *, *, #301, .T. ) ;
#173 = DIRECTION ( 'NONE',  ( 1.000000000000000000, 0.000000000000000000, 0.000000000000000000 ) ) ;
#174 = VERTEX_POINT ( 'NONE', #498 ) ;
#175 = CARTESIAN_POINT ( 'NONE',  ( 0.000000000000000000, 0.000000000000000000, 725.0000000000000000 ) ) ;
#176 = DIRECTION ( 'NONE',  ( -1.000000000000000000, 0.000000000000000000, 0.000000000000000000 ) ) ;
#177 = VERTEX_POINT ( 'NONE', #60 ) ;
#178 = CARTESIAN_POINT ( 'NONE',  ( 43.87482193696060051, -10.00000000000000000, 0.000000000000000000 ) ) ;
#179 = CARTESIAN_POINT ( 'NONE',  ( 90.00000000000000000, 10.00000000000000000, -11.27016653792584044 ) ) ;
#180 = AXIS2_PLACEMENT_3D ( 'NONE', #313, #222, #476 ) ;
#181 = LOCAL_TIME ( 15, 3, 36.00000000000000000, #455 ) ;
#182 = PLANE ( 'NONE',  #381 ) ;
#183 = EDGE_CURVE ( 'NONE', #92, #346, #531, .T. ) ;
#184 = CARTESIAN_POINT ( 'NONE',  ( 0.000000000000000000, 0.000000000000000000, 0.000000000000000000 ) ) ;
#185 = CARTESIAN_POINT ( 'NONE',  ( 0.000000000000000000, 0.000000000000000000, 0.000000000000000000 ) ) ;
#186 = AXIS2_PLACEMENT_3D ( 'NONE', #184, #354, #429 ) ;
#187 = AXIS2_PLACEMENT_3D ( 'NONE', #459, #389, #173 ) ;
#188 = DIRECTION ( 'NONE',  ( -1.000000000000000000, 0.000000000000000000, 0.000000000000000000 ) ) ;
#189 = DIRECTION ( 'NONE',  ( 1.000000000000000000, 0.000000000000000000, 0.000000000000000000 ) ) ;
#190 = CARTESIAN_POINT ( 'NONE',  ( 0.000000000000000000, 0.000000000000000000, 725.0000000000000000 ) ) ;
#191 = EDGE_CURVE ( 'NONE', #73, #77, #439, .T. ) ;
#192 = LINE ( 'NONE', #236, #291 ) ;
#193 = LOCAL_TIME ( 15, 3, 36.00000000000000000, #386 ) ;
#194 = CARTESIAN_POINT ( 'NONE',  ( -90.00000000000000000, 3.673940397442059178E-15, -80.00000000000000000 ) ) ;
#195 = CARTESIAN_POINT ( 'NONE',  ( 90.00000000000000000, 3.673940397442059178E-15, -80.00000000000000000 ) ) ;
#196 = ORIENTED_EDGE ( 'NONE', *, *, #191, .F. ) ;
#197 = ORIENTED_EDGE ( 'NONE', *, *, #467, .T. ) ;
#198 = FACE_OUTER_BOUND ( 'NONE', #508, .T. ) ;
#199 = DIRECTION ( 'NONE',  ( 0.000000000000000000, 0.000000000000000000, 1.000000000000000000 ) ) ;
#200 = ORIENTED_EDGE ( 'NONE', *, *, #226, .T. ) ;
#201 = APPLICATION_PROTOCOL_DEFINITION ( 'international standard', 'config_control_design', 1994, #2 ) ;
#202 = ORIENTED_EDGE ( 'NONE', *, *, #398, .T. ) ;
#203 = ORGANIZATION ( '未指定', '未指定', '' ) ;
#204 = DIRECTION ( 'NONE',  ( -1.000000000000000000, 0.000000000000000000, 0.000000000000000000 ) ) ;
#205 = AXIS2_PLACEMENT_3D ( 'NONE', #175, #347, #75 ) ;
#206 = ORIENTED_EDGE ( 'NONE', *, *, #379, .T. ) ;
#207 = EDGE_CURVE ( 'NONE', #408, #451, #255, .T. ) ;
#208 = ORIENTED_EDGE ( 'NONE', *, *, #144, .F. ) ;
#209 = ORIENTED_EDGE ( 'NONE', *, *, #504, .F. ) ;
#210 = EDGE_CURVE ( 'NONE', #27, #509, #106, .T. ) ;
#211 = FACE_OUTER_BOUND ( 'NONE', #113, .T. ) ;
#212 = COORDINATED_UNIVERSAL_TIME_OFFSET ( 8, 0, .AHEAD. ) ;
#213 = ORIENTED_EDGE ( 'NONE', *, *, #437, .T. ) ;
#214 = DIRECTION ( 'NONE',  ( 0.000000000000000000, 0.000000000000000000, 1.000000000000000000 ) ) ;
#215 = CIRCLE ( 'NONE', #358, 30.00000000000000000 ) ;
#216 = EDGE_LOOP ( 'NONE', ( #456, #544, #466, #202, #427, #369 ) ) ;
#217 = CC_DESIGN_DATE_AND_TIME_ASSIGNMENT ( #418, #446, ( #323 ) ) ;
#218 = DIRECTION ( 'NONE',  ( 0.000000000000000000, -1.000000000000000000, 0.000000000000000000 ) ) ;
#219 = PLANE ( 'NONE',  #245 ) ;
#220 = ORIENTED_EDGE ( 'NONE', *, *, #127, .F. ) ;
#221 = CARTESIAN_POINT ( 'NONE',  ( 45.00000000000000000, 5.510910596163089556E-15, 725.0000000000000000 ) ) ;
#222 = DIRECTION ( 'NONE',  ( 1.000000000000000000, 0.000000000000000000, 0.000000000000000000 ) ) ;
#223 = EDGE_CURVE ( 'NONE', #177, #509, #394, .T. ) ;
#224 = VECTOR ( 'NONE', #521, 1000.000000000000000 ) ;
#225 = EDGE_LOOP ( 'NONE', ( #111, #268, #156, #539, #298 ) ) ;
#226 = EDGE_CURVE ( 'NONE', #115, #174, #299, .T. ) ;
#227 = CARTESIAN_POINT ( 'NONE',  ( 0.000000000000000000, 0.000000000000000000, 0.000000000000000000 ) ) ;
#228 = CARTESIAN_POINT ( 'NONE',  ( 0.000000000000000000, 0.000000000000000000, 725.0000000000000000 ) ) ;
#229 = PLANE ( 'NONE',  #170 ) ;
#230 = UNCERTAINTY_MEASURE_WITH_UNIT (LENGTH_MEASURE( 1.000000000000000082E-05 ), #247, 'distance_accuracy_value', 'NONE');
#231 = DIRECTION ( 'NONE',  ( 1.000000000000000000, 0.000000000000000000, 0.000000000000000000 ) ) ;
#232 = EDGE_CURVE ( 'NONE', #237, #27, #215, .T. ) ;
#233 = DIRECTION ( 'NONE',  ( 0.000000000000000000, 0.000000000000000000, -1.000000000000000000 ) ) ;
#234 = VECTOR ( 'NONE', #385, 1000.000000000000000 ) ;
#235 = AXIS2_PLACEMENT_3D ( 'NONE', #295, #293, #370 ) ;
#236 = CARTESIAN_POINT ( 'NONE',  ( 90.00000000000000000, 10.00000000000000000, 0.000000000000000000 ) ) ;
#237 = VERTEX_POINT ( 'NONE', #242 ) ;
#238 = CYLINDRICAL_SURFACE ( 'NONE', #414, 35.00000000000000000 ) ;
#239 = DIRECTION ( 'NONE',  ( 1.000000000000000000, 0.000000000000000000, 0.000000000000000000 ) ) ;
#240 = DATE_AND_TIME ( #551, #181 ) ;
#241 = LINE ( 'NONE', #112, #333 ) ;
#242 = CARTESIAN_POINT ( 'NONE',  ( 90.00000000000000000, 0.000000000000000000, -20.00000000000000355 ) ) ;
#243 = CC_DESIGN_PERSON_AND_ORGANIZATION_ASSIGNMENT ( #15, #263, ( #256 ) ) ;
#244 = ADVANCED_FACE ( 'NONE', ( #330, #495 ), #447, .T. ) ;
#245 = AXIS2_PLACEMENT_3D ( 'NONE', #558, #280, #484 ) ;
#246 = ADVANCED_FACE ( 'NONE', ( #492 ), #96, .T. ) ;
#247 =( LENGTH_UNIT ( ) NAMED_UNIT ( * ) SI_UNIT ( .MILLI., .METRE. ) );
#248 = LINE ( 'NONE', #406, #7 ) ;
#249 = DATE_AND_TIME ( #366, #193 ) ;
#250 = DIRECTION ( 'NONE',  ( 1.000000000000000000, 0.000000000000000000, 0.000000000000000000 ) ) ;
#251 = ORIENTED_EDGE ( 'NONE', *, *, #121, .F. ) ;
#252 =( NAMED_UNIT ( * ) SI_UNIT ( $, .STERADIAN. ) SOLID_ANGLE_UNIT ( ) );
#253 = EDGE_CURVE ( 'NONE', #540, #373, #192, .T. ) ;
#254 = ORIENTED_EDGE ( 'NONE', *, *, #501, .F. ) ;
#255 = CIRCLE ( 'NONE', #141, 45.00000000000000000 ) ;
#256 = PRODUCT_DEFINITION_FORMATION_WITH_SPECIFIED_SOURCE ( '任何', '', #523, .NOT_KNOWN. ) ;
#257 = DATE_AND_TIME ( #114, #281 ) ;
#258 = EDGE_CURVE ( 'NONE', #77, #56, #248, .T. ) ;
#259 = ORIENTED_EDGE ( 'NONE', *, *, #337, .F. ) ;
#260 = CARTESIAN_POINT ( 'NONE',  ( 90.00000000000000000, 10.00000000000000000, 0.000000000000000000 ) ) ;
#261 = ORIENTED_EDGE ( 'NONE', *, *, #183, .T. ) ;
#262 = DIRECTION ( 'NONE',  ( 0.000000000000000000, 0.000000000000000000, -1.000000000000000000 ) ) ;
#263 = PERSON_AND_ORGANIZATION_ROLE ( 'creator' ) ;
#264 = EDGE_LOOP ( 'NONE', ( #419, #559, #307, #164, #415, #403 ) ) ;
#265 = APPROVAL ( #167, '未指定' ) ;
#266 = DIRECTION ( 'NONE',  ( 0.000000000000000000, 0.000000000000000000, 1.000000000000000000 ) ) ;
#267 = VECTOR ( 'NONE', #136, 1000.000000000000000 ) ;
#268 = ORIENTED_EDGE ( 'NONE', *, *, #301, .F. ) ;
#269 = DIRECTION ( 'NONE',  ( -1.000000000000000000, 0.000000000000000000, 0.000000000000000000 ) ) ;
#270 = CARTESIAN_POINT ( 'NONE',  ( 90.00000000000000000, 0.000000000000000000, -50.00000000000000000 ) ) ;
#271 = EDGE_LOOP ( 'NONE', ( #125, #128, #31, #29 ) ) ;
#272 = CARTESIAN_POINT ( 'NONE',  ( 90.00000000000000000, -10.00000000000000000, 0.000000000000000000 ) ) ;
#273 = DIRECTION ( 'NONE',  ( 1.000000000000000000, 0.000000000000000000, 0.000000000000000000 ) ) ;
#274 = CARTESIAN_POINT ( 'NONE',  ( 0.000000000000000000, 0.000000000000000000, 725.0000000000000000 ) ) ;
#275 = AXIS2_PLACEMENT_3D ( 'NONE', #274, #526, #140 ) ;
#276 = EDGE_CURVE ( 'NONE', #505, #503, #332, .T. ) ;
#277 = CARTESIAN_POINT ( 'NONE',  ( 90.00000000000000000, 0.000000000000000000, -20.00000000000000355 ) ) ;
#278 = CARTESIAN_POINT ( 'NONE',  ( 90.00000000000000000, 0.000000000000000000, -50.00000000000000000 ) ) ;
#279 = CARTESIAN_POINT ( 'NONE',  ( 90.00000000000000000, 0.000000000000000000, -50.00000000000000000 ) ) ;
#280 = DIRECTION ( 'NONE',  ( 0.000000000000000000, 0.000000000000000000, -1.000000000000000000 ) ) ;
#281 = LOCAL_TIME ( 15, 3, 36.00000000000000000, #16 ) ;
#282 = DIRECTION ( 'NONE',  ( 0.000000000000000000, 0.000000000000000000, 1.000000000000000000 ) ) ;
#283 = CARTESIAN_POINT ( 'NONE',  ( 90.00000000000000000, -10.00000000000000000, 0.000000000000000000 ) ) ;
#284 = EDGE_LOOP ( 'NONE', ( #556, #339, #409, #303, #343 ) ) ;
#285 = PERSON_AND_ORGANIZATION ( #39, #203 ) ;
#286 = DIRECTION ( 'NONE',  ( -1.000000000000000000, 0.000000000000000000, 0.000000000000000000 ) ) ;
#287 = ORIENTED_EDGE ( 'NONE', *, *, #258, .T. ) ;
#288 = DIRECTION ( 'NONE',  ( 1.000000000000000000, 0.000000000000000000, 0.000000000000000000 ) ) ;
#289 = DIRECTION ( 'NONE',  ( 0.000000000000000000, -1.000000000000000000, 0.000000000000000000 ) ) ;
#290 = PERSON_AND_ORGANIZATION ( #39, #203 ) ;
#291 = VECTOR ( 'NONE', #289, 1000.000000000000000 ) ;
#292 = VECTOR ( 'NONE', #130, 1000.000000000000000 ) ;
#293 = DIRECTION ( 'NONE',  ( 0.000000000000000000, 0.000000000000000000, 1.000000000000000000 ) ) ;
#294 = CC_DESIGN_PERSON_AND_ORGANIZATION_ASSIGNMENT ( #285, #154, ( #323 ) ) ;
#295 = CARTESIAN_POINT ( 'NONE',  ( 0.000000000000000000, 0.000000000000000000, 0.000000000000000000 ) ) ;
#296 = VERTEX_POINT ( 'NONE', #532 ) ;
#297 = APPROVAL_DATE_TIME ( #257, #436 ) ;
#298 = ORIENTED_EDGE ( 'NONE', *, *, #379, .F. ) ;
#299 = CIRCLE ( 'NONE', #45, 39.99999999999999289 ) ;
#300 = ORIENTED_EDGE ( 'NONE', *, *, #36, .F. ) ;
#301 = EDGE_CURVE ( 'NONE', #373, #462, #100, .T. ) ;
#302 = CARTESIAN_POINT ( 'NONE',  ( 0.000000000000000000, 0.000000000000000000, 0.000000000000000000 ) ) ;
#303 = ORIENTED_EDGE ( 'NONE', *, *, #183, .F. ) ;
#304 = CARTESIAN_POINT ( 'NONE',  ( -45.00000000000000000, 0.000000000000000000, 0.000000000000000000 ) ) ;
#305 = ORIENTED_EDGE ( 'NONE', *, *, #541, .T. ) ;
#306 = DIRECTION ( 'NONE',  ( 0.000000000000000000, 0.000000000000000000, 1.000000000000000000 ) ) ;
#307 = ORIENTED_EDGE ( 'NONE', *, *, #353, .F. ) ;
#308 = DIRECTION ( 'NONE',  ( 0.000000000000000000, 0.000000000000000000, 1.000000000000000000 ) ) ;
#309 = FACE_OUTER_BOUND ( 'NONE', #335, .T. ) ;
#310 = FACE_BOUND ( 'NONE', #123, .T. ) ;
#311 = DIRECTION ( 'NONE',  ( 0.000000000000000000, 0.000000000000000000, -1.000000000000000000 ) ) ;
#312 = EDGE_CURVE ( 'NONE', #462, #92, #42, .T. ) ;
#313 = CARTESIAN_POINT ( 'NONE',  ( -90.00000000000000000, 0.000000000000000000, -50.00000000000000000 ) ) ;
#314 = CARTESIAN_POINT ( 'NONE',  ( -43.87482193696055077, -10.00000000000000000, 0.000000000000000000 ) ) ;
#315 = AXIS2_PLACEMENT_3D ( 'NONE', #270, #481, #94 ) ;
#316 = CIRCLE ( 'NONE', #108, 30.00000000000000000 ) ;
#317 = PRODUCT_DEFINITION ( '未知', '', #256, #360 ) ;
#318 = CYLINDRICAL_SURFACE ( 'NONE', #315, 30.00000000000000000 ) ;
#319 = CARTESIAN_POINT ( 'NONE',  ( 90.00000000000000000, 0.000000000000000000, -50.00000000000000000 ) ) ;
#320 = CARTESIAN_POINT ( 'NONE',  ( -43.87482193696060051, 10.00000000000000000, 0.000000000000000000 ) ) ;
#321 = DIRECTION ( 'NONE',  ( 0.000000000000000000, 0.000000000000000000, 1.000000000000000000 ) ) ;
#322 = VECTOR ( 'NONE', #286, 1000.000000000000000 ) ;
#323 = SECURITY_CLASSIFICATION ( '', '', #30 ) ;
#324 = CARTESIAN_POINT ( 'NONE',  ( -90.00000000000000000, 10.00000000000000000, -11.27016653792584044 ) ) ;
#325 = EDGE_CURVE ( 'NONE', #540, #536, #547, .T. ) ;
#326 = DIRECTION ( 'NONE',  ( 0.000000000000000000, 0.000000000000000000, 1.000000000000000000 ) ) ;
#327 = ORIENTED_EDGE ( 'NONE', *, *, #226, .F. ) ;
#328 = PERSON_AND_ORGANIZATION ( #39, #203 ) ;
#329 = CARTESIAN_POINT ( 'NONE',  ( -90.00000000000000000, -10.00000000000000000, 0.000000000000000000 ) ) ;
#330 = FACE_OUTER_BOUND ( 'NONE', #420, .T. ) ;
#331 = DIRECTION ( 'NONE',  ( 1.000000000000000000, 0.000000000000000000, 0.000000000000000000 ) ) ;
#332 = CIRCLE ( 'NONE', #82, 39.99999999999999289 ) ;
#333 = VECTOR ( 'NONE', #411, 1000.000000000000000 ) ;
#334 = ORIENTED_EDGE ( 'NONE', *, *, #312, .F. ) ;
#335 = EDGE_LOOP ( 'NONE', ( #103, #507 ) ) ;
#336 = EDGE_CURVE ( 'NONE', #73, #296, #557, .T. ) ;
#337 = EDGE_CURVE ( 'NONE', #509, #177, #316, .T. ) ;
#338 = ORIENTED_EDGE ( 'NONE', *, *, #93, .T. ) ;
#339 = ORIENTED_EDGE ( 'NONE', *, *, #525, .T. ) ;
#340 = DIRECTION ( 'NONE',  ( 0.000000000000000000, 0.000000000000000000, -1.000000000000000000 ) ) ;
#341 = EDGE_CURVE ( 'NONE', #56, #296, #72, .T. ) ;
#342 = PERSON_AND_ORGANIZATION ( #39, #203 ) ;
#343 = ORIENTED_EDGE ( 'NONE', *, *, #398, .F. ) ;
#344 = CARTESIAN_POINT ( 'NONE',  ( 90.00000000000000000, -10.00000000000000000, 0.000000000000000000 ) ) ;
#345 = ADVANCED_FACE ( 'NONE', ( #211 ), #391, .F. ) ;
#346 = VERTEX_POINT ( 'NONE', #463 ) ;
#347 = DIRECTION ( 'NONE',  ( 0.000000000000000000, 0.000000000000000000, 1.000000000000000000 ) ) ;
#348 = CARTESIAN_POINT ( 'NONE',  ( 0.000000000000000000, 0.000000000000000000, 725.0000000000000000 ) ) ;
#349 = ORIENTED_EDGE ( 'NONE', *, *, #93, .F. ) ;
#350 = LINE ( 'NONE', #520, #267 ) ;
#351 = CIRCLE ( 'NONE', #365, 45.00000000000000000 ) ;
#352 = LINE ( 'NONE', #277, #224 ) ;
#353 = EDGE_CURVE ( 'NONE', #536, #479, #166, .T. ) ;
#354 = DIRECTION ( 'NONE',  ( 0.000000000000000000, 0.000000000000000000, 1.000000000000000000 ) ) ;
#355 = FACE_OUTER_BOUND ( 'NONE', #533, .T. ) ;
#356 = CC_DESIGN_DATE_AND_TIME_ASSIGNMENT ( #240, #57, ( #317 ) ) ;
#357 = DIRECTION ( 'NONE',  ( 0.000000000000000000, 0.000000000000000000, 1.000000000000000000 ) ) ;
#358 = AXIS2_PLACEMENT_3D ( 'NONE', #444, #153, #9 ) ;
#359 = CC_DESIGN_SECURITY_CLASSIFICATION ( #323, ( #256 ) ) ;
#360 = DESIGN_CONTEXT ( 'detailed design', #58, 'design' ) ;
#361 = DIRECTION ( 'NONE',  ( 0.000000000000000000, 0.000000000000000000, 1.000000000000000000 ) ) ;
#362 = DIRECTION ( 'NONE',  ( -1.000000000000000000, 0.000000000000000000, 0.000000000000000000 ) ) ;
#363 = DIRECTION ( 'NONE',  ( 1.000000000000000000, 0.000000000000000000, 0.000000000000000000 ) ) ;
#364 = DIRECTION ( 'NONE',  ( 0.000000000000000000, 0.000000000000000000, -1.000000000000000000 ) ) ;
#365 = AXIS2_PLACEMENT_3D ( 'NONE', #302, #266, #515 ) ;
#366 = CALENDAR_DATE ( 2026, 10, 4 ) ;
#367 = ADVANCED_FACE ( 'NONE', ( #511 ), #428, .F. ) ;
#368 = PLANE ( 'NONE',  #132 ) ;
#369 = ORIENTED_EDGE ( 'NONE', *, *, #460, .T. ) ;
#370 = DIRECTION ( 'NONE',  ( 1.000000000000000000, 0.000000000000000000, 0.000000000000000000 ) ) ;
#371 = CARTESIAN_POINT ( 'NONE',  ( 0.000000000000000000, 0.000000000000000000, 725.0000000000000000 ) ) ;
#372 = APPLICATION_PROTOCOL_DEFINITION ( 'international standard', 'config_control_design', 1994, #58 ) ;
#373 = VERTEX_POINT ( 'NONE', #118 ) ;
#374 = EDGE_LOOP ( 'NONE', ( #349, #12 ) ) ;
#375 = ORIENTED_EDGE ( 'NONE', *, *, #384, .F. ) ;
#376 = EDGE_LOOP ( 'NONE', ( #545, #407 ) ) ;
#377 = CYLINDRICAL_SURFACE ( 'NONE', #470, 35.00000000000000000 ) ;
#378 = ORIENTED_EDGE ( 'NONE', *, *, #312, .T. ) ;
#379 = EDGE_CURVE ( 'NONE', #68, #536, #351, .T. ) ;
#380 = CARTESIAN_POINT ( 'NONE',  ( 0.000000000000000000, 0.000000000000000000, 0.000000000000000000 ) ) ;
#381 = AXIS2_PLACEMENT_3D ( 'NONE', #131, #390, #311 ) ;
#382 = ORIENTED_EDGE ( 'NONE', *, *, #437, .F. ) ;
#383 = AXIS2_PLACEMENT_3D ( 'NONE', #535, #435, #145 ) ;
#384 = EDGE_CURVE ( 'NONE', #442, #346, #424, .T. ) ;
#385 = DIRECTION ( 'NONE',  ( 0.000000000000000000, 0.000000000000000000, 1.000000000000000000 ) ) ;
#386 = COORDINATED_UNIVERSAL_TIME_OFFSET ( 8, 0, .AHEAD. ) ;
#387 = ORIENTED_EDGE ( 'NONE', *, *, #417, .T. ) ;
#388 = CC_DESIGN_PERSON_AND_ORGANIZATION_ASSIGNMENT ( #497, #107, ( #317 ) ) ;
#389 = DIRECTION ( 'NONE',  ( 0.000000000000000000, 0.000000000000000000, 1.000000000000000000 ) ) ;
#390 = DIRECTION ( 'NONE',  ( 0.000000000000000000, -1.000000000000000000, 0.000000000000000000 ) ) ;
#391 = PLANE ( 'NONE',  #64 ) ;
#392 = CLOSED_SHELL ( 'NONE', ( #110, #554, #246, #345, #14, #469, #562, #490, #67, #129, #244, #69, #119, #367, #480, #19, #482 ) ) ;
#393 = CARTESIAN_POINT ( 'NONE',  ( 45.00000000000000000, 5.510910596163089556E-15, 725.0000000000000000 ) ) ;
#394 = CIRCLE ( 'NONE', #448, 30.00000000000000000 ) ;
#395 = VECTOR ( 'NONE', #340, 1000.000000000000000 ) ;
#396 = CARTESIAN_POINT ( 'NONE',  ( 35.00000000000000000, 0.000000000000000000, 725.0000000000000000 ) ) ;
#397 = DIRECTION ( 'NONE',  ( 0.000000000000000000, 0.000000000000000000, -1.000000000000000000 ) ) ;
#398 = EDGE_CURVE ( 'NONE', #445, #92, #423, .T. ) ;
#399 = ORIENTED_EDGE ( 'NONE', *, *, #341, .F. ) ;
#400 = DIRECTION ( 'NONE',  ( 1.000000000000000000, 0.000000000000000000, 0.000000000000000000 ) ) ;
#401 = VECTOR ( 'NONE', #55, 1000.000000000000000 ) ;
#402 = DIRECTION ( 'NONE',  ( 1.000000000000000000, 0.000000000000000000, 0.000000000000000000 ) ) ;
#403 = ORIENTED_EDGE ( 'NONE', *, *, #5, .T. ) ;
#404 = CARTESIAN_POINT ( 'NONE',  ( -90.00000000000000000, 10.00000000000000000, 0.000000000000000000 ) ) ;
#405 = DIRECTION ( 'NONE',  ( 0.000000000000000000, 0.000000000000000000, -1.000000000000000000 ) ) ;
#406 = CARTESIAN_POINT ( 'NONE',  ( 35.00000000000000000, 0.000000000000000000, 125.0000000000000000 ) ) ;
#407 = ORIENTED_EDGE ( 'NONE', *, *, #207, .T. ) ;
#408 = VERTEX_POINT ( 'NONE', #221 ) ;
#409 = ORIENTED_EDGE ( 'NONE', *, *, #384, .T. ) ;
#410 = EDGE_LOOP ( 'NONE', ( #101, #168 ) ) ;
#411 = DIRECTION ( 'NONE',  ( 0.000000000000000000, 0.000000000000000000, -1.000000000000000000 ) ) ;
#412 = ORIENTED_EDGE ( 'NONE', *, *, #3, .T. ) ;
#413 = CIRCLE ( 'NONE', #98, 45.00000000000000000 ) ;
#414 = AXIS2_PLACEMENT_3D ( 'NONE', #475, #90, #273 ) ;
#415 = ORIENTED_EDGE ( 'NONE', *, *, #417, .F. ) ;
#416 = CARTESIAN_POINT ( 'NONE',  ( 0.000000000000000000, 0.000000000000000000, 125.0000000000000000 ) ) ;
#417 = EDGE_CURVE ( 'NONE', #174, #540, #169, .T. ) ;
#418 = DATE_AND_TIME ( #76, #149 ) ;
#419 = ORIENTED_EDGE ( 'NONE', *, *, #144, .T. ) ;
#420 = EDGE_LOOP ( 'NONE', ( #549, #213, #200, #387 ) ) ;
#421 = CARTESIAN_POINT ( 'NONE',  ( 90.00000000000000000, 10.00000000000000000, 0.000000000000000000 ) ) ;
#422 = COORDINATED_UNIVERSAL_TIME_OFFSET ( 8, 0, .AHEAD. ) ;
#423 = CIRCLE ( 'NONE', #187, 45.00000000000000000 ) ;
#424 = LINE ( 'NONE', #37, #134 ) ;
#425 = CARTESIAN_POINT ( 'NONE',  ( 90.00000000000000000, -10.00000000000000000, -11.27016653792585998 ) ) ;
#426 = CARTESIAN_POINT ( 'NONE',  ( -90.00000000000000000, 10.00000000000000000, 0.000000000000000000 ) ) ;
#427 = ORIENTED_EDGE ( 'NONE', *, *, #36, .T. ) ;
#428 = PLANE ( 'NONE',  #518 ) ;
#429 = DIRECTION ( 'NONE',  ( 1.000000000000000000, 0.000000000000000000, 0.000000000000000000 ) ) ;
#430 = APPROVAL_PERSON_ORGANIZATION ( #328, #265, #104 ) ;
#431 = LINE ( 'NONE', #329, #510 ) ;
#432 = APPROVAL ( #28, '未指定' ) ;
#433 = DIRECTION ( 'NONE',  ( 0.000000000000000000, 0.000000000000000000, 1.000000000000000000 ) ) ;
#434 = DIRECTION ( 'NONE',  ( 1.000000000000000000, 0.000000000000000000, 0.000000000000000000 ) ) ;
#435 = DIRECTION ( 'NONE',  ( 0.000000000000000000, 0.000000000000000000, 1.000000000000000000 ) ) ;
#436 = APPROVAL ( #542, '未指定' ) ;
#437 = EDGE_CURVE ( 'NONE', #373, #115, #471, .T. ) ;
#438 = DIRECTION ( 'NONE',  ( -1.000000000000000000, 0.000000000000000000, 0.000000000000000000 ) ) ;
#439 = CIRCLE ( 'NONE', #383, 35.00000000000000000 ) ;
#440 = AXIS2_PLACEMENT_3D ( 'NONE', #32, #214, #84 ) ;
#441 = DIRECTION ( 'NONE',  ( 0.000000000000000000, 0.000000000000000000, 1.000000000000000000 ) ) ;
#442 = VERTEX_POINT ( 'NONE', #426 ) ;
#443 = PERSON_AND_ORGANIZATION ( #39, #203 ) ;
#444 = CARTESIAN_POINT ( 'NONE',  ( 90.00000000000000000, 0.000000000000000000, -50.00000000000000000 ) ) ;
#445 = VERTEX_POINT ( 'NONE', #304 ) ;
#446 = DATE_TIME_ROLE ( 'classification_date' ) ;
#447 = PLANE ( 'NONE',  #527 ) ;
#448 = AXIS2_PLACEMENT_3D ( 'NONE', #49, #151, #233 ) ;
#449 = CC_DESIGN_APPROVAL ( #432, ( #256 ) ) ;
#450 =( NAMED_UNIT ( * ) PLANE_ANGLE_UNIT ( ) SI_UNIT ( $, .RADIAN. ) );
#451 = VERTEX_POINT ( 'NONE', #78 ) ;
#452 = CARTESIAN_POINT ( 'NONE',  ( 43.87482193696060051, 10.00000000000000000, 0.000000000000000000 ) ) ;
#453 = ORIENTED_EDGE ( 'NONE', *, *, #341, .T. ) ;
#454 = VECTOR ( 'NONE', #176, 1000.000000000000000 ) ;
#455 = COORDINATED_UNIVERSAL_TIME_OFFSET ( 8, 0, .AHEAD. ) ;
#456 = ORIENTED_EDGE ( 'NONE', *, *, #3, .F. ) ;
#457 = CC_DESIGN_APPROVAL ( #265, ( #323 ) ) ;
#458 = ORIENTED_EDGE ( 'NONE', *, *, #44, .T. ) ;
#459 = CARTESIAN_POINT ( 'NONE',  ( 0.000000000000000000, 0.000000000000000000, 0.000000000000000000 ) ) ;
#460 = EDGE_CURVE ( 'NONE', #462, #68, #528, .T. ) ;
#461 = CALENDAR_DATE ( 2026, 10, 4 ) ;
#462 = VERTEX_POINT ( 'NONE', #178 ) ;
#463 = CARTESIAN_POINT ( 'NONE',  ( -90.00000000000000000, -10.00000000000000000, 0.000000000000000000 ) ) ;
#464 = EDGE_LOOP ( 'NONE', ( #552, #74, #382, #172, #378, #261 ) ) ;
#465 = DIRECTION ( 'NONE',  ( 0.000000000000000000, 1.000000000000000000, 0.000000000000000000 ) ) ;
#466 = ORIENTED_EDGE ( 'NONE', *, *, #504, .T. ) ;
#467 = EDGE_CURVE ( 'NONE', #115, #505, #350, .T. ) ;
#468 = VECTOR ( 'NONE', #269, 1000.000000000000000 ) ;
#469 = ADVANCED_FACE ( 'NONE', ( #310, #473 ), #88, .T. ) ;
#470 = AXIS2_PLACEMENT_3D ( 'NONE', #416, #150, #59 ) ;
#471 = LINE ( 'NONE', #560, #395 ) ;
#472 = CARTESIAN_POINT ( 'NONE',  ( 35.00000000000000000, 0.000000000000000000, 125.0000000000000000 ) ) ;
#473 = FACE_OUTER_BOUND ( 'NONE', #376, .T. ) ;
#474 = DIRECTION ( 'NONE',  ( 0.000000000000000000, 0.000000000000000000, -1.000000000000000000 ) ) ;
#475 = CARTESIAN_POINT ( 'NONE',  ( 0.000000000000000000, 0.000000000000000000, 125.0000000000000000 ) ) ;
#476 = DIRECTION ( 'NONE',  ( 0.000000000000000000, 0.000000000000000000, -1.000000000000000000 ) ) ;
#477 = PRODUCT_DEFINITION_SHAPE ( 'NONE', 'NONE',  #317 ) ;
#478 = AXIS2_PLACEMENT_3D ( 'NONE', #20, #66, #250 ) ;
#479 = VERTEX_POINT ( 'NONE', #320 ) ;
#480 = ADVANCED_FACE ( 'NONE', ( #46 ), #8, .T. ) ;
#481 = DIRECTION ( 'NONE',  ( -1.000000000000000000, 0.000000000000000000, 0.000000000000000000 ) ) ;
#482 = ADVANCED_FACE ( 'NONE', ( #483 ), #95, .F. ) ;
#483 = FACE_OUTER_BOUND ( 'NONE', #97, .T. ) ;
#484 = DIRECTION ( 'NONE',  ( -1.000000000000000000, 0.000000000000000000, 0.000000000000000000 ) ) ;
#485 = AXIS2_PLACEMENT_3D ( 'NONE', #278, #239, #543 ) ;
#486 = DIRECTION ( 'NONE',  ( -1.000000000000000000, 0.000000000000000000, 0.000000000000000000 ) ) ;
#487 = DIRECTION ( 'NONE',  ( 0.000000000000000000, 0.000000000000000000, -1.000000000000000000 ) ) ;
#488 = AXIS2_PLACEMENT_3D ( 'NONE', #279, #486, #282 ) ;
#489 = PERSON_AND_ORGANIZATION_ROLE ( 'design_supplier' ) ;
#490 = ADVANCED_FACE ( 'NONE', ( #54 ), #238, .F. ) ;
#491 = DIRECTION ( 'NONE',  ( 0.000000000000000000, 0.000000000000000000, 1.000000000000000000 ) ) ;
#492 = FACE_OUTER_BOUND ( 'NONE', #493, .T. ) ;
#493 = EDGE_LOOP ( 'NONE', ( #135, #412, #206, #338, #458, #209 ) ) ;
#494 = CARTESIAN_POINT ( 'NONE',  ( -90.00000000000000000, -10.00000000000000000, -11.27016653792585998 ) ) ;
#495 = FACE_BOUND ( 'NONE', #22, .T. ) ;
#496 = APPROVAL_ROLE ( '' ) ;
#497 = PERSON_AND_ORGANIZATION ( #39, #203 ) ;
#498 = CARTESIAN_POINT ( 'NONE',  ( 90.00000000000000000, 10.00000000000000000, -11.27016653792584044 ) ) ;
#499 = VECTOR ( 'NONE', #321, 1000.000000000000000 ) ;
#500 = VECTOR ( 'NONE', #308, 1000.000000000000000 ) ;
#501 = EDGE_CURVE ( 'NONE', #346, #505, #431, .T. ) ;
#502 = FACE_OUTER_BOUND ( 'NONE', #374, .T. ) ;
#503 = VERTEX_POINT ( 'NONE', #324 ) ;
#504 = EDGE_CURVE ( 'NONE', #451, #445, #241, .T. ) ;
#505 = VERTEX_POINT ( 'NONE', #494 ) ;
#506 = APPROVAL_ROLE ( '' ) ;
#507 = ORIENTED_EDGE ( 'NONE', *, *, #191, .T. ) ;
#508 = EDGE_LOOP ( 'NONE', ( #196, #514, #305, #81 ) ) ;
#509 = VERTEX_POINT ( 'NONE', #194 ) ;
#510 = VECTOR ( 'NONE', #62, 1000.000000000000000 ) ;
#511 = FACE_OUTER_BOUND ( 'NONE', #464, .T. ) ;
#512 = ORIENTED_EDGE ( 'NONE', *, *, #10, .T. ) ;
#513 = CARTESIAN_POINT ( 'NONE',  ( -35.00000000000000000, 4.286263797015736496E-15, 125.0000000000000000 ) ) ;
#514 = ORIENTED_EDGE ( 'NONE', *, *, #336, .T. ) ;
#515 = DIRECTION ( 'NONE',  ( 1.000000000000000000, 0.000000000000000000, 0.000000000000000000 ) ) ;
#516 = LINE ( 'NONE', #393, #146 ) ;
#517 = AXIS2_PLACEMENT_3D ( 'NONE', #21, #199, #331 ) ;
#518 = AXIS2_PLACEMENT_3D ( 'NONE', #272, #465, #550 ) ;
#519 = AXIS2_PLACEMENT_3D ( 'NONE', #537, #491, #288 ) ;
#520 = CARTESIAN_POINT ( 'NONE',  ( 90.00000000000000000, -10.00000000000000000, -11.27016653792585998 ) ) ;
#521 = DIRECTION ( 'NONE',  ( -1.000000000000000000, 0.000000000000000000, 0.000000000000000000 ) ) ;
#522 = ADVANCED_BREP_SHAPE_REPRESENTATION ( 'piston-kazan_\X2\9ed88ba4\X0\_sldprt', ( #553, #478 ), #51 ) ;
#523 = PRODUCT ( 'piston-kazan_\X2\9ed88ba4\X0\_sldprt', 'piston-kazan_\X2\9ed88ba4\X0\_sldprt', '', ( #163 ) ) ;
#524 = DIRECTION ( 'NONE',  ( 1.000000000000000000, 0.000000000000000000, 0.000000000000000000 ) ) ;
#525 = EDGE_CURVE ( 'NONE', #479, #442, #24, .T. ) ;
#526 = DIRECTION ( 'NONE',  ( 0.000000000000000000, 0.000000000000000000, 1.000000000000000000 ) ) ;
#527 = AXIS2_PLACEMENT_3D ( 'NONE', #319, #400, #52 ) ;
#528 = CIRCLE ( 'NONE', #440, 45.00000000000000000 ) ;
#529 = DIRECTION ( 'NONE',  ( 1.000000000000000000, 0.000000000000000000, 0.000000000000000000 ) ) ;
#530 = DIRECTION ( 'NONE',  ( 0.000000000000000000, 0.000000000000000000, 1.000000000000000000 ) ) ;
#531 = LINE ( 'NONE', #13, #322 ) ;
#532 = CARTESIAN_POINT ( 'NONE',  ( -35.00000000000000000, 4.286263797015736496E-15, 725.0000000000000000 ) ) ;
#533 = EDGE_LOOP ( 'NONE', ( #375, #208, #53, #254 ) ) ;
#534 = CARTESIAN_POINT ( 'NONE',  ( 90.00000000000000000, 0.000000000000000000, -50.00000000000000000 ) ) ;
#535 = CARTESIAN_POINT ( 'NONE',  ( 0.000000000000000000, 0.000000000000000000, 125.0000000000000000 ) ) ;
#536 = VERTEX_POINT ( 'NONE', #452 ) ;
#537 = CARTESIAN_POINT ( 'NONE',  ( 0.000000000000000000, 0.000000000000000000, 725.0000000000000000 ) ) ;
#538 = FACE_OUTER_BOUND ( 'NONE', #284, .T. ) ;
#539 = ORIENTED_EDGE ( 'NONE', *, *, #325, .T. ) ;
#540 = VERTEX_POINT ( 'NONE', #105 ) ;
#541 = EDGE_CURVE ( 'NONE', #296, #56, #162, .T. ) ;
#542 = APPROVAL_STATUS ( 'not_yet_approved' ) ;
#543 = DIRECTION ( 'NONE',  ( 0.000000000000000000, 0.000000000000000000, -1.000000000000000000 ) ) ;
#544 = ORIENTED_EDGE ( 'NONE', *, *, #85, .F. ) ;
#545 = ORIENTED_EDGE ( 'NONE', *, *, #85, .T. ) ;
#546 = ORIENTED_EDGE ( 'NONE', *, *, #210, .F. ) ;
#547 = LINE ( 'NONE', #421, #468 ) ;
#548 = APPROVAL_DATE_TIME ( #249, #265 ) ;
#549 = ORIENTED_EDGE ( 'NONE', *, *, #253, .T. ) ;
#550 = DIRECTION ( 'NONE',  ( 0.000000000000000000, 0.000000000000000000, 1.000000000000000000 ) ) ;
#551 = CALENDAR_DATE ( 2026, 10, 4 ) ;
#552 = ORIENTED_EDGE ( 'NONE', *, *, #501, .T. ) ;
#553 = MANIFOLD_SOLID_BREP ( '输入1', #392 ) ;
#554 = ADVANCED_FACE ( 'NONE', ( #198 ), #377, .F. ) ;
#555 = DIRECTION ( 'NONE',  ( -1.000000000000000000, 0.000000000000000000, 0.000000000000000000 ) ) ;
#556 = ORIENTED_EDGE ( 'NONE', *, *, #44, .F. ) ;
#557 = LINE ( 'NONE', #513, #234 ) ;
#558 = CARTESIAN_POINT ( 'NONE',  ( 90.00000000000000000, 10.00000000000000000, 0.000000000000000000 ) ) ;
#559 = ORIENTED_EDGE ( 'NONE', *, *, #525, .F. ) ;
#560 = CARTESIAN_POINT ( 'NONE',  ( 90.00000000000000000, -10.00000000000000000, 0.000000000000000000 ) ) ;
#561 = CIRCLE ( 'NONE', #133, 45.00000000000000000 ) ;
#562 = ADVANCED_FACE ( 'NONE', ( #502 ), #70, .F. ) ;
#563 = LOCAL_TIME ( 15, 3, 36.00000000000000000, #422 ) ;
ENDSEC;
END-ISO-10303-21;
