ISO-10303-21;
HEADER;
FILE_DESCRIPTION (( 'STEP AP203' ),
    '1' );
FILE_NAME ('piston-rod_默认_sldprt.STEP',
    '2026-04-10T07:03:37',
    ( '' ),
    ( '' ),
    'SwSTEP 2.0',
    'SolidWorks 2022',
    '' );
FILE_SCHEMA (( 'CONFIG_CONTROL_DESIGN' ));
ENDSEC;

DATA;
#1 = ORIENTED_EDGE ( 'NONE', *, *, #300, .F. ) ;
#2 =( NAMED_UNIT ( * ) SI_UNIT ( $, .STERADIAN. ) SOLID_ANGLE_UNIT ( ) );
#3 = DIRECTION ( 'NONE',  ( 1.000000000000000000, 0.000000000000000000, 0.000000000000000000 ) ) ;
#4 = CALENDAR_DATE ( 2026, 10, 4 ) ;
#5 = APPROVAL_DATE_TIME ( #365, #111 ) ;
#6 = CARTESIAN_POINT ( 'NONE',  ( -35.00000000000000000, 0.000000000000000000, 600.0000000000000000 ) ) ;
#7 = EDGE_LOOP ( 'NONE', ( #372, #407 ) ) ;
#8 = ORIENTED_EDGE ( 'NONE', *, *, #153, .F. ) ;
#9 = ORIENTED_EDGE ( 'NONE', *, *, #517, .F. ) ;
#10 = ADVANCED_BREP_SHAPE_REPRESENTATION ( 'piston-rod_\X2\9ed88ba4\X0\_sldprt', ( #47, #71 ), #82 ) ;
#11 = CARTESIAN_POINT ( 'NONE',  ( 0.000000000000000000, 60.00000000000000000, -80.00000000000000000 ) ) ;
#12 = CIRCLE ( 'NONE', #70, 40.00000000000000000 ) ;
#13 = FACE_OUTER_BOUND ( 'NONE', #49, .T. ) ;
#14 = LINE ( 'NONE', #174, #149 ) ;
#15 = ORIENTED_EDGE ( 'NONE', *, *, #340, .T. ) ;
#16 = DIRECTION ( 'NONE',  ( 0.000000000000000000, 0.000000000000000000, 1.000000000000000000 ) ) ;
#17 = DIRECTION ( 'NONE',  ( 0.000000000000000000, -1.000000000000000000, 0.000000000000000000 ) ) ;
#18 = CARTESIAN_POINT ( 'NONE',  ( 0.000000000000000000, 0.000000000000000000, 600.0000000000000000 ) ) ;
#19 = AXIS2_PLACEMENT_3D ( 'NONE', #179, #297, #452 ) ;
#20 = APPROVAL_PERSON_ORGANIZATION ( #121, #111, #85 ) ;
#21 = FACE_OUTER_BOUND ( 'NONE', #257, .T. ) ;
#22 = CARTESIAN_POINT ( 'NONE',  ( 0.000000000000000000, 60.00000000000000000, -50.00000000000000000 ) ) ;
#23 = DIRECTION ( 'NONE',  ( 1.000000000000000000, 0.000000000000000000, 0.000000000000000000 ) ) ;
#24 = VECTOR ( 'NONE', #492, 1000.000000000000000 ) ;
#25 = AXIS2_PLACEMENT_3D ( 'NONE', #304, #270, #102 ) ;
#26 = DIRECTION ( 'NONE',  ( -1.000000000000000000, 0.000000000000000000, 0.000000000000000000 ) ) ;
#27 = EDGE_LOOP ( 'NONE', ( #404, #42, #91, #83, #204, #162 ) ) ;
#28 = APPLICATION_PROTOCOL_DEFINITION ( 'international standard', 'config_control_design', 1994, #185 ) ;
#29 = DIRECTION ( 'NONE',  ( -1.000000000000000000, 0.000000000000000000, 0.000000000000000000 ) ) ;
#30 = DATE_AND_TIME ( #155, #475 ) ;
#31 = EDGE_CURVE ( 'NONE', #207, #487, #329, .T. ) ;
#32 = DIRECTION ( 'NONE',  ( 0.000000000000000000, 1.000000000000000000, 0.000000000000000000 ) ) ;
#33 = ADVANCED_FACE ( 'NONE', ( #13 ), #146, .T. ) ;
#34 = LINE ( 'NONE', #428, #108 ) ;
#35 = CC_DESIGN_PERSON_AND_ORGANIZATION_ASSIGNMENT ( #364, #400, ( #342 ) ) ;
#36 = AXIS2_PLACEMENT_3D ( 'NONE', #18, #460, #269 ) ;
#37 = AXIS2_PLACEMENT_3D ( 'NONE', #127, #362, #281 ) ;
#38 = DIRECTION ( 'NONE',  ( 0.000000000000000000, -1.000000000000000000, 0.000000000000000000 ) ) ;
#39 = PERSON_AND_ORGANIZATION ( #478, #518 ) ;
#40 = ORIENTED_EDGE ( 'NONE', *, *, #140, .F. ) ;
#41 = DATE_TIME_ROLE ( 'creation_date' ) ;
#42 = ORIENTED_EDGE ( 'NONE', *, *, #505, .F. ) ;
#43 = UNCERTAINTY_MEASURE_WITH_UNIT (LENGTH_MEASURE( 1.000000000000000082E-05 ), #283, 'distance_accuracy_value', 'NONE');
#44 = VECTOR ( 'NONE', #17, 1000.000000000000000 ) ;
#45 = LOCAL_TIME ( 15, 3, 37.00000000000000000, #311 ) ;
#46 = ORIENTED_EDGE ( 'NONE', *, *, #470, .T. ) ;
#47 = MANIFOLD_SOLID_BREP ( '输入1', #419 ) ;
#48 = PLANE ( 'NONE',  #97 ) ;
#49 = EDGE_LOOP ( 'NONE', ( #93, #79 ) ) ;
#50 = EDGE_CURVE ( 'NONE', #333, #55, #12, .T. ) ;
#51 = CARTESIAN_POINT ( 'NONE',  ( 0.000000000000000000, 0.000000000000000000, 0.000000000000000000 ) ) ;
#52 = VERTEX_POINT ( 'NONE', #187 ) ;
#53 = LINE ( 'NONE', #384, #178 ) ;
#54 = VECTOR ( 'NONE', #38, 1000.000000000000000 ) ;
#55 = VERTEX_POINT ( 'NONE', #498 ) ;
#56 = CARTESIAN_POINT ( 'NONE',  ( 35.00000000000000000, 4.286263797015736496E-15, 600.0000000000000000 ) ) ;
#57 = CARTESIAN_POINT ( 'NONE',  ( -10.00000000000000000, 60.00000000000000000, -6.429395695523610266E-15 ) ) ;
#58 = PRODUCT_DEFINITION ( '未知', '', #342, #427 ) ;
#59 = CARTESIAN_POINT ( 'NONE',  ( 10.00000000000000000, 60.00000000000000000, -6.429395695523610266E-15 ) ) ;
#60 = CIRCLE ( 'NONE', #132, 30.00000000000000000 ) ;
#61 = AXIS2_PLACEMENT_3D ( 'NONE', #508, #466, #339 ) ;
#62 = PLANE ( 'NONE',  #463 ) ;
#63 = ADVANCED_FACE ( 'NONE', ( #98, #177 ), #348, .T. ) ;
#64 = FACE_OUTER_BOUND ( 'NONE', #241, .T. ) ;
#65 = ADVANCED_FACE ( 'NONE', ( #262 ), #510, .F. ) ;
#66 = DIRECTION ( 'NONE',  ( 1.000000000000000000, 0.000000000000000000, 0.000000000000000000 ) ) ;
#67 = LINE ( 'NONE', #112, #124 ) ;
#68 = ORIENTED_EDGE ( 'NONE', *, *, #100, .T. ) ;
#69 = DIRECTION ( 'NONE',  ( 1.000000000000000000, 0.000000000000000000, 0.000000000000000000 ) ) ;
#70 = AXIS2_PLACEMENT_3D ( 'NONE', #418, #421, #456 ) ;
#71 = AXIS2_PLACEMENT_3D ( 'NONE', #74, #285, #69 ) ;
#72 = CARTESIAN_POINT ( 'NONE',  ( 10.00000000000000000, 60.00000000000000000, -6.429395695523610266E-15 ) ) ;
#73 = ORIENTED_EDGE ( 'NONE', *, *, #429, .T. ) ;
#74 = CARTESIAN_POINT ( 'NONE',  ( 0.000000000000000000, 0.000000000000000000, 0.000000000000000000 ) ) ;
#75 = DIRECTION ( 'NONE',  ( 0.000000000000000000, 0.000000000000000000, -1.000000000000000000 ) ) ;
#76 = VERTEX_POINT ( 'NONE', #467 ) ;
#77 = DATE_AND_TIME ( #320, #369 ) ;
#78 = FACE_OUTER_BOUND ( 'NONE', #195, .T. ) ;
#79 = ORIENTED_EDGE ( 'NONE', *, *, #300, .T. ) ;
#80 = PRODUCT_DEFINITION_SHAPE ( 'NONE', 'NONE',  #58 ) ;
#81 = VECTOR ( 'NONE', #455, 1000.000000000000000 ) ;
#82 =( GEOMETRIC_REPRESENTATION_CONTEXT ( 3 ) GLOBAL_UNCERTAINTY_ASSIGNED_CONTEXT ( ( #43 ) ) GLOBAL_UNIT_ASSIGNED_CONTEXT ( ( #283, #194, #2 ) ) REPRESENTATION_CONTEXT ( 'NONE', 'WORKASPACE' ) );
#83 = ORIENTED_EDGE ( 'NONE', *, *, #31, .T. ) ;
#84 = APPROVAL_STATUS ( 'not_yet_approved' ) ;
#85 = APPROVAL_ROLE ( '' ) ;
#86 = ORIENTED_EDGE ( 'NONE', *, *, #130, .F. ) ;
#87 = CARTESIAN_POINT ( 'NONE',  ( 10.00000000000000000, -33.54101966249685063, -6.429395695523610266E-15 ) ) ;
#88 = ORIENTED_EDGE ( 'NONE', *, *, #430, .T. ) ;
#89 = AXIS2_PLACEMENT_3D ( 'NONE', #374, #334, #381 ) ;
#90 = ADVANCED_FACE ( 'NONE', ( #402 ), #485, .F. ) ;
#91 = ORIENTED_EDGE ( 'NONE', *, *, #260, .F. ) ;
#92 = CARTESIAN_POINT ( 'NONE',  ( 0.000000000000000000, 0.000000000000000000, 600.0000000000000000 ) ) ;
#93 = ORIENTED_EDGE ( 'NONE', *, *, #371, .T. ) ;
#94 = CARTESIAN_POINT ( 'NONE',  ( 0.000000000000000000, 60.00000000000000000, -50.00000000000000000 ) ) ;
#95 = ORIENTED_EDGE ( 'NONE', *, *, #164, .F. ) ;
#96 = CYLINDRICAL_SURFACE ( 'NONE', #341, 35.00000000000000000 ) ;
#97 = AXIS2_PLACEMENT_3D ( 'NONE', #488, #209, #398 ) ;
#98 = FACE_OUTER_BOUND ( 'NONE', #335, .T. ) ;
#99 = CC_DESIGN_APPROVAL ( #506, ( #58 ) ) ;
#100 = EDGE_CURVE ( 'NONE', #175, #126, #473, .T. ) ;
#101 = DIRECTION ( 'NONE',  ( 0.000000000000000000, 0.000000000000000000, 1.000000000000000000 ) ) ;
#102 = DIRECTION ( 'NONE',  ( 0.000000000000000000, 0.000000000000000000, 1.000000000000000000 ) ) ;
#103 = EDGE_CURVE ( 'NONE', #52, #175, #14, .T. ) ;
#104 = CARTESIAN_POINT ( 'NONE',  ( -10.00000000000000000, -60.00000000000000000, -6.429395695523610266E-15 ) ) ;
#105 = PRODUCT_RELATED_PRODUCT_CATEGORY ( 'detail', '', ( #213 ) ) ;
#106 = CARTESIAN_POINT ( 'NONE',  ( 0.000000000000000000, 0.000000000000000000, 600.0000000000000000 ) ) ;
#107 = CIRCLE ( 'NONE', #115, 30.00000000000000000 ) ;
#108 = VECTOR ( 'NONE', #114, 1000.000000000000000 ) ;
#109 = DIRECTION ( 'NONE',  ( 1.000000000000000000, 0.000000000000000000, 0.000000000000000000 ) ) ;
#110 = CARTESIAN_POINT ( 'NONE',  ( 0.000000000000000000, -60.00000000000000000, -50.00000000000000000 ) ) ;
#111 = APPROVAL ( #440, '未指定' ) ;
#112 = CARTESIAN_POINT ( 'NONE',  ( -10.00000000000000000, 60.00000000000000000, -11.27016653792580136 ) ) ;
#113 = ORIENTED_EDGE ( 'NONE', *, *, #356, .T. ) ;
#114 = DIRECTION ( 'NONE',  ( 0.000000000000000000, -1.000000000000000000, 0.000000000000000000 ) ) ;
#115 = AXIS2_PLACEMENT_3D ( 'NONE', #234, #145, #347 ) ;
#116 = ADVANCED_FACE ( 'NONE', ( #21 ), #495, .F. ) ;
#117 = FACE_OUTER_BOUND ( 'NONE', #330, .T. ) ;
#118 = PERSON_AND_ORGANIZATION ( #478, #518 ) ;
#119 = ORIENTED_EDGE ( 'NONE', *, *, #422, .T. ) ;
#120 = APPROVAL_ROLE ( '' ) ;
#121 = PERSON_AND_ORGANIZATION ( #478, #518 ) ;
#122 = ORIENTED_EDGE ( 'NONE', *, *, #232, .T. ) ;
#123 = PERSON_AND_ORGANIZATION ( #478, #518 ) ;
#124 = VECTOR ( 'NONE', #231, 1000.000000000000000 ) ;
#125 = PERSON_AND_ORGANIZATION_ROLE ( 'classification_officer' ) ;
#126 = VERTEX_POINT ( 'NONE', #259 ) ;
#127 = CARTESIAN_POINT ( 'NONE',  ( 0.000000000000000000, 0.000000000000000000, 0.000000000000000000 ) ) ;
#128 = ORIENTED_EDGE ( 'NONE', *, *, #312, .T. ) ;
#129 = DIRECTION ( 'NONE',  ( 0.000000000000000000, 0.000000000000000000, -1.000000000000000000 ) ) ;
#130 = EDGE_CURVE ( 'NONE', #173, #441, #497, .T. ) ;
#131 = ORIENTED_EDGE ( 'NONE', *, *, #50, .T. ) ;
#132 = AXIS2_PLACEMENT_3D ( 'NONE', #388, #32, #395 ) ;
#133 = CC_DESIGN_DATE_AND_TIME_ASSIGNMENT ( #30, #41, ( #58 ) ) ;
#134 = CIRCLE ( 'NONE', #25, 40.00000000000000000 ) ;
#135 = DIRECTION ( 'NONE',  ( 0.000000000000000000, 0.000000000000000000, 1.000000000000000000 ) ) ;
#136 = ORIENTED_EDGE ( 'NONE', *, *, #451, .F. ) ;
#137 = DIRECTION ( 'NONE',  ( 0.000000000000000000, 0.000000000000000000, 1.000000000000000000 ) ) ;
#138 = EDGE_LOOP ( 'NONE', ( #1, #290, #276, #298, #68, #327 ) ) ;
#139 = LINE ( 'NONE', #414, #502 ) ;
#140 = EDGE_CURVE ( 'NONE', #333, #363, #172, .T. ) ;
#141 = DIRECTION ( 'NONE',  ( 0.000000000000000000, 0.000000000000000000, -1.000000000000000000 ) ) ;
#142 = VECTOR ( 'NONE', #296, 1000.000000000000000 ) ;
#143 = CC_DESIGN_PERSON_AND_ORGANIZATION_ASSIGNMENT ( #391, #394, ( #213 ) ) ;
#144 = CARTESIAN_POINT ( 'NONE',  ( 10.00000000000000000, 60.00000000000000000, -11.27016653792580136 ) ) ;
#145 = DIRECTION ( 'NONE',  ( 0.000000000000000000, 1.000000000000000000, 0.000000000000000000 ) ) ;
#146 = PLANE ( 'NONE',  #36 ) ;
#147 = FACE_BOUND ( 'NONE', #444, .T. ) ;
#148 = CARTESIAN_POINT ( 'NONE',  ( -10.00000000000000000, 60.00000000000000000, -6.429395695523610266E-15 ) ) ;
#149 = VECTOR ( 'NONE', #462, 1000.000000000000000 ) ;
#150 = LOCAL_TIME ( 15, 3, 37.00000000000000000, #289 ) ;
#151 = DIRECTION ( 'NONE',  ( 0.000000000000000000, -1.000000000000000000, 0.000000000000000000 ) ) ;
#152 = CARTESIAN_POINT ( 'NONE',  ( 0.000000000000000000, -60.00000000000000000, -50.00000000000000000 ) ) ;
#153 = EDGE_CURVE ( 'NONE', #235, #487, #446, .T. ) ;
#154 = ORIENTED_EDGE ( 'NONE', *, *, #226, .T. ) ;
#155 = CALENDAR_DATE ( 2026, 10, 4 ) ;
#156 = CARTESIAN_POINT ( 'NONE',  ( 0.000000000000000000, 60.00000000000000000, -90.00000000000000000 ) ) ;
#157 = ORIENTED_EDGE ( 'NONE', *, *, #422, .F. ) ;
#158 = DATE_AND_TIME ( #4, #45 ) ;
#159 = AXIS2_PLACEMENT_3D ( 'NONE', #148, #3, #349 ) ;
#160 = LOCAL_TIME ( 15, 3, 37.00000000000000000, #396 ) ;
#161 = ORIENTED_EDGE ( 'NONE', *, *, #430, .F. ) ;
#162 = ORIENTED_EDGE ( 'NONE', *, *, #217, .T. ) ;
#163 = APPROVAL_ROLE ( '' ) ;
#164 = EDGE_CURVE ( 'NONE', #175, #483, #176, .T. ) ;
#165 = APPROVAL_DATE_TIME ( #158, #506 ) ;
#166 = VECTOR ( 'NONE', #183, 1000.000000000000000 ) ;
#167 = FACE_OUTER_BOUND ( 'NONE', #247, .T. ) ;
#168 = VERTEX_POINT ( 'NONE', #56 ) ;
#169 = VERTEX_POINT ( 'NONE', #11 ) ;
#170 = ORIENTED_EDGE ( 'NONE', *, *, #140, .T. ) ;
#171 = AXIS2_PLACEMENT_3D ( 'NONE', #431, #313, #307 ) ;
#172 = LINE ( 'NONE', #417, #44 ) ;
#173 = VERTEX_POINT ( 'NONE', #219 ) ;
#174 = CARTESIAN_POINT ( 'NONE',  ( -10.00000000000000000, 60.00000000000000000, -6.429395695523610266E-15 ) ) ;
#175 = VERTEX_POINT ( 'NONE', #303 ) ;
#176 = LINE ( 'NONE', #57, #166 ) ;
#177 = FACE_BOUND ( 'NONE', #7, .T. ) ;
#178 = VECTOR ( 'NONE', #215, 1000.000000000000000 ) ;
#179 = CARTESIAN_POINT ( 'NONE',  ( 0.000000000000000000, 0.000000000000000000, 0.000000000000000000 ) ) ;
#180 = CIRCLE ( 'NONE', #197, 40.00000000000000000 ) ;
#181 = DIRECTION ( 'NONE',  ( 0.000000000000000000, 0.000000000000000000, 1.000000000000000000 ) ) ;
#182 = EDGE_CURVE ( 'NONE', #212, #333, #180, .T. ) ;
#183 = DIRECTION ( 'NONE',  ( 0.000000000000000000, -1.000000000000000000, 0.000000000000000000 ) ) ;
#184 = CC_DESIGN_PERSON_AND_ORGANIZATION_ASSIGNMENT ( #123, #125, ( #377 ) ) ;
#185 = APPLICATION_CONTEXT ( 'configuration controlled 3d designs of mechanical parts and assemblies' ) ;
#186 = CYLINDRICAL_SURFACE ( 'NONE', #205, 30.00000000000000000 ) ;
#187 = CARTESIAN_POINT ( 'NONE',  ( -10.00000000000000000, 60.00000000000000000, -6.429395695523610266E-15 ) ) ;
#188 = CARTESIAN_POINT ( 'NONE',  ( 10.00000000000000000, -60.00000000000000000, -11.27016653792580136 ) ) ;
#189 = AXIS2_PLACEMENT_3D ( 'NONE', #193, #26, #191 ) ;
#190 = DIRECTION ( 'NONE',  ( 0.000000000000000000, -1.000000000000000000, 0.000000000000000000 ) ) ;
#191 = DIRECTION ( 'NONE',  ( 0.000000000000000000, 0.000000000000000000, 1.000000000000000000 ) ) ;
#192 = APPROVAL_STATUS ( 'not_yet_approved' ) ;
#193 = CARTESIAN_POINT ( 'NONE',  ( 10.00000000000000000, 60.00000000000000000, -6.429395695523610266E-15 ) ) ;
#194 =( NAMED_UNIT ( * ) PLANE_ANGLE_UNIT ( ) SI_UNIT ( $, .RADIAN. ) );
#195 = EDGE_LOOP ( 'NONE', ( #9, #154, #393, #216 ) ) ;
#196 = DIRECTION ( 'NONE',  ( 0.000000000000000000, 0.000000000000000000, 1.000000000000000000 ) ) ;
#197 = AXIS2_PLACEMENT_3D ( 'NONE', #94, #449, #256 ) ;
#198 = AXIS2_PLACEMENT_3D ( 'NONE', #22, #472, #196 ) ;
#199 = EDGE_LOOP ( 'NONE', ( #40, #280, #310, #119 ) ) ;
#200 = EDGE_CURVE ( 'NONE', #441, #367, #343, .T. ) ;
#201 = CARTESIAN_POINT ( 'NONE',  ( -10.00000000000000000, -60.00000000000000000, -6.429395695523610266E-15 ) ) ;
#202 = ORIENTED_EDGE ( 'NONE', *, *, #499, .T. ) ;
#203 = CARTESIAN_POINT ( 'NONE',  ( 0.000000000000000000, 60.00000000000000000, -80.00000000000000000 ) ) ;
#204 = ORIENTED_EDGE ( 'NONE', *, *, #328, .T. ) ;
#205 = AXIS2_PLACEMENT_3D ( 'NONE', #468, #424, #75 ) ;
#206 = AXIS2_PLACEMENT_3D ( 'NONE', #224, #190, #263 ) ;
#207 = VERTEX_POINT ( 'NONE', #411 ) ;
#208 = CYLINDRICAL_SURFACE ( 'NONE', #352, 39.99999999999999289 ) ;
#209 = DIRECTION ( 'NONE',  ( 0.000000000000000000, 0.000000000000000000, -1.000000000000000000 ) ) ;
#210 = EDGE_LOOP ( 'NONE', ( #136, #375, #282, #202, #361, #379 ) ) ;
#211 = CARTESIAN_POINT ( 'NONE',  ( -35.00000000000000000, 0.000000000000000000, 600.0000000000000000 ) ) ;
#212 = VERTEX_POINT ( 'NONE', #144 ) ;
#213 = PRODUCT ( 'piston-rod_\X2\9ed88ba4\X0\_sldprt', 'piston-rod_\X2\9ed88ba4\X0\_sldprt', '', ( #230 ) ) ;
#214 = AXIS2_PLACEMENT_3D ( 'NONE', #338, #501, #181 ) ;
#215 = DIRECTION ( 'NONE',  ( 0.000000000000000000, -1.000000000000000000, 0.000000000000000000 ) ) ;
#216 = ORIENTED_EDGE ( 'NONE', *, *, #217, .F. ) ;
#217 = EDGE_CURVE ( 'NONE', #447, #367, #265, .T. ) ;
#218 = FACE_OUTER_BOUND ( 'NONE', #138, .T. ) ;
#219 = CARTESIAN_POINT ( 'NONE',  ( -10.00000000000000000, -60.00000000000000000, -11.27016653792580136 ) ) ;
#220 = VECTOR ( 'NONE', #221, 1000.000000000000000 ) ;
#221 = DIRECTION ( 'NONE',  ( 0.000000000000000000, -1.000000000000000000, 0.000000000000000000 ) ) ;
#222 = CC_DESIGN_PERSON_AND_ORGANIZATION_ASSIGNMENT ( #316, #437, ( #58 ) ) ;
#223 = DIRECTION ( 'NONE',  ( 0.000000000000000000, 0.000000000000000000, 1.000000000000000000 ) ) ;
#224 = CARTESIAN_POINT ( 'NONE',  ( 0.000000000000000000, 60.00000000000000000, -50.00000000000000000 ) ) ;
#225 = CARTESIAN_POINT ( 'NONE',  ( 10.00000000000000000, -60.00000000000000000, -6.429395695523610266E-15 ) ) ;
#226 = EDGE_CURVE ( 'NONE', #483, #441, #53, .T. ) ;
#227 = CARTESIAN_POINT ( 'NONE',  ( 0.000000000000000000, 0.000000000000000000, 600.0000000000000000 ) ) ;
#228 = AXIS2_PLACEMENT_3D ( 'NONE', #106, #469, #29 ) ;
#229 = ORIENTED_EDGE ( 'NONE', *, *, #461, .T. ) ;
#230 = MECHANICAL_CONTEXT ( 'NONE', #406, 'mechanical' ) ;
#231 = DIRECTION ( 'NONE',  ( 0.000000000000000000, -1.000000000000000000, 0.000000000000000000 ) ) ;
#232 = EDGE_CURVE ( 'NONE', #55, #52, #344, .T. ) ;
#233 = EDGE_LOOP ( 'NONE', ( #161, #128, #73, #405 ) ) ;
#234 = CARTESIAN_POINT ( 'NONE',  ( 0.000000000000000000, -60.00000000000000000, -50.00000000000000000 ) ) ;
#235 = VERTEX_POINT ( 'NONE', #500 ) ;
#236 = DIRECTION ( 'NONE',  ( 0.000000000000000000, 0.000000000000000000, 1.000000000000000000 ) ) ;
#237 = LINE ( 'NONE', #445, #24 ) ;
#238 = EDGE_LOOP ( 'NONE', ( #284, #86, #450, #157, #390 ) ) ;
#239 = APPROVAL_DATE_TIME ( #77, #308 ) ;
#240 = AXIS2_PLACEMENT_3D ( 'NONE', #227, #223, #109 ) ;
#241 = EDGE_LOOP ( 'NONE', ( #496, #88, #319, #251 ) ) ;
#242 = CALENDAR_DATE ( 2026, 10, 4 ) ;
#243 = ORIENTED_EDGE ( 'NONE', *, *, #103, .T. ) ;
#244 = EDGE_CURVE ( 'NONE', #367, #410, #139, .T. ) ;
#245 = EDGE_CURVE ( 'NONE', #436, #126, #299, .T. ) ;
#246 = LINE ( 'NONE', #408, #387 ) ;
#247 = EDGE_LOOP ( 'NONE', ( #317, #476, #491 ) ) ;
#248 = CIRCLE ( 'NONE', #240, 35.00000000000000000 ) ;
#249 = CIRCLE ( 'NONE', #306, 35.00000000000000000 ) ;
#250 = DIRECTION ( 'NONE',  ( 0.000000000000000000, 0.000000000000000000, 1.000000000000000000 ) ) ;
#251 = ORIENTED_EDGE ( 'NONE', *, *, #429, .F. ) ;
#252 = DIRECTION ( 'NONE',  ( -1.000000000000000000, 0.000000000000000000, 0.000000000000000000 ) ) ;
#253 = ORIENTED_EDGE ( 'NONE', *, *, #130, .T. ) ;
#254 = ADVANCED_FACE ( 'NONE', ( #218 ), #96, .T. ) ;
#255 = DIRECTION ( 'NONE',  ( 0.000000000000000000, 0.000000000000000000, 1.000000000000000000 ) ) ;
#256 = DIRECTION ( 'NONE',  ( 0.000000000000000000, 0.000000000000000000, 1.000000000000000000 ) ) ;
#257 = EDGE_LOOP ( 'NONE', ( #288, #471, #273, #243 ) ) ;
#258 = VECTOR ( 'NONE', #23, 1000.000000000000000 ) ;
#259 = CARTESIAN_POINT ( 'NONE',  ( -35.00000000000000000, 0.000000000000000000, 0.000000000000000000 ) ) ;
#260 = EDGE_CURVE ( 'NONE', #207, #212, #409, .T. ) ;
#261 = DIRECTION ( 'NONE',  ( 1.000000000000000000, 0.000000000000000000, 0.000000000000000000 ) ) ;
#262 = FACE_OUTER_BOUND ( 'NONE', #315, .T. ) ;
#263 = DIRECTION ( 'NONE',  ( 0.000000000000000000, 0.000000000000000000, -1.000000000000000000 ) ) ;
#264 = EDGE_CURVE ( 'NONE', #447, #235, #331, .T. ) ;
#265 = LINE ( 'NONE', #59, #220 ) ;
#266 = ADVANCED_FACE ( 'NONE', ( #279 ), #433, .T. ) ;
#267 = VECTOR ( 'NONE', #507, 1000.000000000000000 ) ;
#268 = CARTESIAN_POINT ( 'NONE',  ( 0.000000000000000000, 0.000000000000000000, 0.000000000000000000 ) ) ;
#269 = DIRECTION ( 'NONE',  ( 1.000000000000000000, 0.000000000000000000, 0.000000000000000000 ) ) ;
#270 = DIRECTION ( 'NONE',  ( 0.000000000000000000, 1.000000000000000000, 0.000000000000000000 ) ) ;
#271 = FACE_OUTER_BOUND ( 'NONE', #27, .T. ) ;
#272 = PLANE ( 'NONE',  #189 ) ;
#273 = ORIENTED_EDGE ( 'NONE', *, *, #401, .F. ) ;
#274 = DIRECTION ( 'NONE',  ( 0.000000000000000000, -1.000000000000000000, 0.000000000000000000 ) ) ;
#275 = DIRECTION ( 'NONE',  ( 0.000000000000000000, 0.000000000000000000, 1.000000000000000000 ) ) ;
#276 = ORIENTED_EDGE ( 'NONE', *, *, #153, .T. ) ;
#277 = DIRECTION ( 'NONE',  ( 1.000000000000000000, 0.000000000000000000, 0.000000000000000000 ) ) ;
#278 = CC_DESIGN_APPROVAL ( #308, ( #342 ) ) ;
#279 = FACE_OUTER_BOUND ( 'NONE', #210, .T. ) ;
#280 = ORIENTED_EDGE ( 'NONE', *, *, #182, .F. ) ;
#281 = DIRECTION ( 'NONE',  ( 1.000000000000000000, 0.000000000000000000, 0.000000000000000000 ) ) ;
#282 = ORIENTED_EDGE ( 'NONE', *, *, #245, .T. ) ;
#283 =( LENGTH_UNIT ( ) NAMED_UNIT ( * ) SI_UNIT ( .MILLI., .METRE. ) );
#284 = ORIENTED_EDGE ( 'NONE', *, *, #200, .F. ) ;
#285 = DIRECTION ( 'NONE',  ( 0.000000000000000000, 0.000000000000000000, 1.000000000000000000 ) ) ;
#286 = AXIS2_PLACEMENT_3D ( 'NONE', #152, #309, #275 ) ;
#287 = CALENDAR_DATE ( 2026, 10, 4 ) ;
#288 = ORIENTED_EDGE ( 'NONE', *, *, #358, .F. ) ;
#289 = COORDINATED_UNIVERSAL_TIME_OFFSET ( 8, 0, .AHEAD. ) ;
#290 = ORIENTED_EDGE ( 'NONE', *, *, #451, .T. ) ;
#291 = FACE_OUTER_BOUND ( 'NONE', #199, .T. ) ;
#292 = LINE ( 'NONE', #203, #54 ) ;
#293 = ORIENTED_EDGE ( 'NONE', *, *, #356, .F. ) ;
#294 = AXIS2_PLACEMENT_3D ( 'NONE', #51, #101, #261 ) ;
#295 = CARTESIAN_POINT ( 'NONE',  ( -10.00000000000000000, -60.00000000000000000, -6.429395695523610266E-15 ) ) ;
#296 = DIRECTION ( 'NONE',  ( 0.000000000000000000, -1.000000000000000000, 0.000000000000000000 ) ) ;
#297 = DIRECTION ( 'NONE',  ( 0.000000000000000000, 0.000000000000000000, 1.000000000000000000 ) ) ;
#298 = ORIENTED_EDGE ( 'NONE', *, *, #358, .T. ) ;
#299 = LINE ( 'NONE', #211, #81 ) ;
#300 = EDGE_CURVE ( 'NONE', #168, #436, #397, .T. ) ;
#301 = CIRCLE ( 'NONE', #198, 30.00000000000000000 ) ;
#302 = CARTESIAN_POINT ( 'NONE',  ( 10.00000000000000000, 60.00000000000000000, -6.429395695523610266E-15 ) ) ;
#303 = CARTESIAN_POINT ( 'NONE',  ( -10.00000000000000000, 33.54101966249685063, -6.429395695523610266E-15 ) ) ;
#304 = CARTESIAN_POINT ( 'NONE',  ( 0.000000000000000000, -60.00000000000000000, -50.00000000000000000 ) ) ;
#305 = LINE ( 'NONE', #72, #267 ) ;
#306 = AXIS2_PLACEMENT_3D ( 'NONE', #515, #236, #277 ) ;
#307 = DIRECTION ( 'NONE',  ( 1.000000000000000000, 0.000000000000000000, 0.000000000000000000 ) ) ;
#308 = APPROVAL ( #84, '未指定' ) ;
#309 = DIRECTION ( 'NONE',  ( 0.000000000000000000, 1.000000000000000000, 0.000000000000000000 ) ) ;
#310 = ORIENTED_EDGE ( 'NONE', *, *, #505, .T. ) ;
#311 = COORDINATED_UNIVERSAL_TIME_OFFSET ( 8, 0, .AHEAD. ) ;
#312 = EDGE_CURVE ( 'NONE', #76, #169, #60, .T. ) ;
#313 = DIRECTION ( 'NONE',  ( 0.000000000000000000, 0.000000000000000000, 1.000000000000000000 ) ) ;
#314 = AXIS2_PLACEMENT_3D ( 'NONE', #415, #137, #380 ) ;
#315 = EDGE_LOOP ( 'NONE', ( #253, #321, #95, #432, #412, #113 ) ) ;
#316 = PERSON_AND_ORGANIZATION ( #478, #518 ) ;
#317 = ORIENTED_EDGE ( 'NONE', *, *, #100, .F. ) ;
#318 = DATE_AND_TIME ( #287, #160 ) ;
#319 = ORIENTED_EDGE ( 'NONE', *, *, #461, .F. ) ;
#320 = CALENDAR_DATE ( 2026, 10, 4 ) ;
#321 = ORIENTED_EDGE ( 'NONE', *, *, #226, .F. ) ;
#322 = ADVANCED_FACE ( 'NONE', ( #357 ), #186, .F. ) ;
#323 = AXIS2_PLACEMENT_3D ( 'NONE', #443, #250, #326 ) ;
#324 = CIRCLE ( 'NONE', #37, 35.00000000000000000 ) ;
#325 = SHAPE_DEFINITION_REPRESENTATION ( #80, #10 ) ;
#326 = DIRECTION ( 'NONE',  ( 1.000000000000000000, 0.000000000000000000, 0.000000000000000000 ) ) ;
#327 = ORIENTED_EDGE ( 'NONE', *, *, #245, .F. ) ;
#328 = EDGE_CURVE ( 'NONE', #487, #447, #305, .T. ) ;
#329 = LINE ( 'NONE', #494, #142 ) ;
#330 = EDGE_LOOP ( 'NONE', ( #479, #170, #46, #293 ) ) ;
#331 = CIRCLE ( 'NONE', #294, 35.00000000000000000 ) ;
#332 = CARTESIAN_POINT ( 'NONE',  ( 0.000000000000000000, 0.000000000000000000, 0.000000000000000000 ) ) ;
#333 = VERTEX_POINT ( 'NONE', #156 ) ;
#334 = DIRECTION ( 'NONE',  ( 0.000000000000000000, 0.000000000000000000, -1.000000000000000000 ) ) ;
#335 = EDGE_LOOP ( 'NONE', ( #514, #354, #490, #131, #122 ) ) ;
#336 = CARTESIAN_POINT ( 'NONE',  ( 0.000000000000000000, 60.00000000000000000, -50.00000000000000000 ) ) ;
#337 = CARTESIAN_POINT ( 'NONE',  ( -10.00000000000000000, 60.00000000000000000, -6.429395695523610266E-15 ) ) ;
#338 = CARTESIAN_POINT ( 'NONE',  ( 0.000000000000000000, 60.00000000000000000, -50.00000000000000000 ) ) ;
#339 = DIRECTION ( 'NONE',  ( 0.000000000000000000, 0.000000000000000000, 1.000000000000000000 ) ) ;
#340 = EDGE_CURVE ( 'NONE', #360, #370, #107, .T. ) ;
#341 = AXIS2_PLACEMENT_3D ( 'NONE', #92, #141, #252 ) ;
#342 = PRODUCT_DEFINITION_FORMATION_WITH_SPECIFIED_SOURCE ( '任何', '', #213, .NOT_KNOWN. ) ;
#343 = LINE ( 'NONE', #104, #368 ) ;
#344 = LINE ( 'NONE', #337, #493 ) ;
#345 = DIRECTION ( 'NONE',  ( 1.000000000000000000, 0.000000000000000000, 0.000000000000000000 ) ) ;
#346 = DIRECTION ( 'NONE',  ( 0.000000000000000000, 0.000000000000000000, -1.000000000000000000 ) ) ;
#347 = DIRECTION ( 'NONE',  ( 0.000000000000000000, 0.000000000000000000, 1.000000000000000000 ) ) ;
#348 = PLANE ( 'NONE',  #214 ) ;
#349 = DIRECTION ( 'NONE',  ( 0.000000000000000000, 0.000000000000000000, -1.000000000000000000 ) ) ;
#350 = AXIS2_PLACEMENT_3D ( 'NONE', #512, #151, #353 ) ;
#351 = LINE ( 'NONE', #386, #258 ) ;
#352 = AXIS2_PLACEMENT_3D ( 'NONE', #336, #274, #346 ) ;
#353 = DIRECTION ( 'NONE',  ( 0.000000000000000000, 0.000000000000000000, -1.000000000000000000 ) ) ;
#354 = ORIENTED_EDGE ( 'NONE', *, *, #260, .T. ) ;
#355 = COORDINATED_UNIVERSAL_TIME_OFFSET ( 8, 0, .AHEAD. ) ;
#356 = EDGE_CURVE ( 'NONE', #55, #173, #67, .T. ) ;
#357 = FACE_OUTER_BOUND ( 'NONE', #233, .T. ) ;
#358 = EDGE_CURVE ( 'NONE', #487, #175, #486, .T. ) ;
#359 = AXIS2_PLACEMENT_3D ( 'NONE', #332, #255, #345 ) ;
#360 = VERTEX_POINT ( 'NONE', #426 ) ;
#361 = ORIENTED_EDGE ( 'NONE', *, *, #517, .T. ) ;
#362 = DIRECTION ( 'NONE',  ( 0.000000000000000000, 0.000000000000000000, 1.000000000000000000 ) ) ;
#363 = VERTEX_POINT ( 'NONE', #392 ) ;
#364 = PERSON_AND_ORGANIZATION ( #478, #518 ) ;
#365 = DATE_AND_TIME ( #242, #150 ) ;
#366 = ADVANCED_FACE ( 'NONE', ( #509, #147 ), #62, .F. ) ;
#367 = VERTEX_POINT ( 'NONE', #225 ) ;
#368 = VECTOR ( 'NONE', #504, 1000.000000000000000 ) ;
#369 = LOCAL_TIME ( 15, 3, 37.00000000000000000, #434 ) ;
#370 = VERTEX_POINT ( 'NONE', #516 ) ;
#371 = EDGE_CURVE ( 'NONE', #436, #168, #248, .T. ) ;
#372 = ORIENTED_EDGE ( 'NONE', *, *, #489, .F. ) ;
#373 = CC_DESIGN_PERSON_AND_ORGANIZATION_ASSIGNMENT ( #39, #484, ( #342 ) ) ;
#374 = CARTESIAN_POINT ( 'NONE',  ( -10.00000000000000000, 60.00000000000000000, -6.429395695523610266E-15 ) ) ;
#375 = ORIENTED_EDGE ( 'NONE', *, *, #371, .F. ) ;
#376 = AXIS2_PLACEMENT_3D ( 'NONE', #268, #420, #66 ) ;
#377 = SECURITY_CLASSIFICATION ( '', '', #403 ) ;
#378 = DIRECTION ( 'NONE',  ( 0.000000000000000000, 0.000000000000000000, -1.000000000000000000 ) ) ;
#379 = ORIENTED_EDGE ( 'NONE', *, *, #264, .T. ) ;
#380 = DIRECTION ( 'NONE',  ( 1.000000000000000000, 0.000000000000000000, 0.000000000000000000 ) ) ;
#381 = DIRECTION ( 'NONE',  ( -1.000000000000000000, 0.000000000000000000, 0.000000000000000000 ) ) ;
#382 = VECTOR ( 'NONE', #16, 1000.000000000000000 ) ;
#383 = APPROVAL_PERSON_ORGANIZATION ( #477, #506, #120 ) ;
#384 = CARTESIAN_POINT ( 'NONE',  ( -10.00000000000000000, 60.00000000000000000, -6.429395695523610266E-15 ) ) ;
#385 = CARTESIAN_POINT ( 'NONE',  ( 10.00000000000000000, 33.54101966249685063, -6.429395695523610266E-15 ) ) ;
#386 = CARTESIAN_POINT ( 'NONE',  ( -10.00000000000000000, 60.00000000000000000, -6.429395695523610266E-15 ) ) ;
#387 = VECTOR ( 'NONE', #129, 1000.000000000000000 ) ;
#388 = CARTESIAN_POINT ( 'NONE',  ( 0.000000000000000000, 60.00000000000000000, -50.00000000000000000 ) ) ;
#389 = ADVANCED_FACE ( 'NONE', ( #271 ), #272, .F. ) ;
#390 = ORIENTED_EDGE ( 'NONE', *, *, #244, .F. ) ;
#391 = PERSON_AND_ORGANIZATION ( #478, #518 ) ;
#392 = CARTESIAN_POINT ( 'NONE',  ( 0.000000000000000000, -60.00000000000000000, -90.00000000000000000 ) ) ;
#393 = ORIENTED_EDGE ( 'NONE', *, *, #200, .T. ) ;
#394 = PERSON_AND_ORGANIZATION_ROLE ( 'design_owner' ) ;
#395 = DIRECTION ( 'NONE',  ( 0.000000000000000000, 0.000000000000000000, 1.000000000000000000 ) ) ;
#396 = COORDINATED_UNIVERSAL_TIME_OFFSET ( 8, 0, .AHEAD. ) ;
#397 = CIRCLE ( 'NONE', #171, 35.00000000000000000 ) ;
#398 = DIRECTION ( 'NONE',  ( -1.000000000000000000, 0.000000000000000000, 0.000000000000000000 ) ) ;
#399 = ORIENTED_EDGE ( 'NONE', *, *, #264, .F. ) ;
#400 = PERSON_AND_ORGANIZATION_ROLE ( 'creator' ) ;
#401 = EDGE_CURVE ( 'NONE', #52, #207, #351, .T. ) ;
#402 = FACE_OUTER_BOUND ( 'NONE', #439, .T. ) ;
#403 = SECURITY_CLASSIFICATION_LEVEL ( 'unclassified' ) ;
#404 = ORIENTED_EDGE ( 'NONE', *, *, #244, .T. ) ;
#405 = ORIENTED_EDGE ( 'NONE', *, *, #340, .F. ) ;
#406 = APPLICATION_CONTEXT ( 'configuration controlled 3d designs of mechanical parts and assemblies' ) ;
#407 = ORIENTED_EDGE ( 'NONE', *, *, #312, .F. ) ;
#408 = CARTESIAN_POINT ( 'NONE',  ( 35.00000000000000000, 4.286263797015736496E-15, 600.0000000000000000 ) ) ;
#409 = LINE ( 'NONE', #302, #457 ) ;
#410 = VERTEX_POINT ( 'NONE', #188 ) ;
#411 = CARTESIAN_POINT ( 'NONE',  ( 10.00000000000000000, 60.00000000000000000, -6.429395695523610266E-15 ) ) ;
#412 = ORIENTED_EDGE ( 'NONE', *, *, #232, .F. ) ;
#413 = ADVANCED_FACE ( 'NONE', ( #117 ), #474, .T. ) ;
#414 = CARTESIAN_POINT ( 'NONE',  ( 10.00000000000000000, -60.00000000000000000, -6.429395695523610266E-15 ) ) ;
#415 = CARTESIAN_POINT ( 'NONE',  ( 0.000000000000000000, 0.000000000000000000, 0.000000000000000000 ) ) ;
#416 = CARTESIAN_POINT ( 'NONE',  ( -10.00000000000000000, -33.54101966249685063, 0.000000000000000000 ) ) ;
#417 = CARTESIAN_POINT ( 'NONE',  ( 0.000000000000000000, 60.00000000000000000, -90.00000000000000000 ) ) ;
#418 = CARTESIAN_POINT ( 'NONE',  ( 0.000000000000000000, 60.00000000000000000, -50.00000000000000000 ) ) ;
#419 = CLOSED_SHELL ( 'NONE', ( #482, #413, #254, #90, #266, #33, #438, #116, #63, #366, #442, #389, #454, #65, #322 ) ) ;
#420 = DIRECTION ( 'NONE',  ( 0.000000000000000000, 0.000000000000000000, 1.000000000000000000 ) ) ;
#421 = DIRECTION ( 'NONE',  ( 0.000000000000000000, 1.000000000000000000, 0.000000000000000000 ) ) ;
#422 = EDGE_CURVE ( 'NONE', #410, #363, #511, .T. ) ;
#423 = CC_DESIGN_DATE_AND_TIME_ASSIGNMENT ( #318, #481, ( #377 ) ) ;
#424 = DIRECTION ( 'NONE',  ( 0.000000000000000000, -1.000000000000000000, 0.000000000000000000 ) ) ;
#425 = CYLINDRICAL_SURFACE ( 'NONE', #206, 30.00000000000000000 ) ;
#426 = CARTESIAN_POINT ( 'NONE',  ( 3.673940397442059178E-15, -60.00000000000000000, -20.00000000000000355 ) ) ;
#427 = DESIGN_CONTEXT ( 'detailed design', #185, 'design' ) ;
#428 = CARTESIAN_POINT ( 'NONE',  ( 10.00000000000000000, 60.00000000000000000, -11.27016653792580136 ) ) ;
#429 = EDGE_CURVE ( 'NONE', #169, #370, #292, .T. ) ;
#430 = EDGE_CURVE ( 'NONE', #76, #360, #237, .T. ) ;
#431 = CARTESIAN_POINT ( 'NONE',  ( 0.000000000000000000, 0.000000000000000000, 600.0000000000000000 ) ) ;
#432 = ORIENTED_EDGE ( 'NONE', *, *, #103, .F. ) ;
#433 = CYLINDRICAL_SURFACE ( 'NONE', #228, 35.00000000000000000 ) ;
#434 = COORDINATED_UNIVERSAL_TIME_OFFSET ( 8, 0, .AHEAD. ) ;
#435 = PLANE ( 'NONE',  #323 ) ;
#436 = VERTEX_POINT ( 'NONE', #6 ) ;
#437 = PERSON_AND_ORGANIZATION_ROLE ( 'creator' ) ;
#438 = ADVANCED_FACE ( 'NONE', ( #167 ), #435, .F. ) ;
#439 = EDGE_LOOP ( 'NONE', ( #453, #8, #399 ) ) ;
#440 = APPROVAL_STATUS ( 'not_yet_approved' ) ;
#441 = VERTEX_POINT ( 'NONE', #201 ) ;
#442 = ADVANCED_FACE ( 'NONE', ( #78 ), #48, .F. ) ;
#443 = CARTESIAN_POINT ( 'NONE',  ( 0.000000000000000000, 0.000000000000000000, 0.000000000000000000 ) ) ;
#444 = EDGE_LOOP ( 'NONE', ( #229, #15 ) ) ;
#445 = CARTESIAN_POINT ( 'NONE',  ( 3.673940397442059178E-15, 60.00000000000000000, -20.00000000000000355 ) ) ;
#446 = CIRCLE ( 'NONE', #19, 35.00000000000000000 ) ;
#447 = VERTEX_POINT ( 'NONE', #87 ) ;
#448 = CC_DESIGN_SECURITY_CLASSIFICATION ( #377, ( #342 ) ) ;
#449 = DIRECTION ( 'NONE',  ( 0.000000000000000000, 1.000000000000000000, 0.000000000000000000 ) ) ;
#450 = ORIENTED_EDGE ( 'NONE', *, *, #470, .F. ) ;
#451 = EDGE_CURVE ( 'NONE', #168, #235, #246, .T. ) ;
#452 = DIRECTION ( 'NONE',  ( 1.000000000000000000, 0.000000000000000000, 0.000000000000000000 ) ) ;
#453 = ORIENTED_EDGE ( 'NONE', *, *, #328, .F. ) ;
#454 = ADVANCED_FACE ( 'NONE', ( #291 ), #208, .T. ) ;
#455 = DIRECTION ( 'NONE',  ( 0.000000000000000000, 0.000000000000000000, -1.000000000000000000 ) ) ;
#456 = DIRECTION ( 'NONE',  ( 0.000000000000000000, 0.000000000000000000, 1.000000000000000000 ) ) ;
#457 = VECTOR ( 'NONE', #459, 1000.000000000000000 ) ;
#458 = CIRCLE ( 'NONE', #61, 30.00000000000000000 ) ;
#459 = DIRECTION ( 'NONE',  ( 0.000000000000000000, 0.000000000000000000, -1.000000000000000000 ) ) ;
#460 = DIRECTION ( 'NONE',  ( 0.000000000000000000, 0.000000000000000000, 1.000000000000000000 ) ) ;
#461 = EDGE_CURVE ( 'NONE', #370, #360, #458, .T. ) ;
#462 = DIRECTION ( 'NONE',  ( 0.000000000000000000, -1.000000000000000000, 0.000000000000000000 ) ) ;
#463 = AXIS2_PLACEMENT_3D ( 'NONE', #110, #465, #513 ) ;
#464 = CC_DESIGN_APPROVAL ( #111, ( #377 ) ) ;
#465 = DIRECTION ( 'NONE',  ( 0.000000000000000000, 1.000000000000000000, 0.000000000000000000 ) ) ;
#466 = DIRECTION ( 'NONE',  ( 0.000000000000000000, 1.000000000000000000, 0.000000000000000000 ) ) ;
#467 = CARTESIAN_POINT ( 'NONE',  ( 3.673940397442059178E-15, 60.00000000000000000, -20.00000000000000355 ) ) ;
#468 = CARTESIAN_POINT ( 'NONE',  ( 0.000000000000000000, 60.00000000000000000, -50.00000000000000000 ) ) ;
#469 = DIRECTION ( 'NONE',  ( 0.000000000000000000, 0.000000000000000000, -1.000000000000000000 ) ) ;
#470 = EDGE_CURVE ( 'NONE', #363, #173, #134, .T. ) ;
#471 = ORIENTED_EDGE ( 'NONE', *, *, #31, .F. ) ;
#472 = DIRECTION ( 'NONE',  ( 0.000000000000000000, 1.000000000000000000, 0.000000000000000000 ) ) ;
#473 = CIRCLE ( 'NONE', #314, 35.00000000000000000 ) ;
#474 = CYLINDRICAL_SURFACE ( 'NONE', #350, 39.99999999999999289 ) ;
#475 = LOCAL_TIME ( 15, 3, 37.00000000000000000, #355 ) ;
#476 = ORIENTED_EDGE ( 'NONE', *, *, #164, .T. ) ;
#477 = PERSON_AND_ORGANIZATION ( #478, #518 ) ;
#478 = PERSON ( '未指定', '未指定', '未指定', ('未指定'), ('未指定'), ('未指定') ) ;
#479 = ORIENTED_EDGE ( 'NONE', *, *, #50, .F. ) ;
#480 = APPLICATION_PROTOCOL_DEFINITION ( 'international standard', 'config_control_design', 1994, #406 ) ;
#481 = DATE_TIME_ROLE ( 'classification_date' ) ;
#482 = ADVANCED_FACE ( 'NONE', ( #64 ), #425, .F. ) ;
#483 = VERTEX_POINT ( 'NONE', #416 ) ;
#484 = PERSON_AND_ORGANIZATION_ROLE ( 'design_supplier' ) ;
#485 = PLANE ( 'NONE',  #359 ) ;
#486 = CIRCLE ( 'NONE', #376, 35.00000000000000000 ) ;
#487 = VERTEX_POINT ( 'NONE', #385 ) ;
#488 = CARTESIAN_POINT ( 'NONE',  ( -10.00000000000000000, 60.00000000000000000, -6.429395695523610266E-15 ) ) ;
#489 = EDGE_CURVE ( 'NONE', #169, #76, #301, .T. ) ;
#490 = ORIENTED_EDGE ( 'NONE', *, *, #182, .T. ) ;
#491 = ORIENTED_EDGE ( 'NONE', *, *, #499, .F. ) ;
#492 = DIRECTION ( 'NONE',  ( 0.000000000000000000, -1.000000000000000000, 0.000000000000000000 ) ) ;
#493 = VECTOR ( 'NONE', #135, 1000.000000000000000 ) ;
#494 = CARTESIAN_POINT ( 'NONE',  ( 10.00000000000000000, 60.00000000000000000, -6.429395695523610266E-15 ) ) ;
#495 = PLANE ( 'NONE',  #89 ) ;
#496 = ORIENTED_EDGE ( 'NONE', *, *, #489, .T. ) ;
#497 = LINE ( 'NONE', #295, #382 ) ;
#498 = CARTESIAN_POINT ( 'NONE',  ( -10.00000000000000000, 60.00000000000000000, -11.27016653792580136 ) ) ;
#499 = EDGE_CURVE ( 'NONE', #126, #483, #324, .T. ) ;
#500 = CARTESIAN_POINT ( 'NONE',  ( 35.00000000000000000, 4.286263797015736496E-15, 0.000000000000000000 ) ) ;
#501 = DIRECTION ( 'NONE',  ( 0.000000000000000000, 1.000000000000000000, 0.000000000000000000 ) ) ;
#502 = VECTOR ( 'NONE', #378, 1000.000000000000000 ) ;
#503 = APPROVAL_PERSON_ORGANIZATION ( #118, #308, #163 ) ;
#504 = DIRECTION ( 'NONE',  ( 1.000000000000000000, 0.000000000000000000, 0.000000000000000000 ) ) ;
#505 = EDGE_CURVE ( 'NONE', #212, #410, #34, .T. ) ;
#506 = APPROVAL ( #192, '未指定' ) ;
#507 = DIRECTION ( 'NONE',  ( 0.000000000000000000, -1.000000000000000000, 0.000000000000000000 ) ) ;
#508 = CARTESIAN_POINT ( 'NONE',  ( 0.000000000000000000, -60.00000000000000000, -50.00000000000000000 ) ) ;
#509 = FACE_OUTER_BOUND ( 'NONE', #238, .T. ) ;
#510 = PLANE ( 'NONE',  #159 ) ;
#511 = CIRCLE ( 'NONE', #286, 40.00000000000000000 ) ;
#512 = CARTESIAN_POINT ( 'NONE',  ( 0.000000000000000000, 60.00000000000000000, -50.00000000000000000 ) ) ;
#513 = DIRECTION ( 'NONE',  ( 0.000000000000000000, 0.000000000000000000, 1.000000000000000000 ) ) ;
#514 = ORIENTED_EDGE ( 'NONE', *, *, #401, .T. ) ;
#515 = CARTESIAN_POINT ( 'NONE',  ( 0.000000000000000000, 0.000000000000000000, 0.000000000000000000 ) ) ;
#516 = CARTESIAN_POINT ( 'NONE',  ( 0.000000000000000000, -60.00000000000000000, -80.00000000000000000 ) ) ;
#517 = EDGE_CURVE ( 'NONE', #483, #447, #249, .T. ) ;
#518 = ORGANIZATION ( '未指定', '未指定', '' ) ;
ENDSEC;
END-ISO-10303-21;
