ISO-10303-21;
HEADER;
FILE_DESCRIPTION (( 'STEP AP203' ),
    '1' );
FILE_NAME ('SHAFT_默认_sldprt.STEP',
    '2026-04-10T07:03:33',
    ( '' ),
    ( '' ),
    'SwSTEP 2.0',
    'SolidWorks 2022',
    '' );
FILE_SCHEMA (( 'CONFIG_CONTROL_DESIGN' ));
ENDSEC;

DATA;
#1 = CARTESIAN_POINT ( 'NONE',  ( 622.3746552403507621, -9.913143528189069187, 28.31615156754977747 ) ) ;
#2 = CARTESIAN_POINT ( 'NONE',  ( 620.6065342160530918, -8.256915987799670731, -28.84316865067041391 ) ) ;
#3 = CARTESIAN_POINT ( 'NONE',  ( 640.1506520217751586, -7.306161754676998576, 29.09881006997220609 ) ) ;
#4 = VECTOR ( 'NONE', #169, 1000.000000000000000 ) ;
#5 = CARTESIAN_POINT ( 'NONE',  ( 618.6203646187741469, -5.188398845779339297, 29.55038544484882124 ) ) ;
#6 = VERTEX_POINT ( 'NONE', #396 ) ;
#7 = CARTESIAN_POINT ( 'NONE',  ( 660.0000000000000000, 0.000000000000000000, 30.00000000000000000 ) ) ;
#8 = EDGE_CURVE ( 'NONE', #289, #490, #73, .T. ) ;
#9 = CARTESIAN_POINT ( 'NONE',  ( 630.0000000000000000, 0.000000000000000000, -30.00000000000000000 ) ) ;
#10 = CARTESIAN_POINT ( 'NONE',  ( 642.5000000000000000, -2.869587368747409809E-15, -30.00000000000000000 ) ) ;
#11 = CARTESIAN_POINT ( 'NONE',  ( 620.0919951670382488, 7.631860932549563437, 29.01481928509673125 ) ) ;
#12 = DIRECTION ( 'NONE',  ( -1.000000000000000000, 0.000000000000000000, 0.000000000000000000 ) ) ;
#13 = CC_DESIGN_PERSON_AND_ORGANIZATION_ASSIGNMENT ( #323, #160, ( #397 ) ) ;
#14 = VECTOR ( 'NONE', #497, 1000.000000000000000 ) ;
#15 = CARTESIAN_POINT ( 'NONE',  ( 640.8314825209469063, 6.292211901160619014, -29.34094507145562503 ) ) ;
#16 = CARTESIAN_POINT ( 'NONE',  ( 627.9312617603499120, -12.33448573145412297, -27.34718275248082264 ) ) ;
#17 = MANIFOLD_SOLID_BREP ( '输入1', #449 ) ;
#18 = CARTESIAN_POINT ( 'NONE',  ( 0.000000000000000000, 0.000000000000000000, 0.000000000000000000 ) ) ;
#19 = EDGE_CURVE ( 'NONE', #328, #479, #471, .T. ) ;
#20 = CARTESIAN_POINT ( 'NONE',  ( 637.6370176433645156, 9.928884525934236649, 28.31340379338247359 ) ) ;
#21 = CARTESIAN_POINT ( 'NONE',  ( 0.000000000000000000, 0.000000000000000000, 0.000000000000000000 ) ) ;
#22 = CARTESIAN_POINT ( 'NONE',  ( 641.2147935991230270, -5.582169940505264272, -29.48619244317346144 ) ) ;
#23 = CARTESIAN_POINT ( 'NONE',  ( 625.9424808006965577, 11.85126131512300418, 27.56199093448438830 ) ) ;
#24 = PERSON_AND_ORGANIZATION_ROLE ( 'design_owner' ) ;
#25 = EDGE_LOOP ( 'NONE', ( #505, #92 ) ) ;
#26 = LOCAL_TIME ( 15, 3, 33.00000000000000000, #504 ) ;
#27 = CARTESIAN_POINT ( 'NONE',  ( 621.7442338651211458, 9.420910545983543827, 28.48873329322621473 ) ) ;
#28 = CARTESIAN_POINT ( 'NONE',  ( 0.000000000000000000, 0.000000000000000000, 0.000000000000000000 ) ) ;
#29 = PERSON_AND_ORGANIZATION_ROLE ( 'creator' ) ;
#30 = COORDINATED_UNIVERSAL_TIME_OFFSET ( 8, 0, .AHEAD. ) ;
#31 = SECURITY_CLASSIFICATION_LEVEL ( 'unclassified' ) ;
#32 = COORDINATED_UNIVERSAL_TIME_OFFSET ( 8, 0, .AHEAD. ) ;
#33 = CARTESIAN_POINT ( 'NONE',  ( 629.1773654594001073, 12.47984838350862624, -27.28104532623418521 ) ) ;
#34 = CARTESIAN_POINT ( 'NONE',  ( 624.4407175640967580, 11.20319499493623461, 27.83041057277752017 ) ) ;
#35 = DIRECTION ( 'NONE',  ( 0.000000000000000000, 0.000000000000000000, 1.000000000000000000 ) ) ;
#36 = VERTEX_POINT ( 'NONE', #7 ) ;
#37 = CARTESIAN_POINT ( 'NONE',  ( 617.6017536222245781, 1.644309090831164610, -29.95772254932828460 ) ) ;
#38 = VERTEX_POINT ( 'NONE', #101 ) ;
#39 = CARTESIAN_POINT ( 'NONE',  ( 623.7204280127527909, -10.81592228863013361, -27.98319416703971285 ) ) ;
#40 = DIRECTION ( 'NONE',  ( 0.000000000000000000, 0.000000000000000000, 1.000000000000000000 ) ) ;
#41 = CARTESIAN_POINT ( 'NONE',  ( 627.9402103175513048, -12.33597535780611310, 27.34650960606418124 ) ) ;
#42 = EDGE_LOOP ( 'NONE', ( #408, #271, #222, #86, #161, #227, #242, #250 ) ) ;
#43 = CARTESIAN_POINT ( 'NONE',  ( 637.2971920691745709, 10.15714436551369637, -28.22925903578857287 ) ) ;
#44 = APPROVAL_PERSON_ORGANIZATION ( #113, #115, #196 ) ;
#45 = CARTESIAN_POINT ( 'NONE',  ( 660.0000000000000000, 0.000000000000000000, 0.000000000000000000 ) ) ;
#46 = CARTESIAN_POINT ( 'NONE',  ( 621.7447510690043373, -9.395060532071045856, 28.49223915043621602 ) ) ;
#47 = CARTESIAN_POINT ( 'NONE',  ( 618.6235369711552039, -5.195594574677540045, -29.54915788582964353 ) ) ;
#48 = ORIENTED_EDGE ( 'NONE', *, *, #419, .T. ) ;
#49 = CARTESIAN_POINT ( 'NONE',  ( 0.000000000000000000, 0.000000000000000000, 0.000000000000000000 ) ) ;
#50 = CARTESIAN_POINT ( 'NONE',  ( 0.000000000000000000, 0.000000000000000000, 0.000000000000000000 ) ) ;
#51 = DIRECTION ( 'NONE',  ( -1.000000000000000000, 0.000000000000000000, 0.000000000000000000 ) ) ;
#52 = CARTESIAN_POINT ( 'NONE',  ( 617.5000000000000000, -5.142428993309628464E-20, 30.00000000000000000 ) ) ;
#53 = VECTOR ( 'NONE', #84, 1000.000000000000000 ) ;
#54 = UNCERTAINTY_MEASURE_WITH_UNIT (LENGTH_MEASURE( 1.000000000000000082E-05 ), #163, 'distance_accuracy_value', 'NONE');
#55 = APPROVAL ( #290, '未指定' ) ;
#56 = DIRECTION ( 'NONE',  ( 0.000000000000000000, 0.000000000000000000, 1.000000000000000000 ) ) ;
#57 = CYLINDRICAL_SURFACE ( 'NONE', #492, 12.49999999999995559 ) ;
#58 = DIRECTION ( 'NONE',  ( 1.000000000000000000, 0.000000000000000000, 0.000000000000000000 ) ) ;
#59 = CARTESIAN_POINT ( 'NONE',  ( 617.9091909345575004, 3.277893851505122580, 29.83145206736962152 ) ) ;
#60 = EDGE_LOOP ( 'NONE', ( #245, #406, #102, #75 ) ) ;
#61 = CARTESIAN_POINT ( 'NONE',  ( 0.000000000000000000, 0.000000000000000000, 30.00000000000000000 ) ) ;
#62 = CARTESIAN_POINT ( 'NONE',  ( 641.8313382849044046, 4.054667785966453053, -29.72739946985155512 ) ) ;
#63 = CARTESIAN_POINT ( 'NONE',  ( 635.1865541894226226, -11.38050738658138350, -27.75811504251462836 ) ) ;
#64 = APPROVAL_PERSON_ORGANIZATION ( #286, #55, #510 ) ;
#65 = CARTESIAN_POINT ( 'NONE',  ( 633.2725212122392122, -12.09268350343611509, -27.45540214575590809 ) ) ;
#66 = DESIGN_CONTEXT ( 'detailed design', #223, 'design' ) ;
#67 = PERSON_AND_ORGANIZATION ( #485, #404 ) ;
#68 = ORIENTED_EDGE ( 'NONE', *, *, #158, .F. ) ;
#69 = CARTESIAN_POINT ( 'NONE',  ( 619.1893225559525717, 6.288582608412286667, 29.33578761260543288 ) ) ;
#70 = APPROVAL_STATUS ( 'not_yet_approved' ) ;
#71 = ORIENTED_EDGE ( 'NONE', *, *, #8, .T. ) ;
#72 = AXIS2_PLACEMENT_3D ( 'NONE', #50, #269, #56 ) ;
#73 = LINE ( 'NONE', #241, #156 ) ;
#74 = DATE_TIME_ROLE ( 'classification_date' ) ;
#75 = ORIENTED_EDGE ( 'NONE', *, *, #100, .F. ) ;
#76 = CALENDAR_DATE ( 2026, 10, 4 ) ;
#77 = DIRECTION ( 'NONE',  ( 0.000000000000000000, 0.000000000000000000, 1.000000000000000000 ) ) ;
#78 = EDGE_LOOP ( 'NONE', ( #257, #416, #152, #159 ) ) ;
#79 = DIRECTION ( 'NONE',  ( -1.000000000000000000, 0.000000000000000000, 0.000000000000000000 ) ) ;
#80 = CIRCLE ( 'NONE', #124, 35.00000000000000000 ) ;
#81 = CARTESIAN_POINT ( 'NONE',  ( 635.5663810187553509, 11.22166546235478179, -27.82425704276210965 ) ) ;
#82 = B_SPLINE_CURVE_WITH_KNOTS ( 'NONE', 3,
 ( #429, #506, #274, #314, #193, #59, #226, #149, #319, #69, #237, #386, #11, #495, #144, #27, #508, #322, #405, #34, #252, #23, #503, #90, #262, #171, #418, #225, #98, #500, #191, #183, #140, #194, #306, #20, #501, #384, #272, #107, #456, #180, #280, #387, #390, #345, #276, #491, #460, #466 ),
 .UNSPECIFIED., .F., .F.,
 ( 4, 2, 2, 2, 2, 2, 2, 2, 2, 2, 2, 2, 2, 2, 2, 2, 2, 2, 2, 2, 2, 2, 2, 2, 4 ),
 ( 0.03953707732116401585, 0.04077161597778256041, 0.04200615463440109804, 0.04447523194763811777, 0.04570977060425662764, 0.04694430926087514444, 0.04817884791749365431, 0.04941338657411216417, 0.05188246388734941983, 0.05311700254396804766, 0.05435154120058667548, 0.05682061851382362583, 0.05805515717044210100, 0.05928969582706057617, 0.06175877314029753345, 0.06422785045353449074, 0.06546238911015296591, 0.06669692776677144108, 0.06916600508000866898, 0.07040054373662726905, 0.07163508239324589688, 0.07410415970648293049, 0.07657323701971996410, 0.07780777567633848091, 0.07904231433295701159 ),
 .UNSPECIFIED. ) ;
#83 = CARTESIAN_POINT ( 'NONE',  ( 618.7952478672484631, 5.556117831094967485, -29.48328887536399279 ) ) ;
#84 = DIRECTION ( 'NONE',  ( -1.000000000000000000, 0.000000000000000000, 0.000000000000000000 ) ) ;
#85 = CARTESIAN_POINT ( 'NONE',  ( 619.3947516746853807, -6.629043248945210465, 29.26049185982163081 ) ) ;
#86 = ORIENTED_EDGE ( 'NONE', *, *, #256, .T. ) ;
#87 = CARTESIAN_POINT ( 'NONE',  ( 0.000000000000000000, 0.000000000000000000, 0.000000000000000000 ) ) ;
#88 = CARTESIAN_POINT ( 'NONE',  ( 641.2165865237653861, -5.577479258230042980, 29.48689902539442897 ) ) ;
#89 = CARTESIAN_POINT ( 'NONE',  ( 620.0749779447896799, 7.642379404052982217, -29.01855320557528373 ) ) ;
#90 = CARTESIAN_POINT ( 'NONE',  ( 627.9312617603499120, 12.33448573145412297, 27.34718275248082264 ) ) ;
#91 = AXIS2_PLACEMENT_3D ( 'NONE', #21, #430, #354 ) ;
#92 = ORIENTED_EDGE ( 'NONE', *, *, #453, .F. ) ;
#93 = LINE ( 'NONE', #264, #340 ) ;
#94 = CARTESIAN_POINT ( 'NONE',  ( 617.9092094382754112, -3.279581860231713275, 29.83144022144594132 ) ) ;
#95 = CC_DESIGN_PERSON_AND_ORGANIZATION_ASSIGNMENT ( #118, #238, ( #232 ) ) ;
#96 = LINE ( 'NONE', #266, #372 ) ;
#97 = CARTESIAN_POINT ( 'NONE',  ( 622.7002605227197591, -10.15518178969211505, 28.22994989095163021 ) ) ;
#98 = CARTESIAN_POINT ( 'NONE',  ( 631.6407786099834993, 12.41975180717602711, 27.30900705532154049 ) ) ;
#99 = DIRECTION ( 'NONE',  ( 1.000000000000000000, 0.000000000000000000, 0.000000000000000000 ) ) ;
#100 = EDGE_CURVE ( 'NONE', #343, #236, #325, .T. ) ;
#101 = CARTESIAN_POINT ( 'NONE',  ( 617.5000000000000000, 3.673991821678218782E-15, -30.00000000000000000 ) ) ;
#102 = ORIENTED_EDGE ( 'NONE', *, *, #135, .T. ) ;
#103 = AXIS2_PLACEMENT_3D ( 'NONE', #28, #35, #235 ) ;
#104 = CARTESIAN_POINT ( 'NONE',  ( 660.0000000000000000, 0.000000000000000000, 0.000000000000000000 ) ) ;
#105 = CARTESIAN_POINT ( 'NONE',  ( 630.8208190417892638, -12.50020776923250132, -27.27168505572138102 ) ) ;
#106 = CARTESIAN_POINT ( 'NONE',  ( 642.1741675243830514, 2.865037663918156063, -29.86561410464710775 ) ) ;
#107 = CARTESIAN_POINT ( 'NONE',  ( 639.9113714202717347, 7.627517346555237054, 29.01596739150042126 ) ) ;
#108 = AXIS2_PLACEMENT_3D ( 'NONE', #45, #454, #297 ) ;
#109 = CARTESIAN_POINT ( 'NONE',  ( 636.6275161933974687, -10.60614094333354096, -28.06363607703497465 ) ) ;
#110 = FACE_OUTER_BOUND ( 'NONE', #370, .T. ) ;
#111 = CARTESIAN_POINT ( 'NONE',  ( 631.6407786099834993, -12.41975180717602711, -27.30900705532154049 ) ) ;
#112 = ADVANCED_FACE ( 'NONE', ( #486 ), #341, .F. ) ;
#113 = PERSON_AND_ORGANIZATION ( #485, #404 ) ;
#114 = LOCAL_TIME ( 15, 3, 33.00000000000000000, #287 ) ;
#115 = APPROVAL ( #70, '未指定' ) ;
#116 = COORDINATED_UNIVERSAL_TIME_OFFSET ( 8, 0, .AHEAD. ) ;
#117 = ORIENTED_EDGE ( 'NONE', *, *, #209, .F. ) ;
#118 = PERSON_AND_ORGANIZATION ( #485, #404 ) ;
#119 = EDGE_CURVE ( 'NONE', #490, #6, #181, .T. ) ;
#120 = ORIENTED_EDGE ( 'NONE', *, *, #366, .F. ) ;
#121 = CARTESIAN_POINT ( 'NONE',  ( 620.0919951670382488, -7.631860932549563437, -29.01481928509673125 ) ) ;
#122 =( NAMED_UNIT ( * ) PLANE_ANGLE_UNIT ( ) SI_UNIT ( $, .RADIAN. ) );
#123 = APPROVAL_DATE_TIME ( #507, #55 ) ;
#124 = AXIS2_PLACEMENT_3D ( 'NONE', #228, #12, #350 ) ;
#125 = CARTESIAN_POINT ( 'NONE',  ( 621.7442338651211458, -9.420910545983543827, -28.48873329322621473 ) ) ;
#126 = DIRECTION ( 'NONE',  ( -1.000000000000000000, 0.000000000000000000, 0.000000000000000000 ) ) ;
#127 = CARTESIAN_POINT ( 'NONE',  ( 637.2971920691745709, -10.15714436551369637, 28.22925903578857287 ) ) ;
#128 = ORIENTED_EDGE ( 'NONE', *, *, #203, .F. ) ;
#129 = CARTESIAN_POINT ( 'NONE',  ( 628.3487621209775398, 12.39744960585169942, -27.31858878195896523 ) ) ;
#130 = DIRECTION ( 'NONE',  ( 0.000000000000000000, 0.000000000000000000, 1.000000000000000000 ) ) ;
#131 = CARTESIAN_POINT ( 'NONE',  ( 635.5663810187553509, -11.22166546235478179, 27.82425704276210965 ) ) ;
#132 = CARTESIAN_POINT ( 'NONE',  ( 617.5000000000001137, 0.4118419728193290497, -30.00000000000000711 ) ) ;
#133 = FACE_OUTER_BOUND ( 'NONE', #42, .T. ) ;
#134 = CARTESIAN_POINT ( 'NONE',  ( 633.2699495029720538, -12.07174587485362238, 27.46434545554921058 ) ) ;
#135 = EDGE_CURVE ( 'NONE', #218, #236, #220, .T. ) ;
#136 = CARTESIAN_POINT ( 'NONE',  ( 620.8810074731389932, -8.559163673651836390, -28.75467070320296870 ) ) ;
#137 = CC_DESIGN_SECURITY_CLASSIFICATION ( #232, ( #157 ) ) ;
#138 = CARTESIAN_POINT ( 'NONE',  ( 641.8313382849044046, -4.054667785966453053, 29.72739946985155512 ) ) ;
#139 = CARTESIAN_POINT ( 'NONE',  ( 642.1741675243830514, -2.865037663918156063, 29.86561410464710775 ) ) ;
#140 = CARTESIAN_POINT ( 'NONE',  ( 635.5552012429341175, 11.20524998566792441, 27.82958562282036752 ) ) ;
#141 = CYLINDRICAL_SURFACE ( 'NONE', #91, 35.00000000000000000 ) ;
#142 = AXIS2_PLACEMENT_3D ( 'NONE', #219, #130, #99 ) ;
#143 = FACE_OUTER_BOUND ( 'NONE', #321, .T. ) ;
#144 = CARTESIAN_POINT ( 'NONE',  ( 620.8810074731389932, 8.559163673651836390, 28.75467070320296870 ) ) ;
#145 = DIRECTION ( 'NONE',  ( -1.000000000000000000, 0.000000000000000000, 0.000000000000000000 ) ) ;
#146 = CARTESIAN_POINT ( 'NONE',  ( 642.4169527582837418, 1.656643325582511483, -29.96512839193697175 ) ) ;
#147 = AXIS2_PLACEMENT_3D ( 'NONE', #18, #58, #184 ) ;
#148 = CYLINDRICAL_SURFACE ( 'NONE', #356, 30.00000000000000000 ) ;
#149 = CARTESIAN_POINT ( 'NONE',  ( 618.6235369711552039, 5.195594574677540045, 29.54915788582964353 ) ) ;
#150 = ADVANCED_FACE ( 'NONE', ( #481 ), #303, .F. ) ;
#151 = DATE_AND_TIME ( #154, #26 ) ;
#152 = ORIENTED_EDGE ( 'NONE', *, *, #119, .F. ) ;
#153 = APPLICATION_CONTEXT ( 'configuration controlled 3d designs of mechanical parts and assemblies' ) ;
#154 = CALENDAR_DATE ( 2026, 10, 4 ) ;
#155 =( NAMED_UNIT ( * ) SI_UNIT ( $, .STERADIAN. ) SOLID_ANGLE_UNIT ( ) );
#156 = VECTOR ( 'NONE', #399, 1000.000000000000000 ) ;
#157 = PRODUCT_DEFINITION_FORMATION_WITH_SPECIFIED_SOURCE ( '任何', '', #296, .NOT_KNOWN. ) ;
#158 = EDGE_CURVE ( 'NONE', #236, #343, #514, .T. ) ;
#159 = ORIENTED_EDGE ( 'NONE', *, *, #8, .F. ) ;
#160 = PERSON_AND_ORGANIZATION_ROLE ( 'creator' ) ;
#161 = ORIENTED_EDGE ( 'NONE', *, *, #19, .F. ) ;
#162 = CARTESIAN_POINT ( 'NONE',  ( 618.8016471010123496, -5.569013410990558022, -29.48085473155293457 ) ) ;
#163 =( LENGTH_UNIT ( ) NAMED_UNIT ( * ) SI_UNIT ( .MILLI., .METRE. ) );
#164 = VERTEX_POINT ( 'NONE', #268 ) ;
#165 = CARTESIAN_POINT ( 'NONE',  ( 621.4437145720113449, 9.121572933429760610, -28.58122233231156528 ) ) ;
#166 = DIRECTION ( 'NONE',  ( 0.000000000000000000, 0.000000000000000000, 1.000000000000000000 ) ) ;
#167 = CIRCLE ( 'NONE', #186, 30.00000000000000000 ) ;
#168 = CARTESIAN_POINT ( 'NONE',  ( 617.5202695066503793, -0.8236303668694298086, -29.99153680502054797 ) ) ;
#169 = DIRECTION ( 'NONE',  ( -1.000000000000000000, 0.000000000000000000, 0.000000000000000000 ) ) ;
#170 = CARTESIAN_POINT ( 'NONE',  ( 626.7310200406195690, -12.09296722407085234, 27.45526627751753068 ) ) ;
#171 = CARTESIAN_POINT ( 'NONE',  ( 629.1718547295195094, 12.47947560237924058, 27.28121612703109378 ) ) ;
#172 = CARTESIAN_POINT ( 'NONE',  ( 0.000000000000000000, 3.673940397442059178E-15, -30.00000000000000000 ) ) ;
#173 = CARTESIAN_POINT ( 'NONE',  ( 620.5872560948477030, -8.264545032631557930, 28.84535918582430014 ) ) ;
#174 = CARTESIAN_POINT ( 'NONE',  ( 636.2799607076889288, 10.83874847642142569, -27.97777905679832600 ) ) ;
#175 = CARTESIAN_POINT ( 'NONE',  ( 0.000000000000000000, 4.286263797015736496E-15, -35.00000000000000000 ) ) ;
#176 = CARTESIAN_POINT ( 'NONE',  ( 639.9053361297491165, -7.635375613581405041, 29.01390209058563485 ) ) ;
#177 = LINE ( 'NONE', #175, #472 ) ;
#178 = CARTESIAN_POINT ( 'NONE',  ( 618.7952478672484631, -5.556117831094967485, 29.48328887536399279 ) ) ;
#179 = EDGE_LOOP ( 'NONE', ( #463, #474 ) ) ;
#180 = CARTESIAN_POINT ( 'NONE',  ( 640.8278017898219332, 6.297690798647229471, 29.33963621086254747 ) ) ;
#181 = B_SPLINE_CURVE_WITH_KNOTS ( 'NONE', 3,
 ( #346, #182, #488, #139, #305, #138, #380, #88, #338, #3, #176, #217, #482, #267, #458, #414, #127, #423, #131, #260, #444, #134, #295, #224, #304, #265, #383, #214, #41, #170, #489, #455, #376, #97, #1, #46, #301, #173, #420, #85, #255, #178, #5, #452, #94, #212, #417, #374, #521, #52 ),
 .UNSPECIFIED., .F., .F.,
 ( 4, 2, 2, 2, 2, 2, 2, 2, 2, 2, 2, 2, 2, 2, 2, 2, 2, 2, 2, 2, 2, 2, 2, 2, 4 ),
 ( 2.784358981394093452E-18, 0.002471067332572828186, 0.003706600998859273504, 0.004942134665145717087, 0.007413201997718734358, 0.008648735664005242560, 0.009884269330291753364, 0.01111980299657826243, 0.01235533666286477324, 0.01482640399543752423, 0.01606193766172389972, 0.01729747132801027348, 0.01976853866058335060, 0.02100407232686972436, 0.02223960599315609118, 0.02471067332572883524, 0.02718174065830157582, 0.02841727432458795305, 0.02965280799087432334, 0.03212387532344683494, 0.03335940898973299706, 0.03459494265601916613, 0.03706600998859162222, 0.03830154365487781903, 0.03953707732116401585 ),
 .UNSPECIFIED. ) ;
#182 = CARTESIAN_POINT ( 'NONE',  ( 642.5000000000002274, -0.8362005272848775927, 30.00000000000000711 ) ) ;
#183 = CARTESIAN_POINT ( 'NONE',  ( 635.1865541894226226, 11.38050738658138350, 27.75811504251462836 ) ) ;
#184 = DIRECTION ( 'NONE',  ( 0.000000000000000000, 0.000000000000000000, -1.000000000000000000 ) ) ;
#185 = CARTESIAN_POINT ( 'NONE',  ( 634.0573903129189830, -11.85127650474908378, -27.56198181492072763 ) ) ;
#186 = AXIS2_PLACEMENT_3D ( 'NONE', #104, #424, #277 ) ;
#187 = FACE_OUTER_BOUND ( 'NONE', #291, .T. ) ;
#188 = CARTESIAN_POINT ( 'NONE',  ( 639.9053361297491165, 7.635375613581405041, -29.01390209058563485 ) ) ;
#189 = EDGE_CURVE ( 'NONE', #36, #511, #332, .T. ) ;
#190 = CARTESIAN_POINT ( 'NONE',  ( 638.2598852579596951, -9.417155050259822247, -28.48995243007902545 ) ) ;
#191 = CARTESIAN_POINT ( 'NONE',  ( 634.0573903129189830, 11.85127650474908378, 27.56198181492072763 ) ) ;
#192 = CARTESIAN_POINT ( 'NONE',  ( 640.1506520217751586, 7.306161754676998576, -29.09881006997220609 ) ) ;
#193 = CARTESIAN_POINT ( 'NONE',  ( 617.6645502130845671, 2.063308397735454935, 29.93171877111655732 ) ) ;
#194 = CARTESIAN_POINT ( 'NONE',  ( 636.2770885761868840, 10.81739557830400855, 27.98262704039220949 ) ) ;
#195 = CARTESIAN_POINT ( 'NONE',  ( 641.8517881171337649, -4.057996444327714336, -29.73430394171626645 ) ) ;
#196 = APPROVAL_ROLE ( '' ) ;
#197 = EDGE_LOOP ( 'NONE', ( #476, #120 ) ) ;
#198 = CARTESIAN_POINT ( 'NONE',  ( 629.1718547295195094, -12.47947560237924058, -27.28121612703109378 ) ) ;
#199 = APPROVAL_DATE_TIME ( #151, #115 ) ;
#200 = CALENDAR_DATE ( 2026, 10, 4 ) ;
#201 = PERSON_AND_ORGANIZATION ( #485, #404 ) ;
#202 = DIRECTION ( 'NONE',  ( 0.000000000000000000, 0.000000000000000000, 1.000000000000000000 ) ) ;
#203 = EDGE_CURVE ( 'NONE', #511, #289, #457, .T. ) ;
#204 = CARTESIAN_POINT ( 'NONE',  ( 631.6518947734044787, 12.41780904657277063, -27.30988256800049641 ) ) ;
#205 = MECHANICAL_CONTEXT ( 'NONE', #153, 'mechanical' ) ;
#206 = CARTESIAN_POINT ( 'NONE',  ( 624.4234639206149495, 11.21746591886343758, -27.82600916148224357 ) ) ;
#207 = ORIENTED_EDGE ( 'NONE', *, *, #100, .T. ) ;
#208 = CARTESIAN_POINT ( 'NONE',  ( 625.9445982145379048, 11.85255300110552668, -27.56148245018291121 ) ) ;
#209 = EDGE_CURVE ( 'NONE', #38, #6, #96, .T. ) ;
#210 = PLANE ( 'NONE',  #248 ) ;
#211 = AXIS2_PLACEMENT_3D ( 'NONE', #87, #51, #40 ) ;
#212 = CARTESIAN_POINT ( 'NONE',  ( 617.6631365108930822, -2.055484771897400531, 29.93230033038580373 ) ) ;
#213 = CARTESIAN_POINT ( 'NONE',  ( 622.3746552403507621, 9.913143528189069187, -28.31615156754977747 ) ) ;
#214 = CARTESIAN_POINT ( 'NONE',  ( 628.3487621209775398, -12.39744960585169942, 27.31858878195896523 ) ) ;
#215 = CARTESIAN_POINT ( 'NONE',  ( 617.9092094382754112, 3.279581860231713275, -29.83144022144594132 ) ) ;
#216 = ADVANCED_FACE ( 'NONE', ( #259 ), #336, .T. ) ;
#217 = CARTESIAN_POINT ( 'NONE',  ( 639.3892989222878214, -8.261701419908675348, 28.84180585419093745 ) ) ;
#218 = VERTEX_POINT ( 'NONE', #413 ) ;
#219 = CARTESIAN_POINT ( 'NONE',  ( 630.0000000000000000, 0.000000000000000000, -30.00000000000000000 ) ) ;
#220 = LINE ( 'NONE', #382, #221 ) ;
#221 = VECTOR ( 'NONE', #342, 1000.000000000000000 ) ;
#222 = ORIENTED_EDGE ( 'NONE', *, *, #337, .T. ) ;
#223 = APPLICATION_CONTEXT ( 'configuration controlled 3d designs of mechanical parts and assemblies' ) ;
#224 = CARTESIAN_POINT ( 'NONE',  ( 631.6518947734044787, -12.41780904657277063, 27.30988256800049641 ) ) ;
#225 = CARTESIAN_POINT ( 'NONE',  ( 630.8208190417892638, 12.50020776923250132, 27.27168505572138102 ) ) ;
#226 = CARTESIAN_POINT ( 'NONE',  ( 618.1494999861622546, 4.060554832334806186, 29.73381296500720694 ) ) ;
#227 = ORIENTED_EDGE ( 'NONE', *, *, #419, .F. ) ;
#228 = CARTESIAN_POINT ( 'NONE',  ( 20.00000000000000000, 0.000000000000000000, 0.000000000000000000 ) ) ;
#229 = CARTESIAN_POINT ( 'NONE',  ( 641.6902801348691128, 4.444645362518589771, -29.67139194331620544 ) ) ;
#230 = CARTESIAN_POINT ( 'NONE',  ( 640.8278017898219332, -6.297690798647229471, -29.33963621086254747 ) ) ;
#231 = PRODUCT_RELATED_PRODUCT_CATEGORY ( 'detail', '', ( #296 ) ) ;
#232 = SECURITY_CLASSIFICATION ( '', '', #31 ) ;
#233 = CARTESIAN_POINT ( 'NONE',  ( 636.2770885761868840, -10.81739557830400855, -27.98262704039220949 ) ) ;
#234 = EDGE_CURVE ( 'NONE', #164, #343, #177, .T. ) ;
#235 = DIRECTION ( 'NONE',  ( 1.000000000000000000, 0.000000000000000000, 0.000000000000000000 ) ) ;
#236 = VERTEX_POINT ( 'NONE', #484 ) ;
#237 = CARTESIAN_POINT ( 'NONE',  ( 619.3992655002227821, 6.636123052647914911, 29.25886335063790611 ) ) ;
#238 = PERSON_AND_ORGANIZATION_ROLE ( 'classification_officer' ) ;
#239 = AXIS2_PLACEMENT_3D ( 'NONE', #411, #446, #335 ) ;
#240 = APPROVAL_DATE_TIME ( #401, #467 ) ;
#241 = CARTESIAN_POINT ( 'NONE',  ( 642.5000000000000000, 0.000000000000000000, -30.00000000000000000 ) ) ;
#242 = ORIENTED_EDGE ( 'NONE', *, *, #360, .T. ) ;
#243 = ADVANCED_FACE ( 'NONE', ( #133 ), #422, .T. ) ;
#244 = CARTESIAN_POINT ( 'NONE',  ( 20.00000000000000000, 0.000000000000000000, 0.000000000000000000 ) ) ;
#245 = ORIENTED_EDGE ( 'NONE', *, *, #234, .F. ) ;
#246 = CARTESIAN_POINT ( 'NONE',  ( 634.4415541214721088, 11.69135109107473092, -27.62862779071558705 ) ) ;
#247 = CC_DESIGN_PERSON_AND_ORGANIZATION_ASSIGNMENT ( #436, #29, ( #157 ) ) ;
#248 = AXIS2_PLACEMENT_3D ( 'NONE', #520, #145, #464 ) ;
#249 = SHAPE_DEFINITION_REPRESENTATION ( #351, #312 ) ;
#250 = ORIENTED_EDGE ( 'NONE', *, *, #281, .F. ) ;
#251 = CARTESIAN_POINT ( 'NONE',  ( 622.7002605227197591, 10.15518178969211505, -28.22994989095163021 ) ) ;
#252 = CARTESIAN_POINT ( 'NONE',  ( 624.8127554683326252, 11.38020027818918578, 27.75824159391738988 ) ) ;
#253 = CARTESIAN_POINT ( 'NONE',  ( 622.3670276732556204, -9.931758686102496014, -28.31236465045988382 ) ) ;
#254 = FACE_OUTER_BOUND ( 'NONE', #25, .T. ) ;
#255 = CARTESIAN_POINT ( 'NONE',  ( 619.1819690839721488, -6.275916093230691217, 29.33850107711540645 ) ) ;
#256 = EDGE_CURVE ( 'NONE', #38, #479, #93, .T. ) ;
#257 = ORIENTED_EDGE ( 'NONE', *, *, #344, .F. ) ;
#258 = CARTESIAN_POINT ( 'NONE',  ( 629.5949883505873004, 12.50026564378527283, -27.27165852899115706 ) ) ;
#259 = FACE_OUTER_BOUND ( 'NONE', #60, .T. ) ;
#260 = CARTESIAN_POINT ( 'NONE',  ( 634.4415541214721088, -11.69135109107473092, 27.62862779071558705 ) ) ;
#261 = CARTESIAN_POINT ( 'NONE',  ( 634.0574697738853729, 11.83032363264170073, -27.56919952620588887 ) ) ;
#262 = CARTESIAN_POINT ( 'NONE',  ( 628.3437819529108310, 12.39677690691796208, 27.31889432243306004 ) ) ;
#263 = ORIENTED_EDGE ( 'NONE', *, *, #158, .T. ) ;
#264 = CARTESIAN_POINT ( 'NONE',  ( 0.000000000000000000, 3.673940397442059178E-15, -30.00000000000000000 ) ) ;
#265 = CARTESIAN_POINT ( 'NONE',  ( 629.5949883505873004, -12.50026564378527283, 27.27165852899115706 ) ) ;
#266 = CARTESIAN_POINT ( 'NONE',  ( 617.5000000000000000, 1.530808498934191521E-15, -30.00000000000000000 ) ) ;
#267 = CARTESIAN_POINT ( 'NONE',  ( 638.5475960309926222, -9.129670548563893817, 28.57862588173304275 ) ) ;
#268 = CARTESIAN_POINT ( 'NONE',  ( 20.00000000000000000, 4.286263797015736496E-15, -35.00000000000000000 ) ) ;
#269 = DIRECTION ( 'NONE',  ( -1.000000000000000000, 0.000000000000000000, 0.000000000000000000 ) ) ;
#270 = CIRCLE ( 'NONE', #435, 35.00000000000000000 ) ;
#271 = ORIENTED_EDGE ( 'NONE', *, *, #203, .T. ) ;
#272 = CARTESIAN_POINT ( 'NONE',  ( 639.3963846350354743, 8.253621029163509704, 28.84411767490153267 ) ) ;
#273 = PLANE ( 'NONE',  #147 ) ;
#274 = CARTESIAN_POINT ( 'NONE',  ( 617.5202695066503793, 0.8236303668694298086, 29.99153680502054797 ) ) ;
#275 = ORIENTED_EDGE ( 'NONE', *, *, #234, .T. ) ;
#276 = CARTESIAN_POINT ( 'NONE',  ( 642.3959205327029167, 1.662255082487218427, 29.95675922458972096 ) ) ;
#277 = DIRECTION ( 'NONE',  ( 0.000000000000000000, 0.000000000000000000, 1.000000000000000000 ) ) ;
#278 = CARTESIAN_POINT ( 'NONE',  ( 639.9113714202717347, -7.627517346555237054, -29.01596739150042126 ) ) ;
#279 = CC_DESIGN_APPROVAL ( #55, ( #232 ) ) ;
#280 = CARTESIAN_POINT ( 'NONE',  ( 641.2147935991230270, 5.582169940505264272, 29.48619244317346144 ) ) ;
#281 = EDGE_CURVE ( 'NONE', #36, #490, #294, .T. ) ;
#282 = CARTESIAN_POINT ( 'NONE',  ( 626.7215568942294794, -12.09043735589296276, -27.45638533331272768 ) ) ;
#283 = CC_DESIGN_PERSON_AND_ORGANIZATION_ASSIGNMENT ( #67, #24, ( #296 ) ) ;
#284 = CARTESIAN_POINT ( 'NONE',  ( 640.1525122702222461, -7.303392694614116998, -29.09947157155156106 ) ) ;
#285 = PERSON_AND_ORGANIZATION ( #485, #404 ) ;
#286 = PERSON_AND_ORGANIZATION ( #485, #404 ) ;
#287 = COORDINATED_UNIVERSAL_TIME_OFFSET ( 8, 0, .AHEAD. ) ;
#288 = ADVANCED_FACE ( 'NONE', ( #254, #410 ), #210, .F. ) ;
#289 = VERTEX_POINT ( 'NONE', #425 ) ;
#290 = APPROVAL_STATUS ( 'not_yet_approved' ) ;
#291 = EDGE_LOOP ( 'NONE', ( #117, #459, #71, #394 ) ) ;
#292 = CARTESIAN_POINT ( 'NONE',  ( 617.9091909345575004, -3.277893851505122580, -29.83145206736962152 ) ) ;
#293 = CARTESIAN_POINT ( 'NONE',  ( 0.000000000000000000, 4.286263797015736496E-15, -35.00000000000000000 ) ) ;
#294 = LINE ( 'NONE', #443, #53 ) ;
#295 = CARTESIAN_POINT ( 'NONE',  ( 632.8652781451634155, -12.17416796400204859, 27.41892687967650488 ) ) ;
#296 = PRODUCT ( 'SHAFT_\X2\9ed88ba4\X0\_sldprt', 'SHAFT_\X2\9ed88ba4\X0\_sldprt', '', ( #205 ) ) ;
#297 = DIRECTION ( 'NONE',  ( 0.000000000000000000, 0.000000000000000000, 1.000000000000000000 ) ) ;
#298 = CARTESIAN_POINT ( 'NONE',  ( 623.7089241703192783, 10.83180591483412769, -27.98040622887203810 ) ) ;
#299 = DIRECTION ( 'NONE',  ( -1.000000000000000000, 0.000000000000000000, 0.000000000000000000 ) ) ;
#300 = LOCAL_TIME ( 15, 3, 33.00000000000000000, #32 ) ;
#301 = CARTESIAN_POINT ( 'NONE',  ( 621.4437145720113449, -9.121572933429760610, 28.58122233231156528 ) ) ;
#302 = CARTESIAN_POINT ( 'NONE',  ( 630.8343752007922376, 12.49946080556022920, -27.27202742589265227 ) ) ;
#303 = CYLINDRICAL_SURFACE ( 'NONE', #142, 12.49999999999995559 ) ;
#304 = CARTESIAN_POINT ( 'NONE',  ( 630.8343752007922376, -12.49946080556022920, 27.27202742589265227 ) ) ;
#305 = CARTESIAN_POINT ( 'NONE',  ( 642.0733823169434800, -3.264098021707954711, 29.82455823980242826 ) ) ;
#306 = CARTESIAN_POINT ( 'NONE',  ( 636.6275161933974687, 10.60614094333354096, 28.06363607703497465 ) ) ;
#307 = ADVANCED_FACE ( 'NONE', ( #110 ), #141, .T. ) ;
#308 = LOCAL_TIME ( 15, 3, 33.00000000000000000, #116 ) ;
#309 = ORIENTED_EDGE ( 'NONE', *, *, #256, .F. ) ;
#310 = CARTESIAN_POINT ( 'NONE',  ( 642.5000000000002274, 0.8362005272848775927, -30.00000000000000711 ) ) ;
#311 = DIRECTION ( 'NONE',  ( 0.000000000000000000, 0.000000000000000000, 1.000000000000000000 ) ) ;
#312 = ADVANCED_BREP_SHAPE_REPRESENTATION ( 'SHAFT_\X2\9ed88ba4\X0\_sldprt', ( #17, #103 ), #478 ) ;
#313 = CARTESIAN_POINT ( 'NONE',  ( 639.1177001126052346, 8.560363712539064807, -28.75428515408480479 ) ) ;
#314 = CARTESIAN_POINT ( 'NONE',  ( 617.6023206570370121, 1.649117059806213481, 29.95748754203508923 ) ) ;
#315 = ADVANCED_FACE ( 'NONE', ( #391 ), #148, .T. ) ;
#316 = CARTESIAN_POINT ( 'NONE',  ( 642.0733823169434800, 3.264098021707954711, -29.82455823980242826 ) ) ;
#317 = CC_DESIGN_APPROVAL ( #467, ( #157 ) ) ;
#318 = DIRECTION ( 'NONE',  ( 0.000000000000000000, 0.000000000000000000, 1.000000000000000000 ) ) ;
#319 = CARTESIAN_POINT ( 'NONE',  ( 618.8016471010123496, 5.569013410990558022, 29.48085473155293457 ) ) ;
#320 = DATE_AND_TIME ( #368, #308 ) ;
#321 = EDGE_LOOP ( 'NONE', ( #263, #207 ) ) ;
#322 = CARTESIAN_POINT ( 'NONE',  ( 623.3730302103039094, 10.60642709357926350, 28.06352009252373136 ) ) ;
#323 = PERSON_AND_ORGANIZATION ( #485, #404 ) ;
#324 = ADVANCED_FACE ( 'NONE', ( #143 ), #273, .F. ) ;
#325 = CIRCLE ( 'NONE', #72, 35.00000000000000000 ) ;
#326 = ORIENTED_EDGE ( 'NONE', *, *, #344, .T. ) ;
#327 = CARTESIAN_POINT ( 'NONE',  ( 20.00000000000000000, 0.000000000000000000, 0.000000000000000000 ) ) ;
#328 = VERTEX_POINT ( 'NONE', #385 ) ;
#329 = CARTESIAN_POINT ( 'NONE',  ( 620.5872560948477030, 8.264545032631557930, -28.84535918582430014 ) ) ;
#330 = EDGE_LOOP ( 'NONE', ( #128, #441, #517, #448, #48, #358, #309, #326 ) ) ;
#331 = CARTESIAN_POINT ( 'NONE',  ( 617.5000000000000000, 3.673991821678218782E-15, -30.00000000000000000 ) ) ;
#332 = CIRCLE ( 'NONE', #108, 30.00000000000000000 ) ;
#333 = DIRECTION ( 'NONE',  ( -1.000000000000000000, 0.000000000000000000, 0.000000000000000000 ) ) ;
#334 = B_SPLINE_CURVE_WITH_KNOTS ( 'NONE', 3,
 ( #331, #377, #168, #447, #339, #292, #415, #47, #162, #477, #439, #442, #121, #2, #136, #125, #253, #409, #39, #371, #480, #519, #282, #16, #431, #198, #465, #105, #111, #65, #185, #63, #426, #233, #109, #355, #190, #393, #352, #278, #284, #230, #22, #195, #499, #348, #469, #359, #502, #433 ),
 .UNSPECIFIED., .F., .F.,
 ( 4, 2, 2, 2, 2, 2, 2, 2, 2, 2, 2, 2, 2, 2, 2, 2, 2, 2, 2, 2, 2, 2, 2, 2, 4 ),
 ( 0.03953707732116401585, 0.04077161597778256041, 0.04200615463440109804, 0.04447523194763811777, 0.04570977060425662764, 0.04694430926087514444, 0.04817884791749365431, 0.04941338657411216417, 0.05188246388734941983, 0.05311700254396804766, 0.05435154120058667548, 0.05682061851382362583, 0.05805515717044210100, 0.05928969582706057617, 0.06175877314029753345, 0.06422785045353449074, 0.06546238911015296591, 0.06669692776677144108, 0.06916600508000866898, 0.07040054373662726905, 0.07163508239324589688, 0.07410415970648293049, 0.07657323701971996410, 0.07780777567633848091, 0.07904231433295701159 ),
 .UNSPECIFIED. ) ;
#335 = DIRECTION ( 'NONE',  ( 0.000000000000000000, 0.000000000000000000, 1.000000000000000000 ) ) ;
#336 = CYLINDRICAL_SURFACE ( 'NONE', #211, 35.00000000000000000 ) ;
#337 = EDGE_CURVE ( 'NONE', #289, #38, #522, .T. ) ;
#338 = CARTESIAN_POINT ( 'NONE',  ( 640.8314825209469063, -6.292211901160619014, 29.34094507145562503 ) ) ;
#339 = CARTESIAN_POINT ( 'NONE',  ( 617.6645502130845671, -2.063308397735454935, -29.93171877111655732 ) ) ;
#340 = VECTOR ( 'NONE', #333, 1000.000000000000000 ) ;
#341 = PLANE ( 'NONE',  #239 ) ;
#342 = DIRECTION ( 'NONE',  ( -1.000000000000000000, 0.000000000000000000, 0.000000000000000000 ) ) ;
#343 = VERTEX_POINT ( 'NONE', #293 ) ;
#344 = EDGE_CURVE ( 'NONE', #38, #289, #334, .T. ) ;
#345 = CARTESIAN_POINT ( 'NONE',  ( 642.3343317816891158, 2.069382182409162940, 29.93125914987455261 ) ) ;
#346 = CARTESIAN_POINT ( 'NONE',  ( 642.5000000000000000, 2.869587368747409809E-15, 30.00000000000000000 ) ) ;
#347 = DIRECTION ( 'NONE',  ( 1.000000000000000000, 0.000000000000000000, 0.000000000000000000 ) ) ;
#348 = CARTESIAN_POINT ( 'NONE',  ( 642.3343317816891158, -2.069382182409162940, -29.93125914987455261 ) ) ;
#349 = CC_DESIGN_APPROVAL ( #115, ( #397 ) ) ;
#350 = DIRECTION ( 'NONE',  ( 0.000000000000000000, 0.000000000000000000, 1.000000000000000000 ) ) ;
#351 = PRODUCT_DEFINITION_SHAPE ( 'NONE', 'NONE',  #397 ) ;
#352 = CARTESIAN_POINT ( 'NONE',  ( 639.3963846350354743, -8.253621029163509704, -28.84411767490153267 ) ) ;
#353 = CARTESIAN_POINT ( 'NONE',  ( 638.5475960309926222, 9.129670548563893817, -28.57862588173304275 ) ) ;
#354 = DIRECTION ( 'NONE',  ( 0.000000000000000000, 0.000000000000000000, 1.000000000000000000 ) ) ;
#355 = CARTESIAN_POINT ( 'NONE',  ( 637.6370176433645156, -9.928884525934236649, -28.31340379338247359 ) ) ;
#356 = AXIS2_PLACEMENT_3D ( 'NONE', #493, #462, #318 ) ;
#357 = APPLICATION_PROTOCOL_DEFINITION ( 'international standard', 'config_control_design', 1994, #153 ) ;
#358 = ORIENTED_EDGE ( 'NONE', *, *, #494, .F. ) ;
#359 = CARTESIAN_POINT ( 'NONE',  ( 642.4788299816988228, -0.8371022041523437096, -29.99116161636789712 ) ) ;
#360 = EDGE_CURVE ( 'NONE', #6, #490, #82, .T. ) ;
#361 = DIRECTION ( 'NONE',  ( -1.000000000000000000, 0.000000000000000000, 0.000000000000000000 ) ) ;
#362 = PERSON_AND_ORGANIZATION_ROLE ( 'design_supplier' ) ;
#363 = CC_DESIGN_DATE_AND_TIME_ASSIGNMENT ( #320, #395, ( #397 ) ) ;
#364 = LOCAL_TIME ( 15, 3, 33.00000000000000000, #30 ) ;
#365 = CARTESIAN_POINT ( 'NONE',  ( 20.00000000000000000, 0.000000000000000000, 0.000000000000000000 ) ) ;
#366 = EDGE_CURVE ( 'NONE', #511, #36, #167, .T. ) ;
#367 = CARTESIAN_POINT ( 'NONE',  ( 632.8652781451634155, 12.17416796400204859, -27.41892687967650488 ) ) ;
#368 = CALENDAR_DATE ( 2026, 10, 4 ) ;
#369 = CARTESIAN_POINT ( 'NONE',  ( 617.5000000000000000, 3.673991821678218782E-15, -30.00000000000000000 ) ) ;
#370 = EDGE_LOOP ( 'NONE', ( #496, #275, #68, #407 ) ) ;
#371 = CARTESIAN_POINT ( 'NONE',  ( 624.4407175640967580, -11.20319499493623461, -27.83041057277752017 ) ) ;
#372 = VECTOR ( 'NONE', #379, 1000.000000000000000 ) ;
#373 = DIRECTION ( 'NONE',  ( 0.000000000000000000, 0.000000000000000000, 1.000000000000000000 ) ) ;
#374 = CARTESIAN_POINT ( 'NONE',  ( 617.5203038417006383, -0.8230731600116708568, 29.99152285733405421 ) ) ;
#375 = CARTESIAN_POINT ( 'NONE',  ( 621.7447510690043373, 9.395060532071045856, -28.49223915043621602 ) ) ;
#376 = CARTESIAN_POINT ( 'NONE',  ( 623.7089241703192783, -10.83180591483412769, 27.98040622887203810 ) ) ;
#377 = CARTESIAN_POINT ( 'NONE',  ( 617.5000000000000000, -0.4115103050098976589, -30.00000000000000355 ) ) ;
#378 = CC_DESIGN_PERSON_AND_ORGANIZATION_ASSIGNMENT ( #201, #362, ( #157 ) ) ;
#379 = DIRECTION ( 'NONE',  ( 0.000000000000000000, 0.000000000000000000, 1.000000000000000000 ) ) ;
#380 = CARTESIAN_POINT ( 'NONE',  ( 641.6902801348691128, -4.444645362518589771, 29.67139194331620544 ) ) ;
#381 = CARTESIAN_POINT ( 'NONE',  ( 0.000000000000000000, 0.000000000000000000, 0.000000000000000000 ) ) ;
#382 = CARTESIAN_POINT ( 'NONE',  ( 0.000000000000000000, 0.000000000000000000, 35.00000000000000000 ) ) ;
#383 = CARTESIAN_POINT ( 'NONE',  ( 629.1773654594001073, -12.47984838350862624, 27.28104532623418521 ) ) ;
#384 = CARTESIAN_POINT ( 'NONE',  ( 639.1210686861292061, 8.556911501922709107, 28.75533542189105063 ) ) ;
#385 = CARTESIAN_POINT ( 'NONE',  ( 20.00000000000000000, 0.000000000000000000, 30.00000000000000000 ) ) ;
#386 = CARTESIAN_POINT ( 'NONE',  ( 619.8506011359581862, 7.307763255828588100, 29.09838156904863027 ) ) ;
#387 = CARTESIAN_POINT ( 'NONE',  ( 641.8517881171337649, 4.057996444327714336, 29.73430394171626645 ) ) ;
#388 = CARTESIAN_POINT ( 'NONE',  ( 641.2165865237653861, 5.577479258230042980, -29.48689902539442897 ) ) ;
#389 = CIRCLE ( 'NONE', #421, 30.00000000000000000 ) ;
#390 = CARTESIAN_POINT ( 'NONE',  ( 642.0911710716679863, 3.275044211349910306, 29.83160326011643448 ) ) ;
#391 = FACE_OUTER_BOUND ( 'NONE', #330, .T. ) ;
#392 = ADVANCED_FACE ( 'NONE', ( #187 ), #57, .F. ) ;
#393 = CARTESIAN_POINT ( 'NONE',  ( 639.1210686861292061, -8.556911501922709107, -28.75533542189105063 ) ) ;
#394 = ORIENTED_EDGE ( 'NONE', *, *, #360, .F. ) ;
#395 = DATE_TIME_ROLE ( 'creation_date' ) ;
#396 = CARTESIAN_POINT ( 'NONE',  ( 617.5000000000000000, -5.142428993309628464E-20, 30.00000000000000000 ) ) ;
#397 = PRODUCT_DEFINITION ( '未知', '', #157, #66 ) ;
#398 = CARTESIAN_POINT ( 'NONE',  ( 660.0000000000000000, 3.673940397442059178E-15, -30.00000000000000000 ) ) ;
#399 = DIRECTION ( 'NONE',  ( 0.000000000000000000, 0.000000000000000000, 1.000000000000000000 ) ) ;
#400 = DATE_AND_TIME ( #200, #300 ) ;
#401 = DATE_AND_TIME ( #76, #114 ) ;
#402 = DIRECTION ( 'NONE',  ( -1.000000000000000000, 0.000000000000000000, 0.000000000000000000 ) ) ;
#403 = CARTESIAN_POINT ( 'NONE',  ( 627.9402103175513048, 12.33597535780611310, -27.34650960606418124 ) ) ;
#404 = ORGANIZATION ( '未指定', '未指定', '' ) ;
#405 = CARTESIAN_POINT ( 'NONE',  ( 623.7204280127527909, 10.81592228863013361, 27.98319416703971285 ) ) ;
#406 = ORIENTED_EDGE ( 'NONE', *, *, #453, .T. ) ;
#407 = ORIENTED_EDGE ( 'NONE', *, *, #135, .F. ) ;
#408 = ORIENTED_EDGE ( 'NONE', *, *, #189, .T. ) ;
#409 = CARTESIAN_POINT ( 'NONE',  ( 623.3730302103039094, -10.60642709357926350, -28.06352009252373136 ) ) ;
#410 = FACE_BOUND ( 'NONE', #179, .T. ) ;
#411 = CARTESIAN_POINT ( 'NONE',  ( 660.0000000000000000, 30.00000000000000000, 0.000000000000000000 ) ) ;
#412 = CARTESIAN_POINT ( 'NONE',  ( 626.7310200406195690, 12.09296722407085234, -27.45526627751753068 ) ) ;
#413 = CARTESIAN_POINT ( 'NONE',  ( 20.00000000000000000, 0.000000000000000000, 35.00000000000000000 ) ) ;
#414 = CARTESIAN_POINT ( 'NONE',  ( 637.6245142197584528, -9.913636159173924156, 28.31595500843702951 ) ) ;
#415 = CARTESIAN_POINT ( 'NONE',  ( 618.1494999861622546, -4.060554832334806186, -29.73381296500720694 ) ) ;
#416 = ORIENTED_EDGE ( 'NONE', *, *, #209, .T. ) ;
#417 = CARTESIAN_POINT ( 'NONE',  ( 617.6017536222245781, -1.644309090831164610, 29.95772254932828460 ) ) ;
#418 = CARTESIAN_POINT ( 'NONE',  ( 629.5848535113138951, 12.49989551701403734, 27.27182817628553479 ) ) ;
#419 = EDGE_CURVE ( 'NONE', #6, #328, #427, .T. ) ;
#420 = CARTESIAN_POINT ( 'NONE',  ( 620.0749779447896799, -7.642379404052982217, 29.01855320557528373 ) ) ;
#421 = AXIS2_PLACEMENT_3D ( 'NONE', #327, #361, #202 ) ;
#422 = CYLINDRICAL_SURFACE ( 'NONE', #461, 30.00000000000000000 ) ;
#423 = CARTESIAN_POINT ( 'NONE',  ( 636.2799607076889288, -10.83874847642142569, 27.97777905679832600 ) ) ;
#424 = DIRECTION ( 'NONE',  ( -1.000000000000000000, 0.000000000000000000, 0.000000000000000000 ) ) ;
#425 = CARTESIAN_POINT ( 'NONE',  ( 642.5000000000000000, -2.869587368747409809E-15, -30.00000000000000000 ) ) ;
#426 = CARTESIAN_POINT ( 'NONE',  ( 635.5552012429341175, -11.20524998566792441, -27.82958562282036752 ) ) ;
#427 = LINE ( 'NONE', #61, #14 ) ;
#428 = CARTESIAN_POINT ( 'NONE',  ( 637.6245142197584528, 9.913636159173924156, -28.31595500843702951 ) ) ;
#429 = CARTESIAN_POINT ( 'NONE',  ( 617.5000000000000000, -5.142428993309628464E-20, 30.00000000000000000 ) ) ;
#430 = DIRECTION ( 'NONE',  ( -1.000000000000000000, 0.000000000000000000, 0.000000000000000000 ) ) ;
#431 = CARTESIAN_POINT ( 'NONE',  ( 628.3437819529108310, -12.39677690691796208, -27.31889432243306004 ) ) ;
#432 = CC_DESIGN_DATE_AND_TIME_ASSIGNMENT ( #400, #74, ( #232 ) ) ;
#433 = CARTESIAN_POINT ( 'NONE',  ( 642.5000000000000000, -2.869587368747409809E-15, -30.00000000000000000 ) ) ;
#434 = APPLICATION_PROTOCOL_DEFINITION ( 'international standard', 'config_control_design', 1994, #223 ) ;
#435 = AXIS2_PLACEMENT_3D ( 'NONE', #365, #79, #509 ) ;
#436 = PERSON_AND_ORGANIZATION ( #485, #404 ) ;
#437 = APPROVAL_ROLE ( '' ) ;
#438 = CARTESIAN_POINT ( 'NONE',  ( 642.5000000000000000, 2.869587368747409809E-15, 30.00000000000000000 ) ) ;
#439 = CARTESIAN_POINT ( 'NONE',  ( 619.3992655002227821, -6.636123052647914911, -29.25886335063790611 ) ) ;
#440 = AXIS2_PLACEMENT_3D ( 'NONE', #49, #126, #373 ) ;
#441 = ORIENTED_EDGE ( 'NONE', *, *, #366, .T. ) ;
#442 = CARTESIAN_POINT ( 'NONE',  ( 619.8506011359581862, -7.307763255828588100, -29.09838156904863027 ) ) ;
#443 = CARTESIAN_POINT ( 'NONE',  ( 0.000000000000000000, 0.000000000000000000, 30.00000000000000000 ) ) ;
#444 = CARTESIAN_POINT ( 'NONE',  ( 634.0574697738853729, -11.83032363264170073, 27.56919952620588887 ) ) ;
#445 = CARTESIAN_POINT ( 'NONE',  ( 633.2699495029720538, 12.07174587485362238, -27.46434545554921058 ) ) ;
#446 = DIRECTION ( 'NONE',  ( -1.000000000000000000, 0.000000000000000000, 0.000000000000000000 ) ) ;
#447 = CARTESIAN_POINT ( 'NONE',  ( 617.6023206570370121, -1.649117059806213481, -29.95748754203508923 ) ) ;
#448 = ORIENTED_EDGE ( 'NONE', *, *, #119, .T. ) ;
#449 = CLOSED_SHELL ( 'NONE', ( #150, #243, #307, #324, #216, #288, #315, #112, #392 ) ) ;
#450 = APPROVAL_PERSON_ORGANIZATION ( #285, #467, #437 ) ;
#451 = DIRECTION ( 'NONE',  ( -1.000000000000000000, 0.000000000000000000, 0.000000000000000000 ) ) ;
#452 = CARTESIAN_POINT ( 'NONE',  ( 618.1503376604375717, -4.061753120081120549, 29.73350318545701043 ) ) ;
#453 = EDGE_CURVE ( 'NONE', #164, #218, #80, .T. ) ;
#454 = DIRECTION ( 'NONE',  ( -1.000000000000000000, 0.000000000000000000, 0.000000000000000000 ) ) ;
#455 = CARTESIAN_POINT ( 'NONE',  ( 624.4234639206149495, -11.21746591886343758, 27.82600916148224357 ) ) ;
#456 = CARTESIAN_POINT ( 'NONE',  ( 640.1525122702222461, 7.303392694614116998, 29.09947157155156106 ) ) ;
#457 = LINE ( 'NONE', #172, #4 ) ;
#458 = CARTESIAN_POINT ( 'NONE',  ( 638.2490908971830095, -9.400313736987239821, 28.49048247367038300 ) ) ;
#459 = ORIENTED_EDGE ( 'NONE', *, *, #337, .F. ) ;
#460 = CARTESIAN_POINT ( 'NONE',  ( 642.4999999999997726, 0.4177635558571289320, 29.99999999999998934 ) ) ;
#461 = AXIS2_PLACEMENT_3D ( 'NONE', #381, #299, #166 ) ;
#462 = DIRECTION ( 'NONE',  ( -1.000000000000000000, 0.000000000000000000, 0.000000000000000000 ) ) ;
#463 = ORIENTED_EDGE ( 'NONE', *, *, #19, .T. ) ;
#464 = DIRECTION ( 'NONE',  ( 0.000000000000000000, 0.000000000000000000, 1.000000000000000000 ) ) ;
#465 = CARTESIAN_POINT ( 'NONE',  ( 629.5848535113138951, -12.49989551701403734, -27.27182817628553479 ) ) ;
#466 = CARTESIAN_POINT ( 'NONE',  ( 642.5000000000000000, 2.869587368747409809E-15, 30.00000000000000000 ) ) ;
#467 = APPROVAL ( #470, '未指定' ) ;
#468 = CARTESIAN_POINT ( 'NONE',  ( 638.2490908971830095, 9.400313736987239821, -28.49048247367038300 ) ) ;
#469 = CARTESIAN_POINT ( 'NONE',  ( 642.3959205327029167, -1.662255082487218427, -29.95675922458972096 ) ) ;
#470 = APPROVAL_STATUS ( 'not_yet_approved' ) ;
#471 = CIRCLE ( 'NONE', #513, 30.00000000000000000 ) ;
#472 = VECTOR ( 'NONE', #451, 1000.000000000000000 ) ;
#473 = CALENDAR_DATE ( 2026, 10, 4 ) ;
#474 = ORIENTED_EDGE ( 'NONE', *, *, #494, .T. ) ;
#475 = CARTESIAN_POINT ( 'NONE',  ( 617.5203038417006383, 0.8230731600116708568, -29.99152285733405421 ) ) ;
#476 = ORIENTED_EDGE ( 'NONE', *, *, #189, .F. ) ;
#477 = CARTESIAN_POINT ( 'NONE',  ( 619.1893225559525717, -6.288582608412286667, -29.33578761260543288 ) ) ;
#478 =( GEOMETRIC_REPRESENTATION_CONTEXT ( 3 ) GLOBAL_UNCERTAINTY_ASSIGNED_CONTEXT ( ( #54 ) ) GLOBAL_UNIT_ASSIGNED_CONTEXT ( ( #163, #122, #155 ) ) REPRESENTATION_CONTEXT ( 'NONE', 'WORKASPACE' ) );
#479 = VERTEX_POINT ( 'NONE', #516 ) ;
#480 = CARTESIAN_POINT ( 'NONE',  ( 624.8127554683326252, -11.38020027818918578, -27.75824159391738988 ) ) ;
#481 = FACE_OUTER_BOUND ( 'NONE', #78, .T. ) ;
#482 = CARTESIAN_POINT ( 'NONE',  ( 639.1177001126052346, -8.560363712539064807, 28.75428515408480479 ) ) ;
#483 = CARTESIAN_POINT ( 'NONE',  ( 618.6203646187741469, 5.188398845779339297, -29.55038544484882124 ) ) ;
#484 = CARTESIAN_POINT ( 'NONE',  ( 0.000000000000000000, 0.000000000000000000, 35.00000000000000000 ) ) ;
#485 = PERSON ( '未指定', '未指定', '未指定', ('未指定'), ('未指定'), ('未指定') ) ;
#486 = FACE_OUTER_BOUND ( 'NONE', #197, .T. ) ;
#487 = CARTESIAN_POINT ( 'NONE',  ( 619.3947516746853807, 6.629043248945210465, -29.26049185982163081 ) ) ;
#488 = CARTESIAN_POINT ( 'NONE',  ( 642.4169527582837418, -1.656643325582511483, 29.96512839193697175 ) ) ;
#489 = CARTESIAN_POINT ( 'NONE',  ( 625.9445982145379048, -11.85255300110552668, 27.56148245018291121 ) ) ;
#490 = VERTEX_POINT ( 'NONE', #438 ) ;
#491 = CARTESIAN_POINT ( 'NONE',  ( 642.4788299816988228, 0.8371022041523437096, 29.99116161636789712 ) ) ;
#492 = AXIS2_PLACEMENT_3D ( 'NONE', #9, #311, #347 ) ;
#493 = CARTESIAN_POINT ( 'NONE',  ( 0.000000000000000000, 0.000000000000000000, 0.000000000000000000 ) ) ;
#494 = EDGE_CURVE ( 'NONE', #479, #328, #389, .T. ) ;
#495 = CARTESIAN_POINT ( 'NONE',  ( 620.6065342160530918, 8.256915987799670731, 28.84316865067041391 ) ) ;
#496 = ORIENTED_EDGE ( 'NONE', *, *, #512, .T. ) ;
#497 = DIRECTION ( 'NONE',  ( -1.000000000000000000, 0.000000000000000000, 0.000000000000000000 ) ) ;
#498 = CARTESIAN_POINT ( 'NONE',  ( 639.3892989222878214, 8.261701419908675348, -28.84180585419093745 ) ) ;
#499 = CARTESIAN_POINT ( 'NONE',  ( 642.0911710716679863, -3.275044211349910306, -29.83160326011643448 ) ) ;
#500 = CARTESIAN_POINT ( 'NONE',  ( 633.2725212122392122, 12.09268350343611509, 27.45540214575590809 ) ) ;
#501 = CARTESIAN_POINT ( 'NONE',  ( 638.2598852579596951, 9.417155050259822247, 28.48995243007902545 ) ) ;
#502 = CARTESIAN_POINT ( 'NONE',  ( 642.4999999999997726, -0.4177635558571289320, -29.99999999999998934 ) ) ;
#503 = CARTESIAN_POINT ( 'NONE',  ( 626.7215568942294794, 12.09043735589296276, 27.45638533331272768 ) ) ;
#504 = COORDINATED_UNIVERSAL_TIME_OFFSET ( 8, 0, .AHEAD. ) ;
#505 = ORIENTED_EDGE ( 'NONE', *, *, #512, .F. ) ;
#506 = CARTESIAN_POINT ( 'NONE',  ( 617.5000000000000000, 0.4115103050098976589, 30.00000000000000355 ) ) ;
#507 = DATE_AND_TIME ( #473, #364 ) ;
#508 = CARTESIAN_POINT ( 'NONE',  ( 622.3670276732556204, 9.931758686102496014, 28.31236465045988382 ) ) ;
#509 = DIRECTION ( 'NONE',  ( 0.000000000000000000, 0.000000000000000000, 1.000000000000000000 ) ) ;
#510 = APPROVAL_ROLE ( '' ) ;
#511 = VERTEX_POINT ( 'NONE', #398 ) ;
#512 = EDGE_CURVE ( 'NONE', #218, #164, #270, .T. ) ;
#513 = AXIS2_PLACEMENT_3D ( 'NONE', #244, #402, #77 ) ;
#514 = CIRCLE ( 'NONE', #440, 35.00000000000000000 ) ;
#515 = CARTESIAN_POINT ( 'NONE',  ( 617.6631365108930822, 2.055484771897400531, -29.93230033038580373 ) ) ;
#516 = CARTESIAN_POINT ( 'NONE',  ( 20.00000000000000000, 3.673940397442059178E-15, -30.00000000000000000 ) ) ;
#517 = ORIENTED_EDGE ( 'NONE', *, *, #281, .T. ) ;
#518 = CARTESIAN_POINT ( 'NONE',  ( 618.1503376604375717, 4.061753120081120549, -29.73350318545701043 ) ) ;
#519 = CARTESIAN_POINT ( 'NONE',  ( 625.9424808006965577, -11.85126131512300418, -27.56199093448438830 ) ) ;
#520 = CARTESIAN_POINT ( 'NONE',  ( 20.00000000000000000, 35.00000000000000000, 0.000000000000000000 ) ) ;
#521 = CARTESIAN_POINT ( 'NONE',  ( 617.5000000000001137, -0.4118419728193290497, 30.00000000000000711 ) ) ;
#522 = B_SPLINE_CURVE_WITH_KNOTS ( 'NONE', 3,
 ( #10, #310, #146, #106, #316, #62, #229, #388, #15, #192, #188, #498, #313, #353, #468, #428, #43, #174, #81, #246, #261, #445, #367, #204, #302, #258, #33, #129, #403, #412, #208, #206, #298, #251, #213, #375, #165, #329, #89, #487, #523, #83, #483, #518, #215, #515, #37, #475, #132, #369 ),
 .UNSPECIFIED., .F., .F.,
 ( 4, 2, 2, 2, 2, 2, 2, 2, 2, 2, 2, 2, 2, 2, 2, 2, 2, 2, 2, 2, 2, 2, 2, 2, 4 ),
 ( 2.784358981394093452E-18, 0.002471067332572828186, 0.003706600998859273504, 0.004942134665145717087, 0.007413201997718734358, 0.008648735664005242560, 0.009884269330291753364, 0.01111980299657826243, 0.01235533666286477324, 0.01482640399543752423, 0.01606193766172389972, 0.01729747132801027348, 0.01976853866058335060, 0.02100407232686972436, 0.02223960599315609118, 0.02471067332572883524, 0.02718174065830157582, 0.02841727432458795305, 0.02965280799087432334, 0.03212387532344683494, 0.03335940898973299706, 0.03459494265601916613, 0.03706600998859162222, 0.03830154365487781903, 0.03953707732116401585 ),
 .UNSPECIFIED. ) ;
#523 = CARTESIAN_POINT ( 'NONE',  ( 619.1819690839721488, 6.275916093230691217, -29.33850107711540645 ) ) ;
ENDSEC;
END-ISO-10303-21;
