ISO-10303-21;
HEADER;
FILE_DESCRIPTION (( 'STEP AP203' ),
    '1' );
FILE_NAME ('SHAFT 07_默认_sldprt.STEP',
    '2026-04-10T07:03:31',
    ( '' ),
    ( '' ),
    'SwSTEP 2.0',
    'SolidWorks 2022',
    '' );
FILE_SCHEMA (( 'CONFIG_CONTROL_DESIGN' ));
ENDSEC;

DATA;
#1 = ORIENTED_EDGE ( 'NONE', *, *, #486, .F. ) ;
#2 = VERTEX_POINT ( 'NONE', #388 ) ;
#3 = ORIENTED_EDGE ( 'NONE', *, *, #179, .F. ) ;
#4 = LOCAL_TIME ( 15, 3, 31.00000000000000000, #405 ) ;
#5 = ORIENTED_EDGE ( 'NONE', *, *, #376, .T. ) ;
#6 = CARTESIAN_POINT ( 'NONE',  ( 0.000000000000000000, 0.000000000000000000, 0.000000000000000000 ) ) ;
#7 = CARTESIAN_POINT ( 'NONE',  ( 424.0399869628955685, 4.579089799194184351, 29.65132052211539815 ) ) ;
#8 = VERTEX_POINT ( 'NONE', #231 ) ;
#9 = CARTESIAN_POINT ( 'NONE',  ( 424.3489552041647244, 4.955277654340120463, 29.59001043722526347 ) ) ;
#10 = CARTESIAN_POINT ( 'NONE',  ( 437.3071187278068805, -1.707652680602064654, 29.95232584805419052 ) ) ;
#11 = AXIS2_PLACEMENT_3D ( 'NONE', #354, #314, #505 ) ;
#12 = EDGE_CURVE ( 'NONE', #386, #154, #418, .T. ) ;
#13 = MANIFOLD_SOLID_BREP ( '输入1', #133 ) ;
#14 = CARTESIAN_POINT ( 'NONE',  ( 423.1665960971873233, -3.100705601562543379, -29.84019265033175827 ) ) ;
#15 = DIRECTION ( 'NONE',  ( 0.000000000000000000, 0.000000000000000000, -1.000000000000000000 ) ) ;
#16 = CALENDAR_DATE ( 2026, 10, 4 ) ;
#17 = CARTESIAN_POINT ( 'NONE',  ( 422.5476456559749749, -0.9794806813873889739, -29.98797605177512438 ) ) ;
#18 = CARTESIAN_POINT ( 'NONE',  ( 424.8673689604307810, 5.474109022542856806, 29.49686430768515066 ) ) ;
#19 = CARTESIAN_POINT ( 'NONE',  ( 424.8692203761943915, -5.475897079378627907, 29.49653728453246515 ) ) ;
#20 = CARTESIAN_POINT ( 'NONE',  ( 434.9476188423965937, -5.641885209922792299, -29.46513429177108634 ) ) ;
#21 = CARTESIAN_POINT ( 'NONE',  ( 423.2608570180912011, -3.327795449961935770, 29.81832724936132450 ) ) ;
#22 = CARTESIAN_POINT ( 'NONE',  ( 0.000000000000000000, 0.000000000000000000, 0.000000000000000000 ) ) ;
#23 = CARTESIAN_POINT ( 'NONE',  ( 437.5000000000000568, 0.4976690225003683743, -30.00000000000000355 ) ) ;
#24 = APPROVAL_ROLE ( '' ) ;
#25 = ORIENTED_EDGE ( 'NONE', *, *, #107, .F. ) ;
#26 = CARTESIAN_POINT ( 'NONE',  ( 425.4306088535706749, -5.952352603980908263, 29.40398816018723949 ) ) ;
#27 = PERSON_AND_ORGANIZATION ( #51, #390 ) ;
#28 = ADVANCED_FACE ( 'NONE', ( #471 ), #313, .F. ) ;
#29 = APPROVAL_PERSON_ORGANIZATION ( #136, #373, #185 ) ;
#30 = CYLINDRICAL_SURFACE ( 'NONE', #414, 30.00000000000000000 ) ;
#31 = CARTESIAN_POINT ( 'NONE',  ( 426.0315601307017346, -6.368742968804856908, 29.31651947262572833 ) ) ;
#32 = DIRECTION ( 'NONE',  ( -1.000000000000000000, 0.000000000000000000, 0.000000000000000000 ) ) ;
#33 = ORIENTED_EDGE ( 'NONE', *, *, #113, .T. ) ;
#34 = PRODUCT_RELATED_PRODUCT_CATEGORY ( 'detail', '', ( #121 ) ) ;
#35 = CARTESIAN_POINT ( 'NONE',  ( 424.3482116855628874, 4.954662686481928091, -29.59013281602889478 ) ) ;
#36 = ORIENTED_EDGE ( 'NONE', *, *, #46, .F. ) ;
#37 = EDGE_LOOP ( 'NONE', ( #122, #464, #311, #25 ) ) ;
#38 = AXIS2_PLACEMENT_3D ( 'NONE', #305, #457, #111 ) ;
#39 = CARTESIAN_POINT ( 'NONE',  ( 422.8850480195971500, 2.422339572387716800, -29.90550339825158943 ) ) ;
#40 = EDGE_LOOP ( 'NONE', ( #123, #82, #334, #361 ) ) ;
#41 = VERTEX_POINT ( 'NONE', #281 ) ;
#42 = DIRECTION ( 'NONE',  ( 0.000000000000000000, 0.000000000000000000, 1.000000000000000000 ) ) ;
#43 = ORIENTED_EDGE ( 'NONE', *, *, #337, .T. ) ;
#44 = VERTEX_POINT ( 'NONE', #502 ) ;
#45 = CARTESIAN_POINT ( 'NONE',  ( 422.5476456559749181, 0.9794806813873925266, 29.98797605177512438 ) ) ;
#46 = EDGE_CURVE ( 'NONE', #2, #316, #233, .T. ) ;
#47 = ORIENTED_EDGE ( 'NONE', *, *, #295, .F. ) ;
#48 = CC_DESIGN_APPROVAL ( #373, ( #355 ) ) ;
#49 = CARTESIAN_POINT ( 'NONE',  ( 423.2714198755322172, 3.322168728995419151, 29.81628685276169222 ) ) ;
#50 = CARTESIAN_POINT ( 'NONE',  ( 436.0978175630400528, -4.373390005155540550, 29.68022358490107138 ) ) ;
#51 = PERSON ( '未指定', '未指定', '未指定', ('未指定'), ('未指定'), ('未指定') ) ;
#52 = CARTESIAN_POINT ( 'NONE',  ( 422.5000000000000000, 7.418410087374944410E-21, 30.00000000000000000 ) ) ;
#53 = DIRECTION ( 'NONE',  ( 1.000000000000000000, 0.000000000000000000, 0.000000000000000000 ) ) ;
#54 = CARTESIAN_POINT ( 'NONE',  ( 435.1281217759946003, -5.478282120341717132, -29.49608364240711822 ) ) ;
#55 = CARTESIAN_POINT ( 'NONE',  ( 436.7355646380315761, 3.334846121075556447, 29.81751830530992464 ) ) ;
#56 = VECTOR ( 'NONE', #120, 1000.000000000000000 ) ;
#57 = APPROVAL_STATUS ( 'not_yet_approved' ) ;
#58 = CARTESIAN_POINT ( 'NONE',  ( 423.2714198755321604, -3.322168728995413822, -29.81628685276169577 ) ) ;
#59 = CARTESIAN_POINT ( 'NONE',  ( 435.4739708784138088, -5.132734866319894174, 29.55817372314890434 ) ) ;
#60 = PERSON_AND_ORGANIZATION_ROLE ( 'design_supplier' ) ;
#61 = CARTESIAN_POINT ( 'NONE',  ( 437.5000000000000000, 1.055639116014359845E-15, -30.00000000000000000 ) ) ;
#62 = CARTESIAN_POINT ( 'NONE',  ( 426.2408421516564090, -6.494527552002064219, 29.28882417035288555 ) ) ;
#63 = CARTESIAN_POINT ( 'NONE',  ( 437.2576339179960883, -1.954387703503994711, -29.94018149785234684 ) ) ;
#64 = DIRECTION ( 'NONE',  ( 0.000000000000000000, 0.000000000000000000, 1.000000000000000000 ) ) ;
#65 = CARTESIAN_POINT ( 'NONE',  ( 426.2338798582039203, -6.504138381115594392, -29.28776109457457366 ) ) ;
#66 = CARTESIAN_POINT ( 'NONE',  ( 437.5000000000000000, 1.055639116014359845E-15, -30.00000000000000000 ) ) ;
#67 = DIRECTION ( 'NONE',  ( 0.000000000000000000, 0.000000000000000000, 1.000000000000000000 ) ) ;
#68 = CARTESIAN_POINT ( 'NONE',  ( 422.5000000000001705, -0.2453234574189352979, 30.00000000000001421 ) ) ;
#69 = DATE_AND_TIME ( #16, #169 ) ;
#70 = CARTESIAN_POINT ( 'NONE',  ( 422.5120066071089013, 0.4910369687930161153, -29.99699136247962628 ) ) ;
#71 = CARTESIAN_POINT ( 'NONE',  ( 436.0978175630400528, 4.373390005155541438, -29.68022358490108203 ) ) ;
#72 = APPROVAL_STATUS ( 'not_yet_approved' ) ;
#73 = DIRECTION ( 'NONE',  ( 0.000000000000000000, 0.000000000000000000, 1.000000000000000000 ) ) ;
#74 = ORIENTED_EDGE ( 'NONE', *, *, #116, .F. ) ;
#75 = APPLICATION_CONTEXT ( 'configuration controlled 3d designs of mechanical parts and assemblies' ) ;
#76 = CC_DESIGN_DATE_AND_TIME_ASSIGNMENT ( #69, #380, ( #229 ) ) ;
#77 = CARTESIAN_POINT ( 'NONE',  ( 425.6264433111927019, 6.097655605946252777, -29.37410078798697910 ) ) ;
#78 = CARTESIAN_POINT ( 'NONE',  ( 426.2408421516564090, 6.494527552002064219, -29.28882417035287844 ) ) ;
#79 = CARTESIAN_POINT ( 'NONE',  ( 430.0000000000000000, 0.000000000000000000, -30.00000000000000000 ) ) ;
#80 = CARTESIAN_POINT ( 'NONE',  ( 0.000000000000000000, 0.000000000000000000, 0.000000000000000000 ) ) ;
#81 = VERTEX_POINT ( 'NONE', #158 ) ;
#82 = ORIENTED_EDGE ( 'NONE', *, *, #295, .T. ) ;
#83 = CIRCLE ( 'NONE', #38, 30.00000000000000000 ) ;
#84 = DIRECTION ( 'NONE',  ( 0.000000000000000000, 0.000000000000000000, 1.000000000000000000 ) ) ;
#85 = CARTESIAN_POINT ( 'NONE',  ( 0.000000000000000000, 3.673940397442059178E-15, -30.00000000000000000 ) ) ;
#86 = CC_DESIGN_PERSON_AND_ORGANIZATION_ASSIGNMENT ( #496, #216, ( #355 ) ) ;
#87 = DIRECTION ( 'NONE',  ( -1.000000000000000000, 0.000000000000000000, 0.000000000000000000 ) ) ;
#88 = CARTESIAN_POINT ( 'NONE',  ( 437.2576339179962019, 1.954387703503995155, 29.94018149785235394 ) ) ;
#89 = AXIS2_PLACEMENT_3D ( 'NONE', #239, #87, #200 ) ;
#90 = PLANE ( 'NONE',  #493 ) ;
#91 = CARTESIAN_POINT ( 'NONE',  ( 0.000000000000000000, 0.000000000000000000, 35.00000000000000000 ) ) ;
#92 = CARTESIAN_POINT ( 'NONE',  ( 422.8854243124962409, 2.423210534174096153, 29.90541658718312235 ) ) ;
#93 = CARTESIAN_POINT ( 'NONE',  ( 426.6637639493748111, -6.735247220974182270, -29.23481582659698219 ) ) ;
#94 = CARTESIAN_POINT ( 'NONE',  ( 437.0196457003661408, -2.652345673097039391, 29.88339017209212400 ) ) ;
#95 = DATE_TIME_ROLE ( 'classification_date' ) ;
#96 = CARTESIAN_POINT ( 'NONE',  ( 436.5061101351569164, -3.763005127084286361, 29.76589728466430174 ) ) ;
#97 = VECTOR ( 'NONE', #205, 1000.000000000000000 ) ;
#98 = APPROVAL_DATE_TIME ( #214, #373 ) ;
#99 = CARTESIAN_POINT ( 'NONE',  ( 422.8854243124962977, -2.423210534174093489, -29.90541658718311879 ) ) ;
#100 = CARTESIAN_POINT ( 'NONE',  ( 432.6518920499054843, -7.019761589587380612, 29.16731407996627468 ) ) ;
#101 = EDGE_CURVE ( 'NONE', #81, #352, #286, .T. ) ;
#102 = CARTESIAN_POINT ( 'NONE',  ( 430.9804303353270711, -7.451838451150900156, -29.05993554484959063 ) ) ;
#103 = CARTESIAN_POINT ( 'NONE',  ( 429.0124792552373947, 7.450916876608289385, -29.06017365853578127 ) ) ;
#104 = CARTESIAN_POINT ( 'NONE',  ( 436.7355646380315761, -3.334846121075556447, -29.81751830530992464 ) ) ;
#105 = CARTESIAN_POINT ( 'NONE',  ( 429.5117689435901411, -7.500205360646864605, 29.04732207266958355 ) ) ;
#106 =( GEOMETRIC_REPRESENTATION_CONTEXT ( 3 ) GLOBAL_UNCERTAINTY_ASSIGNED_CONTEXT ( ( #197 ) ) GLOBAL_UNIT_ASSIGNED_CONTEXT ( ( #219, #332, #368 ) ) REPRESENTATION_CONTEXT ( 'NONE', 'WORKASPACE' ) );
#107 = EDGE_CURVE ( 'NONE', #358, #154, #428, .T. ) ;
#108 = CARTESIAN_POINT ( 'NONE',  ( 425.4306088535706181, 5.952352603980907375, -29.40398816018723238 ) ) ;
#109 = CARTESIAN_POINT ( 'NONE',  ( 433.3281545754524586, -6.738822152118832065, 29.23397560473591739 ) ) ;
#110 = DIRECTION ( 'NONE',  ( 0.000000000000000000, 0.000000000000000000, 1.000000000000000000 ) ) ;
#111 = DIRECTION ( 'NONE',  ( 0.000000000000000000, 0.000000000000000000, 1.000000000000000000 ) ) ;
#112 = CARTESIAN_POINT ( 'NONE',  ( 432.4216150523392344, 7.102554020676422830, -29.14719847396458974 ) ) ;
#113 = EDGE_CURVE ( 'NONE', #44, #352, #432, .T. ) ;
#114 = PERSON_AND_ORGANIZATION ( #51, #390 ) ;
#115 = CARTESIAN_POINT ( 'NONE',  ( 422.5000000000000568, 0.2453234574189387951, -30.00000000000001066 ) ) ;
#116 = EDGE_CURVE ( 'NONE', #358, #8, #454, .T. ) ;
#117 = CARTESIAN_POINT ( 'NONE',  ( 424.8692203761944484, 5.475897079378628796, -29.49653728453246515 ) ) ;
#118 = VERTEX_POINT ( 'NONE', #359 ) ;
#119 = DIRECTION ( 'NONE',  ( 0.000000000000000000, 0.000000000000000000, 1.000000000000000000 ) ) ;
#120 = DIRECTION ( 'NONE',  ( -1.000000000000000000, 0.000000000000000000, 0.000000000000000000 ) ) ;
#121 = PRODUCT ( 'SHAFT 07_\X2\9ed88ba4\X0\_sldprt', 'SHAFT 07_\X2\9ed88ba4\X0\_sldprt', '', ( #227 ) ) ;
#122 = ORIENTED_EDGE ( 'NONE', *, *, #116, .T. ) ;
#123 = ORIENTED_EDGE ( 'NONE', *, *, #411, .F. ) ;
#124 = EDGE_CURVE ( 'NONE', #460, #41, #394, .T. ) ;
#125 = ORIENTED_EDGE ( 'NONE', *, *, #159, .T. ) ;
#126 = PRODUCT_DEFINITION_SHAPE ( 'NONE', 'NONE',  #229 ) ;
#127 = DIRECTION ( 'NONE',  ( 0.000000000000000000, 0.000000000000000000, 1.000000000000000000 ) ) ;
#128 = CARTESIAN_POINT ( 'NONE',  ( 435.4724339029295379, 5.134362191894081384, 29.55788981156098316 ) ) ;
#129 = CARTESIAN_POINT ( 'NONE',  ( 426.6637639493748679, 6.735247220974181381, 29.23481582659698574 ) ) ;
#130 = AXIS2_PLACEMENT_3D ( 'NONE', #80, #234, #353 ) ;
#131 = CARTESIAN_POINT ( 'NONE',  ( 424.8673689604307810, -5.474109022542857694, -29.49686430768515777 ) ) ;
#132 = CARTESIAN_POINT ( 'NONE',  ( 430.4923495973503691, 7.500154075971718015, 29.04733531431285698 ) ) ;
#133 = CLOSED_SHELL ( 'NONE', ( #173, #436, #467, #137, #350, #213, #304, #429, #28 ) ) ;
#134 = CARTESIAN_POINT ( 'NONE',  ( 424.3489552041646675, -4.955277654340118687, -29.59001043722525992 ) ) ;
#135 = CARTESIAN_POINT ( 'NONE',  ( 434.3709314595448632, 6.099624826751242956, 29.37369707674586650 ) ) ;
#136 = PERSON_AND_ORGANIZATION ( #51, #390 ) ;
#137 = ADVANCED_FACE ( 'NONE', ( #397 ), #443, .F. ) ;
#138 = CARTESIAN_POINT ( 'NONE',  ( 432.4223655301839813, -7.114909328492518448, -29.14472982325569106 ) ) ;
#139 = CARTESIAN_POINT ( 'NONE',  ( 435.4739708784139225, 5.132734866319894174, -29.55817372314891145 ) ) ;
#140 = CARTESIAN_POINT ( 'NONE',  ( 434.5695862971853103, -5.952199761782202003, -29.40401886732305314 ) ) ;
#141 = DIRECTION ( 'NONE',  ( 1.000000000000000000, 0.000000000000000000, 0.000000000000000000 ) ) ;
#142 = CARTESIAN_POINT ( 'NONE',  ( 424.0399869628956253, -4.579089799194183463, -29.65132052211539815 ) ) ;
#143 = CARTESIAN_POINT ( 'NONE',  ( 424.0393453021818573, -4.578061004014045032, 29.65145805373609988 ) ) ;
#144 = ORIENTED_EDGE ( 'NONE', *, *, #113, .F. ) ;
#145 = EDGE_CURVE ( 'NONE', #118, #41, #283, .T. ) ;
#146 = DIRECTION ( 'NONE',  ( 0.000000000000000000, 0.000000000000000000, 1.000000000000000000 ) ) ;
#147 = CARTESIAN_POINT ( 'NONE',  ( 433.7615340881773704, -6.507210935373891836, 29.28710871531715298 ) ) ;
#148 = LINE ( 'NONE', #183, #477 ) ;
#149 = CARTESIAN_POINT ( 'NONE',  ( 437.2473696846849975, 1.945904718823572965, -29.93776057018875747 ) ) ;
#150 = PERSON_AND_ORGANIZATION ( #51, #390 ) ;
#151 = DIRECTION ( 'NONE',  ( -1.000000000000000000, 0.000000000000000000, 0.000000000000000000 ) ) ;
#152 = COORDINATED_UNIVERSAL_TIME_OFFSET ( 8, 0, .AHEAD. ) ;
#153 = CARTESIAN_POINT ( 'NONE',  ( 423.4964561479173426, 3.767222364970469695, -29.76534298343983664 ) ) ;
#154 = VERTEX_POINT ( 'NONE', #91 ) ;
#155 = CIRCLE ( 'NONE', #261, 30.00000000000000000 ) ;
#156 = CARTESIAN_POINT ( 'NONE',  ( 0.000000000000000000, 0.000000000000000000, 0.000000000000000000 ) ) ;
#157 = ORIENTED_EDGE ( 'NONE', *, *, #12, .T. ) ;
#158 = CARTESIAN_POINT ( 'NONE',  ( 20.00000000000000000, 0.000000000000000000, 30.00000000000000000 ) ) ;
#159 = EDGE_CURVE ( 'NONE', #41, #460, #235, .T. ) ;
#160 = ORIENTED_EDGE ( 'NONE', *, *, #404, .F. ) ;
#161 = ORIENTED_EDGE ( 'NONE', *, *, #444, .F. ) ;
#162 = DESIGN_CONTEXT ( 'detailed design', #75, 'design' ) ;
#163 = EDGE_LOOP ( 'NONE', ( #74, #47 ) ) ;
#164 = EDGE_LOOP ( 'NONE', ( #319, #160 ) ) ;
#165 = DIRECTION ( 'NONE',  ( 0.000000000000000000, 0.000000000000000000, 1.000000000000000000 ) ) ;
#166 = CARTESIAN_POINT ( 'NONE',  ( 428.5253702175073727, 7.365788337660884366, 29.08181996851923401 ) ) ;
#167 = EDGE_LOOP ( 'NONE', ( #1, #5, #393, #391 ) ) ;
#168 = CARTESIAN_POINT ( 'NONE',  ( 433.7575460812894335, 6.509432145096924138, 29.28660624043990524 ) ) ;
#169 = LOCAL_TIME ( 15, 3, 31.00000000000000000, #483 ) ;
#170 = CARTESIAN_POINT ( 'NONE',  ( 437.2473696846849975, -1.945904718823572743, 29.93776057018875392 ) ) ;
#171 = CARTESIAN_POINT ( 'NONE',  ( 425.6263800944238938, -6.097607577758231479, -29.37411059642588640 ) ) ;
#172 = CARTESIAN_POINT ( 'NONE',  ( 429.7503129760729621, 7.499922413759627204, 29.04739512923571709 ) ) ;
#173 = ADVANCED_FACE ( 'NONE', ( #495 ), #413, .F. ) ;
#174 = CARTESIAN_POINT ( 'NONE',  ( 429.0105034856175052, 7.438523474267928925, 29.06318988134012571 ) ) ;
#175 = CARTESIAN_POINT ( 'NONE',  ( 433.3269368689221324, -6.739531184340663117, -29.23381484922108342 ) ) ;
#176 = VECTOR ( 'NONE', #475, 1000.000000000000000 ) ;
#177 = CARTESIAN_POINT ( 'NONE',  ( 430.0000000000000000, 0.000000000000000000, -30.00000000000000000 ) ) ;
#178 = CARTESIAN_POINT ( 'NONE',  ( 437.4999999999999432, -0.4975349096369353075, -29.99999999999999289 ) ) ;
#179 = EDGE_CURVE ( 'NONE', #316, #44, #259, .T. ) ;
#180 = CARTESIAN_POINT ( 'NONE',  ( 436.7366890706829849, 3.332937694888594482, -29.81776834892824013 ) ) ;
#181 = CARTESIAN_POINT ( 'NONE',  ( 437.4509595093423400, 0.9866354491309849983, -29.98763338499469455 ) ) ;
#182 = CALENDAR_DATE ( 2026, 10, 4 ) ;
#183 = CARTESIAN_POINT ( 'NONE',  ( 422.5000000000000000, 9.184850993605147944E-16, -30.00000000000000000 ) ) ;
#184 = CARTESIAN_POINT ( 'NONE',  ( 430.4945201305644673, -7.499793320937955698, 29.04742846085498797 ) ) ;
#185 = APPROVAL_ROLE ( '' ) ;
#186 = ORIENTED_EDGE ( 'NONE', *, *, #486, .T. ) ;
#187 = CARTESIAN_POINT ( 'NONE',  ( 0.000000000000000000, 4.286263797015736496E-15, -35.00000000000000000 ) ) ;
#188 = CARTESIAN_POINT ( 'NONE',  ( 425.6264433111928156, -6.097655605946253665, 29.37410078798698621 ) ) ;
#189 = PERSON_AND_ORGANIZATION ( #51, #390 ) ;
#190 = CARTESIAN_POINT ( 'NONE',  ( 20.00000000000000000, 0.000000000000000000, 0.000000000000000000 ) ) ;
#191 = ORIENTED_EDGE ( 'NONE', *, *, #404, .T. ) ;
#192 = FACE_OUTER_BOUND ( 'NONE', #40, .T. ) ;
#193 = CARTESIAN_POINT ( 'NONE',  ( 0.000000000000000000, 3.673940397442059178E-15, -30.00000000000000000 ) ) ;
#194 = VECTOR ( 'NONE', #73, 1000.000000000000000 ) ;
#195 = EDGE_CURVE ( 'NONE', #154, #386, #301, .T. ) ;
#196 = EDGE_LOOP ( 'NONE', ( #396, #381, #322, #33, #425, #161, #434, #470 ) ) ;
#197 = UNCERTAINTY_MEASURE_WITH_UNIT (LENGTH_MEASURE( 1.000000000000000082E-05 ), #219, 'distance_accuracy_value', 'NONE');
#198 = ORIENTED_EDGE ( 'NONE', *, *, #195, .T. ) ;
#199 = CARTESIAN_POINT ( 'NONE',  ( 427.5804393426315642, 7.116086327766453223, -29.14445097702281373 ) ) ;
#200 = DIRECTION ( 'NONE',  ( 0.000000000000000000, 0.000000000000000000, 1.000000000000000000 ) ) ;
#201 = EDGE_CURVE ( 'NONE', #118, #2, #220, .T. ) ;
#202 = DIRECTION ( 'NONE',  ( -1.000000000000000000, 0.000000000000000000, 0.000000000000000000 ) ) ;
#203 = DIRECTION ( 'NONE',  ( -1.000000000000000000, 0.000000000000000000, 0.000000000000000000 ) ) ;
#204 = EDGE_CURVE ( 'NONE', #316, #41, #270, .T. ) ;
#205 = DIRECTION ( 'NONE',  ( -1.000000000000000000, 0.000000000000000000, 0.000000000000000000 ) ) ;
#206 = CARTESIAN_POINT ( 'NONE',  ( 431.9437080713406090, 7.260381455397897810, 29.10835981801410099 ) ) ;
#207 = CARTESIAN_POINT ( 'NONE',  ( 428.0506328248795285, 7.246391284264162458, 29.11177133409470841 ) ) ;
#208 = CYLINDRICAL_SURFACE ( 'NONE', #367, 35.00000000000000000 ) ;
#209 = CARTESIAN_POINT ( 'NONE',  ( 437.1115035431939759, 2.432189754007010318, 29.90468273597379678 ) ) ;
#210 = AXIS2_PLACEMENT_3D ( 'NONE', #277, #203, #360 ) ;
#211 = CARTESIAN_POINT ( 'NONE',  ( 423.6313564880952640, -3.968669111447769460, -29.73704564188273025 ) ) ;
#212 = CARTESIAN_POINT ( 'NONE',  ( 436.0946531463458200, 4.377862026849593136, 29.67957032641513848 ) ) ;
#213 = ADVANCED_FACE ( 'NONE', ( #463, #225 ), #272, .F. ) ;
#214 = DATE_AND_TIME ( #345, #271 ) ;
#215 = CARTESIAN_POINT ( 'NONE',  ( 435.1281217759946003, 5.478282120341717132, 29.49608364240711822 ) ) ;
#216 = PERSON_AND_ORGANIZATION_ROLE ( 'creator' ) ;
#217 = CARTESIAN_POINT ( 'NONE',  ( 435.6382405445003201, 4.951834820701798812, -29.58912519524127305 ) ) ;
#218 = CC_DESIGN_PERSON_AND_ORGANIZATION_ASSIGNMENT ( #189, #60, ( #355 ) ) ;
#219 =( LENGTH_UNIT ( ) NAMED_UNIT ( * ) SI_UNIT ( .MILLI., .METRE. ) );
#220 = CIRCLE ( 'NONE', #410, 30.00000000000000000 ) ;
#221 = CARTESIAN_POINT ( 'NONE',  ( 428.0489514086905842, -7.258427441106793054, 29.10884893719727629 ) ) ;
#222 = CARTESIAN_POINT ( 'NONE',  ( 432.4216150523393480, -7.102554020676424607, 29.14719847396459684 ) ) ;
#223 = CARTESIAN_POINT ( 'NONE',  ( 20.00000000000000000, 3.673940397442059178E-15, -30.00000000000000000 ) ) ;
#224 = CARTESIAN_POINT ( 'NONE',  ( 436.5061101351569164, 3.763005127084287693, -29.76589728466430529 ) ) ;
#225 = FACE_BOUND ( 'NONE', #474, .T. ) ;
#226 = CARTESIAN_POINT ( 'NONE',  ( 431.7093672621809333, -7.306784571400266159, 29.09662152377190125 ) ) ;
#227 = MECHANICAL_CONTEXT ( 'NONE', #326, 'mechanical' ) ;
#228 = AXIS2_PLACEMENT_3D ( 'NONE', #177, #64, #141 ) ;
#229 = PRODUCT_DEFINITION ( '未知', '', #355, #162 ) ;
#230 = FACE_OUTER_BOUND ( 'NONE', #489, .T. ) ;
#231 = CARTESIAN_POINT ( 'NONE',  ( 20.00000000000000000, 4.286263797015736496E-15, -35.00000000000000000 ) ) ;
#232 = CARTESIAN_POINT ( 'NONE',  ( 422.7424486435709809, 1.954637183720553839, -29.94016152399551700 ) ) ;
#233 = LINE ( 'NONE', #193, #383 ) ;
#234 = DIRECTION ( 'NONE',  ( -1.000000000000000000, 0.000000000000000000, 0.000000000000000000 ) ) ;
#235 = B_SPLINE_CURVE_WITH_KNOTS ( 'NONE', 3,
 ( #245, #365, #364, #10, #170, #327, #94, #249, #96, #50, #252, #403, #59, #258, #488, #147, #109, #100, #222, #300, #226, #409, #184, #105, #302, #221, #262, #420, #453, #62, #31, #188, #26, #491, #19, #407, #143, #333, #21, #344, #455, #377, #348, #416, #68, #336 ),
 .UNSPECIFIED., .F., .F.,
 ( 4, 2, 2, 2, 2, 2, 2, 2, 2, 2, 2, 2, 2, 2, 2, 2, 2, 2, 2, 2, 2, 2, 4 ),
 ( 1.025280324005819152E-18, 0.001471381996746706344, 0.002207072995120058865, 0.002942763993493411386, 0.004414145990240179313, 0.005149836988613563926, 0.005885527986986947672, 0.007356909983733716900, 0.008828291980480486995, 0.009563982978853871608, 0.01029967397722725796, 0.01177105597397403065, 0.01324243797072080335, 0.01471381996746757778, 0.01544951096584096413, 0.01618520196421434701, 0.01692089296258773509, 0.01765658396096112318, 0.01912796595770777444, 0.02059934795445442918, 0.02207072995120108044, 0.02280642094957442342, 0.02354211194794776640 ),
 .UNSPECIFIED. ) ;
#236 = EDGE_LOOP ( 'NONE', ( #423, #3, #315, #275 ) ) ;
#237 = AXIS2_PLACEMENT_3D ( 'NONE', #362, #53, #15 ) ;
#238 = FACE_OUTER_BOUND ( 'NONE', #37, .T. ) ;
#239 = CARTESIAN_POINT ( 'NONE',  ( 20.00000000000000000, 0.000000000000000000, 0.000000000000000000 ) ) ;
#240 = CARTESIAN_POINT ( 'NONE',  ( 422.5000000000000000, 7.418410087374944410E-21, 30.00000000000000000 ) ) ;
#241 = ORIENTED_EDGE ( 'NONE', *, *, #101, .T. ) ;
#242 = CARTESIAN_POINT ( 'NONE',  ( 422.7420348296060979, 1.954202972945829231, 29.94026019973071584 ) ) ;
#243 = CC_DESIGN_SECURITY_CLASSIFICATION ( #431, ( #355 ) ) ;
#244 = FACE_OUTER_BOUND ( 'NONE', #196, .T. ) ;
#245 = CARTESIAN_POINT ( 'NONE',  ( 437.5000000000000000, -1.055639116014359845E-15, 30.00000000000000000 ) ) ;
#246 = CARTESIAN_POINT ( 'NONE',  ( 0.000000000000000000, 0.000000000000000000, 30.00000000000000000 ) ) ;
#247 = CARTESIAN_POINT ( 'NONE',  ( 437.4509719814531081, 0.9878754551366482062, 29.98763414317786413 ) ) ;
#248 = CARTESIAN_POINT ( 'NONE',  ( 428.0506328248794716, -7.246391284264161570, -29.11177133409470841 ) ) ;
#249 = CARTESIAN_POINT ( 'NONE',  ( 436.7366890706831555, -3.332937694888594482, 29.81776834892824013 ) ) ;
#250 = CC_DESIGN_APPROVAL ( #324, ( #431 ) ) ;
#251 = CARTESIAN_POINT ( 'NONE',  ( 425.4301489099078708, -5.952042260788879879, -29.40405481820603484 ) ) ;
#252 = CARTESIAN_POINT ( 'NONE',  ( 435.9503866515069603, -4.572015225994859655, 29.65018844264649900 ) ) ;
#253 = APPROVAL_STATUS ( 'not_yet_approved' ) ;
#254 = CARTESIAN_POINT ( 'NONE',  ( 431.9437080713406090, -7.260381455397897810, -29.10835981801410099 ) ) ;
#255 = CARTESIAN_POINT ( 'NONE',  ( 430.4945201305643536, 7.499793320937952146, -29.04742846085497376 ) ) ;
#256 = CC_DESIGN_PERSON_AND_ORGANIZATION_ASSIGNMENT ( #150, #499, ( #121 ) ) ;
#257 = CARTESIAN_POINT ( 'NONE',  ( 435.6362429428875771, -4.954045468119900875, -29.58874814594426894 ) ) ;
#258 = CARTESIAN_POINT ( 'NONE',  ( 434.9571326652046537, -5.649259533973981284, 29.46537410149323932 ) ) ;
#259 = B_SPLINE_CURVE_WITH_KNOTS ( 'NONE', 3,
 ( #66, #23, #181, #375, #149, #339, #264, #180, #224, #71, #379, #217, #139, #296, #306, #458, #298, #374, #112, #451, #267, #384, #255, #449, #103, #276, #199, #427, #501, #78, #389, #77, #108, #308, #117, #35, #426, #153, #490, #39, #232, #461, #309, #70, #115, #274 ),
 .UNSPECIFIED., .F., .F.,
 ( 4, 2, 2, 2, 2, 2, 2, 2, 2, 2, 2, 2, 2, 2, 2, 2, 2, 2, 2, 2, 2, 2, 4 ),
 ( 1.025280324005819152E-18, 0.001471381996746706560, 0.002207072995120059299, 0.002942763993493411820, 0.004414145990240179313, 0.005149836988613564794, 0.005885527986986949407, 0.007356909983733718635, 0.008828291980480488729, 0.009563982978853875078, 0.01029967397722725969, 0.01177105597397403239, 0.01324243797072080335, 0.01471381996746757258, 0.01544951096584096240, 0.01618520196421434701, 0.01692089296258773162, 0.01765658396096111624, 0.01912796595770777097, 0.02059934795445442571, 0.02207072995120107697, 0.02280642094957441995, 0.02354211194794776293 ),
 .UNSPECIFIED. ) ;
#260 = CARTESIAN_POINT ( 'NONE',  ( 429.7503129760730189, -7.499922413759627204, -29.04739512923570999 ) ) ;
#261 = AXIS2_PLACEMENT_3D ( 'NONE', #190, #351, #387 ) ;
#262 = CARTESIAN_POINT ( 'NONE',  ( 427.5804393426315642, -7.116086327766453223, 29.14445097702282084 ) ) ;
#263 = CARTESIAN_POINT ( 'NONE',  ( 20.00000000000000000, 0.000000000000000000, 0.000000000000000000 ) ) ;
#264 = CARTESIAN_POINT ( 'NONE',  ( 437.0196457003661408, 2.652345673097039391, -29.88339017209212400 ) ) ;
#265 = PERSON_AND_ORGANIZATION_ROLE ( 'creator' ) ;
#266 = CARTESIAN_POINT ( 'NONE',  ( 0.000000000000000000, 4.286263797015736496E-15, -35.00000000000000000 ) ) ;
#267 = CARTESIAN_POINT ( 'NONE',  ( 431.7093672621809333, 7.306784571400266159, -29.09662152377190125 ) ) ;
#268 = CALENDAR_DATE ( 2026, 10, 4 ) ;
#269 = ORIENTED_EDGE ( 'NONE', *, *, #444, .T. ) ;
#270 = LINE ( 'NONE', #498, #194 ) ;
#271 = LOCAL_TIME ( 15, 3, 31.00000000000000000, #152 ) ;
#272 = PLANE ( 'NONE',  #447 ) ;
#273 = EDGE_LOOP ( 'NONE', ( #198, #157 ) ) ;
#274 = CARTESIAN_POINT ( 'NONE',  ( 422.5000000000000000, 3.673932979016063634E-15, -30.00000000000000000 ) ) ;
#275 = ORIENTED_EDGE ( 'NONE', *, *, #124, .F. ) ;
#276 = CARTESIAN_POINT ( 'NONE',  ( 428.0489514086906411, 7.258427441106794831, -29.10884893719727984 ) ) ;
#277 = CARTESIAN_POINT ( 'NONE',  ( 0.000000000000000000, 0.000000000000000000, 0.000000000000000000 ) ) ;
#278 = VECTOR ( 'NONE', #433, 1000.000000000000000 ) ;
#279 = ORIENTED_EDGE ( 'NONE', *, *, #145, .T. ) ;
#280 = B_SPLINE_CURVE_WITH_KNOTS ( 'NONE', 3,
 ( #487, #329, #17, #485, #99, #14, #58, #481, #211, #142, #134, #131, #299, #251, #171, #65, #93, #412, #335, #248, #297, #288, #452, #260, #448, #102, #254, #138, #175, #450, #338, #140, #20, #54, #294, #257, #400, #406, #408, #104, #371, #63, #442, #178, #61 ),
 .UNSPECIFIED., .F., .F.,
 ( 4, 2, 2, 2, 2, 2, 2, 2, 2, 2, 1, 2, 2, 2, 2, 2, 2, 2, 2, 2, 2, 2, 4 ),
 ( 0.02354211194794776293, 0.02501309743367226279, 0.02648408291939676265, 0.02721957566225898309, 0.02795506840512120006, 0.02942605389084572767, 0.03016154663370804873, 0.03089703937657037325, 0.03236802486229488351, 0.03310351760515713865, 0.03383901034801939378, 0.03457450309088164198, 0.03530999583374390405, 0.03678098131946857391, 0.03825196680519324377, 0.03972295229091792057, 0.04045844503378025203, 0.04119393777664259043, 0.04192943051950492883, 0.04266492326236726723, 0.04413590874809203424, 0.04560689423381680124, 0.04707787971954156825 ),
 .UNSPECIFIED. ) ;
#281 = CARTESIAN_POINT ( 'NONE',  ( 437.5000000000000000, -1.055639116014359845E-15, 30.00000000000000000 ) ) ;
#282 = CARTESIAN_POINT ( 'NONE',  ( 435.6362429428875771, 4.954045468119899986, 29.58874814594426894 ) ) ;
#283 = LINE ( 'NONE', #438, #176 ) ;
#284 = AXIS2_PLACEMENT_3D ( 'NONE', #6, #202, #165 ) ;
#285 = DIRECTION ( 'NONE',  ( -1.000000000000000000, 0.000000000000000000, 0.000000000000000000 ) ) ;
#286 = CIRCLE ( 'NONE', #11, 30.00000000000000000 ) ;
#287 = CARTESIAN_POINT ( 'NONE',  ( 432.4223655301839813, 7.114909328492518448, 29.14472982325569106 ) ) ;
#288 = CARTESIAN_POINT ( 'NONE',  ( 429.0105034856175621, -7.438523474267928925, -29.06318988134012571 ) ) ;
#289 = CARTESIAN_POINT ( 'NONE',  ( 434.5695862971853671, 5.952199761782162035, 29.40401886732306025 ) ) ;
#290 = PERSON_AND_ORGANIZATION ( #51, #390 ) ;
#291 = CARTESIAN_POINT ( 'NONE',  ( 435.9469883213742492, 4.576366562774983215, 29.64951015493231523 ) ) ;
#292 = PERSON_AND_ORGANIZATION_ROLE ( 'classification_officer' ) ;
#293 = CC_DESIGN_APPROVAL ( #363, ( #229 ) ) ;
#294 = CARTESIAN_POINT ( 'NONE',  ( 435.4724339029295379, -5.134362191894081384, -29.55788981156098316 ) ) ;
#295 = EDGE_CURVE ( 'NONE', #8, #358, #310, .T. ) ;
#296 = CARTESIAN_POINT ( 'NONE',  ( 434.9571326652047674, 5.649259533973981284, -29.46537410149324288 ) ) ;
#297 = CARTESIAN_POINT ( 'NONE',  ( 428.5253702175074864, -7.365788337660883478, -29.08181996851923401 ) ) ;
#298 = CARTESIAN_POINT ( 'NONE',  ( 433.3281545754525155, 6.738822152118832953, -29.23397560473592094 ) ) ;
#299 = CARTESIAN_POINT ( 'NONE',  ( 425.0504561429189039, -5.640244823291316045, -29.46545240038946645 ) ) ;
#300 = CARTESIAN_POINT ( 'NONE',  ( 431.9510732255687344, -7.245951031218156757, 29.11188152886203895 ) ) ;
#301 = CIRCLE ( 'NONE', #130, 35.00000000000000000 ) ;
#302 = CARTESIAN_POINT ( 'NONE',  ( 429.0124792552373378, -7.450916876608287609, 29.06017365853577417 ) ) ;
#303 = COORDINATED_UNIVERSAL_TIME_OFFSET ( 8, 0, .AHEAD. ) ;
#304 = ADVANCED_FACE ( 'NONE', ( #230 ), #30, .T. ) ;
#305 = CARTESIAN_POINT ( 'NONE',  ( 440.0000000000000000, 0.000000000000000000, 0.000000000000000000 ) ) ;
#306 = CARTESIAN_POINT ( 'NONE',  ( 434.5807821420978598, 5.958973722094059511, -29.40355698278097307 ) ) ;
#307 = DIRECTION ( 'NONE',  ( 1.000000000000000000, 0.000000000000000000, 0.000000000000000000 ) ) ;
#308 = CARTESIAN_POINT ( 'NONE',  ( 425.0524552059724215, 5.641953339250027177, -29.46512147886504351 ) ) ;
#309 = CARTESIAN_POINT ( 'NONE',  ( 422.5606211911174341, 0.9832625766564727643, -29.98489290977617117 ) ) ;
#310 = CIRCLE ( 'NONE', #503, 35.00000000000000000 ) ;
#311 = ORIENTED_EDGE ( 'NONE', *, *, #195, .F. ) ;
#312 = DIRECTION ( 'NONE',  ( -1.000000000000000000, 0.000000000000000000, 0.000000000000000000 ) ) ;
#313 = CYLINDRICAL_SURFACE ( 'NONE', #317, 7.500000000000007105 ) ;
#314 = DIRECTION ( 'NONE',  ( -1.000000000000000000, 0.000000000000000000, 0.000000000000000000 ) ) ;
#315 = ORIENTED_EDGE ( 'NONE', *, *, #204, .T. ) ;
#316 = VERTEX_POINT ( 'NONE', #424 ) ;
#317 = AXIS2_PLACEMENT_3D ( 'NONE', #79, #127, #357 ) ;
#318 = CC_DESIGN_DATE_AND_TIME_ASSIGNMENT ( #441, #95, ( #431 ) ) ;
#319 = ORIENTED_EDGE ( 'NONE', *, *, #201, .F. ) ;
#320 = LINE ( 'NONE', #246, #325 ) ;
#321 = CARTESIAN_POINT ( 'NONE',  ( 430.9804303353270711, 7.451838451150900156, 29.05993554484959063 ) ) ;
#322 = ORIENTED_EDGE ( 'NONE', *, *, #179, .T. ) ;
#323 = CARTESIAN_POINT ( 'NONE',  ( 423.6313564880953777, 3.968669111447772124, 29.73704564188273380 ) ) ;
#324 = APPROVAL ( #72, '未指定' ) ;
#325 = VECTOR ( 'NONE', #430, 1000.000000000000000 ) ;
#326 = APPLICATION_CONTEXT ( 'configuration controlled 3d designs of mechanical parts and assemblies' ) ;
#327 = CARTESIAN_POINT ( 'NONE',  ( 437.1037601261867280, -2.418161407108511796, 29.90332002540619882 ) ) ;
#328 = CARTESIAN_POINT ( 'NONE',  ( 425.6263800944239506, 6.097607577758229702, 29.37411059642588995 ) ) ;
#329 = CARTESIAN_POINT ( 'NONE',  ( 422.4999999999999432, -0.4905146943063313225, -30.00000000000000711 ) ) ;
#330 = CARTESIAN_POINT ( 'NONE',  ( 429.5009593062283102, 7.487435690219312434, 29.05062726243437865 ) ) ;
#331 = LOCAL_TIME ( 15, 3, 31.00000000000000000, #421 ) ;
#332 =( NAMED_UNIT ( * ) PLANE_ANGLE_UNIT ( ) SI_UNIT ( $, .RADIAN. ) );
#333 = CARTESIAN_POINT ( 'NONE',  ( 423.4964561479172858, -3.767222364970466586, 29.76534298343983664 ) ) ;
#334 = ORIENTED_EDGE ( 'NONE', *, *, #107, .T. ) ;
#335 = CARTESIAN_POINT ( 'NONE',  ( 427.5811138524728108, -7.103464565505893447, -29.14697596698292159 ) ) ;
#336 = CARTESIAN_POINT ( 'NONE',  ( 422.5000000000000000, 7.418410087374944410E-21, 30.00000000000000000 ) ) ;
#337 = EDGE_CURVE ( 'NONE', #352, #81, #155, .T. ) ;
#338 = CARTESIAN_POINT ( 'NONE',  ( 434.3709314595447495, -6.099624826751242956, -29.37369707674586294 ) ) ;
#339 = CARTESIAN_POINT ( 'NONE',  ( 437.1037601261865575, 2.418161407108510907, -29.90332002540619172 ) ) ;
#340 = DATE_AND_TIME ( #182, #469 ) ;
#341 = CC_DESIGN_PERSON_AND_ORGANIZATION_ASSIGNMENT ( #27, #265, ( #229 ) ) ;
#342 = CARTESIAN_POINT ( 'NONE',  ( 20.00000000000000000, 35.00000000000000000, 0.000000000000000000 ) ) ;
#343 = APPROVAL_PERSON_ORGANIZATION ( #114, #363, #417 ) ;
#344 = CARTESIAN_POINT ( 'NONE',  ( 422.8850480195970363, -2.422339572387714579, 29.90550339825158588 ) ) ;
#345 = CALENDAR_DATE ( 2026, 10, 4 ) ;
#346 = ORIENTED_EDGE ( 'NONE', *, *, #337, .F. ) ;
#347 = LINE ( 'NONE', #266, #97 ) ;
#348 = CARTESIAN_POINT ( 'NONE',  ( 422.5606211911174910, -0.9832625766564696557, 29.98489290977617472 ) ) ;
#349 = SECURITY_CLASSIFICATION_LEVEL ( 'unclassified' ) ;
#350 = ADVANCED_FACE ( 'NONE', ( #192 ), #504, .T. ) ;
#351 = DIRECTION ( 'NONE',  ( -1.000000000000000000, 0.000000000000000000, 0.000000000000000000 ) ) ;
#352 = VERTEX_POINT ( 'NONE', #223 ) ;
#353 = DIRECTION ( 'NONE',  ( 0.000000000000000000, 0.000000000000000000, 1.000000000000000000 ) ) ;
#354 = CARTESIAN_POINT ( 'NONE',  ( 20.00000000000000000, 0.000000000000000000, 0.000000000000000000 ) ) ;
#355 = PRODUCT_DEFINITION_FORMATION_WITH_SPECIFIED_SOURCE ( '任何', '', #121, .NOT_KNOWN. ) ;
#356 = ADVANCED_BREP_SHAPE_REPRESENTATION ( 'SHAFT 07_\X2\9ed88ba4\X0\_sldprt', ( #13, #462 ), #106 ) ;
#357 = DIRECTION ( 'NONE',  ( 1.000000000000000000, 0.000000000000000000, 0.000000000000000000 ) ) ;
#358 = VERTEX_POINT ( 'NONE', #465 ) ;
#359 = CARTESIAN_POINT ( 'NONE',  ( 440.0000000000000000, 0.000000000000000000, 30.00000000000000000 ) ) ;
#360 = DIRECTION ( 'NONE',  ( 0.000000000000000000, 0.000000000000000000, 1.000000000000000000 ) ) ;
#361 = ORIENTED_EDGE ( 'NONE', *, *, #12, .F. ) ;
#362 = CARTESIAN_POINT ( 'NONE',  ( 0.000000000000000000, 0.000000000000000000, 0.000000000000000000 ) ) ;
#363 = APPROVAL ( #253, '未指定' ) ;
#364 = CARTESIAN_POINT ( 'NONE',  ( 437.4509595093422831, -0.9866354491309847763, 29.98763338499469100 ) ) ;
#365 = CARTESIAN_POINT ( 'NONE',  ( 437.5000000000000000, -0.4976690225003687074, 30.00000000000000355 ) ) ;
#366 = SHAPE_DEFINITION_REPRESENTATION ( #126, #356 ) ;
#367 = AXIS2_PLACEMENT_3D ( 'NONE', #472, #392, #42 ) ;
#368 =( NAMED_UNIT ( * ) SI_UNIT ( $, .STERADIAN. ) SOLID_ANGLE_UNIT ( ) );
#369 = CARTESIAN_POINT ( 'NONE',  ( 425.4301489099079276, 5.952042260788879879, 29.40405481820603484 ) ) ;
#370 = APPLICATION_PROTOCOL_DEFINITION ( 'international standard', 'config_control_design', 1994, #326 ) ;
#371 = CARTESIAN_POINT ( 'NONE',  ( 437.1115035431938622, -2.432189754007009874, -29.90468273597378612 ) ) ;
#372 = CARTESIAN_POINT ( 'NONE',  ( 423.1665960971872096, 3.100705601562545155, 29.84019265033174761 ) ) ;
#373 = APPROVAL ( #57, '未指定' ) ;
#374 = CARTESIAN_POINT ( 'NONE',  ( 432.6518920499054275, 7.019761589587382389, -29.16731407996627468 ) ) ;
#375 = CARTESIAN_POINT ( 'NONE',  ( 437.3071187278069374, 1.707652680602064876, -29.95232584805419052 ) ) ;
#376 = EDGE_CURVE ( 'NONE', #44, #460, #148, .T. ) ;
#377 = CARTESIAN_POINT ( 'NONE',  ( 422.5974646534758676, -1.230095523224917331, 29.97574577311586097 ) ) ;
#378 = PERSON_AND_ORGANIZATION ( #51, #390 ) ;
#379 = CARTESIAN_POINT ( 'NONE',  ( 435.9503866515069035, 4.572015225994858767, -29.65018844264649545 ) ) ;
#380 = DATE_TIME_ROLE ( 'creation_date' ) ;
#381 = ORIENTED_EDGE ( 'NONE', *, *, #46, .T. ) ;
#382 = DIRECTION ( 'NONE',  ( -1.000000000000000000, 0.000000000000000000, 0.000000000000000000 ) ) ;
#383 = VECTOR ( 'NONE', #468, 1000.000000000000000 ) ;
#384 = CARTESIAN_POINT ( 'NONE',  ( 430.9825142430076994, 7.451765871373286387, -29.05995741359842555 ) ) ;
#385 = CARTESIAN_POINT ( 'NONE',  ( 0.000000000000000000, 0.000000000000000000, 0.000000000000000000 ) ) ;
#386 = VERTEX_POINT ( 'NONE', #187 ) ;
#387 = DIRECTION ( 'NONE',  ( 0.000000000000000000, 0.000000000000000000, 1.000000000000000000 ) ) ;
#388 = CARTESIAN_POINT ( 'NONE',  ( 440.0000000000000000, 3.673940397442059178E-15, -30.00000000000000000 ) ) ;
#389 = CARTESIAN_POINT ( 'NONE',  ( 426.0315601307016777, 6.368742968804856019, -29.31651947262572122 ) ) ;
#390 = ORGANIZATION ( '未指定', '未指定', '' ) ;
#391 = ORIENTED_EDGE ( 'NONE', *, *, #204, .F. ) ;
#392 = DIRECTION ( 'NONE',  ( -1.000000000000000000, 0.000000000000000000, 0.000000000000000000 ) ) ;
#393 = ORIENTED_EDGE ( 'NONE', *, *, #159, .F. ) ;
#394 = B_SPLINE_CURVE_WITH_KNOTS ( 'NONE', 3,
 ( #240, #395, #45, #242, #92, #372, #49, #399, #323, #7, #9, #18, #398, #369, #328, #482, #129, #479, #440, #207, #166, #174, #330, #172, #132, #321, #206, #287, #473, #168, #135, #289, #484, #215, #128, #282, #291, #212, #435, #55, #209, #88, #247, #401, #445 ),
 .UNSPECIFIED., .F., .F.,
 ( 4, 2, 2, 2, 2, 2, 2, 2, 2, 2, 1, 2, 2, 2, 2, 2, 2, 2, 2, 2, 2, 2, 4 ),
 ( 0.02354211194794776640, 0.02501309743367226973, 0.02648408291939677306, 0.02721957566225899003, 0.02795506840512120700, 0.02942605389084573808, 0.03016154663370805913, 0.03089703937657038019, 0.03236802486229489045, 0.03310351760515714559, 0.03383901034801939378, 0.03457450309088164891, 0.03530999583374390405, 0.03678098131946858085, 0.03825196680519325071, 0.03972295229091792057, 0.04045844503378025897, 0.04119393777664259737, 0.04192943051950492883, 0.04266492326236727417, 0.04413590874809203424, 0.04560689423381680818, 0.04707787971954156825 ),
 .UNSPECIFIED. ) ;
#395 = CARTESIAN_POINT ( 'NONE',  ( 422.5000000000000000, 0.4905146943063350418, 30.00000000000001776 ) ) ;
#396 = ORIENTED_EDGE ( 'NONE', *, *, #201, .T. ) ;
#397 = FACE_OUTER_BOUND ( 'NONE', #273, .T. ) ;
#398 = CARTESIAN_POINT ( 'NONE',  ( 425.0504561429189039, 5.640244823291319598, 29.46545240038947000 ) ) ;
#399 = CARTESIAN_POINT ( 'NONE',  ( 423.5037438589882868, 3.756228388379402983, 29.76471930061524063 ) ) ;
#400 = CARTESIAN_POINT ( 'NONE',  ( 435.9469883213742492, -4.576366562774982327, -29.64951015493231523 ) ) ;
#401 = CARTESIAN_POINT ( 'NONE',  ( 437.5000000000001705, 0.4975349096369345858, 30.00000000000000355 ) ) ;
#402 = APPROVAL_PERSON_ORGANIZATION ( #378, #324, #24 ) ;
#403 = CARTESIAN_POINT ( 'NONE',  ( 435.6382405445001496, -4.951834820701799700, 29.58912519524126949 ) ) ;
#404 = EDGE_CURVE ( 'NONE', #2, #118, #83, .T. ) ;
#405 = COORDINATED_UNIVERSAL_TIME_OFFSET ( 8, 0, .AHEAD. ) ;
#406 = CARTESIAN_POINT ( 'NONE',  ( 436.0946531463458200, -4.377862026849593136, -29.67957032641513848 ) ) ;
#407 = CARTESIAN_POINT ( 'NONE',  ( 424.3482116855629442, -4.954662686481929867, 29.59013281602890544 ) ) ;
#408 = CARTESIAN_POINT ( 'NONE',  ( 436.5051833849608443, -3.764901158012457394, -29.76568161519924516 ) ) ;
#409 = CARTESIAN_POINT ( 'NONE',  ( 430.9825142430077562, -7.451765871373288164, 29.05995741359843976 ) ) ;
#410 = AXIS2_PLACEMENT_3D ( 'NONE', #419, #500, #494 ) ;
#411 = EDGE_CURVE ( 'NONE', #8, #386, #347, .T. ) ;
#412 = CARTESIAN_POINT ( 'NONE',  ( 427.3479348947640801, -7.019797518865682484, -29.16730953790216319 ) ) ;
#413 = CYLINDRICAL_SURFACE ( 'NONE', #228, 7.500000000000007105 ) ;
#414 = AXIS2_PLACEMENT_3D ( 'NONE', #385, #32, #146 ) ;
#415 = DIRECTION ( 'NONE',  ( 0.000000000000000000, 0.000000000000000000, 1.000000000000000000 ) ) ;
#416 = CARTESIAN_POINT ( 'NONE',  ( 422.5120066071089582, -0.4910369687930125071, 29.99699136247963693 ) ) ;
#417 = APPROVAL_ROLE ( '' ) ;
#418 = CIRCLE ( 'NONE', #210, 35.00000000000000000 ) ;
#419 = CARTESIAN_POINT ( 'NONE',  ( 440.0000000000000000, 0.000000000000000000, 0.000000000000000000 ) ) ;
#420 = CARTESIAN_POINT ( 'NONE',  ( 426.8975496660465865, -6.832681869155027066, 29.21170801783075888 ) ) ;
#421 = COORDINATED_UNIVERSAL_TIME_OFFSET ( 8, 0, .AHEAD. ) ;
#422 = DIRECTION ( 'NONE',  ( 0.000000000000000000, 0.000000000000000000, 1.000000000000000000 ) ) ;
#423 = ORIENTED_EDGE ( 'NONE', *, *, #376, .F. ) ;
#424 = CARTESIAN_POINT ( 'NONE',  ( 437.5000000000000000, 1.055639116014359845E-15, -30.00000000000000000 ) ) ;
#425 = ORIENTED_EDGE ( 'NONE', *, *, #101, .F. ) ;
#426 = CARTESIAN_POINT ( 'NONE',  ( 424.0393453021816867, 4.578061004014043256, -29.65145805373608567 ) ) ;
#427 = CARTESIAN_POINT ( 'NONE',  ( 426.8975496660467002, 6.832681869155027066, -29.21170801783076243 ) ) ;
#428 = LINE ( 'NONE', #466, #278 ) ;
#429 = ADVANCED_FACE ( 'NONE', ( #437 ), #90, .F. ) ;
#430 = DIRECTION ( 'NONE',  ( -1.000000000000000000, 0.000000000000000000, 0.000000000000000000 ) ) ;
#431 = SECURITY_CLASSIFICATION ( '', '', #349 ) ;
#432 = LINE ( 'NONE', #85, #56 ) ;
#433 = DIRECTION ( 'NONE',  ( -1.000000000000000000, 0.000000000000000000, 0.000000000000000000 ) ) ;
#434 = ORIENTED_EDGE ( 'NONE', *, *, #124, .T. ) ;
#435 = CARTESIAN_POINT ( 'NONE',  ( 436.5051833849608443, 3.764901158012458726, 29.76568161519924516 ) ) ;
#436 = ADVANCED_FACE ( 'NONE', ( #244 ), #439, .T. ) ;
#437 = FACE_OUTER_BOUND ( 'NONE', #164, .T. ) ;
#438 = CARTESIAN_POINT ( 'NONE',  ( 0.000000000000000000, 0.000000000000000000, 30.00000000000000000 ) ) ;
#439 = CYLINDRICAL_SURFACE ( 'NONE', #284, 30.00000000000000000 ) ;
#440 = CARTESIAN_POINT ( 'NONE',  ( 427.5811138524729245, 7.103464565505895223, 29.14697596698292870 ) ) ;
#441 = DATE_AND_TIME ( #268, #331 ) ;
#442 = CARTESIAN_POINT ( 'NONE',  ( 437.4509719814529376, -0.9878754551366497605, -29.98763414317784992 ) ) ;
#443 = PLANE ( 'NONE',  #237 ) ;
#444 = EDGE_CURVE ( 'NONE', #460, #81, #320, .T. ) ;
#445 = CARTESIAN_POINT ( 'NONE',  ( 437.5000000000000000, -1.055639116014359845E-15, 30.00000000000000000 ) ) ;
#446 = CALENDAR_DATE ( 2026, 10, 4 ) ;
#447 = AXIS2_PLACEMENT_3D ( 'NONE', #342, #151, #422 ) ;
#448 = CARTESIAN_POINT ( 'NONE',  ( 430.4923495973503691, -7.500154075971718015, -29.04733531431285698 ) ) ;
#449 = CARTESIAN_POINT ( 'NONE',  ( 429.5117689435903117, 7.500205360646866382, -29.04732207266959776 ) ) ;
#450 = CARTESIAN_POINT ( 'NONE',  ( 433.7575460812894335, -6.509432145096924138, -29.28660624043990524 ) ) ;
#451 = CARTESIAN_POINT ( 'NONE',  ( 431.9510732255687913, 7.245951031218154981, -29.11188152886204250 ) ) ;
#452 = CARTESIAN_POINT ( 'NONE',  ( 429.5009593062283670, -7.487435690219312434, -29.05062726243437510 ) ) ;
#453 = CARTESIAN_POINT ( 'NONE',  ( 426.6731915203246217, -6.726254618436411370, 29.23647735643820411 ) ) ;
#454 = CIRCLE ( 'NONE', #89, 35.00000000000000000 ) ;
#455 = CARTESIAN_POINT ( 'NONE',  ( 422.7424486435708673, -1.954637183720548288, 29.94016152399550990 ) ) ;
#456 = DATE_AND_TIME ( #446, #4 ) ;
#457 = DIRECTION ( 'NONE',  ( -1.000000000000000000, 0.000000000000000000, 0.000000000000000000 ) ) ;
#458 = CARTESIAN_POINT ( 'NONE',  ( 433.7615340881773704, 6.507210935373893612, -29.28710871531714588 ) ) ;
#459 = APPLICATION_PROTOCOL_DEFINITION ( 'international standard', 'config_control_design', 1994, #75 ) ;
#460 = VERTEX_POINT ( 'NONE', #52 ) ;
#461 = CARTESIAN_POINT ( 'NONE',  ( 422.5974646534757539, 1.230095523224919773, -29.97574577311584676 ) ) ;
#462 = AXIS2_PLACEMENT_3D ( 'NONE', #22, #110, #307 ) ;
#463 = FACE_OUTER_BOUND ( 'NONE', #163, .T. ) ;
#464 = ORIENTED_EDGE ( 'NONE', *, *, #411, .T. ) ;
#465 = CARTESIAN_POINT ( 'NONE',  ( 20.00000000000000000, 0.000000000000000000, 35.00000000000000000 ) ) ;
#466 = CARTESIAN_POINT ( 'NONE',  ( 0.000000000000000000, 0.000000000000000000, 35.00000000000000000 ) ) ;
#467 = ADVANCED_FACE ( 'NONE', ( #238 ), #208, .T. ) ;
#468 = DIRECTION ( 'NONE',  ( -1.000000000000000000, 0.000000000000000000, 0.000000000000000000 ) ) ;
#469 = LOCAL_TIME ( 15, 3, 31.00000000000000000, #303 ) ;
#470 = ORIENTED_EDGE ( 'NONE', *, *, #145, .F. ) ;
#471 = FACE_OUTER_BOUND ( 'NONE', #236, .T. ) ;
#472 = CARTESIAN_POINT ( 'NONE',  ( 0.000000000000000000, 0.000000000000000000, 0.000000000000000000 ) ) ;
#473 = CARTESIAN_POINT ( 'NONE',  ( 433.3269368689221324, 6.739531184340663117, 29.23381484922108342 ) ) ;
#474 = EDGE_LOOP ( 'NONE', ( #241, #43 ) ) ;
#475 = DIRECTION ( 'NONE',  ( -1.000000000000000000, 0.000000000000000000, 0.000000000000000000 ) ) ;
#476 = AXIS2_PLACEMENT_3D ( 'NONE', #156, #312, #67 ) ;
#477 = VECTOR ( 'NONE', #119, 1000.000000000000000 ) ;
#478 = CARTESIAN_POINT ( 'NONE',  ( 440.0000000000000000, 30.00000000000000000, 0.000000000000000000 ) ) ;
#479 = CARTESIAN_POINT ( 'NONE',  ( 427.3479348947640233, 7.019797518865683372, 29.16730953790215608 ) ) ;
#480 = APPROVAL_DATE_TIME ( #340, #324 ) ;
#481 = CARTESIAN_POINT ( 'NONE',  ( 423.5037438589882868, -3.756228388379396765, -29.76471930061524063 ) ) ;
#482 = CARTESIAN_POINT ( 'NONE',  ( 426.2338798582039203, 6.504138381115591727, 29.28776109457456656 ) ) ;
#483 = COORDINATED_UNIVERSAL_TIME_OFFSET ( 8, 0, .AHEAD. ) ;
#484 = CARTESIAN_POINT ( 'NONE',  ( 434.9476188423967642, 5.641885209922748778, 29.46513429177110055 ) ) ;
#485 = CARTESIAN_POINT ( 'NONE',  ( 422.7420348296060979, -1.954202972945826788, -29.94026019973071939 ) ) ;
#486 = EDGE_CURVE ( 'NONE', #44, #316, #280, .T. ) ;
#487 = CARTESIAN_POINT ( 'NONE',  ( 422.5000000000000000, 3.673932979016063634E-15, -30.00000000000000000 ) ) ;
#488 = CARTESIAN_POINT ( 'NONE',  ( 434.5807821420978598, -5.958973722094059511, 29.40355698278097307 ) ) ;
#489 = EDGE_LOOP ( 'NONE', ( #36, #191, #279, #125, #269, #346, #144, #186 ) ) ;
#490 = CARTESIAN_POINT ( 'NONE',  ( 423.2608570180913716, 3.327795449961944652, -29.81832724936133516 ) ) ;
#491 = CARTESIAN_POINT ( 'NONE',  ( 425.0524552059723646, -5.641953339250024513, 29.46512147886505417 ) ) ;
#492 = APPROVAL_DATE_TIME ( #456, #363 ) ;
#493 = AXIS2_PLACEMENT_3D ( 'NONE', #478, #285, #84 ) ;
#494 = DIRECTION ( 'NONE',  ( 0.000000000000000000, 0.000000000000000000, 1.000000000000000000 ) ) ;
#495 = FACE_OUTER_BOUND ( 'NONE', #167, .T. ) ;
#496 = PERSON_AND_ORGANIZATION ( #51, #390 ) ;
#497 = CC_DESIGN_PERSON_AND_ORGANIZATION_ASSIGNMENT ( #290, #292, ( #431 ) ) ;
#498 = CARTESIAN_POINT ( 'NONE',  ( 437.5000000000000000, 0.000000000000000000, -30.00000000000000000 ) ) ;
#499 = PERSON_AND_ORGANIZATION_ROLE ( 'design_owner' ) ;
#500 = DIRECTION ( 'NONE',  ( -1.000000000000000000, 0.000000000000000000, 0.000000000000000000 ) ) ;
#501 = CARTESIAN_POINT ( 'NONE',  ( 426.6731915203246785, 6.726254618436413146, -29.23647735643820411 ) ) ;
#502 = CARTESIAN_POINT ( 'NONE',  ( 422.5000000000000000, 3.673932979016063634E-15, -30.00000000000000000 ) ) ;
#503 = AXIS2_PLACEMENT_3D ( 'NONE', #263, #382, #415 ) ;
#504 = CYLINDRICAL_SURFACE ( 'NONE', #476, 35.00000000000000000 ) ;
#505 = DIRECTION ( 'NONE',  ( 0.000000000000000000, 0.000000000000000000, 1.000000000000000000 ) ) ;
ENDSEC;
END-ISO-10303-21;
