ISO-10303-21;
HEADER;
FILE_DESCRIPTION (( 'STEP AP203' ),
    '1' );
FILE_NAME ('SHAFT 06_默认_sldprt.STEP',
    '2026-04-10T07:03:30',
    ( '' ),
    ( '' ),
    'SwSTEP 2.0',
    'SolidWorks 2022',
    '' );
FILE_SCHEMA (( 'CONFIG_CONTROL_DESIGN' ));
ENDSEC;

DATA;
#1 = CARTESIAN_POINT ( 'NONE',  ( 490.4945201305644105, 7.499793320937953922, -29.04742846085498087 ) ) ;
#2 = CARTESIAN_POINT ( 'NONE',  ( 486.0315601307015640, -6.368742968804819604, 29.31651947262573543 ) ) ;
#3 = CARTESIAN_POINT ( 'NONE',  ( 482.7424486435708104, -1.954637183720551397, 29.94016152399550634 ) ) ;
#4 = CARTESIAN_POINT ( 'NONE',  ( 489.0124792552373947, 7.450916876608289385, -29.06017365853578127 ) ) ;
#5 = CYLINDRICAL_SURFACE ( 'NONE', #259, 7.500000000000007105 ) ;
#6 = CARTESIAN_POINT ( 'NONE',  ( 497.5000000000000000, -1.055639116014359845E-15, 30.00000000000000000 ) ) ;
#7 = ORIENTED_EDGE ( 'NONE', *, *, #45, .T. ) ;
#8 = DIRECTION ( 'NONE',  ( 0.000000000000000000, 0.000000000000000000, 1.000000000000000000 ) ) ;
#9 = CARTESIAN_POINT ( 'NONE',  ( 487.5804393426315642, -7.116086327766449671, 29.14445097702281018 ) ) ;
#10 = DIRECTION ( 'NONE',  ( 0.000000000000000000, 0.000000000000000000, 1.000000000000000000 ) ) ;
#11 = PLANE ( 'NONE',  #501 ) ;
#12 = CARTESIAN_POINT ( 'NONE',  ( 482.5000000000000000, 3.673932979016063634E-15, -30.00000000000000000 ) ) ;
#13 = CARTESIAN_POINT ( 'NONE',  ( 497.2576339179960883, 1.954387703503987828, 29.94018149785235039 ) ) ;
#14 = EDGE_LOOP ( 'NONE', ( #105, #393, #447, #486, #377, #163, #489, #201 ) ) ;
#15 = CYLINDRICAL_SURFACE ( 'NONE', #20, 7.500000000000007105 ) ;
#16 =( GEOMETRIC_REPRESENTATION_CONTEXT ( 3 ) GLOBAL_UNCERTAINTY_ASSIGNED_CONTEXT ( ( #319 ) ) GLOBAL_UNIT_ASSIGNED_CONTEXT ( ( #176, #369, #374 ) ) REPRESENTATION_CONTEXT ( 'NONE', 'WORKASPACE' ) );
#17 = B_SPLINE_CURVE_WITH_KNOTS ( 'NONE', 3,
 ( #6, #172, #436, #324, #329, #487, #442, #91, #207, #326, #476, #141, #292, #103, #255, #168, #395, #146, #222, #492, #106, #186, #23, #65, #456, #113, #9, #310, #466, #123, #2, #230, #34, #350, #211, #330, #353, #320, #419, #44, #3, #70, #90, #231, #239, #125 ),
 .UNSPECIFIED., .F., .F.,
 ( 4, 2, 2, 2, 2, 2, 2, 2, 2, 2, 2, 2, 2, 2, 2, 2, 2, 2, 2, 2, 2, 2, 4 ),
 ( 1.025280324005750974E-18, 0.001471381996746662108, 0.002207072995119992078, 0.002942763993493322048, 0.004414145990239985023, 0.005149836988613316728, 0.005885527986986648433, 0.007356909983733311842, 0.008828291980479976986, 0.009563982978853309558, 0.01029967397722664386, 0.01177105597397330727, 0.01324243797071997589, 0.01471381996746663930, 0.01544951096583997534, 0.01618520196421330617, 0.01692089296258663875, 0.01765658396095997132, 0.01912796595770674749, 0.02059934795445352712, 0.02207072995120030329, 0.02280642094957367749, 0.02354211194794705170 ),
 .UNSPECIFIED. ) ;
#18 = CARTESIAN_POINT ( 'NONE',  ( 497.5000000000001137, 0.4975349096369329205, 30.00000000000000355 ) ) ;
#19 = AXIS2_PLACEMENT_3D ( 'NONE', #413, #291, #335 ) ;
#20 = AXIS2_PLACEMENT_3D ( 'NONE', #398, #10, #202 ) ;
#21 = CARTESIAN_POINT ( 'NONE',  ( 0.000000000000000000, 0.000000000000000000, 30.00000000000000000 ) ) ;
#22 = DIRECTION ( 'NONE',  ( 0.000000000000000000, 0.000000000000000000, 1.000000000000000000 ) ) ;
#23 = CARTESIAN_POINT ( 'NONE',  ( 490.4945201305644105, -7.499793320937953922, 29.04742846085498087 ) ) ;
#24 = ORIENTED_EDGE ( 'NONE', *, *, #238, .T. ) ;
#25 = APPLICATION_PROTOCOL_DEFINITION ( 'international standard', 'config_control_design', 1994, #243 ) ;
#26 = ORIENTED_EDGE ( 'NONE', *, *, #80, .T. ) ;
#27 = VECTOR ( 'NONE', #184, 1000.000000000000000 ) ;
#28 = DIRECTION ( 'NONE',  ( -1.000000000000000000, 0.000000000000000000, 0.000000000000000000 ) ) ;
#29 = FACE_BOUND ( 'NONE', #258, .T. ) ;
#30 = CARTESIAN_POINT ( 'NONE',  ( 483.2608570180914285, 3.327795449961982843, -29.81832724936133516 ) ) ;
#31 = CALENDAR_DATE ( 2026, 10, 4 ) ;
#32 = CARTESIAN_POINT ( 'NONE',  ( 489.5009593062283670, -7.487435690219312434, -29.05062726243437154 ) ) ;
#33 = CARTESIAN_POINT ( 'NONE',  ( 482.5120066071088445, 0.4910369687930007387, -29.99699136247963338 ) ) ;
#34 = CARTESIAN_POINT ( 'NONE',  ( 485.4306088535706749, -5.952352603980902046, 29.40398816018723238 ) ) ;
#35 = CARTESIAN_POINT ( 'NONE',  ( 496.5051833849610716, -3.764901158012451621, -29.76568161519924871 ) ) ;
#36 = APPROVAL_STATUS ( 'not_yet_approved' ) ;
#37 = CARTESIAN_POINT ( 'NONE',  ( 494.5807821420977461, 5.958973722094091485, -29.40355698278095886 ) ) ;
#38 = CALENDAR_DATE ( 2026, 10, 4 ) ;
#39 = ORIENTED_EDGE ( 'NONE', *, *, #80, .F. ) ;
#40 = AXIS2_PLACEMENT_3D ( 'NONE', #48, #318, #8 ) ;
#41 = CARTESIAN_POINT ( 'NONE',  ( 482.5606211911176047, 0.9832625766564527803, -29.98489290977618182 ) ) ;
#42 = ADVANCED_FACE ( 'NONE', ( #261 ), #213, .T. ) ;
#43 = CARTESIAN_POINT ( 'NONE',  ( 0.000000000000000000, 3.673940397442059178E-15, -30.00000000000000000 ) ) ;
#44 = CARTESIAN_POINT ( 'NONE',  ( 482.8850480195969794, -2.422339572387714579, 29.90550339825157522 ) ) ;
#45 = EDGE_CURVE ( 'NONE', #140, #93, #495, .T. ) ;
#46 = PERSON_AND_ORGANIZATION ( #175, #278 ) ;
#47 = EDGE_CURVE ( 'NONE', #50, #415, #371, .T. ) ;
#48 = CARTESIAN_POINT ( 'NONE',  ( 20.00000000000000000, 0.000000000000000000, 0.000000000000000000 ) ) ;
#49 = CARTESIAN_POINT ( 'NONE',  ( 486.6637639493749248, 6.735247220974164506, 29.23481582659699640 ) ) ;
#50 = VERTEX_POINT ( 'NONE', #64 ) ;
#51 = CARTESIAN_POINT ( 'NONE',  ( 500.0000000000000000, 0.000000000000000000, 0.000000000000000000 ) ) ;
#52 = CARTESIAN_POINT ( 'NONE',  ( 495.4724339029297653, 5.134362191894082272, 29.55788981156099737 ) ) ;
#53 = EDGE_LOOP ( 'NONE', ( #138, #181, #7, #83, #367, #110, #56, #441 ) ) ;
#54 = CARTESIAN_POINT ( 'NONE',  ( 20.00000000000000000, 4.286263797015736496E-15, -35.00000000000000000 ) ) ;
#55 = CARTESIAN_POINT ( 'NONE',  ( 482.5000000000001137, 0.4905146943063211640, 30.00000000000000355 ) ) ;
#56 = ORIENTED_EDGE ( 'NONE', *, *, #224, .F. ) ;
#57 = DIRECTION ( 'NONE',  ( -1.000000000000000000, 0.000000000000000000, 0.000000000000000000 ) ) ;
#58 = APPROVAL_PERSON_ORGANIZATION ( #306, #298, #148 ) ;
#59 = CARTESIAN_POINT ( 'NONE',  ( 494.5695862971853103, 5.952199761782162035, 29.40401886732305670 ) ) ;
#60 = VECTOR ( 'NONE', #180, 1000.000000000000000 ) ;
#61 = APPROVAL_PERSON_ORGANIZATION ( #391, #439, #196 ) ;
#62 = EDGE_LOOP ( 'NONE', ( #410, #288 ) ) ;
#63 = CARTESIAN_POINT ( 'NONE',  ( 496.7355646380316898, 3.334846121075548009, 29.81751830530993175 ) ) ;
#64 = CARTESIAN_POINT ( 'NONE',  ( 482.5000000000000000, 7.418410087374944410E-21, 30.00000000000000000 ) ) ;
#65 = CARTESIAN_POINT ( 'NONE',  ( 489.5117689435902548, -7.500205360646865493, 29.04732207266958710 ) ) ;
#66 = MECHANICAL_CONTEXT ( 'NONE', #243, 'mechanical' ) ;
#67 = CARTESIAN_POINT ( 'NONE',  ( 483.1665960971872096, -3.100705601562562030, -29.84019265033175117 ) ) ;
#68 = DIRECTION ( 'NONE',  ( -1.000000000000000000, 0.000000000000000000, 0.000000000000000000 ) ) ;
#69 = DIRECTION ( 'NONE',  ( -1.000000000000000000, 0.000000000000000000, 0.000000000000000000 ) ) ;
#70 = CARTESIAN_POINT ( 'NONE',  ( 482.5974646534760950, -1.230095523224913112, 29.97574577311585386 ) ) ;
#71 = PERSON_AND_ORGANIZATION_ROLE ( 'classification_officer' ) ;
#72 = CARTESIAN_POINT ( 'NONE',  ( 494.3709314595448632, -6.099624826751243845, -29.37369707674585939 ) ) ;
#73 = CARTESIAN_POINT ( 'NONE',  ( 486.8975496660466433, 6.832681869155026178, -29.21170801783075532 ) ) ;
#74 = CARTESIAN_POINT ( 'NONE',  ( 486.2338798582040340, -6.504138381115588174, -29.28776109457457721 ) ) ;
#75 = CARTESIAN_POINT ( 'NONE',  ( 485.4306088535707886, 5.952352603980902934, -29.40398816018723593 ) ) ;
#76 = AXIS2_PLACEMENT_3D ( 'NONE', #381, #28, #270 ) ;
#77 = SHAPE_DEFINITION_REPRESENTATION ( #479, #420 ) ;
#78 = CARTESIAN_POINT ( 'NONE',  ( 0.000000000000000000, 4.286263797015736496E-15, -35.00000000000000000 ) ) ;
#79 = DATE_AND_TIME ( #38, #500 ) ;
#80 = EDGE_CURVE ( 'NONE', #143, #403, #131, .T. ) ;
#81 = DIRECTION ( 'NONE',  ( 0.000000000000000000, 0.000000000000000000, 1.000000000000000000 ) ) ;
#82 = CYLINDRICAL_SURFACE ( 'NONE', #89, 35.00000000000000000 ) ;
#83 = ORIENTED_EDGE ( 'NONE', *, *, #454, .T. ) ;
#84 = CARTESIAN_POINT ( 'NONE',  ( 487.5804393426313936, 7.116086327766451447, -29.14445097702281373 ) ) ;
#85 = CALENDAR_DATE ( 2026, 10, 4 ) ;
#86 = PRODUCT_DEFINITION_FORMATION_WITH_SPECIFIED_SOURCE ( '任何', '', #137, .NOT_KNOWN. ) ;
#87 = EDGE_CURVE ( 'NONE', #482, #285, #299, .T. ) ;
#88 = VECTOR ( 'NONE', #185, 1000.000000000000000 ) ;
#89 = AXIS2_PLACEMENT_3D ( 'NONE', #165, #315, #470 ) ;
#90 = CARTESIAN_POINT ( 'NONE',  ( 482.5606211911176047, -0.9832625766564488945, 29.98489290977618182 ) ) ;
#91 = CARTESIAN_POINT ( 'NONE',  ( 496.7366890706831555, -3.332937694888622460, 29.81776834892824368 ) ) ;
#92 = EDGE_CURVE ( 'NONE', #249, #285, #355, .T. ) ;
#93 = VERTEX_POINT ( 'NONE', #124 ) ;
#94 = FACE_OUTER_BOUND ( 'NONE', #321, .T. ) ;
#95 = VERTEX_POINT ( 'NONE', #190 ) ;
#96 = CARTESIAN_POINT ( 'NONE',  ( 483.1665960971872664, 3.100705601562565139, 29.84019265033175827 ) ) ;
#97 = DIRECTION ( 'NONE',  ( -1.000000000000000000, 0.000000000000000000, 0.000000000000000000 ) ) ;
#98 = CARTESIAN_POINT ( 'NONE',  ( 482.7420348296060979, 1.954202972945876082, 29.94026019973071229 ) ) ;
#99 = ORIENTED_EDGE ( 'NONE', *, *, #317, .T. ) ;
#100 = DIRECTION ( 'NONE',  ( 0.000000000000000000, 0.000000000000000000, 1.000000000000000000 ) ) ;
#101 = CARTESIAN_POINT ( 'NONE',  ( 496.0946531463458200, 4.377862026849586918, 29.67957032641514914 ) ) ;
#102 = ORIENTED_EDGE ( 'NONE', *, *, #336, .T. ) ;
#103 = CARTESIAN_POINT ( 'NONE',  ( 494.9571326652046537, -5.649259533974030134, 29.46537410149322511 ) ) ;
#104 = CARTESIAN_POINT ( 'NONE',  ( 497.4509719814528239, 0.9878754551366484282, 29.98763414317786058 ) ) ;
#105 = ORIENTED_EDGE ( 'NONE', *, *, #407, .T. ) ;
#106 = CARTESIAN_POINT ( 'NONE',  ( 491.7093672621810470, -7.306784571400267936, 29.09662152377191191 ) ) ;
#107 = CC_DESIGN_PERSON_AND_ORGANIZATION_ASSIGNMENT ( #379, #111, ( #137 ) ) ;
#108 = CARTESIAN_POINT ( 'NONE',  ( 482.8854243124961840, 2.423210534174133457, 29.90541658718311524 ) ) ;
#109 = AXIS2_PLACEMENT_3D ( 'NONE', #214, #368, #134 ) ;
#110 = ORIENTED_EDGE ( 'NONE', *, *, #238, .F. ) ;
#111 = PERSON_AND_ORGANIZATION_ROLE ( 'design_owner' ) ;
#112 = ORIENTED_EDGE ( 'NONE', *, *, #387, .T. ) ;
#113 = CARTESIAN_POINT ( 'NONE',  ( 488.0489514086904137, -7.258427441106793943, 29.10884893719727629 ) ) ;
#114 = DATE_AND_TIME ( #339, #370 ) ;
#115 = CARTESIAN_POINT ( 'NONE',  ( 485.0504561429189607, -5.640244823291364007, -29.46545240038945934 ) ) ;
#116 = CARTESIAN_POINT ( 'NONE',  ( 500.0000000000000000, 0.000000000000000000, 30.00000000000000000 ) ) ;
#117 = LOCAL_TIME ( 15, 3, 30.00000000000000000, #273 ) ;
#118 = DATE_TIME_ROLE ( 'classification_date' ) ;
#119 = CARTESIAN_POINT ( 'NONE',  ( 484.0399869628953979, -4.579089799194183463, -29.65132052211538749 ) ) ;
#120 = CARTESIAN_POINT ( 'NONE',  ( 497.1037601261867849, 2.418161407108446515, -29.90332002540620593 ) ) ;
#121 = CARTESIAN_POINT ( 'NONE',  ( 495.9469883213744765, -4.576366562774981439, -29.64951015493231878 ) ) ;
#122 = DIRECTION ( 'NONE',  ( -1.000000000000000000, 0.000000000000000000, 0.000000000000000000 ) ) ;
#123 = CARTESIAN_POINT ( 'NONE',  ( 486.2408421516564090, -6.494527552002032245, 29.28882417035287489 ) ) ;
#124 = CARTESIAN_POINT ( 'NONE',  ( 497.5000000000000000, -1.055639116014359845E-15, 30.00000000000000000 ) ) ;
#125 = CARTESIAN_POINT ( 'NONE',  ( 482.5000000000000000, 7.418410087374944410E-21, 30.00000000000000000 ) ) ;
#126 = CALENDAR_DATE ( 2026, 10, 4 ) ;
#127 = CARTESIAN_POINT ( 'NONE',  ( 494.9571326652046537, 5.649259533974030134, -29.46537410149322511 ) ) ;
#128 = CARTESIAN_POINT ( 'NONE',  ( 482.5974646534760950, 1.230095523224915333, -29.97574577311585386 ) ) ;
#129 = APPROVAL_DATE_TIME ( #472, #150 ) ;
#130 = DIRECTION ( 'NONE',  ( -1.000000000000000000, 0.000000000000000000, 0.000000000000000000 ) ) ;
#131 = CIRCLE ( 'NONE', #302, 35.00000000000000000 ) ;
#132 = EDGE_CURVE ( 'NONE', #264, #143, #457, .T. ) ;
#133 = CC_DESIGN_APPROVAL ( #298, ( #301 ) ) ;
#134 = DIRECTION ( 'NONE',  ( 0.000000000000000000, 0.000000000000000000, 1.000000000000000000 ) ) ;
#135 = FACE_OUTER_BOUND ( 'NONE', #62, .T. ) ;
#136 = CARTESIAN_POINT ( 'NONE',  ( 487.3479348947640233, 7.019797518865659391, 29.16730953790217384 ) ) ;
#137 = PRODUCT ( 'SHAFT 06_\X2\9ed88ba4\X0\_sldprt', 'SHAFT 06_\X2\9ed88ba4\X0\_sldprt', '', ( #66 ) ) ;
#138 = ORIENTED_EDGE ( 'NONE', *, *, #87, .F. ) ;
#139 = CARTESIAN_POINT ( 'NONE',  ( 500.0000000000000000, 0.000000000000000000, 0.000000000000000000 ) ) ;
#140 = VERTEX_POINT ( 'NONE', #116 ) ;
#141 = CARTESIAN_POINT ( 'NONE',  ( 495.6382405445002632, -4.951834820701803253, 29.58912519524128371 ) ) ;
#142 = CARTESIAN_POINT ( 'NONE',  ( 484.3489552041644970, 4.955277654340119575, 29.59001043722524216 ) ) ;
#143 = VERTEX_POINT ( 'NONE', #382 ) ;
#144 = EDGE_CURVE ( 'NONE', #200, #264, #432, .T. ) ;
#145 = CARTESIAN_POINT ( 'NONE',  ( 482.5000000000000000, 3.673932979016063634E-15, -30.00000000000000000 ) ) ;
#146 = CARTESIAN_POINT ( 'NONE',  ( 492.6518920499053706, -7.019761589587383277, 29.16731407996627823 ) ) ;
#147 = EDGE_LOOP ( 'NONE', ( #206, #428 ) ) ;
#148 = APPROVAL_ROLE ( '' ) ;
#149 = CARTESIAN_POINT ( 'NONE',  ( 497.2576339179961451, -1.954387703503990492, -29.94018149785235394 ) ) ;
#150 = APPROVAL ( #397, '未指定' ) ;
#151 = B_SPLINE_CURVE_WITH_KNOTS ( 'NONE', 3,
 ( #388, #276, #424, #503, #234, #120, #197, #199, #356, #347, #430, #422, #160, #127, #37, #352, #505, #383, #162, #357, #305, #157, #1, #164, #4, #308, #84, #73, #460, #349, #166, #429, #75, #314, #268, #471, #394, #229, #30, #237, #316, #128, #41, #33, #194, #312 ),
 .UNSPECIFIED., .F., .F.,
 ( 4, 2, 2, 2, 2, 2, 2, 2, 2, 2, 2, 2, 2, 2, 2, 2, 2, 2, 2, 2, 2, 2, 4 ),
 ( 1.025280324005750974E-18, 0.001471381996746661458, 0.002207072995119991644, 0.002942763993493321614, 0.004414145990239985023, 0.005149836988613316728, 0.005885527986986647565, 0.007356909983733310975, 0.008828291980479975251, 0.009563982978853307823, 0.01029967397722664040, 0.01177105597397330554, 0.01324243797071997068, 0.01471381996746663756, 0.01544951096583997013, 0.01618520196421329924, 0.01692089296258663528, 0.01765658396095996785, 0.01912796595770674402, 0.02059934795445352365, 0.02207072995120029982, 0.02280642094957367402, 0.02354211194794704823 ),
 .UNSPECIFIED. ) ;
#152 = CARTESIAN_POINT ( 'NONE',  ( 497.5000000000000000, 1.055639116014359845E-15, -30.00000000000000000 ) ) ;
#153 = EDGE_CURVE ( 'NONE', #403, #143, #384, .T. ) ;
#154 = CC_DESIGN_SECURITY_CLASSIFICATION ( #301, ( #86 ) ) ;
#155 = DIRECTION ( 'NONE',  ( -1.000000000000000000, 0.000000000000000000, 0.000000000000000000 ) ) ;
#156 = VECTOR ( 'NONE', #68, 1000.000000000000000 ) ;
#157 = CARTESIAN_POINT ( 'NONE',  ( 490.9825142430079268, 7.451765871373290828, -29.05995741359843976 ) ) ;
#158 = APPROVAL_STATUS ( 'not_yet_approved' ) ;
#159 = CARTESIAN_POINT ( 'NONE',  ( 491.9437080713406090, -7.260381455397899586, -29.10835981801410455 ) ) ;
#160 = CARTESIAN_POINT ( 'NONE',  ( 495.4739708784137520, 5.132734866319940359, -29.55817372314889369 ) ) ;
#161 = CARTESIAN_POINT ( 'NONE',  ( 484.3489552041646675, -4.955277654340121352, -29.59001043722524571 ) ) ;
#162 = CARTESIAN_POINT ( 'NONE',  ( 492.4216150523391775, 7.102554020676442370, -29.14719847396458974 ) ) ;
#163 = ORIENTED_EDGE ( 'NONE', *, *, #47, .F. ) ;
#164 = CARTESIAN_POINT ( 'NONE',  ( 489.5117689435901411, 7.500205360646864605, -29.04732207266958355 ) ) ;
#165 = CARTESIAN_POINT ( 'NONE',  ( 0.000000000000000000, 0.000000000000000000, 0.000000000000000000 ) ) ;
#166 = CARTESIAN_POINT ( 'NONE',  ( 486.0315601307016209, 6.368742968804821381, -29.31651947262573543 ) ) ;
#167 = ADVANCED_FACE ( 'NONE', ( #499, #29 ), #346, .F. ) ;
#168 = CARTESIAN_POINT ( 'NONE',  ( 493.7615340881772568, -6.507210935373939797, 29.28710871531713522 ) ) ;
#169 = ORIENTED_EDGE ( 'NONE', *, *, #317, .F. ) ;
#170 = CARTESIAN_POINT ( 'NONE',  ( 0.000000000000000000, 0.000000000000000000, 35.00000000000000000 ) ) ;
#171 = LOCAL_TIME ( 15, 3, 30.00000000000000000, #351 ) ;
#172 = CARTESIAN_POINT ( 'NONE',  ( 497.5000000000000000, -0.4976690225003699841, 30.00000000000000711 ) ) ;
#173 = CARTESIAN_POINT ( 'NONE',  ( 490.4923495973504828, 7.500154075971719791, 29.04733531431286053 ) ) ;
#174 = DIRECTION ( 'NONE',  ( 0.000000000000000000, 0.000000000000000000, 1.000000000000000000 ) ) ;
#175 = PERSON ( '未指定', '未指定', '未指定', ('未指定'), ('未指定'), ('未指定') ) ;
#176 =( LENGTH_UNIT ( ) NAMED_UNIT ( * ) SI_UNIT ( .MILLI., .METRE. ) );
#177 = ORIENTED_EDGE ( 'NONE', *, *, #498, .F. ) ;
#178 = DIRECTION ( 'NONE',  ( -1.000000000000000000, 0.000000000000000000, 0.000000000000000000 ) ) ;
#179 = CARTESIAN_POINT ( 'NONE',  ( 497.5000000000000000, -1.055639116014359845E-15, 30.00000000000000000 ) ) ;
#180 = DIRECTION ( 'NONE',  ( -1.000000000000000000, 0.000000000000000000, 0.000000000000000000 ) ) ;
#181 = ORIENTED_EDGE ( 'NONE', *, *, #341, .T. ) ;
#182 = APPLICATION_CONTEXT ( 'configuration controlled 3d designs of mechanical parts and assemblies' ) ;
#183 = ADVANCED_FACE ( 'NONE', ( #307 ), #240, .T. ) ;
#184 = DIRECTION ( 'NONE',  ( -1.000000000000000000, 0.000000000000000000, 0.000000000000000000 ) ) ;
#185 = DIRECTION ( 'NONE',  ( -1.000000000000000000, 0.000000000000000000, 0.000000000000000000 ) ) ;
#186 = CARTESIAN_POINT ( 'NONE',  ( 490.9825142430078699, -7.451765871373288164, 29.05995741359843265 ) ) ;
#187 = COORDINATED_UNIVERSAL_TIME_OFFSET ( 8, 0, .AHEAD. ) ;
#188 = CARTESIAN_POINT ( 'NONE',  ( 483.5037438589882868, -3.756228388379404315, -29.76471930061523352 ) ) ;
#189 = CARTESIAN_POINT ( 'NONE',  ( 490.9804303353270711, -7.451838451150899267, -29.05993554484958352 ) ) ;
#190 = CARTESIAN_POINT ( 'NONE',  ( 20.00000000000000000, 3.673940397442059178E-15, -30.00000000000000000 ) ) ;
#191 = CIRCLE ( 'NONE', #109, 35.00000000000000000 ) ;
#192 = CARTESIAN_POINT ( 'NONE',  ( 0.000000000000000000, 0.000000000000000000, 0.000000000000000000 ) ) ;
#193 = CARTESIAN_POINT ( 'NONE',  ( 489.7503129760730189, -7.499922413759629869, -29.04739512923571709 ) ) ;
#194 = CARTESIAN_POINT ( 'NONE',  ( 482.5000000000002274, 0.2453234574189316619, -30.00000000000001776 ) ) ;
#195 = EDGE_CURVE ( 'NONE', #285, #249, #151, .T. ) ;
#196 = APPROVAL_ROLE ( '' ) ;
#197 = CARTESIAN_POINT ( 'NONE',  ( 497.0196457003661976, 2.652345673097101120, -29.88339017209212045 ) ) ;
#198 = PERSON_AND_ORGANIZATION ( #175, #278 ) ;
#199 = CARTESIAN_POINT ( 'NONE',  ( 496.7366890706830418, 3.332937694888621571, -29.81776834892824013 ) ) ;
#200 = VERTEX_POINT ( 'NONE', #469 ) ;
#201 = ORIENTED_EDGE ( 'NONE', *, *, #45, .F. ) ;
#202 = DIRECTION ( 'NONE',  ( 1.000000000000000000, 0.000000000000000000, 0.000000000000000000 ) ) ;
#203 = CC_DESIGN_PERSON_AND_ORGANIZATION_ASSIGNMENT ( #198, #408, ( #86 ) ) ;
#204 = CARTESIAN_POINT ( 'NONE',  ( 20.00000000000000000, 0.000000000000000000, 30.00000000000000000 ) ) ;
#205 = CARTESIAN_POINT ( 'NONE',  ( 489.5009593062283670, 7.487435690219312434, 29.05062726243438576 ) ) ;
#206 = ORIENTED_EDGE ( 'NONE', *, *, #144, .F. ) ;
#207 = CARTESIAN_POINT ( 'NONE',  ( 496.5061101351568027, -3.763005127084300572, 29.76589728466429108 ) ) ;
#208 = CARTESIAN_POINT ( 'NONE',  ( 497.1115035431938622, 2.432189754007000548, 29.90468273597378612 ) ) ;
#209 = ORIENTED_EDGE ( 'NONE', *, *, #454, .F. ) ;
#210 = DIRECTION ( 'NONE',  ( -1.000000000000000000, 0.000000000000000000, 0.000000000000000000 ) ) ;
#211 = CARTESIAN_POINT ( 'NONE',  ( 484.8692203761942778, -5.475897079378568399, 29.49653728453247581 ) ) ;
#212 = CARTESIAN_POINT ( 'NONE',  ( 487.5811138524728676, 7.103464565505914763, 29.14697596698291804 ) ) ;
#213 = CYLINDRICAL_SURFACE ( 'NONE', #19, 35.00000000000000000 ) ;
#214 = CARTESIAN_POINT ( 'NONE',  ( 20.00000000000000000, 0.000000000000000000, 0.000000000000000000 ) ) ;
#215 = VECTOR ( 'NONE', #97, 1000.000000000000000 ) ;
#216 = AXIS2_PLACEMENT_3D ( 'NONE', #221, #69, #223 ) ;
#217 = EDGE_LOOP ( 'NONE', ( #220, #295, #236, #328 ) ) ;
#218 = CARTESIAN_POINT ( 'NONE',  ( 495.1281217759943729, 5.478282120341714467, 29.49608364240710756 ) ) ;
#219 = CARTESIAN_POINT ( 'NONE',  ( 482.7420348296060411, -1.954202972945873640, -29.94026019973070518 ) ) ;
#220 = ORIENTED_EDGE ( 'NONE', *, *, #144, .T. ) ;
#221 = CARTESIAN_POINT ( 'NONE',  ( 20.00000000000000000, 0.000000000000000000, 0.000000000000000000 ) ) ;
#222 = CARTESIAN_POINT ( 'NONE',  ( 492.4216150523392912, -7.102554020676443258, 29.14719847396459684 ) ) ;
#223 = DIRECTION ( 'NONE',  ( 0.000000000000000000, 0.000000000000000000, 1.000000000000000000 ) ) ;
#224 = EDGE_CURVE ( 'NONE', #249, #95, #365, .T. ) ;
#225 = CARTESIAN_POINT ( 'NONE',  ( 492.4223655301839244, -7.114909328492520224, -29.14472982325568751 ) ) ;
#226 = CARTESIAN_POINT ( 'NONE',  ( 490.4923495973504259, -7.500154075971721568, -29.04733531431287119 ) ) ;
#227 = CLOSED_SHELL ( 'NONE', ( #462, #183, #467, #493, #42, #167, #293, #373, #396 ) ) ;
#228 = CIRCLE ( 'NONE', #434, 30.00000000000000000 ) ;
#229 = CARTESIAN_POINT ( 'NONE',  ( 483.4964561479172858, 3.767222364970391091, -29.76534298343985085 ) ) ;
#230 = CARTESIAN_POINT ( 'NONE',  ( 485.6264433111927588, -6.097655605946218138, 29.37410078798698621 ) ) ;
#231 = CARTESIAN_POINT ( 'NONE',  ( 482.5120066071088445, -0.4910369687929973526, 29.99699136247963338 ) ) ;
#232 = CARTESIAN_POINT ( 'NONE',  ( 488.5253700671922275, -7.365788923927428122, -29.08181944898372251 ) ) ;
#233 = DATE_TIME_ROLE ( 'creation_date' ) ;
#234 = CARTESIAN_POINT ( 'NONE',  ( 497.2473696846849975, 1.945904718823534107, -29.93776057018876458 ) ) ;
#235 = APPROVAL_DATE_TIME ( #275, #439 ) ;
#236 = ORIENTED_EDGE ( 'NONE', *, *, #153, .F. ) ;
#237 = CARTESIAN_POINT ( 'NONE',  ( 482.8850480195969794, 2.422339572387714135, -29.90550339825157522 ) ) ;
#238 = EDGE_CURVE ( 'NONE', #95, #415, #228, .T. ) ;
#239 = CARTESIAN_POINT ( 'NONE',  ( 482.5000000000002274, -0.2453234574189282480, 30.00000000000001776 ) ) ;
#240 = CYLINDRICAL_SURFACE ( 'NONE', #411, 30.00000000000000000 ) ;
#241 = CIRCLE ( 'NONE', #372, 30.00000000000000000 ) ;
#242 = PRODUCT_DEFINITION ( '未知', '', #86, #277 ) ;
#243 = APPLICATION_CONTEXT ( 'configuration controlled 3d designs of mechanical parts and assemblies' ) ;
#244 = LINE ( 'NONE', #250, #474 ) ;
#245 = PERSON_AND_ORGANIZATION ( #175, #278 ) ;
#246 = ORIENTED_EDGE ( 'NONE', *, *, #360, .T. ) ;
#247 = LINE ( 'NONE', #480, #215 ) ;
#248 = CARTESIAN_POINT ( 'NONE',  ( 0.000000000000000000, 0.000000000000000000, 0.000000000000000000 ) ) ;
#249 = VERTEX_POINT ( 'NONE', #12 ) ;
#250 = CARTESIAN_POINT ( 'NONE',  ( 482.5000000000000000, 9.184850993605147944E-16, -30.00000000000000000 ) ) ;
#251 = CARTESIAN_POINT ( 'NONE',  ( 495.6362429428875203, 4.954045468119896434, 29.58874814594426894 ) ) ;
#252 = ORIENTED_EDGE ( 'NONE', *, *, #92, .F. ) ;
#253 = DIRECTION ( 'NONE',  ( 0.000000000000000000, 0.000000000000000000, 1.000000000000000000 ) ) ;
#254 = CARTESIAN_POINT ( 'NONE',  ( 0.000000000000000000, 0.000000000000000000, 30.00000000000000000 ) ) ;
#255 = CARTESIAN_POINT ( 'NONE',  ( 494.5807821420977461, -5.958973722094091485, 29.40355698278095886 ) ) ;
#256 = CARTESIAN_POINT ( 'NONE',  ( 482.5000000000000000, 7.418410087374944410E-21, 30.00000000000000000 ) ) ;
#257 = PERSON_AND_ORGANIZATION_ROLE ( 'design_supplier' ) ;
#258 = EDGE_LOOP ( 'NONE', ( #378, #24 ) ) ;
#259 = AXIS2_PLACEMENT_3D ( 'NONE', #313, #274, #279 ) ;
#260 = CARTESIAN_POINT ( 'NONE',  ( 496.5051833849608443, 3.764901158012449844, 29.76568161519924871 ) ) ;
#261 = FACE_OUTER_BOUND ( 'NONE', #338, .T. ) ;
#262 = CARTESIAN_POINT ( 'NONE',  ( 0.000000000000000000, 0.000000000000000000, 0.000000000000000000 ) ) ;
#263 = PRODUCT_RELATED_PRODUCT_CATEGORY ( 'detail', '', ( #137 ) ) ;
#264 = VERTEX_POINT ( 'NONE', #54 ) ;
#265 = CARTESIAN_POINT ( 'NONE',  ( 495.6362429428874634, -4.954045468119897322, -29.58874814594426539 ) ) ;
#266 = CARTESIAN_POINT ( 'NONE',  ( 493.3269368689221324, -6.739531184340665781, -29.23381484922108697 ) ) ;
#267 = CARTESIAN_POINT ( 'NONE',  ( 485.4301489099076434, -5.952042260788917183, -29.40405481820602418 ) ) ;
#268 = CARTESIAN_POINT ( 'NONE',  ( 484.8692203761942778, 5.475897079378567511, -29.49653728453247581 ) ) ;
#269 = COORDINATED_UNIVERSAL_TIME_OFFSET ( 8, 0, .AHEAD. ) ;
#270 = DIRECTION ( 'NONE',  ( 0.000000000000000000, 0.000000000000000000, 1.000000000000000000 ) ) ;
#271 = PERSON_AND_ORGANIZATION ( #175, #278 ) ;
#272 = CARTESIAN_POINT ( 'NONE',  ( 484.8673689604308379, -5.474109022542859471, -29.49686430768515777 ) ) ;
#273 = COORDINATED_UNIVERSAL_TIME_OFFSET ( 8, 0, .AHEAD. ) ;
#274 = DIRECTION ( 'NONE',  ( 0.000000000000000000, 0.000000000000000000, 1.000000000000000000 ) ) ;
#275 = DATE_AND_TIME ( #126, #171 ) ;
#276 = CARTESIAN_POINT ( 'NONE',  ( 497.5000000000001137, 0.4976690225003700951, -30.00000000000000355 ) ) ;
#277 = DESIGN_CONTEXT ( 'detailed design', #182, 'design' ) ;
#278 = ORGANIZATION ( '未指定', '未指定', '' ) ;
#279 = DIRECTION ( 'NONE',  ( 1.000000000000000000, 0.000000000000000000, 0.000000000000000000 ) ) ;
#280 = PLANE ( 'NONE',  #354 ) ;
#281 = APPROVAL_PERSON_ORGANIZATION ( #245, #150, #358 ) ;
#282 = APPLICATION_PROTOCOL_DEFINITION ( 'international standard', 'config_control_design', 1994, #182 ) ;
#283 = CARTESIAN_POINT ( 'NONE',  ( 0.000000000000000000, 0.000000000000000000, 0.000000000000000000 ) ) ;
#284 = DIRECTION ( 'NONE',  ( 1.000000000000000000, 0.000000000000000000, 0.000000000000000000 ) ) ;
#285 = VERTEX_POINT ( 'NONE', #483 ) ;
#286 = CARTESIAN_POINT ( 'NONE',  ( 20.00000000000000000, 0.000000000000000000, 0.000000000000000000 ) ) ;
#287 = CARTESIAN_POINT ( 'NONE',  ( 488.0506328248796422, 7.246391284264176669, 29.11177133409470486 ) ) ;
#288 = ORIENTED_EDGE ( 'NONE', *, *, #341, .F. ) ;
#289 = DIRECTION ( 'NONE',  ( 0.000000000000000000, 0.000000000000000000, 1.000000000000000000 ) ) ;
#290 = CARTESIAN_POINT ( 'NONE',  ( 485.4301489099080413, 5.952042260788918071, 29.40405481820602773 ) ) ;
#291 = DIRECTION ( 'NONE',  ( -1.000000000000000000, 0.000000000000000000, 0.000000000000000000 ) ) ;
#292 = CARTESIAN_POINT ( 'NONE',  ( 495.4739708784137520, -5.132734866319939471, 29.55817372314888658 ) ) ;
#293 = ADVANCED_FACE ( 'NONE', ( #404 ), #406, .T. ) ;
#294 = CARTESIAN_POINT ( 'NONE',  ( 485.6263800944240074, 6.097607577758234143, 29.37411059642588995 ) ) ;
#295 = ORIENTED_EDGE ( 'NONE', *, *, #132, .T. ) ;
#296 = CARTESIAN_POINT ( 'NONE',  ( 488.5253700671922275, 7.365788923927428122, 29.08181944898371896 ) ) ;
#297 = CARTESIAN_POINT ( 'NONE',  ( 482.5000000000002274, -0.4905146943063174447, -30.00000000000000711 ) ) ;
#298 = APPROVAL ( #158, '未指定' ) ;
#299 = LINE ( 'NONE', #380, #88 ) ;
#300 = CARTESIAN_POINT ( 'NONE',  ( 483.6313564880952072, -3.968669111447771236, -29.73704564188273025 ) ) ;
#301 = SECURITY_CLASSIFICATION ( '', '', #376 ) ;
#302 = AXIS2_PLACEMENT_3D ( 'NONE', #332, #450, #22 ) ;
#303 = CIRCLE ( 'NONE', #385, 30.00000000000000000 ) ;
#304 = CARTESIAN_POINT ( 'NONE',  ( 493.7575460812892629, -6.509432145096925026, -29.28660624043990168 ) ) ;
#305 = CARTESIAN_POINT ( 'NONE',  ( 491.7093672621810470, 7.306784571400267936, -29.09662152377191191 ) ) ;
#306 = PERSON_AND_ORGANIZATION ( #175, #278 ) ;
#307 = FACE_OUTER_BOUND ( 'NONE', #14, .T. ) ;
#308 = CARTESIAN_POINT ( 'NONE',  ( 488.0489514086904705, 7.258427441106793054, -29.10884893719727273 ) ) ;
#309 = EDGE_CURVE ( 'NONE', #415, #95, #323, .T. ) ;
#310 = CARTESIAN_POINT ( 'NONE',  ( 486.8975496660465296, -6.832681869155024401, 29.21170801783075177 ) ) ;
#311 = CARTESIAN_POINT ( 'NONE',  ( 495.1281217759943729, -5.478282120341715355, -29.49608364240711111 ) ) ;
#312 = CARTESIAN_POINT ( 'NONE',  ( 482.5000000000000000, 3.673932979016063634E-15, -30.00000000000000000 ) ) ;
#313 = CARTESIAN_POINT ( 'NONE',  ( 490.0000000000000000, 0.000000000000000000, -30.00000000000000000 ) ) ;
#314 = CARTESIAN_POINT ( 'NONE',  ( 485.0524552059724215, 5.641953339250028954, -29.46512147886505417 ) ) ;
#315 = DIRECTION ( 'NONE',  ( -1.000000000000000000, 0.000000000000000000, 0.000000000000000000 ) ) ;
#316 = CARTESIAN_POINT ( 'NONE',  ( 482.7424486435708104, 1.954637183720552951, -29.94016152399550634 ) ) ;
#317 = EDGE_CURVE ( 'NONE', #249, #50, #244, .T. ) ;
#318 = DIRECTION ( 'NONE',  ( -1.000000000000000000, 0.000000000000000000, 0.000000000000000000 ) ) ;
#319 = UNCERTAINTY_MEASURE_WITH_UNIT (LENGTH_MEASURE( 1.000000000000000082E-05 ), #176, 'distance_accuracy_value', 'NONE');
#320 = CARTESIAN_POINT ( 'NONE',  ( 483.4964561479172858, -3.767222364970391535, 29.76534298343985085 ) ) ;
#321 = EDGE_LOOP ( 'NONE', ( #169, #437, #102, #177 ) ) ;
#322 = LINE ( 'NONE', #438, #417 ) ;
#323 = CIRCLE ( 'NONE', #40, 30.00000000000000000 ) ;
#324 = CARTESIAN_POINT ( 'NONE',  ( 497.3071187278067669, -1.707652680602022244, 29.95232584805418341 ) ) ;
#325 = CARTESIAN_POINT ( 'NONE',  ( 490.9804303353270711, 7.451838451150898379, 29.05993554484958352 ) ) ;
#326 = CARTESIAN_POINT ( 'NONE',  ( 496.0978175630398823, -4.373390005155546767, 29.68022358490106427 ) ) ;
#327 = CARTESIAN_POINT ( 'NONE',  ( 486.2338798582040909, 6.504138381115586398, 29.28776109457457721 ) ) ;
#328 = ORIENTED_EDGE ( 'NONE', *, *, #360, .F. ) ;
#329 = CARTESIAN_POINT ( 'NONE',  ( 497.2473696846849975, -1.945904718823534552, 29.93776057018876813 ) ) ;
#330 = CARTESIAN_POINT ( 'NONE',  ( 484.3482116855628306, -4.954662686481883682, 29.59013281602890189 ) ) ;
#331 = CARTESIAN_POINT ( 'NONE',  ( 489.7503129760730189, 7.499922413759628093, 29.04739512923571354 ) ) ;
#332 = CARTESIAN_POINT ( 'NONE',  ( 0.000000000000000000, 0.000000000000000000, 0.000000000000000000 ) ) ;
#333 = CARTESIAN_POINT ( 'NONE',  ( 483.5037438589884005, 3.756228388379406535, 29.76471930061523707 ) ) ;
#334 = EDGE_LOOP ( 'NONE', ( #491, #26 ) ) ;
#335 = DIRECTION ( 'NONE',  ( 0.000000000000000000, 0.000000000000000000, 1.000000000000000000 ) ) ;
#336 = EDGE_CURVE ( 'NONE', #285, #93, #322, .T. ) ;
#337 = DIRECTION ( 'NONE',  ( 0.000000000000000000, 0.000000000000000000, 1.000000000000000000 ) ) ;
#338 = EDGE_LOOP ( 'NONE', ( #475, #112, #246, #39 ) ) ;
#339 = CALENDAR_DATE ( 2026, 10, 4 ) ;
#340 = CARTESIAN_POINT ( 'NONE',  ( 496.0946531463456495, -4.377862026849587807, -29.67957032641513848 ) ) ;
#341 = EDGE_CURVE ( 'NONE', #482, #140, #241, .T. ) ;
#342 = DATE_AND_TIME ( #31, #345 ) ;
#343 = CARTESIAN_POINT ( 'NONE',  ( 496.7355646380316898, -3.334846121075545788, -29.81751830530993175 ) ) ;
#344 = CC_DESIGN_APPROVAL ( #439, ( #86 ) ) ;
#345 = LOCAL_TIME ( 15, 3, 30.00000000000000000, #187 ) ;
#346 = PLANE ( 'NONE',  #361 ) ;
#347 = CARTESIAN_POINT ( 'NONE',  ( 496.0978175630399392, 4.373390005155547655, -29.68022358490106782 ) ) ;
#348 = CARTESIAN_POINT ( 'NONE',  ( 486.6637639493748111, -6.735247220974162730, -29.23481582659698930 ) ) ;
#349 = CARTESIAN_POINT ( 'NONE',  ( 486.2408421516565227, 6.494527552002065107, -29.28882417035288910 ) ) ;
#350 = CARTESIAN_POINT ( 'NONE',  ( 485.0524552059722510, -5.641953339250028954, 29.46512147886504707 ) ) ;
#351 = COORDINATED_UNIVERSAL_TIME_OFFSET ( 8, 0, .AHEAD. ) ;
#352 = CARTESIAN_POINT ( 'NONE',  ( 493.7615340881773136, 6.507210935373940686, -29.28710871531713877 ) ) ;
#353 = CARTESIAN_POINT ( 'NONE',  ( 484.0393453021817436, -4.578061004013985524, 29.65145805373609988 ) ) ;
#354 = AXIS2_PLACEMENT_3D ( 'NONE', #445, #401, #100 ) ;
#355 = B_SPLINE_CURVE_WITH_KNOTS ( 'NONE', 3,
 ( #145, #297, #452, #219, #455, #67, #425, #188, #300, #119, #161, #272, #115, #267, #465, #74, #348, #390, #386, #423, #232, #421, #32, #193, #226, #189, #159, #225, #266, #304, #72, #496, #504, #311, #416, #265, #121, #340, #35, #343, #418, #149, #468, #497, #152 ),
 .UNSPECIFIED., .F., .F.,
 ( 4, 2, 2, 2, 2, 2, 2, 2, 2, 2, 1, 2, 2, 2, 2, 2, 2, 2, 2, 2, 2, 2, 4 ),
 ( 0.02354211194794704823, 0.02501309743367189156, 0.02648408291939673143, 0.02721957566225915309, 0.02795506840512157476, 0.02942605389084632442, 0.03016154663370864200, 0.03089703937657095958, 0.03236802486229545944, 0.03310351760515770764, 0.03383901034801995583, 0.03457450309088220403, 0.03530999583374445222, 0.03678098131946894861, 0.03825196680519344500, 0.03972295229091794139, 0.04045844503378019652, 0.04119393777664244471, 0.04192943051950469291, 0.04266492326236694110, 0.04413590874809134035, 0.04560689423381575347, 0.04707787971954015271 ),
 .UNSPECIFIED. ) ;
#356 = CARTESIAN_POINT ( 'NONE',  ( 496.5061101351569164, 3.763005127084301016, -29.76589728466430174 ) ) ;
#357 = CARTESIAN_POINT ( 'NONE',  ( 491.9510732255688481, 7.245951031218174521, -29.11188152886204250 ) ) ;
#358 = APPROVAL_ROLE ( '' ) ;
#359 = DIRECTION ( 'NONE',  ( 0.000000000000000000, 0.000000000000000000, 1.000000000000000000 ) ) ;
#360 = EDGE_CURVE ( 'NONE', #200, #403, #247, .T. ) ;
#361 = AXIS2_PLACEMENT_3D ( 'NONE', #502, #155, #459 ) ;
#362 = DIRECTION ( 'NONE',  ( 0.000000000000000000, 0.000000000000000000, 1.000000000000000000 ) ) ;
#363 = PERSON_AND_ORGANIZATION ( #175, #278 ) ;
#364 = CARTESIAN_POINT ( 'NONE',  ( 494.9476188423965937, 5.641885209922748778, 29.46513429177109344 ) ) ;
#365 = LINE ( 'NONE', #43, #485 ) ;
#366 = CARTESIAN_POINT ( 'NONE',  ( 489.0105034856175052, 7.438523474267927149, 29.06318988134011860 ) ) ;
#367 = ORIENTED_EDGE ( 'NONE', *, *, #47, .T. ) ;
#368 = DIRECTION ( 'NONE',  ( -1.000000000000000000, 0.000000000000000000, 0.000000000000000000 ) ) ;
#369 =( NAMED_UNIT ( * ) PLANE_ANGLE_UNIT ( ) SI_UNIT ( $, .RADIAN. ) );
#370 = LOCAL_TIME ( 15, 3, 30.00000000000000000, #269 ) ;
#371 = LINE ( 'NONE', #21, #60 ) ;
#372 = AXIS2_PLACEMENT_3D ( 'NONE', #139, #57, #289 ) ;
#373 = ADVANCED_FACE ( 'NONE', ( #135 ), #280, .F. ) ;
#374 =( NAMED_UNIT ( * ) SI_UNIT ( $, .STERADIAN. ) SOLID_ANGLE_UNIT ( ) );
#375 = CC_DESIGN_PERSON_AND_ORGANIZATION_ASSIGNMENT ( #46, #426, ( #242 ) ) ;
#376 = SECURITY_CLASSIFICATION_LEVEL ( 'unclassified' ) ;
#377 = ORIENTED_EDGE ( 'NONE', *, *, #309, .F. ) ;
#378 = ORIENTED_EDGE ( 'NONE', *, *, #309, .T. ) ;
#379 = PERSON_AND_ORGANIZATION ( #175, #278 ) ;
#380 = CARTESIAN_POINT ( 'NONE',  ( 0.000000000000000000, 3.673940397442059178E-15, -30.00000000000000000 ) ) ;
#381 = CARTESIAN_POINT ( 'NONE',  ( 0.000000000000000000, 0.000000000000000000, 0.000000000000000000 ) ) ;
#382 = CARTESIAN_POINT ( 'NONE',  ( 0.000000000000000000, 4.286263797015736496E-15, -35.00000000000000000 ) ) ;
#383 = CARTESIAN_POINT ( 'NONE',  ( 492.6518920499052570, 7.019761589587381501, -29.16731407996627112 ) ) ;
#384 = CIRCLE ( 'NONE', #76, 35.00000000000000000 ) ;
#385 = AXIS2_PLACEMENT_3D ( 'NONE', #51, #178, #448 ) ;
#386 = CARTESIAN_POINT ( 'NONE',  ( 487.5811138524729813, -7.103464565505915651, -29.14697596698292159 ) ) ;
#387 = EDGE_CURVE ( 'NONE', #264, #200, #191, .T. ) ;
#388 = CARTESIAN_POINT ( 'NONE',  ( 497.5000000000000000, 1.055639116014359845E-15, -30.00000000000000000 ) ) ;
#389 = FACE_OUTER_BOUND ( 'NONE', #405, .T. ) ;
#390 = CARTESIAN_POINT ( 'NONE',  ( 487.3479348947641370, -7.019797518865658503, -29.16730953790217029 ) ) ;
#391 = PERSON_AND_ORGANIZATION ( #175, #278 ) ;
#392 = MANIFOLD_SOLID_BREP ( '输入1', #227 ) ;
#393 = ORIENTED_EDGE ( 'NONE', *, *, #87, .T. ) ;
#394 = CARTESIAN_POINT ( 'NONE',  ( 484.0393453021817436, 4.578061004013985524, -29.65145805373609988 ) ) ;
#395 = CARTESIAN_POINT ( 'NONE',  ( 493.3281545754525723, -6.738822152118830289, 29.23397560473592449 ) ) ;
#396 = ADVANCED_FACE ( 'NONE', ( #94 ), #15, .F. ) ;
#397 = APPROVAL_STATUS ( 'not_yet_approved' ) ;
#398 = CARTESIAN_POINT ( 'NONE',  ( 490.0000000000000000, 0.000000000000000000, -30.00000000000000000 ) ) ;
#399 = CARTESIAN_POINT ( 'NONE',  ( 484.0399869628955116, 4.579089799194187016, 29.65132052211539460 ) ) ;
#400 = CC_DESIGN_PERSON_AND_ORGANIZATION_ASSIGNMENT ( #363, #257, ( #86 ) ) ;
#401 = DIRECTION ( 'NONE',  ( -1.000000000000000000, 0.000000000000000000, 0.000000000000000000 ) ) ;
#402 = CARTESIAN_POINT ( 'NONE',  ( 495.9469883213745902, 4.576366562774986768, 29.64951015493233655 ) ) ;
#403 = VERTEX_POINT ( 'NONE', #170 ) ;
#404 = FACE_OUTER_BOUND ( 'NONE', #53, .T. ) ;
#405 = EDGE_LOOP ( 'NONE', ( #252, #99, #209, #444 ) ) ;
#406 = CYLINDRICAL_SURFACE ( 'NONE', #458, 30.00000000000000000 ) ;
#407 = EDGE_CURVE ( 'NONE', #140, #482, #303, .T. ) ;
#408 = PERSON_AND_ORGANIZATION_ROLE ( 'creator' ) ;
#409 = CARTESIAN_POINT ( 'NONE',  ( 493.3269368689222460, 6.739531184340664893, 29.23381484922109408 ) ) ;
#410 = ORIENTED_EDGE ( 'NONE', *, *, #407, .F. ) ;
#411 = AXIS2_PLACEMENT_3D ( 'NONE', #192, #122, #81 ) ;
#412 = CARTESIAN_POINT ( 'NONE',  ( 491.9437080713404953, 7.260381455397897810, 29.10835981801410099 ) ) ;
#413 = CARTESIAN_POINT ( 'NONE',  ( 0.000000000000000000, 0.000000000000000000, 0.000000000000000000 ) ) ;
#414 = DIRECTION ( 'NONE',  ( 1.000000000000000000, 0.000000000000000000, 0.000000000000000000 ) ) ;
#415 = VERTEX_POINT ( 'NONE', #204 ) ;
#416 = CARTESIAN_POINT ( 'NONE',  ( 495.4724339029294811, -5.134362191894080496, -29.55788981156098671 ) ) ;
#417 = VECTOR ( 'NONE', #174, 1000.000000000000000 ) ;
#418 = CARTESIAN_POINT ( 'NONE',  ( 497.1115035431938622, -2.432189754006998328, -29.90468273597379323 ) ) ;
#419 = CARTESIAN_POINT ( 'NONE',  ( 483.2608570180914285, -3.327795449961982843, 29.81832724936133516 ) ) ;
#420 = ADVANCED_BREP_SHAPE_REPRESENTATION ( 'SHAFT 06_\X2\9ed88ba4\X0\_sldprt', ( #392, #453 ), #16 ) ;
#421 = CARTESIAN_POINT ( 'NONE',  ( 489.0105034856176189, -7.438523474267929814, -29.06318988134012571 ) ) ;
#422 = CARTESIAN_POINT ( 'NONE',  ( 495.6382405445002632, 4.951834820701804141, -29.58912519524127305 ) ) ;
#423 = CARTESIAN_POINT ( 'NONE',  ( 488.0506328248797558, -7.246391284264177557, -29.11177133409470130 ) ) ;
#424 = CARTESIAN_POINT ( 'NONE',  ( 497.4509595093421126, 0.9866354491309687891, -29.98763338499469100 ) ) ;
#425 = CARTESIAN_POINT ( 'NONE',  ( 483.2714198755322172, -3.322168728995424480, -29.81628685276169222 ) ) ;
#426 = PERSON_AND_ORGANIZATION_ROLE ( 'creator' ) ;
#427 = FACE_OUTER_BOUND ( 'NONE', #217, .T. ) ;
#428 = ORIENTED_EDGE ( 'NONE', *, *, #387, .F. ) ;
#429 = CARTESIAN_POINT ( 'NONE',  ( 485.6264433111928724, 6.097655605946219914, -29.37410078798698976 ) ) ;
#430 = CARTESIAN_POINT ( 'NONE',  ( 495.9503866515069603, 4.572015225994862320, -29.65018844264649189 ) ) ;
#431 = CC_DESIGN_APPROVAL ( #150, ( #242 ) ) ;
#432 = CIRCLE ( 'NONE', #216, 35.00000000000000000 ) ;
#433 = CARTESIAN_POINT ( 'NONE',  ( 500.0000000000000000, 3.673940397442059178E-15, -30.00000000000000000 ) ) ;
#434 = AXIS2_PLACEMENT_3D ( 'NONE', #286, #130, #359 ) ;
#435 = COORDINATED_UNIVERSAL_TIME_OFFSET ( 8, 0, .AHEAD. ) ;
#436 = CARTESIAN_POINT ( 'NONE',  ( 497.4509595093422831, -0.9866354491309687891, 29.98763338499468745 ) ) ;
#437 = ORIENTED_EDGE ( 'NONE', *, *, #195, .F. ) ;
#438 = CARTESIAN_POINT ( 'NONE',  ( 497.5000000000000000, 0.000000000000000000, -30.00000000000000000 ) ) ;
#439 = APPROVAL ( #36, '未指定' ) ;
#440 = FACE_OUTER_BOUND ( 'NONE', #334, .T. ) ;
#441 = ORIENTED_EDGE ( 'NONE', *, *, #92, .T. ) ;
#442 = CARTESIAN_POINT ( 'NONE',  ( 497.0196457003662545, -2.652345673097101120, 29.88339017209212045 ) ) ;
#443 = CARTESIAN_POINT ( 'NONE',  ( 483.6313564880952640, 3.968669111447773901, 29.73704564188272670 ) ) ;
#444 = ORIENTED_EDGE ( 'NONE', *, *, #336, .F. ) ;
#445 = CARTESIAN_POINT ( 'NONE',  ( 500.0000000000000000, 30.00000000000000000, 0.000000000000000000 ) ) ;
#446 = CARTESIAN_POINT ( 'NONE',  ( 493.7575460812893766, 6.509432145096925915, 29.28660624043990524 ) ) ;
#447 = ORIENTED_EDGE ( 'NONE', *, *, #195, .T. ) ;
#448 = DIRECTION ( 'NONE',  ( 0.000000000000000000, 0.000000000000000000, 1.000000000000000000 ) ) ;
#449 = CARTESIAN_POINT ( 'NONE',  ( 492.4223655301839244, 7.114909328492519336, 29.14472982325568751 ) ) ;
#450 = DIRECTION ( 'NONE',  ( -1.000000000000000000, 0.000000000000000000, 0.000000000000000000 ) ) ;
#451 = DIRECTION ( 'NONE',  ( 0.000000000000000000, 0.000000000000000000, -1.000000000000000000 ) ) ;
#452 = CARTESIAN_POINT ( 'NONE',  ( 482.5476456559750318, -0.9794806813875015505, -29.98797605177512438 ) ) ;
#453 = AXIS2_PLACEMENT_3D ( 'NONE', #262, #337, #414 ) ;
#454 = EDGE_CURVE ( 'NONE', #93, #50, #17, .T. ) ;
#455 = CARTESIAN_POINT ( 'NONE',  ( 482.8854243124961272, -2.423210534174131237, -29.90541658718311169 ) ) ;
#456 = CARTESIAN_POINT ( 'NONE',  ( 489.0124792552374515, -7.450916876608288497, 29.06017365853578127 ) ) ;
#457 = LINE ( 'NONE', #78, #156 ) ;
#458 = AXIS2_PLACEMENT_3D ( 'NONE', #283, #473, #362 ) ;
#459 = DIRECTION ( 'NONE',  ( 0.000000000000000000, 0.000000000000000000, 1.000000000000000000 ) ) ;
#460 = CARTESIAN_POINT ( 'NONE',  ( 486.6731915203246217, 6.726254618436410482, -29.23647735643820056 ) ) ;
#461 = CC_DESIGN_PERSON_AND_ORGANIZATION_ASSIGNMENT ( #271, #71, ( #301 ) ) ;
#462 = ADVANCED_FACE ( 'NONE', ( #389 ), #5, .F. ) ;
#463 = APPROVAL_DATE_TIME ( #342, #298 ) ;
#464 = B_SPLINE_CURVE_WITH_KNOTS ( 'NONE', 3,
 ( #256, #55, #484, #98, #108, #96, #488, #333, #443, #399, #142, #494, #490, #290, #294, #327, #49, #136, #212, #287, #296, #366, #205, #331, #173, #325, #412, #449, #409, #446, #481, #59, #364, #218, #52, #251, #402, #101, #260, #63, #208, #13, #104, #18, #179 ),
 .UNSPECIFIED., .F., .F.,
 ( 4, 2, 2, 2, 2, 2, 2, 2, 2, 2, 1, 2, 2, 2, 2, 2, 2, 2, 2, 2, 2, 2, 4 ),
 ( 0.02354211194794705170, 0.02501309743367189156, 0.02648408291939673143, 0.02721957566225914962, 0.02795506840512156782, 0.02942605389084632095, 0.03016154663370863853, 0.03089703937657095612, 0.03236802486229545250, 0.03310351760515770070, 0.03383901034801994889, 0.03457450309088219709, 0.03530999583374444528, 0.03678098131946894167, 0.03825196680519343806, 0.03972295229091793445, 0.04045844503378018958, 0.04119393777664243778, 0.04192943051950468597, 0.04266492326236694110, 0.04413590874809134035, 0.04560689423381575347, 0.04707787971954015271 ),
 .UNSPECIFIED. ) ;
#465 = CARTESIAN_POINT ( 'NONE',  ( 485.6263800944238938, -6.097607577758233255, -29.37411059642588640 ) ) ;
#466 = CARTESIAN_POINT ( 'NONE',  ( 486.6731915203246217, -6.726254618436385613, 29.23647735643821832 ) ) ;
#467 = ADVANCED_FACE ( 'NONE', ( #427 ), #82, .T. ) ;
#468 = CARTESIAN_POINT ( 'NONE',  ( 497.4509719814527102, -0.9878754551366458747, -29.98763414317785703 ) ) ;
#469 = CARTESIAN_POINT ( 'NONE',  ( 20.00000000000000000, 0.000000000000000000, 35.00000000000000000 ) ) ;
#470 = DIRECTION ( 'NONE',  ( 0.000000000000000000, 0.000000000000000000, 1.000000000000000000 ) ) ;
#471 = CARTESIAN_POINT ( 'NONE',  ( 484.3482116855628306, 4.954662686481884570, -29.59013281602890189 ) ) ;
#472 = DATE_AND_TIME ( #85, #117 ) ;
#473 = DIRECTION ( 'NONE',  ( -1.000000000000000000, 0.000000000000000000, 0.000000000000000000 ) ) ;
#474 = VECTOR ( 'NONE', #253, 1000.000000000000000 ) ;
#475 = ORIENTED_EDGE ( 'NONE', *, *, #132, .F. ) ;
#476 = CARTESIAN_POINT ( 'NONE',  ( 495.9503866515069035, -4.572015225994862320, 29.65018844264648834 ) ) ;
#477 = CC_DESIGN_DATE_AND_TIME_ASSIGNMENT ( #79, #233, ( #242 ) ) ;
#478 = CC_DESIGN_DATE_AND_TIME_ASSIGNMENT ( #114, #118, ( #301 ) ) ;
#479 = PRODUCT_DEFINITION_SHAPE ( 'NONE', 'NONE',  #242 ) ;
#480 = CARTESIAN_POINT ( 'NONE',  ( 0.000000000000000000, 0.000000000000000000, 35.00000000000000000 ) ) ;
#481 = CARTESIAN_POINT ( 'NONE',  ( 494.3709314595448063, 6.099624826751242068, 29.37369707674587005 ) ) ;
#482 = VERTEX_POINT ( 'NONE', #433 ) ;
#483 = CARTESIAN_POINT ( 'NONE',  ( 497.5000000000000000, 1.055639116014359845E-15, -30.00000000000000000 ) ) ;
#484 = CARTESIAN_POINT ( 'NONE',  ( 482.5476456559749181, 0.9794806813875047702, 29.98797605177512082 ) ) ;
#485 = VECTOR ( 'NONE', #210, 1000.000000000000000 ) ;
#486 = ORIENTED_EDGE ( 'NONE', *, *, #224, .T. ) ;
#487 = CARTESIAN_POINT ( 'NONE',  ( 497.1037601261870122, -2.418161407108447847, 29.90332002540621659 ) ) ;
#488 = CARTESIAN_POINT ( 'NONE',  ( 483.2714198755322172, 3.322168728995428033, 29.81628685276169222 ) ) ;
#489 = ORIENTED_EDGE ( 'NONE', *, *, #498, .T. ) ;
#490 = CARTESIAN_POINT ( 'NONE',  ( 485.0504561429189607, 5.640244823291363119, 29.46545240038945934 ) ) ;
#491 = ORIENTED_EDGE ( 'NONE', *, *, #153, .T. ) ;
#492 = CARTESIAN_POINT ( 'NONE',  ( 491.9510732255688481, -7.245951031218174521, 29.11188152886203540 ) ) ;
#493 = ADVANCED_FACE ( 'NONE', ( #440 ), #11, .F. ) ;
#494 = CARTESIAN_POINT ( 'NONE',  ( 484.8673689604307810, 5.474109022542859471, 29.49686430768515066 ) ) ;
#495 = LINE ( 'NONE', #254, #27 ) ;
#496 = CARTESIAN_POINT ( 'NONE',  ( 494.5695862971853671, -5.952199761782162035, -29.40401886732305670 ) ) ;
#497 = CARTESIAN_POINT ( 'NONE',  ( 497.5000000000000000, -0.4975349096369354185, -30.00000000000000355 ) ) ;
#498 = EDGE_CURVE ( 'NONE', #50, #93, #464, .T. ) ;
#499 = FACE_OUTER_BOUND ( 'NONE', #147, .T. ) ;
#500 = LOCAL_TIME ( 15, 3, 30.00000000000000000, #435 ) ;
#501 = AXIS2_PLACEMENT_3D ( 'NONE', #248, #284, #451 ) ;
#502 = CARTESIAN_POINT ( 'NONE',  ( 20.00000000000000000, 35.00000000000000000, 0.000000000000000000 ) ) ;
#503 = CARTESIAN_POINT ( 'NONE',  ( 497.3071187278069374, 1.707652680602022244, -29.95232584805419407 ) ) ;
#504 = CARTESIAN_POINT ( 'NONE',  ( 494.9476188423965368, -5.641885209922747890, -29.46513429177109344 ) ) ;
#505 = CARTESIAN_POINT ( 'NONE',  ( 493.3281545754524586, 6.738822152118829401, -29.23397560473591383 ) ) ;
ENDSEC;
END-ISO-10303-21;
