ISO-10303-21;
HEADER;
FILE_DESCRIPTION (( 'STEP AP203' ),
    '1' );
FILE_NAME ('SPACER 02(Varsay_lan)_默认_sldprt.STEP',
    '2026-04-10T07:03:34',
    ( '' ),
    ( '' ),
    'SwSTEP 2.0',
    'SolidWorks 2022',
    '' );
FILE_SCHEMA (( 'CONFIG_CONTROL_DESIGN' ));
ENDSEC;

DATA;
#1 = ORIENTED_EDGE ( 'NONE', *, *, #638, .F. ) ;
#2 = DIRECTION ( 'NONE',  ( -0.000000000000000000, -0.000000000000000000, -1.000000000000000000 ) ) ;
#3 = VERTEX_POINT ( 'NONE', #109 ) ;
#4 = ORIENTED_EDGE ( 'NONE', *, *, #376, .T. ) ;
#5 = CARTESIAN_POINT ( 'NONE',  ( 6011.135944842019853, 3574.294581845765151, -9.081277396738579081E-13 ) ) ;
#6 = EDGE_CURVE ( 'NONE', #3, #506, #634, .T. ) ;
#7 = VERTEX_POINT ( 'NONE', #28 ) ;
#8 = VECTOR ( 'NONE', #254, 1000.000000000000227 ) ;
#9 = LINE ( 'NONE', #217, #540 ) ;
#10 = VECTOR ( 'NONE', #303, 1000.000000000000000 ) ;
#11 = CARTESIAN_POINT ( 'NONE',  ( 6013.469686177900257, 4201.569642278370338, 0.000000000000000000 ) ) ;
#12 = DIRECTION ( 'NONE',  ( 0.000000000000000000, 0.000000000000000000, 1.000000000000000000 ) ) ;
#13 = ORIENTED_EDGE ( 'NONE', *, *, #679, .T. ) ;
#14 = CARTESIAN_POINT ( 'NONE',  ( 5809.007705591451668, 3627.679570754489305, -1.156359840076070622 ) ) ;
#15 = EDGE_LOOP ( 'NONE', ( #810, #525, #150, #603 ) ) ;
#16 = DIRECTION ( 'NONE',  ( 0.000000000000000000, 0.000000000000000000, -1.000000000000000000 ) ) ;
#17 = ORIENTED_EDGE ( 'NONE', *, *, #450, .T. ) ;
#18 = ADVANCED_FACE ( 'NONE', ( #820 ), #395, .F. ) ;
#19 = VERTEX_POINT ( 'NONE', #232 ) ;
#20 = DATE_AND_TIME ( #374, #705 ) ;
#21 = DIRECTION ( 'NONE',  ( -1.000000000000000000, 0.000000000000000000, 0.000000000000000000 ) ) ;
#22 = EDGE_LOOP ( 'NONE', ( #221, #631, #729, #252 ) ) ;
#23 = EDGE_CURVE ( 'NONE', #506, #497, #180, .T. ) ;
#24 = VERTEX_POINT ( 'NONE', #167 ) ;
#25 = CARTESIAN_POINT ( 'NONE',  ( 6003.381337748909573, 3550.002121672875091, -110.0000000000000000 ) ) ;
#26 = VECTOR ( 'NONE', #861, 1000.000000000000000 ) ;
#27 = VECTOR ( 'NONE', #621, 1000.000000000000000 ) ;
#28 = CARTESIAN_POINT ( 'NONE',  ( 6003.381337748900478, 3550.002121672875091, -3.000000000000075051 ) ) ;
#29 = LINE ( 'NONE', #306, #567 ) ;
#30 = EDGE_CURVE ( 'NONE', #81, #270, #302, .T. ) ;
#31 = EDGE_LOOP ( 'NONE', ( #787, #558, #906, #168 ) ) ;
#32 = ADVANCED_FACE ( 'NONE', ( #878, #170, #744 ), #242, .F. ) ;
#33 = ORIENTED_EDGE ( 'NONE', *, *, #201, .F. ) ;
#34 = APPROVAL_STATUS ( 'not_yet_approved' ) ;
#35 = DIRECTION ( 'NONE',  ( 0.000000000000000000, 0.000000000000000000, 1.000000000000000000 ) ) ;
#36 = ADVANCED_FACE ( 'NONE', ( #592 ), #178, .F. ) ;
#37 = DIRECTION ( 'NONE',  ( 0.000000000000000000, 0.000000000000000000, 1.000000000000000000 ) ) ;
#38 = FACE_OUTER_BOUND ( 'NONE', #518, .T. ) ;
#39 = CARTESIAN_POINT ( 'NONE',  ( 6011.053066403250341, 3574.320727296019413, -9.081277396738579081E-13 ) ) ;
#40 = AXIS2_PLACEMENT_3D ( 'NONE', #678, #385, #52 ) ;
#41 = PERSON_AND_ORGANIZATION ( #510, #200 ) ;
#42 = DIRECTION ( 'NONE',  ( -1.000000000000000000, 0.000000000000000000, 0.000000000000000000 ) ) ;
#43 = VECTOR ( 'NONE', #165, 1000.000000000000114 ) ;
#44 = CARTESIAN_POINT ( 'NONE',  ( 5809.033282934662566, 3627.716418029178840, 14.88397041816890898 ) ) ;
#45 = LINE ( 'NONE', #320, #554 ) ;
#46 = ORIENTED_EDGE ( 'NONE', *, *, #212, .F. ) ;
#47 = DIRECTION ( 'NONE',  ( 0.000000000000000000, 1.000000000000000000, 0.000000000000000000 ) ) ;
#48 = CARTESIAN_POINT ( 'NONE',  ( 1561.922828014309971, 4951.137739571060592, -1.259557600059860174E-11 ) ) ;
#49 = CARTESIAN_POINT ( 'NONE',  ( 6008.796675622559633, 3567.168196230389640, -9.081277396738579081E-13 ) ) ;
#50 = APPROVAL_ROLE ( '' ) ;
#51 = CARTESIAN_POINT ( 'NONE',  ( 5809.744255289439934, 3629.962756923975121, 14.99999999999910116 ) ) ;
#52 = DIRECTION ( 'NONE',  ( 1.000000000000000000, 0.000000000000000000, 0.000000000000000000 ) ) ;
#53 = EDGE_CURVE ( 'NONE', #520, #246, #362, .T. ) ;
#54 = DIRECTION ( 'NONE',  ( -0.000000000000000000, -0.000000000000000000, -1.000000000000000000 ) ) ;
#55 = AXIS2_PLACEMENT_3D ( 'NONE', #533, #752, #42 ) ;
#56 = AXIS2_PLACEMENT_3D ( 'NONE', #370, #2, #278 ) ;
#57 = CARTESIAN_POINT ( 'NONE',  ( 6013.469686177900257, 4129.483363415190070, 0.000000000000000000 ) ) ;
#58 = AXIS2_PLACEMENT_3D ( 'NONE', #128, #689, #764 ) ;
#59 = FACE_OUTER_BOUND ( 'NONE', #801, .T. ) ;
#60 = CARTESIAN_POINT ( 'NONE',  ( 5947.012271745119506, 3902.760234493510325, 0.000000000000000000 ) ) ;
#61 = CARTESIAN_POINT ( 'NONE',  ( 5809.044153681449643, 3627.795107521520094, -1.249463668152262175 ) ) ;
#62 = CARTESIAN_POINT ( 'NONE',  ( 6026.067744137100817, 3840.059521210640014, 15.00000000000000000 ) ) ;
#63 = ORIENTED_EDGE ( 'NONE', *, *, #685, .T. ) ;
#64 = MANIFOLD_SOLID_BREP ( '输入1', #526 ) ;
#65 = CARTESIAN_POINT ( 'NONE',  ( 6008.796675622559633, 3567.168196230389640, -3.000000000000120348 ) ) ;
#66 = CARTESIAN_POINT ( 'NONE',  ( 6069.319511455009888, 4201.569642278370338, 0.000000000000000000 ) ) ;
#67 = PERSON_AND_ORGANIZATION ( #510, #200 ) ;
#68 = ORIENTED_EDGE ( 'NONE', *, *, #88, .T. ) ;
#69 = CARTESIAN_POINT ( 'NONE',  ( 5808.938693478579808, 3627.468181041545449, -1.489143058887999915 ) ) ;
#70 = VECTOR ( 'NONE', #851, 1000.000000000000000 ) ;
#71 = ORIENTED_EDGE ( 'NONE', *, *, #118, .F. ) ;
#72 = AXIS2_PLACEMENT_3D ( 'NONE', #821, #468, #606 ) ;
#73 = DATE_TIME_ROLE ( 'classification_date' ) ;
#74 = ORIENTED_EDGE ( 'NONE', *, *, #201, .T. ) ;
#75 = CARTESIAN_POINT ( 'NONE',  ( 5805.027733572820580, 3615.070832824314948, 6.020712134716442954 ) ) ;
#76 = CARTESIAN_POINT ( 'NONE',  ( 6071.324311648510047, 4101.721043206979630, 128.1370849898482049 ) ) ;
#77 = ORIENTED_EDGE ( 'NONE', *, *, #390, .F. ) ;
#78 = ORIENTED_EDGE ( 'NONE', *, *, #746, .F. ) ;
#79 = CARTESIAN_POINT ( 'NONE',  ( 5809.718874703729853, 3629.970763672785324, 14.99999999999910116 ) ) ;
#80 = CC_DESIGN_DATE_AND_TIME_ASSIGNMENT ( #620, #562, ( #735 ) ) ;
#81 = VERTEX_POINT ( 'NONE', #598 ) ;
#82 = EDGE_CURVE ( 'NONE', #131, #24, #886, .T. ) ;
#83 = CARTESIAN_POINT ( 'NONE',  ( 5804.304594354480287, 3612.804355500742076, -1.821902754904113353 ) ) ;
#84 = B_SPLINE_CURVE_WITH_KNOTS ( 'NONE', 3,
 ( #365, #83, #640, #290, #794, #726, #75, #670, #319, #538, #822, #818, #478, #663, #676, #44, #668, #396 ),
 .UNSPECIFIED., .F., .F.,
 ( 4, 2, 2, 2, 2, 2, 2, 2, 4 ),
 ( 0.000000000000000000, 0.1250000000000000833, 0.2500000000000001665, 0.3750000000000002220, 0.5000000000000002220, 0.6250000000000002220, 0.7500000000000001110, 0.8750000000000001110, 1.000000000000000000 ),
 .UNSPECIFIED. ) ;
#85 = VECTOR ( 'NONE', #589, 1000.000000000000114 ) ;
#86 = CARTESIAN_POINT ( 'NONE',  ( 5809.503782986570513, 3629.215227432417123, -0.07808196999608391087 ) ) ;
#87 = VECTOR ( 'NONE', #251, 1000.000000000000000 ) ;
#88 = EDGE_CURVE ( 'NONE', #111, #793, #471, .T. ) ;
#89 = DIRECTION ( 'NONE',  ( 1.000000000000000000, 0.000000000000000000, 0.000000000000000000 ) ) ;
#90 = FACE_OUTER_BOUND ( 'NONE', #175, .T. ) ;
#91 = COORDINATED_UNIVERSAL_TIME_OFFSET ( 8, 0, .AHEAD. ) ;
#92 = CARTESIAN_POINT ( 'NONE',  ( 6116.344094594010130, 3768.274805253469822, 0.000000000000000000 ) ) ;
#93 = EDGE_CURVE ( 'NONE', #789, #7, #188, .T. ) ;
#94 = CARTESIAN_POINT ( 'NONE',  ( 5809.515713217940174, 3629.253045061875127, -0.2256388305113284920 ) ) ;
#95 = CARTESIAN_POINT ( 'NONE',  ( 5809.281250604490197, 3628.524565679311763, -0.3786408349382510696 ) ) ;
#96 = EDGE_LOOP ( 'NONE', ( #799, #363, #843, #776 ) ) ;
#97 = APPROVAL_ROLE ( '' ) ;
#98 = CARTESIAN_POINT ( 'NONE',  ( 5808.816318391460300, 3627.109751246534870, -3.000000000000115019 ) ) ;
#99 = EDGE_LOOP ( 'NONE', ( #304, #480 ) ) ;
#100 = PLANE ( 'NONE',  #671 ) ;
#101 = VERTEX_POINT ( 'NONE', #763 ) ;
#102 = CARTESIAN_POINT ( 'NONE',  ( 5919.373424222510948, 3824.932944611365201, 15.00000000000000000 ) ) ;
#103 = DIRECTION ( 'NONE',  ( 0.3008521040919529543, 0.9536708087508207754, 0.000000000000000000 ) ) ;
#104 = DIRECTION ( 'NONE',  ( -1.000000000000000000, 0.000000000000000000, 0.000000000000000000 ) ) ;
#105 = VECTOR ( 'NONE', #16, 1000.000000000000000 ) ;
#106 = DIRECTION ( 'NONE',  ( -4.247178452247970067E-14, -1.346312707930076013E-13, 1.000000000000000000 ) ) ;
#107 = CARTESIAN_POINT ( 'NONE',  ( 6011.152785902670075, 3826.721043206979630, 15.00000000000000000 ) ) ;
#108 = EDGE_CURVE ( 'NONE', #694, #343, #455, .T. ) ;
#109 = CARTESIAN_POINT ( 'NONE',  ( 5919.373424222510948, 3824.932944611365201, 0.000000000000000000 ) ) ;
#110 = LINE ( 'NONE', #387, #894 ) ;
#111 = VERTEX_POINT ( 'NONE', #488 ) ;
#112 = VERTEX_POINT ( 'NONE', #830 ) ;
#113 = CARTESIAN_POINT ( 'NONE',  ( 6141.405790318180152, 4129.483363415190070, 0.000000000000000000 ) ) ;
#114 = CC_DESIGN_SECURITY_CLASSIFICATION ( #556, ( #444 ) ) ;
#115 =( NAMED_UNIT ( * ) PLANE_ANGLE_UNIT ( ) SI_UNIT ( $, .RADIAN. ) );
#116 = EDGE_CURVE ( 'NONE', #437, #309, #272, .T. ) ;
#117 = CARTESIAN_POINT ( 'NONE',  ( 5804.258409014460085, 3612.661638493960254, -3.000000000000075051 ) ) ;
#118 = EDGE_CURVE ( 'NONE', #424, #435, #297, .T. ) ;
#119 = CARTESIAN_POINT ( 'NONE',  ( 6013.469686177900257, 4201.569642278370338, 0.000000000000000000 ) ) ;
#120 = LINE ( 'NONE', #164, #669 ) ;
#121 = DIRECTION ( 'NONE',  ( 1.000000000000000000, 0.000000000000000000, 0.000000000000000000 ) ) ;
#122 = CARTESIAN_POINT ( 'NONE',  ( 6141.405790318180152, 3840.059521210640014, 0.000000000000000000 ) ) ;
#123 = DIRECTION ( 'NONE',  ( -6.476300976981780393E-14, -1.341519488089081873E-13, 1.000000000000000000 ) ) ;
#124 = DIRECTION ( 'NONE',  ( -0.3008521040918989420, -0.9536708087508378728, 0.000000000000000000 ) ) ;
#125 = EDGE_LOOP ( 'NONE', ( #712, #423, #63, #737 ) ) ;
#126 = CARTESIAN_POINT ( 'NONE',  ( 5808.888432405999083, 3627.323601954380138, -2.254411151403009850 ) ) ;
#127 = AXIS2_PLACEMENT_3D ( 'NONE', #827, #451, #519 ) ;
#128 = CARTESIAN_POINT ( 'NONE',  ( 6069.319511455009888, 4129.483363415190070, 0.000000000000000000 ) ) ;
#129 = ORIENTED_EDGE ( 'NONE', *, *, #93, .F. ) ;
#130 = VECTOR ( 'NONE', #313, 1000.000000000000000 ) ;
#131 = VERTEX_POINT ( 'NONE', #122 ) ;
#132 = CARTESIAN_POINT ( 'NONE',  ( 6612.864022107190067, 3373.458867489274780, 0.000000000000000000 ) ) ;
#133 = CARTESIAN_POINT ( 'NONE',  ( 5809.207027506669874, 3628.296657669974593, -0.7221489994297529691 ) ) ;
#134 = DIRECTION ( 'NONE',  ( -1.000000000000000000, 0.000000000000000000, 0.000000000000000000 ) ) ;
#135 = ORIENTED_EDGE ( 'NONE', *, *, #450, .F. ) ;
#136 = ORIENTED_EDGE ( 'NONE', *, *, #191, .T. ) ;
#137 = CARTESIAN_POINT ( 'NONE',  ( 5808.310759850040085, 3625.433464486444791, 14.67760408152831886 ) ) ;
#138 = ORIENTED_EDGE ( 'NONE', *, *, #855, .F. ) ;
#139 = DIRECTION ( 'NONE',  ( -0.3008521040918508693, -0.9536708087508529719, 2.457524924301122137E-15 ) ) ;
#140 = CARTESIAN_POINT ( 'NONE',  ( 6007.894119310279166, 3564.307183804140095, -3.000000000000115019 ) ) ;
#141 = VECTOR ( 'NONE', #900, 1000.000000000000000 ) ;
#142 = AXIS2_PLACEMENT_3D ( 'NONE', #913, #618, #121 ) ;
#143 = CC_DESIGN_PERSON_AND_ORGANIZATION_ASSIGNMENT ( #41, #762, ( #910 ) ) ;
#144 = FACE_OUTER_BOUND ( 'NONE', #512, .T. ) ;
#145 = ORIENTED_EDGE ( 'NONE', *, *, #407, .F. ) ;
#146 = CARTESIAN_POINT ( 'NONE',  ( 6357.690353486990716, 3450.166494749720187, 15.00000000000000000 ) ) ;
#147 = DESIGN_CONTEXT ( 'detailed design', #687, 'design' ) ;
#148 = CARTESIAN_POINT ( 'NONE',  ( 5804.303536830079793, 3612.804689115275323, -110.0000000000000000 ) ) ;
#149 = FACE_OUTER_BOUND ( 'NONE', #96, .T. ) ;
#150 = ORIENTED_EDGE ( 'NONE', *, *, #116, .T. ) ;
#151 = CARTESIAN_POINT ( 'NONE',  ( 6141.405790318180152, 4129.483363415190070, 0.000000000000000000 ) ) ;
#152 = VERTEX_POINT ( 'NONE', #257 ) ;
#153 = APPLICATION_CONTEXT ( 'configuration controlled 3d designs of mechanical parts and assemblies' ) ;
#154 = CARTESIAN_POINT ( 'NONE',  ( 6071.152785902670985, 3826.721043206979630, 128.1370849898482049 ) ) ;
#155 = DIRECTION ( 'NONE',  ( 0.000000000000000000, 1.000000000000000000, 0.000000000000000000 ) ) ;
#156 = DIRECTION ( 'NONE',  ( -0.9536708087508350973, 0.3008521040919075462, 0.000000000000000000 ) ) ;
#157 = VECTOR ( 'NONE', #123, 1000.000000000000000 ) ;
#158 = VERTEX_POINT ( 'NONE', #754 ) ;
#159 = CARTESIAN_POINT ( 'NONE',  ( 5809.179017024091991, 3628.207867266954963, -0.6009994728064381730 ) ) ;
#160 = VECTOR ( 'NONE', #615, 1000.000000000000000 ) ;
#161 = CARTESIAN_POINT ( 'NONE',  ( 5941.405790318180152, 4127.687113471534758, 0.000000000000000000 ) ) ;
#162 = ORIENTED_EDGE ( 'NONE', *, *, #30, .F. ) ;
#163 = CARTESIAN_POINT ( 'NONE',  ( 6008.796675622559633, 3567.168196230389640, -3.000000000000120348 ) ) ;
#164 = CARTESIAN_POINT ( 'NONE',  ( 6116.344094594010130, 3768.274805253469822, 0.000000000000000000 ) ) ;
#165 = DIRECTION ( 'NONE',  ( 0.9536708087508350973, -0.3008521040919075462, 0.000000000000000000 ) ) ;
#166 = APPLICATION_PROTOCOL_DEFINITION ( 'international standard', 'config_control_design', 1994, #153 ) ;
#167 = CARTESIAN_POINT ( 'NONE',  ( 6141.405790318180152, 4129.483363415190070, 0.000000000000000000 ) ) ;
#168 = ORIENTED_EDGE ( 'NONE', *, *, #352, .F. ) ;
#169 = LINE ( 'NONE', #457, #637 ) ;
#170 = FACE_BOUND ( 'NONE', #289, .T. ) ;
#171 = ORIENTED_EDGE ( 'NONE', *, *, #537, .F. ) ;
#172 = CIRCLE ( 'NONE', #282, 72.08627886317754019 ) ;
#173 = CARTESIAN_POINT ( 'NONE',  ( 6069.319511455009888, 4201.569642278370338, 0.000000000000000000 ) ) ;
#174 = CIRCLE ( 'NONE', #795, 634.3592539959672649 ) ;
#175 = EDGE_LOOP ( 'NONE', ( #129, #138, #724, #210 ) ) ;
#176 = CARTESIAN_POINT ( 'NONE',  ( 6006.806325292919610, 3560.858986546465076, 15.00000000000000000 ) ) ;
#177 = LINE ( 'NONE', #473, #130 ) ;
#178 = CYLINDRICAL_SURFACE ( 'NONE', #864, 30.00000000000024869 ) ;
#179 = LINE ( 'NONE', #119, #87 ) ;
#180 = LINE ( 'NONE', #809, #718 ) ;
#181 = LINE ( 'NONE', #609, #8 ) ;
#182 = ORIENTED_EDGE ( 'NONE', *, *, #685, .F. ) ;
#183 = ADVANCED_FACE ( 'NONE', ( #842 ), #231, .F. ) ;
#184 = DIRECTION ( 'NONE',  ( 0.000000000000000000, 0.000000000000000000, -1.000000000000000000 ) ) ;
#185 = DIRECTION ( 'NONE',  ( -0.3008521040919079903, -0.9536708087508349863, 0.000000000000000000 ) ) ;
#186 = AXIS2_PLACEMENT_3D ( 'NONE', #132, #898, #262 ) ;
#187 = LINE ( 'NONE', #49, #157 ) ;
#188 = LINE ( 'NONE', #771, #331 ) ;
#189 = LINE ( 'NONE', #760, #160 ) ;
#190 = DIRECTION ( 'NONE',  ( 1.000000000000000000, 0.000000000000000000, 0.000000000000000000 ) ) ;
#191 = EDGE_CURVE ( 'NONE', #378, #690, #361, .T. ) ;
#192 = CARTESIAN_POINT ( 'NONE',  ( 5919.373424222510948, 3824.932944611365201, 0.000000000000000000 ) ) ;
#193 = CARTESIAN_POINT ( 'NONE',  ( 5809.623974213879592, 3629.588851102304943, -9.904855529811641876E-13 ) ) ;
#194 = ORIENTED_EDGE ( 'NONE', *, *, #831, .F. ) ;
#195 = DIRECTION ( 'NONE',  ( 0.3008521040919079348, 0.9536708087508349863, -3.491481338843135327E-15 ) ) ;
#196 = AXIS2_PLACEMENT_3D ( 'NONE', #902, #54, #555 ) ;
#197 = CARTESIAN_POINT ( 'NONE',  ( 5804.995486376629742, 3614.968612466685045, 6.065141646674139686 ) ) ;
#198 = CIRCLE ( 'NONE', #56, 30.00000000000024869 ) ;
#199 = VECTOR ( 'NONE', #590, 1000.000000000000000 ) ;
#200 = ORGANIZATION ( '未指定', '未指定', '' ) ;
#201 = EDGE_CURVE ( 'NONE', #435, #131, #226, .T. ) ;
#202 = VERTEX_POINT ( 'NONE', #798 ) ;
#203 = DIRECTION ( 'NONE',  ( -0.3008521040919066025, -0.9536708087508354303, 2.503722994132715513E-15 ) ) ;
#204 = EDGE_LOOP ( 'NONE', ( #229, #420, #811, #849 ) ) ;
#205 = ORIENTED_EDGE ( 'NONE', *, *, #30, .T. ) ;
#206 = CARTESIAN_POINT ( 'NONE',  ( 5831.710038369579706, 3899.886234583660098, 0.000000000000000000 ) ) ;
#207 = ORIENTED_EDGE ( 'NONE', *, *, #645, .F. ) ;
#208 = DIRECTION ( 'NONE',  ( -1.000000000000000000, 0.000000000000000000, 0.000000000000000000 ) ) ;
#209 = COORDINATED_UNIVERSAL_TIME_OFFSET ( 8, 0, .AHEAD. ) ;
#210 = ORIENTED_EDGE ( 'NONE', *, *, #369, .T. ) ;
#211 = FACE_OUTER_BOUND ( 'NONE', #373, .T. ) ;
#212 = EDGE_CURVE ( 'NONE', #378, #452, #288, .T. ) ;
#213 = VECTOR ( 'NONE', #890, 1000.000000000000000 ) ;
#214 = AXIS2_PLACEMENT_3D ( 'NONE', #604, #247, #185 ) ;
#215 = ORIENTED_EDGE ( 'NONE', *, *, #458, .T. ) ;
#216 = PERSON_AND_ORGANIZATION ( #510, #200 ) ;
#217 = CARTESIAN_POINT ( 'NONE',  ( 1561.922828014309971, 4951.137739571060592, -3.000000000000075051 ) ) ;
#218 = CARTESIAN_POINT ( 'NONE',  ( 6011.324311648510047, 4101.721043206979630, 128.1370849898482049 ) ) ;
#219 = VERTEX_POINT ( 'NONE', #792 ) ;
#220 = EDGE_CURVE ( 'NONE', #789, #378, #859, .T. ) ;
#221 = ORIENTED_EDGE ( 'NONE', *, *, #116, .F. ) ;
#222 = CARTESIAN_POINT ( 'NONE',  ( 5947.012271745119506, 3902.760234493510325, 15.00000000000000000 ) ) ;
#223 = DIRECTION ( 'NONE',  ( 1.000000000000000000, 0.000000000000000000, 0.000000000000000000 ) ) ;
#224 = VERTEX_POINT ( 'NONE', #430 ) ;
#225 = CARTESIAN_POINT ( 'NONE',  ( 6069.319511455009888, 4129.483363415190070, 15.00000000000000000 ) ) ;
#226 = CIRCLE ( 'NONE', #484, 115.3380461810833424 ) ;
#227 = CARTESIAN_POINT ( 'NONE',  ( 5808.844039614037683, 3627.182881283876668, -2.214756346922584385 ) ) ;
#228 = AXIS2_PLACEMENT_3D ( 'NONE', #235, #356, #628 ) ;
#229 = ORIENTED_EDGE ( 'NONE', *, *, #711, .F. ) ;
#230 = CARTESIAN_POINT ( 'NONE',  ( 6011.053066403250341, 3574.320727296019413, -9.081277396738579081E-13 ) ) ;
#231 = B_SPLINE_SURFACE_WITH_KNOTS ( 'NONE', 1, 3, ( 
 ( #117, #493, #326, #608, #893, #834, #697, #137, #334, #693 ),
 ( #339, #613, #899, #197, #341, #422, #541, #268, #477, #482 ),
 ( #826, #907, #550, #69, #758, #403, #622, #682, #193, #263 ),
 ( #546, #688, #126, #412, #61, #133, #417, #94, #870, #371 ) ),
 .UNSPECIFIED., .F., .F., .F.,
 ( 2, 1, 1, 2 ),
 ( 4, 2, 2, 2, 4 ),
 ( -0.01000000000000000021, 0.000000000000000000, 1.000000000000000000, 1.010099999999999998 ),
 ( 0.000000000000000000, 0.2500000000000000000, 0.5000000000000000000, 0.7500000000000000000, 1.000000000000000000 ),
 .UNSPECIFIED. ) ;
#232 = CARTESIAN_POINT ( 'NONE',  ( 6011.152785902670075, 3826.721043206979630, 0.000000000000000000 ) ) ;
#233 = ORIENTED_EDGE ( 'NONE', *, *, #677, .F. ) ;
#234 = FACE_OUTER_BOUND ( 'NONE', #552, .T. ) ;
#235 = CARTESIAN_POINT ( 'NONE',  ( 6141.405790318180152, 4129.483363415190070, 0.000000000000000000 ) ) ;
#236 = DIRECTION ( 'NONE',  ( 0.000000000000000000, 0.000000000000000000, -1.000000000000000000 ) ) ;
#237 = DIRECTION ( 'NONE',  ( 0.9536708087508208864, -0.3008521040919530098, 0.000000000000000000 ) ) ;
#238 = ORIENTED_EDGE ( 'NONE', *, *, #367, .F. ) ;
#239 = LINE ( 'NONE', #585, #141 ) ;
#240 = FACE_OUTER_BOUND ( 'NONE', #368, .T. ) ;
#241 = EDGE_CURVE ( 'NONE', #694, #520, #706, .T. ) ;
#242 = PLANE ( 'NONE',  #700 ) ;
#243 = DIRECTION ( 'NONE',  ( 0.000000000000000000, 0.000000000000000000, 1.000000000000000000 ) ) ;
#244 = ORIENTED_EDGE ( 'NONE', *, *, #458, .F. ) ;
#245 = AXIS2_PLACEMENT_3D ( 'NONE', #542, #496, #134 ) ;
#246 = VERTEX_POINT ( 'NONE', #734 ) ;
#247 = DIRECTION ( 'NONE',  ( -0.9536708087508350973, 0.3008521040919080458, -1.214592483526400165E-15 ) ) ;
#248 = EDGE_CURVE ( 'NONE', #202, #456, #29, .T. ) ;
#249 = ADVANCED_FACE ( 'NONE', ( #301 ), #323, .F. ) ;
#250 = ORIENTED_EDGE ( 'NONE', *, *, #220, .T. ) ;
#251 = DIRECTION ( 'NONE',  ( 0.000000000000000000, 0.000000000000000000, -1.000000000000000000 ) ) ;
#252 = ORIENTED_EDGE ( 'NONE', *, *, #808, .T. ) ;
#253 = CARTESIAN_POINT ( 'NONE',  ( 6612.864022107190067, 3373.458867489274780, 0.000000000000000000 ) ) ;
#254 = DIRECTION ( 'NONE',  ( 0.3008521040919079348, 0.9536708087508349863, -3.491481338843135327E-15 ) ) ;
#255 = LINE ( 'NONE', #539, #667 ) ;
#256 = CIRCLE ( 'NONE', #283, 115.3380461810842235 ) ;
#257 = CARTESIAN_POINT ( 'NONE',  ( 6013.469686177900257, 4201.569642278370338, 15.00000000000000000 ) ) ;
#258 = AXIS2_PLACEMENT_3D ( 'NONE', #206, #779, #549 ) ;
#259 = EDGE_CURVE ( 'NONE', #777, #557, #172, .T. ) ;
#260 = DIRECTION ( 'NONE',  ( -0.9536708087508354303, 0.3008521040919066025, 0.000000000000000000 ) ) ;
#261 = CYLINDRICAL_SURFACE ( 'NONE', #72, 115.3380461810842235 ) ;
#262 = DIRECTION ( 'NONE',  ( -1.000000000000000000, 0.000000000000000000, 0.000000000000000000 ) ) ;
#263 = CARTESIAN_POINT ( 'NONE',  ( 5809.744255289439934, 3629.962756923975121, -9.081277396738579081E-13 ) ) ;
#264 = CARTESIAN_POINT ( 'NONE',  ( 1566.435609575690023, 4965.442801702320139, -1.264794822068124017E-11 ) ) ;
#265 = LINE ( 'NONE', #483, #394 ) ;
#266 = ORIENTED_EDGE ( 'NONE', *, *, #23, .F. ) ;
#267 = DIRECTION ( 'NONE',  ( 0.000000000000000000, 0.000000000000000000, -1.000000000000000000 ) ) ;
#268 = CARTESIAN_POINT ( 'NONE',  ( 5808.322571960299683, 3625.470907683924906, 14.53150818002809963 ) ) ;
#269 = ORIENTED_EDGE ( 'NONE', *, *, #6, .T. ) ;
#270 = VERTEX_POINT ( 'NONE', #802 ) ;
#271 = VECTOR ( 'NONE', #524, 1000.000000000000000 ) ;
#272 = LINE ( 'NONE', #66, #213 ) ;
#273 = AXIS2_PLACEMENT_3D ( 'NONE', #39, #124, #901 ) ;
#274 = PERSON_AND_ORGANIZATION_ROLE ( 'classification_officer' ) ;
#275 = ORIENTED_EDGE ( 'NONE', *, *, #835, .F. ) ;
#276 = DIRECTION ( 'NONE',  ( 1.000000000000000000, 0.000000000000000000, 0.000000000000000000 ) ) ;
#277 = DIRECTION ( 'NONE',  ( 0.000000000000000000, 0.000000000000000000, 1.000000000000000000 ) ) ;
#278 = DIRECTION ( 'NONE',  ( 1.000000000000000000, 0.000000000000000000, 0.000000000000000000 ) ) ;
#279 = DIRECTION ( 'NONE',  ( -1.000000000000000000, 0.000000000000000000, 0.000000000000000000 ) ) ;
#280 = ORIENTED_EDGE ( 'NONE', *, *, #614, .F. ) ;
#281 = CARTESIAN_POINT ( 'NONE',  ( 6011.053066403250341, 3574.320727296019413, -9.081277396738579081E-13 ) ) ;
#282 = AXIS2_PLACEMENT_3D ( 'NONE', #57, #674, #654 ) ;
#283 = AXIS2_PLACEMENT_3D ( 'NONE', #446, #719, #713 ) ;
#284 = VECTOR ( 'NONE', #440, 1000.000000000000114 ) ;
#285 = ORIENTED_EDGE ( 'NONE', *, *, #607, .T. ) ;
#286 = LINE ( 'NONE', #79, #284 ) ;
#287 = EDGE_CURVE ( 'NONE', #158, #424, #239, .T. ) ;
#288 = LINE ( 'NONE', #447, #736 ) ;
#289 = EDGE_LOOP ( 'NONE', ( #280, #182 ) ) ;
#290 = CARTESIAN_POINT ( 'NONE',  ( 5804.480967581393088, 3613.352383250397452, 1.667086233163334263 ) ) ;
#291 = VERTEX_POINT ( 'NONE', #479 ) ;
#292 = DIRECTION ( 'NONE',  ( -0.9536708087508337650, 0.3008521040919124312, 0.000000000000000000 ) ) ;
#293 = DIRECTION ( 'NONE',  ( 1.000000000000000000, 0.000000000000000000, 0.000000000000000000 ) ) ;
#294 = ADVANCED_FACE ( 'NONE', ( #588 ), #877, .T. ) ;
#295 = LINE ( 'NONE', #803, #43 ) ;
#296 = DIRECTION ( 'NONE',  ( -0.000000000000000000, -0.000000000000000000, -1.000000000000000000 ) ) ;
#297 = CIRCLE ( 'NONE', #392, 634.3592539959672649 ) ;
#298 = ORIENTED_EDGE ( 'NONE', *, *, #831, .T. ) ;
#299 = ORIENTED_EDGE ( 'NONE', *, *, #884, .T. ) ;
#300 = VECTOR ( 'NONE', #195, 1000.000000000000227 ) ;
#301 = FACE_OUTER_BOUND ( 'NONE', #871, .T. ) ;
#302 = LINE ( 'NONE', #876, #85 ) ;
#303 = DIRECTION ( 'NONE',  ( 0.000000000000000000, 0.000000000000000000, -1.000000000000000000 ) ) ;
#304 = ORIENTED_EDGE ( 'NONE', *, *, #407, .T. ) ;
#305 = DIRECTION ( 'NONE',  ( -0.3008521040919289180, -0.9536708087508285470, 2.433431542689760787E-15 ) ) ;
#306 = CARTESIAN_POINT ( 'NONE',  ( 6008.796675622559633, 3567.168196230389640, -9.081277396738579081E-13 ) ) ;
#307 = ADVANCED_FACE ( 'NONE', ( #756 ), #812, .T. ) ;
#308 = VERTEX_POINT ( 'NONE', #107 ) ;
#309 = VERTEX_POINT ( 'NONE', #173 ) ;
#310 = DIRECTION ( 'NONE',  ( 1.000000000000000000, 0.000000000000000000, 0.000000000000000000 ) ) ;
#311 = ORIENTED_EDGE ( 'NONE', *, *, #347, .F. ) ;
#312 = CALENDAR_DATE ( 2026, 10, 4 ) ;
#313 = DIRECTION ( 'NONE',  ( 0.000000000000000000, 0.000000000000000000, -1.000000000000000000 ) ) ;
#314 = FACE_BOUND ( 'NONE', #657, .T. ) ;
#315 = EDGE_CURVE ( 'NONE', #506, #202, #169, .T. ) ;
#316 = CIRCLE ( 'NONE', #258, 115.3380461810842235 ) ;
#317 = LOCAL_TIME ( 15, 3, 34.00000000000000000, #327 ) ;
#318 = ORIENTED_EDGE ( 'NONE', *, *, #746, .T. ) ;
#319 = CARTESIAN_POINT ( 'NONE',  ( 5805.650663336770776, 3617.034399731041958, 8.894881510451227768 ) ) ;
#320 = CARTESIAN_POINT ( 'NONE',  ( 6357.690353486990716, 4201.569642278370338, 15.00000000000000000 ) ) ;
#321 = DIRECTION ( 'NONE',  ( -1.000000000000000000, 0.000000000000000000, 0.000000000000000000 ) ) ;
#322 = CARTESIAN_POINT ( 'NONE',  ( 6071.324311648510047, 4101.721043206979630, 0.000000000000000000 ) ) ;
#323 = PLANE ( 'NONE',  #623 ) ;
#324 = CARTESIAN_POINT ( 'NONE',  ( 6013.469686177900257, 4201.569642278370338, 0.000000000000000000 ) ) ;
#325 = EDGE_CURVE ( 'NONE', #202, #766, #187, .T. ) ;
#326 = CARTESIAN_POINT ( 'NONE',  ( 5804.404760418119622, 3613.110814233445126, 1.750724101119744969 ) ) ;
#327 = COORDINATED_UNIVERSAL_TIME_OFFSET ( 8, 0, .AHEAD. ) ;
#328 = CARTESIAN_POINT ( 'NONE',  ( 5941.405790318180152, 4127.687113471534758, 0.000000000000000000 ) ) ;
#329 = FACE_OUTER_BOUND ( 'NONE', #709, .T. ) ;
#330 = CARTESIAN_POINT ( 'NONE',  ( 6357.690353486990716, 3450.166494749720187, 15.00000000000000000 ) ) ;
#331 = VECTOR ( 'NONE', #203, 1000.000000000000341 ) ;
#332 = LINE ( 'NONE', #847, #300 ) ;
#333 = CIRCLE ( 'NONE', #442, 72.08627886317842126 ) ;
#334 = CARTESIAN_POINT ( 'NONE',  ( 5809.027237700450314, 3627.697256575890151, 15.14999999999859881 ) ) ;
#335 = PLANE ( 'NONE',  #783 ) ;
#336 = CIRCLE ( 'NONE', #723, 30.00000000000024869 ) ;
#337 = LINE ( 'NONE', #405, #866 ) ;
#338 = CYLINDRICAL_SURFACE ( 'NONE', #142, 72.08627886317754019 ) ;
#339 = CARTESIAN_POINT ( 'NONE',  ( 5804.303536830079793, 3612.804689115275323, -3.000000000000075051 ) ) ;
#340 = VERTEX_POINT ( 'NONE', #605 ) ;
#341 = CARTESIAN_POINT ( 'NONE',  ( 5805.398983809829588, 3616.240286889670188, 8.061840959546728413 ) ) ;
#342 =( NAMED_UNIT ( * ) SI_UNIT ( $, .STERADIAN. ) SOLID_ANGLE_UNIT ( ) );
#343 = VERTEX_POINT ( 'NONE', #892 ) ;
#344 = SECURITY_CLASSIFICATION_LEVEL ( 'unclassified' ) ;
#345 = AXIS2_PLACEMENT_3D ( 'NONE', #661, #236, #321 ) ;
#346 = AXIS2_PLACEMENT_3D ( 'NONE', #863, #292, #305 ) ;
#347 = EDGE_CURVE ( 'NONE', #309, #777, #255, .T. ) ;
#348 = ORIENTED_EDGE ( 'NONE', *, *, #376, .F. ) ;
#349 = PERSON_AND_ORGANIZATION ( #510, #200 ) ;
#350 = ORIENTED_EDGE ( 'NONE', *, *, #352, .T. ) ;
#351 = CARTESIAN_POINT ( 'NONE',  ( 6011.152785902670075, 3826.721043206979630, 128.1370849898482049 ) ) ;
#352 = EDGE_CURVE ( 'NONE', #219, #435, #120, .T. ) ;
#353 = ORIENTED_EDGE ( 'NONE', *, *, #740, .T. ) ;
#354 = PERSON_AND_ORGANIZATION ( #510, #200 ) ;
#355 = ORIENTED_EDGE ( 'NONE', *, *, #577, .T. ) ;
#356 = DIRECTION ( 'NONE',  ( 1.000000000000000000, 0.000000000000000000, 0.000000000000000000 ) ) ;
#357 = CARTESIAN_POINT ( 'NONE',  ( 6026.067744137100817, 3840.059521210640014, 0.000000000000000000 ) ) ;
#358 = DIRECTION ( 'NONE',  ( 1.000000000000000000, 0.000000000000000000, 0.000000000000000000 ) ) ;
#359 = CARTESIAN_POINT ( 'NONE',  ( 6041.324311648510047, 4101.721043206979630, 128.1370849898482049 ) ) ;
#360 = ADVANCED_FACE ( 'NONE', ( #329 ), #610, .T. ) ;
#361 = LINE ( 'NONE', #573, #428 ) ;
#362 = CIRCLE ( 'NONE', #55, 30.00000000000024869 ) ;
#363 = ORIENTED_EDGE ( 'NONE', *, *, #325, .F. ) ;
#364 = PRODUCT_DEFINITION_SHAPE ( 'NONE', 'NONE',  #735 ) ;
#365 = CARTESIAN_POINT ( 'NONE',  ( 5804.303536830079793, 3612.804689115275323, -3.000000000000075051 ) ) ;
#366 = SHAPE_DEFINITION_REPRESENTATION ( #364, #564 ) ;
#367 = EDGE_CURVE ( 'NONE', #291, #158, #337, .T. ) ;
#368 = EDGE_LOOP ( 'NONE', ( #383, #68, #13, #846 ) ) ;
#369 = EDGE_CURVE ( 'NONE', #766, #7, #469, .T. ) ;
#370 = CARTESIAN_POINT ( 'NONE',  ( 6041.152785902670075, 3826.721043206979630, 15.00000000000000000 ) ) ;
#371 = CARTESIAN_POINT ( 'NONE',  ( 5809.744255289439934, 3629.962756923975121, -0.1515000000009079917 ) ) ;
#372 = ORIENTED_EDGE ( 'NONE', *, *, #845, .T. ) ;
#373 = EDGE_LOOP ( 'NONE', ( #46, #136, #503, #194 ) ) ;
#374 = CALENDAR_DATE ( 2026, 10, 4 ) ;
#375 = FACE_OUTER_BOUND ( 'NONE', #652, .T. ) ;
#376 = EDGE_CURVE ( 'NONE', #224, #708, #189, .T. ) ;
#377 = DIRECTION ( 'NONE',  ( 1.000000000000000000, 0.000000000000000000, 0.000000000000000000 ) ) ;
#378 = VERTEX_POINT ( 'NONE', #98 ) ;
#379 = ADVANCED_FACE ( 'NONE', ( #375 ), #648, .T. ) ;
#380 = CYLINDRICAL_SURFACE ( 'NONE', #596, 576.6902309054255511 ) ;
#381 = AXIS2_PLACEMENT_3D ( 'NONE', #427, #267, #279 ) ;
#382 = DIRECTION ( 'NONE',  ( 0.02491805614023844678, -0.9996894970330497676, 0.000000000000000000 ) ) ;
#383 = ORIENTED_EDGE ( 'NONE', *, *, #476, .F. ) ;
#384 = APPROVAL_DATE_TIME ( #887, #565 ) ;
#385 = DIRECTION ( 'NONE',  ( 0.000000000000000000, 0.000000000000000000, 1.000000000000000000 ) ) ;
#386 = ORIENTED_EDGE ( 'NONE', *, *, #460, .F. ) ;
#387 = CARTESIAN_POINT ( 'NONE',  ( 6007.894119310279166, 3564.307183804140095, -3.155443620884044711E-27 ) ) ;
#388 =( LENGTH_UNIT ( ) NAMED_UNIT ( * ) SI_UNIT ( .MILLI., .METRE. ) );
#389 = ORIENTED_EDGE ( 'NONE', *, *, #23, .T. ) ;
#390 = EDGE_CURVE ( 'NONE', #308, #112, #198, .T. ) ;
#391 = DIRECTION ( 'NONE',  ( 0.000000000000000000, 0.000000000000000000, -1.000000000000000000 ) ) ;
#392 = AXIS2_PLACEMENT_3D ( 'NONE', #253, #184, #619 ) ;
#393 = AXIS2_PLACEMENT_3D ( 'NONE', #148, #710, #425 ) ;
#394 = VECTOR ( 'NONE', #413, 1000.000000000000000 ) ;
#395 = CYLINDRICAL_SURFACE ( 'NONE', #345, 30.00000000000024869 ) ;
#396 = CARTESIAN_POINT ( 'NONE',  ( 5809.744255289439934, 3629.962756923975121, 14.99999999999910116 ) ) ;
#397 = PLANE ( 'NONE',  #273 ) ;
#398 = MECHANICAL_CONTEXT ( 'NONE', #153, 'mechanical' ) ;
#399 = CARTESIAN_POINT ( 'NONE',  ( 5947.012271745119506, 3902.760234493510325, 0.000000000000000000 ) ) ;
#400 = FACE_OUTER_BOUND ( 'NONE', #517, .T. ) ;
#401 = ORIENTED_EDGE ( 'NONE', *, *, #624, .F. ) ;
#402 = CC_DESIGN_PERSON_AND_ORGANIZATION_ASSIGNMENT ( #750, #599, ( #735 ) ) ;
#403 = CARTESIAN_POINT ( 'NONE',  ( 5809.179017024101086, 3628.207867266954963, -0.6009994728064390612 ) ) ;
#404 = DIRECTION ( 'NONE',  ( 0.3008521040919066025, 0.9536708087508354303, -2.429184967052791257E-15 ) ) ;
#405 = CARTESIAN_POINT ( 'NONE',  ( 6361.937094597329633, 3463.628235499294533, 15.00000000000000000 ) ) ;
#406 = CARTESIAN_POINT ( 'NONE',  ( 5947.012271745119506, 3902.760234493510325, 0.000000000000000000 ) ) ;
#407 = EDGE_CURVE ( 'NONE', #343, #694, #814, .T. ) ;
#408 = EDGE_LOOP ( 'NONE', ( #912, #135, #215, #584 ) ) ;
#409 = VECTOR ( 'NONE', #47, 1000.000000000000000 ) ;
#410 = DIRECTION ( 'NONE',  ( 0.000000000000000000, 0.000000000000000000, 1.000000000000000000 ) ) ;
#411 = AXIS2_PLACEMENT_3D ( 'NONE', #527, #467, #815 ) ;
#412 = CARTESIAN_POINT ( 'NONE',  ( 5808.978519870310265, 3627.594426684150221, -1.565441334414179986 ) ) ;
#413 = DIRECTION ( 'NONE',  ( 0.000000000000000000, 4.037174635000570385E-15, 1.000000000000000000 ) ) ;
#414 = ADVANCED_FACE ( 'NONE', ( #144 ), #632, .F. ) ;
#415 = CYLINDRICAL_SURFACE ( 'NONE', #704, 2.999999999999212186 ) ;
#416 = PERSON_AND_ORGANIZATION ( #510, #200 ) ;
#417 = CARTESIAN_POINT ( 'NONE',  ( 5809.304205101219850, 3628.597329117434583, -0.5110194727739140186 ) ) ;
#418 = EDGE_CURVE ( 'NONE', #456, #291, #582, .T. ) ;
#419 = EDGE_CURVE ( 'NONE', #112, #340, #563, .T. ) ;
#420 = ORIENTED_EDGE ( 'NONE', *, *, #489, .F. ) ;
#421 = ORIENTED_EDGE ( 'NONE', *, *, #248, .F. ) ;
#422 = CARTESIAN_POINT ( 'NONE',  ( 5806.405701917589795, 3619.416738255149994, 11.39400316316524098 ) ) ;
#423 = ORIENTED_EDGE ( 'NONE', *, *, #419, .T. ) ;
#424 = VERTEX_POINT ( 'NONE', #5 ) ;
#425 = DIRECTION ( 'NONE',  ( 0.3008521040919079903, 0.9536708087508349863, 0.000000000000000000 ) ) ;
#426 = DIRECTION ( 'NONE',  ( -0.3008521040918508693, -0.9536708087508529719, -5.348730717596559643E-15 ) ) ;
#427 = CARTESIAN_POINT ( 'NONE',  ( 6041.152785902670075, 3826.721043206979630, 0.000000000000000000 ) ) ;
#428 = VECTOR ( 'NONE', #509, 1000.000000000000000 ) ;
#429 = CIRCLE ( 'NONE', #570, 115.3380461810833424 ) ;
#430 = CARTESIAN_POINT ( 'NONE',  ( 6141.405790318180152, 3840.059521210640014, 15.00000000000000000 ) ) ;
#431 = EDGE_LOOP ( 'NONE', ( #504, #790, #350, #74 ) ) ;
#432 = ADVANCED_FACE ( 'NONE', ( #211 ), #791, .F. ) ;
#433 = DIRECTION ( 'NONE',  ( -1.000000000000000000, 0.000000000000000000, 0.000000000000000000 ) ) ;
#434 = CARTESIAN_POINT ( 'NONE',  ( 6141.405790318180152, 4129.483363415190070, 15.00000000000000000 ) ) ;
#435 = VERTEX_POINT ( 'NONE', #92 ) ;
#436 = DIRECTION ( 'NONE',  ( 0.9536708087508378728, -0.3008521040918989420, 0.000000000000000000 ) ) ;
#437 = VERTEX_POINT ( 'NONE', #854 ) ;
#438 = EDGE_CURVE ( 'NONE', #452, #7, #9, .T. ) ;
#439 = CARTESIAN_POINT ( 'NONE',  ( 6011.053066403250341, 3574.320727296019413, -9.081277396738579081E-13 ) ) ;
#440 = DIRECTION ( 'NONE',  ( 0.9536708087508336540, -0.3008521040919124312, -0.000000000000000000 ) ) ;
#441 = DIRECTION ( 'NONE',  ( 1.000000000000000000, 0.000000000000000000, 0.000000000000000000 ) ) ;
#442 = AXIS2_PLACEMENT_3D ( 'NONE', #225, #508, #89 ) ;
#443 = CIRCLE ( 'NONE', #768, 576.6902309054255511 ) ;
#444 = PRODUCT_DEFINITION_FORMATION_WITH_SPECIFIED_SOURCE ( '任何', '', #910, .NOT_KNOWN. ) ;
#445 = CARTESIAN_POINT ( 'NONE',  ( 5809.623995895630287, 3629.588918502207889, -9.903140289391366153E-13 ) ) ;
#446 = CARTESIAN_POINT ( 'NONE',  ( 5831.710038369579706, 3899.886234583660098, 15.00000000000000000 ) ) ;
#447 = CARTESIAN_POINT ( 'NONE',  ( 5808.816318391460300, 3627.109751246534870, -3.000000000000115019 ) ) ;
#448 = CC_DESIGN_PERSON_AND_ORGANIZATION_ASSIGNMENT ( #354, #274, ( #556 ) ) ;
#449 = ORIENTED_EDGE ( 'NONE', *, *, #486, .T. ) ;
#450 = EDGE_CURVE ( 'NONE', #560, #111, #858, .T. ) ;
#451 = DIRECTION ( 'NONE',  ( 0.9536708087508337650, -0.3008521040919124312, -0.000000000000000000 ) ) ;
#452 = VERTEX_POINT ( 'NONE', #865 ) ;
#453 = DIRECTION ( 'NONE',  ( 0.000000000000000000, -1.000000000000000000, 3.329723832152979790E-15 ) ) ;
#454 = EDGE_LOOP ( 'NONE', ( #491, #633, #772, #275, #547, #311, #716, #521, #33, #71, #386, #421 ) ) ;
#455 = CIRCLE ( 'NONE', #196, 30.00000000000024869 ) ;
#456 = VERTEX_POINT ( 'NONE', #439 ) ;
#457 = CARTESIAN_POINT ( 'NONE',  ( 5809.718874703729853, 3629.970763672789872, -9.081277396738579081E-13 ) ) ;
#458 = EDGE_CURVE ( 'NONE', #560, #557, #505, .T. ) ;
#459 = CC_DESIGN_APPROVAL ( #500, ( #556 ) ) ;
#460 = EDGE_CURVE ( 'NONE', #456, #424, #784, .T. ) ;
#461 = ORIENTED_EDGE ( 'NONE', *, *, #53, .T. ) ;
#462 = DIRECTION ( 'NONE',  ( 0.3008521040919529543, 0.9536708087508207754, 0.000000000000000000 ) ) ;
#463 = ORIENTED_EDGE ( 'NONE', *, *, #53, .F. ) ;
#464 = CC_DESIGN_PERSON_AND_ORGANIZATION_ASSIGNMENT ( #492, #695, ( #444 ) ) ;
#465 = EDGE_LOOP ( 'NONE', ( #523, #616, #372, #804 ) ) ;
#466 = DIRECTION ( 'NONE',  ( 0.000000000000000000, 0.000000000000000000, 1.000000000000000000 ) ) ;
#467 = DIRECTION ( 'NONE',  ( 0.000000000000000000, 0.000000000000000000, 1.000000000000000000 ) ) ;
#468 = DIRECTION ( 'NONE',  ( 0.000000000000000000, 0.000000000000000000, -1.000000000000000000 ) ) ;
#469 = CIRCLE ( 'NONE', #127, 17.99999999999945999 ) ;
#470 = AXIS2_PLACEMENT_3D ( 'NONE', #681, #277, #559 ) ;
#471 = LINE ( 'NONE', #399, #593 ) ;
#472 = LINE ( 'NONE', #176, #738 ) ;
#473 = CARTESIAN_POINT ( 'NONE',  ( 6141.405790318180152, 3840.059521210640014, 0.000000000000000000 ) ) ;
#474 = DIRECTION ( 'NONE',  ( 1.050419507188586022E-15, 3.329723832152979790E-15, 1.000000000000000000 ) ) ;
#475 = FACE_BOUND ( 'NONE', #99, .T. ) ;
#476 = EDGE_CURVE ( 'NONE', #111, #627, #256, .T. ) ;
#477 = CARTESIAN_POINT ( 'NONE',  ( 5809.033145982760288, 3627.715985234564869, 14.99999999999860023 ) ) ;
#478 = CARTESIAN_POINT ( 'NONE',  ( 5807.337039107007513, 3622.357925576948674, 13.17899328778788970 ) ) ;
#479 = CARTESIAN_POINT ( 'NONE',  ( 6011.053066403250341, 3574.320727296019413, 15.00000000000000000 ) ) ;
#480 = ORIENTED_EDGE ( 'NONE', *, *, #108, .T. ) ;
#481 = CALENDAR_DATE ( 2026, 10, 4 ) ;
#482 = CARTESIAN_POINT ( 'NONE',  ( 5809.744255289439934, 3629.962756923975121, 14.99999999999910116 ) ) ;
#483 = CARTESIAN_POINT ( 'NONE',  ( 6003.381337748909573, 3550.002121672875091, 5.237222008264379440E-14 ) ) ;
#484 = AXIS2_PLACEMENT_3D ( 'NONE', #357, #12, #441 ) ;
#485 = ORIENTED_EDGE ( 'NONE', *, *, #579, .T. ) ;
#486 = EDGE_CURVE ( 'NONE', #708, #437, #333, .T. ) ;
#487 = AXIS2_PLACEMENT_3D ( 'NONE', #359, #636, #433 ) ;
#488 = CARTESIAN_POINT ( 'NONE',  ( 5947.012271745119506, 3902.760234493510325, 15.00000000000000000 ) ) ;
#489 = EDGE_CURVE ( 'NONE', #452, #497, #84, .T. ) ;
#490 = LOCAL_TIME ( 15, 3, 34.00000000000000000, #534 ) ;
#491 = ORIENTED_EDGE ( 'NONE', *, *, #315, .F. ) ;
#492 = PERSON_AND_ORGANIZATION ( #510, #200 ) ;
#493 = CARTESIAN_POINT ( 'NONE',  ( 5804.260524444609473, 3612.660971144594896, -0.6237422005010719861 ) ) ;
#494 = ORIENTED_EDGE ( 'NONE', *, *, #438, .F. ) ;
#495 = DATE_AND_TIME ( #850, #513 ) ;
#496 = DIRECTION ( 'NONE',  ( 0.000000000000000000, 0.000000000000000000, -1.000000000000000000 ) ) ;
#497 = VERTEX_POINT ( 'NONE', #51 ) ;
#498 = DIRECTION ( 'NONE',  ( 0.02491805614023844331, -0.9996894970330497676, 0.000000000000000000 ) ) ;
#499 = AXIS2_PLACEMENT_3D ( 'NONE', #65, #829, #426 ) ;
#500 = APPROVAL ( #581, '未指定' ) ;
#501 = ORIENTED_EDGE ( 'NONE', *, *, #806, .T. ) ;
#502 = ORIENTED_EDGE ( 'NONE', *, *, #855, .T. ) ;
#503 = ORIENTED_EDGE ( 'NONE', *, *, #577, .F. ) ;
#504 = ORIENTED_EDGE ( 'NONE', *, *, #905, .F. ) ;
#505 = LINE ( 'NONE', #161, #105 ) ;
#506 = VERTEX_POINT ( 'NONE', #759 ) ;
#507 = CARTESIAN_POINT ( 'NONE',  ( 5808.938693478579808, 3627.468181041547723, -1.489143058888000359 ) ) ;
#508 = DIRECTION ( 'NONE',  ( 0.000000000000000000, 0.000000000000000000, 1.000000000000000000 ) ) ;
#509 = DIRECTION ( 'NONE',  ( -8.074349270001140771E-15, 0.000000000000000000, -1.000000000000000000 ) ) ;
#510 = PERSON ( '未指定', '未指定', '未指定', ('未指定'), ('未指定'), ('未指定') ) ;
#511 = VECTOR ( 'NONE', #548, 1000.000000000000000 ) ;
#512 = EDGE_LOOP ( 'NONE', ( #698, #145, #299, #353 ) ) ;
#513 = LOCAL_TIME ( 15, 3, 34.00000000000000000, #209 ) ;
#514 = DIRECTION ( 'NONE',  ( 1.000000000000000000, 0.000000000000000000, 0.000000000000000000 ) ) ;
#515 = DIRECTION ( 'NONE',  ( -0.000000000000000000, -0.000000000000000000, -1.000000000000000000 ) ) ;
#516 = ADVANCED_FACE ( 'NONE', ( #38 ), #335, .F. ) ;
#517 = EDGE_LOOP ( 'NONE', ( #572, #77, #285, #647 ) ) ;
#518 = EDGE_LOOP ( 'NONE', ( #494, #298, #205, #501 ) ) ;
#519 = DIRECTION ( 'NONE',  ( -0.3008521040919289180, -0.9536708087508285470, -7.107547575182964983E-15 ) ) ;
#520 = VERTEX_POINT ( 'NONE', #322 ) ;
#521 = ORIENTED_EDGE ( 'NONE', *, *, #82, .F. ) ;
#522 = LINE ( 'NONE', #151, #199 ) ;
#523 = ORIENTED_EDGE ( 'NONE', *, *, #93, .T. ) ;
#524 = DIRECTION ( 'NONE',  ( 0.000000000000000000, 0.000000000000000000, -1.000000000000000000 ) ) ;
#525 = ORIENTED_EDGE ( 'NONE', *, *, #757, .F. ) ;
#526 = CLOSED_SHELL ( 'NONE', ( #18, #36, #868, #630, #32, #786, #307, #665, #714, #568, #379, #294, #751, #765, #889, #660, #183, #635, #840, #432, #551, #516, #360, #249, #602, #414 ) ) ;
#527 = CARTESIAN_POINT ( 'NONE',  ( 6069.319511455009888, 4129.483363415190070, 0.000000000000000000 ) ) ;
#528 = FACE_OUTER_BOUND ( 'NONE', #853, .T. ) ;
#529 = CIRCLE ( 'NONE', #595, 30.00000000000024869 ) ;
#530 = CARTESIAN_POINT ( 'NONE',  ( 6357.690353486990716, 3450.166494749720187, 0.000000000000000000 ) ) ;
#531 = DIRECTION ( 'NONE',  ( -1.000000000000000000, 0.000000000000000000, 0.000000000000000000 ) ) ;
#532 = CARTESIAN_POINT ( 'NONE',  ( 6041.152785902670075, 3826.721043206979630, 0.000000000000000000 ) ) ;
#533 = CARTESIAN_POINT ( 'NONE',  ( 6041.324311648510047, 4101.721043206979630, 0.000000000000000000 ) ) ;
#534 = COORDINATED_UNIVERSAL_TIME_OFFSET ( 8, 0, .AHEAD. ) ;
#535 = CYLINDRICAL_SURFACE ( 'NONE', #245, 30.00000000000024869 ) ;
#536 = CC_DESIGN_DATE_AND_TIME_ASSIGNMENT ( #495, #73, ( #556 ) ) ;
#537 = EDGE_CURVE ( 'NONE', #101, #789, #110, .T. ) ;
#538 = CARTESIAN_POINT ( 'NONE',  ( 5806.154022390643149, 3618.622625413780952, 10.56096261226048938 ) ) ;
#539 = CARTESIAN_POINT ( 'NONE',  ( 6013.469686177900257, 4201.569642278370338, 0.000000000000000000 ) ) ;
#540 = VECTOR ( 'NONE', #703, 1000.000000000000341 ) ;
#541 = CARTESIAN_POINT ( 'NONE',  ( 5807.008528155909516, 3621.320264874620079, 12.72815499037479903 ) ) ;
#542 = CARTESIAN_POINT ( 'NONE',  ( 6041.152785902670075, 3826.721043206979630, 128.1370849898482049 ) ) ;
#543 = DIRECTION ( 'NONE',  ( 0.9536708087508378728, -0.3008521040918989420, 0.000000000000000000 ) ) ;
#544 = DIRECTION ( 'NONE',  ( -1.000000000000000000, -0.000000000000000000, -0.000000000000000000 ) ) ;
#545 = LINE ( 'NONE', #680, #511 ) ;
#546 = CARTESIAN_POINT ( 'NONE',  ( 5808.861897485230656, 3627.254232374064941, -3.000000000000115019 ) ) ;
#547 = ORIENTED_EDGE ( 'NONE', *, *, #259, .F. ) ;
#548 = DIRECTION ( 'NONE',  ( -8.074349270001140771E-15, 0.000000000000000000, -1.000000000000000000 ) ) ;
#549 = DIRECTION ( 'NONE',  ( 1.000000000000000000, 0.000000000000000000, 0.000000000000000000 ) ) ;
#550 = CARTESIAN_POINT ( 'NONE',  ( 5808.844039614040412, 3627.182881283874849, -2.214756346922584829 ) ) ;
#551 = ADVANCED_FACE ( 'NONE', ( #601 ), #753, .F. ) ;
#552 = EDGE_LOOP ( 'NONE', ( #244, #233, #578, #857 ) ) ;
#553 = LINE ( 'NONE', #60, #583 ) ;
#554 = VECTOR ( 'NONE', #544, 1000.000000000000000 ) ;
#555 = DIRECTION ( 'NONE',  ( 1.000000000000000000, 0.000000000000000000, 0.000000000000000000 ) ) ;
#556 = SECURITY_CLASSIFICATION ( '', '', #344 ) ;
#557 = VERTEX_POINT ( 'NONE', #328 ) ;
#558 = ORIENTED_EDGE ( 'NONE', *, *, #287, .T. ) ;
#559 = DIRECTION ( 'NONE',  ( 1.000000000000000000, 0.000000000000000000, 0.000000000000000000 ) ) ;
#560 = VERTEX_POINT ( 'NONE', #683 ) ;
#561 = ORIENTED_EDGE ( 'NONE', *, *, #884, .F. ) ;
#562 = DATE_TIME_ROLE ( 'creation_date' ) ;
#563 = LINE ( 'NONE', #154, #70 ) ;
#564 = ADVANCED_BREP_SHAPE_REPRESENTATION ( 'SPACER 02(Varsay_lan)_\X2\9ed88ba4\X0\_sldprt', ( #64, #838 ), #797 ) ;
#565 = APPROVAL ( #34, '未指定' ) ;
#566 = EDGE_LOOP ( 'NONE', ( #856, #463 ) ) ;
#567 = VECTOR ( 'NONE', #103, 1000.000000000000000 ) ;
#568 = ADVANCED_FACE ( 'NONE', ( #891 ), #888, .T. ) ;
#569 = AXIS2_PLACEMENT_3D ( 'NONE', #643, #515, #293 ) ;
#570 = AXIS2_PLACEMENT_3D ( 'NONE', #62, #410, #276 ) ;
#571 = ORIENTED_EDGE ( 'NONE', *, *, #875, .T. ) ;
#572 = ORIENTED_EDGE ( 'NONE', *, *, #419, .F. ) ;
#573 = CARTESIAN_POINT ( 'NONE',  ( 5808.816318391460300, 3627.109751246534870, -110.0000000000000000 ) ) ;
#574 = ORIENTED_EDGE ( 'NONE', *, *, #241, .T. ) ;
#575 = EDGE_CURVE ( 'NONE', #766, #291, #472, .T. ) ;
#576 = APPROVAL_STATUS ( 'not_yet_approved' ) ;
#577 = EDGE_CURVE ( 'NONE', #81, #690, #181, .T. ) ;
#578 = ORIENTED_EDGE ( 'NONE', *, *, #586, .T. ) ;
#579 = EDGE_CURVE ( 'NONE', #158, #219, #174, .T. ) ;
#580 = CARTESIAN_POINT ( 'NONE',  ( 5808.816318391460300, 3627.109751246534870, -3.000000000000115019 ) ) ;
#581 = APPROVAL_STATUS ( 'not_yet_approved' ) ;
#582 = LINE ( 'NONE', #281, #26 ) ;
#583 = VECTOR ( 'NONE', #841, 1000.000000000000000 ) ;
#584 = ORIENTED_EDGE ( 'NONE', *, *, #835, .T. ) ;
#585 = CARTESIAN_POINT ( 'NONE',  ( 6011.135944842019853, 3574.294581845765151, 0.000000000000000000 ) ) ;
#586 = EDGE_CURVE ( 'NONE', #152, #777, #179, .T. ) ;
#587 = ORIENTED_EDGE ( 'NONE', *, *, #816, .T. ) ;
#588 = FACE_OUTER_BOUND ( 'NONE', #431, .T. ) ;
#589 = DIRECTION ( 'NONE',  ( 0.9536708087508350973, -0.3008521040919075462, 0.000000000000000000 ) ) ;
#590 = DIRECTION ( 'NONE',  ( 0.000000000000000000, 0.000000000000000000, -1.000000000000000000 ) ) ;
#591 = AXIS2_PLACEMENT_3D ( 'NONE', #731, #466, #377 ) ;
#592 = FACE_OUTER_BOUND ( 'NONE', #125, .T. ) ;
#593 = VECTOR ( 'NONE', #773, 1000.000000000000000 ) ;
#594 = DIRECTION ( 'NONE',  ( 0.000000000000000000, 4.037174635000570385E-15, 1.000000000000000000 ) ) ;
#595 = AXIS2_PLACEMENT_3D ( 'NONE', #532, #819, #208 ) ;
#596 = AXIS2_PLACEMENT_3D ( 'NONE', #653, #243, #223 ) ;
#597 = PLANE ( 'NONE',  #796 ) ;
#598 = CARTESIAN_POINT ( 'NONE',  ( 5804.303536830079793, 3612.804689115275323, -110.0000000000000000 ) ) ;
#599 = PERSON_AND_ORGANIZATION_ROLE ( 'creator' ) ;
#600 = UNCERTAINTY_MEASURE_WITH_UNIT (LENGTH_MEASURE( 1.000000000000000082E-05 ), #388, 'distance_accuracy_value', 'NONE');
#601 = FACE_OUTER_BOUND ( 'NONE', #465, .T. ) ;
#602 = ADVANCED_FACE ( 'NONE', ( #400 ), #535, .F. ) ;
#603 = ORIENTED_EDGE ( 'NONE', *, *, #347, .T. ) ;
#604 = CARTESIAN_POINT ( 'NONE',  ( 6003.381337748909573, 3550.002121672875091, 5.237222008264379440E-14 ) ) ;
#605 = CARTESIAN_POINT ( 'NONE',  ( 6071.152785902670985, 3826.721043206979630, 0.000000000000000000 ) ) ;
#606 = DIRECTION ( 'NONE',  ( -1.000000000000000000, 0.000000000000000000, 0.000000000000000000 ) ) ;
#607 = EDGE_CURVE ( 'NONE', #308, #19, #903, .T. ) ;
#608 = CARTESIAN_POINT ( 'NONE',  ( 5804.956054305610451, 3614.843616780939556, 6.140684493729760440 ) ) ;
#609 = CARTESIAN_POINT ( 'NONE',  ( 5804.303536830079793, 3612.804689115275323, -110.0000000000000000 ) ) ;
#610 = PLANE ( 'NONE',  #883 ) ;
#611 = FACE_OUTER_BOUND ( 'NONE', #31, .T. ) ;
#612 = CARTESIAN_POINT ( 'NONE',  ( 5808.816318391460300, 3627.109751246534870, -110.0000000000000000 ) ) ;
#613 = CARTESIAN_POINT ( 'NONE',  ( 5804.305652260230090, 3612.804021765905418, -0.6433806947335820592 ) ) ;
#614 = EDGE_CURVE ( 'NONE', #19, #340, #529, .T. ) ;
#615 = DIRECTION ( 'NONE',  ( 0.000000000000000000, 1.000000000000000000, 0.000000000000000000 ) ) ;
#616 = ORIENTED_EDGE ( 'NONE', *, *, #806, .F. ) ;
#617 = FACE_OUTER_BOUND ( 'NONE', #739, .T. ) ;
#618 = DIRECTION ( 'NONE',  ( 0.000000000000000000, 0.000000000000000000, 1.000000000000000000 ) ) ;
#619 = DIRECTION ( 'NONE',  ( 1.000000000000000000, 0.000000000000000000, 0.000000000000000000 ) ) ;
#620 = DATE_AND_TIME ( #481, #490 ) ;
#621 = DIRECTION ( 'NONE',  ( 0.000000000000000000, 0.000000000000000000, -1.000000000000000000 ) ) ;
#622 = CARTESIAN_POINT ( 'NONE',  ( 5809.281250604489287, 3628.524565679309489, -0.3786408349382514582 ) ) ;
#623 = AXIS2_PLACEMENT_3D ( 'NONE', #25, #474, #453 ) ;
#624 = EDGE_CURVE ( 'NONE', #627, #497, #443, .T. ) ;
#625 = AXIS2_PLACEMENT_3D ( 'NONE', #163, #646, #872 ) ;
#626 = APPROVAL_PERSON_ORGANIZATION ( #349, #500, #50 ) ;
#627 = VERTEX_POINT ( 'NONE', #102 ) ;
#628 = DIRECTION ( 'NONE',  ( 0.000000000000000000, 1.000000000000000000, 0.000000000000000000 ) ) ;
#629 = ORIENTED_EDGE ( 'NONE', *, *, #108, .F. ) ;
#630 = ADVANCED_FACE ( 'NONE', ( #528 ), #380, .T. ) ;
#631 = ORIENTED_EDGE ( 'NONE', *, *, #486, .F. ) ;
#632 = CYLINDRICAL_SURFACE ( 'NONE', #487, 30.00000000000024869 ) ;
#633 = ORIENTED_EDGE ( 'NONE', *, *, #6, .F. ) ;
#634 = CIRCLE ( 'NONE', #591, 576.6902309054255511 ) ;
#635 = ADVANCED_FACE ( 'NONE', ( #807 ), #658, .T. ) ;
#636 = DIRECTION ( 'NONE',  ( 0.000000000000000000, 0.000000000000000000, -1.000000000000000000 ) ) ;
#637 = VECTOR ( 'NONE', #742, 1000.000000000000114 ) ;
#638 = EDGE_CURVE ( 'NONE', #708, #24, #522, .T. ) ;
#639 = APPROVAL_PERSON_ORGANIZATION ( #416, #565, #748 ) ;
#640 = CARTESIAN_POINT ( 'NONE',  ( 5804.340559622713954, 3612.914675911351424, -0.6438346405841101072 ) ) ;
#641 = ORIENTED_EDGE ( 'NONE', *, *, #879, .T. ) ;
#642 = DIRECTION ( 'NONE',  ( 0.000000000000000000, 0.000000000000000000, 1.000000000000000000 ) ) ;
#643 = CARTESIAN_POINT ( 'NONE',  ( 6041.324311648510047, 4101.721043206979630, 15.00000000000000000 ) ) ;
#644 = PLANE ( 'NONE',  #837 ) ;
#645 = EDGE_CURVE ( 'NONE', #378, #506, #897, .T. ) ;
#646 = DIRECTION ( 'NONE',  ( 0.9536708087508336540, -0.3008521040919124312, 0.000000000000000000 ) ) ;
#647 = ORIENTED_EDGE ( 'NONE', *, *, #614, .T. ) ;
#648 = PLANE ( 'NONE',  #228 ) ;
#649 = VECTOR ( 'NONE', #156, 1000.000000000000114 ) ;
#650 = EDGE_LOOP ( 'NONE', ( #207, #882, #873, #266 ) ) ;
#651 = CARTESIAN_POINT ( 'NONE',  ( 6008.796675622559633, 3567.168196230389640, -9.081277396738579081E-13 ) ) ;
#652 = EDGE_LOOP ( 'NONE', ( #1, #348, #817, #769 ) ) ;
#653 = CARTESIAN_POINT ( 'NONE',  ( 6357.690353486990716, 3450.166494749720187, 0.000000000000000000 ) ) ;
#654 = DIRECTION ( 'NONE',  ( 1.000000000000000000, 0.000000000000000000, 0.000000000000000000 ) ) ;
#655 = DIRECTION ( 'NONE',  ( 0.000000000000000000, 0.000000000000000000, -1.000000000000000000 ) ) ;
#656 = APPROVAL ( #576, '未指定' ) ;
#657 = EDGE_LOOP ( 'NONE', ( #836, #641 ) ) ;
#658 = CYLINDRICAL_SURFACE ( 'NONE', #346, 17.99999999999945999 ) ;
#659 = ORIENTED_EDGE ( 'NONE', *, *, #287, .F. ) ;
#660 = ADVANCED_FACE ( 'NONE', ( #90 ), #800, .T. ) ;
#661 = CARTESIAN_POINT ( 'NONE',  ( 6041.324311648510047, 4101.721043206979630, 128.1370849898482049 ) ) ;
#662 = CALENDAR_DATE ( 2026, 10, 4 ) ;
#663 = CARTESIAN_POINT ( 'NONE',  ( 5807.994061009203506, 3624.433246981601314, 14.08066988261458441 ) ) ;
#664 = COORDINATED_UNIVERSAL_TIME_OFFSET ( 8, 0, .AHEAD. ) ;
#665 = ADVANCED_FACE ( 'NONE', ( #234 ), #338, .T. ) ;
#666 = DIRECTION ( 'NONE',  ( -1.000000000000000000, 0.000000000000000000, 0.000000000000000000 ) ) ;
#667 = VECTOR ( 'NONE', #823, 1000.000000000000000 ) ;
#668 = CARTESIAN_POINT ( 'NONE',  ( 5809.388764730023468, 3628.839573585991275, 14.99999999999884892 ) ) ;
#669 = VECTOR ( 'NONE', #730, 1000.000000000000000 ) ;
#670 = CARTESIAN_POINT ( 'NONE',  ( 5805.423673509331820, 3616.318550745470475, 7.979816253985814178 ) ) ;
#671 = AXIS2_PLACEMENT_3D ( 'NONE', #651, #237, #715 ) ;
#672 = DIRECTION ( 'NONE',  ( 1.000000000000000000, 0.000000000000000000, 0.000000000000000000 ) ) ;
#673 = DIRECTION ( 'NONE',  ( -0.9536708087508354303, 0.3008521040919066025, 0.000000000000000000 ) ) ;
#674 = DIRECTION ( 'NONE',  ( 0.000000000000000000, 0.000000000000000000, 1.000000000000000000 ) ) ;
#675 = CARTESIAN_POINT ( 'NONE',  ( 6008.796675622559633, 3567.168196230389640, 15.00000000000000000 ) ) ;
#676 = CARTESIAN_POINT ( 'NONE',  ( 5808.335922478597240, 3625.513227479619673, 14.42429967634431875 ) ) ;
#677 = EDGE_CURVE ( 'NONE', #152, #560, #720, .T. ) ;
#678 = CARTESIAN_POINT ( 'NONE',  ( 6026.067744137100817, 3840.059521210640014, 0.000000000000000000 ) ) ;
#679 = EDGE_CURVE ( 'NONE', #793, #3, #316, .T. ) ;
#680 = CARTESIAN_POINT ( 'NONE',  ( 5804.303536830079793, 3612.804689115275323, -110.0000000000000000 ) ) ;
#681 = CARTESIAN_POINT ( 'NONE',  ( 6013.469686177900257, 4129.483363415190070, 15.00000000000000000 ) ) ;
#682 = CARTESIAN_POINT ( 'NONE',  ( 5809.503782986570513, 3629.215227432414849, -0.07808196999608420230 ) ) ;
#683 = CARTESIAN_POINT ( 'NONE',  ( 5941.405790318180152, 4127.687113471534758, 15.00000000000000000 ) ) ;
#684 = DIRECTION ( 'NONE',  ( -0.9996894970330497676, -0.02491805614023844678, 0.000000000000000000 ) ) ;
#685 = EDGE_CURVE ( 'NONE', #340, #19, #785, .T. ) ;
#686 = CIRCLE ( 'NONE', #867, 30.00000000000024869 ) ;
#687 = APPLICATION_CONTEXT ( 'configuration controlled 3d designs of mechanical parts and assemblies' ) ;
#688 = CARTESIAN_POINT ( 'NONE',  ( 5808.864012915360036, 3627.253565024700492, -2.627064997159440196 ) ) ;
#689 = DIRECTION ( 'NONE',  ( 0.000000000000000000, 0.000000000000000000, 1.000000000000000000 ) ) ;
#690 = VERTEX_POINT ( 'NONE', #612 ) ;
#691 = ORIENTED_EDGE ( 'NONE', *, *, #677, .T. ) ;
#692 = LINE ( 'NONE', #192, #27 ) ;
#693 = CARTESIAN_POINT ( 'NONE',  ( 5809.744255289439934, 3629.962756923975121, 15.14999999999909974 ) ) ;
#694 = VERTEX_POINT ( 'NONE', #885 ) ;
#695 = PERSON_AND_ORGANIZATION_ROLE ( 'creator' ) ;
#696 = ORIENTED_EDGE ( 'NONE', *, *, #711, .T. ) ;
#697 = CARTESIAN_POINT ( 'NONE',  ( 5806.985800931429367, 3621.248221866575022, 12.85922294862792015 ) ) ;
#698 = ORIENTED_EDGE ( 'NONE', *, *, #241, .F. ) ;
#699 = PERSON_AND_ORGANIZATION_ROLE ( 'design_supplier' ) ;
#700 = AXIS2_PLACEMENT_3D ( 'NONE', #530, #37, #672 ) ;
#701 = ORIENTED_EDGE ( 'NONE', *, *, #624, .T. ) ;
#702 = VECTOR ( 'NONE', #498, 1000.000000000000000 ) ;
#703 = DIRECTION ( 'NONE',  ( 0.9536708087508354303, -0.3008521040919066025, -1.774937036747275511E-30 ) ) ;
#704 = AXIS2_PLACEMENT_3D ( 'NONE', #778, #833, #139 ) ;
#705 = LOCAL_TIME ( 15, 3, 34.00000000000000000, #91 ) ;
#706 = LINE ( 'NONE', #76, #271 ) ;
#707 = DATE_AND_TIME ( #662, #317 ) ;
#708 = VERTEX_POINT ( 'NONE', #434 ) ;
#709 = EDGE_LOOP ( 'NONE', ( #860, #805, #171, #78 ) ) ;
#710 = DIRECTION ( 'NONE',  ( 0.9536708087508350973, -0.3008521040919080458, -7.700271198458702826E-15 ) ) ;
#711 = EDGE_CURVE ( 'NONE', #497, #766, #286, .T. ) ;
#712 = ORIENTED_EDGE ( 'NONE', *, *, #879, .F. ) ;
#713 = DIRECTION ( 'NONE',  ( -1.000000000000000000, 0.000000000000000000, 0.000000000000000000 ) ) ;
#714 = ADVANCED_FACE ( 'NONE', ( #727 ), #644, .T. ) ;
#715 = DIRECTION ( 'NONE',  ( 0.3008521040919529543, 0.9536708087508207754, 0.000000000000000000 ) ) ;
#716 = ORIENTED_EDGE ( 'NONE', *, *, #808, .F. ) ;
#717 = CARTESIAN_POINT ( 'NONE',  ( 5808.818433440264926, 3627.109084017470195, -2.607300918301544979 ) ) ;
#718 = VECTOR ( 'NONE', #106, 1000.000000000000000 ) ;
#719 = DIRECTION ( 'NONE',  ( 0.000000000000000000, 0.000000000000000000, -1.000000000000000000 ) ) ;
#720 = CIRCLE ( 'NONE', #470, 72.08627886317754019 ) ;
#721 = PRODUCT_RELATED_PRODUCT_CATEGORY ( 'detail', '', ( #910 ) ) ;
#722 = CC_DESIGN_APPROVAL ( #656, ( #444 ) ) ;
#723 = AXIS2_PLACEMENT_3D ( 'NONE', #728, #296, #358 ) ;
#724 = ORIENTED_EDGE ( 'NONE', *, *, #325, .T. ) ;
#725 = CARTESIAN_POINT ( 'NONE',  ( 5809.744255289439934, 3629.962756923975121, -9.083445801083560187E-13 ) ) ;
#726 = CARTESIAN_POINT ( 'NONE',  ( 5804.858793201845401, 3614.538994757513137, 4.976721714622470927 ) ) ;
#727 = FACE_OUTER_BOUND ( 'NONE', #15, .T. ) ;
#728 = CARTESIAN_POINT ( 'NONE',  ( 6041.152785902670075, 3826.721043206979630, 15.00000000000000000 ) ) ;
#729 = ORIENTED_EDGE ( 'NONE', *, *, #638, .T. ) ;
#730 = DIRECTION ( 'NONE',  ( 0.000000000000000000, 0.000000000000000000, -1.000000000000000000 ) ) ;
#731 = CARTESIAN_POINT ( 'NONE',  ( 6357.690353486990716, 3450.166494749720187, 0.000000000000000000 ) ) ;
#732 = LINE ( 'NONE', #218, #10 ) ;
#733 = ORIENTED_EDGE ( 'NONE', *, *, #757, .T. ) ;
#734 = CARTESIAN_POINT ( 'NONE',  ( 6011.324311648510047, 4101.721043206979630, 0.000000000000000000 ) ) ;
#735 = PRODUCT_DEFINITION ( '未知', '', #444, #147 ) ;
#736 = VECTOR ( 'NONE', #780, 1000.000000000000341 ) ;
#737 = ORIENTED_EDGE ( 'NONE', *, *, #607, .F. ) ;
#738 = VECTOR ( 'NONE', #462, 1000.000000000000000 ) ;
#739 = EDGE_LOOP ( 'NONE', ( #862, #502, #250, #852 ) ) ;
#740 = EDGE_CURVE ( 'NONE', #246, #520, #686, .T. ) ;
#741 = CC_DESIGN_APPROVAL ( #565, ( #735 ) ) ;
#742 = DIRECTION ( 'NONE',  ( 0.9536708087508336540, -0.3008521040919124312, -0.000000000000000000 ) ) ;
#743 = CARTESIAN_POINT ( 'NONE',  ( 0.000000000000000000, 0.000000000000000000, 0.000000000000000000 ) ) ;
#744 = FACE_BOUND ( 'NONE', #566, .T. ) ;
#745 = DIRECTION ( 'NONE',  ( 0.000000000000000000, 0.000000000000000000, -1.000000000000000000 ) ) ;
#746 = EDGE_CURVE ( 'NONE', #690, #101, #295, .T. ) ;
#747 = ORIENTED_EDGE ( 'NONE', *, *, #845, .F. ) ;
#748 = APPROVAL_ROLE ( '' ) ;
#749 = CARTESIAN_POINT ( 'NONE',  ( 6041.152785902670075, 3826.721043206979630, 128.1370849898482049 ) ) ;
#750 = PERSON_AND_ORGANIZATION ( #510, #200 ) ;
#751 = ADVANCED_FACE ( 'NONE', ( #240 ), #261, .F. ) ;
#752 = DIRECTION ( 'NONE',  ( 0.000000000000000000, 0.000000000000000000, -1.000000000000000000 ) ) ;
#753 = PLANE ( 'NONE',  #214 ) ;
#754 = CARTESIAN_POINT ( 'NONE',  ( 6011.135944842019853, 3574.294581845765151, 15.00000000000000000 ) ) ;
#755 = CARTESIAN_POINT ( 'NONE',  ( 6612.864022107190067, 3373.458867489274780, 15.00000000000000000 ) ) ;
#756 = FACE_OUTER_BOUND ( 'NONE', #408, .T. ) ;
#757 = EDGE_CURVE ( 'NONE', #437, #152, #45, .T. ) ;
#758 = CARTESIAN_POINT ( 'NONE',  ( 5809.007705591450758, 3627.679570754490214, -1.156359840076071954 ) ) ;
#759 = CARTESIAN_POINT ( 'NONE',  ( 5809.744255289439934, 3629.962756923975121, -9.083445801083560187E-13 ) ) ;
#760 = CARTESIAN_POINT ( 'NONE',  ( 6141.405790318180152, 3450.166494749720187, 15.00000000000000000 ) ) ;
#761 = CARTESIAN_POINT ( 'NONE',  ( 6007.894119310279166, 3564.307183804140095, -3.000000000000115019 ) ) ;
#762 = PERSON_AND_ORGANIZATION_ROLE ( 'design_owner' ) ;
#763 = CARTESIAN_POINT ( 'NONE',  ( 6007.894119310279166, 3564.307183804140095, -110.0000000000000000 ) ) ;
#764 = DIRECTION ( 'NONE',  ( 1.000000000000000000, 0.000000000000000000, 0.000000000000000000 ) ) ;
#765 = ADVANCED_FACE ( 'NONE', ( #59 ), #397, .T. ) ;
#766 = VERTEX_POINT ( 'NONE', #675 ) ;
#767 = VECTOR ( 'NONE', #775, 1000.000000000000000 ) ;
#768 = AXIS2_PLACEMENT_3D ( 'NONE', #146, #642, #514 ) ;
#769 = ORIENTED_EDGE ( 'NONE', *, *, #82, .T. ) ;
#770 = CYLINDRICAL_SURFACE ( 'NONE', #186, 634.3592539959672649 ) ;
#771 = CARTESIAN_POINT ( 'NONE',  ( 6007.894119310279166, 3564.307183804140095, -3.000000000000115019 ) ) ;
#772 = ORIENTED_EDGE ( 'NONE', *, *, #679, .F. ) ;
#773 = DIRECTION ( 'NONE',  ( 0.000000000000000000, 0.000000000000000000, -1.000000000000000000 ) ) ;
#774 = CC_DESIGN_PERSON_AND_ORGANIZATION_ASSIGNMENT ( #67, #699, ( #444 ) ) ;
#775 = DIRECTION ( 'NONE',  ( 0.000000000000000000, 0.000000000000000000, -1.000000000000000000 ) ) ;
#776 = ORIENTED_EDGE ( 'NONE', *, *, #418, .T. ) ;
#777 = VERTEX_POINT ( 'NONE', #324 ) ;
#778 = CARTESIAN_POINT ( 'NONE',  ( 5809.718874703729853, 3629.970763672789872, -3.000000000000120348 ) ) ;
#779 = DIRECTION ( 'NONE',  ( 0.000000000000000000, 0.000000000000000000, -1.000000000000000000 ) ) ;
#780 = DIRECTION ( 'NONE',  ( -0.3008521040919066025, -0.9536708087508354303, 2.503722994132715513E-15 ) ) ;
#781 = EDGE_LOOP ( 'NONE', ( #629, #574, #461, #561 ) ) ;
#782 = AXIS2_PLACEMENT_3D ( 'NONE', #895, #684, #382 ) ;
#783 = AXIS2_PLACEMENT_3D ( 'NONE', #48, #404, #673 ) ;
#784 = LINE ( 'NONE', #230, #881 ) ;
#785 = CIRCLE ( 'NONE', #381, 30.00000000000024869 ) ;
#786 = ADVANCED_FACE ( 'NONE', ( #824, #314, #475 ), #597, .T. ) ;
#787 = ORIENTED_EDGE ( 'NONE', *, *, #579, .F. ) ;
#788 = APPROVAL_DATE_TIME ( #707, #500 ) ;
#789 = VERTEX_POINT ( 'NONE', #761 ) ;
#790 = ORIENTED_EDGE ( 'NONE', *, *, #816, .F. ) ;
#791 = PLANE ( 'NONE',  #393 ) ;
#792 = CARTESIAN_POINT ( 'NONE',  ( 6116.344094594010130, 3768.274805253469822, 15.00000000000000000 ) ) ;
#793 = VERTEX_POINT ( 'NONE', #406 ) ;
#794 = CARTESIAN_POINT ( 'NONE',  ( 5804.585406852270353, 3613.679759339161592, 2.799881850518239901 ) ) ;
#795 = AXIS2_PLACEMENT_3D ( 'NONE', #755, #745, #531 ) ;
#796 = AXIS2_PLACEMENT_3D ( 'NONE', #330, #828, #190 ) ;
#797 =( GEOMETRIC_REPRESENTATION_CONTEXT ( 3 ) GLOBAL_UNCERTAINTY_ASSIGNED_CONTEXT ( ( #600 ) ) GLOBAL_UNIT_ASSIGNED_CONTEXT ( ( #388, #115, #342 ) ) REPRESENTATION_CONTEXT ( 'NONE', 'WORKASPACE' ) );
#798 = CARTESIAN_POINT ( 'NONE',  ( 6008.796675622559633, 3567.168196230389640, -9.081277396738579081E-13 ) ) ;
#799 = ORIENTED_EDGE ( 'NONE', *, *, #575, .F. ) ;
#800 = PLANE ( 'NONE',  #625 ) ;
#801 = EDGE_LOOP ( 'NONE', ( #659, #238, #904, #839 ) ) ;
#802 = CARTESIAN_POINT ( 'NONE',  ( 6003.381337748909573, 3550.002121672875091, -110.0000000000000000 ) ) ;
#803 = CARTESIAN_POINT ( 'NONE',  ( 6007.894119310279166, 3564.307183804140095, -110.0000000000000000 ) ) ;
#804 = ORIENTED_EDGE ( 'NONE', *, *, #537, .T. ) ;
#805 = ORIENTED_EDGE ( 'NONE', *, *, #220, .F. ) ;
#806 = EDGE_CURVE ( 'NONE', #270, #7, #265, .T. ) ;
#807 = FACE_OUTER_BOUND ( 'NONE', #204, .T. ) ;
#808 = EDGE_CURVE ( 'NONE', #24, #309, #909, .T. ) ;
#809 = CARTESIAN_POINT ( 'NONE',  ( 5809.744255289439934, 3629.962756923975121, -9.081277396738579081E-13 ) ) ;
#810 = ORIENTED_EDGE ( 'NONE', *, *, #586, .F. ) ;
#811 = ORIENTED_EDGE ( 'NONE', *, *, #438, .T. ) ;
#812 = PLANE ( 'NONE',  #782 ) ;
#813 = EDGE_LOOP ( 'NONE', ( #701, #696, #832, #908, #485, #587, #4, #449, #733, #691, #17, #825 ) ) ;
#814 = CIRCLE ( 'NONE', #569, 30.00000000000024869 ) ;
#815 = DIRECTION ( 'NONE',  ( 1.000000000000000000, 0.000000000000000000, 0.000000000000000000 ) ) ;
#816 = EDGE_CURVE ( 'NONE', #219, #224, #429, .T. ) ;
#817 = ORIENTED_EDGE ( 'NONE', *, *, #905, .T. ) ;
#818 = CARTESIAN_POINT ( 'NONE',  ( 5807.021894868069467, 3621.362636003222633, 12.62096878242158127 ) ) ;
#819 = DIRECTION ( 'NONE',  ( 0.000000000000000000, 0.000000000000000000, -1.000000000000000000 ) ) ;
#820 = FACE_OUTER_BOUND ( 'NONE', #781, .T. ) ;
#821 = CARTESIAN_POINT ( 'NONE',  ( 5831.710038369579706, 3899.886234583660098, 0.000000000000000000 ) ) ;
#822 = CARTESIAN_POINT ( 'NONE',  ( 5806.430379222839292, 3619.494962822439902, 11.31193726046589632 ) ) ;
#823 = DIRECTION ( 'NONE',  ( -1.000000000000000000, 0.000000000000000000, 0.000000000000000000 ) ) ;
#824 = FACE_OUTER_BOUND ( 'NONE', #813, .T. ) ;
#825 = ORIENTED_EDGE ( 'NONE', *, *, #476, .T. ) ;
#826 = CARTESIAN_POINT ( 'NONE',  ( 5808.816318391460300, 3627.109751246534870, -3.000000000000115019 ) ) ;
#827 = CARTESIAN_POINT ( 'NONE',  ( 6008.796675622559633, 3567.168196230389640, -3.000000000000120348 ) ) ;
#828 = DIRECTION ( 'NONE',  ( 0.000000000000000000, 0.000000000000000000, 1.000000000000000000 ) ) ;
#829 = DIRECTION ( 'NONE',  ( 0.9536708087508337650, -0.3008521040919124312, -0.000000000000000000 ) ) ;
#830 = CARTESIAN_POINT ( 'NONE',  ( 6071.152785902670985, 3826.721043206979630, 15.00000000000000000 ) ) ;
#831 = EDGE_CURVE ( 'NONE', #452, #81, #545, .T. ) ;
#832 = ORIENTED_EDGE ( 'NONE', *, *, #575, .T. ) ;
#833 = DIRECTION ( 'NONE',  ( -0.9536708087508337650, 0.3008521040919124312, 0.000000000000000000 ) ) ;
#834 = CARTESIAN_POINT ( 'NONE',  ( 5806.377968766520098, 3619.328826965029748, 11.51395318952496005 ) ) ;
#835 = EDGE_CURVE ( 'NONE', #557, #793, #553, .T. ) ;
#836 = ORIENTED_EDGE ( 'NONE', *, *, #390, .T. ) ;
#837 = AXIS2_PLACEMENT_3D ( 'NONE', #11, #155, #104 ) ;
#838 = AXIS2_PLACEMENT_3D ( 'NONE', #743, #35, #310 ) ;
#839 = ORIENTED_EDGE ( 'NONE', *, *, #460, .T. ) ;
#840 = ADVANCED_FACE ( 'NONE', ( #617 ), #415, .F. ) ;
#841 = DIRECTION ( 'NONE',  ( 0.02491805614023844331, -0.9996894970330497676, 0.000000000000000000 ) ) ;
#842 = FACE_OUTER_BOUND ( 'NONE', #650, .T. ) ;
#843 = ORIENTED_EDGE ( 'NONE', *, *, #248, .T. ) ;
#844 = APPROVAL_DATE_TIME ( #20, #656 ) ;
#845 = EDGE_CURVE ( 'NONE', #270, #101, #332, .T. ) ;
#846 = ORIENTED_EDGE ( 'NONE', *, *, #875, .F. ) ;
#847 = CARTESIAN_POINT ( 'NONE',  ( 6003.381337748909573, 3550.002121672875091, -110.0000000000000000 ) ) ;
#848 = APPLICATION_PROTOCOL_DEFINITION ( 'international standard', 'config_control_design', 1994, #687 ) ;
#849 = ORIENTED_EDGE ( 'NONE', *, *, #369, .F. ) ;
#850 = CALENDAR_DATE ( 2026, 10, 4 ) ;
#851 = DIRECTION ( 'NONE',  ( 0.000000000000000000, 0.000000000000000000, -1.000000000000000000 ) ) ;
#852 = ORIENTED_EDGE ( 'NONE', *, *, #645, .T. ) ;
#853 = EDGE_LOOP ( 'NONE', ( #269, #389, #401, #571 ) ) ;
#854 = CARTESIAN_POINT ( 'NONE',  ( 6069.319511455009888, 4201.569642278370338, 15.00000000000000000 ) ) ;
#855 = EDGE_CURVE ( 'NONE', #202, #789, #896, .T. ) ;
#856 = ORIENTED_EDGE ( 'NONE', *, *, #740, .F. ) ;
#857 = ORIENTED_EDGE ( 'NONE', *, *, #259, .T. ) ;
#858 = LINE ( 'NONE', #222, #702 ) ;
#859 = LINE ( 'NONE', #140, #649 ) ;
#860 = ORIENTED_EDGE ( 'NONE', *, *, #191, .F. ) ;
#861 = DIRECTION ( 'NONE',  ( 0.000000000000000000, 0.000000000000000000, 1.000000000000000000 ) ) ;
#862 = ORIENTED_EDGE ( 'NONE', *, *, #315, .T. ) ;
#863 = CARTESIAN_POINT ( 'NONE',  ( 5809.718874703729853, 3629.970763672789872, -3.000000000000120348 ) ) ;
#864 = AXIS2_PLACEMENT_3D ( 'NONE', #749, #391, #666 ) ;
#865 = CARTESIAN_POINT ( 'NONE',  ( 5804.303536830079793, 3612.804689115275323, -3.000000000000075051 ) ) ;
#866 = VECTOR ( 'NONE', #543, 1000.000000000000114 ) ;
#867 = AXIS2_PLACEMENT_3D ( 'NONE', #880, #655, #21 ) ;
#868 = ADVANCED_FACE ( 'NONE', ( #611 ), #770, .F. ) ;
#869 = LOCAL_TIME ( 15, 3, 34.00000000000000000, #664 ) ;
#870 = CARTESIAN_POINT ( 'NONE',  ( 5809.629941579009937, 3629.607767047569723, -0.1515000000009864844 ) ) ;
#871 = EDGE_LOOP ( 'NONE', ( #318, #747, #162, #355 ) ) ;
#872 = DIRECTION ( 'NONE',  ( 0.3008521040919123757, 0.9536708087508335430, 0.000000000000000000 ) ) ;
#873 = ORIENTED_EDGE ( 'NONE', *, *, #489, .T. ) ;
#874 = DIRECTION ( 'NONE',  ( 0.3008521040919066025, 0.9536708087508354303, -2.429184967052791257E-15 ) ) ;
#875 = EDGE_CURVE ( 'NONE', #627, #3, #692, .T. ) ;
#876 = CARTESIAN_POINT ( 'NONE',  ( 6003.381337748909573, 3550.002121672875091, -110.0000000000000000 ) ) ;
#877 = CYLINDRICAL_SURFACE ( 'NONE', #40, 115.3380461810833424 ) ;
#878 = FACE_OUTER_BOUND ( 'NONE', #454, .T. ) ;
#879 = EDGE_CURVE ( 'NONE', #112, #308, #336, .T. ) ;
#880 = CARTESIAN_POINT ( 'NONE',  ( 6041.324311648510047, 4101.721043206979630, 0.000000000000000000 ) ) ;
#881 = VECTOR ( 'NONE', #436, 1000.000000000000114 ) ;
#882 = ORIENTED_EDGE ( 'NONE', *, *, #212, .T. ) ;
#883 = AXIS2_PLACEMENT_3D ( 'NONE', #264, #874, #260 ) ;
#884 = EDGE_CURVE ( 'NONE', #343, #246, #732, .T. ) ;
#885 = CARTESIAN_POINT ( 'NONE',  ( 6071.324311648510047, 4101.721043206979630, 15.00000000000000000 ) ) ;
#886 = LINE ( 'NONE', #113, #409 ) ;
#887 = DATE_AND_TIME ( #312, #869 ) ;
#888 = CYLINDRICAL_SURFACE ( 'NONE', #411, 72.08627886317842126 ) ;
#889 = ADVANCED_FACE ( 'NONE', ( #149 ), #100, .T. ) ;
#890 = DIRECTION ( 'NONE',  ( 0.000000000000000000, 0.000000000000000000, -1.000000000000000000 ) ) ;
#891 = FACE_OUTER_BOUND ( 'NONE', #22, .T. ) ;
#892 = CARTESIAN_POINT ( 'NONE',  ( 6011.324311648510047, 4101.721043206979630, 15.00000000000000000 ) ) ;
#893 = CARTESIAN_POINT ( 'NONE',  ( 5805.362896592019752, 3616.125894051020168, 8.154022967542958966 ) ) ;
#894 = VECTOR ( 'NONE', #594, 1000.000000000000000 ) ;
#895 = CARTESIAN_POINT ( 'NONE',  ( 5947.012271745119506, 3902.760234493510325, 0.000000000000000000 ) ) ;
#896 = CIRCLE ( 'NONE', #499, 2.999999999999212186 ) ;
#897 = B_SPLINE_CURVE_WITH_KNOTS ( 'NONE', 3,
 ( #580, #717, #227, #507, #14, #159, #95, #86, #445, #725 ),
 .UNSPECIFIED., .F., .F.,
 ( 4, 2, 2, 2, 4 ),
 ( 0.000000000000000000, 0.2499999999999998890, 0.4999999999999998890, 0.7499999999999998890, 1.000000000000000000 ),
 .UNSPECIFIED. ) ;
#898 = DIRECTION ( 'NONE',  ( 0.000000000000000000, 0.000000000000000000, -1.000000000000000000 ) ) ;
#899 = CARTESIAN_POINT ( 'NONE',  ( 5804.448713677490559, 3613.250141629985137, 1.711461918465860155 ) ) ;
#900 = DIRECTION ( 'NONE',  ( 0.000000000000000000, 0.000000000000000000, -1.000000000000000000 ) ) ;
#901 = DIRECTION ( 'NONE',  ( 0.9536708087508378728, -0.3008521040918989420, 0.000000000000000000 ) ) ;
#902 = CARTESIAN_POINT ( 'NONE',  ( 6041.324311648510047, 4101.721043206979630, 15.00000000000000000 ) ) ;
#903 = LINE ( 'NONE', #351, #767 ) ;
#904 = ORIENTED_EDGE ( 'NONE', *, *, #418, .F. ) ;
#905 = EDGE_CURVE ( 'NONE', #224, #131, #177, .T. ) ;
#906 = ORIENTED_EDGE ( 'NONE', *, *, #118, .T. ) ;
#907 = CARTESIAN_POINT ( 'NONE',  ( 5808.818433821589679, 3627.109083897174969, -2.607230117984605133 ) ) ;
#908 = ORIENTED_EDGE ( 'NONE', *, *, #367, .T. ) ;
#909 = CIRCLE ( 'NONE', #58, 72.08627886317842126 ) ;
#910 = PRODUCT ( 'SPACER 02(Varsay_lan)_\X2\9ed88ba4\X0\_sldprt', 'SPACER 02(Varsay_lan)_\X2\9ed88ba4\X0\_sldprt', '', ( #398 ) ) ;
#911 = APPROVAL_PERSON_ORGANIZATION ( #216, #656, #97 ) ;
#912 = ORIENTED_EDGE ( 'NONE', *, *, #88, .F. ) ;
#913 = CARTESIAN_POINT ( 'NONE',  ( 6013.469686177900257, 4129.483363415190070, 0.000000000000000000 ) ) ;
ENDSEC;
END-ISO-10303-21;
