ISO-10303-21;
HEADER;
FILE_DESCRIPTION (( 'STEP AP203' ),
    '1' );
FILE_NAME ('SPACER(Varsay_lan)_默认_sldprt.STEP',
    '2026-04-10T07:03:35',
    ( '' ),
    ( '' ),
    'SwSTEP 2.0',
    'SolidWorks 2022',
    '' );
FILE_SCHEMA (( 'CONFIG_CONTROL_DESIGN' ));
ENDSEC;

DATA;
#1 = EDGE_CURVE ( 'NONE', #305, #822, #239, .T. ) ;
#2 = CARTESIAN_POINT ( 'NONE',  ( 6071.152785902670985, 3826.721043206979630, 0.000000000000000000 ) ) ;
#3 = EDGE_LOOP ( 'NONE', ( #490, #423, #185, #844 ) ) ;
#4 = LINE ( 'NONE', #521, #606 ) ;
#5 = ORIENTED_EDGE ( 'NONE', *, *, #737, .T. ) ;
#6 = EDGE_CURVE ( 'NONE', #609, #111, #433, .T. ) ;
#7 = EDGE_CURVE ( 'NONE', #760, #645, #756, .T. ) ;
#8 = ORIENTED_EDGE ( 'NONE', *, *, #282, .F. ) ;
#9 = CARTESIAN_POINT ( 'NONE',  ( 5804.303536830079793, 3612.804689115275323, 125.0000000000000000 ) ) ;
#10 = ORIENTED_EDGE ( 'NONE', *, *, #763, .F. ) ;
#11 = PERSON_AND_ORGANIZATION ( #79, #873 ) ;
#12 = VECTOR ( 'NONE', #589, 1000.000000000000000 ) ;
#13 = CARTESIAN_POINT ( 'NONE',  ( 5808.818433440265835, 3627.109084017467012, 17.60730091830135180 ) ) ;
#14 = EDGE_CURVE ( 'NONE', #266, #56, #141, .T. ) ;
#15 = DIRECTION ( 'NONE',  ( 0.000000000000000000, 0.000000000000000000, 1.000000000000000000 ) ) ;
#16 = CARTESIAN_POINT ( 'NONE',  ( 5809.033282934669842, 3627.716418029192937, 0.1160295818300868531 ) ) ;
#17 = LINE ( 'NONE', #723, #912 ) ;
#18 = DIRECTION ( 'NONE',  ( 0.000000000000000000, 0.000000000000000000, 1.000000000000000000 ) ) ;
#19 = ORIENTED_EDGE ( 'NONE', *, *, #598, .F. ) ;
#20 = CARTESIAN_POINT ( 'NONE',  ( 5804.858793201845401, 3614.538994757512228, 10.02327828537218046 ) ) ;
#21 = CARTESIAN_POINT ( 'NONE',  ( 6069.319511455009888, 4201.569642278370338, 0.000000000000000000 ) ) ;
#22 = APPROVAL_STATUS ( 'not_yet_approved' ) ;
#23 = VERTEX_POINT ( 'NONE', #629 ) ;
#24 = DIRECTION ( 'NONE',  ( 0.000000000000000000, 0.000000000000000000, 1.000000000000000000 ) ) ;
#25 = CARTESIAN_POINT ( 'NONE',  ( 6008.796675622559633, 3567.168196230374633, 2.560451850541770099E-12 ) ) ;
#26 = EDGE_CURVE ( 'NONE', #891, #267, #699, .T. ) ;
#27 = DIRECTION ( 'NONE',  ( 1.000000000000000000, 0.000000000000000000, 0.000000000000000000 ) ) ;
#28 = ORIENTED_EDGE ( 'NONE', *, *, #763, .T. ) ;
#29 = MECHANICAL_CONTEXT ( 'NONE', #179, 'mechanical' ) ;
#30 = CIRCLE ( 'NONE', #505, 115.3380461810842235 ) ;
#31 = CARTESIAN_POINT ( 'NONE',  ( 6069.319511455009888, 4129.483363415190070, 0.000000000000000000 ) ) ;
#32 = DIRECTION ( 'NONE',  ( 0.000000000000000000, 0.000000000000000000, 1.000000000000000000 ) ) ;
#33 = CARTESIAN_POINT ( 'NONE',  ( 6071.324311648510047, 4101.721043206979630, 0.000000000000000000 ) ) ;
#34 = APPROVAL ( #432, '未指定' ) ;
#35 = FACE_OUTER_BOUND ( 'NONE', #283, .T. ) ;
#36 = ORIENTED_EDGE ( 'NONE', *, *, #414, .T. ) ;
#37 = CYLINDRICAL_SURFACE ( 'NONE', #274, 115.3380461810842235 ) ;
#38 = CARTESIAN_POINT ( 'NONE',  ( 5809.207027506669874, 3628.296657669974593, 15.72214899942965260 ) ) ;
#39 = LINE ( 'NONE', #25, #375 ) ;
#40 = CALENDAR_DATE ( 2026, 10, 4 ) ;
#41 = DIRECTION ( 'NONE',  ( 0.000000000000000000, 0.000000000000000000, 1.000000000000000000 ) ) ;
#42 = CARTESIAN_POINT ( 'NONE',  ( 6011.053066403250341, 3574.320727296024870, 15.00000000000000000 ) ) ;
#43 = EDGE_LOOP ( 'NONE', ( #689, #140, #28, #5 ) ) ;
#44 = PERSON_AND_ORGANIZATION_ROLE ( 'design_owner' ) ;
#45 = FACE_OUTER_BOUND ( 'NONE', #189, .T. ) ;
#46 = VECTOR ( 'NONE', #281, 1000.000000000000000 ) ;
#47 = ORIENTED_EDGE ( 'NONE', *, *, #837, .F. ) ;
#48 = AXIS2_PLACEMENT_3D ( 'NONE', #175, #812, #53 ) ;
#49 = DATE_TIME_ROLE ( 'classification_date' ) ;
#50 = ORIENTED_EDGE ( 'NONE', *, *, #26, .F. ) ;
#51 = DIRECTION ( 'NONE',  ( 0.000000000000000000, 0.000000000000000000, 1.000000000000000000 ) ) ;
#52 = EDGE_LOOP ( 'NONE', ( #642, #795, #847, #467 ) ) ;
#53 = DIRECTION ( 'NONE',  ( 1.000000000000000000, 0.000000000000000000, 0.000000000000000000 ) ) ;
#54 = PRODUCT_DEFINITION ( '未知', '', #786, #718 ) ;
#55 = CARTESIAN_POINT ( 'NONE',  ( 6011.324311648510047, 4101.721043206979630, 0.000000000000000000 ) ) ;
#56 = VERTEX_POINT ( 'NONE', #60 ) ;
#57 = ORIENTED_EDGE ( 'NONE', *, *, #424, .F. ) ;
#58 = DIRECTION ( 'NONE',  ( -0.9536708087508350973, 0.3008521040919075462, 2.603240987229341200E-29 ) ) ;
#59 = EDGE_CURVE ( 'NONE', #362, #23, #706, .T. ) ;
#60 = CARTESIAN_POINT ( 'NONE',  ( 6007.894119310279166, 3564.307183804140095, 125.0000000000000000 ) ) ;
#61 = CARTESIAN_POINT ( 'NONE',  ( 6008.796675622559633, 3567.168196230394642, 18.00000000000000000 ) ) ;
#62 = VECTOR ( 'NONE', #145, 1000.000000000000000 ) ;
#63 = AXIS2_PLACEMENT_3D ( 'NONE', #307, #789, #525 ) ;
#64 = ORIENTED_EDGE ( 'NONE', *, *, #391, .F. ) ;
#65 = CC_DESIGN_PERSON_AND_ORGANIZATION_ASSIGNMENT ( #677, #44, ( #727 ) ) ;
#66 = CARTESIAN_POINT ( 'NONE',  ( 5804.956054305610451, 3614.843616780939556, 8.859315506263449436 ) ) ;
#67 = DIRECTION ( 'NONE',  ( 0.000000000000000000, 0.000000000000000000, 1.000000000000000000 ) ) ;
#68 = FACE_OUTER_BOUND ( 'NONE', #43, .T. ) ;
#69 = COORDINATED_UNIVERSAL_TIME_OFFSET ( 8, 0, .AHEAD. ) ;
#70 = DIRECTION ( 'NONE',  ( -0.9536708087508378728, 0.3008521040918989420, 0.000000000000000000 ) ) ;
#71 = EDGE_LOOP ( 'NONE', ( #797, #701, #458, #601, #717, #434, #192, #181, #177, #36, #443, #888 ) ) ;
#72 = DIRECTION ( 'NONE',  ( 0.9536708087508446452, -0.3008521040918774037, 0.000000000000000000 ) ) ;
#73 = EDGE_CURVE ( 'NONE', #305, #290, #775, .T. ) ;
#74 = VECTOR ( 'NONE', #279, 1000.000000000000114 ) ;
#75 = VECTOR ( 'NONE', #676, 1000.000000000000000 ) ;
#76 = PLANE ( 'NONE',  #147 ) ;
#77 = ORIENTED_EDGE ( 'NONE', *, *, #768, .T. ) ;
#78 = PLANE ( 'NONE',  #649 ) ;
#79 = PERSON ( '未指定', '未指定', '未指定', ('未指定'), ('未指定'), ('未指定') ) ;
#80 = EDGE_CURVE ( 'NONE', #546, #496, #138, .T. ) ;
#81 = ORIENTED_EDGE ( 'NONE', *, *, #545, .T. ) ;
#82 = DIRECTION ( 'NONE',  ( 0.000000000000000000, 1.000000000000000000, 0.000000000000000000 ) ) ;
#83 = EDGE_CURVE ( 'NONE', #833, #546, #684, .T. ) ;
#84 = LINE ( 'NONE', #514, #759 ) ;
#85 = AXIS2_PLACEMENT_3D ( 'NONE', #284, #560, #766 ) ;
#86 = DIRECTION ( 'NONE',  ( 0.3008521040919529543, 0.9536708087508207754, 0.000000000000000000 ) ) ;
#87 = VERTEX_POINT ( 'NONE', #205 ) ;
#88 = VECTOR ( 'NONE', #58, 1000.000000000000114 ) ;
#89 = EDGE_CURVE ( 'NONE', #535, #824, #483, .T. ) ;
#90 = CARTESIAN_POINT ( 'NONE',  ( 6041.324311648510047, 4101.721043206979630, 15.00000000000000000 ) ) ;
#91 = FACE_OUTER_BOUND ( 'NONE', #885, .T. ) ;
#92 = LINE ( 'NONE', #252, #593 ) ;
#93 = PERSON_AND_ORGANIZATION ( #79, #873 ) ;
#94 = LINE ( 'NONE', #226, #12 ) ;
#95 = LINE ( 'NONE', #781, #285 ) ;
#96 = CARTESIAN_POINT ( 'NONE',  ( 5804.304594354483925, 3612.804355500738893, 16.82190275490308551 ) ) ;
#97 = PLANE ( 'NONE',  #639 ) ;
#98 = APPROVAL_ROLE ( '' ) ;
#99 = DIRECTION ( 'NONE',  ( 0.000000000000000000, 0.000000000000000000, 1.000000000000000000 ) ) ;
#100 = ORIENTED_EDGE ( 'NONE', *, *, #489, .T. ) ;
#101 = CARTESIAN_POINT ( 'NONE',  ( 6069.319511455009888, 4201.569642278370338, 15.00000000000000000 ) ) ;
#102 = DIRECTION ( 'NONE',  ( 0.000000000000000000, 0.000000000000000000, -1.000000000000000000 ) ) ;
#103 = CARTESIAN_POINT ( 'NONE',  ( 5808.844039614040412, 3627.182881283874849, 17.21475634692215095 ) ) ;
#104 = CARTESIAN_POINT ( 'NONE',  ( 6116.344094594010130, 3768.274805253469822, 0.000000000000000000 ) ) ;
#105 = EDGE_CURVE ( 'NONE', #892, #238, #426, .T. ) ;
#106 = DIRECTION ( 'NONE',  ( 0.000000000000000000, 6.982962677686270655E-15, -1.000000000000000000 ) ) ;
#107 = EDGE_LOOP ( 'NONE', ( #10, #228, #165, #159 ) ) ;
#108 = VECTOR ( 'NONE', #70, 1000.000000000000114 ) ;
#109 = CIRCLE ( 'NONE', #622, 576.6902309054255511 ) ;
#110 = CARTESIAN_POINT ( 'NONE',  ( 6013.469686177900257, 4201.569642278370338, 15.00000000000000000 ) ) ;
#111 = VERTEX_POINT ( 'NONE', #487 ) ;
#112 = APPROVAL_PERSON_ORGANIZATION ( #636, #363, #704 ) ;
#113 = CARTESIAN_POINT ( 'NONE',  ( 6013.469686177900257, 4129.483363415190070, 0.000000000000000000 ) ) ;
#114 = PLANE ( 'NONE',  #210 ) ;
#115 = ORIENTED_EDGE ( 'NONE', *, *, #124, .F. ) ;
#116 = CARTESIAN_POINT ( 'NONE',  ( 6011.135944842029858, 3574.294581845770153, 15.00000000000000000 ) ) ;
#117 = ORIENTED_EDGE ( 'NONE', *, *, #105, .T. ) ;
#118 = CC_DESIGN_PERSON_AND_ORGANIZATION_ASSIGNMENT ( #11, #306, ( #786 ) ) ;
#119 = DIRECTION ( 'NONE',  ( 1.000000000000000000, 0.000000000000000000, 0.000000000000000000 ) ) ;
#120 = AXIS2_PLACEMENT_3D ( 'NONE', #625, #904, #268 ) ;
#121 = ORIENTED_EDGE ( 'NONE', *, *, #881, .T. ) ;
#122 = AXIS2_PLACEMENT_3D ( 'NONE', #602, #875, #320 ) ;
#123 = CARTESIAN_POINT ( 'NONE',  ( 5808.861897485230656, 3627.254232374060393, 18.00000000000000000 ) ) ;
#124 = EDGE_CURVE ( 'NONE', #126, #150, #841, .T. ) ;
#125 = PLANE ( 'NONE',  #858 ) ;
#126 = VERTEX_POINT ( 'NONE', #910 ) ;
#127 = LINE ( 'NONE', #571, #453 ) ;
#128 = ORIENTED_EDGE ( 'NONE', *, *, #172, .F. ) ;
#129 = DIRECTION ( 'NONE',  ( 1.000000000000000000, 0.000000000000000000, 0.000000000000000000 ) ) ;
#130 = CARTESIAN_POINT ( 'NONE',  ( 5809.623995895631197, 3629.588918502204706, 15.00000000000232703 ) ) ;
#131 = EDGE_CURVE ( 'NONE', #852, #381, #348, .T. ) ;
#132 = ORIENTED_EDGE ( 'NONE', *, *, #837, .T. ) ;
#133 = DIRECTION ( 'NONE',  ( -3.665712078274734762E-13, -1.161993735389795934E-12, -1.000000000000000000 ) ) ;
#134 = DIRECTION ( 'NONE',  ( 0.000000000000000000, 0.000000000000000000, -1.000000000000000000 ) ) ;
#135 = CARTESIAN_POINT ( 'NONE',  ( 6003.381337748909573, 3550.002121672875091, 125.0000000000000000 ) ) ;
#136 = CARTESIAN_POINT ( 'NONE',  ( 5809.179017024096538, 3628.207867266953144, 15.60099947280648003 ) ) ;
#137 = DIRECTION ( 'NONE',  ( 1.000000000000000000, 0.000000000000000000, 0.000000000000000000 ) ) ;
#138 = LINE ( 'NONE', #356, #911 ) ;
#139 = MANIFOLD_SOLID_BREP ( '输入1', #634 ) ;
#140 = ORIENTED_EDGE ( 'NONE', *, *, #853, .F. ) ;
#141 = LINE ( 'NONE', #135, #314 ) ;
#142 = EDGE_CURVE ( 'NONE', #679, #446, #127, .T. ) ;
#143 = ORIENTED_EDGE ( 'NONE', *, *, #489, .F. ) ;
#144 = CARTESIAN_POINT ( 'NONE',  ( 5804.404760418119622, 3613.110814233445126, 13.24927589887620094 ) ) ;
#145 = DIRECTION ( 'NONE',  ( -1.000000000000000000, 0.000000000000000000, 0.000000000000000000 ) ) ;
#146 = CIRCLE ( 'NONE', #182, 115.3380461810833424 ) ;
#147 = AXIS2_PLACEMENT_3D ( 'NONE', #374, #364, #652 ) ;
#148 = DIRECTION ( 'NONE',  ( 0.9536708087508208864, -0.3008521040919530098, -2.100839014377489561E-15 ) ) ;
#149 = LOCAL_TIME ( 15, 3, 35.00000000000000000, #397 ) ;
#150 = VERTEX_POINT ( 'NONE', #492 ) ;
#151 = DIRECTION ( 'NONE',  ( 0.000000000000000000, -8.074349270001140771E-15, 1.000000000000000000 ) ) ;
#152 = ADVANCED_FACE ( 'NONE', ( #771 ), #703, .F. ) ;
#153 = UNCERTAINTY_MEASURE_WITH_UNIT (LENGTH_MEASURE( 1.000000000000000082E-05 ), #661, 'distance_accuracy_value', 'NONE');
#154 = LINE ( 'NONE', #851, #211 ) ;
#155 = ORIENTED_EDGE ( 'NONE', *, *, #322, .F. ) ;
#156 = CARTESIAN_POINT ( 'NONE',  ( 5808.938693478579808, 3627.468181041545449, 16.48914305888754939 ) ) ;
#157 = CARTESIAN_POINT ( 'NONE',  ( 6013.469686177900257, 4201.569642278370338, 15.00000000000000000 ) ) ;
#158 = DIRECTION ( 'NONE',  ( 0.3008521040919529543, 0.9536708087508207754, 0.000000000000000000 ) ) ;
#159 = ORIENTED_EDGE ( 'NONE', *, *, #378, .T. ) ;
#160 = CARTESIAN_POINT ( 'NONE',  ( 6612.864022107190067, 3373.458867489274780, 0.000000000000000000 ) ) ;
#161 = CARTESIAN_POINT ( 'NONE',  ( 5806.154022390650425, 3618.622625413784590, 4.439037387732575723 ) ) ;
#162 = DIRECTION ( 'NONE',  ( 0.000000000000000000, 0.000000000000000000, 1.000000000000000000 ) ) ;
#163 = AXIS2_PLACEMENT_3D ( 'NONE', #678, #261, #396 ) ;
#164 = DIRECTION ( 'NONE',  ( 1.000000000000000000, 0.000000000000000000, 0.000000000000000000 ) ) ;
#165 = ORIENTED_EDGE ( 'NONE', *, *, #420, .F. ) ;
#166 = CIRCLE ( 'NONE', #685, 72.08627886317754019 ) ;
#167 = CC_DESIGN_APPROVAL ( #363, ( #507 ) ) ;
#168 = CARTESIAN_POINT ( 'NONE',  ( 5806.430379222844749, 3619.494962822445814, 3.688062739527294465 ) ) ;
#169 = DIRECTION ( 'NONE',  ( 0.000000000000000000, 0.000000000000000000, 1.000000000000000000 ) ) ;
#170 = DIRECTION ( 'NONE',  ( 0.000000000000000000, 0.000000000000000000, 1.000000000000000000 ) ) ;
#171 = ORIENTED_EDGE ( 'NONE', *, *, #617, .T. ) ;
#172 = EDGE_CURVE ( 'NONE', #681, #496, #517, .T. ) ;
#173 = CARTESIAN_POINT ( 'NONE',  ( 6008.796675622559633, 3567.168196230394642, 18.00000000000000000 ) ) ;
#174 = CARTESIAN_POINT ( 'NONE',  ( 5947.012271745119506, 3902.760234493510325, 0.000000000000000000 ) ) ;
#175 = CARTESIAN_POINT ( 'NONE',  ( 6069.319511455009888, 4129.483363415190070, 15.00000000000000000 ) ) ;
#176 = PLANE ( 'NONE',  #481 ) ;
#177 = ORIENTED_EDGE ( 'NONE', *, *, #510, .T. ) ;
#178 = LINE ( 'NONE', #325, #75 ) ;
#179 = APPLICATION_CONTEXT ( 'configuration controlled 3d designs of mechanical parts and assemblies' ) ;
#180 = LINE ( 'NONE', #690, #88 ) ;
#181 = ORIENTED_EDGE ( 'NONE', *, *, #580, .T. ) ;
#182 = AXIS2_PLACEMENT_3D ( 'NONE', #821, #51, #119 ) ;
#183 = CIRCLE ( 'NONE', #48, 72.08627886317842126 ) ;
#184 = LINE ( 'NONE', #612, #826 ) ;
#185 = ORIENTED_EDGE ( 'NONE', *, *, #214, .T. ) ;
#186 = CARTESIAN_POINT ( 'NONE',  ( 5809.515713217940174, 3629.253045061875127, 15.22563883051210176 ) ) ;
#187 = ADVANCED_FACE ( 'NONE', ( #435 ), #708, .F. ) ;
#188 = CARTESIAN_POINT ( 'NONE',  ( 5804.303536830079793, 3612.804689115275323, 17.99999999999970157 ) ) ;
#189 = EDGE_LOOP ( 'NONE', ( #343, #193, #171, #834 ) ) ;
#190 = CARTESIAN_POINT ( 'NONE',  ( 5809.044153681449643, 3627.795107521520094, 16.24946366815190046 ) ) ;
#191 = CARTESIAN_POINT ( 'NONE',  ( 5941.405790318180152, 4127.687113471534758, 0.000000000000000000 ) ) ;
#192 = ORIENTED_EDGE ( 'NONE', *, *, #218, .T. ) ;
#193 = ORIENTED_EDGE ( 'NONE', *, *, #598, .T. ) ;
#194 = DIRECTION ( 'NONE',  ( 0.3008521040919079348, 0.9536708087508349863, 3.491481338843135327E-15 ) ) ;
#195 = AXIS2_PLACEMENT_3D ( 'NONE', #265, #688, #753 ) ;
#196 = EDGE_CURVE ( 'NONE', #23, #760, #638, .T. ) ;
#197 = ORIENTED_EDGE ( 'NONE', *, *, #905, .T. ) ;
#198 = VECTOR ( 'NONE', #151, 1000.000000000000000 ) ;
#199 = CARTESIAN_POINT ( 'NONE',  ( 6357.690353486990716, 3450.166494749720187, 0.000000000000000000 ) ) ;
#200 = CARTESIAN_POINT ( 'NONE',  ( 6069.319511455009888, 4201.569642278370338, 15.00000000000000000 ) ) ;
#201 = EDGE_CURVE ( 'NONE', #852, #126, #459, .T. ) ;
#202 = CARTESIAN_POINT ( 'NONE',  ( 5808.816318391460300, 3627.109751246534870, 18.00000000000000000 ) ) ;
#203 = EDGE_LOOP ( 'NONE', ( #778, #121, #393, #776 ) ) ;
#204 = CARTESIAN_POINT ( 'NONE',  ( 5806.377968766520098, 3619.328826965035205, 3.486046810468939938 ) ) ;
#205 = CARTESIAN_POINT ( 'NONE',  ( 6013.469686177900257, 4201.569642278370338, 15.00000000000000000 ) ) ;
#206 = ORIENTED_EDGE ( 'NONE', *, *, #131, .T. ) ;
#207 = CARTESIAN_POINT ( 'NONE',  ( 5809.503782986570513, 3629.215227432414395, 15.07808196999699746 ) ) ;
#208 = CARTESIAN_POINT ( 'NONE',  ( 5809.033145982770293, 3627.715985234590335, 5.083885647807019869E-14 ) ) ;
#209 = CARTESIAN_POINT ( 'NONE',  ( 5804.303536830079793, 3612.804689115275323, 15.00000000000000000 ) ) ;
#210 = AXIS2_PLACEMENT_3D ( 'NONE', #412, #749, #889 ) ;
#211 = VECTOR ( 'NONE', #646, 1000.000000000000000 ) ;
#212 = VECTOR ( 'NONE', #82, 1000.000000000000000 ) ;
#213 = LOCAL_TIME ( 15, 3, 35.00000000000000000, #384 ) ;
#214 = EDGE_CURVE ( 'NONE', #446, #535, #95, .T. ) ;
#215 = ORIENTED_EDGE ( 'NONE', *, *, #617, .F. ) ;
#216 = CARTESIAN_POINT ( 'NONE',  ( 6008.796675622559633, 3567.168196230394642, 18.00000000000000000 ) ) ;
#217 = ORIENTED_EDGE ( 'NONE', *, *, #292, .T. ) ;
#218 = EDGE_CURVE ( 'NONE', #238, #87, #302, .T. ) ;
#219 = PERSON_AND_ORGANIZATION ( #79, #873 ) ;
#220 = EDGE_CURVE ( 'NONE', #891, #679, #439, .T. ) ;
#221 = DATE_AND_TIME ( #898, #624 ) ;
#222 = CARTESIAN_POINT ( 'NONE',  ( 6007.894119310279166, 3564.307183804140095, 125.0000000000000000 ) ) ;
#223 = PLANE ( 'NONE',  #299 ) ;
#224 = EDGE_LOOP ( 'NONE', ( #355, #896, #549, #413 ) ) ;
#225 = DATE_AND_TIME ( #574, #902 ) ;
#226 = CARTESIAN_POINT ( 'NONE',  ( 5947.012271745119506, 3902.760234493510325, 15.00000000000000000 ) ) ;
#227 = CC_DESIGN_SECURITY_CLASSIFICATION ( #507, ( #786 ) ) ;
#228 = ORIENTED_EDGE ( 'NONE', *, *, #863, .F. ) ;
#229 = CARTESIAN_POINT ( 'NONE',  ( 6141.405790318180152, 4129.483363415190070, 15.00000000000000000 ) ) ;
#230 = PRODUCT_RELATED_PRODUCT_CATEGORY ( 'detail', '', ( #727 ) ) ;
#231 = CARTESIAN_POINT ( 'NONE',  ( 5809.007705591459853, 3627.679570754485212, 16.15635984007564829 ) ) ;
#232 = CARTESIAN_POINT ( 'NONE',  ( 6141.405790318180152, 4129.483363415190070, 0.000000000000000000 ) ) ;
#233 = EDGE_LOOP ( 'NONE', ( #860, #81, #217, #752 ) ) ;
#234 = ORIENTED_EDGE ( 'NONE', *, *, #584, .T. ) ;
#235 = CARTESIAN_POINT ( 'NONE',  ( 5809.744255289439934, 3629.962756923969664, 15.00000000000254907 ) ) ;
#236 = ADVANCED_FACE ( 'NONE', ( #861 ), #78, .T. ) ;
#237 = CARTESIAN_POINT ( 'NONE',  ( 6008.796675622559633, 3567.168196230394642, 15.00000000000000000 ) ) ;
#238 = VERTEX_POINT ( 'NONE', #101 ) ;
#239 = CIRCLE ( 'NONE', #271, 634.3592539959672649 ) ;
#240 = DIRECTION ( 'NONE',  ( 0.000000000000000000, 0.000000000000000000, 1.000000000000000000 ) ) ;
#241 =( NAMED_UNIT ( * ) SI_UNIT ( $, .STERADIAN. ) SOLID_ANGLE_UNIT ( ) );
#242 = LINE ( 'NONE', #643, #785 ) ;
#243 = EDGE_CURVE ( 'NONE', #609, #502, #184, .T. ) ;
#244 = FACE_BOUND ( 'NONE', #408, .T. ) ;
#245 = DIRECTION ( 'NONE',  ( -1.000000000000000000, 0.000000000000000000, 0.000000000000000000 ) ) ;
#246 = DIRECTION ( 'NONE',  ( 1.000000000000000000, 0.000000000000000000, 0.000000000000000000 ) ) ;
#247 = DIRECTION ( 'NONE',  ( 1.000000000000000000, 0.000000000000000000, 0.000000000000000000 ) ) ;
#248 = ADVANCED_FACE ( 'NONE', ( #478, #323, #244 ), #114, .T. ) ;
#249 = EDGE_LOOP ( 'NONE', ( #352, #287, #498, #550 ) ) ;
#250 = CARTESIAN_POINT ( 'NONE',  ( 5805.027733572824218, 3615.070832824314039, 8.979287865277694181 ) ) ;
#251 = CARTESIAN_POINT ( 'NONE',  ( 5809.744255289449029, 3629.962756923975121, 15.15150000000254948 ) ) ;
#252 = CARTESIAN_POINT ( 'NONE',  ( 6141.405790318180152, 3450.166494749720187, 0.000000000000000000 ) ) ;
#253 = DIRECTION ( 'NONE',  ( 0.000000000000000000, 0.000000000000000000, 1.000000000000000000 ) ) ;
#254 = ORIENTED_EDGE ( 'NONE', *, *, #635, .F. ) ;
#255 = DIRECTION ( 'NONE',  ( 0.9536708087508378728, -0.3008521040918989420, 0.000000000000000000 ) ) ;
#256 = EDGE_LOOP ( 'NONE', ( #405, #132, #674, #769 ) ) ;
#257 = ADVANCED_FACE ( 'NONE', ( #757 ), #406, .T. ) ;
#258 = FACE_OUTER_BOUND ( 'NONE', #233, .T. ) ;
#259 = EDGE_LOOP ( 'NONE', ( #530, #206, #758, #613 ) ) ;
#260 = CIRCLE ( 'NONE', #745, 2.999999999997250644 ) ;
#261 = DIRECTION ( 'NONE',  ( 0.000000000000000000, 0.000000000000000000, 1.000000000000000000 ) ) ;
#262 = ORIENTED_EDGE ( 'NONE', *, *, #73, .T. ) ;
#263 = CARTESIAN_POINT ( 'NONE',  ( 5808.864012915360036, 3627.253565024700492, 17.62706499715909914 ) ) ;
#264 = ADVANCED_FACE ( 'NONE', ( #466 ), #176, .F. ) ;
#265 = CARTESIAN_POINT ( 'NONE',  ( 6069.319511455009888, 4129.483363415190070, 15.00000000000000000 ) ) ;
#266 = VERTEX_POINT ( 'NONE', #540 ) ;
#267 = VERTEX_POINT ( 'NONE', #188 ) ;
#268 = DIRECTION ( 'NONE',  ( 1.000000000000000000, 0.000000000000000000, 0.000000000000000000 ) ) ;
#269 = ORIENTED_EDGE ( 'NONE', *, *, #707, .T. ) ;
#270 = FACE_OUTER_BOUND ( 'NONE', #587, .T. ) ;
#271 = AXIS2_PLACEMENT_3D ( 'NONE', #897, #839, #421 ) ;
#272 = EDGE_CURVE ( 'NONE', #551, #892, #798, .T. ) ;
#273 = DIRECTION ( 'NONE',  ( -0.000000000000000000, -0.000000000000000000, -1.000000000000000000 ) ) ;
#274 = AXIS2_PLACEMENT_3D ( 'NONE', #585, #102, #862 ) ;
#275 = CARTESIAN_POINT ( 'NONE',  ( 5808.888432405999083, 3627.323601954380138, 17.25441115140259996 ) ) ;
#276 = APPROVAL_PERSON_ORGANIZATION ( #770, #34, #754 ) ;
#277 = DIRECTION ( 'NONE',  ( 1.000000000000000000, 0.000000000000000000, 0.000000000000000000 ) ) ;
#278 = CARTESIAN_POINT ( 'NONE',  ( 5804.448713677490559, 3613.250141629985137, 13.28853808153012039 ) ) ;
#279 = DIRECTION ( 'NONE',  ( -0.3008521040919075462, -0.9536708087508350973, -6.378061202868541938E-15 ) ) ;
#280 = CARTESIAN_POINT ( 'NONE',  ( 6071.152785902670985, 3826.721043206979630, 15.00000000000000000 ) ) ;
#281 = DIRECTION ( 'NONE',  ( 8.074349270001140771E-15, 4.037174635000570385E-15, -1.000000000000000000 ) ) ;
#282 = EDGE_CURVE ( 'NONE', #294, #334, #403, .T. ) ;
#283 = EDGE_LOOP ( 'NONE', ( #541, #143, #814, #725 ) ) ;
#284 = CARTESIAN_POINT ( 'NONE',  ( 6041.324311648510047, 4101.721043206979630, 0.000000000000000000 ) ) ;
#285 = VECTOR ( 'NONE', #382, 1000.000000000000000 ) ;
#286 = AXIS2_PLACEMENT_3D ( 'NONE', #350, #488, #700 ) ;
#287 = ORIENTED_EDGE ( 'NONE', *, *, #201, .T. ) ;
#288 = CYLINDRICAL_SURFACE ( 'NONE', #553, 30.00000000000024869 ) ;
#289 = FACE_OUTER_BOUND ( 'NONE', #901, .T. ) ;
#290 = VERTEX_POINT ( 'NONE', #42 ) ;
#291 = APPROVAL_DATE_TIME ( #221, #363 ) ;
#292 = EDGE_CURVE ( 'NONE', #616, #87, #805, .T. ) ;
#293 = CARTESIAN_POINT ( 'NONE',  ( 5947.012271745119506, 3902.760234493510325, 0.000000000000000000 ) ) ;
#294 = VERTEX_POINT ( 'NONE', #191 ) ;
#295 = VECTOR ( 'NONE', #133, 1000.000000000000000 ) ;
#296 = ADVANCED_FACE ( 'NONE', ( #884 ), #673, .T. ) ;
#297 = ORIENTED_EDGE ( 'NONE', *, *, #6, .T. ) ;
#298 = AXIS2_PLACEMENT_3D ( 'NONE', #173, #736, #878 ) ;
#299 = AXIS2_PLACEMENT_3D ( 'NONE', #575, #148, #86 ) ;
#300 = CC_DESIGN_APPROVAL ( #610, ( #786 ) ) ;
#301 = ORIENTED_EDGE ( 'NONE', *, *, #640, .F. ) ;
#302 = LINE ( 'NONE', #583, #62 ) ;
#303 = LINE ( 'NONE', #174, #815 ) ;
#304 = LINE ( 'NONE', #716, #212 ) ;
#305 = VERTEX_POINT ( 'NONE', #116 ) ;
#306 = PERSON_AND_ORGANIZATION_ROLE ( 'creator' ) ;
#307 = CARTESIAN_POINT ( 'NONE',  ( 6041.152785902670075, 3826.721043206979630, -113.1370849898482049 ) ) ;
#308 = CYLINDRICAL_SURFACE ( 'NONE', #827, 30.00000000000024869 ) ;
#309 = ADVANCED_FACE ( 'NONE', ( #45 ), #333, .F. ) ;
#310 = DIRECTION ( 'NONE',  ( 0.000000000000000000, 0.000000000000000000, 1.000000000000000000 ) ) ;
#311 = ORIENTED_EDGE ( 'NONE', *, *, #89, .F. ) ;
#312 = CARTESIAN_POINT ( 'NONE',  ( 5809.179017024101086, 3628.207867266954963, 15.60099947280630062 ) ) ;
#313 = CARTESIAN_POINT ( 'NONE',  ( 6013.469686177900257, 4129.483363415190070, 15.00000000000000000 ) ) ;
#314 = VECTOR ( 'NONE', #194, 1000.000000000000227 ) ;
#315 = CARTESIAN_POINT ( 'NONE',  ( 6041.324311648510047, 4101.721043206979630, 0.000000000000000000 ) ) ;
#316 = CIRCLE ( 'NONE', #286, 17.99999999999723244 ) ;
#317 = CARTESIAN_POINT ( 'NONE',  ( 5941.405790318180152, 4127.687113471534758, 15.00000000000000000 ) ) ;
#318 = CARTESIAN_POINT ( 'NONE',  ( 5807.337039107011151, 3622.357925576956859, 1.821006712206473255 ) ) ;
#319 = CARTESIAN_POINT ( 'NONE',  ( 5809.623974213879592, 3629.588851102304943, 15.00000000000214939 ) ) ;
#320 = DIRECTION ( 'NONE',  ( 0.3008521040919079903, 0.9536708087508349863, 0.000000000000000000 ) ) ;
#321 = DIRECTION ( 'NONE',  ( 1.000000000000000000, 0.000000000000000000, 0.000000000000000000 ) ) ;
#322 = EDGE_CURVE ( 'NONE', #822, #486, #146, .T. ) ;
#323 = FACE_BOUND ( 'NONE', #791, .T. ) ;
#324 = EDGE_LOOP ( 'NONE', ( #337, #787, #117, #611 ) ) ;
#325 = CARTESIAN_POINT ( 'NONE',  ( 6011.053066403250341, 3574.320727296024870, 15.00000000000254907 ) ) ;
#326 = DIRECTION ( 'NONE',  ( 1.000000000000000000, 0.000000000000000000, 0.000000000000000000 ) ) ;
#327 = DIRECTION ( 'NONE',  ( 0.000000000000000000, 0.000000000000000000, 1.000000000000000000 ) ) ;
#328 = CALENDAR_DATE ( 2026, 10, 4 ) ;
#329 = EDGE_LOOP ( 'NONE', ( #311, #388, #473, #19 ) ) ;
#330 = CARTESIAN_POINT ( 'NONE',  ( 5808.978519870310265, 3627.594426684154769, 16.56544133441379785 ) ) ;
#331 = EDGE_LOOP ( 'NONE', ( #335, #358 ) ) ;
#332 = AXIS2_PLACEMENT_3D ( 'NONE', #614, #134, #735 ) ;
#333 = PLANE ( 'NONE',  #712 ) ;
#334 = VERTEX_POINT ( 'NONE', #336 ) ;
#335 = ORIENTED_EDGE ( 'NONE', *, *, #444, .F. ) ;
#336 = CARTESIAN_POINT ( 'NONE',  ( 5941.405790318180152, 4127.687113471534758, 15.00000000000000000 ) ) ;
#337 = ORIENTED_EDGE ( 'NONE', *, *, #506, .F. ) ;
#338 = DIRECTION ( 'NONE',  ( 0.000000000000000000, 0.000000000000000000, 1.000000000000000000 ) ) ;
#339 = ADVANCED_FACE ( 'NONE', ( #35 ), #524, .T. ) ;
#340 = ORIENTED_EDGE ( 'NONE', *, *, #696, .T. ) ;
#341 = CARTESIAN_POINT ( 'NONE',  ( 6026.067744137100817, 3840.059521210640014, 0.000000000000000000 ) ) ;
#342 = LINE ( 'NONE', #741, #349 ) ;
#343 = ORIENTED_EDGE ( 'NONE', *, *, #450, .F. ) ;
#344 = ADVANCED_FACE ( 'NONE', ( #603 ), #809, .T. ) ;
#345 = CARTESIAN_POINT ( 'NONE',  ( 5804.260524444609473, 3612.660971144594896, 15.62374220049910178 ) ) ;
#346 = ADVANCED_FACE ( 'NONE', ( #534, #813, #594 ), #895, .F. ) ;
#347 = CARTESIAN_POINT ( 'NONE',  ( 6018.205597468880114, 3572.064336515334617, 15.00000000000254907 ) ) ;
#348 = CIRCLE ( 'NONE', #85, 30.00000000000024869 ) ;
#349 = VECTOR ( 'NONE', #253, 1000.000000000000000 ) ;
#350 = CARTESIAN_POINT ( 'NONE',  ( 6008.796675622559633, 3567.168196230394642, 18.00000000000000000 ) ) ;
#351 = CARTESIAN_POINT ( 'NONE',  ( 5947.012271745119506, 3902.760234493510325, 15.00000000000000000 ) ) ;
#352 = ORIENTED_EDGE ( 'NONE', *, *, #444, .T. ) ;
#353 = CARTESIAN_POINT ( 'NONE',  ( 6041.152785902670075, 3826.721043206979630, 0.000000000000000000 ) ) ;
#354 = EDGE_CURVE ( 'NONE', #496, #681, #726, .T. ) ;
#355 = ORIENTED_EDGE ( 'NONE', *, *, #292, .F. ) ;
#356 = CARTESIAN_POINT ( 'NONE',  ( 6071.152785902670985, 3826.721043206979630, -113.1370849898482049 ) ) ;
#357 = DIRECTION ( 'NONE',  ( 0.000000000000000000, 0.000000000000000000, -1.000000000000000000 ) ) ;
#358 = ORIENTED_EDGE ( 'NONE', *, *, #131, .F. ) ;
#359 = AXIS2_PLACEMENT_3D ( 'NONE', #160, #365, #800 ) ;
#360 = VECTOR ( 'NONE', #445, 1000.000000000000114 ) ;
#361 = ADVANCED_FACE ( 'NONE', ( #876 ), #671, .F. ) ;
#362 = VERTEX_POINT ( 'NONE', #825 ) ;
#363 = APPROVAL ( #563, '未指定' ) ;
#364 = DIRECTION ( 'NONE',  ( -0.9536708087508447562, 0.3008521040918773481, 0.000000000000000000 ) ) ;
#365 = DIRECTION ( 'NONE',  ( 0.000000000000000000, 0.000000000000000000, -1.000000000000000000 ) ) ;
#366 = ORIENTED_EDGE ( 'NONE', *, *, #214, .F. ) ;
#367 = CARTESIAN_POINT ( 'NONE',  ( 5809.503782986570513, 3629.215227432414849, 15.07808196999680028 ) ) ;
#368 = B_SPLINE_CURVE_WITH_KNOTS ( 'NONE', 3,
 ( #562, #130, #207, #772, #136, #429, #447, #788, #13, #720 ),
 .UNSPECIFIED., .F., .F.,
 ( 4, 2, 2, 2, 4 ),
 ( 0.000000000000000000, 0.2500000000000000000, 0.5000000000000000000, 0.7500000000000000000, 1.000000000000000000 ),
 .UNSPECIFIED. ) ;
#369 = LINE ( 'NONE', #9, #410 ) ;
#370 = DIRECTION ( 'NONE',  ( 0.000000000000000000, 0.000000000000000000, 1.000000000000000000 ) ) ;
#371 = CARTESIAN_POINT ( 'NONE',  ( 6011.324311648510047, 4101.721043206979630, -113.1370849898482049 ) ) ;
#372 = DIRECTION ( 'NONE',  ( 1.000000000000000000, 0.000000000000000000, 0.000000000000000000 ) ) ;
#373 = VECTOR ( 'NONE', #310, 1000.000000000000000 ) ;
#374 = CARTESIAN_POINT ( 'NONE',  ( 6008.796675622559633, 3567.168196230394642, 18.00000000000000000 ) ) ;
#375 = VECTOR ( 'NONE', #532, 1000.000000000000000 ) ;
#376 = ORIENTED_EDGE ( 'NONE', *, *, #1, .F. ) ;
#377 = CALENDAR_DATE ( 2026, 10, 4 ) ;
#378 = EDGE_CURVE ( 'NONE', #568, #765, #109, .T. ) ;
#379 = CARTESIAN_POINT ( 'NONE',  ( 5808.816318391460300, 3627.109751246534870, 125.0000000000000000 ) ) ;
#380 = CARTESIAN_POINT ( 'NONE',  ( 6007.894119310290080, 3564.307183804145097, 18.00000000000000000 ) ) ;
#381 = VERTEX_POINT ( 'NONE', #33 ) ;
#382 = DIRECTION ( 'NONE',  ( 0.9536708087508364295, -0.3008521040919036049, 0.000000000000000000 ) ) ;
#383 = CARTESIAN_POINT ( 'NONE',  ( 5804.303536830079793, 3612.804689115275323, 17.99999999999970157 ) ) ;
#384 = COORDINATED_UNIVERSAL_TIME_OFFSET ( 8, 0, .AHEAD. ) ;
#385 = LINE ( 'NONE', #558, #482 ) ;
#386 = VERTEX_POINT ( 'NONE', #527 ) ;
#387 = DIRECTION ( 'NONE',  ( 0.3008521040919076017, 0.9536708087508352083, 6.279320566282151742E-15 ) ) ;
#388 = ORIENTED_EDGE ( 'NONE', *, *, #823, .T. ) ;
#389 = CARTESIAN_POINT ( 'NONE',  ( 5809.744255289590001, 3629.962756924419864, 0.000000000000000000 ) ) ;
#390 = DIRECTION ( 'NONE',  ( -0.3008521040919079903, -0.9536708087508349863, 0.000000000000000000 ) ) ;
#391 = EDGE_CURVE ( 'NONE', #616, #294, #871, .T. ) ;
#392 = CARTESIAN_POINT ( 'NONE',  ( 6041.152785902670075, 3826.721043206979630, 15.00000000000000000 ) ) ;
#393 = ORIENTED_EDGE ( 'NONE', *, *, #506, .T. ) ;
#394 = CIRCLE ( 'NONE', #518, 115.3380461810842235 ) ;
#395 = APPROVAL_PERSON_ORGANIZATION ( #93, #610, #98 ) ;
#396 = DIRECTION ( 'NONE',  ( 1.000000000000000000, 0.000000000000000000, 0.000000000000000000 ) ) ;
#397 = COORDINATED_UNIVERSAL_TIME_OFFSET ( 8, 0, .AHEAD. ) ;
#398 = ORIENTED_EDGE ( 'NONE', *, *, #378, .F. ) ;
#399 = CARTESIAN_POINT ( 'NONE',  ( 5809.629941579019032, 3629.607767047569723, 15.15150000000214980 ) ) ;
#400 = APPLICATION_CONTEXT ( 'configuration controlled 3d designs of mechanical parts and assemblies' ) ;
#401 = DIRECTION ( 'NONE',  ( 1.000000000000000000, 0.000000000000000000, 0.000000000000000000 ) ) ;
#402 = ORIENTED_EDGE ( 'NONE', *, *, #7, .T. ) ;
#403 = LINE ( 'NONE', #317, #886 ) ;
#404 = CARTESIAN_POINT ( 'NONE',  ( 5809.304205101219850, 3628.597329117440040, 15.51101947277405024 ) ) ;
#405 = ORIENTED_EDGE ( 'NONE', *, *, #537, .F. ) ;
#406 = CYLINDRICAL_SURFACE ( 'NONE', #163, 576.6902309054255511 ) ;
#407 = ORIENTED_EDGE ( 'NONE', *, *, #196, .T. ) ;
#408 = EDGE_LOOP ( 'NONE', ( #599, #115 ) ) ;
#409 = VECTOR ( 'NONE', #327, 1000.000000000000000 ) ;
#410 = VECTOR ( 'NONE', #731, 1000.000000000000114 ) ;
#411 = AXIS2_PLACEMENT_3D ( 'NONE', #578, #370, #509 ) ;
#412 = CARTESIAN_POINT ( 'NONE',  ( 6357.690353486990716, 3450.166494749720187, 15.00000000000000000 ) ) ;
#413 = ORIENTED_EDGE ( 'NONE', *, *, #580, .F. ) ;
#414 = EDGE_CURVE ( 'NONE', #418, #386, #394, .T. ) ;
#415 = ORIENTED_EDGE ( 'NONE', *, *, #89, .T. ) ;
#416 = PERSON_AND_ORGANIZATION ( #79, #873 ) ;
#417 = CARTESIAN_POINT ( 'NONE',  ( 6041.152785902670075, 3826.721043206979630, -113.1370849898482049 ) ) ;
#418 = VERTEX_POINT ( 'NONE', #880 ) ;
#419 = CC_DESIGN_PERSON_AND_ORGANIZATION_ASSIGNMENT ( #548, #491, ( #54 ) ) ;
#420 = EDGE_CURVE ( 'NONE', #568, #386, #342, .T. ) ;
#421 = DIRECTION ( 'NONE',  ( 1.000000000000000000, 0.000000000000000000, 0.000000000000000000 ) ) ;
#422 = CARTESIAN_POINT ( 'NONE',  ( 6041.152785902670075, 3826.721043206979630, 0.000000000000000000 ) ) ;
#423 = ORIENTED_EDGE ( 'NONE', *, *, #853, .T. ) ;
#424 = EDGE_CURVE ( 'NONE', #290, #362, #385, .T. ) ;
#425 = CARTESIAN_POINT ( 'NONE',  ( 5809.744255289449029, 3629.962756923995130, -0.1499999999974360176 ) ) ;
#426 = LINE ( 'NONE', #200, #621 ) ;
#427 = AXIS2_PLACEMENT_3D ( 'NONE', #485, #338, #401 ) ;
#428 = CIRCLE ( 'NONE', #714, 30.00000000000024869 ) ;
#429 = CARTESIAN_POINT ( 'NONE',  ( 5809.007705591455306, 3627.679570754486122, 16.15635984007584014 ) ) ;
#430 = EDGE_CURVE ( 'NONE', #546, #833, #428, .T. ) ;
#431 = CARTESIAN_POINT ( 'NONE',  ( 5804.995486376629742, 3614.968612466690047, 8.934858353319139468 ) ) ;
#432 = APPROVAL_STATUS ( 'not_yet_approved' ) ;
#433 = LINE ( 'NONE', #830, #295 ) ;
#434 = ORIENTED_EDGE ( 'NONE', *, *, #440, .T. ) ;
#435 = FACE_OUTER_BOUND ( 'NONE', #52, .T. ) ;
#436 = LINE ( 'NONE', #710, #539 ) ;
#437 = ORIENTED_EDGE ( 'NONE', *, *, #595, .T. ) ;
#438 = CARTESIAN_POINT ( 'NONE',  ( 5808.322571960309688, 3625.470907683939913, 0.4684918199686149975 ) ) ;
#439 = LINE ( 'NONE', #715, #870 ) ;
#440 = EDGE_CURVE ( 'NONE', #855, #238, #183, .T. ) ;
#441 = AXIS2_PLACEMENT_3D ( 'NONE', #313, #656, #526 ) ;
#442 = LINE ( 'NONE', #641, #373 ) ;
#443 = ORIENTED_EDGE ( 'NONE', *, *, #863, .T. ) ;
#444 = EDGE_CURVE ( 'NONE', #381, #852, #799, .T. ) ;
#445 = DIRECTION ( 'NONE',  ( -0.3008521040919075462, -0.9536708087508350973, -6.378061202868541938E-15 ) ) ;
#446 = VERTEX_POINT ( 'NONE', #202 ) ;
#447 = CARTESIAN_POINT ( 'NONE',  ( 5808.938693478578898, 3627.468181041545449, 16.48914305888772702 ) ) ;
#448 = CARTESIAN_POINT ( 'NONE',  ( 5809.744255289590001, 3629.962756924419864, 15.00000000000000000 ) ) ;
#449 = EDGE_LOOP ( 'NONE', ( #477, #909 ) ) ;
#450 = EDGE_CURVE ( 'NONE', #824, #267, #180, .T. ) ;
#451 = CARTESIAN_POINT ( 'NONE',  ( 1566.435609575695025, 4965.442801702320139, 3.269430795126004759E-11 ) ) ;
#452 = CARTESIAN_POINT ( 'NONE',  ( 5805.650663336773505, 3617.034399731044687, 6.105118489541937699 ) ) ;
#453 = VECTOR ( 'NONE', #836, 1000.000000000000000 ) ;
#454 = AXIS2_PLACEMENT_3D ( 'NONE', #392, #170, #767 ) ;
#455 = FACE_OUTER_BOUND ( 'NONE', #329, .T. ) ;
#456 =( NAMED_UNIT ( * ) PLANE_ANGLE_UNIT ( ) SI_UNIT ( $, .RADIAN. ) );
#457 = CARTESIAN_POINT ( 'NONE',  ( 6013.469686177900257, 4201.569642278370338, 0.000000000000000000 ) ) ;
#458 = ORIENTED_EDGE ( 'NONE', *, *, #1, .T. ) ;
#459 = LINE ( 'NONE', #371, #570 ) ;
#460 = CARTESIAN_POINT ( 'NONE',  ( 5804.480967581393998, 3613.352383250394723, 13.33291376683327201 ) ) ;
#461 = PLANE ( 'NONE',  #572 ) ;
#462 = DIRECTION ( 'NONE',  ( -0.9536708087508350973, 0.3008521040919075462, 0.000000000000000000 ) ) ;
#463 = CARTESIAN_POINT ( 'NONE',  ( 6011.152785902670075, 3826.721043206979630, 15.00000000000000000 ) ) ;
#464 = ADVANCED_FACE ( 'NONE', ( #270 ), #470, .T. ) ;
#465 = DIRECTION ( 'NONE',  ( -0.000000000000000000, -0.000000000000000000, -1.000000000000000000 ) ) ;
#466 = FACE_OUTER_BOUND ( 'NONE', #819, .T. ) ;
#467 = ORIENTED_EDGE ( 'NONE', *, *, #354, .T. ) ;
#468 = CARTESIAN_POINT ( 'NONE',  ( 5809.388764730031653, 3628.839573586006736, 1.476114152784702149E-12 ) ) ;
#469 = AXIS2_PLACEMENT_3D ( 'NONE', #497, #67, #777 ) ;
#470 = CYLINDRICAL_SURFACE ( 'NONE', #471, 115.3380461810833424 ) ;
#471 = AXIS2_PLACEMENT_3D ( 'NONE', #747, #899, #277 ) ;
#472 = DIRECTION ( 'NONE',  ( -0.9536708087508446452, 0.3008521040918774037, -0.000000000000000000 ) ) ;
#473 = ORIENTED_EDGE ( 'NONE', *, *, #14, .F. ) ;
#474 = ORIENTED_EDGE ( 'NONE', *, *, #14, .T. ) ;
#475 = ORIENTED_EDGE ( 'NONE', *, *, #80, .F. ) ;
#476 = DIRECTION ( 'NONE',  ( 0.000000000000000000, 0.000000000000000000, 1.000000000000000000 ) ) ;
#477 = ORIENTED_EDGE ( 'NONE', *, *, #430, .F. ) ;
#478 = FACE_OUTER_BOUND ( 'NONE', #71, .T. ) ;
#479 = ORIENTED_EDGE ( 'NONE', *, *, #172, .T. ) ;
#480 = ORIENTED_EDGE ( 'NONE', *, *, #59, .F. ) ;
#481 = AXIS2_PLACEMENT_3D ( 'NONE', #816, #664, #682 ) ;
#482 = VECTOR ( 'NONE', #106, 1000.000000000000000 ) ;
#483 = LINE ( 'NONE', #555, #74 ) ;
#484 = CARTESIAN_POINT ( 'NONE',  ( 6011.152785902670075, 3826.721043206979630, 0.000000000000000000 ) ) ;
#485 = CARTESIAN_POINT ( 'NONE',  ( 6357.690353486990716, 3450.166494749720187, 0.000000000000000000 ) ) ;
#486 = VERTEX_POINT ( 'NONE', #552 ) ;
#487 = CARTESIAN_POINT ( 'NONE',  ( 6008.796675622559633, 3567.168196230374633, 2.560451850541770099E-12 ) ) ;
#488 = DIRECTION ( 'NONE',  ( 0.9536708087508446452, -0.3008521040918774037, 0.000000000000000000 ) ) ;
#489 = EDGE_CURVE ( 'NONE', #824, #111, #316, .T. ) ;
#490 = ORIENTED_EDGE ( 'NONE', *, *, #243, .T. ) ;
#491 = PERSON_AND_ORGANIZATION_ROLE ( 'creator' ) ;
#492 = CARTESIAN_POINT ( 'NONE',  ( 6071.324311648510047, 4101.721043206979630, 15.00000000000000000 ) ) ;
#493 = EDGE_CURVE ( 'NONE', #535, #609, #260, .T. ) ;
#494 = CARTESIAN_POINT ( 'NONE',  ( 6361.937094597329633, 3463.628235499294533, 0.000000000000000000 ) ) ;
#495 = AXIS2_PLACEMENT_3D ( 'NONE', #748, #41, #326 ) ;
#496 = VERTEX_POINT ( 'NONE', #280 ) ;
#497 = CARTESIAN_POINT ( 'NONE',  ( 6041.152785902670075, 3826.721043206979630, 15.00000000000000000 ) ) ;
#498 = ORIENTED_EDGE ( 'NONE', *, *, #124, .T. ) ;
#499 = SHAPE_DEFINITION_REPRESENTATION ( #659, #692 ) ;
#500 = ADVANCED_FACE ( 'NONE', ( #803 ), #461, .T. ) ;
#501 = LINE ( 'NONE', #794, #360 ) ;
#502 = VERTEX_POINT ( 'NONE', #448 ) ;
#503 = ADVANCED_FACE ( 'NONE', ( #864 ), #223, .T. ) ;
#504 = AXIS2_PLACEMENT_3D ( 'NONE', #353, #273, #908 ) ;
#505 = AXIS2_PLACEMENT_3D ( 'NONE', #557, #357, #615 ) ;
#506 = EDGE_CURVE ( 'NONE', #551, #855, #442, .T. ) ;
#507 = SECURITY_CLASSIFICATION ( '', '', #713 ) ;
#508 = ORIENTED_EDGE ( 'NONE', *, *, #573, .T. ) ;
#509 = DIRECTION ( 'NONE',  ( 1.000000000000000000, 0.000000000000000000, 0.000000000000000000 ) ) ;
#510 = EDGE_CURVE ( 'NONE', #334, #418, #94, .T. ) ;
#511 = CARTESIAN_POINT ( 'NONE',  ( 5919.373424222510948, 3824.932944611365201, 0.000000000000000000 ) ) ;
#512 = VERTEX_POINT ( 'NONE', #293 ) ;
#513 = LINE ( 'NONE', #801, #650 ) ;
#514 = CARTESIAN_POINT ( 'NONE',  ( 6071.324311648510047, 4101.721043206979630, -113.1370849898482049 ) ) ;
#515 = CARTESIAN_POINT ( 'NONE',  ( 6013.469686177900257, 4129.483363415190070, 15.00000000000000000 ) ) ;
#516 = DIRECTION ( 'NONE',  ( 0.000000000000000000, 0.000000000000000000, 1.000000000000000000 ) ) ;
#517 = CIRCLE ( 'NONE', #469, 30.00000000000024869 ) ;
#518 = AXIS2_PLACEMENT_3D ( 'NONE', #764, #597, #129 ) ;
#519 = CARTESIAN_POINT ( 'NONE',  ( 5809.744255289590001, 3629.962756924419864, 0.000000000000000000 ) ) ;
#520 = DIRECTION ( 'NONE',  ( 0.000000000000000000, 1.000000000000000000, 0.000000000000000000 ) ) ;
#521 = CARTESIAN_POINT ( 'NONE',  ( 6003.381337748909573, 3550.002121672875091, 125.0000000000000000 ) ) ;
#522 = ORIENTED_EDGE ( 'NONE', *, *, #707, .F. ) ;
#523 = DATE_AND_TIME ( #377, #687 ) ;
#524 = CYLINDRICAL_SURFACE ( 'NONE', #298, 17.99999999999723244 ) ;
#525 = DIRECTION ( 'NONE',  ( 1.000000000000000000, 0.000000000000000000, 0.000000000000000000 ) ) ;
#526 = DIRECTION ( 'NONE',  ( 1.000000000000000000, 0.000000000000000000, 0.000000000000000000 ) ) ;
#527 = CARTESIAN_POINT ( 'NONE',  ( 5919.373424222510948, 3824.932944611365201, 15.00000000000000000 ) ) ;
#528 = CC_DESIGN_PERSON_AND_ORGANIZATION_ASSIGNMENT ( #416, #566, ( #507 ) ) ;
#529 = DIRECTION ( 'NONE',  ( 0.000000000000000000, 0.000000000000000000, 1.000000000000000000 ) ) ;
#530 = ORIENTED_EDGE ( 'NONE', *, *, #201, .F. ) ;
#531 = DIRECTION ( 'NONE',  ( 0.000000000000000000, 1.000000000000000000, 0.000000000000000000 ) ) ;
#532 = DIRECTION ( 'NONE',  ( -0.9536708087508446452, 0.3008521040918774037, -0.000000000000000000 ) ) ;
#533 = DIRECTION ( 'NONE',  ( -0.000000000000000000, -0.000000000000000000, -1.000000000000000000 ) ) ;
#534 = FACE_OUTER_BOUND ( 'NONE', #544, .T. ) ;
#535 = VERTEX_POINT ( 'NONE', #380 ) ;
#536 = PLANE ( 'NONE',  #900 ) ;
#537 = EDGE_CURVE ( 'NONE', #512, #418, #154, .T. ) ;
#538 = VECTOR ( 'NONE', #761, 1000.000000000000114 ) ;
#539 = VECTOR ( 'NONE', #590, 1000.000000000000000 ) ;
#540 = CARTESIAN_POINT ( 'NONE',  ( 6003.381337748909573, 3550.002121672875091, 125.0000000000000000 ) ) ;
#541 = ORIENTED_EDGE ( 'NONE', *, *, #905, .F. ) ;
#542 = CARTESIAN_POINT ( 'NONE',  ( 6116.344094594010130, 3768.274805253469822, 15.00000000000000000 ) ) ;
#543 = FACE_OUTER_BOUND ( 'NONE', #697, .T. ) ;
#544 = EDGE_LOOP ( 'NONE', ( #480, #817, #197, #398, #47, #913, #64, #683, #709, #576, #693, #850 ) ) ;
#545 = EDGE_CURVE ( 'NONE', #892, #616, #242, .T. ) ;
#546 = VERTEX_POINT ( 'NONE', #2 ) ;
#547 = CARTESIAN_POINT ( 'NONE',  ( 1561.922828014314973, 4951.137739571060592, 3.264193573117739946E-11 ) ) ;
#548 = PERSON_AND_ORGANIZATION ( #79, #873 ) ;
#549 = ORIENTED_EDGE ( 'NONE', *, *, #282, .T. ) ;
#550 = ORIENTED_EDGE ( 'NONE', *, *, #806, .F. ) ;
#551 = VERTEX_POINT ( 'NONE', #232 ) ;
#552 = CARTESIAN_POINT ( 'NONE',  ( 6141.405790318180152, 3840.059521210640014, 15.00000000000000000 ) ) ;
#553 = AXIS2_PLACEMENT_3D ( 'NONE', #628, #632, #137 ) ;
#554 =( GEOMETRIC_REPRESENTATION_CONTEXT ( 3 ) GLOBAL_UNCERTAINTY_ASSIGNED_CONTEXT ( ( #153 ) ) GLOBAL_UNIT_ASSIGNED_CONTEXT ( ( #661, #456, #241 ) ) REPRESENTATION_CONTEXT ( 'NONE', 'WORKASPACE' ) );
#555 = CARTESIAN_POINT ( 'NONE',  ( 6007.894119310279166, 3564.307183804140095, 18.00000000000000000 ) ) ;
#556 = ADVANCED_FACE ( 'NONE', ( #289 ), #76, .F. ) ;
#557 = CARTESIAN_POINT ( 'NONE',  ( 5831.710038369579706, 3899.886234583660098, 0.000000000000000000 ) ) ;
#558 = CARTESIAN_POINT ( 'NONE',  ( 6011.053066403250341, 3574.320727296024870, 15.00000000000254907 ) ) ;
#559 = CARTESIAN_POINT ( 'NONE',  ( 5804.305652260230090, 3612.804021765905418, 15.64338069473160076 ) ) ;
#560 = DIRECTION ( 'NONE',  ( -0.000000000000000000, -0.000000000000000000, -1.000000000000000000 ) ) ;
#561 = CC_DESIGN_DATE_AND_TIME_ASSIGNMENT ( #225, #586, ( #54 ) ) ;
#562 = CARTESIAN_POINT ( 'NONE',  ( 5809.744255289590001, 3629.962756924419864, 15.00000000000000000 ) ) ;
#563 = APPROVAL_STATUS ( 'not_yet_approved' ) ;
#564 = ORIENTED_EDGE ( 'NONE', *, *, #510, .F. ) ;
#565 = CARTESIAN_POINT ( 'NONE',  ( 5804.258409014470089, 3612.661638493960254, 17.99999999999970157 ) ) ;
#566 = PERSON_AND_ORGANIZATION_ROLE ( 'classification_officer' ) ;
#567 = DIRECTION ( 'NONE',  ( 0.000000000000000000, 0.000000000000000000, 1.000000000000000000 ) ) ;
#568 = VERTEX_POINT ( 'NONE', #511 ) ;
#569 = CARTESIAN_POINT ( 'NONE',  ( 6003.381337748909573, 3550.002121672875091, 17.99999999999970157 ) ) ;
#570 = VECTOR ( 'NONE', #15, 1000.000000000000000 ) ;
#571 = CARTESIAN_POINT ( 'NONE',  ( 5808.816318391460300, 3627.109751246534870, 15.00000000000000000 ) ) ;
#572 = AXIS2_PLACEMENT_3D ( 'NONE', #662, #27, #859 ) ;
#573 = EDGE_CURVE ( 'NONE', #446, #267, #501, .T. ) ;
#574 = CALENDAR_DATE ( 2026, 10, 4 ) ;
#575 = CARTESIAN_POINT ( 'NONE',  ( 6011.053066403250341, 3574.320727296024870, 15.00000000000254907 ) ) ;
#576 = ORIENTED_EDGE ( 'NONE', *, *, #881, .F. ) ;
#577 = ORIENTED_EDGE ( 'NONE', *, *, #635, .T. ) ;
#578 = CARTESIAN_POINT ( 'NONE',  ( 6357.690353486990716, 3450.166494749720187, 15.00000000000000000 ) ) ;
#579 = AXIS2_PLACEMENT_3D ( 'NONE', #31, #476, #247 ) ;
#580 = EDGE_CURVE ( 'NONE', #87, #334, #166, .T. ) ;
#581 = CIRCLE ( 'NONE', #667, 30.00000000000024869 ) ;
#582 = ORIENTED_EDGE ( 'NONE', *, *, #142, .T. ) ;
#583 = CARTESIAN_POINT ( 'NONE',  ( 6013.469686177900257, 4201.569642278370338, 15.00000000000000000 ) ) ;
#584 = EDGE_CURVE ( 'NONE', #111, #362, #869, .T. ) ;
#585 = CARTESIAN_POINT ( 'NONE',  ( 5831.710038369579706, 3899.886234583660098, 15.00000000000000000 ) ) ;
#586 = DATE_TIME_ROLE ( 'creation_date' ) ;
#587 = EDGE_LOOP ( 'NONE', ( #522, #402, #77, #155 ) ) ;
#588 = LINE ( 'NONE', #235, #887 ) ;
#589 = DIRECTION ( 'NONE',  ( 0.02491805614023844331, -0.9996894970330497676, 0.000000000000000000 ) ) ;
#590 = DIRECTION ( 'NONE',  ( 0.000000000000000000, 0.000000000000000000, -1.000000000000000000 ) ) ;
#591 = AXIS2_PLACEMENT_3D ( 'NONE', #417, #516, #872 ) ;
#592 = VECTOR ( 'NONE', #738, 1000.000000000000114 ) ;
#593 = VECTOR ( 'NONE', #520, 1000.000000000000000 ) ;
#594 = FACE_BOUND ( 'NONE', #331, .T. ) ;
#595 = EDGE_CURVE ( 'NONE', #833, #681, #724, .T. ) ;
#596 = CARTESIAN_POINT ( 'NONE',  ( 5807.021894868071286, 3621.362636003229909, 2.379031217572256995 ) ) ;
#597 = DIRECTION ( 'NONE',  ( 0.000000000000000000, 0.000000000000000000, -1.000000000000000000 ) ) ;
#598 = EDGE_CURVE ( 'NONE', #824, #266, #4, .T. ) ;
#599 = ORIENTED_EDGE ( 'NONE', *, *, #672, .F. ) ;
#600 = CARTESIAN_POINT ( 'NONE',  ( 6018.205597468880114, 3572.064336515334617, 15.00000000000254907 ) ) ;
#601 = ORIENTED_EDGE ( 'NONE', *, *, #322, .T. ) ;
#602 = CARTESIAN_POINT ( 'NONE',  ( 5804.303536830079793, 3612.804689115275323, 15.00000000000000000 ) ) ;
#603 = FACE_OUTER_BOUND ( 'NONE', #883, .T. ) ;
#604 = ORIENTED_EDGE ( 'NONE', *, *, #493, .F. ) ;
#605 = EDGE_CURVE ( 'NONE', #486, #855, #304, .T. ) ;
#606 = VECTOR ( 'NONE', #782, 1000.000000000000000 ) ;
#607 = DIRECTION ( 'NONE',  ( 0.3008521040919076017, 0.9536708087508352083, 6.279320566282151742E-15 ) ) ;
#608 = DATE_AND_TIME ( #328, #149 ) ;
#609 = VERTEX_POINT ( 'NONE', #237 ) ;
#610 = APPROVAL ( #22, '未指定' ) ;
#611 = ORIENTED_EDGE ( 'NONE', *, *, #440, .F. ) ;
#612 = CARTESIAN_POINT ( 'NONE',  ( 6008.796675622559633, 3567.168196230389640, 15.00000000000254907 ) ) ;
#613 = ORIENTED_EDGE ( 'NONE', *, *, #672, .T. ) ;
#614 = CARTESIAN_POINT ( 'NONE',  ( 6612.864022107190067, 3373.458867489274780, 15.00000000000000000 ) ) ;
#615 = DIRECTION ( 'NONE',  ( -1.000000000000000000, 0.000000000000000000, 0.000000000000000000 ) ) ;
#616 = VERTEX_POINT ( 'NONE', #457 ) ;
#617 = EDGE_CURVE ( 'NONE', #266, #891, #369, .T. ) ;
#618 = DIRECTION ( 'NONE',  ( 0.000000000000000000, 0.000000000000000000, 1.000000000000000000 ) ) ;
#619 = DIRECTION ( 'NONE',  ( 0.000000000000000000, 0.000000000000000000, 1.000000000000000000 ) ) ;
#620 = EDGE_LOOP ( 'NONE', ( #907, #366, #894, #301 ) ) ;
#621 = VECTOR ( 'NONE', #633, 1000.000000000000000 ) ;
#622 = AXIS2_PLACEMENT_3D ( 'NONE', #199, #619, #246 ) ;
#623 = CARTESIAN_POINT ( 'NONE',  ( 5806.405701917589795, 3619.416738255154996, 3.605996836828719854 ) ) ;
#624 = LOCAL_TIME ( 15, 3, 35.00000000000000000, #694 ) ;
#625 = CARTESIAN_POINT ( 'NONE',  ( 6041.324311648510047, 4101.721043206979630, 15.00000000000000000 ) ) ;
#626 = DIRECTION ( 'NONE',  ( 0.9536708087508446452, -0.3008521040918774037, 0.000000000000000000 ) ) ;
#627 = DIRECTION ( 'NONE',  ( 0.02491805614023844678, -0.9996894970330497676, 0.000000000000000000 ) ) ;
#628 = CARTESIAN_POINT ( 'NONE',  ( 6041.324311648510047, 4101.721043206979630, -113.1370849898482049 ) ) ;
#629 = CARTESIAN_POINT ( 'NONE',  ( 6011.135944842029858, 3574.294581845770153, 0.000000000000000000 ) ) ;
#630 = COORDINATED_UNIVERSAL_TIME_OFFSET ( 8, 0, .AHEAD. ) ;
#631 = EDGE_LOOP ( 'NONE', ( #376, #577, #407, #269 ) ) ;
#632 = DIRECTION ( 'NONE',  ( 0.000000000000000000, 0.000000000000000000, 1.000000000000000000 ) ) ;
#633 = DIRECTION ( 'NONE',  ( 0.000000000000000000, 0.000000000000000000, 1.000000000000000000 ) ) ;
#634 = CLOSED_SHELL ( 'NONE', ( #829, #670, #361, #248, #346, #464, #500, #296, #796, #877, #840, #732, #257, #503, #344, #831, #556, #339, #152, #773, #811, #309, #236, #264, #187, #820 ) ) ;
#635 = EDGE_CURVE ( 'NONE', #305, #23, #436, .T. ) ;
#636 = PERSON_AND_ORGANIZATION ( #79, #873 ) ;
#637 = ORIENTED_EDGE ( 'NONE', *, *, #537, .T. ) ;
#638 = CIRCLE ( 'NONE', #359, 634.3592539959672649 ) ;
#639 = AXIS2_PLACEMENT_3D ( 'NONE', #655, #730, #390 ) ;
#640 = EDGE_CURVE ( 'NONE', #56, #679, #729, .T. ) ;
#641 = CARTESIAN_POINT ( 'NONE',  ( 6141.405790318180152, 4129.483363415190070, 15.00000000000000000 ) ) ;
#642 = ORIENTED_EDGE ( 'NONE', *, *, #595, .F. ) ;
#643 = CARTESIAN_POINT ( 'NONE',  ( 6357.690353486990716, 4201.569642278370338, 0.000000000000000000 ) ) ;
#644 = ORIENTED_EDGE ( 'NONE', *, *, #59, .T. ) ;
#645 = VERTEX_POINT ( 'NONE', #651 ) ;
#646 = DIRECTION ( 'NONE',  ( 0.000000000000000000, 0.000000000000000000, 1.000000000000000000 ) ) ;
#647 = ORIENTED_EDGE ( 'NONE', *, *, #220, .T. ) ;
#648 = FACE_OUTER_BOUND ( 'NONE', #224, .T. ) ;
#649 = AXIS2_PLACEMENT_3D ( 'NONE', #451, #387, #462 ) ;
#650 = VECTOR ( 'NONE', #32, 1000.000000000000000 ) ;
#651 = CARTESIAN_POINT ( 'NONE',  ( 6141.405790318180152, 3840.059521210640014, 0.000000000000000000 ) ) ;
#652 = DIRECTION ( 'NONE',  ( -0.3008521040918773481, -0.9536708087508447562, 0.000000000000000000 ) ) ;
#653 = ORIENTED_EDGE ( 'NONE', *, *, #6, .F. ) ;
#654 = CARTESIAN_POINT ( 'NONE',  ( 5805.423673509338187, 3616.318550745470930, 7.020183746007578662 ) ) ;
#655 = CARTESIAN_POINT ( 'NONE',  ( 6003.381337748909573, 3550.002121672875091, 125.0000000000000000 ) ) ;
#656 = DIRECTION ( 'NONE',  ( 0.000000000000000000, 0.000000000000000000, 1.000000000000000000 ) ) ;
#657 = DIRECTION ( 'NONE',  ( -1.000000000000000000, -0.000000000000000000, -0.000000000000000000 ) ) ;
#658 = APPLICATION_PROTOCOL_DEFINITION ( 'international standard', 'config_control_design', 1994, #179 ) ;
#659 = PRODUCT_DEFINITION_SHAPE ( 'NONE', 'NONE',  #54 ) ;
#660 = DIRECTION ( 'NONE',  ( -3.665712078274734762E-13, -1.161993735389795934E-12, -1.000000000000000000 ) ) ;
#661 =( LENGTH_UNIT ( ) NAMED_UNIT ( * ) SI_UNIT ( .MILLI., .METRE. ) );
#662 = CARTESIAN_POINT ( 'NONE',  ( 6141.405790318180152, 4129.483363415190070, 15.00000000000000000 ) ) ;
#663 = B_SPLINE_CURVE_WITH_KNOTS ( 'NONE', 3,
 ( #389, #468, #16, #793, #665, #318, #596, #168, #161, #452, #654, #250, #20, #810, #460, #733, #96, #383 ),
 .UNSPECIFIED., .F., .F.,
 ( 4, 2, 2, 2, 2, 2, 2, 2, 4 ),
 ( 0.000000000000000000, 0.1249999999999999722, 0.2499999999999999445, 0.3749999999999998890, 0.4999999999999998890, 0.6249999999999998890, 0.7499999999999998890, 0.8750000000000000000, 1.000000000000000000 ),
 .UNSPECIFIED. ) ;
#664 = DIRECTION ( 'NONE',  ( 1.050419507188586022E-15, 3.329723832152979790E-15, -1.000000000000000000 ) ) ;
#665 = CARTESIAN_POINT ( 'NONE',  ( 5807.994061009211691, 3624.433246981612683, 0.9193301173812263860 ) ) ;
#666 = CARTESIAN_POINT ( 'NONE',  ( 5808.818433821589679, 3627.109083897174969, 17.60723011798424764 ) ) ;
#667 = AXIS2_PLACEMENT_3D ( 'NONE', #90, #24, #372 ) ;
#668 = FACE_OUTER_BOUND ( 'NONE', #259, .T. ) ;
#669 = CC_DESIGN_APPROVAL ( #34, ( #54 ) ) ;
#670 = ADVANCED_FACE ( 'NONE', ( #807 ), #874, .F. ) ;
#671 = CYLINDRICAL_SURFACE ( 'NONE', #332, 634.3592539959672649 ) ;
#672 = EDGE_CURVE ( 'NONE', #150, #126, #581, .T. ) ;
#673 = CYLINDRICAL_SURFACE ( 'NONE', #195, 72.08627886317842126 ) ;
#674 = ORIENTED_EDGE ( 'NONE', *, *, #420, .T. ) ;
#675 = CARTESIAN_POINT ( 'NONE',  ( 5808.816318391460300, 3627.109751246534870, 125.0000000000000000 ) ) ;
#676 = DIRECTION ( 'NONE',  ( -0.3008521040919529543, -0.9536708087508207754, 0.000000000000000000 ) ) ;
#677 = PERSON_AND_ORGANIZATION ( #79, #873 ) ;
#678 = CARTESIAN_POINT ( 'NONE',  ( 6357.690353486990716, 3450.166494749720187, 15.00000000000000000 ) ) ;
#679 = VERTEX_POINT ( 'NONE', #379 ) ;
#680 = APPROVAL_DATE_TIME ( #751, #610 ) ;
#681 = VERTEX_POINT ( 'NONE', #463 ) ;
#682 = DIRECTION ( 'NONE',  ( 0.000000000000000000, 1.000000000000000000, 3.329723832152979790E-15 ) ) ;
#683 = ORIENTED_EDGE ( 'NONE', *, *, #545, .F. ) ;
#684 = CIRCLE ( 'NONE', #504, 30.00000000000024869 ) ;
#685 = AXIS2_PLACEMENT_3D ( 'NONE', #515, #719, #164 ) ;
#686 = ORIENTED_EDGE ( 'NONE', *, *, #220, .F. ) ;
#687 = LOCAL_TIME ( 15, 3, 35.00000000000000000, #69 ) ;
#688 = DIRECTION ( 'NONE',  ( 0.000000000000000000, 0.000000000000000000, 1.000000000000000000 ) ) ;
#689 = ORIENTED_EDGE ( 'NONE', *, *, #573, .F. ) ;
#690 = CARTESIAN_POINT ( 'NONE',  ( 1561.922828014314973, 4951.137739571060592, 17.99999999999970157 ) ) ;
#691 = DIRECTION ( 'NONE',  ( -0.9996894970330497676, -0.02491805614023844678, 0.000000000000000000 ) ) ;
#692 = ADVANCED_BREP_SHAPE_REPRESENTATION ( 'SPACER(Varsay_lan)_\X2\9ed88ba4\X0\_sldprt', ( #139, #495 ), #554 ) ;
#693 = ORIENTED_EDGE ( 'NONE', *, *, #7, .F. ) ;
#694 = COORDINATED_UNIVERSAL_TIME_OFFSET ( 8, 0, .AHEAD. ) ;
#695 = DIRECTION ( 'NONE',  ( 1.000000000000000000, 0.000000000000000000, 0.000000000000000000 ) ) ;
#696 = EDGE_CURVE ( 'NONE', #294, #512, #303, .T. ) ;
#697 = EDGE_LOOP ( 'NONE', ( #8, #340, #637, #564 ) ) ;
#698 = CARTESIAN_POINT ( 'NONE',  ( 5805.362896592019752, 3616.125894051025170, 6.845977032451160404 ) ) ;
#699 = LINE ( 'NONE', #209, #46 ) ;
#700 = DIRECTION ( 'NONE',  ( 0.3008521040918674672, 0.9536708087508478648, 0.000000000000000000 ) ) ;
#701 = ORIENTED_EDGE ( 'NONE', *, *, #73, .F. ) ;
#702 = AXIS2_PLACEMENT_3D ( 'NONE', #315, #465, #695 ) ;
#703 = CYLINDRICAL_SURFACE ( 'NONE', #856, 2.999999999997250644 ) ;
#704 = APPROVAL_ROLE ( '' ) ;
#705 = FACE_OUTER_BOUND ( 'NONE', #249, .T. ) ;
#706 = LINE ( 'NONE', #494, #538 ) ;
#707 = EDGE_CURVE ( 'NONE', #760, #822, #513, .T. ) ;
#708 = CYLINDRICAL_SURFACE ( 'NONE', #591, 30.00000000000024869 ) ;
#709 = ORIENTED_EDGE ( 'NONE', *, *, #272, .F. ) ;
#710 = CARTESIAN_POINT ( 'NONE',  ( 6011.135944842029858, 3574.294581845770153, 15.00000000000000000 ) ) ;
#711 = ORIENTED_EDGE ( 'NONE', *, *, #746, .T. ) ;
#712 = AXIS2_PLACEMENT_3D ( 'NONE', #547, #607, #743 ) ;
#713 = SECURITY_CLASSIFICATION_LEVEL ( 'unclassified' ) ;
#714 = AXIS2_PLACEMENT_3D ( 'NONE', #422, #533, #832 ) ;
#715 = CARTESIAN_POINT ( 'NONE',  ( 5804.303536830079793, 3612.804689115275323, 125.0000000000000000 ) ) ;
#716 = CARTESIAN_POINT ( 'NONE',  ( 6141.405790318180152, 4129.483363415190070, 15.00000000000000000 ) ) ;
#717 = ORIENTED_EDGE ( 'NONE', *, *, #605, .T. ) ;
#718 = DESIGN_CONTEXT ( 'detailed design', #400, 'design' ) ;
#719 = DIRECTION ( 'NONE',  ( 0.000000000000000000, 0.000000000000000000, 1.000000000000000000 ) ) ;
#720 = CARTESIAN_POINT ( 'NONE',  ( 5808.816318391460300, 3627.109751246534870, 18.00000000000000000 ) ) ;
#721 = FACE_OUTER_BOUND ( 'NONE', #256, .T. ) ;
#722 = CARTESIAN_POINT ( 'NONE',  ( 5808.816318391460300, 3627.109751246534870, 18.00000000000000000 ) ) ;
#723 = CARTESIAN_POINT ( 'NONE',  ( 6141.405790318180152, 3840.059521210640014, 15.00000000000000000 ) ) ;
#724 = LINE ( 'NONE', #854, #728 ) ;
#725 = ORIENTED_EDGE ( 'NONE', *, *, #737, .F. ) ;
#726 = CIRCLE ( 'NONE', #454, 30.00000000000024869 ) ;
#727 = PRODUCT ( 'SPACER(Varsay_lan)_\X2\9ed88ba4\X0\_sldprt', 'SPACER(Varsay_lan)_\X2\9ed88ba4\X0\_sldprt', '', ( #29 ) ) ;
#728 = VECTOR ( 'NONE', #18, 1000.000000000000000 ) ;
#729 = LINE ( 'NONE', #675, #592 ) ;
#730 = DIRECTION ( 'NONE',  ( -0.9536708087508350973, 0.3008521040919080458, 2.429184967052800329E-15 ) ) ;
#731 = DIRECTION ( 'NONE',  ( -0.9536708087508350973, 0.3008521040919075462, 0.000000000000000000 ) ) ;
#732 = ADVANCED_FACE ( 'NONE', ( #721 ), #37, .F. ) ;
#733 = CARTESIAN_POINT ( 'NONE',  ( 5804.340559622716682, 3612.914675911347786, 15.64383464058226281 ) ) ;
#734 = CARTESIAN_POINT ( 'NONE',  ( 5809.744255289449029, 3629.962756923975121, 15.00000000000254907 ) ) ;
#735 = DIRECTION ( 'NONE',  ( -1.000000000000000000, 0.000000000000000000, 0.000000000000000000 ) ) ;
#736 = DIRECTION ( 'NONE',  ( 0.9536708087508446452, -0.3008521040918774037, 0.000000000000000000 ) ) ;
#737 = EDGE_CURVE ( 'NONE', #765, #267, #663, .T. ) ;
#738 = DIRECTION ( 'NONE',  ( -0.9536708087508350973, 0.3008521040919075462, 0.000000000000000000 ) ) ;
#739 = CARTESIAN_POINT ( 'NONE',  ( 5809.281250604489287, 3628.524565679309489, 15.37864083493835032 ) ) ;
#740 = CARTESIAN_POINT ( 'NONE',  ( 5804.303536830079793, 3612.804689115275323, 125.0000000000000000 ) ) ;
#741 = CARTESIAN_POINT ( 'NONE',  ( 5919.373424222510948, 3824.932944611365201, 15.00000000000000000 ) ) ;
#742 = ORIENTED_EDGE ( 'NONE', *, *, #354, .F. ) ;
#743 = DIRECTION ( 'NONE',  ( -0.9536708087508350973, 0.3008521040919075462, 0.000000000000000000 ) ) ;
#744 = ORIENTED_EDGE ( 'NONE', *, *, #640, .T. ) ;
#745 = AXIS2_PLACEMENT_3D ( 'NONE', #61, #626, #906 ) ;
#746 = EDGE_CURVE ( 'NONE', #290, #609, #178, .T. ) ;
#747 = CARTESIAN_POINT ( 'NONE',  ( 6026.067744137100817, 3840.059521210640014, 15.00000000000000000 ) ) ;
#748 = CARTESIAN_POINT ( 'NONE',  ( 0.000000000000000000, 0.000000000000000000, 0.000000000000000000 ) ) ;
#749 = DIRECTION ( 'NONE',  ( 0.000000000000000000, 0.000000000000000000, 1.000000000000000000 ) ) ;
#750 = EDGE_LOOP ( 'NONE', ( #297, #234, #57, #711 ) ) ;
#751 = DATE_AND_TIME ( #40, #213 ) ;
#752 = ORIENTED_EDGE ( 'NONE', *, *, #218, .F. ) ;
#753 = DIRECTION ( 'NONE',  ( 1.000000000000000000, 0.000000000000000000, 0.000000000000000000 ) ) ;
#754 = APPROVAL_ROLE ( '' ) ;
#755 = EDGE_LOOP ( 'NONE', ( #762, #437, #479, #475 ) ) ;
#756 = CIRCLE ( 'NONE', #865, 115.3380461810833424 ) ;
#757 = FACE_OUTER_BOUND ( 'NONE', #107, .T. ) ;
#758 = ORIENTED_EDGE ( 'NONE', *, *, #806, .T. ) ;
#759 = VECTOR ( 'NONE', #162, 1000.000000000000000 ) ;
#760 = VERTEX_POINT ( 'NONE', #104 ) ;
#761 = DIRECTION ( 'NONE',  ( 0.9536708087508378728, -0.3008521040918989420, 0.000000000000000000 ) ) ;
#762 = ORIENTED_EDGE ( 'NONE', *, *, #430, .T. ) ;
#763 = EDGE_CURVE ( 'NONE', #502, #765, #588, .T. ) ;
#764 = CARTESIAN_POINT ( 'NONE',  ( 5831.710038369579706, 3899.886234583660098, 15.00000000000000000 ) ) ;
#765 = VERTEX_POINT ( 'NONE', #519 ) ;
#766 = DIRECTION ( 'NONE',  ( 1.000000000000000000, 0.000000000000000000, 0.000000000000000000 ) ) ;
#767 = DIRECTION ( 'NONE',  ( 1.000000000000000000, 0.000000000000000000, 0.000000000000000000 ) ) ;
#768 = EDGE_CURVE ( 'NONE', #645, #486, #17, .T. ) ;
#769 = ORIENTED_EDGE ( 'NONE', *, *, #414, .F. ) ;
#770 = PERSON_AND_ORGANIZATION ( #79, #873 ) ;
#771 = FACE_OUTER_BOUND ( 'NONE', #3, .T. ) ;
#772 = CARTESIAN_POINT ( 'NONE',  ( 5809.281250604489287, 3628.524565679309035, 15.37864083493851552 ) ) ;
#773 = ADVANCED_FACE ( 'NONE', ( #91 ), #802, .F. ) ;
#774 = CARTESIAN_POINT ( 'NONE',  ( 5807.008528155920430, 3621.320264874630084, 2.271845009619239963 ) ) ;
#775 = LINE ( 'NONE', #347, #108 ) ;
#776 = ORIENTED_EDGE ( 'NONE', *, *, #605, .F. ) ;
#777 = DIRECTION ( 'NONE',  ( 1.000000000000000000, 0.000000000000000000, 0.000000000000000000 ) ) ;
#778 = ORIENTED_EDGE ( 'NONE', *, *, #768, .F. ) ;
#779 = CARTESIAN_POINT ( 'NONE',  ( 5806.985800931429367, 3621.248221866585027, 2.140777051366045125 ) ) ;
#780 = PERSON_AND_ORGANIZATION_ROLE ( 'design_supplier' ) ;
#781 = CARTESIAN_POINT ( 'NONE',  ( 5808.816318391460300, 3627.109751246534870, 18.00000000000000000 ) ) ;
#782 = DIRECTION ( 'NONE',  ( 0.000000000000000000, -8.074349270001140771E-15, 1.000000000000000000 ) ) ;
#783 = ORIENTED_EDGE ( 'NONE', *, *, #424, .T. ) ;
#784 = AXIS2_PLACEMENT_3D ( 'NONE', #600, #882, #255 ) ;
#785 = VECTOR ( 'NONE', #657, 1000.000000000000000 ) ;
#786 = PRODUCT_DEFINITION_FORMATION_WITH_SPECIFIED_SOURCE ( '任何', '', #727, .NOT_KNOWN. ) ;
#787 = ORIENTED_EDGE ( 'NONE', *, *, #272, .T. ) ;
#788 = CARTESIAN_POINT ( 'NONE',  ( 5808.844039614039502, 3627.182881283873485, 17.21475634692232504 ) ) ;
#789 = DIRECTION ( 'NONE',  ( 0.000000000000000000, 0.000000000000000000, 1.000000000000000000 ) ) ;
#790 = CARTESIAN_POINT ( 'NONE',  ( 6006.806325292919610, 3560.858986546465076, 0.000000000000000000 ) ) ;
#791 = EDGE_LOOP ( 'NONE', ( #742, #128 ) ) ;
#792 = DIRECTION ( 'NONE',  ( 0.3008521040919079348, 0.9536708087508349863, 3.491481338843135327E-15 ) ) ;
#793 = CARTESIAN_POINT ( 'NONE',  ( 5808.335922478603607, 3625.513227479633315, 0.5757003236524236289 ) ) ;
#794 = CARTESIAN_POINT ( 'NONE',  ( 5808.816318391460300, 3627.109751246534870, 18.00000000000000000 ) ) ;
#795 = ORIENTED_EDGE ( 'NONE', *, *, #83, .T. ) ;
#796 = ADVANCED_FACE ( 'NONE', ( #258 ), #536, .T. ) ;
#797 = ORIENTED_EDGE ( 'NONE', *, *, #746, .F. ) ;
#798 = CIRCLE ( 'NONE', #579, 72.08627886317842126 ) ;
#799 = CIRCLE ( 'NONE', #702, 30.00000000000024869 ) ;
#800 = DIRECTION ( 'NONE',  ( -1.000000000000000000, 0.000000000000000000, 0.000000000000000000 ) ) ;
#801 = CARTESIAN_POINT ( 'NONE',  ( 6116.344094594010130, 3768.274805253469822, 15.00000000000000000 ) ) ;
#802 = PLANE ( 'NONE',  #122 ) ;
#803 = FACE_OUTER_BOUND ( 'NONE', #203, .T. ) ;
#804 = CC_DESIGN_DATE_AND_TIME_ASSIGNMENT ( #523, #49, ( #507 ) ) ;
#805 = LINE ( 'NONE', #110, #409 ) ;
#806 = EDGE_CURVE ( 'NONE', #381, #150, #84, .T. ) ;
#807 = FACE_OUTER_BOUND ( 'NONE', #755, .T. ) ;
#808 = DIRECTION ( 'NONE',  ( 1.000000000000000000, 0.000000000000000000, 0.000000000000000000 ) ) ;
#809 = PLANE ( 'NONE',  #784 ) ;
#810 = CARTESIAN_POINT ( 'NONE',  ( 5804.585406852272172, 3613.679759339157954, 12.20011814947764961 ) ) ;
#811 = ADVANCED_FACE ( 'NONE', ( #455 ), #97, .F. ) ;
#812 = DIRECTION ( 'NONE',  ( 0.000000000000000000, 0.000000000000000000, 1.000000000000000000 ) ) ;
#813 = FACE_BOUND ( 'NONE', #449, .T. ) ;
#814 = ORIENTED_EDGE ( 'NONE', *, *, #450, .T. ) ;
#815 = VECTOR ( 'NONE', #879, 1000.000000000000000 ) ;
#816 = CARTESIAN_POINT ( 'NONE',  ( 5804.303536830079793, 3612.804689115275323, 125.0000000000000000 ) ) ;
#817 = ORIENTED_EDGE ( 'NONE', *, *, #584, .F. ) ;
#818 = LINE ( 'NONE', #222, #198 ) ;
#819 = EDGE_LOOP ( 'NONE', ( #744, #686, #215, #474 ) ) ;
#820 = ADVANCED_FACE ( 'NONE', ( #668 ), #308, .F. ) ;
#821 = CARTESIAN_POINT ( 'NONE',  ( 6026.067744137100817, 3840.059521210640014, 15.00000000000000000 ) ) ;
#822 = VERTEX_POINT ( 'NONE', #542 ) ;
#823 = EDGE_CURVE ( 'NONE', #535, #56, #818, .T. ) ;
#824 = VERTEX_POINT ( 'NONE', #569 ) ;
#825 = CARTESIAN_POINT ( 'NONE',  ( 6011.053066403250341, 3574.320727296024870, 0.000000000000000000 ) ) ;
#826 = VECTOR ( 'NONE', #472, 1000.000000000000000 ) ;
#827 = AXIS2_PLACEMENT_3D ( 'NONE', #866, #169, #808 ) ;
#828 = CIRCLE ( 'NONE', #411, 576.6902309054255511 ) ;
#829 = ADVANCED_FACE ( 'NONE', ( #705 ), #288, .F. ) ;
#830 = CARTESIAN_POINT ( 'NONE',  ( 6008.796675622559633, 3567.168196230389640, 15.00000000000254907 ) ) ;
#831 = ADVANCED_FACE ( 'NONE', ( #68 ), #842, .F. ) ;
#832 = DIRECTION ( 'NONE',  ( 1.000000000000000000, 0.000000000000000000, 0.000000000000000000 ) ) ;
#833 = VERTEX_POINT ( 'NONE', #484 ) ;
#834 = ORIENTED_EDGE ( 'NONE', *, *, #26, .T. ) ;
#835 = CARTESIAN_POINT ( 'NONE',  ( 5804.303536830079793, 3612.804689115275323, 17.99999999999970157 ) ) ;
#836 = DIRECTION ( 'NONE',  ( 8.074349270001140771E-15, 4.037174635000570385E-15, -1.000000000000000000 ) ) ;
#837 = EDGE_CURVE ( 'NONE', #512, #568, #30, .T. ) ;
#838 = CARTESIAN_POINT ( 'NONE',  ( 5809.744255289449029, 3629.962756923995130, 2.563921297493720078E-12 ) ) ;
#839 = DIRECTION ( 'NONE',  ( 0.000000000000000000, 0.000000000000000000, -1.000000000000000000 ) ) ;
#840 = ADVANCED_FACE ( 'NONE', ( #543 ), #125, .T. ) ;
#841 = CIRCLE ( 'NONE', #120, 30.00000000000024869 ) ;
#842 = B_SPLINE_SURFACE_WITH_KNOTS ( 'NONE', 1, 3, ( 
 ( #425, #845, #848, #779, #204, #698, #66, #144, #345, #565 ),
 ( #838, #208, #438, #774, #623, #903, #431, #278, #559, #835 ),
 ( #734, #319, #367, #739, #312, #231, #156, #103, #666, #722 ),
 ( #251, #399, #186, #404, #38, #190, #330, #275, #263, #123 ) ),
 .UNSPECIFIED., .F., .F., .F.,
 ( 2, 1, 1, 2 ),
 ( 4, 2, 2, 2, 4 ),
 ( -0.01000000000000000021, 0.000000000000000000, 1.000000000000000000, 1.010099999999999998 ),
 ( 0.000000000000000000, 0.2500000000000000000, 0.5000000000000000000, 0.7500000000000000000, 1.000000000000000000 ),
 .UNSPECIFIED. ) ;
#843 = AXIS2_PLACEMENT_3D ( 'NONE', #113, #99, #321 ) ;
#844 = ORIENTED_EDGE ( 'NONE', *, *, #493, .T. ) ;
#845 = CARTESIAN_POINT ( 'NONE',  ( 5809.027237700459409, 3627.697256575910160, -0.1499999999999700184 ) ) ;
#846 = DIRECTION ( 'NONE',  ( -0.3008521040917515044, -0.9536708087508845022, -5.782411586594656023E-15 ) ) ;
#847 = ORIENTED_EDGE ( 'NONE', *, *, #80, .T. ) ;
#848 = CARTESIAN_POINT ( 'NONE',  ( 5808.310759850050090, 3625.433464486455250, 0.3223959184683330426 ) ) ;
#849 = APPLICATION_PROTOCOL_DEFINITION ( 'international standard', 'config_control_design', 1994, #400 ) ;
#850 = ORIENTED_EDGE ( 'NONE', *, *, #196, .F. ) ;
#851 = CARTESIAN_POINT ( 'NONE',  ( 5947.012271745119506, 3902.760234493510325, 15.00000000000000000 ) ) ;
#852 = VERTEX_POINT ( 'NONE', #55 ) ;
#853 = EDGE_CURVE ( 'NONE', #502, #446, #368, .T. ) ;
#854 = CARTESIAN_POINT ( 'NONE',  ( 6011.152785902670075, 3826.721043206979630, -113.1370849898482049 ) ) ;
#855 = VERTEX_POINT ( 'NONE', #229 ) ;
#856 = AXIS2_PLACEMENT_3D ( 'NONE', #216, #72, #846 ) ;
#857 = VECTOR ( 'NONE', #158, 1000.000000000000000 ) ;
#858 = AXIS2_PLACEMENT_3D ( 'NONE', #351, #691, #627 ) ;
#859 = DIRECTION ( 'NONE',  ( 0.000000000000000000, 1.000000000000000000, 0.000000000000000000 ) ) ;
#860 = ORIENTED_EDGE ( 'NONE', *, *, #105, .F. ) ;
#861 = FACE_OUTER_BOUND ( 'NONE', #620, .T. ) ;
#862 = DIRECTION ( 'NONE',  ( -1.000000000000000000, 0.000000000000000000, 0.000000000000000000 ) ) ;
#863 = EDGE_CURVE ( 'NONE', #386, #502, #828, .T. ) ;
#864 = FACE_OUTER_BOUND ( 'NONE', #750, .T. ) ;
#865 = AXIS2_PLACEMENT_3D ( 'NONE', #341, #618, #893 ) ;
#866 = CARTESIAN_POINT ( 'NONE',  ( 6041.324311648510047, 4101.721043206979630, -113.1370849898482049 ) ) ;
#867 = CYLINDRICAL_SURFACE ( 'NONE', #441, 72.08627886317754019 ) ;
#868 = CC_DESIGN_PERSON_AND_ORGANIZATION_ASSIGNMENT ( #219, #780, ( #786 ) ) ;
#869 = LINE ( 'NONE', #790, #857 ) ;
#870 = VECTOR ( 'NONE', #792, 1000.000000000000227 ) ;
#871 = CIRCLE ( 'NONE', #843, 72.08627886317754019 ) ;
#872 = DIRECTION ( 'NONE',  ( 1.000000000000000000, 0.000000000000000000, 0.000000000000000000 ) ) ;
#873 = ORGANIZATION ( '未指定', '未指定', '' ) ;
#874 = CYLINDRICAL_SURFACE ( 'NONE', #63, 30.00000000000024869 ) ;
#875 = DIRECTION ( 'NONE',  ( 0.9536708087508350973, -0.3008521040919080458, 6.485678714932301084E-15 ) ) ;
#876 = FACE_OUTER_BOUND ( 'NONE', #631, .T. ) ;
#877 = ADVANCED_FACE ( 'NONE', ( #648 ), #867, .T. ) ;
#878 = DIRECTION ( 'NONE',  ( -0.3008521040918674672, -0.9536708087508478648, -6.360652745249270604E-15 ) ) ;
#879 = DIRECTION ( 'NONE',  ( 0.02491805614023844331, -0.9996894970330497676, 0.000000000000000000 ) ) ;
#880 = CARTESIAN_POINT ( 'NONE',  ( 5947.012271745119506, 3902.760234493510325, 15.00000000000000000 ) ) ;
#881 = EDGE_CURVE ( 'NONE', #645, #551, #92, .T. ) ;
#882 = DIRECTION ( 'NONE',  ( -0.3008521040918989420, -0.9536708087508378728, -6.659447664305979302E-15 ) ) ;
#883 = EDGE_LOOP ( 'NONE', ( #254, #262, #783, #644 ) ) ;
#884 = FACE_OUTER_BOUND ( 'NONE', #324, .T. ) ;
#885 = EDGE_LOOP ( 'NONE', ( #508, #50, #647, #582 ) ) ;
#886 = VECTOR ( 'NONE', #529, 1000.000000000000000 ) ;
#887 = VECTOR ( 'NONE', #660, 1000.000000000000000 ) ;
#888 = ORIENTED_EDGE ( 'NONE', *, *, #243, .F. ) ;
#889 = DIRECTION ( 'NONE',  ( 1.000000000000000000, 0.000000000000000000, 0.000000000000000000 ) ) ;
#890 = APPROVAL_DATE_TIME ( #608, #34 ) ;
#891 = VERTEX_POINT ( 'NONE', #740 ) ;
#892 = VERTEX_POINT ( 'NONE', #21 ) ;
#893 = DIRECTION ( 'NONE',  ( 1.000000000000000000, 0.000000000000000000, 0.000000000000000000 ) ) ;
#894 = ORIENTED_EDGE ( 'NONE', *, *, #142, .F. ) ;
#895 = PLANE ( 'NONE',  #427 ) ;
#896 = ORIENTED_EDGE ( 'NONE', *, *, #391, .T. ) ;
#897 = CARTESIAN_POINT ( 'NONE',  ( 6612.864022107190067, 3373.458867489274780, 15.00000000000000000 ) ) ;
#898 = CALENDAR_DATE ( 2026, 10, 4 ) ;
#899 = DIRECTION ( 'NONE',  ( 0.000000000000000000, 0.000000000000000000, 1.000000000000000000 ) ) ;
#900 = AXIS2_PLACEMENT_3D ( 'NONE', #157, #531, #245 ) ;
#901 = EDGE_LOOP ( 'NONE', ( #604, #415, #100, #653 ) ) ;
#902 = LOCAL_TIME ( 15, 3, 35.00000000000000000, #630 ) ;
#903 = CARTESIAN_POINT ( 'NONE',  ( 5805.398983809840502, 3616.240286889675190, 6.938159040447439807 ) ) ;
#904 = DIRECTION ( 'NONE',  ( 0.000000000000000000, 0.000000000000000000, 1.000000000000000000 ) ) ;
#905 = EDGE_CURVE ( 'NONE', #111, #765, #39, .T. ) ;
#906 = DIRECTION ( 'NONE',  ( 0.3008521040917515044, 0.9536708087508845022, 0.000000000000000000 ) ) ;
#907 = ORIENTED_EDGE ( 'NONE', *, *, #823, .F. ) ;
#908 = DIRECTION ( 'NONE',  ( 1.000000000000000000, 0.000000000000000000, 0.000000000000000000 ) ) ;
#909 = ORIENTED_EDGE ( 'NONE', *, *, #83, .F. ) ;
#910 = CARTESIAN_POINT ( 'NONE',  ( 6011.324311648510047, 4101.721043206979630, 15.00000000000000000 ) ) ;
#911 = VECTOR ( 'NONE', #567, 1000.000000000000000 ) ;
#912 = VECTOR ( 'NONE', #240, 1000.000000000000000 ) ;
#913 = ORIENTED_EDGE ( 'NONE', *, *, #696, .F. ) ;
ENDSEC;
END-ISO-10303-21;
