ISO-10303-21;
HEADER;
FILE_DESCRIPTION (( 'STEP AP203' ),
    '1' );
FILE_NAME ('HuaGan_默认_sldprt.STEP',
    '2026-04-07T14:39:23',
    ( '' ),
    ( '' ),
    'SwSTEP 2.0',
    'SolidWorks 2022',
    '' );
FILE_SCHEMA (( 'CONFIG_CONTROL_DESIGN' ));
ENDSEC;

DATA;
#1 = DATE_TIME_ROLE ( 'creation_date' ) ;
#2 = DATE_AND_TIME ( #111, #144 ) ;
#3 = AXIS2_PLACEMENT_3D ( 'NONE', #36, #91, #87 ) ;
#4 = LOCAL_TIME ( 22, 39, 23.00000000000000000, #14 ) ;
#5 = ORIENTED_EDGE ( 'NONE', *, *, #22, .F. ) ;
#6 = EDGE_CURVE ( 'NONE', #78, #67, #52, .T. ) ;
#7 = DIRECTION ( 'NONE',  ( 0.000000000000000000, 0.000000000000000000, 1.000000000000000000 ) ) ;
#8 = CC_DESIGN_SECURITY_CLASSIFICATION ( #49, ( #26 ) ) ;
#9 = APPLICATION_CONTEXT ( 'configuration controlled 3d designs of mechanical parts and assemblies' ) ;
#10 = FACE_OUTER_BOUND ( 'NONE', #63, .T. ) ;
#11 = PRODUCT_RELATED_PRODUCT_CATEGORY ( 'detail', '', ( #172 ) ) ;
#12 = ORIENTED_EDGE ( 'NONE', *, *, #6, .T. ) ;
#13 = ORIENTED_EDGE ( 'NONE', *, *, #6, .F. ) ;
#14 = COORDINATED_UNIVERSAL_TIME_OFFSET ( 8, 0, .AHEAD. ) ;
#15 = CLOSED_SHELL ( 'NONE', ( #85, #95, #58, #54 ) ) ;
#16 = PERSON_AND_ORGANIZATION_ROLE ( 'design_supplier' ) ;
#17 =( GEOMETRIC_REPRESENTATION_CONTEXT ( 3 ) GLOBAL_UNCERTAINTY_ASSIGNED_CONTEXT ( ( #68 ) ) GLOBAL_UNIT_ASSIGNED_CONTEXT ( ( #97, #31, #107 ) ) REPRESENTATION_CONTEXT ( 'NONE', 'WORKASPACE' ) );
#18 = PERSON_AND_ORGANIZATION ( #76, #77 ) ;
#19 = APPROVAL_ROLE ( '' ) ;
#20 = PERSON_AND_ORGANIZATION_ROLE ( 'creator' ) ;
#21 = APPROVAL ( #123, '未指定' ) ;
#22 = EDGE_CURVE ( 'NONE', #147, #78, #47, .T. ) ;
#23 = AXIS2_PLACEMENT_3D ( 'NONE', #28, #81, #89 ) ;
#24 = CARTESIAN_POINT ( 'NONE',  ( 0.000000000000000000, 0.000000000000000000, 600.0000000000000000 ) ) ;
#25 = FACE_OUTER_BOUND ( 'NONE', #168, .T. ) ;
#26 = PRODUCT_DEFINITION_FORMATION_WITH_SPECIFIED_SOURCE ( '任何', '', #172, .NOT_KNOWN. ) ;
#27 = DIRECTION ( 'NONE',  ( 1.000000000000000000, 0.000000000000000000, 0.000000000000000000 ) ) ;
#28 = CARTESIAN_POINT ( 'NONE',  ( 0.000000000000000000, 0.000000000000000000, 0.000000000000000000 ) ) ;
#29 = EDGE_LOOP ( 'NONE', ( #165, #114 ) ) ;
#30 = PERSON_AND_ORGANIZATION_ROLE ( 'creator' ) ;
#31 =( NAMED_UNIT ( * ) PLANE_ANGLE_UNIT ( ) SI_UNIT ( $, .RADIAN. ) );
#32 = PERSON_AND_ORGANIZATION ( #76, #77 ) ;
#33 = CC_DESIGN_PERSON_AND_ORGANIZATION_ASSIGNMENT ( #135, #16, ( #26 ) ) ;
#34 = AXIS2_PLACEMENT_3D ( 'NONE', #141, #156, #146 ) ;
#35 = DESIGN_CONTEXT ( 'detailed design', #9, 'design' ) ;
#36 = CARTESIAN_POINT ( 'NONE',  ( 0.000000000000000000, 0.000000000000000000, 0.000000000000000000 ) ) ;
#37 = ORIENTED_EDGE ( 'NONE', *, *, #41, .T. ) ;
#38 = CARTESIAN_POINT ( 'NONE',  ( 0.000000000000000000, 0.000000000000000000, 0.000000000000000000 ) ) ;
#39 = EDGE_LOOP ( 'NONE', ( #92, #117 ) ) ;
#40 = PERSON_AND_ORGANIZATION ( #76, #77 ) ;
#41 = EDGE_CURVE ( 'NONE', #67, #104, #98, .T. ) ;
#42 = DIRECTION ( 'NONE',  ( 1.000000000000000000, 0.000000000000000000, 0.000000000000000000 ) ) ;
#43 = CC_DESIGN_DATE_AND_TIME_ASSIGNMENT ( #83, #137, ( #49 ) ) ;
#44 = APPROVAL_STATUS ( 'not_yet_approved' ) ;
#45 = PERSON_AND_ORGANIZATION_ROLE ( 'design_owner' ) ;
#46 = APPLICATION_PROTOCOL_DEFINITION ( 'international standard', 'config_control_design', 1994, #9 ) ;
#47 = CIRCLE ( 'NONE', #106, 6.000000000000000000 ) ;
#48 = COORDINATED_UNIVERSAL_TIME_OFFSET ( 8, 0, .AHEAD. ) ;
#49 = SECURITY_CLASSIFICATION ( '', '', #71 ) ;
#50 = CC_DESIGN_PERSON_AND_ORGANIZATION_ASSIGNMENT ( #120, #59, ( #49 ) ) ;
#51 = CARTESIAN_POINT ( 'NONE',  ( 6.000000000000000000, 7.347880794884119736E-16, 600.0000000000000000 ) ) ;
#52 = LINE ( 'NONE', #51, #119 ) ;
#53 = PLANE ( 'NONE',  #3 ) ;
#54 = ADVANCED_FACE ( 'NONE', ( #102 ), #53, .F. ) ;
#55 = ORIENTED_EDGE ( 'NONE', *, *, #65, .F. ) ;
#56 = CC_DESIGN_PERSON_AND_ORGANIZATION_ASSIGNMENT ( #72, #30, ( #154 ) ) ;
#57 = DIRECTION ( 'NONE',  ( 1.000000000000000000, 0.000000000000000000, 0.000000000000000000 ) ) ;
#58 = ADVANCED_FACE ( 'NONE', ( #129 ), #169, .T. ) ;
#59 = PERSON_AND_ORGANIZATION_ROLE ( 'classification_officer' ) ;
#60 = PERSON_AND_ORGANIZATION ( #76, #77 ) ;
#61 = CALENDAR_DATE ( 2026, 7, 4 ) ;
#62 = AXIS2_PLACEMENT_3D ( 'NONE', #167, #103, #145 ) ;
#63 = EDGE_LOOP ( 'NONE', ( #13, #5, #128, #166 ) ) ;
#64 = CYLINDRICAL_SURFACE ( 'NONE', #62, 6.000000000000000000 ) ;
#65 = EDGE_CURVE ( 'NONE', #78, #147, #88, .T. ) ;
#66 = PRODUCT_DEFINITION_SHAPE ( 'NONE', 'NONE',  #154 ) ;
#67 = VERTEX_POINT ( 'NONE', #115 ) ;
#68 = UNCERTAINTY_MEASURE_WITH_UNIT (LENGTH_MEASURE( 1.000000000000000082E-05 ), #97, 'distance_accuracy_value', 'NONE');
#69 = CYLINDRICAL_SURFACE ( 'NONE', #163, 6.000000000000000000 ) ;
#70 = DATE_AND_TIME ( #159, #112 ) ;
#71 = SECURITY_CLASSIFICATION_LEVEL ( 'unclassified' ) ;
#72 = PERSON_AND_ORGANIZATION ( #76, #77 ) ;
#73 = EDGE_CURVE ( 'NONE', #104, #67, #110, .T. ) ;
#74 = MECHANICAL_CONTEXT ( 'NONE', #113, 'mechanical' ) ;
#75 = APPROVAL_DATE_TIME ( #2, #127 ) ;
#76 = PERSON ( '未指定', '未指定', '未指定', ('未指定'), ('未指定'), ('未指定') ) ;
#77 = ORGANIZATION ( '未指定', '未指定', '' ) ;
#78 = VERTEX_POINT ( 'NONE', #116 ) ;
#79 = DIRECTION ( 'NONE',  ( 0.000000000000000000, 0.000000000000000000, -1.000000000000000000 ) ) ;
#80 = CARTESIAN_POINT ( 'NONE',  ( -6.000000000000000000, 0.000000000000000000, 0.000000000000000000 ) ) ;
#81 = DIRECTION ( 'NONE',  ( 0.000000000000000000, 0.000000000000000000, 1.000000000000000000 ) ) ;
#82 = DATE_AND_TIME ( #133, #4 ) ;
#83 = DATE_AND_TIME ( #94, #158 ) ;
#84 = APPROVAL_DATE_TIME ( #70, #21 ) ;
#85 = ADVANCED_FACE ( 'NONE', ( #25 ), #69, .T. ) ;
#86 = AXIS2_PLACEMENT_3D ( 'NONE', #150, #161, #42 ) ;
#87 = DIRECTION ( 'NONE',  ( 1.000000000000000000, 0.000000000000000000, 0.000000000000000000 ) ) ;
#88 = CIRCLE ( 'NONE', #142, 6.000000000000000000 ) ;
#89 = DIRECTION ( 'NONE',  ( 1.000000000000000000, 0.000000000000000000, 0.000000000000000000 ) ) ;
#90 = DIRECTION ( 'NONE',  ( 0.000000000000000000, 0.000000000000000000, 1.000000000000000000 ) ) ;
#91 = DIRECTION ( 'NONE',  ( 0.000000000000000000, 0.000000000000000000, 1.000000000000000000 ) ) ;
#92 = ORIENTED_EDGE ( 'NONE', *, *, #22, .T. ) ;
#93 = DIRECTION ( 'NONE',  ( 0.000000000000000000, 0.000000000000000000, -1.000000000000000000 ) ) ;
#94 = CALENDAR_DATE ( 2026, 7, 4 ) ;
#95 = ADVANCED_FACE ( 'NONE', ( #10 ), #64, .T. ) ;
#96 = CARTESIAN_POINT ( 'NONE',  ( -6.000000000000000000, 0.000000000000000000, 600.0000000000000000 ) ) ;
#97 =( LENGTH_UNIT ( ) NAMED_UNIT ( * ) SI_UNIT ( .MILLI., .METRE. ) );
#98 = CIRCLE ( 'NONE', #157, 6.000000000000000000 ) ;
#99 = ADVANCED_BREP_SHAPE_REPRESENTATION ( 'HuaGan_\X2\9ed88ba4\X0\_sldprt', ( #162, #86 ), #17 ) ;
#100 = APPROVAL_PERSON_ORGANIZATION ( #32, #21, #19 ) ;
#101 = DIRECTION ( 'NONE',  ( 0.000000000000000000, 0.000000000000000000, 1.000000000000000000 ) ) ;
#102 = FACE_OUTER_BOUND ( 'NONE', #29, .T. ) ;
#103 = DIRECTION ( 'NONE',  ( 0.000000000000000000, 0.000000000000000000, -1.000000000000000000 ) ) ;
#104 = VERTEX_POINT ( 'NONE', #80 ) ;
#105 = APPROVAL_PERSON_ORGANIZATION ( #18, #127, #125 ) ;
#106 = AXIS2_PLACEMENT_3D ( 'NONE', #132, #90, #57 ) ;
#107 =( NAMED_UNIT ( * ) SI_UNIT ( $, .STERADIAN. ) SOLID_ANGLE_UNIT ( ) );
#108 = CC_DESIGN_APPROVAL ( #127, ( #49 ) ) ;
#109 = LINE ( 'NONE', #149, #136 ) ;
#110 = CIRCLE ( 'NONE', #23, 6.000000000000000000 ) ;
#111 = CALENDAR_DATE ( 2026, 7, 4 ) ;
#112 = LOCAL_TIME ( 22, 39, 23.00000000000000000, #121 ) ;
#113 = APPLICATION_CONTEXT ( 'configuration controlled 3d designs of mechanical parts and assemblies' ) ;
#114 = ORIENTED_EDGE ( 'NONE', *, *, #41, .F. ) ;
#115 = CARTESIAN_POINT ( 'NONE',  ( 6.000000000000000000, 7.347880794884119736E-16, 0.000000000000000000 ) ) ;
#116 = CARTESIAN_POINT ( 'NONE',  ( 6.000000000000000000, 7.347880794884119736E-16, 600.0000000000000000 ) ) ;
#117 = ORIENTED_EDGE ( 'NONE', *, *, #65, .T. ) ;
#118 = CARTESIAN_POINT ( 'NONE',  ( 0.000000000000000000, 0.000000000000000000, 600.0000000000000000 ) ) ;
#119 = VECTOR ( 'NONE', #79, 1000.000000000000000 ) ;
#120 = PERSON_AND_ORGANIZATION ( #76, #77 ) ;
#121 = COORDINATED_UNIVERSAL_TIME_OFFSET ( 8, 0, .AHEAD. ) ;
#122 = CC_DESIGN_APPROVAL ( #21, ( #26 ) ) ;
#123 = APPROVAL_STATUS ( 'not_yet_approved' ) ;
#124 = APPROVAL ( #44, '未指定' ) ;
#125 = APPROVAL_ROLE ( '' ) ;
#126 = EDGE_CURVE ( 'NONE', #147, #104, #109, .T. ) ;
#127 = APPROVAL ( #175, '未指定' ) ;
#128 = ORIENTED_EDGE ( 'NONE', *, *, #126, .T. ) ;
#129 = FACE_OUTER_BOUND ( 'NONE', #39, .T. ) ;
#130 = DIRECTION ( 'NONE',  ( -1.000000000000000000, 0.000000000000000000, 0.000000000000000000 ) ) ;
#131 = DIRECTION ( 'NONE',  ( 0.000000000000000000, 0.000000000000000000, -1.000000000000000000 ) ) ;
#132 = CARTESIAN_POINT ( 'NONE',  ( 0.000000000000000000, 0.000000000000000000, 600.0000000000000000 ) ) ;
#133 = CALENDAR_DATE ( 2026, 7, 4 ) ;
#134 = CC_DESIGN_PERSON_AND_ORGANIZATION_ASSIGNMENT ( #138, #45, ( #172 ) ) ;
#135 = PERSON_AND_ORGANIZATION ( #76, #77 ) ;
#136 = VECTOR ( 'NONE', #93, 1000.000000000000000 ) ;
#137 = DATE_TIME_ROLE ( 'classification_date' ) ;
#138 = PERSON_AND_ORGANIZATION ( #76, #77 ) ;
#139 = CC_DESIGN_APPROVAL ( #124, ( #154 ) ) ;
#140 = SHAPE_DEFINITION_REPRESENTATION ( #66, #99 ) ;
#141 = CARTESIAN_POINT ( 'NONE',  ( 0.000000000000000000, 0.000000000000000000, 600.0000000000000000 ) ) ;
#142 = AXIS2_PLACEMENT_3D ( 'NONE', #24, #7, #27 ) ;
#143 = ORIENTED_EDGE ( 'NONE', *, *, #126, .F. ) ;
#144 = LOCAL_TIME ( 22, 39, 23.00000000000000000, #48 ) ;
#145 = DIRECTION ( 'NONE',  ( -1.000000000000000000, 0.000000000000000000, 0.000000000000000000 ) ) ;
#146 = DIRECTION ( 'NONE',  ( 1.000000000000000000, 0.000000000000000000, 0.000000000000000000 ) ) ;
#147 = VERTEX_POINT ( 'NONE', #96 ) ;
#148 = DATE_AND_TIME ( #61, #173 ) ;
#149 = CARTESIAN_POINT ( 'NONE',  ( -6.000000000000000000, 0.000000000000000000, 600.0000000000000000 ) ) ;
#150 = CARTESIAN_POINT ( 'NONE',  ( 0.000000000000000000, 0.000000000000000000, 0.000000000000000000 ) ) ;
#151 = APPLICATION_PROTOCOL_DEFINITION ( 'international standard', 'config_control_design', 1994, #113 ) ;
#152 = APPROVAL_ROLE ( '' ) ;
#153 = APPROVAL_PERSON_ORGANIZATION ( #60, #124, #152 ) ;
#154 = PRODUCT_DEFINITION ( '未知', '', #26, #35 ) ;
#155 = DIRECTION ( 'NONE',  ( 1.000000000000000000, 0.000000000000000000, 0.000000000000000000 ) ) ;
#156 = DIRECTION ( 'NONE',  ( 0.000000000000000000, 0.000000000000000000, 1.000000000000000000 ) ) ;
#157 = AXIS2_PLACEMENT_3D ( 'NONE', #38, #101, #155 ) ;
#158 = LOCAL_TIME ( 22, 39, 23.00000000000000000, #160 ) ;
#159 = CALENDAR_DATE ( 2026, 7, 4 ) ;
#160 = COORDINATED_UNIVERSAL_TIME_OFFSET ( 8, 0, .AHEAD. ) ;
#161 = DIRECTION ( 'NONE',  ( 0.000000000000000000, 0.000000000000000000, 1.000000000000000000 ) ) ;
#162 = MANIFOLD_SOLID_BREP ( '输入1', #15 ) ;
#163 = AXIS2_PLACEMENT_3D ( 'NONE', #118, #131, #130 ) ;
#164 = CC_DESIGN_PERSON_AND_ORGANIZATION_ASSIGNMENT ( #40, #20, ( #26 ) ) ;
#165 = ORIENTED_EDGE ( 'NONE', *, *, #73, .F. ) ;
#166 = ORIENTED_EDGE ( 'NONE', *, *, #73, .T. ) ;
#167 = CARTESIAN_POINT ( 'NONE',  ( 0.000000000000000000, 0.000000000000000000, 600.0000000000000000 ) ) ;
#168 = EDGE_LOOP ( 'NONE', ( #55, #12, #37, #143 ) ) ;
#169 = PLANE ( 'NONE',  #34 ) ;
#170 = COORDINATED_UNIVERSAL_TIME_OFFSET ( 8, 0, .AHEAD. ) ;
#171 = CC_DESIGN_DATE_AND_TIME_ASSIGNMENT ( #82, #1, ( #154 ) ) ;
#172 = PRODUCT ( 'HuaGan_\X2\9ed88ba4\X0\_sldprt', 'HuaGan_\X2\9ed88ba4\X0\_sldprt', '', ( #74 ) ) ;
#173 = LOCAL_TIME ( 22, 39, 23.00000000000000000, #170 ) ;
#174 = APPROVAL_DATE_TIME ( #148, #124 ) ;
#175 = APPROVAL_STATUS ( 'not_yet_approved' ) ;
ENDSEC;
END-ISO-10303-21;
