ISO-10303-21;
HEADER;
FILE_DESCRIPTION (( 'STEP AP203' ),
    '1' );
FILE_NAME ('HuaTai_默认_sldprt.STEP',
    '2026-04-07T14:39:24',
    ( '' ),
    ( '' ),
    'SwSTEP 2.0',
    'SolidWorks 2022',
    '' );
FILE_SCHEMA (( 'CONFIG_CONTROL_DESIGN' ));
ENDSEC;

DATA;
#1 = EDGE_CURVE ( 'NONE', #306, #74, #85, .T. ) ;
#2 = CARTESIAN_POINT ( 'NONE',  ( -20.17182130584189892, -25.00000000000000000, 40.00000000000000000 ) ) ;
#3 = ORIENTED_EDGE ( 'NONE', *, *, #117, .T. ) ;
#4 = DIRECTION ( 'NONE',  ( 1.000000000000000000, 0.000000000000000000, 0.000000000000000000 ) ) ;
#5 = DIRECTION ( 'NONE',  ( 0.000000000000000000, 0.000000000000000000, 1.000000000000000000 ) ) ;
#6 = EDGE_LOOP ( 'NONE', ( #157, #86, #293, #456 ) ) ;
#7 = DIRECTION ( 'NONE',  ( -1.000000000000000000, 0.000000000000000000, 0.000000000000000000 ) ) ;
#8 = DIRECTION ( 'NONE',  ( 0.000000000000000000, 0.000000000000000000, -1.000000000000000000 ) ) ;
#9 = PERSON_AND_ORGANIZATION ( #167, #49 ) ;
#10 = DIRECTION ( 'NONE',  ( 3.469446951953615175E-16, -1.000000000000000000, 0.000000000000000000 ) ) ;
#11 = FACE_OUTER_BOUND ( 'NONE', #186, .T. ) ;
#12 = COORDINATED_UNIVERSAL_TIME_OFFSET ( 8, 0, .AHEAD. ) ;
#13 = CIRCLE ( 'NONE', #400, 4.999999999999997335 ) ;
#14 = CARTESIAN_POINT ( 'NONE',  ( 39.82817869415809753, -25.00000000000000000, 40.00000000000000000 ) ) ;
#15 = ORIENTED_EDGE ( 'NONE', *, *, #187, .F. ) ;
#16 = APPROVAL_ROLE ( '' ) ;
#17 = SECURITY_CLASSIFICATION ( '', '', #368 ) ;
#18 = CIRCLE ( 'NONE', #211, 4.999999999999997335 ) ;
#19 = DIRECTION ( 'NONE',  ( 1.000000000000000000, 0.000000000000000000, 0.000000000000000000 ) ) ;
#20 = PERSON_AND_ORGANIZATION_ROLE ( 'creator' ) ;
#21 = ADVANCED_FACE ( 'NONE', ( #89 ), #160, .F. ) ;
#22 = ORIENTED_EDGE ( 'NONE', *, *, #117, .F. ) ;
#23 = APPROVAL_STATUS ( 'not_yet_approved' ) ;
#24 = CARTESIAN_POINT ( 'NONE',  ( -20.17182130584189892, -25.00000000000000000, 40.00000000000000000 ) ) ;
#25 = CARTESIAN_POINT ( 'NONE',  ( 69.82817869415809753, 0.000000000000000000, 40.00000000000000000 ) ) ;
#26 = EDGE_CURVE ( 'NONE', #459, #394, #234, .T. ) ;
#27 = VECTOR ( 'NONE', #227, 1000.000000000000000 ) ;
#28 = AXIS2_PLACEMENT_3D ( 'NONE', #150, #427, #214 ) ;
#29 = FACE_OUTER_BOUND ( 'NONE', #375, .T. ) ;
#30 = DIRECTION ( 'NONE',  ( 1.000000000000000000, 0.000000000000000000, 0.000000000000000000 ) ) ;
#31 = EDGE_CURVE ( 'NONE', #102, #139, #246, .T. ) ;
#32 = FACE_OUTER_BOUND ( 'NONE', #403, .T. ) ;
#33 = ORIENTED_EDGE ( 'NONE', *, *, #77, .F. ) ;
#34 = CARTESIAN_POINT ( 'NONE',  ( 39.82817869415809753, -25.00000000000000000, 40.00000000000000000 ) ) ;
#35 = ORIENTED_EDGE ( 'NONE', *, *, #298, .T. ) ;
#36 = DIRECTION ( 'NONE',  ( 1.000000000000000000, 0.000000000000000000, 0.000000000000000000 ) ) ;
#37 = ORIENTED_EDGE ( 'NONE', *, *, #395, .T. ) ;
#38 = EDGE_CURVE ( 'NONE', #448, #74, #125, .T. ) ;
#39 = ORIENTED_EDGE ( 'NONE', *, *, #280, .T. ) ;
#40 = VECTOR ( 'NONE', #446, 1000.000000000000000 ) ;
#41 = FACE_BOUND ( 'NONE', #291, .T. ) ;
#42 = ORIENTED_EDGE ( 'NONE', *, *, #50, .T. ) ;
#43 = CYLINDRICAL_SURFACE ( 'NONE', #447, 5.000000000000000888 ) ;
#44 = DIRECTION ( 'NONE',  ( 0.000000000000000000, 0.000000000000000000, 1.000000000000000000 ) ) ;
#45 = VERTEX_POINT ( 'NONE', #237 ) ;
#46 = CC_DESIGN_SECURITY_CLASSIFICATION ( #17, ( #358 ) ) ;
#47 = ORIENTED_EDGE ( 'NONE', *, *, #404, .T. ) ;
#48 = APPROVAL_ROLE ( '' ) ;
#49 = ORGANIZATION ( '未指定', '未指定', '' ) ;
#50 = EDGE_CURVE ( 'NONE', #91, #394, #18, .T. ) ;
#51 = DIRECTION ( 'NONE',  ( -1.000000000000000000, 0.000000000000000000, 0.000000000000000000 ) ) ;
#52 = CALENDAR_DATE ( 2026, 7, 4 ) ;
#53 = LINE ( 'NONE', #408, #266 ) ;
#54 = AXIS2_PLACEMENT_3D ( 'NONE', #218, #63, #420 ) ;
#55 = DIRECTION ( 'NONE',  ( 1.000000000000000000, 0.000000000000000000, 0.000000000000000000 ) ) ;
#56 = COORDINATED_UNIVERSAL_TIME_OFFSET ( 8, 0, .AHEAD. ) ;
#57 = CC_DESIGN_PERSON_AND_ORGANIZATION_ASSIGNMENT ( #155, #20, ( #369 ) ) ;
#58 = LINE ( 'NONE', #325, #336 ) ;
#59 = PERSON_AND_ORGANIZATION ( #167, #49 ) ;
#60 = EDGE_LOOP ( 'NONE', ( #144, #97 ) ) ;
#61 = FACE_OUTER_BOUND ( 'NONE', #279, .T. ) ;
#62 = DIRECTION ( 'NONE',  ( 0.000000000000000000, 0.000000000000000000, 1.000000000000000000 ) ) ;
#63 = DIRECTION ( 'NONE',  ( 0.000000000000000000, 0.000000000000000000, -1.000000000000000000 ) ) ;
#64 = EDGE_CURVE ( 'NONE', #373, #448, #270, .T. ) ;
#65 = VECTOR ( 'NONE', #195, 1000.000000000000000 ) ;
#66 = CARTESIAN_POINT ( 'NONE',  ( -50.17182130584190247, 0.000000000000000000, 40.00000000000000000 ) ) ;
#67 = EDGE_LOOP ( 'NONE', ( #220, #397 ) ) ;
#68 = CIRCLE ( 'NONE', #213, 5.000000000000000888 ) ;
#69 = APPROVAL ( #158, '未指定' ) ;
#70 = PLANE ( 'NONE',  #147 ) ;
#71 = CARTESIAN_POINT ( 'NONE',  ( 9.828178694158099304, -15.00000000000000000, 40.00000000000000000 ) ) ;
#72 = CARTESIAN_POINT ( 'NONE',  ( 69.82817869415809753, -40.00000000000000000, 0.000000000000000000 ) ) ;
#73 = AXIS2_PLACEMENT_3D ( 'NONE', #175, #313, #451 ) ;
#74 = VERTEX_POINT ( 'NONE', #405 ) ;
#75 = APPLICATION_CONTEXT ( 'configuration controlled 3d designs of mechanical parts and assemblies' ) ;
#76 = LINE ( 'NONE', #223, #366 ) ;
#77 = EDGE_CURVE ( 'NONE', #354, #111, #58, .T. ) ;
#78 = VECTOR ( 'NONE', #205, 1000.000000000000000 ) ;
#79 = DIRECTION ( 'NONE',  ( 0.000000000000000000, 0.000000000000000000, 1.000000000000000000 ) ) ;
#80 = CARTESIAN_POINT ( 'NONE',  ( 39.82817869415809753, -25.00000000000000000, 0.000000000000000000 ) ) ;
#81 = ORIENTED_EDGE ( 'NONE', *, *, #222, .T. ) ;
#82 = DIRECTION ( 'NONE',  ( 0.000000000000000000, 0.000000000000000000, 1.000000000000000000 ) ) ;
#83 = ADVANCED_BREP_SHAPE_REPRESENTATION ( 'HuaTai_\X2\9ed88ba4\X0\_sldprt', ( #359, #361 ), #409 ) ;
#84 = EDGE_CURVE ( 'NONE', #391, #448, #53, .T. ) ;
#85 = LINE ( 'NONE', #164, #399 ) ;
#86 = ORIENTED_EDGE ( 'NONE', *, *, #31, .T. ) ;
#87 = CLOSED_SHELL ( 'NONE', ( #435, #247, #21, #135, #383, #137, #453, #248, #263, #312, #199, #207 ) ) ;
#88 = CC_DESIGN_DATE_AND_TIME_ASSIGNMENT ( #406, #92, ( #17 ) ) ;
#89 = FACE_OUTER_BOUND ( 'NONE', #260, .T. ) ;
#90 = APPLICATION_PROTOCOL_DEFINITION ( 'international standard', 'config_control_design', 1994, #75 ) ;
#91 = VERTEX_POINT ( 'NONE', #300 ) ;
#92 = DATE_TIME_ROLE ( 'classification_date' ) ;
#93 = AXIS2_PLACEMENT_3D ( 'NONE', #146, #261, #188 ) ;
#94 = DIRECTION ( 'NONE',  ( -1.000000000000000000, 0.000000000000000000, 0.000000000000000000 ) ) ;
#95 = APPROVAL_PERSON_ORGANIZATION ( #204, #334, #16 ) ;
#96 = CARTESIAN_POINT ( 'NONE',  ( -50.17182130584190247, 0.000000000000000000, 40.00000000000000000 ) ) ;
#97 = ORIENTED_EDGE ( 'NONE', *, *, #415, .T. ) ;
#98 = LINE ( 'NONE', #25, #124 ) ;
#99 = DIRECTION ( 'NONE',  ( -1.000000000000000000, 0.000000000000000000, 0.000000000000000000 ) ) ;
#100 = APPLICATION_CONTEXT ( 'configuration controlled 3d designs of mechanical parts and assemblies' ) ;
#101 = APPROVAL ( #23, '未指定' ) ;
#102 = VERTEX_POINT ( 'NONE', #429 ) ;
#103 = LOCAL_TIME ( 22, 39, 24.00000000000000000, #12 ) ;
#104 = CARTESIAN_POINT ( 'NONE',  ( 34.82817869415809753, -25.00000000000000000, 40.00000000000000000 ) ) ;
#105 =( LENGTH_UNIT ( ) NAMED_UNIT ( * ) SI_UNIT ( .MILLI., .METRE. ) );
#106 = CIRCLE ( 'NONE', #133, 5.000000000000000888 ) ;
#107 = VERTEX_POINT ( 'NONE', #438 ) ;
#108 = CARTESIAN_POINT ( 'NONE',  ( -15.17182130584189892, -25.00000000000000000, 40.00000000000000000 ) ) ;
#109 = DIRECTION ( 'NONE',  ( 1.000000000000000000, 0.000000000000000000, 0.000000000000000000 ) ) ;
#110 = CIRCLE ( 'NONE', #330, 5.000000000000000888 ) ;
#111 = VERTEX_POINT ( 'NONE', #163 ) ;
#112 = DESIGN_CONTEXT ( 'detailed design', #75, 'design' ) ;
#113 = ORIENTED_EDGE ( 'NONE', *, *, #269, .T. ) ;
#114 = ORIENTED_EDGE ( 'NONE', *, *, #64, .T. ) ;
#115 = DIRECTION ( 'NONE',  ( 1.000000000000000000, 0.000000000000000000, 0.000000000000000000 ) ) ;
#116 = CARTESIAN_POINT ( 'NONE',  ( 9.828178694158099304, -15.00000000000000000, 0.000000000000000000 ) ) ;
#117 = EDGE_CURVE ( 'NONE', #107, #391, #304, .T. ) ;
#118 = DIRECTION ( 'NONE',  ( 0.000000000000000000, 0.000000000000000000, -1.000000000000000000 ) ) ;
#119 = ORIENTED_EDGE ( 'NONE', *, *, #168, .F. ) ;
#120 = APPROVAL_DATE_TIME ( #165, #69 ) ;
#121 = APPROVAL_PERSON_ORGANIZATION ( #235, #69, #307 ) ;
#122 = FACE_BOUND ( 'NONE', #67, .T. ) ;
#123 = DIRECTION ( 'NONE',  ( 0.000000000000000000, 0.000000000000000000, 1.000000000000000000 ) ) ;
#124 = VECTOR ( 'NONE', #377, 1000.000000000000000 ) ;
#125 = LINE ( 'NONE', #296, #78 ) ;
#126 = CALENDAR_DATE ( 2026, 7, 4 ) ;
#127 = CARTESIAN_POINT ( 'NONE',  ( 39.82817869415809753, -25.00000000000000000, 0.000000000000000000 ) ) ;
#128 = SHAPE_DEFINITION_REPRESENTATION ( #202, #83 ) ;
#129 = PLANE ( 'NONE',  #425 ) ;
#130 = CARTESIAN_POINT ( 'NONE',  ( 9.828178694158099304, -15.00000000000000000, 40.00000000000000000 ) ) ;
#131 = DIRECTION ( 'NONE',  ( 1.000000000000000000, 0.000000000000000000, 0.000000000000000000 ) ) ;
#132 = EDGE_LOOP ( 'NONE', ( #185, #454, #410, #337 ) ) ;
#133 = AXIS2_PLACEMENT_3D ( 'NONE', #225, #82, #115 ) ;
#134 = CARTESIAN_POINT ( 'NONE',  ( 0.000000000000000000, 0.000000000000000000, 40.00000000000000000 ) ) ;
#135 = ADVANCED_FACE ( 'NONE', ( #262, #11, #122, #264 ), #142, .T. ) ;
#136 = CARTESIAN_POINT ( 'NONE',  ( -50.17182130584190247, -40.00000000000000000, 40.00000000000000000 ) ) ;
#137 = ADVANCED_FACE ( 'NONE', ( #281 ), #182, .F. ) ;
#138 = LINE ( 'NONE', #241, #413 ) ;
#139 = VERTEX_POINT ( 'NONE', #242 ) ;
#140 = LINE ( 'NONE', #104, #382 ) ;
#141 = AXIS2_PLACEMENT_3D ( 'NONE', #130, #272, #55 ) ;
#142 = PLANE ( 'NONE',  #183 ) ;
#143 = DIRECTION ( 'NONE',  ( 0.000000000000000000, 0.000000000000000000, 1.000000000000000000 ) ) ;
#144 = ORIENTED_EDGE ( 'NONE', *, *, #376, .T. ) ;
#145 = VERTEX_POINT ( 'NONE', #108 ) ;
#146 = CARTESIAN_POINT ( 'NONE',  ( 9.828178694158099304, -15.00000000000000000, 0.000000000000000000 ) ) ;
#147 = AXIS2_PLACEMENT_3D ( 'NONE', #338, #215, #344 ) ;
#148 = ORIENTED_EDGE ( 'NONE', *, *, #347, .T. ) ;
#149 = CARTESIAN_POINT ( 'NONE',  ( -15.17182130584189892, -25.00000000000000000, 40.00000000000000000 ) ) ;
#150 = CARTESIAN_POINT ( 'NONE',  ( -20.17182130584189892, -25.00000000000000000, 0.000000000000000000 ) ) ;
#151 = CC_DESIGN_PERSON_AND_ORGANIZATION_ASSIGNMENT ( #302, #206, ( #358 ) ) ;
#152 = CC_DESIGN_APPROVAL ( #334, ( #369 ) ) ;
#153 = ORIENTED_EDGE ( 'NONE', *, *, #278, .T. ) ;
#154 = CARTESIAN_POINT ( 'NONE',  ( 69.82817869415809753, 0.000000000000000000, 40.00000000000000000 ) ) ;
#155 = PERSON_AND_ORGANIZATION ( #167, #49 ) ;
#156 = CARTESIAN_POINT ( 'NONE',  ( 14.82817869415809930, -15.00000000000000000, 0.000000000000000000 ) ) ;
#157 = ORIENTED_EDGE ( 'NONE', *, *, #269, .F. ) ;
#158 = APPROVAL_STATUS ( 'not_yet_approved' ) ;
#159 = FACE_OUTER_BOUND ( 'NONE', #437, .T. ) ;
#160 = CYLINDRICAL_SURFACE ( 'NONE', #351, 5.000000000000000888 ) ;
#161 = CALENDAR_DATE ( 2026, 7, 4 ) ;
#162 = EDGE_CURVE ( 'NONE', #107, #373, #417, .T. ) ;
#163 = CARTESIAN_POINT ( 'NONE',  ( -25.17182130584190247, -25.00000000000000000, 0.000000000000000000 ) ) ;
#164 = CARTESIAN_POINT ( 'NONE',  ( -50.17182130584190247, -40.00000000000000000, 40.00000000000000000 ) ) ;
#165 = DATE_AND_TIME ( #297, #181 ) ;
#166 = VERTEX_POINT ( 'NONE', #72 ) ;
#167 = PERSON ( '未指定', '未指定', '未指定', ('未指定'), ('未指定'), ('未指定') ) ;
#168 = EDGE_CURVE ( 'NONE', #190, #107, #98, .T. ) ;
#169 = LINE ( 'NONE', #250, #40 ) ;
#170 = EDGE_LOOP ( 'NONE', ( #318, #362, #226, #433 ) ) ;
#171 = CARTESIAN_POINT ( 'NONE',  ( 9.828178694158099304, -15.00000000000000000, 40.00000000000000000 ) ) ;
#172 = CC_DESIGN_PERSON_AND_ORGANIZATION_ASSIGNMENT ( #305, #439, ( #17 ) ) ;
#173 = AXIS2_PLACEMENT_3D ( 'NONE', #34, #381, #210 ) ;
#174 = DIRECTION ( 'NONE',  ( 1.000000000000000000, 0.000000000000000000, 0.000000000000000000 ) ) ;
#175 = CARTESIAN_POINT ( 'NONE',  ( 69.82817869415809753, 0.000000000000000000, 40.00000000000000000 ) ) ;
#176 = CYLINDRICAL_SURFACE ( 'NONE', #249, 5.000000000000000000 ) ;
#177 = CARTESIAN_POINT ( 'NONE',  ( 44.82817869415809753, -25.00000000000000000, 0.000000000000000000 ) ) ;
#178 = LINE ( 'NONE', #314, #422 ) ;
#179 = EDGE_CURVE ( 'NONE', #367, #91, #140, .T. ) ;
#180 = ORIENTED_EDGE ( 'NONE', *, *, #84, .F. ) ;
#181 = LOCAL_TIME ( 22, 39, 24.00000000000000000, #56 ) ;
#182 = PLANE ( 'NONE',  #436 ) ;
#183 = AXIS2_PLACEMENT_3D ( 'NONE', #134, #444, #36 ) ;
#184 = ORIENTED_EDGE ( 'NONE', *, *, #411, .T. ) ;
#185 = ORIENTED_EDGE ( 'NONE', *, *, #26, .F. ) ;
#186 = EDGE_LOOP ( 'NONE', ( #35, #81, #320, #283 ) ) ;
#187 = EDGE_CURVE ( 'NONE', #166, #391, #169, .T. ) ;
#188 = DIRECTION ( 'NONE',  ( 1.000000000000000000, 0.000000000000000000, 0.000000000000000000 ) ) ;
#189 = DIRECTION ( 'NONE',  ( 1.000000000000000000, 0.000000000000000000, 0.000000000000000000 ) ) ;
#190 = VERTEX_POINT ( 'NONE', #341 ) ;
#191 = CARTESIAN_POINT ( 'NONE',  ( 4.828178694158099304, -15.00000000000000000, 40.00000000000000000 ) ) ;
#192 = DIRECTION ( 'NONE',  ( 0.000000000000000000, 0.000000000000000000, -1.000000000000000000 ) ) ;
#193 = CARTESIAN_POINT ( 'NONE',  ( 0.000000000000000000, 0.000000000000000000, 0.000000000000000000 ) ) ;
#194 = DIRECTION ( 'NONE',  ( 0.000000000000000000, 0.000000000000000000, 1.000000000000000000 ) ) ;
#195 = DIRECTION ( 'NONE',  ( 0.000000000000000000, 0.000000000000000000, -1.000000000000000000 ) ) ;
#196 = CALENDAR_DATE ( 2026, 7, 4 ) ;
#197 = UNCERTAINTY_MEASURE_WITH_UNIT (LENGTH_MEASURE( 1.000000000000000082E-05 ), #105, 'distance_accuracy_value', 'NONE');
#198 = VERTEX_POINT ( 'NONE', #285 ) ;
#199 = ADVANCED_FACE ( 'NONE', ( #340 ), #275, .F. ) ;
#200 = CIRCLE ( 'NONE', #93, 5.000000000000000888 ) ;
#201 = ORIENTED_EDGE ( 'NONE', *, *, #254, .T. ) ;
#202 = PRODUCT_DEFINITION_SHAPE ( 'NONE', 'NONE',  #369 ) ;
#203 = CARTESIAN_POINT ( 'NONE',  ( -20.17182130584189892, -25.00000000000000000, 40.00000000000000000 ) ) ;
#204 = PERSON_AND_ORGANIZATION ( #167, #49 ) ;
#205 = DIRECTION ( 'NONE',  ( 3.469446951953615175E-16, -1.000000000000000000, 0.000000000000000000 ) ) ;
#206 = PERSON_AND_ORGANIZATION_ROLE ( 'design_supplier' ) ;
#207 = ADVANCED_FACE ( 'NONE', ( #455 ), #385, .F. ) ;
#208 = FACE_OUTER_BOUND ( 'NONE', #170, .T. ) ;
#209 = ORIENTED_EDGE ( 'NONE', *, *, #38, .T. ) ;
#210 = DIRECTION ( 'NONE',  ( 1.000000000000000000, 0.000000000000000000, 0.000000000000000000 ) ) ;
#211 = AXIS2_PLACEMENT_3D ( 'NONE', #127, #232, #19 ) ;
#212 = CARTESIAN_POINT ( 'NONE',  ( -50.17182130584190247, 0.000000000000000000, 40.00000000000000000 ) ) ;
#213 = AXIS2_PLACEMENT_3D ( 'NONE', #116, #44, #189 ) ;
#214 = DIRECTION ( 'NONE',  ( 1.000000000000000000, 0.000000000000000000, 0.000000000000000000 ) ) ;
#215 = DIRECTION ( 'NONE',  ( 0.000000000000000000, -1.000000000000000000, 0.000000000000000000 ) ) ;
#216 = DIRECTION ( 'NONE',  ( -1.000000000000000000, 0.000000000000000000, 0.000000000000000000 ) ) ;
#217 = ORIENTED_EDGE ( 'NONE', *, *, #415, .F. ) ;
#218 = CARTESIAN_POINT ( 'NONE',  ( 39.82817869415809753, -25.00000000000000000, 40.00000000000000000 ) ) ;
#219 = AXIS2_PLACEMENT_3D ( 'NONE', #287, #321, #4 ) ;
#220 = ORIENTED_EDGE ( 'NONE', *, *, #395, .F. ) ;
#221 = LINE ( 'NONE', #356, #236 ) ;
#222 = EDGE_CURVE ( 'NONE', #306, #190, #310, .T. ) ;
#223 = CARTESIAN_POINT ( 'NONE',  ( -50.17182130584190247, -40.00000000000000000, 0.000000000000000000 ) ) ;
#224 = ORIENTED_EDGE ( 'NONE', *, *, #411, .F. ) ;
#225 = CARTESIAN_POINT ( 'NONE',  ( -20.17182130584189892, -25.00000000000000000, 0.000000000000000000 ) ) ;
#226 = ORIENTED_EDGE ( 'NONE', *, *, #50, .F. ) ;
#227 = DIRECTION ( 'NONE',  ( 0.000000000000000000, 0.000000000000000000, -1.000000000000000000 ) ) ;
#228 = ORIENTED_EDGE ( 'NONE', *, *, #311, .F. ) ;
#229 = APPROVAL_DATE_TIME ( #233, #334 ) ;
#230 = ORIENTED_EDGE ( 'NONE', *, *, #222, .F. ) ;
#231 = EDGE_CURVE ( 'NONE', #459, #367, #342, .T. ) ;
#232 = DIRECTION ( 'NONE',  ( 0.000000000000000000, 0.000000000000000000, 1.000000000000000000 ) ) ;
#233 = DATE_AND_TIME ( #196, #343 ) ;
#234 = LINE ( 'NONE', #364, #416 ) ;
#235 = PERSON_AND_ORGANIZATION ( #167, #49 ) ;
#236 = VECTOR ( 'NONE', #10, 1000.000000000000000 ) ;
#237 = CARTESIAN_POINT ( 'NONE',  ( 4.828178694158099304, -15.00000000000000000, 0.000000000000000000 ) ) ;
#238 = DATE_AND_TIME ( #52, #274 ) ;
#239 = AXIS2_PLACEMENT_3D ( 'NONE', #80, #393, #353 ) ;
#240 = CC_DESIGN_PERSON_AND_ORGANIZATION_ASSIGNMENT ( #9, #329, ( #358 ) ) ;
#241 = CARTESIAN_POINT ( 'NONE',  ( 69.82817869415809753, -40.00000000000000000, 40.00000000000000000 ) ) ;
#242 = CARTESIAN_POINT ( 'NONE',  ( 4.828178694158099304, -15.00000000000000000, 40.00000000000000000 ) ) ;
#243 = ORIENTED_EDGE ( 'NONE', *, *, #376, .F. ) ;
#244 = DIRECTION ( 'NONE',  ( 0.000000000000000000, 0.000000000000000000, -1.000000000000000000 ) ) ;
#245 = APPROVAL_PERSON_ORGANIZATION ( #430, #101, #48 ) ;
#246 = CIRCLE ( 'NONE', #141, 5.000000000000000888 ) ;
#247 = ADVANCED_FACE ( 'NONE', ( #208 ), #458, .F. ) ;
#248 = ADVANCED_FACE ( 'NONE', ( #251 ), #414, .F. ) ;
#249 = AXIS2_PLACEMENT_3D ( 'NONE', #71, #452, #216 ) ;
#250 = CARTESIAN_POINT ( 'NONE',  ( 69.82817869415809753, 0.000000000000000000, 0.000000000000000000 ) ) ;
#251 = FACE_OUTER_BOUND ( 'NONE', #315, .T. ) ;
#252 = AXIS2_PLACEMENT_3D ( 'NONE', #412, #419, #388 ) ;
#253 = CARTESIAN_POINT ( 'NONE',  ( -50.17182130584190247, -40.00000000000000000, 40.00000000000000000 ) ) ;
#254 = EDGE_CURVE ( 'NONE', #190, #166, #138, .T. ) ;
#255 = ORIENTED_EDGE ( 'NONE', *, *, #38, .F. ) ;
#256 = DIRECTION ( 'NONE',  ( 1.000000000000000000, 0.000000000000000000, 0.000000000000000000 ) ) ;
#257 =( NAMED_UNIT ( * ) PLANE_ANGLE_UNIT ( ) SI_UNIT ( $, .RADIAN. ) );
#258 = ORIENTED_EDGE ( 'NONE', *, *, #162, .F. ) ;
#259 = DIRECTION ( 'NONE',  ( 1.000000000000000000, 0.000000000000000000, 0.000000000000000000 ) ) ;
#260 = EDGE_LOOP ( 'NONE', ( #37, #387, #243, #33 ) ) ;
#261 = DIRECTION ( 'NONE',  ( 0.000000000000000000, 0.000000000000000000, 1.000000000000000000 ) ) ;
#262 = FACE_BOUND ( 'NONE', #331, .T. ) ;
#263 = ADVANCED_FACE ( 'NONE', ( #61 ), #70, .F. ) ;
#264 = FACE_BOUND ( 'NONE', #301, .T. ) ;
#265 = PERSON_AND_ORGANIZATION_ROLE ( 'design_owner' ) ;
#266 = VECTOR ( 'NONE', #94, 1000.000000000000000 ) ;
#267 = ORIENTED_EDGE ( 'NONE', *, *, #254, .F. ) ;
#268 = COORDINATED_UNIVERSAL_TIME_OFFSET ( 8, 0, .AHEAD. ) ;
#269 = EDGE_CURVE ( 'NONE', #102, #378, #178, .T. ) ;
#270 = LINE ( 'NONE', #96, #457 ) ;
#271 = COORDINATED_UNIVERSAL_TIME_OFFSET ( 8, 0, .AHEAD. ) ;
#272 = DIRECTION ( 'NONE',  ( 0.000000000000000000, 0.000000000000000000, 1.000000000000000000 ) ) ;
#273 = APPLICATION_PROTOCOL_DEFINITION ( 'international standard', 'config_control_design', 1994, #100 ) ;
#274 = LOCAL_TIME ( 22, 39, 24.00000000000000000, #271 ) ;
#275 = CYLINDRICAL_SURFACE ( 'NONE', #54, 4.999999999999997335 ) ;
#276 = DIRECTION ( 'NONE',  ( 0.000000000000000000, 0.000000000000000000, -1.000000000000000000 ) ) ;
#277 = VECTOR ( 'NONE', #30, 1000.000000000000000 ) ;
#278 = EDGE_CURVE ( 'NONE', #145, #354, #110, .T. ) ;
#279 = EDGE_LOOP ( 'NONE', ( #286, #392, #258, #3 ) ) ;
#280 = EDGE_CURVE ( 'NONE', #74, #166, #76, .T. ) ;
#281 = FACE_OUTER_BOUND ( 'NONE', #428, .T. ) ;
#282 = CARTESIAN_POINT ( 'NONE',  ( 44.82817869415809753, -25.00000000000000000, 40.00000000000000000 ) ) ;
#283 = ORIENTED_EDGE ( 'NONE', *, *, #162, .T. ) ;
#284 = DIRECTION ( 'NONE',  ( -1.000000000000000000, 0.000000000000000000, 0.000000000000000000 ) ) ;
#285 = CARTESIAN_POINT ( 'NONE',  ( -15.17182130584189892, -25.00000000000000000, 0.000000000000000000 ) ) ;
#286 = ORIENTED_EDGE ( 'NONE', *, *, #84, .T. ) ;
#287 = CARTESIAN_POINT ( 'NONE',  ( 9.828178694158099304, -15.00000000000000000, 40.00000000000000000 ) ) ;
#288 = VECTOR ( 'NONE', #423, 1000.000000000000000 ) ;
#289 = PLANE ( 'NONE',  #309 ) ;
#290 = ORIENTED_EDGE ( 'NONE', *, *, #187, .T. ) ;
#291 = EDGE_LOOP ( 'NONE', ( #184, #418 ) ) ;
#292 = CARTESIAN_POINT ( 'NONE',  ( -25.17182130584190247, -25.00000000000000000, 40.00000000000000000 ) ) ;
#293 = ORIENTED_EDGE ( 'NONE', *, *, #339, .T. ) ;
#294 = ORIENTED_EDGE ( 'NONE', *, *, #280, .F. ) ;
#295 = CARTESIAN_POINT ( 'NONE',  ( -50.17182130584190247, -40.00000000000000000, 40.00000000000000000 ) ) ;
#296 = CARTESIAN_POINT ( 'NONE',  ( -50.17182130584190247, 0.000000000000000000, 0.000000000000000000 ) ) ;
#297 = CALENDAR_DATE ( 2026, 7, 4 ) ;
#298 = EDGE_CURVE ( 'NONE', #373, #306, #221, .T. ) ;
#299 = FACE_BOUND ( 'NONE', #60, .T. ) ;
#300 = CARTESIAN_POINT ( 'NONE',  ( 34.82817869415809753, -25.00000000000000000, 0.000000000000000000 ) ) ;
#301 = EDGE_LOOP ( 'NONE', ( #335, #348 ) ) ;
#302 = PERSON_AND_ORGANIZATION ( #167, #49 ) ;
#303 = PRODUCT ( 'HuaTai_\X2\9ed88ba4\X0\_sldprt', 'HuaTai_\X2\9ed88ba4\X0\_sldprt', '', ( #402 ) ) ;
#304 = LINE ( 'NONE', #154, #65 ) ;
#305 = PERSON_AND_ORGANIZATION ( #167, #49 ) ;
#306 = VERTEX_POINT ( 'NONE', #295 ) ;
#307 = APPROVAL_ROLE ( '' ) ;
#308 = DIRECTION ( 'NONE',  ( -3.469446951953615175E-16, 1.000000000000000000, 0.000000000000000000 ) ) ;
#309 = AXIS2_PLACEMENT_3D ( 'NONE', #253, #350, #143 ) ;
#310 = LINE ( 'NONE', #136, #277 ) ;
#311 = EDGE_CURVE ( 'NONE', #145, #198, #398, .T. ) ;
#312 = ADVANCED_FACE ( 'NONE', ( #349 ), #43, .F. ) ;
#313 = DIRECTION ( 'NONE',  ( -1.000000000000000000, -3.469446951953615175E-16, 0.000000000000000000 ) ) ;
#314 = CARTESIAN_POINT ( 'NONE',  ( 14.82817869415809930, -15.00000000000000000, 40.00000000000000000 ) ) ;
#315 = EDGE_LOOP ( 'NONE', ( #290, #22, #119, #201 ) ) ;
#316 = DIRECTION ( 'NONE',  ( 1.000000000000000000, 3.469446951953615175E-16, 0.000000000000000000 ) ) ;
#317 = VECTOR ( 'NONE', #99, 1000.000000000000000 ) ;
#318 = ORIENTED_EDGE ( 'NONE', *, *, #355, .T. ) ;
#319 = EDGE_CURVE ( 'NONE', #378, #45, #200, .T. ) ;
#320 = ORIENTED_EDGE ( 'NONE', *, *, #168, .T. ) ;
#321 = DIRECTION ( 'NONE',  ( 0.000000000000000000, 0.000000000000000000, 1.000000000000000000 ) ) ;
#322 =( NAMED_UNIT ( * ) SI_UNIT ( $, .STERADIAN. ) SOLID_ANGLE_UNIT ( ) );
#323 = ORIENTED_EDGE ( 'NONE', *, *, #1, .F. ) ;
#324 = CIRCLE ( 'NONE', #28, 5.000000000000000888 ) ;
#325 = CARTESIAN_POINT ( 'NONE',  ( -25.17182130584190247, -25.00000000000000000, 40.00000000000000000 ) ) ;
#326 = APPROVAL_DATE_TIME ( #441, #101 ) ;
#327 = CARTESIAN_POINT ( 'NONE',  ( 34.82817869415809753, -25.00000000000000000, 40.00000000000000000 ) ) ;
#328 = DIRECTION ( 'NONE',  ( 0.000000000000000000, 0.000000000000000000, -1.000000000000000000 ) ) ;
#329 = PERSON_AND_ORGANIZATION_ROLE ( 'creator' ) ;
#330 = AXIS2_PLACEMENT_3D ( 'NONE', #24, #79, #259 ) ;
#331 = EDGE_LOOP ( 'NONE', ( #370, #333 ) ) ;
#332 = APPROVAL_STATUS ( 'not_yet_approved' ) ;
#333 = ORIENTED_EDGE ( 'NONE', *, *, #231, .F. ) ;
#334 = APPROVAL ( #332, '未指定' ) ;
#335 = ORIENTED_EDGE ( 'NONE', *, *, #347, .F. ) ;
#336 = VECTOR ( 'NONE', #8, 1000.000000000000000 ) ;
#337 = ORIENTED_EDGE ( 'NONE', *, *, #404, .F. ) ;
#338 = CARTESIAN_POINT ( 'NONE',  ( -50.17182130584190247, 0.000000000000000000, 40.00000000000000000 ) ) ;
#339 = EDGE_CURVE ( 'NONE', #139, #45, #396, .T. ) ;
#340 = FACE_OUTER_BOUND ( 'NONE', #132, .T. ) ;
#341 = CARTESIAN_POINT ( 'NONE',  ( 69.82817869415809753, -40.00000000000000000, 40.00000000000000000 ) ) ;
#342 = CIRCLE ( 'NONE', #173, 4.999999999999997335 ) ;
#343 = LOCAL_TIME ( 22, 39, 24.00000000000000000, #363 ) ;
#344 = DIRECTION ( 'NONE',  ( 0.000000000000000000, 0.000000000000000000, -1.000000000000000000 ) ) ;
#345 = CARTESIAN_POINT ( 'NONE',  ( -50.17182130584190247, 0.000000000000000000, 0.000000000000000000 ) ) ;
#346 = DIRECTION ( 'NONE',  ( 0.000000000000000000, 0.000000000000000000, -1.000000000000000000 ) ) ;
#347 = EDGE_CURVE ( 'NONE', #139, #102, #407, .T. ) ;
#348 = ORIENTED_EDGE ( 'NONE', *, *, #31, .F. ) ;
#349 = FACE_OUTER_BOUND ( 'NONE', #352, .T. ) ;
#350 = DIRECTION ( 'NONE',  ( 0.000000000000000000, 1.000000000000000000, 0.000000000000000000 ) ) ;
#351 = AXIS2_PLACEMENT_3D ( 'NONE', #203, #357, #51 ) ;
#352 = EDGE_LOOP ( 'NONE', ( #228, #153, #401, #217 ) ) ;
#353 = DIRECTION ( 'NONE',  ( 1.000000000000000000, 0.000000000000000000, 0.000000000000000000 ) ) ;
#354 = VERTEX_POINT ( 'NONE', #292 ) ;
#355 = EDGE_CURVE ( 'NONE', #367, #459, #13, .T. ) ;
#356 = CARTESIAN_POINT ( 'NONE',  ( -50.17182130584190247, 0.000000000000000000, 40.00000000000000000 ) ) ;
#357 = DIRECTION ( 'NONE',  ( 0.000000000000000000, 0.000000000000000000, -1.000000000000000000 ) ) ;
#358 = PRODUCT_DEFINITION_FORMATION_WITH_SPECIFIED_SOURCE ( '任何', '', #303, .NOT_KNOWN. ) ;
#359 = MANIFOLD_SOLID_BREP ( '输入1', #87 ) ;
#360 = DIRECTION ( 'NONE',  ( 1.000000000000000000, 0.000000000000000000, 0.000000000000000000 ) ) ;
#361 = AXIS2_PLACEMENT_3D ( 'NONE', #193, #123, #131 ) ;
#362 = ORIENTED_EDGE ( 'NONE', *, *, #26, .T. ) ;
#363 = COORDINATED_UNIVERSAL_TIME_OFFSET ( 8, 0, .AHEAD. ) ;
#364 = CARTESIAN_POINT ( 'NONE',  ( 44.82817869415809753, -25.00000000000000000, 40.00000000000000000 ) ) ;
#365 = DATE_TIME_ROLE ( 'creation_date' ) ;
#366 = VECTOR ( 'NONE', #109, 1000.000000000000000 ) ;
#367 = VERTEX_POINT ( 'NONE', #327 ) ;
#368 = SECURITY_CLASSIFICATION_LEVEL ( 'unclassified' ) ;
#369 = PRODUCT_DEFINITION ( '未知', '', #358, #112 ) ;
#370 = ORIENTED_EDGE ( 'NONE', *, *, #355, .F. ) ;
#371 = CC_DESIGN_APPROVAL ( #101, ( #358 ) ) ;
#372 = AXIS2_PLACEMENT_3D ( 'NONE', #386, #5, #256 ) ;
#373 = VERTEX_POINT ( 'NONE', #426 ) ;
#374 = DIRECTION ( 'NONE',  ( 0.000000000000000000, 0.000000000000000000, -1.000000000000000000 ) ) ;
#375 = EDGE_LOOP ( 'NONE', ( #39, #267, #230, #389 ) ) ;
#376 = EDGE_CURVE ( 'NONE', #111, #198, #106, .T. ) ;
#377 = DIRECTION ( 'NONE',  ( -3.469446951953615175E-16, 1.000000000000000000, 0.000000000000000000 ) ) ;
#378 = VERTEX_POINT ( 'NONE', #156 ) ;
#379 = CC_DESIGN_APPROVAL ( #69, ( #17 ) ) ;
#380 = PRODUCT_RELATED_PRODUCT_CATEGORY ( 'detail', '', ( #303 ) ) ;
#381 = DIRECTION ( 'NONE',  ( 0.000000000000000000, 0.000000000000000000, 1.000000000000000000 ) ) ;
#382 = VECTOR ( 'NONE', #276, 1000.000000000000000 ) ;
#383 = ADVANCED_FACE ( 'NONE', ( #159, #299, #432, #41 ), #129, .F. ) ;
#384 = CIRCLE ( 'NONE', #372, 5.000000000000000888 ) ;
#385 = CYLINDRICAL_SURFACE ( 'NONE', #390, 5.000000000000000000 ) ;
#386 = CARTESIAN_POINT ( 'NONE',  ( -20.17182130584189892, -25.00000000000000000, 40.00000000000000000 ) ) ;
#387 = ORIENTED_EDGE ( 'NONE', *, *, #311, .T. ) ;
#388 = DIRECTION ( 'NONE',  ( -1.000000000000000000, 0.000000000000000000, 0.000000000000000000 ) ) ;
#389 = ORIENTED_EDGE ( 'NONE', *, *, #1, .T. ) ;
#390 = AXIS2_PLACEMENT_3D ( 'NONE', #171, #244, #284 ) ;
#391 = VERTEX_POINT ( 'NONE', #450 ) ;
#392 = ORIENTED_EDGE ( 'NONE', *, *, #64, .F. ) ;
#393 = DIRECTION ( 'NONE',  ( 0.000000000000000000, 0.000000000000000000, 1.000000000000000000 ) ) ;
#394 = VERTEX_POINT ( 'NONE', #177 ) ;
#395 = EDGE_CURVE ( 'NONE', #354, #145, #384, .T. ) ;
#396 = LINE ( 'NONE', #191, #288 ) ;
#397 = ORIENTED_EDGE ( 'NONE', *, *, #278, .F. ) ;
#398 = LINE ( 'NONE', #149, #27 ) ;
#399 = VECTOR ( 'NONE', #328, 1000.000000000000000 ) ;
#400 = AXIS2_PLACEMENT_3D ( 'NONE', #14, #194, #360 ) ;
#401 = ORIENTED_EDGE ( 'NONE', *, *, #77, .T. ) ;
#402 = MECHANICAL_CONTEXT ( 'NONE', #100, 'mechanical' ) ;
#403 = EDGE_LOOP ( 'NONE', ( #148, #113, #224, #445 ) ) ;
#404 = EDGE_CURVE ( 'NONE', #394, #91, #443, .T. ) ;
#405 = CARTESIAN_POINT ( 'NONE',  ( -50.17182130584190247, -40.00000000000000000, 0.000000000000000000 ) ) ;
#406 = DATE_AND_TIME ( #126, #103 ) ;
#407 = CIRCLE ( 'NONE', #219, 5.000000000000000888 ) ;
#408 = CARTESIAN_POINT ( 'NONE',  ( -50.17182130584190247, 0.000000000000000000, 0.000000000000000000 ) ) ;
#409 =( GEOMETRIC_REPRESENTATION_CONTEXT ( 3 ) GLOBAL_UNCERTAINTY_ASSIGNED_CONTEXT ( ( #197 ) ) GLOBAL_UNIT_ASSIGNED_CONTEXT ( ( #105, #257, #322 ) ) REPRESENTATION_CONTEXT ( 'NONE', 'WORKASPACE' ) );
#410 = ORIENTED_EDGE ( 'NONE', *, *, #179, .T. ) ;
#411 = EDGE_CURVE ( 'NONE', #45, #378, #68, .T. ) ;
#412 = CARTESIAN_POINT ( 'NONE',  ( 39.82817869415809753, -25.00000000000000000, 40.00000000000000000 ) ) ;
#413 = VECTOR ( 'NONE', #374, 1000.000000000000000 ) ;
#414 = PLANE ( 'NONE',  #73 ) ;
#415 = EDGE_CURVE ( 'NONE', #198, #111, #324, .T. ) ;
#416 = VECTOR ( 'NONE', #440, 1000.000000000000000 ) ;
#417 = LINE ( 'NONE', #66, #317 ) ;
#418 = ORIENTED_EDGE ( 'NONE', *, *, #319, .T. ) ;
#419 = DIRECTION ( 'NONE',  ( 0.000000000000000000, 0.000000000000000000, -1.000000000000000000 ) ) ;
#420 = DIRECTION ( 'NONE',  ( -1.000000000000000000, 0.000000000000000000, 0.000000000000000000 ) ) ;
#421 = EDGE_LOOP ( 'NONE', ( #42, #47 ) ) ;
#422 = VECTOR ( 'NONE', #346, 1000.000000000000000 ) ;
#423 = DIRECTION ( 'NONE',  ( 0.000000000000000000, 0.000000000000000000, -1.000000000000000000 ) ) ;
#424 = CC_DESIGN_DATE_AND_TIME_ASSIGNMENT ( #238, #365, ( #369 ) ) ;
#425 = AXIS2_PLACEMENT_3D ( 'NONE', #442, #62, #174 ) ;
#426 = CARTESIAN_POINT ( 'NONE',  ( -50.17182130584190247, 0.000000000000000000, 40.00000000000000000 ) ) ;
#427 = DIRECTION ( 'NONE',  ( 0.000000000000000000, 0.000000000000000000, 1.000000000000000000 ) ) ;
#428 = EDGE_LOOP ( 'NONE', ( #209, #323, #431, #114 ) ) ;
#429 = CARTESIAN_POINT ( 'NONE',  ( 14.82817869415809930, -15.00000000000000000, 40.00000000000000000 ) ) ;
#430 = PERSON_AND_ORGANIZATION ( #167, #49 ) ;
#431 = ORIENTED_EDGE ( 'NONE', *, *, #298, .F. ) ;
#432 = FACE_BOUND ( 'NONE', #421, .T. ) ;
#433 = ORIENTED_EDGE ( 'NONE', *, *, #179, .F. ) ;
#434 = LOCAL_TIME ( 22, 39, 24.00000000000000000, #268 ) ;
#435 = ADVANCED_FACE ( 'NONE', ( #32 ), #176, .F. ) ;
#436 = AXIS2_PLACEMENT_3D ( 'NONE', #212, #316, #308 ) ;
#437 = EDGE_LOOP ( 'NONE', ( #255, #180, #15, #294 ) ) ;
#438 = CARTESIAN_POINT ( 'NONE',  ( 69.82817869415809753, 0.000000000000000000, 40.00000000000000000 ) ) ;
#439 = PERSON_AND_ORGANIZATION_ROLE ( 'classification_officer' ) ;
#440 = DIRECTION ( 'NONE',  ( 0.000000000000000000, 0.000000000000000000, -1.000000000000000000 ) ) ;
#441 = DATE_AND_TIME ( #161, #434 ) ;
#442 = CARTESIAN_POINT ( 'NONE',  ( 0.000000000000000000, 0.000000000000000000, 0.000000000000000000 ) ) ;
#443 = CIRCLE ( 'NONE', #239, 4.999999999999997335 ) ;
#444 = DIRECTION ( 'NONE',  ( 0.000000000000000000, 0.000000000000000000, 1.000000000000000000 ) ) ;
#445 = ORIENTED_EDGE ( 'NONE', *, *, #339, .F. ) ;
#446 = DIRECTION ( 'NONE',  ( -3.469446951953615175E-16, 1.000000000000000000, 0.000000000000000000 ) ) ;
#447 = AXIS2_PLACEMENT_3D ( 'NONE', #2, #118, #7 ) ;
#448 = VERTEX_POINT ( 'NONE', #345 ) ;
#449 = CC_DESIGN_PERSON_AND_ORGANIZATION_ASSIGNMENT ( #59, #265, ( #303 ) ) ;
#450 = CARTESIAN_POINT ( 'NONE',  ( 69.82817869415809753, 0.000000000000000000, 0.000000000000000000 ) ) ;
#451 = DIRECTION ( 'NONE',  ( 3.469446951953615175E-16, -1.000000000000000000, 0.000000000000000000 ) ) ;
#452 = DIRECTION ( 'NONE',  ( 0.000000000000000000, 0.000000000000000000, -1.000000000000000000 ) ) ;
#453 = ADVANCED_FACE ( 'NONE', ( #29 ), #289, .F. ) ;
#454 = ORIENTED_EDGE ( 'NONE', *, *, #231, .T. ) ;
#455 = FACE_OUTER_BOUND ( 'NONE', #6, .T. ) ;
#456 = ORIENTED_EDGE ( 'NONE', *, *, #319, .F. ) ;
#457 = VECTOR ( 'NONE', #192, 1000.000000000000000 ) ;
#458 = CYLINDRICAL_SURFACE ( 'NONE', #252, 4.999999999999997335 ) ;
#459 = VERTEX_POINT ( 'NONE', #282 ) ;
ENDSEC;
END-ISO-10303-21;
