ISO-10303-21;
HEADER;
FILE_DESCRIPTION (( 'STEP AP203' ),
    '1' );
FILE_NAME ('SiGan_默认_sldprt.STEP',
    '2026-04-07T14:39:25',
    ( '' ),
    ( '' ),
    'SwSTEP 2.0',
    'SolidWorks 2022',
    '' );
FILE_SCHEMA (( 'CONFIG_CONTROL_DESIGN' ));
ENDSEC;

DATA;
#1 = APPROVAL_STATUS ( 'not_yet_approved' ) ;
#2 = SHAPE_DEFINITION_REPRESENTATION ( #50, #26 ) ;
#3 = DATE_TIME_ROLE ( 'classification_date' ) ;
#4 = PERSON_AND_ORGANIZATION ( #123, #106 ) ;
#5 = COORDINATED_UNIVERSAL_TIME_OFFSET ( 8, 0, .AHEAD. ) ;
#6 = CARTESIAN_POINT ( 'NONE',  ( 5.000000000000000000, 6.123233995736766282E-16, 0.000000000000000000 ) ) ;
#7 = CC_DESIGN_APPROVAL ( #65, ( #81 ) ) ;
#8 = PERSON_AND_ORGANIZATION ( #123, #106 ) ;
#9 = CARTESIAN_POINT ( 'NONE',  ( 0.000000000000000000, 0.000000000000000000, 0.000000000000000000 ) ) ;
#10 = FACE_OUTER_BOUND ( 'NONE', #169, .T. ) ;
#11 = DIRECTION ( 'NONE',  ( 1.000000000000000000, 0.000000000000000000, 0.000000000000000000 ) ) ;
#12 = ORIENTED_EDGE ( 'NONE', *, *, #151, .T. ) ;
#13 = CARTESIAN_POINT ( 'NONE',  ( 0.000000000000000000, 0.000000000000000000, 0.000000000000000000 ) ) ;
#14 = CC_DESIGN_APPROVAL ( #51, ( #137 ) ) ;
#15 = AXIS2_PLACEMENT_3D ( 'NONE', #9, #101, #11 ) ;
#16 = CALENDAR_DATE ( 2026, 7, 4 ) ;
#17 = EDGE_CURVE ( 'NONE', #149, #32, #165, .T. ) ;
#18 = PERSON_AND_ORGANIZATION_ROLE ( 'classification_officer' ) ;
#19 = MECHANICAL_CONTEXT ( 'NONE', #110, 'mechanical' ) ;
#20 = DATE_AND_TIME ( #115, #116 ) ;
#21 = DIRECTION ( 'NONE',  ( 1.000000000000000000, 0.000000000000000000, 0.000000000000000000 ) ) ;
#22 = CARTESIAN_POINT ( 'NONE',  ( 0.000000000000000000, 0.000000000000000000, 620.0000000000000000 ) ) ;
#23 = AXIS2_PLACEMENT_3D ( 'NONE', #13, #53, #97 ) ;
#24 = CYLINDRICAL_SURFACE ( 'NONE', #42, 5.000000000000000000 ) ;
#25 = ORIENTED_EDGE ( 'NONE', *, *, #151, .F. ) ;
#26 = ADVANCED_BREP_SHAPE_REPRESENTATION ( 'SiGan_\X2\9ed88ba4\X0\_sldprt', ( #108, #23 ), #52 ) ;
#27 = CC_DESIGN_PERSON_AND_ORGANIZATION_ASSIGNMENT ( #70, #141, ( #137 ) ) ;
#28 = PERSON_AND_ORGANIZATION_ROLE ( 'creator' ) ;
#29 = APPROVAL_PERSON_ORGANIZATION ( #41, #139, #111 ) ;
#30 = CC_DESIGN_PERSON_AND_ORGANIZATION_ASSIGNMENT ( #35, #33, ( #137 ) ) ;
#31 = APPROVAL_DATE_TIME ( #98, #51 ) ;
#32 = VERTEX_POINT ( 'NONE', #6 ) ;
#33 = PERSON_AND_ORGANIZATION_ROLE ( 'creator' ) ;
#34 = ORIENTED_EDGE ( 'NONE', *, *, #102, .F. ) ;
#35 = PERSON_AND_ORGANIZATION ( #123, #106 ) ;
#36 = DIRECTION ( 'NONE',  ( 1.000000000000000000, 0.000000000000000000, 0.000000000000000000 ) ) ;
#37 = CARTESIAN_POINT ( 'NONE',  ( -5.000000000000000000, 0.000000000000000000, 620.0000000000000000 ) ) ;
#38 = DIRECTION ( 'NONE',  ( 0.000000000000000000, 0.000000000000000000, 1.000000000000000000 ) ) ;
#39 = APPROVAL_DATE_TIME ( #20, #139 ) ;
#40 = COORDINATED_UNIVERSAL_TIME_OFFSET ( 8, 0, .AHEAD. ) ;
#41 = PERSON_AND_ORGANIZATION ( #123, #106 ) ;
#42 = AXIS2_PLACEMENT_3D ( 'NONE', #78, #100, #83 ) ;
#43 = DATE_AND_TIME ( #131, #64 ) ;
#44 = LINE ( 'NONE', #157, #121 ) ;
#45 = ORIENTED_EDGE ( 'NONE', *, *, #92, .T. ) ;
#46 = ORIENTED_EDGE ( 'NONE', *, *, #17, .T. ) ;
#47 = CYLINDRICAL_SURFACE ( 'NONE', #93, 5.000000000000000000 ) ;
#48 = ORIENTED_EDGE ( 'NONE', *, *, #109, .T. ) ;
#49 = APPROVAL_ROLE ( '' ) ;
#50 = PRODUCT_DEFINITION_SHAPE ( 'NONE', 'NONE',  #125 ) ;
#51 = APPROVAL ( #1, '未指定' ) ;
#52 =( GEOMETRIC_REPRESENTATION_CONTEXT ( 3 ) GLOBAL_UNCERTAINTY_ASSIGNED_CONTEXT ( ( #118 ) ) GLOBAL_UNIT_ASSIGNED_CONTEXT ( ( #74, #89, #105 ) ) REPRESENTATION_CONTEXT ( 'NONE', 'WORKASPACE' ) );
#53 = DIRECTION ( 'NONE',  ( 0.000000000000000000, 0.000000000000000000, 1.000000000000000000 ) ) ;
#54 = DESIGN_CONTEXT ( 'detailed design', #59, 'design' ) ;
#55 = AXIS2_PLACEMENT_3D ( 'NONE', #135, #63, #99 ) ;
#56 = APPROVAL_STATUS ( 'not_yet_approved' ) ;
#57 = APPROVAL_PERSON_ORGANIZATION ( #84, #65, #114 ) ;
#58 = CARTESIAN_POINT ( 'NONE',  ( -5.000000000000000000, 0.000000000000000000, 0.000000000000000000 ) ) ;
#59 = APPLICATION_CONTEXT ( 'configuration controlled 3d designs of mechanical parts and assemblies' ) ;
#60 = CARTESIAN_POINT ( 'NONE',  ( 0.000000000000000000, 0.000000000000000000, 0.000000000000000000 ) ) ;
#61 = DIRECTION ( 'NONE',  ( 0.000000000000000000, 0.000000000000000000, 1.000000000000000000 ) ) ;
#62 = PLANE ( 'NONE',  #113 ) ;
#63 = DIRECTION ( 'NONE',  ( 0.000000000000000000, 0.000000000000000000, 1.000000000000000000 ) ) ;
#64 = LOCAL_TIME ( 22, 39, 25.00000000000000000, #166 ) ;
#65 = APPROVAL ( #87, '未指定' ) ;
#66 = AXIS2_PLACEMENT_3D ( 'NONE', #167, #156, #117 ) ;
#67 = ADVANCED_FACE ( 'NONE', ( #147 ), #24, .T. ) ;
#68 = DATE_AND_TIME ( #16, #152 ) ;
#69 = PRODUCT_RELATED_PRODUCT_CATEGORY ( 'detail', '', ( #126 ) ) ;
#70 = PERSON_AND_ORGANIZATION ( #123, #106 ) ;
#71 = CLOSED_SHELL ( 'NONE', ( #76, #67, #173, #158 ) ) ;
#72 = EDGE_LOOP ( 'NONE', ( #90, #80, #48, #174 ) ) ;
#73 = SECURITY_CLASSIFICATION_LEVEL ( 'unclassified' ) ;
#74 =( LENGTH_UNIT ( ) NAMED_UNIT ( * ) SI_UNIT ( .MILLI., .METRE. ) );
#75 = CC_DESIGN_SECURITY_CLASSIFICATION ( #81, ( #137 ) ) ;
#76 = ADVANCED_FACE ( 'NONE', ( #79 ), #47, .T. ) ;
#77 = DIRECTION ( 'NONE',  ( 0.000000000000000000, 0.000000000000000000, -1.000000000000000000 ) ) ;
#78 = CARTESIAN_POINT ( 'NONE',  ( 0.000000000000000000, 0.000000000000000000, 620.0000000000000000 ) ) ;
#79 = FACE_OUTER_BOUND ( 'NONE', #72, .T. ) ;
#80 = ORIENTED_EDGE ( 'NONE', *, *, #102, .T. ) ;
#81 = SECURITY_CLASSIFICATION ( '', '', #73 ) ;
#82 = CC_DESIGN_DATE_AND_TIME_ASSIGNMENT ( #68, #153, ( #125 ) ) ;
#83 = DIRECTION ( 'NONE',  ( -1.000000000000000000, 0.000000000000000000, 0.000000000000000000 ) ) ;
#84 = PERSON_AND_ORGANIZATION ( #123, #106 ) ;
#85 = ORIENTED_EDGE ( 'NONE', *, *, #136, .T. ) ;
#86 = LOCAL_TIME ( 22, 39, 25.00000000000000000, #96 ) ;
#87 = APPROVAL_STATUS ( 'not_yet_approved' ) ;
#88 = AXIS2_PLACEMENT_3D ( 'NONE', #133, #160, #21 ) ;
#89 =( NAMED_UNIT ( * ) PLANE_ANGLE_UNIT ( ) SI_UNIT ( $, .RADIAN. ) );
#90 = ORIENTED_EDGE ( 'NONE', *, *, #136, .F. ) ;
#91 = APPLICATION_PROTOCOL_DEFINITION ( 'international standard', 'config_control_design', 1994, #110 ) ;
#92 = EDGE_CURVE ( 'NONE', #144, #149, #132, .T. ) ;
#93 = AXIS2_PLACEMENT_3D ( 'NONE', #22, #77, #103 ) ;
#94 = COORDINATED_UNIVERSAL_TIME_OFFSET ( 8, 0, .AHEAD. ) ;
#95 = CC_DESIGN_DATE_AND_TIME_ASSIGNMENT ( #143, #3, ( #81 ) ) ;
#96 = COORDINATED_UNIVERSAL_TIME_OFFSET ( 8, 0, .AHEAD. ) ;
#97 = DIRECTION ( 'NONE',  ( 1.000000000000000000, 0.000000000000000000, 0.000000000000000000 ) ) ;
#98 = DATE_AND_TIME ( #164, #86 ) ;
#99 = DIRECTION ( 'NONE',  ( 1.000000000000000000, 0.000000000000000000, 0.000000000000000000 ) ) ;
#100 = DIRECTION ( 'NONE',  ( 0.000000000000000000, 0.000000000000000000, -1.000000000000000000 ) ) ;
#101 = DIRECTION ( 'NONE',  ( 0.000000000000000000, 0.000000000000000000, 1.000000000000000000 ) ) ;
#102 = EDGE_CURVE ( 'NONE', #146, #32, #44, .T. ) ;
#103 = DIRECTION ( 'NONE',  ( -1.000000000000000000, 0.000000000000000000, 0.000000000000000000 ) ) ;
#104 = CARTESIAN_POINT ( 'NONE',  ( -5.000000000000000000, 0.000000000000000000, 620.0000000000000000 ) ) ;
#105 =( NAMED_UNIT ( * ) SI_UNIT ( $, .STERADIAN. ) SOLID_ANGLE_UNIT ( ) );
#106 = ORGANIZATION ( '未指定', '未指定', '' ) ;
#107 = CC_DESIGN_PERSON_AND_ORGANIZATION_ASSIGNMENT ( #8, #18, ( #81 ) ) ;
#108 = MANIFOLD_SOLID_BREP ( '输入1', #71 ) ;
#109 = EDGE_CURVE ( 'NONE', #32, #149, #148, .T. ) ;
#110 = APPLICATION_CONTEXT ( 'configuration controlled 3d designs of mechanical parts and assemblies' ) ;
#111 = APPROVAL_ROLE ( '' ) ;
#112 = ORIENTED_EDGE ( 'NONE', *, *, #17, .F. ) ;
#113 = AXIS2_PLACEMENT_3D ( 'NONE', #60, #61, #36 ) ;
#114 = APPROVAL_ROLE ( '' ) ;
#115 = CALENDAR_DATE ( 2026, 7, 4 ) ;
#116 = LOCAL_TIME ( 22, 39, 25.00000000000000000, #40 ) ;
#117 = DIRECTION ( 'NONE',  ( 1.000000000000000000, 0.000000000000000000, 0.000000000000000000 ) ) ;
#118 = UNCERTAINTY_MEASURE_WITH_UNIT (LENGTH_MEASURE( 1.000000000000000082E-05 ), #74, 'distance_accuracy_value', 'NONE');
#119 = PLANE ( 'NONE',  #55 ) ;
#120 = DIRECTION ( 'NONE',  ( 1.000000000000000000, 0.000000000000000000, 0.000000000000000000 ) ) ;
#121 = VECTOR ( 'NONE', #162, 1000.000000000000000 ) ;
#122 = CC_DESIGN_PERSON_AND_ORGANIZATION_ASSIGNMENT ( #150, #28, ( #125 ) ) ;
#123 = PERSON ( '未指定', '未指定', '未指定', ('未指定'), ('未指定'), ('未指定') ) ;
#124 = APPROVAL_PERSON_ORGANIZATION ( #138, #51, #49 ) ;
#125 = PRODUCT_DEFINITION ( '未知', '', #137, #54 ) ;
#126 = PRODUCT ( 'SiGan_\X2\9ed88ba4\X0\_sldprt', 'SiGan_\X2\9ed88ba4\X0\_sldprt', '', ( #19 ) ) ;
#127 = APPROVAL_DATE_TIME ( #43, #65 ) ;
#128 = CIRCLE ( 'NONE', #88, 5.000000000000000000 ) ;
#129 = CARTESIAN_POINT ( 'NONE',  ( 5.000000000000000000, 6.123233995736766282E-16, 620.0000000000000000 ) ) ;
#130 = CC_DESIGN_APPROVAL ( #139, ( #125 ) ) ;
#131 = CALENDAR_DATE ( 2026, 7, 4 ) ;
#132 = LINE ( 'NONE', #104, #161 ) ;
#133 = CARTESIAN_POINT ( 'NONE',  ( 0.000000000000000000, 0.000000000000000000, 620.0000000000000000 ) ) ;
#134 = EDGE_LOOP ( 'NONE', ( #34, #25, #45, #46 ) ) ;
#135 = CARTESIAN_POINT ( 'NONE',  ( 0.000000000000000000, 0.000000000000000000, 620.0000000000000000 ) ) ;
#136 = EDGE_CURVE ( 'NONE', #146, #144, #128, .T. ) ;
#137 = PRODUCT_DEFINITION_FORMATION_WITH_SPECIFIED_SOURCE ( '任何', '', #126, .NOT_KNOWN. ) ;
#138 = PERSON_AND_ORGANIZATION ( #123, #106 ) ;
#139 = APPROVAL ( #56, '未指定' ) ;
#140 = EDGE_LOOP ( 'NONE', ( #12, #85 ) ) ;
#141 = PERSON_AND_ORGANIZATION_ROLE ( 'design_supplier' ) ;
#142 = DIRECTION ( 'NONE',  ( 0.000000000000000000, 0.000000000000000000, -1.000000000000000000 ) ) ;
#143 = DATE_AND_TIME ( #155, #172 ) ;
#144 = VERTEX_POINT ( 'NONE', #37 ) ;
#145 = AXIS2_PLACEMENT_3D ( 'NONE', #159, #38, #120 ) ;
#146 = VERTEX_POINT ( 'NONE', #129 ) ;
#147 = FACE_OUTER_BOUND ( 'NONE', #134, .T. ) ;
#148 = CIRCLE ( 'NONE', #15, 5.000000000000000000 ) ;
#149 = VERTEX_POINT ( 'NONE', #58 ) ;
#150 = PERSON_AND_ORGANIZATION ( #123, #106 ) ;
#151 = EDGE_CURVE ( 'NONE', #144, #146, #171, .T. ) ;
#152 = LOCAL_TIME ( 22, 39, 25.00000000000000000, #94 ) ;
#153 = DATE_TIME_ROLE ( 'creation_date' ) ;
#154 = CC_DESIGN_PERSON_AND_ORGANIZATION_ASSIGNMENT ( #4, #175, ( #126 ) ) ;
#155 = CALENDAR_DATE ( 2026, 7, 4 ) ;
#156 = DIRECTION ( 'NONE',  ( 0.000000000000000000, 0.000000000000000000, 1.000000000000000000 ) ) ;
#157 = CARTESIAN_POINT ( 'NONE',  ( 5.000000000000000000, 6.123233995736766282E-16, 620.0000000000000000 ) ) ;
#158 = ADVANCED_FACE ( 'NONE', ( #10 ), #62, .F. ) ;
#159 = CARTESIAN_POINT ( 'NONE',  ( 0.000000000000000000, 0.000000000000000000, 620.0000000000000000 ) ) ;
#160 = DIRECTION ( 'NONE',  ( 0.000000000000000000, 0.000000000000000000, 1.000000000000000000 ) ) ;
#161 = VECTOR ( 'NONE', #142, 1000.000000000000000 ) ;
#162 = DIRECTION ( 'NONE',  ( 0.000000000000000000, 0.000000000000000000, -1.000000000000000000 ) ) ;
#163 = APPLICATION_PROTOCOL_DEFINITION ( 'international standard', 'config_control_design', 1994, #59 ) ;
#164 = CALENDAR_DATE ( 2026, 7, 4 ) ;
#165 = CIRCLE ( 'NONE', #66, 5.000000000000000000 ) ;
#166 = COORDINATED_UNIVERSAL_TIME_OFFSET ( 8, 0, .AHEAD. ) ;
#167 = CARTESIAN_POINT ( 'NONE',  ( 0.000000000000000000, 0.000000000000000000, 0.000000000000000000 ) ) ;
#168 = FACE_OUTER_BOUND ( 'NONE', #140, .T. ) ;
#169 = EDGE_LOOP ( 'NONE', ( #112, #170 ) ) ;
#170 = ORIENTED_EDGE ( 'NONE', *, *, #109, .F. ) ;
#171 = CIRCLE ( 'NONE', #145, 5.000000000000000000 ) ;
#172 = LOCAL_TIME ( 22, 39, 25.00000000000000000, #5 ) ;
#173 = ADVANCED_FACE ( 'NONE', ( #168 ), #119, .T. ) ;
#174 = ORIENTED_EDGE ( 'NONE', *, *, #92, .F. ) ;
#175 = PERSON_AND_ORGANIZATION_ROLE ( 'design_owner' ) ;
ENDSEC;
END-ISO-10303-21;
