ISO-10303-21;
HEADER;
FILE_DESCRIPTION (( 'STEP AP203' ),
    '1' );
FILE_NAME ('ZhiJia_默认_sldprt.STEP',
    '2026-04-07T14:39:26',
    ( '' ),
    ( '' ),
    'SwSTEP 2.0',
    'SolidWorks 2022',
    '' );
FILE_SCHEMA (( 'CONFIG_CONTROL_DESIGN' ));
ENDSEC;

DATA;
#1 = ORIENTED_EDGE ( 'NONE', *, *, #181, .F. ) ;
#2 = ORIENTED_EDGE ( 'NONE', *, *, #281, .F. ) ;
#3 = PLANE ( 'NONE',  #361 ) ;
#4 = AXIS2_PLACEMENT_3D ( 'NONE', #329, #394, #445 ) ;
#5 = ORIENTED_EDGE ( 'NONE', *, *, #122, .T. ) ;
#6 = ADVANCED_FACE ( 'NONE', ( #266 ), #455, .F. ) ;
#7 = CARTESIAN_POINT ( 'NONE',  ( 39.82817869415809753, -30.00000000000000000, 10.00000000000000000 ) ) ;
#8 = VERTEX_POINT ( 'NONE', #384 ) ;
#9 = AXIS2_PLACEMENT_3D ( 'NONE', #66, #306, #269 ) ;
#10 = DIRECTION ( 'NONE',  ( 1.000000000000000000, 0.000000000000000000, 0.000000000000000000 ) ) ;
#11 = PLANE ( 'NONE',  #64 ) ;
#12 = CARTESIAN_POINT ( 'NONE',  ( -50.17182130584190247, 0.000000000000000000, 0.000000000000000000 ) ) ;
#13 = DIRECTION ( 'NONE',  ( -1.000000000000000000, 0.000000000000000000, 0.000000000000000000 ) ) ;
#14 = EDGE_CURVE ( 'NONE', #346, #337, #92, .T. ) ;
#15 = CARTESIAN_POINT ( 'NONE',  ( 4.828178694158099304, -20.00000000000000000, 0.000000000000000000 ) ) ;
#16 = CARTESIAN_POINT ( 'NONE',  ( 44.82817869415809753, -30.00000000000000000, 0.000000000000000000 ) ) ;
#17 = DIRECTION ( 'NONE',  ( 0.000000000000000000, 0.000000000000000000, -1.000000000000000000 ) ) ;
#18 = DIRECTION ( 'NONE',  ( 1.000000000000000000, 0.000000000000000000, 0.000000000000000000 ) ) ;
#19 = PERSON_AND_ORGANIZATION ( #106, #335 ) ;
#20 = CYLINDRICAL_SURFACE ( 'NONE', #220, 5.000000000000000888 ) ;
#21 = CIRCLE ( 'NONE', #129, 4.999999999999997335 ) ;
#22 = VERTEX_POINT ( 'NONE', #339 ) ;
#23 = ORIENTED_EDGE ( 'NONE', *, *, #415, .F. ) ;
#24 = EDGE_CURVE ( 'NONE', #28, #22, #414, .T. ) ;
#25 = AXIS2_PLACEMENT_3D ( 'NONE', #431, #325, #10 ) ;
#26 = PERSON_AND_ORGANIZATION ( #106, #335 ) ;
#27 = LINE ( 'NONE', #255, #405 ) ;
#28 = VERTEX_POINT ( 'NONE', #378 ) ;
#29 = APPROVAL ( #162, '未指定' ) ;
#30 = ORIENTED_EDGE ( 'NONE', *, *, #381, .T. ) ;
#31 = APPROVAL_ROLE ( '' ) ;
#32 = ORIENTED_EDGE ( 'NONE', *, *, #458, .F. ) ;
#33 = EDGE_LOOP ( 'NONE', ( #422, #36, #451, #1 ) ) ;
#34 = EDGE_LOOP ( 'NONE', ( #347, #300 ) ) ;
#35 = DIRECTION ( 'NONE',  ( 1.000000000000000000, 0.000000000000000000, 0.000000000000000000 ) ) ;
#36 = ORIENTED_EDGE ( 'NONE', *, *, #281, .T. ) ;
#37 = EDGE_LOOP ( 'NONE', ( #107, #353, #63, #340 ) ) ;
#38 = EDGE_CURVE ( 'NONE', #380, #239, #27, .T. ) ;
#39 = CARTESIAN_POINT ( 'NONE',  ( 39.82817869415809753, -30.00000000000000000, 0.000000000000000000 ) ) ;
#40 = ORIENTED_EDGE ( 'NONE', *, *, #14, .T. ) ;
#41 = DIRECTION ( 'NONE',  ( 2.775557561562890365E-16, -1.000000000000000000, 0.000000000000000000 ) ) ;
#42 = LINE ( 'NONE', #397, #49 ) ;
#43 = AXIS2_PLACEMENT_3D ( 'NONE', #427, #322, #434 ) ;
#44 = DIRECTION ( 'NONE',  ( 1.000000000000000000, 0.000000000000000000, 0.000000000000000000 ) ) ;
#45 = ADVANCED_FACE ( 'NONE', ( #95, #265, #417, #408 ), #171, .F. ) ;
#46 = CARTESIAN_POINT ( 'NONE',  ( -50.17182130584190247, 0.000000000000000000, 10.00000000000000000 ) ) ;
#47 = LOCAL_TIME ( 22, 39, 26.00000000000000000, #140 ) ;
#48 = FACE_BOUND ( 'NONE', #202, .T. ) ;
#49 = VECTOR ( 'NONE', #17, 1000.000000000000000 ) ;
#50 = DIRECTION ( 'NONE',  ( 0.000000000000000000, 1.000000000000000000, 0.000000000000000000 ) ) ;
#51 = LOCAL_TIME ( 22, 39, 26.00000000000000000, #206 ) ;
#52 = ADVANCED_FACE ( 'NONE', ( #454 ), #196, .F. ) ;
#53 = LINE ( 'NONE', #439, #386 ) ;
#54 = CC_DESIGN_DATE_AND_TIME_ASSIGNMENT ( #240, #67, ( #114 ) ) ;
#55 = DIRECTION ( 'NONE',  ( 0.000000000000000000, 0.000000000000000000, -1.000000000000000000 ) ) ;
#56 = CARTESIAN_POINT ( 'NONE',  ( 39.82817869415809753, -30.00000000000000000, 10.00000000000000000 ) ) ;
#57 = CARTESIAN_POINT ( 'NONE',  ( 69.82817869415809753, 0.000000000000000000, 10.00000000000000000 ) ) ;
#58 = EDGE_CURVE ( 'NONE', #167, #346, #143, .T. ) ;
#59 = CC_DESIGN_APPROVAL ( #126, ( #114 ) ) ;
#60 = VECTOR ( 'NONE', #214, 1000.000000000000000 ) ;
#61 = ORIENTED_EDGE ( 'NONE', *, *, #415, .T. ) ;
#62 = PERSON_AND_ORGANIZATION ( #106, #335 ) ;
#63 = ORIENTED_EDGE ( 'NONE', *, *, #435, .F. ) ;
#64 = AXIS2_PLACEMENT_3D ( 'NONE', #254, #226, #154 ) ;
#65 = VERTEX_POINT ( 'NONE', #262 ) ;
#66 = CARTESIAN_POINT ( 'NONE',  ( 9.828178694158099304, -20.00000000000000000, 10.00000000000000000 ) ) ;
#67 = DATE_TIME_ROLE ( 'classification_date' ) ;
#68 = DIRECTION ( 'NONE',  ( 0.000000000000000000, 0.000000000000000000, 1.000000000000000000 ) ) ;
#69 = AXIS2_PLACEMENT_3D ( 'NONE', #258, #138, #305 ) ;
#70 = ORIENTED_EDGE ( 'NONE', *, *, #96, .T. ) ;
#71 = VECTOR ( 'NONE', #358, 1000.000000000000000 ) ;
#72 = EDGE_CURVE ( 'NONE', #412, #239, #425, .T. ) ;
#73 = CARTESIAN_POINT ( 'NONE',  ( 9.828178694158099304, -20.00000000000000000, 0.000000000000000000 ) ) ;
#74 = ORIENTED_EDGE ( 'NONE', *, *, #38, .T. ) ;
#75 = EDGE_LOOP ( 'NONE', ( #209, #136, #139, #334 ) ) ;
#76 = DIRECTION ( 'NONE',  ( 0.000000000000000000, 0.000000000000000000, 1.000000000000000000 ) ) ;
#77 = EDGE_CURVE ( 'NONE', #210, #412, #294, .T. ) ;
#78 = CARTESIAN_POINT ( 'NONE',  ( -15.17182130584189892, -30.00000000000000000, 10.00000000000000000 ) ) ;
#79 = ORIENTED_EDGE ( 'NONE', *, *, #188, .F. ) ;
#80 = DIRECTION ( 'NONE',  ( 0.000000000000000000, 0.000000000000000000, 1.000000000000000000 ) ) ;
#81 = ORIENTED_EDGE ( 'NONE', *, *, #77, .F. ) ;
#82 = CARTESIAN_POINT ( 'NONE',  ( 14.82817869415809930, -20.00000000000000000, 10.00000000000000000 ) ) ;
#83 = EDGE_CURVE ( 'NONE', #350, #355, #42, .T. ) ;
#84 = LINE ( 'NONE', #218, #71 ) ;
#85 = DIRECTION ( 'NONE',  ( 1.000000000000000000, 2.775557561562890365E-16, 0.000000000000000000 ) ) ;
#86 = AXIS2_PLACEMENT_3D ( 'NONE', #253, #93, #230 ) ;
#87 = CARTESIAN_POINT ( 'NONE',  ( 44.82817869415809753, -30.00000000000000000, 10.00000000000000000 ) ) ;
#88 = FACE_OUTER_BOUND ( 'NONE', #75, .T. ) ;
#89 = VECTOR ( 'NONE', #280, 1000.000000000000000 ) ;
#90 = DATE_AND_TIME ( #441, #145 ) ;
#91 = EDGE_CURVE ( 'NONE', #167, #149, #303, .T. ) ;
#92 = CIRCLE ( 'NONE', #326, 5.000000000000000888 ) ;
#93 = DIRECTION ( 'NONE',  ( 0.000000000000000000, 0.000000000000000000, 1.000000000000000000 ) ) ;
#94 = DIRECTION ( 'NONE',  ( 0.000000000000000000, 0.000000000000000000, 1.000000000000000000 ) ) ;
#95 = FACE_OUTER_BOUND ( 'NONE', #376, .T. ) ;
#96 = EDGE_CURVE ( 'NONE', #210, #380, #112, .T. ) ;
#97 = DIRECTION ( 'NONE',  ( 1.000000000000000000, 0.000000000000000000, 0.000000000000000000 ) ) ;
#98 = DIRECTION ( 'NONE',  ( 1.000000000000000000, 0.000000000000000000, 0.000000000000000000 ) ) ;
#99 = EDGE_LOOP ( 'NONE', ( #113, #30, #418, #172 ) ) ;
#100 = PERSON_AND_ORGANIZATION ( #106, #335 ) ;
#101 = ORIENTED_EDGE ( 'NONE', *, *, #323, .T. ) ;
#102 = CARTESIAN_POINT ( 'NONE',  ( 69.82817869415809753, 0.000000000000000000, 0.000000000000000000 ) ) ;
#103 = ORIENTED_EDGE ( 'NONE', *, *, #349, .T. ) ;
#104 = CARTESIAN_POINT ( 'NONE',  ( 34.82817869415809753, -30.00000000000000000, 10.00000000000000000 ) ) ;
#105 = AXIS2_PLACEMENT_3D ( 'NONE', #287, #327, #97 ) ;
#106 = PERSON ( '未指定', '未指定', '未指定', ('未指定'), ('未指定'), ('未指定') ) ;
#107 = ORIENTED_EDGE ( 'NONE', *, *, #428, .T. ) ;
#108 = VECTOR ( 'NONE', #13, 1000.000000000000000 ) ;
#109 = SHAPE_DEFINITION_REPRESENTATION ( #351, #282 ) ;
#110 = ADVANCED_FACE ( 'NONE', ( #290 ), #371, .F. ) ;
#111 = EDGE_LOOP ( 'NONE', ( #204, #244, #256, #374 ) ) ;
#112 = CIRCLE ( 'NONE', #224, 5.000000000000000888 ) ;
#113 = ORIENTED_EDGE ( 'NONE', *, *, #91, .T. ) ;
#114 = SECURITY_CLASSIFICATION ( '', '', #352 ) ;
#115 = CARTESIAN_POINT ( 'NONE',  ( -50.17182130584190247, -50.00000000000000000, 10.00000000000000000 ) ) ;
#116 = PLANE ( 'NONE',  #123 ) ;
#117 = CARTESIAN_POINT ( 'NONE',  ( -50.17182130584190247, -50.00000000000000000, 10.00000000000000000 ) ) ;
#118 = ADVANCED_FACE ( 'NONE', ( #440 ), #11, .F. ) ;
#119 = CARTESIAN_POINT ( 'NONE',  ( -25.17182130584190247, -30.00000000000000000, 0.000000000000000000 ) ) ;
#120 = CYLINDRICAL_SURFACE ( 'NONE', #420, 4.999999999999997335 ) ;
#121 = CARTESIAN_POINT ( 'NONE',  ( -50.17182130584190247, 0.000000000000000000, 10.00000000000000000 ) ) ;
#122 = EDGE_CURVE ( 'NONE', #452, #28, #125, .T. ) ;
#123 = AXIS2_PLACEMENT_3D ( 'NONE', #217, #318, #307 ) ;
#124 = CARTESIAN_POINT ( 'NONE',  ( 34.82817869415809753, -30.00000000000000000, 0.000000000000000000 ) ) ;
#125 = LINE ( 'NONE', #245, #402 ) ;
#126 = APPROVAL ( #344, '未指定' ) ;
#127 = MANIFOLD_SOLID_BREP ( '输入1', #151 ) ;
#128 = APPLICATION_PROTOCOL_DEFINITION ( 'international standard', 'config_control_design', 1994, #330 ) ;
#129 = AXIS2_PLACEMENT_3D ( 'NONE', #192, #94, #168 ) ;
#130 = DIRECTION ( 'NONE',  ( 0.000000000000000000, 0.000000000000000000, 1.000000000000000000 ) ) ;
#131 = DIRECTION ( 'NONE',  ( -1.000000000000000000, 0.000000000000000000, 0.000000000000000000 ) ) ;
#132 = DIRECTION ( 'NONE',  ( 0.000000000000000000, 0.000000000000000000, 1.000000000000000000 ) ) ;
#133 = EDGE_CURVE ( 'NONE', #355, #313, #336, .T. ) ;
#134 = COORDINATED_UNIVERSAL_TIME_OFFSET ( 8, 0, .AHEAD. ) ;
#135 = CARTESIAN_POINT ( 'NONE',  ( 34.82817869415809753, -30.00000000000000000, 10.00000000000000000 ) ) ;
#136 = ORIENTED_EDGE ( 'NONE', *, *, #207, .T. ) ;
#137 = APPROVAL_STATUS ( 'not_yet_approved' ) ;
#138 = DIRECTION ( 'NONE',  ( 0.000000000000000000, 0.000000000000000000, 1.000000000000000000 ) ) ;
#139 = ORIENTED_EDGE ( 'NONE', *, *, #153, .T. ) ;
#140 = COORDINATED_UNIVERSAL_TIME_OFFSET ( 8, 0, .AHEAD. ) ;
#141 = ORIENTED_EDGE ( 'NONE', *, *, #72, .F. ) ;
#142 = ADVANCED_FACE ( 'NONE', ( #252 ), #20, .F. ) ;
#143 = LINE ( 'NONE', #268, #190 ) ;
#144 = ORIENTED_EDGE ( 'NONE', *, *, #349, .F. ) ;
#145 = LOCAL_TIME ( 22, 39, 26.00000000000000000, #193 ) ;
#146 = VECTOR ( 'NONE', #41, 1000.000000000000000 ) ;
#147 = ADVANCED_FACE ( 'NONE', ( #368 ), #194, .F. ) ;
#148 = VECTOR ( 'NONE', #179, 1000.000000000000000 ) ;
#149 = VERTEX_POINT ( 'NONE', #82 ) ;
#150 = DIRECTION ( 'NONE',  ( 0.000000000000000000, 0.000000000000000000, -1.000000000000000000 ) ) ;
#151 = CLOSED_SHELL ( 'NONE', ( #6, #52, #401, #370, #45, #110, #118, #161, #195, #142, #288, #147 ) ) ;
#152 = FACE_BOUND ( 'NONE', #173, .T. ) ;
#153 = EDGE_CURVE ( 'NONE', #177, #421, #357, .T. ) ;
#154 = DIRECTION ( 'NONE',  ( 0.000000000000000000, 0.000000000000000000, 1.000000000000000000 ) ) ;
#155 = DIRECTION ( 'NONE',  ( -1.000000000000000000, 0.000000000000000000, 0.000000000000000000 ) ) ;
#156 = UNCERTAINTY_MEASURE_WITH_UNIT (LENGTH_MEASURE( 1.000000000000000082E-05 ), #373, 'distance_accuracy_value', 'NONE');
#157 = LINE ( 'NONE', #115, #166 ) ;
#158 = FACE_OUTER_BOUND ( 'NONE', #383, .T. ) ;
#159 = CARTESIAN_POINT ( 'NONE',  ( -20.17182130584189892, -30.00000000000000000, 10.00000000000000000 ) ) ;
#160 =( NAMED_UNIT ( * ) SI_UNIT ( $, .STERADIAN. ) SOLID_ANGLE_UNIT ( ) );
#161 = ADVANCED_FACE ( 'NONE', ( #430 ), #116, .F. ) ;
#162 = APPROVAL_STATUS ( 'not_yet_approved' ) ;
#163 = AXIS2_PLACEMENT_3D ( 'NONE', #39, #396, #44 ) ;
#164 = CARTESIAN_POINT ( 'NONE',  ( -50.17182130584190247, 0.000000000000000000, 10.00000000000000000 ) ) ;
#165 = EDGE_LOOP ( 'NONE', ( #388, #310 ) ) ;
#166 = VECTOR ( 'NONE', #250, 1000.000000000000000 ) ;
#167 = VERTEX_POINT ( 'NONE', #459 ) ;
#168 = DIRECTION ( 'NONE',  ( 1.000000000000000000, 0.000000000000000000, 0.000000000000000000 ) ) ;
#169 = ORIENTED_EDGE ( 'NONE', *, *, #458, .T. ) ;
#170 = AXIS2_PLACEMENT_3D ( 'NONE', #332, #130, #185 ) ;
#171 = PLANE ( 'NONE',  #69 ) ;
#172 = ORIENTED_EDGE ( 'NONE', *, *, #58, .F. ) ;
#173 = EDGE_LOOP ( 'NONE', ( #345, #2 ) ) ;
#174 = ORIENTED_EDGE ( 'NONE', *, *, #234, .T. ) ;
#175 = PERSON_AND_ORGANIZATION ( #106, #335 ) ;
#176 = CC_DESIGN_SECURITY_CLASSIFICATION ( #114, ( #277 ) ) ;
#177 = VERTEX_POINT ( 'NONE', #104 ) ;
#178 = AXIS2_PLACEMENT_3D ( 'NONE', #7, #80, #354 ) ;
#179 = DIRECTION ( 'NONE',  ( 0.000000000000000000, 0.000000000000000000, -1.000000000000000000 ) ) ;
#180 = ORIENTED_EDGE ( 'NONE', *, *, #122, .F. ) ;
#181 = EDGE_CURVE ( 'NONE', #337, #346, #377, .T. ) ;
#182 = DIRECTION ( 'NONE',  ( -1.000000000000000000, 0.000000000000000000, 0.000000000000000000 ) ) ;
#183 = AXIS2_PLACEMENT_3D ( 'NONE', #279, #184, #251 ) ;
#184 = DIRECTION ( 'NONE',  ( 0.000000000000000000, 0.000000000000000000, 1.000000000000000000 ) ) ;
#185 = DIRECTION ( 'NONE',  ( 1.000000000000000000, 0.000000000000000000, 0.000000000000000000 ) ) ;
#186 = AXIS2_PLACEMENT_3D ( 'NONE', #219, #437, #360 ) ;
#187 = CARTESIAN_POINT ( 'NONE',  ( 14.82817869415809930, -20.00000000000000000, 0.000000000000000000 ) ) ;
#188 = EDGE_CURVE ( 'NONE', #239, #412, #296, .T. ) ;
#189 = CARTESIAN_POINT ( 'NONE',  ( -25.17182130584190247, -30.00000000000000000, 10.00000000000000000 ) ) ;
#190 = VECTOR ( 'NONE', #369, 1000.000000000000000 ) ;
#191 = CC_DESIGN_PERSON_AND_ORGANIZATION_ASSIGNMENT ( #62, #223, ( #277 ) ) ;
#192 = CARTESIAN_POINT ( 'NONE',  ( 39.82817869415809753, -30.00000000000000000, 0.000000000000000000 ) ) ;
#193 = COORDINATED_UNIVERSAL_TIME_OFFSET ( 8, 0, .AHEAD. ) ;
#194 = CYLINDRICAL_SURFACE ( 'NONE', #4, 5.000000000000000000 ) ;
#195 = ADVANCED_FACE ( 'NONE', ( #270 ), #3, .F. ) ;
#196 = CYLINDRICAL_SURFACE ( 'NONE', #391, 4.999999999999997335 ) ;
#197 = ORIENTED_EDGE ( 'NONE', *, *, #83, .F. ) ;
#198 = EDGE_LOOP ( 'NONE', ( #271, #429 ) ) ;
#199 = EDGE_LOOP ( 'NONE', ( #40, #302 ) ) ;
#200 = CARTESIAN_POINT ( 'NONE',  ( 69.82817869415809753, -50.00000000000000000, 10.00000000000000000 ) ) ;
#201 = DIRECTION ( 'NONE',  ( 1.000000000000000000, 0.000000000000000000, 0.000000000000000000 ) ) ;
#202 = EDGE_LOOP ( 'NONE', ( #215, #263 ) ) ;
#203 = EDGE_CURVE ( 'NONE', #22, #355, #267, .T. ) ;
#204 = ORIENTED_EDGE ( 'NONE', *, *, #133, .T. ) ;
#205 = ORIENTED_EDGE ( 'NONE', *, *, #133, .F. ) ;
#206 = COORDINATED_UNIVERSAL_TIME_OFFSET ( 8, 0, .AHEAD. ) ;
#207 = EDGE_CURVE ( 'NONE', #235, #177, #274, .T. ) ;
#208 = CARTESIAN_POINT ( 'NONE',  ( -50.17182130584190247, 0.000000000000000000, 10.00000000000000000 ) ) ;
#209 = ORIENTED_EDGE ( 'NONE', *, *, #395, .F. ) ;
#210 = VERTEX_POINT ( 'NONE', #189 ) ;
#211 = PERSON_AND_ORGANIZATION_ROLE ( 'design_supplier' ) ;
#212 = CC_DESIGN_DATE_AND_TIME_ASSIGNMENT ( #90, #331, ( #390 ) ) ;
#213 = DIRECTION ( 'NONE',  ( 0.000000000000000000, -1.000000000000000000, 0.000000000000000000 ) ) ;
#214 = DIRECTION ( 'NONE',  ( 0.000000000000000000, 0.000000000000000000, -1.000000000000000000 ) ) ;
#215 = ORIENTED_EDGE ( 'NONE', *, *, #428, .F. ) ;
#216 = DIRECTION ( 'NONE',  ( 0.000000000000000000, 0.000000000000000000, -1.000000000000000000 ) ) ;
#217 = CARTESIAN_POINT ( 'NONE',  ( 69.82817869415809753, 0.000000000000000000, 10.00000000000000000 ) ) ;
#218 = CARTESIAN_POINT ( 'NONE',  ( 44.82817869415809753, -30.00000000000000000, 10.00000000000000000 ) ) ;
#219 = CARTESIAN_POINT ( 'NONE',  ( -20.17182130584189892, -30.00000000000000000, 10.00000000000000000 ) ) ;
#220 = AXIS2_PLACEMENT_3D ( 'NONE', #293, #278, #404 ) ;
#221 = LINE ( 'NONE', #362, #272 ) ;
#222 = PRODUCT_RELATED_PRODUCT_CATEGORY ( 'detail', '', ( #247 ) ) ;
#223 = PERSON_AND_ORGANIZATION_ROLE ( 'creator' ) ;
#224 = AXIS2_PLACEMENT_3D ( 'NONE', #159, #289, #257 ) ;
#225 = PERSON_AND_ORGANIZATION_ROLE ( 'design_owner' ) ;
#226 = DIRECTION ( 'NONE',  ( 0.000000000000000000, 1.000000000000000000, 0.000000000000000000 ) ) ;
#227 = CARTESIAN_POINT ( 'NONE',  ( -20.17182130584189892, -30.00000000000000000, 0.000000000000000000 ) ) ;
#228 = DIRECTION ( 'NONE',  ( -2.775557561562890365E-16, 1.000000000000000000, 0.000000000000000000 ) ) ;
#229 = CC_DESIGN_PERSON_AND_ORGANIZATION_ASSIGNMENT ( #363, #211, ( #277 ) ) ;
#230 = DIRECTION ( 'NONE',  ( 1.000000000000000000, 0.000000000000000000, 0.000000000000000000 ) ) ;
#231 = EDGE_LOOP ( 'NONE', ( #169, #180, #449, #232 ) ) ;
#232 = ORIENTED_EDGE ( 'NONE', *, *, #275, .T. ) ;
#233 = DATE_AND_TIME ( #444, #304 ) ;
#234 = EDGE_CURVE ( 'NONE', #65, #452, #157, .T. ) ;
#235 = VERTEX_POINT ( 'NONE', #87 ) ;
#236 = APPROVAL_DATE_TIME ( #456, #126 ) ;
#237 = DIRECTION ( 'NONE',  ( 0.000000000000000000, 1.000000000000000000, 0.000000000000000000 ) ) ;
#238 = DIRECTION ( 'NONE',  ( 0.000000000000000000, 0.000000000000000000, -1.000000000000000000 ) ) ;
#239 = VERTEX_POINT ( 'NONE', #436 ) ;
#240 = DATE_AND_TIME ( #453, #364 ) ;
#241 = VECTOR ( 'NONE', #50, 1000.000000000000000 ) ;
#242 = VECTOR ( 'NONE', #407, 1000.000000000000000 ) ;
#243 = CARTESIAN_POINT ( 'NONE',  ( 39.82817869415809753, -30.00000000000000000, 10.00000000000000000 ) ) ;
#244 = ORIENTED_EDGE ( 'NONE', *, *, #275, .F. ) ;
#245 = CARTESIAN_POINT ( 'NONE',  ( 69.82817869415809753, -50.00000000000000000, 10.00000000000000000 ) ) ;
#246 = LINE ( 'NONE', #283, #60 ) ;
#247 = PRODUCT ( 'ZhiJia_\X2\9ed88ba4\X0\_sldprt', 'ZhiJia_\X2\9ed88ba4\X0\_sldprt', '', ( #297 ) ) ;
#248 = LINE ( 'NONE', #57, #241 ) ;
#249 = APPROVAL_PERSON_ORGANIZATION ( #19, #29, #292 ) ;
#250 = DIRECTION ( 'NONE',  ( 1.000000000000000000, 0.000000000000000000, 0.000000000000000000 ) ) ;
#251 = DIRECTION ( 'NONE',  ( 1.000000000000000000, 0.000000000000000000, 0.000000000000000000 ) ) ;
#252 = FACE_OUTER_BOUND ( 'NONE', #372, .T. ) ;
#253 = CARTESIAN_POINT ( 'NONE',  ( 0.000000000000000000, 0.000000000000000000, 0.000000000000000000 ) ) ;
#254 = CARTESIAN_POINT ( 'NONE',  ( -50.17182130584190247, -50.00000000000000000, 10.00000000000000000 ) ) ;
#255 = CARTESIAN_POINT ( 'NONE',  ( -15.17182130584189892, -30.00000000000000000, 10.00000000000000000 ) ) ;
#256 = ORIENTED_EDGE ( 'NONE', *, *, #314, .F. ) ;
#257 = DIRECTION ( 'NONE',  ( 1.000000000000000000, 0.000000000000000000, 0.000000000000000000 ) ) ;
#258 = CARTESIAN_POINT ( 'NONE',  ( 0.000000000000000000, 0.000000000000000000, 0.000000000000000000 ) ) ;
#259 = ORIENTED_EDGE ( 'NONE', *, *, #203, .T. ) ;
#260 = EDGE_CURVE ( 'NONE', #380, #210, #424, .T. ) ;
#261 = PERSON_AND_ORGANIZATION ( #106, #335 ) ;
#262 = CARTESIAN_POINT ( 'NONE',  ( -50.17182130584190247, -50.00000000000000000, 10.00000000000000000 ) ) ;
#263 = ORIENTED_EDGE ( 'NONE', *, *, #207, .F. ) ;
#264 = AXIS2_PLACEMENT_3D ( 'NONE', #227, #411, #98 ) ;
#265 = FACE_BOUND ( 'NONE', #198, .T. ) ;
#266 = FACE_OUTER_BOUND ( 'NONE', #99, .T. ) ;
#267 = LINE ( 'NONE', #12, #108 ) ;
#268 = CARTESIAN_POINT ( 'NONE',  ( 4.828178694158099304, -20.00000000000000000, 10.00000000000000000 ) ) ;
#269 = DIRECTION ( 'NONE',  ( -1.000000000000000000, 0.000000000000000000, 0.000000000000000000 ) ) ;
#270 = FACE_OUTER_BOUND ( 'NONE', #273, .T. ) ;
#271 = ORIENTED_EDGE ( 'NONE', *, *, #72, .T. ) ;
#272 = VECTOR ( 'NONE', #150, 1000.000000000000000 ) ;
#273 = EDGE_LOOP ( 'NONE', ( #259, #197, #308, #103 ) ) ;
#274 = CIRCLE ( 'NONE', #178, 4.999999999999997335 ) ;
#275 = EDGE_CURVE ( 'NONE', #65, #313, #400, .T. ) ;
#276 = FACE_OUTER_BOUND ( 'NONE', #317, .T. ) ;
#277 = PRODUCT_DEFINITION_FORMATION_WITH_SPECIFIED_SOURCE ( '任何', '', #247, .NOT_KNOWN. ) ;
#278 = DIRECTION ( 'NONE',  ( 0.000000000000000000, 0.000000000000000000, -1.000000000000000000 ) ) ;
#279 = CARTESIAN_POINT ( 'NONE',  ( 0.000000000000000000, 0.000000000000000000, 10.00000000000000000 ) ) ;
#280 = DIRECTION ( 'NONE',  ( 2.775557561562890365E-16, -1.000000000000000000, 0.000000000000000000 ) ) ;
#281 = EDGE_CURVE ( 'NONE', #149, #167, #448, .T. ) ;
#282 = ADVANCED_BREP_SHAPE_REPRESENTATION ( 'ZhiJia_\X2\9ed88ba4\X0\_sldprt', ( #127, #86 ), #359 ) ;
#283 = CARTESIAN_POINT ( 'NONE',  ( 14.82817869415809930, -20.00000000000000000, 10.00000000000000000 ) ) ;
#284 = CARTESIAN_POINT ( 'NONE',  ( -50.17182130584190247, 0.000000000000000000, 10.00000000000000000 ) ) ;
#285 = CC_DESIGN_APPROVAL ( #29, ( #277 ) ) ;
#286 = PLANE ( 'NONE',  #183 ) ;
#287 = CARTESIAN_POINT ( 'NONE',  ( 39.82817869415809753, -30.00000000000000000, 10.00000000000000000 ) ) ;
#288 = ADVANCED_FACE ( 'NONE', ( #88 ), #120, .F. ) ;
#289 = DIRECTION ( 'NONE',  ( 0.000000000000000000, 0.000000000000000000, 1.000000000000000000 ) ) ;
#290 = FACE_OUTER_BOUND ( 'NONE', #111, .T. ) ;
#291 = CARTESIAN_POINT ( 'NONE',  ( 9.828178694158099304, -20.00000000000000000, 0.000000000000000000 ) ) ;
#292 = APPROVAL_ROLE ( '' ) ;
#293 = CARTESIAN_POINT ( 'NONE',  ( -20.17182130584189892, -30.00000000000000000, 10.00000000000000000 ) ) ;
#294 = LINE ( 'NONE', #446, #242 ) ;
#295 = ORIENTED_EDGE ( 'NONE', *, *, #24, .F. ) ;
#296 = CIRCLE ( 'NONE', #338, 5.000000000000000888 ) ;
#297 = MECHANICAL_CONTEXT ( 'NONE', #330, 'mechanical' ) ;
#298 = APPROVAL ( #137, '未指定' ) ;
#299 =( NAMED_UNIT ( * ) PLANE_ANGLE_UNIT ( ) SI_UNIT ( $, .RADIAN. ) );
#300 = ORIENTED_EDGE ( 'NONE', *, *, #387, .T. ) ;
#301 = DIRECTION ( 'NONE',  ( 0.000000000000000000, 0.000000000000000000, -1.000000000000000000 ) ) ;
#302 = ORIENTED_EDGE ( 'NONE', *, *, #181, .T. ) ;
#303 = CIRCLE ( 'NONE', #170, 5.000000000000000888 ) ;
#304 = LOCAL_TIME ( 22, 39, 26.00000000000000000, #134 ) ;
#305 = DIRECTION ( 'NONE',  ( 1.000000000000000000, 0.000000000000000000, 0.000000000000000000 ) ) ;
#306 = DIRECTION ( 'NONE',  ( 0.000000000000000000, 0.000000000000000000, -1.000000000000000000 ) ) ;
#307 = DIRECTION ( 'NONE',  ( 0.000000000000000000, 0.000000000000000000, 1.000000000000000000 ) ) ;
#308 = ORIENTED_EDGE ( 'NONE', *, *, #323, .F. ) ;
#309 = ORIENTED_EDGE ( 'NONE', *, *, #24, .T. ) ;
#310 = ORIENTED_EDGE ( 'NONE', *, *, #260, .F. ) ;
#311 = APPROVAL_PERSON_ORGANIZATION ( #261, #298, #367 ) ;
#312 = DIRECTION ( 'NONE',  ( 1.000000000000000000, 0.000000000000000000, 0.000000000000000000 ) ) ;
#313 = VERTEX_POINT ( 'NONE', #356 ) ;
#314 = EDGE_CURVE ( 'NONE', #350, #65, #324, .T. ) ;
#315 = VECTOR ( 'NONE', #410, 1000.000000000000000 ) ;
#316 = CYLINDRICAL_SURFACE ( 'NONE', #43, 5.000000000000000888 ) ;
#317 = EDGE_LOOP ( 'NONE', ( #70, #74, #141, #81 ) ) ;
#318 = DIRECTION ( 'NONE',  ( -1.000000000000000000, 0.000000000000000000, 0.000000000000000000 ) ) ;
#319 = FACE_BOUND ( 'NONE', #165, .T. ) ;
#320 = APPROVAL_PERSON_ORGANIZATION ( #175, #126, #31 ) ;
#321 = CIRCLE ( 'NONE', #105, 4.999999999999997335 ) ;
#322 = DIRECTION ( 'NONE',  ( 0.000000000000000000, 0.000000000000000000, -1.000000000000000000 ) ) ;
#323 = EDGE_CURVE ( 'NONE', #8, #350, #392, .T. ) ;
#324 = LINE ( 'NONE', #46, #146 ) ;
#325 = DIRECTION ( 'NONE',  ( 0.000000000000000000, 0.000000000000000000, 1.000000000000000000 ) ) ;
#326 = AXIS2_PLACEMENT_3D ( 'NONE', #291, #132, #201 ) ;
#327 = DIRECTION ( 'NONE',  ( 0.000000000000000000, 0.000000000000000000, 1.000000000000000000 ) ) ;
#328 = APPROVAL_DATE_TIME ( #403, #298 ) ;
#329 = CARTESIAN_POINT ( 'NONE',  ( 9.828178694158099304, -20.00000000000000000, 10.00000000000000000 ) ) ;
#330 = APPLICATION_CONTEXT ( 'configuration controlled 3d designs of mechanical parts and assemblies' ) ;
#331 = DATE_TIME_ROLE ( 'creation_date' ) ;
#332 = CARTESIAN_POINT ( 'NONE',  ( 9.828178694158099304, -20.00000000000000000, 10.00000000000000000 ) ) ;
#333 = DIRECTION ( 'NONE',  ( 0.000000000000000000, 0.000000000000000000, -1.000000000000000000 ) ) ;
#334 = ORIENTED_EDGE ( 'NONE', *, *, #387, .F. ) ;
#335 = ORGANIZATION ( '未指定', '未指定', '' ) ;
#336 = LINE ( 'NONE', #442, #89 ) ;
#337 = VERTEX_POINT ( 'NONE', #187 ) ;
#338 = AXIS2_PLACEMENT_3D ( 'NONE', #389, #76, #35 ) ;
#339 = CARTESIAN_POINT ( 'NONE',  ( 69.82817869415809753, 0.000000000000000000, 0.000000000000000000 ) ) ;
#340 = ORIENTED_EDGE ( 'NONE', *, *, #153, .F. ) ;
#341 = PERSON_AND_ORGANIZATION_ROLE ( 'classification_officer' ) ;
#342 = ORIENTED_EDGE ( 'NONE', *, *, #203, .F. ) ;
#343 = VECTOR ( 'NONE', #237, 1000.000000000000000 ) ;
#344 = APPROVAL_STATUS ( 'not_yet_approved' ) ;
#345 = ORIENTED_EDGE ( 'NONE', *, *, #91, .F. ) ;
#346 = VERTEX_POINT ( 'NONE', #15 ) ;
#347 = ORIENTED_EDGE ( 'NONE', *, *, #435, .T. ) ;
#348 = PERSON_AND_ORGANIZATION ( #106, #335 ) ;
#349 = EDGE_CURVE ( 'NONE', #8, #22, #221, .T. ) ;
#350 = VERTEX_POINT ( 'NONE', #121 ) ;
#351 = PRODUCT_DEFINITION_SHAPE ( 'NONE', 'NONE',  #390 ) ;
#352 = SECURITY_CLASSIFICATION_LEVEL ( 'unclassified' ) ;
#353 = ORIENTED_EDGE ( 'NONE', *, *, #395, .T. ) ;
#354 = DIRECTION ( 'NONE',  ( 1.000000000000000000, 0.000000000000000000, 0.000000000000000000 ) ) ;
#355 = VERTEX_POINT ( 'NONE', #398 ) ;
#356 = CARTESIAN_POINT ( 'NONE',  ( -50.17182130584190247, -50.00000000000000000, 0.000000000000000000 ) ) ;
#357 = LINE ( 'NONE', #135, #315 ) ;
#358 = DIRECTION ( 'NONE',  ( 0.000000000000000000, 0.000000000000000000, -1.000000000000000000 ) ) ;
#359 =( GEOMETRIC_REPRESENTATION_CONTEXT ( 3 ) GLOBAL_UNCERTAINTY_ASSIGNED_CONTEXT ( ( #156 ) ) GLOBAL_UNIT_ASSIGNED_CONTEXT ( ( #373, #299, #160 ) ) REPRESENTATION_CONTEXT ( 'NONE', 'WORKASPACE' ) );
#360 = DIRECTION ( 'NONE',  ( 1.000000000000000000, 0.000000000000000000, 0.000000000000000000 ) ) ;
#361 = AXIS2_PLACEMENT_3D ( 'NONE', #208, #213, #238 ) ;
#362 = CARTESIAN_POINT ( 'NONE',  ( 69.82817869415809753, 0.000000000000000000, 10.00000000000000000 ) ) ;
#363 = PERSON_AND_ORGANIZATION ( #106, #335 ) ;
#364 = LOCAL_TIME ( 22, 39, 26.00000000000000000, #382 ) ;
#365 = CC_DESIGN_PERSON_AND_ORGANIZATION_ASSIGNMENT ( #348, #341, ( #114 ) ) ;
#366 = DESIGN_CONTEXT ( 'detailed design', #433, 'design' ) ;
#367 = APPROVAL_ROLE ( '' ) ;
#368 = FACE_OUTER_BOUND ( 'NONE', #33, .T. ) ;
#369 = DIRECTION ( 'NONE',  ( 0.000000000000000000, 0.000000000000000000, -1.000000000000000000 ) ) ;
#370 = ADVANCED_FACE ( 'NONE', ( #48, #158, #319, #152 ), #286, .T. ) ;
#371 = PLANE ( 'NONE',  #379 ) ;
#372 = EDGE_LOOP ( 'NONE', ( #419, #409, #416, #79 ) ) ;
#373 =( LENGTH_UNIT ( ) NAMED_UNIT ( * ) SI_UNIT ( .MILLI., .METRE. ) );
#374 = ORIENTED_EDGE ( 'NONE', *, *, #83, .T. ) ;
#375 = APPROVAL_DATE_TIME ( #233, #29 ) ;
#376 = EDGE_LOOP ( 'NONE', ( #205, #342, #295, #32 ) ) ;
#377 = CIRCLE ( 'NONE', #438, 5.000000000000000888 ) ;
#378 = CARTESIAN_POINT ( 'NONE',  ( 69.82817869415809753, -50.00000000000000000, 0.000000000000000000 ) ) ;
#379 = AXIS2_PLACEMENT_3D ( 'NONE', #164, #85, #228 ) ;
#380 = VERTEX_POINT ( 'NONE', #78 ) ;
#381 = EDGE_CURVE ( 'NONE', #149, #337, #246, .T. ) ;
#382 = COORDINATED_UNIVERSAL_TIME_OFFSET ( 8, 0, .AHEAD. ) ;
#383 = EDGE_LOOP ( 'NONE', ( #457, #174, #61, #101 ) ) ;
#384 = CARTESIAN_POINT ( 'NONE',  ( 69.82817869415809753, 0.000000000000000000, 10.00000000000000000 ) ) ;
#385 = CC_DESIGN_PERSON_AND_ORGANIZATION_ASSIGNMENT ( #26, #225, ( #247 ) ) ;
#386 = VECTOR ( 'NONE', #18, 1000.000000000000000 ) ;
#387 = EDGE_CURVE ( 'NONE', #447, #421, #443, .T. ) ;
#388 = ORIENTED_EDGE ( 'NONE', *, *, #96, .F. ) ;
#389 = CARTESIAN_POINT ( 'NONE',  ( -20.17182130584189892, -30.00000000000000000, 0.000000000000000000 ) ) ;
#390 = PRODUCT_DEFINITION ( '未知', '', #277, #366 ) ;
#391 = AXIS2_PLACEMENT_3D ( 'NONE', #56, #333, #131 ) ;
#392 = LINE ( 'NONE', #284, #399 ) ;
#393 = EDGE_LOOP ( 'NONE', ( #309, #144, #23, #5 ) ) ;
#394 = DIRECTION ( 'NONE',  ( 0.000000000000000000, 0.000000000000000000, -1.000000000000000000 ) ) ;
#395 = EDGE_CURVE ( 'NONE', #235, #447, #84, .T. ) ;
#396 = DIRECTION ( 'NONE',  ( 0.000000000000000000, 0.000000000000000000, 1.000000000000000000 ) ) ;
#397 = CARTESIAN_POINT ( 'NONE',  ( -50.17182130584190247, 0.000000000000000000, 10.00000000000000000 ) ) ;
#398 = CARTESIAN_POINT ( 'NONE',  ( -50.17182130584190247, 0.000000000000000000, 0.000000000000000000 ) ) ;
#399 = VECTOR ( 'NONE', #182, 1000.000000000000000 ) ;
#400 = LINE ( 'NONE', #117, #148 ) ;
#401 = ADVANCED_FACE ( 'NONE', ( #276 ), #316, .F. ) ;
#402 = VECTOR ( 'NONE', #55, 1000.000000000000000 ) ;
#403 = DATE_AND_TIME ( #406, #47 ) ;
#404 = DIRECTION ( 'NONE',  ( -1.000000000000000000, 0.000000000000000000, 0.000000000000000000 ) ) ;
#405 = VECTOR ( 'NONE', #301, 1000.000000000000000 ) ;
#406 = CALENDAR_DATE ( 2026, 7, 4 ) ;
#407 = DIRECTION ( 'NONE',  ( 0.000000000000000000, 0.000000000000000000, -1.000000000000000000 ) ) ;
#408 = FACE_BOUND ( 'NONE', #199, .T. ) ;
#409 = ORIENTED_EDGE ( 'NONE', *, *, #260, .T. ) ;
#410 = DIRECTION ( 'NONE',  ( 0.000000000000000000, 0.000000000000000000, -1.000000000000000000 ) ) ;
#411 = DIRECTION ( 'NONE',  ( 0.000000000000000000, 0.000000000000000000, 1.000000000000000000 ) ) ;
#412 = VERTEX_POINT ( 'NONE', #119 ) ;
#413 = APPLICATION_PROTOCOL_DEFINITION ( 'international standard', 'config_control_design', 1994, #433 ) ;
#414 = LINE ( 'NONE', #102, #343 ) ;
#415 = EDGE_CURVE ( 'NONE', #452, #8, #248, .T. ) ;
#416 = ORIENTED_EDGE ( 'NONE', *, *, #77, .T. ) ;
#417 = FACE_BOUND ( 'NONE', #34, .T. ) ;
#418 = ORIENTED_EDGE ( 'NONE', *, *, #14, .F. ) ;
#419 = ORIENTED_EDGE ( 'NONE', *, *, #38, .F. ) ;
#420 = AXIS2_PLACEMENT_3D ( 'NONE', #243, #216, #155 ) ;
#421 = VERTEX_POINT ( 'NONE', #124 ) ;
#422 = ORIENTED_EDGE ( 'NONE', *, *, #381, .F. ) ;
#423 = CALENDAR_DATE ( 2026, 7, 4 ) ;
#424 = CIRCLE ( 'NONE', #186, 5.000000000000000888 ) ;
#425 = CIRCLE ( 'NONE', #264, 5.000000000000000888 ) ;
#426 = CC_DESIGN_APPROVAL ( #298, ( #390 ) ) ;
#427 = CARTESIAN_POINT ( 'NONE',  ( -20.17182130584189892, -30.00000000000000000, 10.00000000000000000 ) ) ;
#428 = EDGE_CURVE ( 'NONE', #177, #235, #321, .T. ) ;
#429 = ORIENTED_EDGE ( 'NONE', *, *, #188, .T. ) ;
#430 = FACE_OUTER_BOUND ( 'NONE', #393, .T. ) ;
#431 = CARTESIAN_POINT ( 'NONE',  ( 9.828178694158099304, -20.00000000000000000, 10.00000000000000000 ) ) ;
#432 = CC_DESIGN_PERSON_AND_ORGANIZATION_ASSIGNMENT ( #100, #450, ( #390 ) ) ;
#433 = APPLICATION_CONTEXT ( 'configuration controlled 3d designs of mechanical parts and assemblies' ) ;
#434 = DIRECTION ( 'NONE',  ( -1.000000000000000000, 0.000000000000000000, 0.000000000000000000 ) ) ;
#435 = EDGE_CURVE ( 'NONE', #421, #447, #21, .T. ) ;
#436 = CARTESIAN_POINT ( 'NONE',  ( -15.17182130584189892, -30.00000000000000000, 0.000000000000000000 ) ) ;
#437 = DIRECTION ( 'NONE',  ( 0.000000000000000000, 0.000000000000000000, 1.000000000000000000 ) ) ;
#438 = AXIS2_PLACEMENT_3D ( 'NONE', #73, #68, #312 ) ;
#439 = CARTESIAN_POINT ( 'NONE',  ( -50.17182130584190247, -50.00000000000000000, 0.000000000000000000 ) ) ;
#440 = FACE_OUTER_BOUND ( 'NONE', #231, .T. ) ;
#441 = CALENDAR_DATE ( 2026, 7, 4 ) ;
#442 = CARTESIAN_POINT ( 'NONE',  ( -50.17182130584190247, 0.000000000000000000, 0.000000000000000000 ) ) ;
#443 = CIRCLE ( 'NONE', #163, 4.999999999999997335 ) ;
#444 = CALENDAR_DATE ( 2026, 7, 4 ) ;
#445 = DIRECTION ( 'NONE',  ( -1.000000000000000000, 0.000000000000000000, 0.000000000000000000 ) ) ;
#446 = CARTESIAN_POINT ( 'NONE',  ( -25.17182130584190247, -30.00000000000000000, 10.00000000000000000 ) ) ;
#447 = VERTEX_POINT ( 'NONE', #16 ) ;
#448 = CIRCLE ( 'NONE', #25, 5.000000000000000888 ) ;
#449 = ORIENTED_EDGE ( 'NONE', *, *, #234, .F. ) ;
#450 = PERSON_AND_ORGANIZATION_ROLE ( 'creator' ) ;
#451 = ORIENTED_EDGE ( 'NONE', *, *, #58, .T. ) ;
#452 = VERTEX_POINT ( 'NONE', #200 ) ;
#453 = CALENDAR_DATE ( 2026, 7, 4 ) ;
#454 = FACE_OUTER_BOUND ( 'NONE', #37, .T. ) ;
#455 = CYLINDRICAL_SURFACE ( 'NONE', #9, 5.000000000000000000 ) ;
#456 = DATE_AND_TIME ( #423, #51 ) ;
#457 = ORIENTED_EDGE ( 'NONE', *, *, #314, .T. ) ;
#458 = EDGE_CURVE ( 'NONE', #313, #28, #53, .T. ) ;
#459 = CARTESIAN_POINT ( 'NONE',  ( 4.828178694158099304, -20.00000000000000000, 10.00000000000000000 ) ) ;
ENDSEC;
END-ISO-10303-21;
