ISO-10303-21;
HEADER;
FILE_DESCRIPTION (( 'STEP AP203' ),
    '1' );
FILE_NAME ('HuaGan_默认_sldprt.STEP',
    '2026-04-08T15:08:24',
    ( '' ),
    ( '' ),
    'SwSTEP 2.0',
    'SolidWorks 2022',
    '' );
FILE_SCHEMA (( 'CONFIG_CONTROL_DESIGN' ));
ENDSEC;

DATA;
#1 = PERSON ( '未指定', '未指定', '未指定', ('未指定'), ('未指定'), ('未指定') ) ;
#2 = VECTOR ( 'NONE', #96, 1000.000000000000000 ) ;
#3 = APPROVAL_STATUS ( 'not_yet_approved' ) ;
#4 = LINE ( 'NONE', #101, #2 ) ;
#5 = ADVANCED_FACE ( 'NONE', ( #64 ), #126, .T. ) ;
#6 = APPROVAL_DATE_TIME ( #147, #140 ) ;
#7 = COORDINATED_UNIVERSAL_TIME_OFFSET ( 8, 0, .AHEAD. ) ;
#8 = VERTEX_POINT ( 'NONE', #78 ) ;
#9 = APPROVAL_DATE_TIME ( #57, #49 ) ;
#10 = CARTESIAN_POINT ( 'NONE',  ( 0.000000000000000000, 0.000000000000000000, 600.0000000000000000 ) ) ;
#11 = ADVANCED_FACE ( 'NONE', ( #92 ), #110, .T. ) ;
#12 = DIRECTION ( 'NONE',  ( 0.000000000000000000, 0.000000000000000000, 1.000000000000000000 ) ) ;
#13 = DIRECTION ( 'NONE',  ( 0.000000000000000000, 0.000000000000000000, 1.000000000000000000 ) ) ;
#14 = CARTESIAN_POINT ( 'NONE',  ( -6.000000000000000000, 0.000000000000000000, 0.000000000000000000 ) ) ;
#15 = APPROVAL_PERSON_ORGANIZATION ( #98, #140, #17 ) ;
#16 = PERSON_AND_ORGANIZATION ( #1, #109 ) ;
#17 = APPROVAL_ROLE ( '' ) ;
#18 = CALENDAR_DATE ( 2026, 8, 4 ) ;
#19 =( LENGTH_UNIT ( ) NAMED_UNIT ( * ) SI_UNIT ( .MILLI., .METRE. ) );
#20 = AXIS2_PLACEMENT_3D ( 'NONE', #127, #174, #90 ) ;
#21 = ORIENTED_EDGE ( 'NONE', *, *, #137, .T. ) ;
#22 = EDGE_CURVE ( 'NONE', #62, #120, #158, .T. ) ;
#23 = VERTEX_POINT ( 'NONE', #155 ) ;
#24 = CARTESIAN_POINT ( 'NONE',  ( 0.000000000000000000, 0.000000000000000000, 0.000000000000000000 ) ) ;
#25 = CARTESIAN_POINT ( 'NONE',  ( 0.000000000000000000, 0.000000000000000000, 0.000000000000000000 ) ) ;
#26 = PLANE ( 'NONE',  #95 ) ;
#27 = PRODUCT_DEFINITION ( '未知', '', #138, #139 ) ;
#28 = APPROVAL_ROLE ( '' ) ;
#29 = APPROVAL_PERSON_ORGANIZATION ( #70, #49, #152 ) ;
#30 = CALENDAR_DATE ( 2026, 8, 4 ) ;
#31 = DATE_AND_TIME ( #30, #45 ) ;
#32 = APPLICATION_PROTOCOL_DEFINITION ( 'international standard', 'config_control_design', 1994, #175 ) ;
#33 = EDGE_CURVE ( 'NONE', #8, #23, #170, .T. ) ;
#34 =( NAMED_UNIT ( * ) SI_UNIT ( $, .STERADIAN. ) SOLID_ANGLE_UNIT ( ) );
#35 = CC_DESIGN_APPROVAL ( #140, ( #67 ) ) ;
#36 = CC_DESIGN_DATE_AND_TIME_ASSIGNMENT ( #31, #46, ( #27 ) ) ;
#37 = PERSON_AND_ORGANIZATION_ROLE ( 'design_supplier' ) ;
#38 = PERSON_AND_ORGANIZATION_ROLE ( 'classification_officer' ) ;
#39 = CC_DESIGN_APPROVAL ( #49, ( #27 ) ) ;
#40 = PERSON_AND_ORGANIZATION_ROLE ( 'design_owner' ) ;
#41 = ORIENTED_EDGE ( 'NONE', *, *, #137, .F. ) ;
#42 = DIRECTION ( 'NONE',  ( 0.000000000000000000, 0.000000000000000000, 1.000000000000000000 ) ) ;
#43 = ADVANCED_BREP_SHAPE_REPRESENTATION ( 'HuaGan_\X2\9ed88ba4\X0\_sldprt', ( #154, #91 ), #89 ) ;
#44 = DIRECTION ( 'NONE',  ( 1.000000000000000000, 0.000000000000000000, 0.000000000000000000 ) ) ;
#45 = LOCAL_TIME ( 23, 8, 24.00000000000000000, #7 ) ;
#46 = DATE_TIME_ROLE ( 'creation_date' ) ;
#47 = ORIENTED_EDGE ( 'NONE', *, *, #81, .T. ) ;
#48 = AXIS2_PLACEMENT_3D ( 'NONE', #24, #12, #51 ) ;
#49 = APPROVAL ( #121, '未指定' ) ;
#50 = AXIS2_PLACEMENT_3D ( 'NONE', #93, #156, #79 ) ;
#51 = DIRECTION ( 'NONE',  ( 1.000000000000000000, 0.000000000000000000, 0.000000000000000000 ) ) ;
#52 = LOCAL_TIME ( 23, 8, 24.00000000000000000, #115 ) ;
#53 = CC_DESIGN_PERSON_AND_ORGANIZATION_ASSIGNMENT ( #165, #40, ( #61 ) ) ;
#54 = PERSON_AND_ORGANIZATION ( #1, #109 ) ;
#55 = AXIS2_PLACEMENT_3D ( 'NONE', #10, #58, #148 ) ;
#56 = ADVANCED_FACE ( 'NONE', ( #141 ), #26, .F. ) ;
#57 = DATE_AND_TIME ( #131, #52 ) ;
#58 = DIRECTION ( 'NONE',  ( 0.000000000000000000, 0.000000000000000000, -1.000000000000000000 ) ) ;
#59 = CC_DESIGN_DATE_AND_TIME_ASSIGNMENT ( #111, #146, ( #67 ) ) ;
#60 = EDGE_LOOP ( 'NONE', ( #105, #124, #83, #164 ) ) ;
#61 = PRODUCT ( 'HuaGan_\X2\9ed88ba4\X0\_sldprt', 'HuaGan_\X2\9ed88ba4\X0\_sldprt', '', ( #135 ) ) ;
#62 = VERTEX_POINT ( 'NONE', #14 ) ;
#63 = CC_DESIGN_PERSON_AND_ORGANIZATION_ASSIGNMENT ( #54, #73, ( #27 ) ) ;
#64 = FACE_OUTER_BOUND ( 'NONE', #104, .T. ) ;
#65 = CIRCLE ( 'NONE', #77, 6.000000000000000000 ) ;
#66 = DIRECTION ( 'NONE',  ( 1.000000000000000000, 0.000000000000000000, 0.000000000000000000 ) ) ;
#67 = SECURITY_CLASSIFICATION ( '', '', #151 ) ;
#68 = DIRECTION ( 'NONE',  ( 1.000000000000000000, 0.000000000000000000, 0.000000000000000000 ) ) ;
#69 = PERSON_AND_ORGANIZATION ( #1, #109 ) ;
#70 = PERSON_AND_ORGANIZATION ( #1, #109 ) ;
#71 = PERSON_AND_ORGANIZATION ( #1, #109 ) ;
#72 = APPROVAL_STATUS ( 'not_yet_approved' ) ;
#73 = PERSON_AND_ORGANIZATION_ROLE ( 'creator' ) ;
#74 = ORIENTED_EDGE ( 'NONE', *, *, #33, .T. ) ;
#75 = CC_DESIGN_APPROVAL ( #103, ( #138 ) ) ;
#76 = UNCERTAINTY_MEASURE_WITH_UNIT (LENGTH_MEASURE( 1.000000000000000082E-05 ), #19, 'distance_accuracy_value', 'NONE');
#77 = AXIS2_PLACEMENT_3D ( 'NONE', #116, #144, #68 ) ;
#78 = CARTESIAN_POINT ( 'NONE',  ( -6.000000000000000000, 0.000000000000000000, 600.0000000000000000 ) ) ;
#79 = DIRECTION ( 'NONE',  ( 1.000000000000000000, 0.000000000000000000, 0.000000000000000000 ) ) ;
#80 = AXIS2_PLACEMENT_3D ( 'NONE', #108, #142, #173 ) ;
#81 = EDGE_CURVE ( 'NONE', #120, #62, #136, .T. ) ;
#82 = FACE_OUTER_BOUND ( 'NONE', #60, .T. ) ;
#83 = ORIENTED_EDGE ( 'NONE', *, *, #172, .T. ) ;
#84 = DATE_AND_TIME ( #132, #149 ) ;
#85 = APPLICATION_PROTOCOL_DEFINITION ( 'international standard', 'config_control_design', 1994, #143 ) ;
#86 = ORIENTED_EDGE ( 'NONE', *, *, #172, .F. ) ;
#87 = CC_DESIGN_PERSON_AND_ORGANIZATION_ASSIGNMENT ( #69, #38, ( #67 ) ) ;
#88 =( NAMED_UNIT ( * ) PLANE_ANGLE_UNIT ( ) SI_UNIT ( $, .RADIAN. ) );
#89 =( GEOMETRIC_REPRESENTATION_CONTEXT ( 3 ) GLOBAL_UNCERTAINTY_ASSIGNED_CONTEXT ( ( #76 ) ) GLOBAL_UNIT_ASSIGNED_CONTEXT ( ( #19, #88, #34 ) ) REPRESENTATION_CONTEXT ( 'NONE', 'WORKASPACE' ) );
#90 = DIRECTION ( 'NONE',  ( -1.000000000000000000, 0.000000000000000000, 0.000000000000000000 ) ) ;
#91 = AXIS2_PLACEMENT_3D ( 'NONE', #169, #42, #153 ) ;
#92 = FACE_OUTER_BOUND ( 'NONE', #117, .T. ) ;
#93 = CARTESIAN_POINT ( 'NONE',  ( 0.000000000000000000, 0.000000000000000000, 0.000000000000000000 ) ) ;
#94 = PERSON_AND_ORGANIZATION ( #1, #109 ) ;
#95 = AXIS2_PLACEMENT_3D ( 'NONE', #25, #13, #66 ) ;
#96 = DIRECTION ( 'NONE',  ( 0.000000000000000000, 0.000000000000000000, -1.000000000000000000 ) ) ;
#97 = LINE ( 'NONE', #162, #112 ) ;
#98 = PERSON_AND_ORGANIZATION ( #1, #109 ) ;
#99 = ADVANCED_FACE ( 'NONE', ( #82 ), #113, .T. ) ;
#100 = LOCAL_TIME ( 23, 8, 24.00000000000000000, #161 ) ;
#101 = CARTESIAN_POINT ( 'NONE',  ( 6.000000000000000000, 7.347880794884119736E-16, 600.0000000000000000 ) ) ;
#102 = PERSON_AND_ORGANIZATION_ROLE ( 'creator' ) ;
#103 = APPROVAL ( #72, '未指定' ) ;
#104 = EDGE_LOOP ( 'NONE', ( #74, #21 ) ) ;
#105 = ORIENTED_EDGE ( 'NONE', *, *, #118, .F. ) ;
#106 = PRODUCT_RELATED_PRODUCT_CATEGORY ( 'detail', '', ( #61 ) ) ;
#107 = CARTESIAN_POINT ( 'NONE',  ( 0.000000000000000000, 0.000000000000000000, 600.0000000000000000 ) ) ;
#108 = CARTESIAN_POINT ( 'NONE',  ( 0.000000000000000000, 0.000000000000000000, 600.0000000000000000 ) ) ;
#109 = ORGANIZATION ( '未指定', '未指定', '' ) ;
#110 = CYLINDRICAL_SURFACE ( 'NONE', #20, 6.000000000000000000 ) ;
#111 = DATE_AND_TIME ( #18, #125 ) ;
#112 = VECTOR ( 'NONE', #130, 1000.000000000000000 ) ;
#113 = CYLINDRICAL_SURFACE ( 'NONE', #55, 6.000000000000000000 ) ;
#114 = COORDINATED_UNIVERSAL_TIME_OFFSET ( 8, 0, .AHEAD. ) ;
#115 = COORDINATED_UNIVERSAL_TIME_OFFSET ( 8, 0, .AHEAD. ) ;
#116 = CARTESIAN_POINT ( 'NONE',  ( 0.000000000000000000, 0.000000000000000000, 600.0000000000000000 ) ) ;
#117 = EDGE_LOOP ( 'NONE', ( #41, #168, #47, #86 ) ) ;
#118 = EDGE_CURVE ( 'NONE', #23, #120, #4, .T. ) ;
#119 = COORDINATED_UNIVERSAL_TIME_OFFSET ( 8, 0, .AHEAD. ) ;
#120 = VERTEX_POINT ( 'NONE', #134 ) ;
#121 = APPROVAL_STATUS ( 'not_yet_approved' ) ;
#122 = CLOSED_SHELL ( 'NONE', ( #11, #99, #5, #56 ) ) ;
#123 = ORIENTED_EDGE ( 'NONE', *, *, #81, .F. ) ;
#124 = ORIENTED_EDGE ( 'NONE', *, *, #33, .F. ) ;
#125 = LOCAL_TIME ( 23, 8, 24.00000000000000000, #114 ) ;
#126 = PLANE ( 'NONE',  #145 ) ;
#127 = CARTESIAN_POINT ( 'NONE',  ( 0.000000000000000000, 0.000000000000000000, 600.0000000000000000 ) ) ;
#128 = CC_DESIGN_SECURITY_CLASSIFICATION ( #67, ( #138 ) ) ;
#129 = CC_DESIGN_PERSON_AND_ORGANIZATION_ASSIGNMENT ( #94, #102, ( #138 ) ) ;
#130 = DIRECTION ( 'NONE',  ( 0.000000000000000000, 0.000000000000000000, -1.000000000000000000 ) ) ;
#131 = CALENDAR_DATE ( 2026, 8, 4 ) ;
#132 = CALENDAR_DATE ( 2026, 8, 4 ) ;
#133 = EDGE_LOOP ( 'NONE', ( #166, #123 ) ) ;
#134 = CARTESIAN_POINT ( 'NONE',  ( 6.000000000000000000, 7.347880794884119736E-16, 0.000000000000000000 ) ) ;
#135 = MECHANICAL_CONTEXT ( 'NONE', #175, 'mechanical' ) ;
#136 = CIRCLE ( 'NONE', #50, 6.000000000000000000 ) ;
#137 = EDGE_CURVE ( 'NONE', #23, #8, #65, .T. ) ;
#138 = PRODUCT_DEFINITION_FORMATION_WITH_SPECIFIED_SOURCE ( '任何', '', #61, .NOT_KNOWN. ) ;
#139 = DESIGN_CONTEXT ( 'detailed design', #143, 'design' ) ;
#140 = APPROVAL ( #3, '未指定' ) ;
#141 = FACE_OUTER_BOUND ( 'NONE', #133, .T. ) ;
#142 = DIRECTION ( 'NONE',  ( 0.000000000000000000, 0.000000000000000000, 1.000000000000000000 ) ) ;
#143 = APPLICATION_CONTEXT ( 'configuration controlled 3d designs of mechanical parts and assemblies' ) ;
#144 = DIRECTION ( 'NONE',  ( 0.000000000000000000, 0.000000000000000000, 1.000000000000000000 ) ) ;
#145 = AXIS2_PLACEMENT_3D ( 'NONE', #107, #171, #44 ) ;
#146 = DATE_TIME_ROLE ( 'classification_date' ) ;
#147 = DATE_AND_TIME ( #157, #100 ) ;
#148 = DIRECTION ( 'NONE',  ( -1.000000000000000000, 0.000000000000000000, 0.000000000000000000 ) ) ;
#149 = LOCAL_TIME ( 23, 8, 24.00000000000000000, #119 ) ;
#150 = SHAPE_DEFINITION_REPRESENTATION ( #167, #43 ) ;
#151 = SECURITY_CLASSIFICATION_LEVEL ( 'unclassified' ) ;
#152 = APPROVAL_ROLE ( '' ) ;
#153 = DIRECTION ( 'NONE',  ( 1.000000000000000000, 0.000000000000000000, 0.000000000000000000 ) ) ;
#154 = MANIFOLD_SOLID_BREP ( '输入1', #122 ) ;
#155 = CARTESIAN_POINT ( 'NONE',  ( 6.000000000000000000, 7.347880794884119736E-16, 600.0000000000000000 ) ) ;
#156 = DIRECTION ( 'NONE',  ( 0.000000000000000000, 0.000000000000000000, 1.000000000000000000 ) ) ;
#157 = CALENDAR_DATE ( 2026, 8, 4 ) ;
#158 = CIRCLE ( 'NONE', #48, 6.000000000000000000 ) ;
#159 = CC_DESIGN_PERSON_AND_ORGANIZATION_ASSIGNMENT ( #71, #37, ( #138 ) ) ;
#160 = APPROVAL_DATE_TIME ( #84, #103 ) ;
#161 = COORDINATED_UNIVERSAL_TIME_OFFSET ( 8, 0, .AHEAD. ) ;
#162 = CARTESIAN_POINT ( 'NONE',  ( -6.000000000000000000, 0.000000000000000000, 600.0000000000000000 ) ) ;
#163 = APPROVAL_PERSON_ORGANIZATION ( #16, #103, #28 ) ;
#164 = ORIENTED_EDGE ( 'NONE', *, *, #22, .T. ) ;
#165 = PERSON_AND_ORGANIZATION ( #1, #109 ) ;
#166 = ORIENTED_EDGE ( 'NONE', *, *, #22, .F. ) ;
#167 = PRODUCT_DEFINITION_SHAPE ( 'NONE', 'NONE',  #27 ) ;
#168 = ORIENTED_EDGE ( 'NONE', *, *, #118, .T. ) ;
#169 = CARTESIAN_POINT ( 'NONE',  ( 0.000000000000000000, 0.000000000000000000, 0.000000000000000000 ) ) ;
#170 = CIRCLE ( 'NONE', #80, 6.000000000000000000 ) ;
#171 = DIRECTION ( 'NONE',  ( 0.000000000000000000, 0.000000000000000000, 1.000000000000000000 ) ) ;
#172 = EDGE_CURVE ( 'NONE', #8, #62, #97, .T. ) ;
#173 = DIRECTION ( 'NONE',  ( 1.000000000000000000, 0.000000000000000000, 0.000000000000000000 ) ) ;
#174 = DIRECTION ( 'NONE',  ( 0.000000000000000000, 0.000000000000000000, -1.000000000000000000 ) ) ;
#175 = APPLICATION_CONTEXT ( 'configuration controlled 3d designs of mechanical parts and assemblies' ) ;
ENDSEC;
END-ISO-10303-21;
