ISO-10303-21;
HEADER;
FILE_DESCRIPTION (( 'STEP AP203' ),
    '1' );
FILE_NAME ('HuaTai_默认_sldprt.STEP',
    '2026-04-08T15:08:25',
    ( '' ),
    ( '' ),
    'SwSTEP 2.0',
    'SolidWorks 2022',
    '' );
FILE_SCHEMA (( 'CONFIG_CONTROL_DESIGN' ));
ENDSEC;

DATA;
#1 = PRODUCT_DEFINITION_SHAPE ( 'NONE', 'NONE',  #458 ) ;
#2 = VERTEX_POINT ( 'NONE', #260 ) ;
#3 = DATE_AND_TIME ( #319, #245 ) ;
#4 = ORIENTED_EDGE ( 'NONE', *, *, #379, .F. ) ;
#5 = EDGE_LOOP ( 'NONE', ( #384, #67, #381, #30 ) ) ;
#6 = AXIS2_PLACEMENT_3D ( 'NONE', #255, #262, #107 ) ;
#7 = CARTESIAN_POINT ( 'NONE',  ( -20.17182130584189892, -25.00000000000000000, 40.00000000000000000 ) ) ;
#8 = ADVANCED_FACE ( 'NONE', ( #187 ), #257, .F. ) ;
#9 = CARTESIAN_POINT ( 'NONE',  ( 69.82817869415809753, 0.000000000000000000, 40.00000000000000000 ) ) ;
#10 = AXIS2_PLACEMENT_3D ( 'NONE', #272, #22, #378 ) ;
#11 = DIRECTION ( 'NONE',  ( 1.000000000000000000, 0.000000000000000000, 0.000000000000000000 ) ) ;
#12 = CARTESIAN_POINT ( 'NONE',  ( 44.82817869415809753, -25.00000000000000000, 0.000000000000000000 ) ) ;
#13 = DIRECTION ( 'NONE',  ( -1.000000000000000000, 0.000000000000000000, 0.000000000000000000 ) ) ;
#14 = VECTOR ( 'NONE', #299, 1000.000000000000000 ) ;
#15 = DIRECTION ( 'NONE',  ( 0.000000000000000000, 0.000000000000000000, 1.000000000000000000 ) ) ;
#16 = DIRECTION ( 'NONE',  ( 0.000000000000000000, 0.000000000000000000, 1.000000000000000000 ) ) ;
#17 = CC_DESIGN_APPROVAL ( #93, ( #192 ) ) ;
#18 = FACE_OUTER_BOUND ( 'NONE', #34, .T. ) ;
#19 = CARTESIAN_POINT ( 'NONE',  ( 4.828178694158099304, -15.00000000000000000, 0.000000000000000000 ) ) ;
#20 = DIRECTION ( 'NONE',  ( 1.000000000000000000, 0.000000000000000000, 0.000000000000000000 ) ) ;
#21 = EDGE_CURVE ( 'NONE', #318, #243, #444, .T. ) ;
#22 = DIRECTION ( 'NONE',  ( 0.000000000000000000, 0.000000000000000000, 1.000000000000000000 ) ) ;
#23 = ORIENTED_EDGE ( 'NONE', *, *, #109, .F. ) ;
#24 = CYLINDRICAL_SURFACE ( 'NONE', #327, 4.999999999999997335 ) ;
#25 = CARTESIAN_POINT ( 'NONE',  ( -50.17182130584190247, -40.00000000000000000, 40.00000000000000000 ) ) ;
#26 = CIRCLE ( 'NONE', #284, 5.000000000000000888 ) ;
#27 = ORIENTED_EDGE ( 'NONE', *, *, #156, .F. ) ;
#28 = FACE_OUTER_BOUND ( 'NONE', #102, .T. ) ;
#29 = VECTOR ( 'NONE', #220, 1000.000000000000000 ) ;
#30 = ORIENTED_EDGE ( 'NONE', *, *, #356, .F. ) ;
#31 = CC_DESIGN_DATE_AND_TIME_ASSIGNMENT ( #3, #286, ( #458 ) ) ;
#32 = EDGE_CURVE ( 'NONE', #448, #36, #328, .T. ) ;
#33 = ORIENTED_EDGE ( 'NONE', *, *, #276, .T. ) ;
#34 = EDGE_LOOP ( 'NONE', ( #231, #377, #307, #412 ) ) ;
#35 = DIRECTION ( 'NONE',  ( 1.000000000000000000, 0.000000000000000000, 0.000000000000000000 ) ) ;
#36 = VERTEX_POINT ( 'NONE', #75 ) ;
#37 = DATE_TIME_ROLE ( 'classification_date' ) ;
#38 = ORIENTED_EDGE ( 'NONE', *, *, #442, .T. ) ;
#39 = CALENDAR_DATE ( 2026, 8, 4 ) ;
#40 = PERSON ( '未指定', '未指定', '未指定', ('未指定'), ('未指定'), ('未指定') ) ;
#41 = EDGE_CURVE ( 'NONE', #456, #305, #203, .T. ) ;
#42 = CARTESIAN_POINT ( 'NONE',  ( 34.82817869415809753, -25.00000000000000000, 40.00000000000000000 ) ) ;
#43 = FACE_OUTER_BOUND ( 'NONE', #84, .T. ) ;
#44 = DIRECTION ( 'NONE',  ( 0.000000000000000000, 0.000000000000000000, 1.000000000000000000 ) ) ;
#45 = VECTOR ( 'NONE', #56, 1000.000000000000000 ) ;
#46 = DIRECTION ( 'NONE',  ( 1.000000000000000000, 0.000000000000000000, 0.000000000000000000 ) ) ;
#47 = CARTESIAN_POINT ( 'NONE',  ( 9.828178694158099304, -15.00000000000000000, 40.00000000000000000 ) ) ;
#48 = CARTESIAN_POINT ( 'NONE',  ( 69.82817869415809753, -40.00000000000000000, 40.00000000000000000 ) ) ;
#49 = DIRECTION ( 'NONE',  ( 3.469446951953615175E-16, -1.000000000000000000, 0.000000000000000000 ) ) ;
#50 = PLANE ( 'NONE',  #6 ) ;
#51 = DIRECTION ( 'NONE',  ( 1.000000000000000000, 0.000000000000000000, 0.000000000000000000 ) ) ;
#52 = DIRECTION ( 'NONE',  ( 0.000000000000000000, 0.000000000000000000, -1.000000000000000000 ) ) ;
#53 = ADVANCED_FACE ( 'NONE', ( #428 ), #50, .F. ) ;
#54 = VERTEX_POINT ( 'NONE', #110 ) ;
#55 = CARTESIAN_POINT ( 'NONE',  ( 44.82817869415809753, -25.00000000000000000, 40.00000000000000000 ) ) ;
#56 = DIRECTION ( 'NONE',  ( 0.000000000000000000, 0.000000000000000000, -1.000000000000000000 ) ) ;
#57 = ORIENTED_EDGE ( 'NONE', *, *, #403, .F. ) ;
#58 = DIRECTION ( 'NONE',  ( 0.000000000000000000, 0.000000000000000000, -1.000000000000000000 ) ) ;
#59 = EDGE_CURVE ( 'NONE', #70, #420, #400, .T. ) ;
#60 = EDGE_LOOP ( 'NONE', ( #172, #283 ) ) ;
#61 = APPROVAL_DATE_TIME ( #424, #358 ) ;
#62 = EDGE_CURVE ( 'NONE', #2, #425, #226, .T. ) ;
#63 = AXIS2_PLACEMENT_3D ( 'NONE', #323, #434, #217 ) ;
#64 = ORIENTED_EDGE ( 'NONE', *, *, #356, .T. ) ;
#65 = VECTOR ( 'NONE', #242, 1000.000000000000000 ) ;
#66 = APPROVAL_STATUS ( 'not_yet_approved' ) ;
#67 = ORIENTED_EDGE ( 'NONE', *, *, #109, .T. ) ;
#68 = PERSON_AND_ORGANIZATION_ROLE ( 'design_supplier' ) ;
#69 = AXIS2_PLACEMENT_3D ( 'NONE', #80, #334, #438 ) ;
#70 = VERTEX_POINT ( 'NONE', #48 ) ;
#71 = PERSON_AND_ORGANIZATION ( #40, #99 ) ;
#72 = ORIENTED_EDGE ( 'NONE', *, *, #314, .T. ) ;
#73 = EDGE_CURVE ( 'NONE', #36, #420, #213, .T. ) ;
#74 = CARTESIAN_POINT ( 'NONE',  ( -50.17182130584190247, 0.000000000000000000, 40.00000000000000000 ) ) ;
#75 = CARTESIAN_POINT ( 'NONE',  ( -50.17182130584190247, -40.00000000000000000, 0.000000000000000000 ) ) ;
#76 = CYLINDRICAL_SURFACE ( 'NONE', #367, 5.000000000000000000 ) ;
#77 = PLANE ( 'NONE',  #63 ) ;
#78 = CARTESIAN_POINT ( 'NONE',  ( 9.828178694158099304, -15.00000000000000000, 40.00000000000000000 ) ) ;
#79 = DIRECTION ( 'NONE',  ( 0.000000000000000000, 0.000000000000000000, 1.000000000000000000 ) ) ;
#80 = CARTESIAN_POINT ( 'NONE',  ( 0.000000000000000000, 0.000000000000000000, 40.00000000000000000 ) ) ;
#81 = CARTESIAN_POINT ( 'NONE',  ( -50.17182130584190247, 0.000000000000000000, 40.00000000000000000 ) ) ;
#82 = VECTOR ( 'NONE', #189, 1000.000000000000000 ) ;
#83 = DIRECTION ( 'NONE',  ( 1.000000000000000000, 0.000000000000000000, 0.000000000000000000 ) ) ;
#84 = EDGE_LOOP ( 'NONE', ( #23, #72, #64, #158 ) ) ;
#85 = CARTESIAN_POINT ( 'NONE',  ( -15.17182130584189892, -25.00000000000000000, 40.00000000000000000 ) ) ;
#86 = PRODUCT_DEFINITION_FORMATION_WITH_SPECIFIED_SOURCE ( '任何', '', #132, .NOT_KNOWN. ) ;
#87 = EDGE_CURVE ( 'NONE', #243, #318, #166, .T. ) ;
#88 = ORIENTED_EDGE ( 'NONE', *, *, #194, .F. ) ;
#89 = LINE ( 'NONE', #376, #65 ) ;
#90 = LINE ( 'NONE', #163, #303 ) ;
#91 = APPROVAL_PERSON_ORGANIZATION ( #139, #93, #349 ) ;
#92 = DIRECTION ( 'NONE',  ( 1.000000000000000000, 0.000000000000000000, 0.000000000000000000 ) ) ;
#93 = APPROVAL ( #66, '未指定' ) ;
#94 = VERTEX_POINT ( 'NONE', #42 ) ;
#95 = EDGE_CURVE ( 'NONE', #420, #423, #148, .T. ) ;
#96 = EDGE_LOOP ( 'NONE', ( #235, #38, #138, #348 ) ) ;
#97 = PERSON_AND_ORGANIZATION_ROLE ( 'creator' ) ;
#98 = ORIENTED_EDGE ( 'NONE', *, *, #59, .F. ) ;
#99 = ORGANIZATION ( '未指定', '未指定', '' ) ;
#100 = CALENDAR_DATE ( 2026, 8, 4 ) ;
#101 = ADVANCED_FACE ( 'NONE', ( #432 ), #77, .F. ) ;
#102 = EDGE_LOOP ( 'NONE', ( #320, #373, #238, #104 ) ) ;
#103 = PERSON_AND_ORGANIZATION ( #40, #99 ) ;
#104 = ORIENTED_EDGE ( 'NONE', *, *, #201, .F. ) ;
#105 = APPROVAL_ROLE ( '' ) ;
#106 = AXIS2_PLACEMENT_3D ( 'NONE', #294, #79, #285 ) ;
#107 = DIRECTION ( 'NONE',  ( -3.469446951953615175E-16, 1.000000000000000000, 0.000000000000000000 ) ) ;
#108 = APPLICATION_PROTOCOL_DEFINITION ( 'international standard', 'config_control_design', 1994, #418 ) ;
#109 = EDGE_CURVE ( 'NONE', #416, #174, #430, .T. ) ;
#110 = CARTESIAN_POINT ( 'NONE',  ( -50.17182130584190247, 0.000000000000000000, 40.00000000000000000 ) ) ;
#111 = PRODUCT_RELATED_PRODUCT_CATEGORY ( 'detail', '', ( #132 ) ) ;
#112 = EDGE_CURVE ( 'NONE', #120, #136, #123, .T. ) ;
#113 = DIRECTION ( 'NONE',  ( 0.000000000000000000, 0.000000000000000000, 1.000000000000000000 ) ) ;
#114 = CARTESIAN_POINT ( 'NONE',  ( 9.828178694158099304, -15.00000000000000000, 40.00000000000000000 ) ) ;
#115 = DIRECTION ( 'NONE',  ( 0.000000000000000000, 0.000000000000000000, -1.000000000000000000 ) ) ;
#116 = CARTESIAN_POINT ( 'NONE',  ( 44.82817869415809753, -25.00000000000000000, 40.00000000000000000 ) ) ;
#117 = CYLINDRICAL_SURFACE ( 'NONE', #313, 5.000000000000000000 ) ;
#118 = DIRECTION ( 'NONE',  ( 0.000000000000000000, 0.000000000000000000, 1.000000000000000000 ) ) ;
#119 = DIRECTION ( 'NONE',  ( 0.000000000000000000, 0.000000000000000000, -1.000000000000000000 ) ) ;
#120 = VERTEX_POINT ( 'NONE', #360 ) ;
#121 = ADVANCED_FACE ( 'NONE', ( #43 ), #153, .F. ) ;
#122 = FACE_BOUND ( 'NONE', #130, .T. ) ;
#123 = CIRCLE ( 'NONE', #310, 5.000000000000000888 ) ;
#124 =( NAMED_UNIT ( * ) SI_UNIT ( $, .STERADIAN. ) SOLID_ANGLE_UNIT ( ) );
#125 = CARTESIAN_POINT ( 'NONE',  ( 0.000000000000000000, 0.000000000000000000, 0.000000000000000000 ) ) ;
#126 = ORIENTED_EDGE ( 'NONE', *, *, #292, .F. ) ;
#127 = CARTESIAN_POINT ( 'NONE',  ( 69.82817869415809753, 0.000000000000000000, 0.000000000000000000 ) ) ;
#128 = CIRCLE ( 'NONE', #165, 4.999999999999997335 ) ;
#129 = EDGE_CURVE ( 'NONE', #398, #54, #150, .T. ) ;
#130 = EDGE_LOOP ( 'NONE', ( #33, #274 ) ) ;
#131 = LINE ( 'NONE', #195, #45 ) ;
#132 = PRODUCT ( 'HuaTai_\X2\9ed88ba4\X0\_sldprt', 'HuaTai_\X2\9ed88ba4\X0\_sldprt', '', ( #316 ) ) ;
#133 = ORIENTED_EDGE ( 'NONE', *, *, #59, .T. ) ;
#134 = PERSON_AND_ORGANIZATION_ROLE ( 'classification_officer' ) ;
#135 = EDGE_CURVE ( 'NONE', #423, #208, #368, .T. ) ;
#136 = VERTEX_POINT ( 'NONE', #19 ) ;
#137 = COORDINATED_UNIVERSAL_TIME_OFFSET ( 8, 0, .AHEAD. ) ;
#138 = ORIENTED_EDGE ( 'NONE', *, *, #179, .T. ) ;
#139 = PERSON_AND_ORGANIZATION ( #40, #99 ) ;
#140 = ORIENTED_EDGE ( 'NONE', *, *, #62, .F. ) ;
#141 = AXIS2_PLACEMENT_3D ( 'NONE', #401, #113, #256 ) ;
#142 = DIRECTION ( 'NONE',  ( 0.000000000000000000, 0.000000000000000000, -1.000000000000000000 ) ) ;
#143 = CLOSED_SHELL ( 'NONE', ( #298, #417, #345, #144, #229, #53, #101, #264, #8, #454, #121, #240 ) ) ;
#144 = ADVANCED_FACE ( 'NONE', ( #155, #439, #191, #335 ), #290, .T. ) ;
#145 = CARTESIAN_POINT ( 'NONE',  ( -50.17182130584190247, -40.00000000000000000, 0.000000000000000000 ) ) ;
#146 = CC_DESIGN_APPROVAL ( #358, ( #458 ) ) ;
#147 = CARTESIAN_POINT ( 'NONE',  ( -20.17182130584189892, -25.00000000000000000, 0.000000000000000000 ) ) ;
#148 = LINE ( 'NONE', #180, #287 ) ;
#149 = CARTESIAN_POINT ( 'NONE',  ( -25.17182130584190247, -25.00000000000000000, 40.00000000000000000 ) ) ;
#150 = LINE ( 'NONE', #81, #210 ) ;
#151 = CIRCLE ( 'NONE', #308, 4.999999999999997335 ) ;
#152 = DIRECTION ( 'NONE',  ( 0.000000000000000000, 0.000000000000000000, 1.000000000000000000 ) ) ;
#153 = CYLINDRICAL_SURFACE ( 'NONE', #391, 4.999999999999997335 ) ;
#154 = CARTESIAN_POINT ( 'NONE',  ( -25.17182130584190247, -25.00000000000000000, 40.00000000000000000 ) ) ;
#155 = FACE_BOUND ( 'NONE', #60, .T. ) ;
#156 = EDGE_CURVE ( 'NONE', #54, #448, #157, .T. ) ;
#157 = LINE ( 'NONE', #326, #224 ) ;
#158 = ORIENTED_EDGE ( 'NONE', *, *, #371, .F. ) ;
#159 = CARTESIAN_POINT ( 'NONE',  ( -20.17182130584189892, -25.00000000000000000, 40.00000000000000000 ) ) ;
#160 = DIRECTION ( 'NONE',  ( 0.000000000000000000, 0.000000000000000000, 1.000000000000000000 ) ) ;
#161 = APPROVAL_PERSON_ORGANIZATION ( #204, #178, #105 ) ;
#162 = EDGE_LOOP ( 'NONE', ( #419, #443, #281, #170 ) ) ;
#163 = CARTESIAN_POINT ( 'NONE',  ( 69.82817869415809753, 0.000000000000000000, 40.00000000000000000 ) ) ;
#164 = EDGE_LOOP ( 'NONE', ( #200, #389, #246, #88 ) ) ;
#165 = AXIS2_PLACEMENT_3D ( 'NONE', #182, #399, #230 ) ;
#166 = CIRCLE ( 'NONE', #369, 5.000000000000000888 ) ;
#167 = CYLINDRICAL_SURFACE ( 'NONE', #451, 5.000000000000000888 ) ;
#168 = ORIENTED_EDGE ( 'NONE', *, *, #179, .F. ) ;
#169 = EDGE_CURVE ( 'NONE', #94, #416, #151, .T. ) ;
#170 = ORIENTED_EDGE ( 'NONE', *, *, #112, .F. ) ;
#171 = COORDINATED_UNIVERSAL_TIME_OFFSET ( 8, 0, .AHEAD. ) ;
#172 = ORIENTED_EDGE ( 'NONE', *, *, #169, .F. ) ;
#173 = PERSON_AND_ORGANIZATION_ROLE ( 'design_owner' ) ;
#174 = VERTEX_POINT ( 'NONE', #12 ) ;
#175 = DATE_AND_TIME ( #100, #234 ) ;
#176 = EDGE_LOOP ( 'NONE', ( #251, #459 ) ) ;
#177 = SECURITY_CLASSIFICATION_LEVEL ( 'unclassified' ) ;
#178 = APPROVAL ( #244, '未指定' ) ;
#179 = EDGE_CURVE ( 'NONE', #70, #398, #331, .T. ) ;
#180 = CARTESIAN_POINT ( 'NONE',  ( 69.82817869415809753, 0.000000000000000000, 0.000000000000000000 ) ) ;
#181 = DIRECTION ( 'NONE',  ( 0.000000000000000000, 0.000000000000000000, 1.000000000000000000 ) ) ;
#182 = CARTESIAN_POINT ( 'NONE',  ( 39.82817869415809753, -25.00000000000000000, 0.000000000000000000 ) ) ;
#183 = CARTESIAN_POINT ( 'NONE',  ( 39.82817869415809753, -25.00000000000000000, 40.00000000000000000 ) ) ;
#184 = VECTOR ( 'NONE', #58, 1000.000000000000000 ) ;
#185 = CARTESIAN_POINT ( 'NONE',  ( 69.82817869415809753, -40.00000000000000000, 40.00000000000000000 ) ) ;
#186 = DIRECTION ( 'NONE',  ( 1.000000000000000000, 0.000000000000000000, 0.000000000000000000 ) ) ;
#187 = FACE_OUTER_BOUND ( 'NONE', #408, .T. ) ;
#188 = VECTOR ( 'NONE', #366, 1000.000000000000000 ) ;
#189 = DIRECTION ( 'NONE',  ( 0.000000000000000000, 0.000000000000000000, -1.000000000000000000 ) ) ;
#190 = AXIS2_PLACEMENT_3D ( 'NONE', #114, #296, #291 ) ;
#191 = FACE_BOUND ( 'NONE', #267, .T. ) ;
#192 = SECURITY_CLASSIFICATION ( '', '', #177 ) ;
#193 = PLANE ( 'NONE',  #426 ) ;
#194 = EDGE_CURVE ( 'NONE', #305, #456, #332, .T. ) ;
#195 = CARTESIAN_POINT ( 'NONE',  ( 4.828178694158099304, -15.00000000000000000, 40.00000000000000000 ) ) ;
#196 = CC_DESIGN_PERSON_AND_ORGANIZATION_ASSIGNMENT ( #252, #68, ( #86 ) ) ;
#197 = ORIENTED_EDGE ( 'NONE', *, *, #383, .T. ) ;
#198 = CARTESIAN_POINT ( 'NONE',  ( -50.17182130584190247, 0.000000000000000000, 0.000000000000000000 ) ) ;
#199 = CARTESIAN_POINT ( 'NONE',  ( -20.17182130584189892, -25.00000000000000000, 40.00000000000000000 ) ) ;
#200 = ORIENTED_EDGE ( 'NONE', *, *, #301, .F. ) ;
#201 = EDGE_CURVE ( 'NONE', #243, #456, #222, .T. ) ;
#202 = ORIENTED_EDGE ( 'NONE', *, *, #62, .T. ) ;
#203 = CIRCLE ( 'NONE', #106, 5.000000000000000888 ) ;
#204 = PERSON_AND_ORGANIZATION ( #40, #99 ) ;
#205 = EDGE_LOOP ( 'NONE', ( #392, #98, #315, #212 ) ) ;
#206 = PERSON_AND_ORGANIZATION ( #40, #99 ) ;
#207 = MANIFOLD_SOLID_BREP ( '输入1', #143 ) ;
#208 = VERTEX_POINT ( 'NONE', #431 ) ;
#209 = COORDINATED_UNIVERSAL_TIME_OFFSET ( 8, 0, .AHEAD. ) ;
#210 = VECTOR ( 'NONE', #223, 1000.000000000000000 ) ;
#211 = ORIENTED_EDGE ( 'NONE', *, *, #21, .F. ) ;
#212 = ORIENTED_EDGE ( 'NONE', *, *, #32, .T. ) ;
#213 = LINE ( 'NONE', #145, #266 ) ;
#214 = EDGE_CURVE ( 'NONE', #405, #174, #128, .T. ) ;
#215 = DIRECTION ( 'NONE',  ( 1.000000000000000000, 0.000000000000000000, 0.000000000000000000 ) ) ;
#216 = CARTESIAN_POINT ( 'NONE',  ( 9.828178694158099304, -15.00000000000000000, 0.000000000000000000 ) ) ;
#217 = DIRECTION ( 'NONE',  ( 0.000000000000000000, 0.000000000000000000, 1.000000000000000000 ) ) ;
#218 = AXIS2_PLACEMENT_3D ( 'NONE', #159, #302, #413 ) ;
#219 = DIRECTION ( 'NONE',  ( 1.000000000000000000, 0.000000000000000000, 0.000000000000000000 ) ) ;
#220 = DIRECTION ( 'NONE',  ( 0.000000000000000000, 0.000000000000000000, -1.000000000000000000 ) ) ;
#221 = DESIGN_CONTEXT ( 'detailed design', #418, 'design' ) ;
#222 = LINE ( 'NONE', #149, #188 ) ;
#223 = DIRECTION ( 'NONE',  ( -1.000000000000000000, 0.000000000000000000, 0.000000000000000000 ) ) ;
#224 = VECTOR ( 'NONE', #49, 1000.000000000000000 ) ;
#225 = DIRECTION ( 'NONE',  ( -1.000000000000000000, 0.000000000000000000, 0.000000000000000000 ) ) ;
#226 = CIRCLE ( 'NONE', #190, 5.000000000000000888 ) ;
#227 = EDGE_CURVE ( 'NONE', #425, #120, #404, .T. ) ;
#228 = VECTOR ( 'NONE', #309, 1000.000000000000000 ) ;
#229 = ADVANCED_FACE ( 'NONE', ( #18, #440, #265, #122 ), #329, .F. ) ;
#230 = DIRECTION ( 'NONE',  ( 1.000000000000000000, 0.000000000000000000, 0.000000000000000000 ) ) ;
#231 = ORIENTED_EDGE ( 'NONE', *, *, #383, .F. ) ;
#232 = DIRECTION ( 'NONE',  ( 0.000000000000000000, 0.000000000000000000, -1.000000000000000000 ) ) ;
#233 = DIRECTION ( 'NONE',  ( -1.000000000000000000, 0.000000000000000000, 0.000000000000000000 ) ) ;
#234 = LOCAL_TIME ( 23, 8, 25.00000000000000000, #421 ) ;
#235 = ORIENTED_EDGE ( 'NONE', *, *, #156, .T. ) ;
#236 =( NAMED_UNIT ( * ) PLANE_ANGLE_UNIT ( ) SI_UNIT ( $, .RADIAN. ) );
#237 = CIRCLE ( 'NONE', #340, 4.999999999999997335 ) ;
#238 = ORIENTED_EDGE ( 'NONE', *, *, #41, .F. ) ;
#239 = CARTESIAN_POINT ( 'NONE',  ( 34.82817869415809753, -25.00000000000000000, 0.000000000000000000 ) ) ;
#240 = ADVANCED_FACE ( 'NONE', ( #364 ), #76, .F. ) ;
#241 = ORIENTED_EDGE ( 'NONE', *, *, #276, .F. ) ;
#242 = DIRECTION ( 'NONE',  ( 0.000000000000000000, 0.000000000000000000, -1.000000000000000000 ) ) ;
#243 = VERTEX_POINT ( 'NONE', #154 ) ;
#244 = APPROVAL_STATUS ( 'not_yet_approved' ) ;
#245 = LOCAL_TIME ( 23, 8, 25.00000000000000000, #388 ) ;
#246 = ORIENTED_EDGE ( 'NONE', *, *, #201, .T. ) ;
#247 = PERSON_AND_ORGANIZATION ( #40, #99 ) ;
#248 = EDGE_LOOP ( 'NONE', ( #450, #279 ) ) ;
#249 = APPROVAL_DATE_TIME ( #280, #178 ) ;
#250 = VECTOR ( 'NONE', #397, 1000.000000000000000 ) ;
#251 = ORIENTED_EDGE ( 'NONE', *, *, #41, .T. ) ;
#252 = PERSON_AND_ORGANIZATION ( #40, #99 ) ;
#253 = VECTOR ( 'NONE', #142, 1000.000000000000000 ) ;
#254 = CARTESIAN_POINT ( 'NONE',  ( -20.17182130584189892, -25.00000000000000000, 40.00000000000000000 ) ) ;
#255 = CARTESIAN_POINT ( 'NONE',  ( -50.17182130584190247, 0.000000000000000000, 40.00000000000000000 ) ) ;
#256 = DIRECTION ( 'NONE',  ( 1.000000000000000000, 0.000000000000000000, 0.000000000000000000 ) ) ;
#257 = PLANE ( 'NONE',  #427 ) ;
#258 = UNCERTAINTY_MEASURE_WITH_UNIT (LENGTH_MEASURE( 1.000000000000000082E-05 ), #447, 'distance_accuracy_value', 'NONE');
#259 = CARTESIAN_POINT ( 'NONE',  ( -15.17182130584189892, -25.00000000000000000, 0.000000000000000000 ) ) ;
#260 = CARTESIAN_POINT ( 'NONE',  ( 4.828178694158099304, -15.00000000000000000, 40.00000000000000000 ) ) ;
#261 = DIRECTION ( 'NONE',  ( 3.469446951953615175E-16, -1.000000000000000000, 0.000000000000000000 ) ) ;
#262 = DIRECTION ( 'NONE',  ( 1.000000000000000000, 3.469446951953615175E-16, 0.000000000000000000 ) ) ;
#263 = CARTESIAN_POINT ( 'NONE',  ( 69.82817869415809753, 0.000000000000000000, 40.00000000000000000 ) ) ;
#264 = ADVANCED_FACE ( 'NONE', ( #372 ), #193, .F. ) ;
#265 = FACE_BOUND ( 'NONE', #248, .T. ) ;
#266 = VECTOR ( 'NONE', #215, 1000.000000000000000 ) ;
#267 = EDGE_LOOP ( 'NONE', ( #342, #211 ) ) ;
#268 = AXIS2_PLACEMENT_3D ( 'NONE', #125, #160, #35 ) ;
#269 = LINE ( 'NONE', #455, #184 ) ;
#270 = CYLINDRICAL_SURFACE ( 'NONE', #218, 5.000000000000000888 ) ;
#271 = ORIENTED_EDGE ( 'NONE', *, *, #359, .T. ) ;
#272 = CARTESIAN_POINT ( 'NONE',  ( 39.82817869415809753, -25.00000000000000000, 0.000000000000000000 ) ) ;
#273 = AXIS2_PLACEMENT_3D ( 'NONE', #297, #15, #83 ) ;
#274 = ORIENTED_EDGE ( 'NONE', *, *, #112, .T. ) ;
#275 = CARTESIAN_POINT ( 'NONE',  ( 69.82817869415809753, -40.00000000000000000, 0.000000000000000000 ) ) ;
#276 = EDGE_CURVE ( 'NONE', #136, #120, #26, .T. ) ;
#277 = CC_DESIGN_PERSON_AND_ORGANIZATION_ASSIGNMENT ( #103, #134, ( #192 ) ) ;
#278 = ORIENTED_EDGE ( 'NONE', *, *, #359, .F. ) ;
#279 = ORIENTED_EDGE ( 'NONE', *, *, #371, .T. ) ;
#280 = DATE_AND_TIME ( #39, #347 ) ;
#281 = ORIENTED_EDGE ( 'NONE', *, *, #403, .T. ) ;
#282 = APPROVAL_STATUS ( 'not_yet_approved' ) ;
#283 = ORIENTED_EDGE ( 'NONE', *, *, #314, .F. ) ;
#284 = AXIS2_PLACEMENT_3D ( 'NONE', #216, #181, #186 ) ;
#285 = DIRECTION ( 'NONE',  ( 1.000000000000000000, 0.000000000000000000, 0.000000000000000000 ) ) ;
#286 = DATE_TIME_ROLE ( 'creation_date' ) ;
#287 = VECTOR ( 'NONE', #437, 1000.000000000000000 ) ;
#288 = CIRCLE ( 'NONE', #10, 4.999999999999997335 ) ;
#289 = DIRECTION ( 'NONE',  ( 0.000000000000000000, 0.000000000000000000, -1.000000000000000000 ) ) ;
#290 = PLANE ( 'NONE',  #69 ) ;
#291 = DIRECTION ( 'NONE',  ( 1.000000000000000000, 0.000000000000000000, 0.000000000000000000 ) ) ;
#292 = EDGE_CURVE ( 'NONE', #425, #2, #343, .T. ) ;
#293 = DIRECTION ( 'NONE',  ( 0.000000000000000000, 0.000000000000000000, -1.000000000000000000 ) ) ;
#294 = CARTESIAN_POINT ( 'NONE',  ( -20.17182130584189892, -25.00000000000000000, 0.000000000000000000 ) ) ;
#295 = CARTESIAN_POINT ( 'NONE',  ( 39.82817869415809753, -25.00000000000000000, 40.00000000000000000 ) ) ;
#296 = DIRECTION ( 'NONE',  ( 0.000000000000000000, 0.000000000000000000, 1.000000000000000000 ) ) ;
#297 = CARTESIAN_POINT ( 'NONE',  ( 9.828178694158099304, -15.00000000000000000, 40.00000000000000000 ) ) ;
#298 = ADVANCED_FACE ( 'NONE', ( #361 ), #117, .F. ) ;
#299 = DIRECTION ( 'NONE',  ( -1.000000000000000000, 0.000000000000000000, 0.000000000000000000 ) ) ;
#300 = CARTESIAN_POINT ( 'NONE',  ( -15.17182130584189892, -25.00000000000000000, 40.00000000000000000 ) ) ;
#301 = EDGE_CURVE ( 'NONE', #318, #305, #370, .T. ) ;
#302 = DIRECTION ( 'NONE',  ( 0.000000000000000000, 0.000000000000000000, -1.000000000000000000 ) ) ;
#303 = VECTOR ( 'NONE', #52, 1000.000000000000000 ) ;
#304 = DIRECTION ( 'NONE',  ( -1.000000000000000000, 0.000000000000000000, 0.000000000000000000 ) ) ;
#305 = VERTEX_POINT ( 'NONE', #259 ) ;
#306 = CARTESIAN_POINT ( 'NONE',  ( 69.82817869415809753, 0.000000000000000000, 40.00000000000000000 ) ) ;
#307 = ORIENTED_EDGE ( 'NONE', *, *, #95, .F. ) ;
#308 = AXIS2_PLACEMENT_3D ( 'NONE', #183, #44, #219 ) ;
#309 = DIRECTION ( 'NONE',  ( 3.469446951953615175E-16, -1.000000000000000000, 0.000000000000000000 ) ) ;
#310 = AXIS2_PLACEMENT_3D ( 'NONE', #396, #16, #46 ) ;
#311 = ORIENTED_EDGE ( 'NONE', *, *, #129, .F. ) ;
#312 = LINE ( 'NONE', #198, #228 ) ;
#313 = AXIS2_PLACEMENT_3D ( 'NONE', #47, #293, #433 ) ;
#314 = EDGE_CURVE ( 'NONE', #416, #94, #237, .T. ) ;
#315 = ORIENTED_EDGE ( 'NONE', *, *, #442, .F. ) ;
#316 = MECHANICAL_CONTEXT ( 'NONE', #324, 'mechanical' ) ;
#317 = EDGE_LOOP ( 'NONE', ( #197, #354, #27, #350 ) ) ;
#318 = VERTEX_POINT ( 'NONE', #300 ) ;
#319 = CALENDAR_DATE ( 2026, 8, 4 ) ;
#320 = ORIENTED_EDGE ( 'NONE', *, *, #87, .T. ) ;
#321 = CARTESIAN_POINT ( 'NONE',  ( -50.17182130584190247, 0.000000000000000000, 0.000000000000000000 ) ) ;
#322 = SHAPE_DEFINITION_REPRESENTATION ( #1, #415 ) ;
#323 = CARTESIAN_POINT ( 'NONE',  ( -50.17182130584190247, -40.00000000000000000, 40.00000000000000000 ) ) ;
#324 = APPLICATION_CONTEXT ( 'configuration controlled 3d designs of mechanical parts and assemblies' ) ;
#325 = VECTOR ( 'NONE', #363, 1000.000000000000000 ) ;
#326 = CARTESIAN_POINT ( 'NONE',  ( -50.17182130584190247, 0.000000000000000000, 40.00000000000000000 ) ) ;
#327 = AXIS2_PLACEMENT_3D ( 'NONE', #380, #449, #304 ) ;
#328 = LINE ( 'NONE', #394, #253 ) ;
#329 = PLANE ( 'NONE',  #141 ) ;
#330 = CARTESIAN_POINT ( 'NONE',  ( 39.82817869415809753, -25.00000000000000000, 40.00000000000000000 ) ) ;
#331 = LINE ( 'NONE', #9, #250 ) ;
#332 = CIRCLE ( 'NONE', #411, 5.000000000000000888 ) ;
#333 = DIRECTION ( 'NONE',  ( 1.000000000000000000, 0.000000000000000000, 0.000000000000000000 ) ) ;
#334 = DIRECTION ( 'NONE',  ( 0.000000000000000000, 0.000000000000000000, 1.000000000000000000 ) ) ;
#335 = FACE_BOUND ( 'NONE', #453, .T. ) ;
#336 = DIRECTION ( 'NONE',  ( 0.000000000000000000, 0.000000000000000000, 1.000000000000000000 ) ) ;
#337 = EDGE_LOOP ( 'NONE', ( #202, #387, #241, #57 ) ) ;
#338 = CARTESIAN_POINT ( 'NONE',  ( 14.82817869415809930, -15.00000000000000000, 40.00000000000000000 ) ) ;
#339 = FACE_OUTER_BOUND ( 'NONE', #5, .T. ) ;
#340 = AXIS2_PLACEMENT_3D ( 'NONE', #295, #336, #20 ) ;
#341 = CARTESIAN_POINT ( 'NONE',  ( -50.17182130584190247, -40.00000000000000000, 40.00000000000000000 ) ) ;
#342 = ORIENTED_EDGE ( 'NONE', *, *, #87, .F. ) ;
#343 = CIRCLE ( 'NONE', #273, 5.000000000000000888 ) ;
#344 = APPLICATION_PROTOCOL_DEFINITION ( 'international standard', 'config_control_design', 1994, #324 ) ;
#345 = ADVANCED_FACE ( 'NONE', ( #28 ), #167, .F. ) ;
#346 = EDGE_LOOP ( 'NONE', ( #414, #278, #168, #133 ) ) ;
#347 = LOCAL_TIME ( 23, 8, 25.00000000000000000, #171 ) ;
#348 = ORIENTED_EDGE ( 'NONE', *, *, #129, .T. ) ;
#349 = APPROVAL_ROLE ( '' ) ;
#350 = ORIENTED_EDGE ( 'NONE', *, *, #379, .T. ) ;
#351 = PERSON_AND_ORGANIZATION_ROLE ( 'creator' ) ;
#352 = ORIENTED_EDGE ( 'NONE', *, *, #135, .T. ) ;
#353 = CC_DESIGN_SECURITY_CLASSIFICATION ( #192, ( #86 ) ) ;
#354 = ORIENTED_EDGE ( 'NONE', *, *, #32, .F. ) ;
#355 = PERSON_AND_ORGANIZATION ( #40, #99 ) ;
#356 = EDGE_CURVE ( 'NONE', #94, #405, #269, .T. ) ;
#357 = DIRECTION ( 'NONE',  ( 0.000000000000000000, 0.000000000000000000, 1.000000000000000000 ) ) ;
#358 = APPROVAL ( #282, '未指定' ) ;
#359 = EDGE_CURVE ( 'NONE', #398, #423, #90, .T. ) ;
#360 = CARTESIAN_POINT ( 'NONE',  ( 14.82817869415809930, -15.00000000000000000, 0.000000000000000000 ) ) ;
#361 = FACE_OUTER_BOUND ( 'NONE', #337, .T. ) ;
#362 = APPROVAL_PERSON_ORGANIZATION ( #206, #358, #382 ) ;
#363 = DIRECTION ( 'NONE',  ( 0.000000000000000000, 0.000000000000000000, -1.000000000000000000 ) ) ;
#364 = FACE_OUTER_BOUND ( 'NONE', #162, .T. ) ;
#365 = DIRECTION ( 'NONE',  ( 0.000000000000000000, -1.000000000000000000, 0.000000000000000000 ) ) ;
#366 = DIRECTION ( 'NONE',  ( 0.000000000000000000, 0.000000000000000000, -1.000000000000000000 ) ) ;
#367 = AXIS2_PLACEMENT_3D ( 'NONE', #78, #119, #225 ) ;
#368 = LINE ( 'NONE', #321, #14 ) ;
#369 = AXIS2_PLACEMENT_3D ( 'NONE', #7, #357, #333 ) ;
#370 = LINE ( 'NONE', #85, #436 ) ;
#371 = EDGE_CURVE ( 'NONE', #174, #405, #288, .T. ) ;
#372 = FACE_OUTER_BOUND ( 'NONE', #346, .T. ) ;
#373 = ORIENTED_EDGE ( 'NONE', *, *, #301, .T. ) ;
#374 = FACE_OUTER_BOUND ( 'NONE', #164, .T. ) ;
#375 = CC_DESIGN_PERSON_AND_ORGANIZATION_ASSIGNMENT ( #247, #351, ( #458 ) ) ;
#376 = CARTESIAN_POINT ( 'NONE',  ( -50.17182130584190247, 0.000000000000000000, 40.00000000000000000 ) ) ;
#377 = ORIENTED_EDGE ( 'NONE', *, *, #135, .F. ) ;
#378 = DIRECTION ( 'NONE',  ( 1.000000000000000000, 0.000000000000000000, 0.000000000000000000 ) ) ;
#379 = EDGE_CURVE ( 'NONE', #54, #208, #89, .T. ) ;
#380 = CARTESIAN_POINT ( 'NONE',  ( 39.82817869415809753, -25.00000000000000000, 40.00000000000000000 ) ) ;
#381 = ORIENTED_EDGE ( 'NONE', *, *, #214, .F. ) ;
#382 = APPROVAL_ROLE ( '' ) ;
#383 = EDGE_CURVE ( 'NONE', #208, #36, #312, .T. ) ;
#384 = ORIENTED_EDGE ( 'NONE', *, *, #169, .T. ) ;
#385 = DATE_AND_TIME ( #390, #452 ) ;
#386 =( GEOMETRIC_REPRESENTATION_CONTEXT ( 3 ) GLOBAL_UNCERTAINTY_ASSIGNED_CONTEXT ( ( #258 ) ) GLOBAL_UNIT_ASSIGNED_CONTEXT ( ( #447, #236, #124 ) ) REPRESENTATION_CONTEXT ( 'NONE', 'WORKASPACE' ) );
#387 = ORIENTED_EDGE ( 'NONE', *, *, #227, .T. ) ;
#388 = COORDINATED_UNIVERSAL_TIME_OFFSET ( 8, 0, .AHEAD. ) ;
#389 = ORIENTED_EDGE ( 'NONE', *, *, #21, .T. ) ;
#390 = CALENDAR_DATE ( 2026, 8, 4 ) ;
#391 = AXIS2_PLACEMENT_3D ( 'NONE', #330, #402, #13 ) ;
#392 = ORIENTED_EDGE ( 'NONE', *, *, #73, .T. ) ;
#393 = CC_DESIGN_APPROVAL ( #178, ( #86 ) ) ;
#394 = CARTESIAN_POINT ( 'NONE',  ( -50.17182130584190247, -40.00000000000000000, 40.00000000000000000 ) ) ;
#395 = CC_DESIGN_DATE_AND_TIME_ASSIGNMENT ( #385, #37, ( #192 ) ) ;
#396 = CARTESIAN_POINT ( 'NONE',  ( 9.828178694158099304, -15.00000000000000000, 0.000000000000000000 ) ) ;
#397 = DIRECTION ( 'NONE',  ( -3.469446951953615175E-16, 1.000000000000000000, 0.000000000000000000 ) ) ;
#398 = VERTEX_POINT ( 'NONE', #306 ) ;
#399 = DIRECTION ( 'NONE',  ( 0.000000000000000000, 0.000000000000000000, 1.000000000000000000 ) ) ;
#400 = LINE ( 'NONE', #185, #29 ) ;
#401 = CARTESIAN_POINT ( 'NONE',  ( 0.000000000000000000, 0.000000000000000000, 0.000000000000000000 ) ) ;
#402 = DIRECTION ( 'NONE',  ( 0.000000000000000000, 0.000000000000000000, -1.000000000000000000 ) ) ;
#403 = EDGE_CURVE ( 'NONE', #2, #136, #131, .T. ) ;
#404 = LINE ( 'NONE', #435, #82 ) ;
#405 = VERTEX_POINT ( 'NONE', #239 ) ;
#406 = AXIS2_PLACEMENT_3D ( 'NONE', #254, #118, #11 ) ;
#407 = DIRECTION ( 'NONE',  ( -1.000000000000000000, -3.469446951953615175E-16, 0.000000000000000000 ) ) ;
#408 = EDGE_LOOP ( 'NONE', ( #352, #4, #311, #271 ) ) ;
#409 = CC_DESIGN_PERSON_AND_ORGANIZATION_ASSIGNMENT ( #355, #173, ( #132 ) ) ;
#410 = LINE ( 'NONE', #341, #422 ) ;
#411 = AXIS2_PLACEMENT_3D ( 'NONE', #147, #152, #51 ) ;
#412 = ORIENTED_EDGE ( 'NONE', *, *, #73, .F. ) ;
#413 = DIRECTION ( 'NONE',  ( -1.000000000000000000, 0.000000000000000000, 0.000000000000000000 ) ) ;
#414 = ORIENTED_EDGE ( 'NONE', *, *, #95, .T. ) ;
#415 = ADVANCED_BREP_SHAPE_REPRESENTATION ( 'HuaTai_\X2\9ed88ba4\X0\_sldprt', ( #207, #268 ), #386 ) ;
#416 = VERTEX_POINT ( 'NONE', #55 ) ;
#417 = ADVANCED_FACE ( 'NONE', ( #339 ), #24, .F. ) ;
#418 = APPLICATION_CONTEXT ( 'configuration controlled 3d designs of mechanical parts and assemblies' ) ;
#419 = ORIENTED_EDGE ( 'NONE', *, *, #227, .F. ) ;
#420 = VERTEX_POINT ( 'NONE', #275 ) ;
#421 = COORDINATED_UNIVERSAL_TIME_OFFSET ( 8, 0, .AHEAD. ) ;
#422 = VECTOR ( 'NONE', #92, 1000.000000000000000 ) ;
#423 = VERTEX_POINT ( 'NONE', #127 ) ;
#424 = DATE_AND_TIME ( #457, #446 ) ;
#425 = VERTEX_POINT ( 'NONE', #338 ) ;
#426 = AXIS2_PLACEMENT_3D ( 'NONE', #263, #407, #261 ) ;
#427 = AXIS2_PLACEMENT_3D ( 'NONE', #74, #365, #289 ) ;
#428 = FACE_OUTER_BOUND ( 'NONE', #317, .T. ) ;
#429 = APPROVAL_DATE_TIME ( #175, #93 ) ;
#430 = LINE ( 'NONE', #116, #325 ) ;
#431 = CARTESIAN_POINT ( 'NONE',  ( -50.17182130584190247, 0.000000000000000000, 0.000000000000000000 ) ) ;
#432 = FACE_OUTER_BOUND ( 'NONE', #205, .T. ) ;
#433 = DIRECTION ( 'NONE',  ( -1.000000000000000000, 0.000000000000000000, 0.000000000000000000 ) ) ;
#434 = DIRECTION ( 'NONE',  ( 0.000000000000000000, 1.000000000000000000, 0.000000000000000000 ) ) ;
#435 = CARTESIAN_POINT ( 'NONE',  ( 14.82817869415809930, -15.00000000000000000, 40.00000000000000000 ) ) ;
#436 = VECTOR ( 'NONE', #115, 1000.000000000000000 ) ;
#437 = DIRECTION ( 'NONE',  ( -3.469446951953615175E-16, 1.000000000000000000, 0.000000000000000000 ) ) ;
#438 = DIRECTION ( 'NONE',  ( 1.000000000000000000, 0.000000000000000000, 0.000000000000000000 ) ) ;
#439 = FACE_OUTER_BOUND ( 'NONE', #96, .T. ) ;
#440 = FACE_BOUND ( 'NONE', #176, .T. ) ;
#441 = CC_DESIGN_PERSON_AND_ORGANIZATION_ASSIGNMENT ( #71, #97, ( #86 ) ) ;
#442 = EDGE_CURVE ( 'NONE', #448, #70, #410, .T. ) ;
#443 = ORIENTED_EDGE ( 'NONE', *, *, #292, .T. ) ;
#444 = CIRCLE ( 'NONE', #406, 5.000000000000000888 ) ;
#445 = CARTESIAN_POINT ( 'NONE',  ( -25.17182130584190247, -25.00000000000000000, 0.000000000000000000 ) ) ;
#446 = LOCAL_TIME ( 23, 8, 25.00000000000000000, #137 ) ;
#447 =( LENGTH_UNIT ( ) NAMED_UNIT ( * ) SI_UNIT ( .MILLI., .METRE. ) );
#448 = VERTEX_POINT ( 'NONE', #25 ) ;
#449 = DIRECTION ( 'NONE',  ( 0.000000000000000000, 0.000000000000000000, -1.000000000000000000 ) ) ;
#450 = ORIENTED_EDGE ( 'NONE', *, *, #214, .T. ) ;
#451 = AXIS2_PLACEMENT_3D ( 'NONE', #199, #232, #233 ) ;
#452 = LOCAL_TIME ( 23, 8, 25.00000000000000000, #209 ) ;
#453 = EDGE_LOOP ( 'NONE', ( #140, #126 ) ) ;
#454 = ADVANCED_FACE ( 'NONE', ( #374 ), #270, .F. ) ;
#455 = CARTESIAN_POINT ( 'NONE',  ( 34.82817869415809753, -25.00000000000000000, 40.00000000000000000 ) ) ;
#456 = VERTEX_POINT ( 'NONE', #445 ) ;
#457 = CALENDAR_DATE ( 2026, 8, 4 ) ;
#458 = PRODUCT_DEFINITION ( '未知', '', #86, #221 ) ;
#459 = ORIENTED_EDGE ( 'NONE', *, *, #194, .T. ) ;
ENDSEC;
END-ISO-10303-21;
