ISO-10303-21;
HEADER;
FILE_DESCRIPTION (( 'STEP AP203' ),
    '1' );
FILE_NAME ('SiGan_默认_sldprt.STEP',
    '2026-04-08T15:08:26',
    ( '' ),
    ( '' ),
    'SwSTEP 2.0',
    'SolidWorks 2022',
    '' );
FILE_SCHEMA (( 'CONFIG_CONTROL_DESIGN' ));
ENDSEC;

DATA;
#1 = FACE_OUTER_BOUND ( 'NONE', #39, .T. ) ;
#2 = DIRECTION ( 'NONE',  ( 0.000000000000000000, 0.000000000000000000, 1.000000000000000000 ) ) ;
#3 = CARTESIAN_POINT ( 'NONE',  ( 5.000000000000000000, 6.123233995736766282E-16, 620.0000000000000000 ) ) ;
#4 = DIRECTION ( 'NONE',  ( 0.000000000000000000, 0.000000000000000000, -1.000000000000000000 ) ) ;
#5 =( GEOMETRIC_REPRESENTATION_CONTEXT ( 3 ) GLOBAL_UNCERTAINTY_ASSIGNED_CONTEXT ( ( #138 ) ) GLOBAL_UNIT_ASSIGNED_CONTEXT ( ( #152, #31, #140 ) ) REPRESENTATION_CONTEXT ( 'NONE', 'WORKASPACE' ) );
#6 = FACE_OUTER_BOUND ( 'NONE', #47, .T. ) ;
#7 = PERSON_AND_ORGANIZATION ( #91, #65 ) ;
#8 = DATE_AND_TIME ( #76, #20 ) ;
#9 = CC_DESIGN_PERSON_AND_ORGANIZATION_ASSIGNMENT ( #89, #37, ( #93 ) ) ;
#10 = DATE_TIME_ROLE ( 'creation_date' ) ;
#11 = COORDINATED_UNIVERSAL_TIME_OFFSET ( 8, 0, .AHEAD. ) ;
#12 = LOCAL_TIME ( 23, 8, 26.00000000000000000, #130 ) ;
#13 = EDGE_LOOP ( 'NONE', ( #49, #80 ) ) ;
#14 = ADVANCED_FACE ( 'NONE', ( #68 ), #126, .T. ) ;
#15 = CARTESIAN_POINT ( 'NONE',  ( -5.000000000000000000, 0.000000000000000000, 620.0000000000000000 ) ) ;
#16 = AXIS2_PLACEMENT_3D ( 'NONE', #127, #82, #162 ) ;
#17 = DIRECTION ( 'NONE',  ( 1.000000000000000000, 0.000000000000000000, 0.000000000000000000 ) ) ;
#18 = DIRECTION ( 'NONE',  ( 0.000000000000000000, 0.000000000000000000, 1.000000000000000000 ) ) ;
#19 = LINE ( 'NONE', #15, #78 ) ;
#20 = LOCAL_TIME ( 23, 8, 26.00000000000000000, #11 ) ;
#21 = PRODUCT ( 'SiGan_\X2\9ed88ba4\X0\_sldprt', 'SiGan_\X2\9ed88ba4\X0\_sldprt', '', ( #154 ) ) ;
#22 = CC_DESIGN_DATE_AND_TIME_ASSIGNMENT ( #8, #10, ( #93 ) ) ;
#23 = APPROVAL_ROLE ( '' ) ;
#24 = LOCAL_TIME ( 23, 8, 26.00000000000000000, #104 ) ;
#25 = PERSON_AND_ORGANIZATION ( #91, #65 ) ;
#26 = VERTEX_POINT ( 'NONE', #159 ) ;
#27 = APPROVAL ( #60, '未指定' ) ;
#28 = ORIENTED_EDGE ( 'NONE', *, *, #69, .T. ) ;
#29 = DIRECTION ( 'NONE',  ( 1.000000000000000000, 0.000000000000000000, 0.000000000000000000 ) ) ;
#30 = CARTESIAN_POINT ( 'NONE',  ( 0.000000000000000000, 0.000000000000000000, 620.0000000000000000 ) ) ;
#31 =( NAMED_UNIT ( * ) PLANE_ANGLE_UNIT ( ) SI_UNIT ( $, .RADIAN. ) );
#32 = DIRECTION ( 'NONE',  ( 1.000000000000000000, 0.000000000000000000, 0.000000000000000000 ) ) ;
#33 = AXIS2_PLACEMENT_3D ( 'NONE', #30, #2, #17 ) ;
#34 = PERSON_AND_ORGANIZATION_ROLE ( 'creator' ) ;
#35 = CALENDAR_DATE ( 2026, 8, 4 ) ;
#36 = ADVANCED_BREP_SHAPE_REPRESENTATION ( 'SiGan_\X2\9ed88ba4\X0\_sldprt', ( #42, #96 ), #5 ) ;
#37 = PERSON_AND_ORGANIZATION_ROLE ( 'creator' ) ;
#38 = AXIS2_PLACEMENT_3D ( 'NONE', #111, #136, #164 ) ;
#39 = EDGE_LOOP ( 'NONE', ( #134, #123, #83, #108 ) ) ;
#40 = CARTESIAN_POINT ( 'NONE',  ( 0.000000000000000000, 0.000000000000000000, 620.0000000000000000 ) ) ;
#41 = CC_DESIGN_PERSON_AND_ORGANIZATION_ASSIGNMENT ( #118, #172, ( #146 ) ) ;
#42 = MANIFOLD_SOLID_BREP ( '输入1', #110 ) ;
#43 = CARTESIAN_POINT ( 'NONE',  ( 5.000000000000000000, 6.123233995736766282E-16, 620.0000000000000000 ) ) ;
#44 = CYLINDRICAL_SURFACE ( 'NONE', #16, 5.000000000000000000 ) ;
#45 = PERSON_AND_ORGANIZATION ( #91, #65 ) ;
#46 = SHAPE_DEFINITION_REPRESENTATION ( #73, #36 ) ;
#47 = EDGE_LOOP ( 'NONE', ( #120, #173 ) ) ;
#48 = CC_DESIGN_PERSON_AND_ORGANIZATION_ASSIGNMENT ( #25, #87, ( #105 ) ) ;
#49 = ORIENTED_EDGE ( 'NONE', *, *, #139, .T. ) ;
#50 = LOCAL_TIME ( 23, 8, 26.00000000000000000, #90 ) ;
#51 = FACE_OUTER_BOUND ( 'NONE', #67, .T. ) ;
#52 = PLANE ( 'NONE',  #38 ) ;
#53 = DESIGN_CONTEXT ( 'detailed design', #107, 'design' ) ;
#54 = CC_DESIGN_PERSON_AND_ORGANIZATION_ASSIGNMENT ( #45, #132, ( #21 ) ) ;
#55 = DIRECTION ( 'NONE',  ( 1.000000000000000000, 0.000000000000000000, 0.000000000000000000 ) ) ;
#56 = CYLINDRICAL_SURFACE ( 'NONE', #124, 5.000000000000000000 ) ;
#57 = PERSON_AND_ORGANIZATION ( #91, #65 ) ;
#58 = APPROVAL_STATUS ( 'not_yet_approved' ) ;
#59 = CALENDAR_DATE ( 2026, 8, 4 ) ;
#60 = APPROVAL_STATUS ( 'not_yet_approved' ) ;
#61 = CIRCLE ( 'NONE', #133, 5.000000000000000000 ) ;
#62 = CC_DESIGN_APPROVAL ( #135, ( #105 ) ) ;
#63 = ORIENTED_EDGE ( 'NONE', *, *, #102, .F. ) ;
#64 = APPLICATION_CONTEXT ( 'configuration controlled 3d designs of mechanical parts and assemblies' ) ;
#65 = ORGANIZATION ( '未指定', '未指定', '' ) ;
#66 = AXIS2_PLACEMENT_3D ( 'NONE', #94, #18, #55 ) ;
#67 = EDGE_LOOP ( 'NONE', ( #148, #174, #28, #63 ) ) ;
#68 = FACE_OUTER_BOUND ( 'NONE', #13, .T. ) ;
#69 = EDGE_CURVE ( 'NONE', #175, #81, #85, .T. ) ;
#70 = CARTESIAN_POINT ( 'NONE',  ( 0.000000000000000000, 0.000000000000000000, 620.0000000000000000 ) ) ;
#71 = DIRECTION ( 'NONE',  ( 0.000000000000000000, 0.000000000000000000, 1.000000000000000000 ) ) ;
#72 = DIRECTION ( 'NONE',  ( 0.000000000000000000, 0.000000000000000000, 1.000000000000000000 ) ) ;
#73 = PRODUCT_DEFINITION_SHAPE ( 'NONE', 'NONE',  #93 ) ;
#74 = DIRECTION ( 'NONE',  ( 1.000000000000000000, 0.000000000000000000, 0.000000000000000000 ) ) ;
#75 = CALENDAR_DATE ( 2026, 8, 4 ) ;
#76 = CALENDAR_DATE ( 2026, 8, 4 ) ;
#77 = ADVANCED_FACE ( 'NONE', ( #6 ), #52, .F. ) ;
#78 = VECTOR ( 'NONE', #4, 1000.000000000000000 ) ;
#79 = APPROVAL_PERSON_ORGANIZATION ( #142, #168, #143 ) ;
#80 = ORIENTED_EDGE ( 'NONE', *, *, #109, .T. ) ;
#81 = VERTEX_POINT ( 'NONE', #161 ) ;
#82 = DIRECTION ( 'NONE',  ( 0.000000000000000000, 0.000000000000000000, -1.000000000000000000 ) ) ;
#83 = ORIENTED_EDGE ( 'NONE', *, *, #102, .T. ) ;
#84 = CARTESIAN_POINT ( 'NONE',  ( 5.000000000000000000, 6.123233995736766282E-16, 0.000000000000000000 ) ) ;
#85 = CIRCLE ( 'NONE', #66, 5.000000000000000000 ) ;
#86 = APPROVAL_DATE_TIME ( #116, #135 ) ;
#87 = PERSON_AND_ORGANIZATION_ROLE ( 'classification_officer' ) ;
#88 = ADVANCED_FACE ( 'NONE', ( #51 ), #56, .T. ) ;
#89 = PERSON_AND_ORGANIZATION ( #91, #65 ) ;
#90 = COORDINATED_UNIVERSAL_TIME_OFFSET ( 8, 0, .AHEAD. ) ;
#91 = PERSON ( '未指定', '未指定', '未指定', ('未指定'), ('未指定'), ('未指定') ) ;
#92 = LOCAL_TIME ( 23, 8, 26.00000000000000000, #131 ) ;
#93 = PRODUCT_DEFINITION ( '未知', '', #146, #53 ) ;
#94 = CARTESIAN_POINT ( 'NONE',  ( 0.000000000000000000, 0.000000000000000000, 0.000000000000000000 ) ) ;
#95 = DIRECTION ( 'NONE',  ( -1.000000000000000000, 0.000000000000000000, 0.000000000000000000 ) ) ;
#96 = AXIS2_PLACEMENT_3D ( 'NONE', #98, #166, #74 ) ;
#97 = CARTESIAN_POINT ( 'NONE',  ( 0.000000000000000000, 0.000000000000000000, 620.0000000000000000 ) ) ;
#98 = CARTESIAN_POINT ( 'NONE',  ( 0.000000000000000000, 0.000000000000000000, 0.000000000000000000 ) ) ;
#99 = APPLICATION_PROTOCOL_DEFINITION ( 'international standard', 'config_control_design', 1994, #64 ) ;
#100 = AXIS2_PLACEMENT_3D ( 'NONE', #70, #72, #29 ) ;
#101 = DATE_AND_TIME ( #75, #24 ) ;
#102 = EDGE_CURVE ( 'NONE', #26, #81, #19, .T. ) ;
#103 = APPLICATION_PROTOCOL_DEFINITION ( 'international standard', 'config_control_design', 1994, #107 ) ;
#104 = COORDINATED_UNIVERSAL_TIME_OFFSET ( 8, 0, .AHEAD. ) ;
#105 = SECURITY_CLASSIFICATION ( '', '', #158 ) ;
#106 = APPROVAL_DATE_TIME ( #101, #27 ) ;
#107 = APPLICATION_CONTEXT ( 'configuration controlled 3d designs of mechanical parts and assemblies' ) ;
#108 = ORIENTED_EDGE ( 'NONE', *, *, #128, .T. ) ;
#109 = EDGE_CURVE ( 'NONE', #145, #26, #144, .T. ) ;
#110 = CLOSED_SHELL ( 'NONE', ( #88, #155, #14, #77 ) ) ;
#111 = CARTESIAN_POINT ( 'NONE',  ( 0.000000000000000000, 0.000000000000000000, 0.000000000000000000 ) ) ;
#112 = LINE ( 'NONE', #3, #141 ) ;
#113 = CARTESIAN_POINT ( 'NONE',  ( 0.000000000000000000, 0.000000000000000000, 0.000000000000000000 ) ) ;
#114 = PERSON_AND_ORGANIZATION ( #91, #65 ) ;
#115 = CALENDAR_DATE ( 2026, 8, 4 ) ;
#116 = DATE_AND_TIME ( #115, #50 ) ;
#117 = DATE_AND_TIME ( #35, #12 ) ;
#118 = PERSON_AND_ORGANIZATION ( #91, #65 ) ;
#119 = CC_DESIGN_APPROVAL ( #168, ( #146 ) ) ;
#120 = ORIENTED_EDGE ( 'NONE', *, *, #128, .F. ) ;
#121 = EDGE_CURVE ( 'NONE', #145, #175, #112, .T. ) ;
#122 = CC_DESIGN_APPROVAL ( #27, ( #93 ) ) ;
#123 = ORIENTED_EDGE ( 'NONE', *, *, #139, .F. ) ;
#124 = AXIS2_PLACEMENT_3D ( 'NONE', #40, #149, #95 ) ;
#125 = DIRECTION ( 'NONE',  ( 1.000000000000000000, 0.000000000000000000, 0.000000000000000000 ) ) ;
#126 = PLANE ( 'NONE',  #33 ) ;
#127 = CARTESIAN_POINT ( 'NONE',  ( 0.000000000000000000, 0.000000000000000000, 620.0000000000000000 ) ) ;
#128 = EDGE_CURVE ( 'NONE', #81, #175, #61, .T. ) ;
#129 = APPROVAL_ROLE ( '' ) ;
#130 = COORDINATED_UNIVERSAL_TIME_OFFSET ( 8, 0, .AHEAD. ) ;
#131 = COORDINATED_UNIVERSAL_TIME_OFFSET ( 8, 0, .AHEAD. ) ;
#132 = PERSON_AND_ORGANIZATION_ROLE ( 'design_owner' ) ;
#133 = AXIS2_PLACEMENT_3D ( 'NONE', #113, #71, #32 ) ;
#134 = ORIENTED_EDGE ( 'NONE', *, *, #121, .F. ) ;
#135 = APPROVAL ( #58, '未指定' ) ;
#136 = DIRECTION ( 'NONE',  ( 0.000000000000000000, 0.000000000000000000, 1.000000000000000000 ) ) ;
#137 = DIRECTION ( 'NONE',  ( 0.000000000000000000, 0.000000000000000000, -1.000000000000000000 ) ) ;
#138 = UNCERTAINTY_MEASURE_WITH_UNIT (LENGTH_MEASURE( 1.000000000000000082E-05 ), #152, 'distance_accuracy_value', 'NONE');
#139 = EDGE_CURVE ( 'NONE', #26, #145, #153, .T. ) ;
#140 =( NAMED_UNIT ( * ) SI_UNIT ( $, .STERADIAN. ) SOLID_ANGLE_UNIT ( ) );
#141 = VECTOR ( 'NONE', #137, 1000.000000000000000 ) ;
#142 = PERSON_AND_ORGANIZATION ( #91, #65 ) ;
#143 = APPROVAL_ROLE ( '' ) ;
#144 = CIRCLE ( 'NONE', #165, 5.000000000000000000 ) ;
#145 = VERTEX_POINT ( 'NONE', #43 ) ;
#146 = PRODUCT_DEFINITION_FORMATION_WITH_SPECIFIED_SOURCE ( '任何', '', #21, .NOT_KNOWN. ) ;
#147 = PRODUCT_RELATED_PRODUCT_CATEGORY ( 'detail', '', ( #21 ) ) ;
#148 = ORIENTED_EDGE ( 'NONE', *, *, #109, .F. ) ;
#149 = DIRECTION ( 'NONE',  ( 0.000000000000000000, 0.000000000000000000, -1.000000000000000000 ) ) ;
#150 = CC_DESIGN_DATE_AND_TIME_ASSIGNMENT ( #169, #167, ( #105 ) ) ;
#151 = DIRECTION ( 'NONE',  ( 0.000000000000000000, 0.000000000000000000, 1.000000000000000000 ) ) ;
#152 =( LENGTH_UNIT ( ) NAMED_UNIT ( * ) SI_UNIT ( .MILLI., .METRE. ) );
#153 = CIRCLE ( 'NONE', #100, 5.000000000000000000 ) ;
#154 = MECHANICAL_CONTEXT ( 'NONE', #64, 'mechanical' ) ;
#155 = ADVANCED_FACE ( 'NONE', ( #1 ), #44, .T. ) ;
#156 = APPROVAL_PERSON_ORGANIZATION ( #114, #27, #129 ) ;
#157 = APPROVAL_STATUS ( 'not_yet_approved' ) ;
#158 = SECURITY_CLASSIFICATION_LEVEL ( 'unclassified' ) ;
#159 = CARTESIAN_POINT ( 'NONE',  ( -5.000000000000000000, 0.000000000000000000, 620.0000000000000000 ) ) ;
#160 = CC_DESIGN_PERSON_AND_ORGANIZATION_ASSIGNMENT ( #7, #34, ( #146 ) ) ;
#161 = CARTESIAN_POINT ( 'NONE',  ( -5.000000000000000000, 0.000000000000000000, 0.000000000000000000 ) ) ;
#162 = DIRECTION ( 'NONE',  ( -1.000000000000000000, 0.000000000000000000, 0.000000000000000000 ) ) ;
#163 = APPROVAL_PERSON_ORGANIZATION ( #57, #135, #23 ) ;
#164 = DIRECTION ( 'NONE',  ( 1.000000000000000000, 0.000000000000000000, 0.000000000000000000 ) ) ;
#165 = AXIS2_PLACEMENT_3D ( 'NONE', #97, #151, #125 ) ;
#166 = DIRECTION ( 'NONE',  ( 0.000000000000000000, 0.000000000000000000, 1.000000000000000000 ) ) ;
#167 = DATE_TIME_ROLE ( 'classification_date' ) ;
#168 = APPROVAL ( #157, '未指定' ) ;
#169 = DATE_AND_TIME ( #59, #92 ) ;
#170 = APPROVAL_DATE_TIME ( #117, #168 ) ;
#171 = CC_DESIGN_SECURITY_CLASSIFICATION ( #105, ( #146 ) ) ;
#172 = PERSON_AND_ORGANIZATION_ROLE ( 'design_supplier' ) ;
#173 = ORIENTED_EDGE ( 'NONE', *, *, #69, .F. ) ;
#174 = ORIENTED_EDGE ( 'NONE', *, *, #121, .T. ) ;
#175 = VERTEX_POINT ( 'NONE', #84 ) ;
ENDSEC;
END-ISO-10303-21;
