ISO-10303-21;
HEADER;
FILE_DESCRIPTION (( 'STEP AP203' ),
    '1' );
FILE_NAME ('ZhiJia_默认_sldprt.STEP',
    '2026-04-08T15:08:27',
    ( '' ),
    ( '' ),
    'SwSTEP 2.0',
    'SolidWorks 2022',
    '' );
FILE_SCHEMA (( 'CONFIG_CONTROL_DESIGN' ));
ENDSEC;

DATA;
#1 = ORIENTED_EDGE ( 'NONE', *, *, #214, .F. ) ;
#2 = DIRECTION ( 'NONE',  ( -1.000000000000000000, 0.000000000000000000, 0.000000000000000000 ) ) ;
#3 = LINE ( 'NONE', #268, #349 ) ;
#4 = AXIS2_PLACEMENT_3D ( 'NONE', #411, #409, #47 ) ;
#5 = CARTESIAN_POINT ( 'NONE',  ( 9.828178694158099304, -20.00000000000000000, 0.000000000000000000 ) ) ;
#6 = CARTESIAN_POINT ( 'NONE',  ( -50.17182130584190247, 0.000000000000000000, 0.000000000000000000 ) ) ;
#7 = ORIENTED_EDGE ( 'NONE', *, *, #393, .F. ) ;
#8 = CC_DESIGN_PERSON_AND_ORGANIZATION_ASSIGNMENT ( #65, #31, ( #282 ) ) ;
#9 = DIRECTION ( 'NONE',  ( 0.000000000000000000, 0.000000000000000000, -1.000000000000000000 ) ) ;
#10 = CC_DESIGN_APPROVAL ( #16, ( #176 ) ) ;
#11 = ORIENTED_EDGE ( 'NONE', *, *, #407, .T. ) ;
#12 = FACE_OUTER_BOUND ( 'NONE', #66, .T. ) ;
#13 = CIRCLE ( 'NONE', #203, 5.000000000000000888 ) ;
#14 = CARTESIAN_POINT ( 'NONE',  ( -50.17182130584190247, -50.00000000000000000, 10.00000000000000000 ) ) ;
#15 = LINE ( 'NONE', #337, #418 ) ;
#16 = APPROVAL ( #202, '未指定' ) ;
#17 = LINE ( 'NONE', #6, #170 ) ;
#18 = ORIENTED_EDGE ( 'NONE', *, *, #415, .T. ) ;
#19 = PERSON_AND_ORGANIZATION ( #261, #258 ) ;
#20 = APPLICATION_CONTEXT ( 'configuration controlled 3d designs of mechanical parts and assemblies' ) ;
#21 = ADVANCED_FACE ( 'NONE', ( #81 ), #233, .F. ) ;
#22 = CARTESIAN_POINT ( 'NONE',  ( 69.82817869415809753, 0.000000000000000000, 0.000000000000000000 ) ) ;
#23 = EDGE_CURVE ( 'NONE', #403, #433, #155, .T. ) ;
#24 = DIRECTION ( 'NONE',  ( 1.000000000000000000, 0.000000000000000000, 0.000000000000000000 ) ) ;
#25 = CARTESIAN_POINT ( 'NONE',  ( 4.828178694158099304, -20.00000000000000000, 10.00000000000000000 ) ) ;
#26 = AXIS2_PLACEMENT_3D ( 'NONE', #431, #42, #186 ) ;
#27 = DATE_AND_TIME ( #127, #304 ) ;
#28 = CIRCLE ( 'NONE', #414, 5.000000000000000888 ) ;
#29 = EDGE_LOOP ( 'NONE', ( #173, #106, #391, #217 ) ) ;
#30 = DIRECTION ( 'NONE',  ( 0.000000000000000000, 0.000000000000000000, 1.000000000000000000 ) ) ;
#31 = PERSON_AND_ORGANIZATION_ROLE ( 'classification_officer' ) ;
#32 = ORIENTED_EDGE ( 'NONE', *, *, #89, .T. ) ;
#33 = ORIENTED_EDGE ( 'NONE', *, *, #242, .T. ) ;
#34 = CIRCLE ( 'NONE', #26, 4.999999999999997335 ) ;
#35 = ORIENTED_EDGE ( 'NONE', *, *, #335, .T. ) ;
#36 = DIRECTION ( 'NONE',  ( 0.000000000000000000, 0.000000000000000000, 1.000000000000000000 ) ) ;
#37 = EDGE_CURVE ( 'NONE', #209, #403, #90, .T. ) ;
#38 = ORIENTED_EDGE ( 'NONE', *, *, #429, .F. ) ;
#39 = DIRECTION ( 'NONE',  ( 0.000000000000000000, 0.000000000000000000, -1.000000000000000000 ) ) ;
#40 = PRODUCT_DEFINITION_SHAPE ( 'NONE', 'NONE',  #277 ) ;
#41 = ORIENTED_EDGE ( 'NONE', *, *, #23, .T. ) ;
#42 = DIRECTION ( 'NONE',  ( 0.000000000000000000, 0.000000000000000000, 1.000000000000000000 ) ) ;
#43 = APPROVAL_PERSON_ORGANIZATION ( #286, #327, #97 ) ;
#44 = DIRECTION ( 'NONE',  ( 1.000000000000000000, 0.000000000000000000, 0.000000000000000000 ) ) ;
#45 = EDGE_CURVE ( 'NONE', #209, #103, #3, .T. ) ;
#46 = AXIS2_PLACEMENT_3D ( 'NONE', #99, #30, #24 ) ;
#47 = DIRECTION ( 'NONE',  ( 1.000000000000000000, 0.000000000000000000, 0.000000000000000000 ) ) ;
#48 = APPLICATION_CONTEXT ( 'configuration controlled 3d designs of mechanical parts and assemblies' ) ;
#49 = CARTESIAN_POINT ( 'NONE',  ( -50.17182130584190247, -50.00000000000000000, 10.00000000000000000 ) ) ;
#50 = CARTESIAN_POINT ( 'NONE',  ( 69.82817869415809753, 0.000000000000000000, 10.00000000000000000 ) ) ;
#51 = ORIENTED_EDGE ( 'NONE', *, *, #415, .F. ) ;
#52 = CARTESIAN_POINT ( 'NONE',  ( 39.82817869415809753, -30.00000000000000000, 10.00000000000000000 ) ) ;
#53 = DIRECTION ( 'NONE',  ( 0.000000000000000000, 0.000000000000000000, -1.000000000000000000 ) ) ;
#54 = EDGE_CURVE ( 'NONE', #403, #108, #270, .T. ) ;
#55 = LINE ( 'NONE', #151, #283 ) ;
#56 = AXIS2_PLACEMENT_3D ( 'NONE', #52, #234, #344 ) ;
#57 = DIRECTION ( 'NONE',  ( 1.000000000000000000, 2.775557561562890365E-16, 0.000000000000000000 ) ) ;
#58 = CARTESIAN_POINT ( 'NONE',  ( -20.17182130584189892, -30.00000000000000000, 10.00000000000000000 ) ) ;
#59 = APPLICATION_PROTOCOL_DEFINITION ( 'international standard', 'config_control_design', 1994, #20 ) ;
#60 = AXIS2_PLACEMENT_3D ( 'NONE', #162, #126, #315 ) ;
#61 = FACE_BOUND ( 'NONE', #427, .T. ) ;
#62 = PERSON_AND_ORGANIZATION_ROLE ( 'design_supplier' ) ;
#63 = COORDINATED_UNIVERSAL_TIME_OFFSET ( 8, 0, .AHEAD. ) ;
#64 = CARTESIAN_POINT ( 'NONE',  ( 4.828178694158099304, -20.00000000000000000, 10.00000000000000000 ) ) ;
#65 = PERSON_AND_ORGANIZATION ( #261, #258 ) ;
#66 = EDGE_LOOP ( 'NONE', ( #440, #188, #161, #138 ) ) ;
#67 = DIRECTION ( 'NONE',  ( 0.000000000000000000, 0.000000000000000000, 1.000000000000000000 ) ) ;
#68 = PERSON_AND_ORGANIZATION_ROLE ( 'creator' ) ;
#69 = AXIS2_PLACEMENT_3D ( 'NONE', #231, #438, #339 ) ;
#70 = VERTEX_POINT ( 'NONE', #226 ) ;
#71 = ORIENTED_EDGE ( 'NONE', *, *, #191, .F. ) ;
#72 = ORIENTED_EDGE ( 'NONE', *, *, #335, .F. ) ;
#73 = CARTESIAN_POINT ( 'NONE',  ( -50.17182130584190247, 0.000000000000000000, 10.00000000000000000 ) ) ;
#74 = ORIENTED_EDGE ( 'NONE', *, *, #165, .F. ) ;
#75 = ADVANCED_FACE ( 'NONE', ( #230, #374, #158, #309 ), #372, .F. ) ;
#76 = CIRCLE ( 'NONE', #342, 4.999999999999997335 ) ;
#77 = LINE ( 'NONE', #428, #275 ) ;
#78 = DESIGN_CONTEXT ( 'detailed design', #48, 'design' ) ;
#79 = ORIENTED_EDGE ( 'NONE', *, *, #393, .T. ) ;
#80 = CARTESIAN_POINT ( 'NONE',  ( 69.82817869415809753, -50.00000000000000000, 10.00000000000000000 ) ) ;
#81 = FACE_OUTER_BOUND ( 'NONE', #110, .T. ) ;
#82 = LINE ( 'NONE', #193, #111 ) ;
#83 =( GEOMETRIC_REPRESENTATION_CONTEXT ( 3 ) GLOBAL_UNCERTAINTY_ASSIGNED_CONTEXT ( ( #405 ) ) GLOBAL_UNIT_ASSIGNED_CONTEXT ( ( #227, #133, #287 ) ) REPRESENTATION_CONTEXT ( 'NONE', 'WORKASPACE' ) );
#84 = ORIENTED_EDGE ( 'NONE', *, *, #23, .F. ) ;
#85 = CLOSED_SHELL ( 'NONE', ( #386, #445, #371, #366, #75, #102, #95, #252, #21, #132, #146, #353 ) ) ;
#86 = PLANE ( 'NONE',  #69 ) ;
#87 = VERTEX_POINT ( 'NONE', #336 ) ;
#88 = LINE ( 'NONE', #413, #156 ) ;
#89 = EDGE_CURVE ( 'NONE', #290, #423, #13, .T. ) ;
#90 = LINE ( 'NONE', #120, #212 ) ;
#91 = DIRECTION ( 'NONE',  ( 0.000000000000000000, 0.000000000000000000, 1.000000000000000000 ) ) ;
#92 = LOCAL_TIME ( 23, 8, 27.00000000000000000, #63 ) ;
#93 = CARTESIAN_POINT ( 'NONE',  ( -50.17182130584190247, 0.000000000000000000, 0.000000000000000000 ) ) ;
#94 = DIRECTION ( 'NONE',  ( 1.000000000000000000, 0.000000000000000000, 0.000000000000000000 ) ) ;
#95 = ADVANCED_FACE ( 'NONE', ( #264 ), #369, .F. ) ;
#96 = CC_DESIGN_PERSON_AND_ORGANIZATION_ASSIGNMENT ( #206, #281, ( #277 ) ) ;
#97 = APPROVAL_ROLE ( '' ) ;
#98 = LOCAL_TIME ( 23, 8, 27.00000000000000000, #135 ) ;
#99 = CARTESIAN_POINT ( 'NONE',  ( 39.82817869415809753, -30.00000000000000000, 10.00000000000000000 ) ) ;
#100 = FACE_OUTER_BOUND ( 'NONE', #425, .T. ) ;
#101 = DIRECTION ( 'NONE',  ( 1.000000000000000000, 0.000000000000000000, 0.000000000000000000 ) ) ;
#102 = ADVANCED_FACE ( 'NONE', ( #152 ), #303, .F. ) ;
#103 = VERTEX_POINT ( 'NONE', #93 ) ;
#104 = PERSON_AND_ORGANIZATION ( #261, #258 ) ;
#105 = EDGE_LOOP ( 'NONE', ( #392, #79, #148, #430 ) ) ;
#106 = ORIENTED_EDGE ( 'NONE', *, *, #54, .F. ) ;
#107 = EDGE_CURVE ( 'NONE', #118, #70, #238, .T. ) ;
#108 = VERTEX_POINT ( 'NONE', #240 ) ;
#109 = ORIENTED_EDGE ( 'NONE', *, *, #200, .F. ) ;
#110 = EDGE_LOOP ( 'NONE', ( #33, #294, #38, #395 ) ) ;
#111 = VECTOR ( 'NONE', #302, 1000.000000000000000 ) ;
#112 = EDGE_CURVE ( 'NONE', #423, #290, #229, .T. ) ;
#113 = ORIENTED_EDGE ( 'NONE', *, *, #348, .F. ) ;
#114 = DIRECTION ( 'NONE',  ( 0.000000000000000000, 0.000000000000000000, 1.000000000000000000 ) ) ;
#115 = DIRECTION ( 'NONE',  ( 1.000000000000000000, 0.000000000000000000, 0.000000000000000000 ) ) ;
#116 = DIRECTION ( 'NONE',  ( 2.775557561562890365E-16, -1.000000000000000000, 0.000000000000000000 ) ) ;
#117 = CIRCLE ( 'NONE', #317, 5.000000000000000888 ) ;
#118 = VERTEX_POINT ( 'NONE', #341 ) ;
#119 = CARTESIAN_POINT ( 'NONE',  ( -20.17182130584189892, -30.00000000000000000, 10.00000000000000000 ) ) ;
#120 = CARTESIAN_POINT ( 'NONE',  ( -50.17182130584190247, 0.000000000000000000, 10.00000000000000000 ) ) ;
#121 = FACE_OUTER_BOUND ( 'NONE', #400, .T. ) ;
#122 = CARTESIAN_POINT ( 'NONE',  ( 0.000000000000000000, 0.000000000000000000, 0.000000000000000000 ) ) ;
#123 = DIRECTION ( 'NONE',  ( 1.000000000000000000, 0.000000000000000000, 0.000000000000000000 ) ) ;
#124 = CARTESIAN_POINT ( 'NONE',  ( 34.82817869415809753, -30.00000000000000000, 0.000000000000000000 ) ) ;
#125 = VECTOR ( 'NONE', #373, 1000.000000000000000 ) ;
#126 = DIRECTION ( 'NONE',  ( 0.000000000000000000, 0.000000000000000000, -1.000000000000000000 ) ) ;
#127 = CALENDAR_DATE ( 2026, 8, 4 ) ;
#128 = MECHANICAL_CONTEXT ( 'NONE', #20, 'mechanical' ) ;
#129 = DIRECTION ( 'NONE',  ( 0.000000000000000000, 0.000000000000000000, 1.000000000000000000 ) ) ;
#130 = COORDINATED_UNIVERSAL_TIME_OFFSET ( 8, 0, .AHEAD. ) ;
#131 = AXIS2_PLACEMENT_3D ( 'NONE', #49, #192, #338 ) ;
#132 = ADVANCED_FACE ( 'NONE', ( #12 ), #271, .F. ) ;
#133 =( NAMED_UNIT ( * ) PLANE_ANGLE_UNIT ( ) SI_UNIT ( $, .RADIAN. ) );
#134 = CARTESIAN_POINT ( 'NONE',  ( 14.82817869415809930, -20.00000000000000000, 0.000000000000000000 ) ) ;
#135 = COORDINATED_UNIVERSAL_TIME_OFFSET ( 8, 0, .AHEAD. ) ;
#136 = ORIENTED_EDGE ( 'NONE', *, *, #232, .T. ) ;
#137 = APPROVAL_STATUS ( 'not_yet_approved' ) ;
#138 = ORIENTED_EDGE ( 'NONE', *, *, #312, .F. ) ;
#139 = VECTOR ( 'NONE', #435, 1000.000000000000000 ) ;
#140 = VECTOR ( 'NONE', #210, 1000.000000000000000 ) ;
#141 = EDGE_LOOP ( 'NONE', ( #364, #32 ) ) ;
#142 = EDGE_LOOP ( 'NONE', ( #113, #72 ) ) ;
#143 = CARTESIAN_POINT ( 'NONE',  ( -50.17182130584190247, -50.00000000000000000, 10.00000000000000000 ) ) ;
#144 = VERTEX_POINT ( 'NONE', #154 ) ;
#145 = DIRECTION ( 'NONE',  ( 0.000000000000000000, 0.000000000000000000, -1.000000000000000000 ) ) ;
#146 = ADVANCED_FACE ( 'NONE', ( #121 ), #160, .F. ) ;
#147 = AXIS2_PLACEMENT_3D ( 'NONE', #356, #129, #419 ) ;
#148 = ORIENTED_EDGE ( 'NONE', *, *, #358, .T. ) ;
#149 = AXIS2_PLACEMENT_3D ( 'NONE', #201, #67, #346 ) ;
#150 = DIRECTION ( 'NONE',  ( 0.000000000000000000, 0.000000000000000000, 1.000000000000000000 ) ) ;
#151 = CARTESIAN_POINT ( 'NONE',  ( -50.17182130584190247, 0.000000000000000000, 0.000000000000000000 ) ) ;
#152 = FACE_OUTER_BOUND ( 'NONE', #29, .T. ) ;
#153 = CC_DESIGN_PERSON_AND_ORGANIZATION_ASSIGNMENT ( #19, #163, ( #183 ) ) ;
#154 = CARTESIAN_POINT ( 'NONE',  ( -15.17182130584189892, -30.00000000000000000, 0.000000000000000000 ) ) ;
#155 = LINE ( 'NONE', #262, #458 ) ;
#156 = VECTOR ( 'NONE', #446, 1000.000000000000000 ) ;
#157 = DIRECTION ( 'NONE',  ( 0.000000000000000000, 0.000000000000000000, -1.000000000000000000 ) ) ;
#158 = FACE_BOUND ( 'NONE', #326, .T. ) ;
#159 = DIRECTION ( 'NONE',  ( 0.000000000000000000, 0.000000000000000000, 1.000000000000000000 ) ) ;
#160 = CYLINDRICAL_SURFACE ( 'NONE', #56, 4.999999999999997335 ) ;
#161 = ORIENTED_EDGE ( 'NONE', *, *, #165, .T. ) ;
#162 = CARTESIAN_POINT ( 'NONE',  ( 9.828178694158099304, -20.00000000000000000, 10.00000000000000000 ) ) ;
#163 = PERSON_AND_ORGANIZATION_ROLE ( 'design_owner' ) ;
#164 = FACE_BOUND ( 'NONE', #142, .T. ) ;
#165 = EDGE_CURVE ( 'NONE', #291, #453, #82, .T. ) ;
#166 = FACE_OUTER_BOUND ( 'NONE', #357, .T. ) ;
#167 = CC_DESIGN_APPROVAL ( #327, ( #282 ) ) ;
#168 = DIRECTION ( 'NONE',  ( 1.000000000000000000, 0.000000000000000000, 0.000000000000000000 ) ) ;
#169 = DIRECTION ( 'NONE',  ( 0.000000000000000000, 0.000000000000000000, 1.000000000000000000 ) ) ;
#170 = VECTOR ( 'NONE', #267, 1000.000000000000000 ) ;
#171 = EDGE_LOOP ( 'NONE', ( #179, #343, #388, #51 ) ) ;
#172 = CYLINDRICAL_SURFACE ( 'NONE', #265, 5.000000000000000888 ) ;
#173 = ORIENTED_EDGE ( 'NONE', *, *, #250, .T. ) ;
#174 = EDGE_CURVE ( 'NONE', #213, #290, #197, .T. ) ;
#175 = ORIENTED_EDGE ( 'NONE', *, *, #54, .T. ) ;
#176 = PRODUCT_DEFINITION_FORMATION_WITH_SPECIFIED_SOURCE ( '任何', '', #183, .NOT_KNOWN. ) ;
#177 = CYLINDRICAL_SURFACE ( 'NONE', #243, 5.000000000000000000 ) ;
#178 = VECTOR ( 'NONE', #274, 1000.000000000000000 ) ;
#179 = ORIENTED_EDGE ( 'NONE', *, *, #348, .T. ) ;
#180 = DIRECTION ( 'NONE',  ( -1.000000000000000000, 0.000000000000000000, 0.000000000000000000 ) ) ;
#181 = EDGE_LOOP ( 'NONE', ( #11, #455 ) ) ;
#182 = CARTESIAN_POINT ( 'NONE',  ( 39.82817869415809753, -30.00000000000000000, 10.00000000000000000 ) ) ;
#183 = PRODUCT ( 'ZhiJia_\X2\9ed88ba4\X0\_sldprt', 'ZhiJia_\X2\9ed88ba4\X0\_sldprt', '', ( #128 ) ) ;
#184 = CC_DESIGN_DATE_AND_TIME_ASSIGNMENT ( #241, #448, ( #277 ) ) ;
#185 = ORIENTED_EDGE ( 'NONE', *, *, #256, .F. ) ;
#186 = DIRECTION ( 'NONE',  ( 1.000000000000000000, 0.000000000000000000, 0.000000000000000000 ) ) ;
#187 = CC_DESIGN_SECURITY_CLASSIFICATION ( #282, ( #176 ) ) ;
#188 = ORIENTED_EDGE ( 'NONE', *, *, #266, .T. ) ;
#189 = CIRCLE ( 'NONE', #149, 4.999999999999997335 ) ;
#190 = LINE ( 'NONE', #50, #178 ) ;
#191 = EDGE_CURVE ( 'NONE', #323, #213, #220, .T. ) ;
#192 = DIRECTION ( 'NONE',  ( 0.000000000000000000, 1.000000000000000000, 0.000000000000000000 ) ) ;
#193 = CARTESIAN_POINT ( 'NONE',  ( -25.17182130584190247, -30.00000000000000000, 10.00000000000000000 ) ) ;
#194 = ORIENTED_EDGE ( 'NONE', *, *, #174, .T. ) ;
#195 = CARTESIAN_POINT ( 'NONE',  ( 69.82817869415809753, -50.00000000000000000, 10.00000000000000000 ) ) ;
#196 = ORIENTED_EDGE ( 'NONE', *, *, #266, .F. ) ;
#197 = LINE ( 'NONE', #228, #362 ) ;
#198 = ORIENTED_EDGE ( 'NONE', *, *, #272, .F. ) ;
#199 = DIRECTION ( 'NONE',  ( 0.000000000000000000, 0.000000000000000000, -1.000000000000000000 ) ) ;
#200 = EDGE_CURVE ( 'NONE', #433, #293, #190, .T. ) ;
#201 = CARTESIAN_POINT ( 'NONE',  ( 39.82817869415809753, -30.00000000000000000, 10.00000000000000000 ) ) ;
#202 = APPROVAL_STATUS ( 'not_yet_approved' ) ;
#203 = AXIS2_PLACEMENT_3D ( 'NONE', #5, #150, #115 ) ;
#204 = COORDINATED_UNIVERSAL_TIME_OFFSET ( 8, 0, .AHEAD. ) ;
#205 = CARTESIAN_POINT ( 'NONE',  ( 0.000000000000000000, 0.000000000000000000, 0.000000000000000000 ) ) ;
#206 = PERSON_AND_ORGANIZATION ( #261, #258 ) ;
#207 = DATE_AND_TIME ( #422, #92 ) ;
#208 = CIRCLE ( 'NONE', #237, 5.000000000000000888 ) ;
#209 = VERTEX_POINT ( 'NONE', #345 ) ;
#210 = DIRECTION ( 'NONE',  ( 0.000000000000000000, 0.000000000000000000, -1.000000000000000000 ) ) ;
#211 = APPROVAL_ROLE ( '' ) ;
#212 = VECTOR ( 'NONE', #437, 1000.000000000000000 ) ;
#213 = VERTEX_POINT ( 'NONE', #370 ) ;
#214 = EDGE_CURVE ( 'NONE', #293, #359, #88, .T. ) ;
#215 = ORIENTED_EDGE ( 'NONE', *, *, #239, .F. ) ;
#216 = DIRECTION ( 'NONE',  ( 1.000000000000000000, 0.000000000000000000, 0.000000000000000000 ) ) ;
#217 = ORIENTED_EDGE ( 'NONE', *, *, #45, .T. ) ;
#218 = AXIS2_PLACEMENT_3D ( 'NONE', #182, #39, #296 ) ;
#219 = DIRECTION ( 'NONE',  ( 1.000000000000000000, 0.000000000000000000, 0.000000000000000000 ) ) ;
#220 = CIRCLE ( 'NONE', #4, 5.000000000000000888 ) ;
#221 = ORIENTED_EDGE ( 'NONE', *, *, #272, .T. ) ;
#222 = EDGE_CURVE ( 'NONE', #433, #354, #311, .T. ) ;
#223 = FACE_OUTER_BOUND ( 'NONE', #171, .T. ) ;
#224 = ORIENTED_EDGE ( 'NONE', *, *, #449, .T. ) ;
#225 = MANIFOLD_SOLID_BREP ( '输入1', #85 ) ;
#226 = CARTESIAN_POINT ( 'NONE',  ( 44.82817869415809753, -30.00000000000000000, 0.000000000000000000 ) ) ;
#227 =( LENGTH_UNIT ( ) NAMED_UNIT ( * ) SI_UNIT ( .MILLI., .METRE. ) );
#228 = CARTESIAN_POINT ( 'NONE',  ( 14.82817869415809930, -20.00000000000000000, 10.00000000000000000 ) ) ;
#229 = CIRCLE ( 'NONE', #432, 5.000000000000000888 ) ;
#230 = FACE_OUTER_BOUND ( 'NONE', #394, .T. ) ;
#231 = CARTESIAN_POINT ( 'NONE',  ( 69.82817869415809753, 0.000000000000000000, 10.00000000000000000 ) ) ;
#232 = EDGE_CURVE ( 'NONE', #288, #144, #263, .T. ) ;
#233 = PLANE ( 'NONE',  #328 ) ;
#234 = DIRECTION ( 'NONE',  ( 0.000000000000000000, 0.000000000000000000, -1.000000000000000000 ) ) ;
#235 = EDGE_LOOP ( 'NONE', ( #397, #1, #109, #260 ) ) ;
#236 = CARTESIAN_POINT ( 'NONE',  ( -15.17182130584189892, -30.00000000000000000, 10.00000000000000000 ) ) ;
#237 = AXIS2_PLACEMENT_3D ( 'NONE', #299, #36, #216 ) ;
#238 = LINE ( 'NONE', #378, #139 ) ;
#239 = EDGE_CURVE ( 'NONE', #354, #359, #15, .T. ) ;
#240 = CARTESIAN_POINT ( 'NONE',  ( -50.17182130584190247, -50.00000000000000000, 0.000000000000000000 ) ) ;
#241 = DATE_AND_TIME ( #279, #295 ) ;
#242 = EDGE_CURVE ( 'NONE', #359, #103, #17, .T. ) ;
#243 = AXIS2_PLACEMENT_3D ( 'NONE', #292, #331, #2 ) ;
#244 = AXIS2_PLACEMENT_3D ( 'NONE', #273, #57, #412 ) ;
#245 = COORDINATED_UNIVERSAL_TIME_OFFSET ( 8, 0, .AHEAD. ) ;
#246 = ORIENTED_EDGE ( 'NONE', *, *, #200, .T. ) ;
#247 = ORIENTED_EDGE ( 'NONE', *, *, #242, .F. ) ;
#248 = FACE_OUTER_BOUND ( 'NONE', #105, .T. ) ;
#249 = DATE_AND_TIME ( #319, #402 ) ;
#250 = EDGE_CURVE ( 'NONE', #103, #108, #55, .T. ) ;
#251 = ORIENTED_EDGE ( 'NONE', *, *, #358, .F. ) ;
#252 = ADVANCED_FACE ( 'NONE', ( #406 ), #86, .F. ) ;
#253 = PERSON_AND_ORGANIZATION ( #261, #258 ) ;
#254 = ORIENTED_EDGE ( 'NONE', *, *, #222, .F. ) ;
#255 = ORIENTED_EDGE ( 'NONE', *, *, #37, .T. ) ;
#256 = EDGE_CURVE ( 'NONE', #70, #298, #76, .T. ) ;
#257 = ORIENTED_EDGE ( 'NONE', *, *, #429, .T. ) ;
#258 = ORGANIZATION ( '未指定', '未指定', '' ) ;
#259 = AXIS2_PLACEMENT_3D ( 'NONE', #122, #367, #44 ) ;
#260 = ORIENTED_EDGE ( 'NONE', *, *, #222, .T. ) ;
#261 = PERSON ( '未指定', '未指定', '未指定', ('未指定'), ('未指定'), ('未指定') ) ;
#262 = CARTESIAN_POINT ( 'NONE',  ( -50.17182130584190247, -50.00000000000000000, 10.00000000000000000 ) ) ;
#263 = LINE ( 'NONE', #236, #276 ) ;
#264 = FACE_OUTER_BOUND ( 'NONE', #457, .T. ) ;
#265 = AXIS2_PLACEMENT_3D ( 'NONE', #301, #404, #399 ) ;
#266 = EDGE_CURVE ( 'NONE', #288, #291, #396, .T. ) ;
#267 = DIRECTION ( 'NONE',  ( -1.000000000000000000, 0.000000000000000000, 0.000000000000000000 ) ) ;
#268 = CARTESIAN_POINT ( 'NONE',  ( -50.17182130584190247, 0.000000000000000000, 10.00000000000000000 ) ) ;
#269 = LINE ( 'NONE', #379, #125 ) ;
#270 = LINE ( 'NONE', #14, #377 ) ;
#271 = CYLINDRICAL_SURFACE ( 'NONE', #439, 5.000000000000000888 ) ;
#272 = EDGE_CURVE ( 'NONE', #108, #354, #269, .T. ) ;
#273 = CARTESIAN_POINT ( 'NONE',  ( -50.17182130584190247, 0.000000000000000000, 10.00000000000000000 ) ) ;
#274 = DIRECTION ( 'NONE',  ( 0.000000000000000000, 1.000000000000000000, 0.000000000000000000 ) ) ;
#275 = VECTOR ( 'NONE', #145, 1000.000000000000000 ) ;
#276 = VECTOR ( 'NONE', #376, 1000.000000000000000 ) ;
#277 = PRODUCT_DEFINITION ( '未知', '', #176, #78 ) ;
#278 = CARTESIAN_POINT ( 'NONE',  ( 69.82817869415809753, -50.00000000000000000, 0.000000000000000000 ) ) ;
#279 = CALENDAR_DATE ( 2026, 8, 4 ) ;
#280 = CARTESIAN_POINT ( 'NONE',  ( -20.17182130584189892, -30.00000000000000000, 10.00000000000000000 ) ) ;
#281 = PERSON_AND_ORGANIZATION_ROLE ( 'creator' ) ;
#282 = SECURITY_CLASSIFICATION ( '', '', #417 ) ;
#283 = VECTOR ( 'NONE', #116, 1000.000000000000000 ) ;
#284 = DATE_AND_TIME ( #390, #98 ) ;
#285 = DIRECTION ( 'NONE',  ( 0.000000000000000000, 0.000000000000000000, 1.000000000000000000 ) ) ;
#286 = PERSON_AND_ORGANIZATION ( #261, #258 ) ;
#287 =( NAMED_UNIT ( * ) SI_UNIT ( $, .STERADIAN. ) SOLID_ANGLE_UNIT ( ) );
#288 = VERTEX_POINT ( 'NONE', #441 ) ;
#289 = DATE_TIME_ROLE ( 'classification_date' ) ;
#290 = VERTEX_POINT ( 'NONE', #134 ) ;
#291 = VERTEX_POINT ( 'NONE', #416 ) ;
#292 = CARTESIAN_POINT ( 'NONE',  ( 9.828178694158099304, -20.00000000000000000, 10.00000000000000000 ) ) ;
#293 = VERTEX_POINT ( 'NONE', #385 ) ;
#294 = ORIENTED_EDGE ( 'NONE', *, *, #45, .F. ) ;
#295 = LOCAL_TIME ( 23, 8, 27.00000000000000000, #204 ) ;
#296 = DIRECTION ( 'NONE',  ( -1.000000000000000000, 0.000000000000000000, 0.000000000000000000 ) ) ;
#297 = CIRCLE ( 'NONE', #355, 5.000000000000000888 ) ;
#298 = VERTEX_POINT ( 'NONE', #124 ) ;
#299 = CARTESIAN_POINT ( 'NONE',  ( -20.17182130584189892, -30.00000000000000000, 0.000000000000000000 ) ) ;
#300 = CARTESIAN_POINT ( 'NONE',  ( -50.17182130584190247, 0.000000000000000000, 10.00000000000000000 ) ) ;
#301 = CARTESIAN_POINT ( 'NONE',  ( -20.17182130584189892, -30.00000000000000000, 10.00000000000000000 ) ) ;
#302 = DIRECTION ( 'NONE',  ( 0.000000000000000000, 0.000000000000000000, -1.000000000000000000 ) ) ;
#303 = PLANE ( 'NONE',  #244 ) ;
#304 = LOCAL_TIME ( 23, 8, 27.00000000000000000, #245 ) ;
#305 = CARTESIAN_POINT ( 'NONE',  ( 39.82817869415809753, -30.00000000000000000, 0.000000000000000000 ) ) ;
#306 = ORIENTED_EDGE ( 'NONE', *, *, #112, .F. ) ;
#307 = DIRECTION ( 'NONE',  ( 0.000000000000000000, 1.000000000000000000, 0.000000000000000000 ) ) ;
#308 = EDGE_CURVE ( 'NONE', #291, #288, #28, .T. ) ;
#309 = FACE_BOUND ( 'NONE', #141, .T. ) ;
#310 = DIRECTION ( 'NONE',  ( 1.000000000000000000, 0.000000000000000000, 0.000000000000000000 ) ) ;
#311 = LINE ( 'NONE', #195, #334 ) ;
#312 = EDGE_CURVE ( 'NONE', #144, #453, #297, .T. ) ;
#313 = APPROVAL_ROLE ( '' ) ;
#314 = CC_DESIGN_DATE_AND_TIME_ASSIGNMENT ( #27, #289, ( #282 ) ) ;
#315 = DIRECTION ( 'NONE',  ( -1.000000000000000000, 0.000000000000000000, 0.000000000000000000 ) ) ;
#316 = APPROVAL_DATE_TIME ( #207, #327 ) ;
#317 = AXIS2_PLACEMENT_3D ( 'NONE', #324, #114, #219 ) ;
#318 = AXIS2_PLACEMENT_3D ( 'NONE', #119, #443, #94 ) ;
#319 = CALENDAR_DATE ( 2026, 8, 4 ) ;
#320 = CC_DESIGN_PERSON_AND_ORGANIZATION_ASSIGNMENT ( #420, #62, ( #176 ) ) ;
#321 = ORIENTED_EDGE ( 'NONE', *, *, #191, .T. ) ;
#322 = APPROVAL_STATUS ( 'not_yet_approved' ) ;
#323 = VERTEX_POINT ( 'NONE', #64 ) ;
#324 = CARTESIAN_POINT ( 'NONE',  ( 9.828178694158099304, -20.00000000000000000, 10.00000000000000000 ) ) ;
#325 = AXIS2_PLACEMENT_3D ( 'NONE', #205, #169, #101 ) ;
#326 = EDGE_LOOP ( 'NONE', ( #224, #329 ) ) ;
#327 = APPROVAL ( #322, '未指定' ) ;
#328 = AXIS2_PLACEMENT_3D ( 'NONE', #300, #332, #434 ) ;
#329 = ORIENTED_EDGE ( 'NONE', *, *, #256, .T. ) ;
#330 = ORIENTED_EDGE ( 'NONE', *, *, #250, .F. ) ;
#331 = DIRECTION ( 'NONE',  ( 0.000000000000000000, 0.000000000000000000, -1.000000000000000000 ) ) ;
#332 = DIRECTION ( 'NONE',  ( 0.000000000000000000, -1.000000000000000000, 0.000000000000000000 ) ) ;
#333 = CARTESIAN_POINT ( 'NONE',  ( -25.17182130584190247, -30.00000000000000000, 0.000000000000000000 ) ) ;
#334 = VECTOR ( 'NONE', #157, 1000.000000000000000 ) ;
#335 = EDGE_CURVE ( 'NONE', #118, #87, #189, .T. ) ;
#336 = CARTESIAN_POINT ( 'NONE',  ( 34.82817869415809753, -30.00000000000000000, 10.00000000000000000 ) ) ;
#337 = CARTESIAN_POINT ( 'NONE',  ( 69.82817869415809753, 0.000000000000000000, 0.000000000000000000 ) ) ;
#338 = DIRECTION ( 'NONE',  ( 0.000000000000000000, 0.000000000000000000, 1.000000000000000000 ) ) ;
#339 = DIRECTION ( 'NONE',  ( 0.000000000000000000, 0.000000000000000000, 1.000000000000000000 ) ) ;
#340 = EDGE_LOOP ( 'NONE', ( #363, #196 ) ) ;
#341 = CARTESIAN_POINT ( 'NONE',  ( 44.82817869415809753, -30.00000000000000000, 10.00000000000000000 ) ) ;
#342 = AXIS2_PLACEMENT_3D ( 'NONE', #305, #159, #310 ) ;
#343 = ORIENTED_EDGE ( 'NONE', *, *, #107, .T. ) ;
#344 = DIRECTION ( 'NONE',  ( -1.000000000000000000, 0.000000000000000000, 0.000000000000000000 ) ) ;
#345 = CARTESIAN_POINT ( 'NONE',  ( -50.17182130584190247, 0.000000000000000000, 10.00000000000000000 ) ) ;
#346 = DIRECTION ( 'NONE',  ( 1.000000000000000000, 0.000000000000000000, 0.000000000000000000 ) ) ;
#347 = APPROVAL_PERSON_ORGANIZATION ( #104, #16, #211 ) ;
#348 = EDGE_CURVE ( 'NONE', #87, #118, #447, .T. ) ;
#349 = VECTOR ( 'NONE', #53, 1000.000000000000000 ) ;
#350 = LINE ( 'NONE', #25, #140 ) ;
#351 = SHAPE_DEFINITION_REPRESENTATION ( #40, #444 ) ;
#352 = CARTESIAN_POINT ( 'NONE',  ( -20.17182130584189892, -30.00000000000000000, 0.000000000000000000 ) ) ;
#353 = ADVANCED_FACE ( 'NONE', ( #248 ), #389, .F. ) ;
#354 = VERTEX_POINT ( 'NONE', #278 ) ;
#355 = AXIS2_PLACEMENT_3D ( 'NONE', #352, #285, #451 ) ;
#356 = CARTESIAN_POINT ( 'NONE',  ( 0.000000000000000000, 0.000000000000000000, 10.00000000000000000 ) ) ;
#357 = EDGE_LOOP ( 'NONE', ( #255, #41, #246, #257 ) ) ;
#358 = EDGE_CURVE ( 'NONE', #323, #423, #350, .T. ) ;
#359 = VERTEX_POINT ( 'NONE', #22 ) ;
#360 = ORIENTED_EDGE ( 'NONE', *, *, #407, .F. ) ;
#361 = CARTESIAN_POINT ( 'NONE',  ( 4.828178694158099304, -20.00000000000000000, 0.000000000000000000 ) ) ;
#362 = VECTOR ( 'NONE', #199, 1000.000000000000000 ) ;
#363 = ORIENTED_EDGE ( 'NONE', *, *, #308, .F. ) ;
#364 = ORIENTED_EDGE ( 'NONE', *, *, #112, .T. ) ;
#365 = CYLINDRICAL_SURFACE ( 'NONE', #218, 4.999999999999997335 ) ;
#366 = ADVANCED_FACE ( 'NONE', ( #164, #166, #382, #61 ), #450, .T. ) ;
#367 = DIRECTION ( 'NONE',  ( 0.000000000000000000, 0.000000000000000000, 1.000000000000000000 ) ) ;
#368 = CARTESIAN_POINT ( 'NONE',  ( 9.828178694158099304, -20.00000000000000000, 0.000000000000000000 ) ) ;
#369 = PLANE ( 'NONE',  #131 ) ;
#370 = CARTESIAN_POINT ( 'NONE',  ( 14.82817869415809930, -20.00000000000000000, 10.00000000000000000 ) ) ;
#371 = ADVANCED_FACE ( 'NONE', ( #100 ), #172, .F. ) ;
#372 = PLANE ( 'NONE',  #259 ) ;
#373 = DIRECTION ( 'NONE',  ( 1.000000000000000000, 0.000000000000000000, 0.000000000000000000 ) ) ;
#374 = FACE_BOUND ( 'NONE', #181, .T. ) ;
#375 = CC_DESIGN_APPROVAL ( #424, ( #277 ) ) ;
#376 = DIRECTION ( 'NONE',  ( 0.000000000000000000, 0.000000000000000000, -1.000000000000000000 ) ) ;
#377 = VECTOR ( 'NONE', #408, 1000.000000000000000 ) ;
#378 = CARTESIAN_POINT ( 'NONE',  ( 44.82817869415809753, -30.00000000000000000, 10.00000000000000000 ) ) ;
#379 = CARTESIAN_POINT ( 'NONE',  ( -50.17182130584190247, -50.00000000000000000, 0.000000000000000000 ) ) ;
#380 = DIRECTION ( 'NONE',  ( 0.000000000000000000, 0.000000000000000000, 1.000000000000000000 ) ) ;
#381 = PRODUCT_RELATED_PRODUCT_CATEGORY ( 'detail', '', ( #183 ) ) ;
#382 = FACE_BOUND ( 'NONE', #340, .T. ) ;
#383 = APPROVAL_PERSON_ORGANIZATION ( #253, #424, #313 ) ;
#384 = APPROVAL_DATE_TIME ( #284, #16 ) ;
#385 = CARTESIAN_POINT ( 'NONE',  ( 69.82817869415809753, 0.000000000000000000, 10.00000000000000000 ) ) ;
#386 = ADVANCED_FACE ( 'NONE', ( #456 ), #177, .F. ) ;
#387 = PERSON_AND_ORGANIZATION ( #261, #258 ) ;
#388 = ORIENTED_EDGE ( 'NONE', *, *, #449, .F. ) ;
#389 = CYLINDRICAL_SURFACE ( 'NONE', #60, 5.000000000000000000 ) ;
#390 = CALENDAR_DATE ( 2026, 8, 4 ) ;
#391 = ORIENTED_EDGE ( 'NONE', *, *, #37, .F. ) ;
#392 = ORIENTED_EDGE ( 'NONE', *, *, #174, .F. ) ;
#393 = EDGE_CURVE ( 'NONE', #213, #323, #117, .T. ) ;
#394 = EDGE_LOOP ( 'NONE', ( #330, #247, #215, #198 ) ) ;
#395 = ORIENTED_EDGE ( 'NONE', *, *, #214, .T. ) ;
#396 = CIRCLE ( 'NONE', #318, 5.000000000000000888 ) ;
#397 = ORIENTED_EDGE ( 'NONE', *, *, #239, .T. ) ;
#398 = CC_DESIGN_PERSON_AND_ORGANIZATION_ASSIGNMENT ( #387, #68, ( #176 ) ) ;
#399 = DIRECTION ( 'NONE',  ( -1.000000000000000000, 0.000000000000000000, 0.000000000000000000 ) ) ;
#400 = EDGE_LOOP ( 'NONE', ( #421, #35, #18, #185 ) ) ;
#401 = DIRECTION ( 'NONE',  ( -1.000000000000000000, 0.000000000000000000, 0.000000000000000000 ) ) ;
#402 = LOCAL_TIME ( 23, 8, 27.00000000000000000, #130 ) ;
#403 = VERTEX_POINT ( 'NONE', #143 ) ;
#404 = DIRECTION ( 'NONE',  ( 0.000000000000000000, 0.000000000000000000, -1.000000000000000000 ) ) ;
#405 = UNCERTAINTY_MEASURE_WITH_UNIT (LENGTH_MEASURE( 1.000000000000000082E-05 ), #227, 'distance_accuracy_value', 'NONE');
#406 = FACE_OUTER_BOUND ( 'NONE', #235, .T. ) ;
#407 = EDGE_CURVE ( 'NONE', #453, #144, #208, .T. ) ;
#408 = DIRECTION ( 'NONE',  ( 0.000000000000000000, 0.000000000000000000, -1.000000000000000000 ) ) ;
#409 = DIRECTION ( 'NONE',  ( 0.000000000000000000, 0.000000000000000000, 1.000000000000000000 ) ) ;
#410 = DIRECTION ( 'NONE',  ( 1.000000000000000000, 0.000000000000000000, 0.000000000000000000 ) ) ;
#411 = CARTESIAN_POINT ( 'NONE',  ( 9.828178694158099304, -20.00000000000000000, 10.00000000000000000 ) ) ;
#412 = DIRECTION ( 'NONE',  ( -2.775557561562890365E-16, 1.000000000000000000, 0.000000000000000000 ) ) ;
#413 = CARTESIAN_POINT ( 'NONE',  ( 69.82817869415809753, 0.000000000000000000, 10.00000000000000000 ) ) ;
#414 = AXIS2_PLACEMENT_3D ( 'NONE', #280, #380, #168 ) ;
#415 = EDGE_CURVE ( 'NONE', #87, #298, #77, .T. ) ;
#416 = CARTESIAN_POINT ( 'NONE',  ( -25.17182130584190247, -30.00000000000000000, 10.00000000000000000 ) ) ;
#417 = SECURITY_CLASSIFICATION_LEVEL ( 'unclassified' ) ;
#418 = VECTOR ( 'NONE', #307, 1000.000000000000000 ) ;
#419 = DIRECTION ( 'NONE',  ( 1.000000000000000000, 0.000000000000000000, 0.000000000000000000 ) ) ;
#420 = PERSON_AND_ORGANIZATION ( #261, #258 ) ;
#421 = ORIENTED_EDGE ( 'NONE', *, *, #107, .F. ) ;
#422 = CALENDAR_DATE ( 2026, 8, 4 ) ;
#423 = VERTEX_POINT ( 'NONE', #361 ) ;
#424 = APPROVAL ( #137, '未指定' ) ;
#425 = EDGE_LOOP ( 'NONE', ( #459, #136, #360, #74 ) ) ;
#426 = LINE ( 'NONE', #73, #436 ) ;
#427 = EDGE_LOOP ( 'NONE', ( #71, #7 ) ) ;
#428 = CARTESIAN_POINT ( 'NONE',  ( 34.82817869415809753, -30.00000000000000000, 10.00000000000000000 ) ) ;
#429 = EDGE_CURVE ( 'NONE', #293, #209, #426, .T. ) ;
#430 = ORIENTED_EDGE ( 'NONE', *, *, #89, .F. ) ;
#431 = CARTESIAN_POINT ( 'NONE',  ( 39.82817869415809753, -30.00000000000000000, 0.000000000000000000 ) ) ;
#432 = AXIS2_PLACEMENT_3D ( 'NONE', #368, #91, #123 ) ;
#433 = VERTEX_POINT ( 'NONE', #80 ) ;
#434 = DIRECTION ( 'NONE',  ( 0.000000000000000000, 0.000000000000000000, -1.000000000000000000 ) ) ;
#435 = DIRECTION ( 'NONE',  ( 0.000000000000000000, 0.000000000000000000, -1.000000000000000000 ) ) ;
#436 = VECTOR ( 'NONE', #180, 1000.000000000000000 ) ;
#437 = DIRECTION ( 'NONE',  ( 2.775557561562890365E-16, -1.000000000000000000, 0.000000000000000000 ) ) ;
#438 = DIRECTION ( 'NONE',  ( -1.000000000000000000, 0.000000000000000000, 0.000000000000000000 ) ) ;
#439 = AXIS2_PLACEMENT_3D ( 'NONE', #58, #9, #401 ) ;
#440 = ORIENTED_EDGE ( 'NONE', *, *, #232, .F. ) ;
#441 = CARTESIAN_POINT ( 'NONE',  ( -15.17182130584189892, -30.00000000000000000, 10.00000000000000000 ) ) ;
#442 = EDGE_LOOP ( 'NONE', ( #321, #194, #306, #251 ) ) ;
#443 = DIRECTION ( 'NONE',  ( 0.000000000000000000, 0.000000000000000000, 1.000000000000000000 ) ) ;
#444 = ADVANCED_BREP_SHAPE_REPRESENTATION ( 'ZhiJia_\X2\9ed88ba4\X0\_sldprt', ( #225, #325 ), #83 ) ;
#445 = ADVANCED_FACE ( 'NONE', ( #223 ), #365, .F. ) ;
#446 = DIRECTION ( 'NONE',  ( 0.000000000000000000, 0.000000000000000000, -1.000000000000000000 ) ) ;
#447 = CIRCLE ( 'NONE', #46, 4.999999999999997335 ) ;
#448 = DATE_TIME_ROLE ( 'creation_date' ) ;
#449 = EDGE_CURVE ( 'NONE', #298, #70, #34, .T. ) ;
#450 = PLANE ( 'NONE',  #147 ) ;
#451 = DIRECTION ( 'NONE',  ( 1.000000000000000000, 0.000000000000000000, 0.000000000000000000 ) ) ;
#452 = APPROVAL_DATE_TIME ( #249, #424 ) ;
#453 = VERTEX_POINT ( 'NONE', #333 ) ;
#454 = APPLICATION_PROTOCOL_DEFINITION ( 'international standard', 'config_control_design', 1994, #48 ) ;
#455 = ORIENTED_EDGE ( 'NONE', *, *, #312, .T. ) ;
#456 = FACE_OUTER_BOUND ( 'NONE', #442, .T. ) ;
#457 = EDGE_LOOP ( 'NONE', ( #221, #254, #84, #175 ) ) ;
#458 = VECTOR ( 'NONE', #410, 1000.000000000000000 ) ;
#459 = ORIENTED_EDGE ( 'NONE', *, *, #308, .T. ) ;
ENDSEC;
END-ISO-10303-21;
