ISO-10303-21;
HEADER;
FILE_DESCRIPTION (( 'STEP AP203' ),
    '1' );
FILE_NAME ('HuaGan_默认_sldprt.STEP',
    '2026-04-09T00:45:39',
    ( '' ),
    ( '' ),
    'SwSTEP 2.0',
    'SolidWorks 2022',
    '' );
FILE_SCHEMA (( 'CONFIG_CONTROL_DESIGN' ));
ENDSEC;

DATA;
#1 = AXIS2_PLACEMENT_3D ( 'NONE', #148, #5, #170 ) ;
#2 = DESIGN_CONTEXT ( 'detailed design', #133, 'design' ) ;
#3 = CARTESIAN_POINT ( 'NONE',  ( 0.000000000000000000, 0.000000000000000000, 0.000000000000000000 ) ) ;
#4 = CARTESIAN_POINT ( 'NONE',  ( 0.000000000000000000, 0.000000000000000000, 600.0000000000000000 ) ) ;
#5 = DIRECTION ( 'NONE',  ( 0.000000000000000000, 0.000000000000000000, 1.000000000000000000 ) ) ;
#6 = APPROVAL_ROLE ( '' ) ;
#7 = EDGE_CURVE ( 'NONE', #151, #164, #8, .T. ) ;
#8 = CIRCLE ( 'NONE', #34, 6.000000000000000000 ) ;
#9 = CC_DESIGN_APPROVAL ( #125, ( #57 ) ) ;
#10 = APPROVAL_DATE_TIME ( #174, #160 ) ;
#11 = CC_DESIGN_PERSON_AND_ORGANIZATION_ASSIGNMENT ( #12, #50, ( #159 ) ) ;
#12 = PERSON_AND_ORGANIZATION ( #166, #130 ) ;
#13 = PRODUCT ( 'HuaGan_\X2\9ed88ba4\X0\_sldprt', 'HuaGan_\X2\9ed88ba4\X0\_sldprt', '', ( #31 ) ) ;
#14 = LOCAL_TIME ( 8, 45, 39.00000000000000000, #77 ) ;
#15 = VECTOR ( 'NONE', #86, 1000.000000000000000 ) ;
#16 = PERSON_AND_ORGANIZATION ( #166, #130 ) ;
#17 = DIRECTION ( 'NONE',  ( 0.000000000000000000, 0.000000000000000000, -1.000000000000000000 ) ) ;
#18 = ORIENTED_EDGE ( 'NONE', *, *, #173, .F. ) ;
#19 = EDGE_LOOP ( 'NONE', ( #111, #60, #76, #109 ) ) ;
#20 =( NAMED_UNIT ( * ) SI_UNIT ( $, .STERADIAN. ) SOLID_ANGLE_UNIT ( ) );
#21 = CLOSED_SHELL ( 'NONE', ( #119, #40, #54, #137 ) ) ;
#22 = CIRCLE ( 'NONE', #147, 6.000000000000000000 ) ;
#23 = CALENDAR_DATE ( 2026, 9, 4 ) ;
#24 = UNCERTAINTY_MEASURE_WITH_UNIT (LENGTH_MEASURE( 1.000000000000000082E-05 ), #58, 'distance_accuracy_value', 'NONE');
#25 = EDGE_CURVE ( 'NONE', #164, #151, #82, .T. ) ;
#26 = CC_DESIGN_PERSON_AND_ORGANIZATION_ASSIGNMENT ( #157, #105, ( #143 ) ) ;
#27 = CARTESIAN_POINT ( 'NONE',  ( 6.000000000000000000, 7.347880794884119736E-16, 600.0000000000000000 ) ) ;
#28 = CC_DESIGN_APPROVAL ( #160, ( #143 ) ) ;
#29 = FACE_OUTER_BOUND ( 'NONE', #19, .T. ) ;
#30 = DIRECTION ( 'NONE',  ( -1.000000000000000000, 0.000000000000000000, 0.000000000000000000 ) ) ;
#31 = MECHANICAL_CONTEXT ( 'NONE', #104, 'mechanical' ) ;
#32 = CARTESIAN_POINT ( 'NONE',  ( 0.000000000000000000, 0.000000000000000000, 0.000000000000000000 ) ) ;
#33 = CALENDAR_DATE ( 2026, 9, 4 ) ;
#34 = AXIS2_PLACEMENT_3D ( 'NONE', #94, #146, #42 ) ;
#35 = APPROVAL_ROLE ( '' ) ;
#36 = AXIS2_PLACEMENT_3D ( 'NONE', #87, #145, #30 ) ;
#37 = CALENDAR_DATE ( 2026, 9, 4 ) ;
#38 = COORDINATED_UNIVERSAL_TIME_OFFSET ( 8, 0, .AHEAD. ) ;
#39 = CC_DESIGN_SECURITY_CLASSIFICATION ( #159, ( #57 ) ) ;
#40 = ADVANCED_FACE ( 'NONE', ( #171 ), #100, .T. ) ;
#41 = DIRECTION ( 'NONE',  ( 1.000000000000000000, 0.000000000000000000, 0.000000000000000000 ) ) ;
#42 = DIRECTION ( 'NONE',  ( 1.000000000000000000, 0.000000000000000000, 0.000000000000000000 ) ) ;
#43 = DIRECTION ( 'NONE',  ( 0.000000000000000000, 0.000000000000000000, 1.000000000000000000 ) ) ;
#44 = CC_DESIGN_APPROVAL ( #149, ( #159 ) ) ;
#45 = CARTESIAN_POINT ( 'NONE',  ( 6.000000000000000000, 7.347880794884119736E-16, 600.0000000000000000 ) ) ;
#46 = ORIENTED_EDGE ( 'NONE', *, *, #7, .T. ) ;
#47 = DIRECTION ( 'NONE',  ( 0.000000000000000000, 0.000000000000000000, 1.000000000000000000 ) ) ;
#48 = PERSON_AND_ORGANIZATION_ROLE ( 'design_supplier' ) ;
#49 = APPROVAL_ROLE ( '' ) ;
#50 = PERSON_AND_ORGANIZATION_ROLE ( 'classification_officer' ) ;
#51 = CC_DESIGN_PERSON_AND_ORGANIZATION_ASSIGNMENT ( #63, #48, ( #57 ) ) ;
#52 = COORDINATED_UNIVERSAL_TIME_OFFSET ( 8, 0, .AHEAD. ) ;
#53 = CIRCLE ( 'NONE', #110, 6.000000000000000000 ) ;
#54 = ADVANCED_FACE ( 'NONE', ( #55 ), #154, .T. ) ;
#55 = FACE_OUTER_BOUND ( 'NONE', #128, .T. ) ;
#56 = DIRECTION ( 'NONE',  ( 1.000000000000000000, 0.000000000000000000, 0.000000000000000000 ) ) ;
#57 = PRODUCT_DEFINITION_FORMATION_WITH_SPECIFIED_SOURCE ( '任何', '', #13, .NOT_KNOWN. ) ;
#58 =( LENGTH_UNIT ( ) NAMED_UNIT ( * ) SI_UNIT ( .MILLI., .METRE. ) );
#59 = DIRECTION ( 'NONE',  ( 0.000000000000000000, 0.000000000000000000, 1.000000000000000000 ) ) ;
#60 = ORIENTED_EDGE ( 'NONE', *, *, #67, .T. ) ;
#61 = PERSON_AND_ORGANIZATION_ROLE ( 'creator' ) ;
#62 = LOCAL_TIME ( 8, 45, 39.00000000000000000, #175 ) ;
#63 = PERSON_AND_ORGANIZATION ( #166, #130 ) ;
#64 = DATE_TIME_ROLE ( 'classification_date' ) ;
#65 = APPROVAL_STATUS ( 'not_yet_approved' ) ;
#66 = CC_DESIGN_PERSON_AND_ORGANIZATION_ASSIGNMENT ( #118, #61, ( #57 ) ) ;
#67 = EDGE_CURVE ( 'NONE', #85, #164, #122, .T. ) ;
#68 = AXIS2_PLACEMENT_3D ( 'NONE', #165, #43, #41 ) ;
#69 = APPROVAL_PERSON_ORGANIZATION ( #117, #125, #6 ) ;
#70 = ADVANCED_BREP_SHAPE_REPRESENTATION ( 'HuaGan_\X2\9ed88ba4\X0\_sldprt', ( #144, #120 ), #168 ) ;
#71 = APPLICATION_PROTOCOL_DEFINITION ( 'international standard', 'config_control_design', 1994, #133 ) ;
#72 = CARTESIAN_POINT ( 'NONE',  ( 6.000000000000000000, 7.347880794884119736E-16, 0.000000000000000000 ) ) ;
#73 = ORIENTED_EDGE ( 'NONE', *, *, #173, .T. ) ;
#74 = DIRECTION ( 'NONE',  ( 1.000000000000000000, 0.000000000000000000, 0.000000000000000000 ) ) ;
#75 = PERSON_AND_ORGANIZATION_ROLE ( 'design_owner' ) ;
#76 = ORIENTED_EDGE ( 'NONE', *, *, #25, .T. ) ;
#77 = COORDINATED_UNIVERSAL_TIME_OFFSET ( 8, 0, .AHEAD. ) ;
#78 = LOCAL_TIME ( 8, 45, 39.00000000000000000, #52 ) ;
#79 = DATE_AND_TIME ( #37, #14 ) ;
#80 = DATE_AND_TIME ( #132, #162 ) ;
#81 = APPROVAL_DATE_TIME ( #79, #149 ) ;
#82 = CIRCLE ( 'NONE', #107, 6.000000000000000000 ) ;
#83 = PLANE ( 'NONE',  #1 ) ;
#84 = CC_DESIGN_DATE_AND_TIME_ASSIGNMENT ( #131, #102, ( #143 ) ) ;
#85 = VERTEX_POINT ( 'NONE', #27 ) ;
#86 = DIRECTION ( 'NONE',  ( 0.000000000000000000, 0.000000000000000000, -1.000000000000000000 ) ) ;
#87 = CARTESIAN_POINT ( 'NONE',  ( 0.000000000000000000, 0.000000000000000000, 600.0000000000000000 ) ) ;
#88 = DIRECTION ( 'NONE',  ( 1.000000000000000000, 0.000000000000000000, 0.000000000000000000 ) ) ;
#89 = EDGE_CURVE ( 'NONE', #167, #151, #108, .T. ) ;
#90 = AXIS2_PLACEMENT_3D ( 'NONE', #155, #17, #113 ) ;
#91 = CALENDAR_DATE ( 2026, 9, 4 ) ;
#92 = PRODUCT_DEFINITION_SHAPE ( 'NONE', 'NONE',  #143 ) ;
#93 = CC_DESIGN_PERSON_AND_ORGANIZATION_ASSIGNMENT ( #16, #75, ( #13 ) ) ;
#94 = CARTESIAN_POINT ( 'NONE',  ( 0.000000000000000000, 0.000000000000000000, 0.000000000000000000 ) ) ;
#95 = DIRECTION ( 'NONE',  ( 0.000000000000000000, 0.000000000000000000, 1.000000000000000000 ) ) ;
#96 = VECTOR ( 'NONE', #135, 1000.000000000000000 ) ;
#97 = DIRECTION ( 'NONE',  ( 0.000000000000000000, 0.000000000000000000, 1.000000000000000000 ) ) ;
#98 = ORIENTED_EDGE ( 'NONE', *, *, #89, .T. ) ;
#99 = CARTESIAN_POINT ( 'NONE',  ( -6.000000000000000000, 0.000000000000000000, 600.0000000000000000 ) ) ;
#100 = CYLINDRICAL_SURFACE ( 'NONE', #90, 6.000000000000000000 ) ;
#101 = DATE_AND_TIME ( #91, #141 ) ;
#102 = DATE_TIME_ROLE ( 'creation_date' ) ;
#103 = COORDINATED_UNIVERSAL_TIME_OFFSET ( 8, 0, .AHEAD. ) ;
#104 = APPLICATION_CONTEXT ( 'configuration controlled 3d designs of mechanical parts and assemblies' ) ;
#105 = PERSON_AND_ORGANIZATION_ROLE ( 'creator' ) ;
#106 = APPROVAL_PERSON_ORGANIZATION ( #142, #149, #35 ) ;
#107 = AXIS2_PLACEMENT_3D ( 'NONE', #32, #47, #88 ) ;
#108 = LINE ( 'NONE', #124, #96 ) ;
#109 = ORIENTED_EDGE ( 'NONE', *, *, #89, .F. ) ;
#110 = AXIS2_PLACEMENT_3D ( 'NONE', #150, #95, #56 ) ;
#111 = ORIENTED_EDGE ( 'NONE', *, *, #115, .F. ) ;
#112 = CC_DESIGN_DATE_AND_TIME_ASSIGNMENT ( #101, #64, ( #159 ) ) ;
#113 = DIRECTION ( 'NONE',  ( -1.000000000000000000, 0.000000000000000000, 0.000000000000000000 ) ) ;
#114 = ORIENTED_EDGE ( 'NONE', *, *, #7, .F. ) ;
#115 = EDGE_CURVE ( 'NONE', #85, #167, #53, .T. ) ;
#116 = PERSON_AND_ORGANIZATION ( #166, #130 ) ;
#117 = PERSON_AND_ORGANIZATION ( #166, #130 ) ;
#118 = PERSON_AND_ORGANIZATION ( #166, #130 ) ;
#119 = ADVANCED_FACE ( 'NONE', ( #29 ), #127, .T. ) ;
#120 = AXIS2_PLACEMENT_3D ( 'NONE', #3, #97, #74 ) ;
#121 = PRODUCT_RELATED_PRODUCT_CATEGORY ( 'detail', '', ( #13 ) ) ;
#122 = LINE ( 'NONE', #45, #15 ) ;
#123 = EDGE_LOOP ( 'NONE', ( #139, #18, #98, #46 ) ) ;
#124 = CARTESIAN_POINT ( 'NONE',  ( -6.000000000000000000, 0.000000000000000000, 600.0000000000000000 ) ) ;
#125 = APPROVAL ( #172, '未指定' ) ;
#126 = EDGE_LOOP ( 'NONE', ( #114, #153 ) ) ;
#127 = CYLINDRICAL_SURFACE ( 'NONE', #36, 6.000000000000000000 ) ;
#128 = EDGE_LOOP ( 'NONE', ( #73, #169 ) ) ;
#129 = SECURITY_CLASSIFICATION_LEVEL ( 'unclassified' ) ;
#130 = ORGANIZATION ( '未指定', '未指定', '' ) ;
#131 = DATE_AND_TIME ( #33, #62 ) ;
#132 = CALENDAR_DATE ( 2026, 9, 4 ) ;
#133 = APPLICATION_CONTEXT ( 'configuration controlled 3d designs of mechanical parts and assemblies' ) ;
#134 = APPROVAL_PERSON_ORGANIZATION ( #116, #160, #49 ) ;
#135 = DIRECTION ( 'NONE',  ( 0.000000000000000000, 0.000000000000000000, -1.000000000000000000 ) ) ;
#136 = CARTESIAN_POINT ( 'NONE',  ( -6.000000000000000000, 0.000000000000000000, 0.000000000000000000 ) ) ;
#137 = ADVANCED_FACE ( 'NONE', ( #138 ), #83, .F. ) ;
#138 = FACE_OUTER_BOUND ( 'NONE', #126, .T. ) ;
#139 = ORIENTED_EDGE ( 'NONE', *, *, #67, .F. ) ;
#140 = DIRECTION ( 'NONE',  ( 1.000000000000000000, 0.000000000000000000, 0.000000000000000000 ) ) ;
#141 = LOCAL_TIME ( 8, 45, 39.00000000000000000, #103 ) ;
#142 = PERSON_AND_ORGANIZATION ( #166, #130 ) ;
#143 = PRODUCT_DEFINITION ( '未知', '', #57, #2 ) ;
#144 = MANIFOLD_SOLID_BREP ( '输入1', #21 ) ;
#145 = DIRECTION ( 'NONE',  ( 0.000000000000000000, 0.000000000000000000, -1.000000000000000000 ) ) ;
#146 = DIRECTION ( 'NONE',  ( 0.000000000000000000, 0.000000000000000000, 1.000000000000000000 ) ) ;
#147 = AXIS2_PLACEMENT_3D ( 'NONE', #4, #59, #140 ) ;
#148 = CARTESIAN_POINT ( 'NONE',  ( 0.000000000000000000, 0.000000000000000000, 0.000000000000000000 ) ) ;
#149 = APPROVAL ( #65, '未指定' ) ;
#150 = CARTESIAN_POINT ( 'NONE',  ( 0.000000000000000000, 0.000000000000000000, 600.0000000000000000 ) ) ;
#151 = VERTEX_POINT ( 'NONE', #136 ) ;
#152 = APPLICATION_PROTOCOL_DEFINITION ( 'international standard', 'config_control_design', 1994, #104 ) ;
#153 = ORIENTED_EDGE ( 'NONE', *, *, #25, .F. ) ;
#154 = PLANE ( 'NONE',  #68 ) ;
#155 = CARTESIAN_POINT ( 'NONE',  ( 0.000000000000000000, 0.000000000000000000, 600.0000000000000000 ) ) ;
#156 = APPROVAL_DATE_TIME ( #80, #125 ) ;
#157 = PERSON_AND_ORGANIZATION ( #166, #130 ) ;
#158 = APPROVAL_STATUS ( 'not_yet_approved' ) ;
#159 = SECURITY_CLASSIFICATION ( '', '', #129 ) ;
#160 = APPROVAL ( #158, '未指定' ) ;
#161 = SHAPE_DEFINITION_REPRESENTATION ( #92, #70 ) ;
#162 = LOCAL_TIME ( 8, 45, 39.00000000000000000, #38 ) ;
#163 =( NAMED_UNIT ( * ) PLANE_ANGLE_UNIT ( ) SI_UNIT ( $, .RADIAN. ) );
#164 = VERTEX_POINT ( 'NONE', #72 ) ;
#165 = CARTESIAN_POINT ( 'NONE',  ( 0.000000000000000000, 0.000000000000000000, 600.0000000000000000 ) ) ;
#166 = PERSON ( '未指定', '未指定', '未指定', ('未指定'), ('未指定'), ('未指定') ) ;
#167 = VERTEX_POINT ( 'NONE', #99 ) ;
#168 =( GEOMETRIC_REPRESENTATION_CONTEXT ( 3 ) GLOBAL_UNCERTAINTY_ASSIGNED_CONTEXT ( ( #24 ) ) GLOBAL_UNIT_ASSIGNED_CONTEXT ( ( #58, #163, #20 ) ) REPRESENTATION_CONTEXT ( 'NONE', 'WORKASPACE' ) );
#169 = ORIENTED_EDGE ( 'NONE', *, *, #115, .T. ) ;
#170 = DIRECTION ( 'NONE',  ( 1.000000000000000000, 0.000000000000000000, 0.000000000000000000 ) ) ;
#171 = FACE_OUTER_BOUND ( 'NONE', #123, .T. ) ;
#172 = APPROVAL_STATUS ( 'not_yet_approved' ) ;
#173 = EDGE_CURVE ( 'NONE', #167, #85, #22, .T. ) ;
#174 = DATE_AND_TIME ( #23, #78 ) ;
#175 = COORDINATED_UNIVERSAL_TIME_OFFSET ( 8, 0, .AHEAD. ) ;
ENDSEC;
END-ISO-10303-21;
