ISO-10303-21;
HEADER;
FILE_DESCRIPTION (( 'STEP AP203' ),
    '1' );
FILE_NAME ('HuaTai_默认_sldprt.STEP',
    '2026-04-09T00:45:40',
    ( '' ),
    ( '' ),
    'SwSTEP 2.0',
    'SolidWorks 2022',
    '' );
FILE_SCHEMA (( 'CONFIG_CONTROL_DESIGN' ));
ENDSEC;

DATA;
#1 = DIRECTION ( 'NONE',  ( -1.000000000000000000, 0.000000000000000000, 0.000000000000000000 ) ) ;
#2 = UNCERTAINTY_MEASURE_WITH_UNIT (LENGTH_MEASURE( 1.000000000000000082E-05 ), #351, 'distance_accuracy_value', 'NONE');
#3 = CALENDAR_DATE ( 2026, 9, 4 ) ;
#4 = CARTESIAN_POINT ( 'NONE',  ( -50.17182130584190247, 0.000000000000000000, 40.00000000000000000 ) ) ;
#5 = CARTESIAN_POINT ( 'NONE',  ( 9.828178694158099304, -15.00000000000000000, 40.00000000000000000 ) ) ;
#6 = EDGE_LOOP ( 'NONE', ( #328, #153, #148, #152 ) ) ;
#7 = EDGE_LOOP ( 'NONE', ( #156, #407, #429, #119 ) ) ;
#8 = PERSON_AND_ORGANIZATION ( #180, #190 ) ;
#9 = EDGE_LOOP ( 'NONE', ( #12, #160, #416, #178 ) ) ;
#10 = AXIS2_PLACEMENT_3D ( 'NONE', #414, #350, #169 ) ;
#11 = ORIENTED_EDGE ( 'NONE', *, *, #427, .T. ) ;
#12 = ORIENTED_EDGE ( 'NONE', *, *, #456, .T. ) ;
#13 = ORIENTED_EDGE ( 'NONE', *, *, #413, .F. ) ;
#14 = ADVANCED_FACE ( 'NONE', ( #375 ), #121, .F. ) ;
#15 = ADVANCED_FACE ( 'NONE', ( #194 ), #452, .F. ) ;
#16 = VECTOR ( 'NONE', #280, 1000.000000000000000 ) ;
#17 = CARTESIAN_POINT ( 'NONE',  ( -50.17182130584190247, -40.00000000000000000, 40.00000000000000000 ) ) ;
#18 = ORIENTED_EDGE ( 'NONE', *, *, #144, .F. ) ;
#19 = LINE ( 'NONE', #200, #402 ) ;
#20 = LINE ( 'NONE', #270, #261 ) ;
#21 = DIRECTION ( 'NONE',  ( 1.000000000000000000, 0.000000000000000000, 0.000000000000000000 ) ) ;
#22 = CARTESIAN_POINT ( 'NONE',  ( 69.82817869415809753, 0.000000000000000000, 0.000000000000000000 ) ) ;
#23 = CC_DESIGN_SECURITY_CLASSIFICATION ( #409, ( #253 ) ) ;
#24 = FACE_BOUND ( 'NONE', #101, .T. ) ;
#25 = AXIS2_PLACEMENT_3D ( 'NONE', #389, #210, #356 ) ;
#26 = VECTOR ( 'NONE', #60, 1000.000000000000000 ) ;
#27 = FACE_OUTER_BOUND ( 'NONE', #333, .T. ) ;
#28 = LINE ( 'NONE', #339, #26 ) ;
#29 = CARTESIAN_POINT ( 'NONE',  ( 69.82817869415809753, -40.00000000000000000, 40.00000000000000000 ) ) ;
#30 = CARTESIAN_POINT ( 'NONE',  ( -50.17182130584190247, 0.000000000000000000, 40.00000000000000000 ) ) ;
#31 = EDGE_CURVE ( 'NONE', #117, #432, #28, .T. ) ;
#32 = DIRECTION ( 'NONE',  ( 0.000000000000000000, 0.000000000000000000, 1.000000000000000000 ) ) ;
#33 = PERSON_AND_ORGANIZATION ( #180, #190 ) ;
#34 = DIRECTION ( 'NONE',  ( 1.000000000000000000, 0.000000000000000000, 0.000000000000000000 ) ) ;
#35 = CALENDAR_DATE ( 2026, 9, 4 ) ;
#36 = EDGE_CURVE ( 'NONE', #84, #292, #437, .T. ) ;
#37 = CARTESIAN_POINT ( 'NONE',  ( 34.82817869415809753, -25.00000000000000000, 40.00000000000000000 ) ) ;
#38 = CIRCLE ( 'NONE', #334, 5.000000000000000888 ) ;
#39 = CALENDAR_DATE ( 2026, 9, 4 ) ;
#40 = ORIENTED_EDGE ( 'NONE', *, *, #157, .F. ) ;
#41 = DATE_TIME_ROLE ( 'classification_date' ) ;
#42 = ORIENTED_EDGE ( 'NONE', *, *, #224, .F. ) ;
#43 = ORIENTED_EDGE ( 'NONE', *, *, #378, .F. ) ;
#44 = AXIS2_PLACEMENT_3D ( 'NONE', #428, #314, #250 ) ;
#45 = AXIS2_PLACEMENT_3D ( 'NONE', #229, #371, #411 ) ;
#46 = EDGE_LOOP ( 'NONE', ( #185, #181, #80, #438 ) ) ;
#47 = EDGE_CURVE ( 'NONE', #360, #434, #234, .T. ) ;
#48 = ORIENTED_EDGE ( 'NONE', *, *, #36, .T. ) ;
#49 = CYLINDRICAL_SURFACE ( 'NONE', #184, 4.999999999999997335 ) ;
#50 = EDGE_LOOP ( 'NONE', ( #313, #399 ) ) ;
#51 = DIRECTION ( 'NONE',  ( 0.000000000000000000, 1.000000000000000000, 0.000000000000000000 ) ) ;
#52 = DIRECTION ( 'NONE',  ( 0.000000000000000000, 0.000000000000000000, -1.000000000000000000 ) ) ;
#53 = FACE_OUTER_BOUND ( 'NONE', #130, .T. ) ;
#54 = DIRECTION ( 'NONE',  ( -1.000000000000000000, 0.000000000000000000, 0.000000000000000000 ) ) ;
#55 = CC_DESIGN_PERSON_AND_ORGANIZATION_ASSIGNMENT ( #325, #320, ( #253 ) ) ;
#56 = DIRECTION ( 'NONE',  ( 1.000000000000000000, 0.000000000000000000, 0.000000000000000000 ) ) ;
#57 = FACE_BOUND ( 'NONE', #50, .T. ) ;
#58 = MECHANICAL_CONTEXT ( 'NONE', #115, 'mechanical' ) ;
#59 = CYLINDRICAL_SURFACE ( 'NONE', #134, 5.000000000000000888 ) ;
#60 = DIRECTION ( 'NONE',  ( 0.000000000000000000, 0.000000000000000000, -1.000000000000000000 ) ) ;
#61 = DIRECTION ( 'NONE',  ( 1.000000000000000000, 0.000000000000000000, 0.000000000000000000 ) ) ;
#62 = CARTESIAN_POINT ( 'NONE',  ( 9.828178694158099304, -15.00000000000000000, 0.000000000000000000 ) ) ;
#63 = EDGE_CURVE ( 'NONE', #321, #387, #222, .T. ) ;
#64 = CARTESIAN_POINT ( 'NONE',  ( 14.82817869415809930, -15.00000000000000000, 40.00000000000000000 ) ) ;
#65 = VERTEX_POINT ( 'NONE', #97 ) ;
#66 = LINE ( 'NONE', #106, #342 ) ;
#67 = DIRECTION ( 'NONE',  ( -3.469446951953615175E-16, 1.000000000000000000, 0.000000000000000000 ) ) ;
#68 = LOCAL_TIME ( 8, 45, 40.00000000000000000, #209 ) ;
#69 = CIRCLE ( 'NONE', #327, 5.000000000000000888 ) ;
#70 = LINE ( 'NONE', #237, #16 ) ;
#71 = CARTESIAN_POINT ( 'NONE',  ( 39.82817869415809753, -25.00000000000000000, 40.00000000000000000 ) ) ;
#72 = LINE ( 'NONE', #386, #365 ) ;
#73 = APPROVAL_DATE_TIME ( #75, #256 ) ;
#74 = VECTOR ( 'NONE', #284, 1000.000000000000000 ) ;
#75 = DATE_AND_TIME ( #172, #220 ) ;
#76 = ORIENTED_EDGE ( 'NONE', *, *, #413, .T. ) ;
#77 = EDGE_CURVE ( 'NONE', #89, #368, #372, .T. ) ;
#78 = COORDINATED_UNIVERSAL_TIME_OFFSET ( 8, 0, .AHEAD. ) ;
#79 = ORIENTED_EDGE ( 'NONE', *, *, #63, .T. ) ;
#80 = ORIENTED_EDGE ( 'NONE', *, *, #82, .T. ) ;
#81 = CIRCLE ( 'NONE', #126, 4.999999999999997335 ) ;
#82 = EDGE_CURVE ( 'NONE', #405, #216, #20, .T. ) ;
#83 = AXIS2_PLACEMENT_3D ( 'NONE', #380, #92, #90 ) ;
#84 = VERTEX_POINT ( 'NONE', #264 ) ;
#85 = APPROVAL ( #149, '未指定' ) ;
#86 = ORIENTED_EDGE ( 'NONE', *, *, #323, .T. ) ;
#87 = DIRECTION ( 'NONE',  ( 0.000000000000000000, 0.000000000000000000, -1.000000000000000000 ) ) ;
#88 = LINE ( 'NONE', #415, #343 ) ;
#89 = VERTEX_POINT ( 'NONE', #192 ) ;
#90 = DIRECTION ( 'NONE',  ( 1.000000000000000000, 0.000000000000000000, 0.000000000000000000 ) ) ;
#91 = FACE_BOUND ( 'NONE', #215, .T. ) ;
#92 = DIRECTION ( 'NONE',  ( 0.000000000000000000, 0.000000000000000000, 1.000000000000000000 ) ) ;
#93 = PRODUCT_DEFINITION_SHAPE ( 'NONE', 'NONE',  #138 ) ;
#94 = EDGE_CURVE ( 'NONE', #434, #432, #403, .T. ) ;
#95 = VECTOR ( 'NONE', #457, 1000.000000000000000 ) ;
#96 = CARTESIAN_POINT ( 'NONE',  ( 39.82817869415809753, -25.00000000000000000, 40.00000000000000000 ) ) ;
#97 = CARTESIAN_POINT ( 'NONE',  ( -50.17182130584190247, 0.000000000000000000, 40.00000000000000000 ) ) ;
#98 = DIRECTION ( 'NONE',  ( 0.000000000000000000, 0.000000000000000000, 1.000000000000000000 ) ) ;
#99 = PERSON_AND_ORGANIZATION ( #180, #190 ) ;
#100 =( NAMED_UNIT ( * ) SI_UNIT ( $, .STERADIAN. ) SOLID_ANGLE_UNIT ( ) );
#101 = EDGE_LOOP ( 'NONE', ( #175, #251 ) ) ;
#102 = APPROVAL_STATUS ( 'not_yet_approved' ) ;
#103 = DIRECTION ( 'NONE',  ( 1.000000000000000000, 0.000000000000000000, 0.000000000000000000 ) ) ;
#104 =( GEOMETRIC_REPRESENTATION_CONTEXT ( 3 ) GLOBAL_UNCERTAINTY_ASSIGNED_CONTEXT ( ( #2 ) ) GLOBAL_UNIT_ASSIGNED_CONTEXT ( ( #351, #278, #100 ) ) REPRESENTATION_CONTEXT ( 'NONE', 'WORKASPACE' ) );
#105 = APPROVAL_ROLE ( '' ) ;
#106 = CARTESIAN_POINT ( 'NONE',  ( -50.17182130584190247, -40.00000000000000000, 40.00000000000000000 ) ) ;
#107 = DATE_AND_TIME ( #112, #423 ) ;
#108 = FACE_OUTER_BOUND ( 'NONE', #302, .T. ) ;
#109 = DATE_TIME_ROLE ( 'creation_date' ) ;
#110 = EDGE_CURVE ( 'NONE', #330, #368, #236, .T. ) ;
#111 = ORIENTED_EDGE ( 'NONE', *, *, #439, .F. ) ;
#112 = CALENDAR_DATE ( 2026, 9, 4 ) ;
#113 = EDGE_LOOP ( 'NONE', ( #146, #111 ) ) ;
#114 = EDGE_LOOP ( 'NONE', ( #259, #150, #166, #186 ) ) ;
#115 = APPLICATION_CONTEXT ( 'configuration controlled 3d designs of mechanical parts and assemblies' ) ;
#116 = CC_DESIGN_DATE_AND_TIME_ASSIGNMENT ( #431, #109, ( #138 ) ) ;
#117 = VERTEX_POINT ( 'NONE', #232 ) ;
#118 = VECTOR ( 'NONE', #446, 1000.000000000000000 ) ;
#119 = ORIENTED_EDGE ( 'NONE', *, *, #82, .F. ) ;
#120 = DIRECTION ( 'NONE',  ( 0.000000000000000000, 0.000000000000000000, 1.000000000000000000 ) ) ;
#121 = CYLINDRICAL_SURFACE ( 'NONE', #285, 4.999999999999997335 ) ;
#122 = DIRECTION ( 'NONE',  ( 1.000000000000000000, 0.000000000000000000, 0.000000000000000000 ) ) ;
#123 = DIRECTION ( 'NONE',  ( -1.000000000000000000, -3.469446951953615175E-16, 0.000000000000000000 ) ) ;
#124 = EDGE_CURVE ( 'NONE', #65, #395, #341, .T. ) ;
#125 = LOCAL_TIME ( 8, 45, 40.00000000000000000, #78 ) ;
#126 = AXIS2_PLACEMENT_3D ( 'NONE', #421, #171, #353 ) ;
#127 = CARTESIAN_POINT ( 'NONE',  ( 9.828178694158099304, -15.00000000000000000, 40.00000000000000000 ) ) ;
#128 = LINE ( 'NONE', #306, #221 ) ;
#129 = DIRECTION ( 'NONE',  ( 3.469446951953615175E-16, -1.000000000000000000, 0.000000000000000000 ) ) ;
#130 = EDGE_LOOP ( 'NONE', ( #40, #383, #279, #364 ) ) ;
#131 = ADVANCED_FACE ( 'NONE', ( #203, #412, #57, #24 ), #349, .F. ) ;
#132 = CARTESIAN_POINT ( 'NONE',  ( -50.17182130584190247, 0.000000000000000000, 40.00000000000000000 ) ) ;
#133 = CARTESIAN_POINT ( 'NONE',  ( 69.82817869415809753, 0.000000000000000000, 40.00000000000000000 ) ) ;
#134 = AXIS2_PLACEMENT_3D ( 'NONE', #233, #345, #443 ) ;
#135 = CARTESIAN_POINT ( 'NONE',  ( -50.17182130584190247, 0.000000000000000000, 0.000000000000000000 ) ) ;
#136 = CARTESIAN_POINT ( 'NONE',  ( 4.828178694158099304, -15.00000000000000000, 0.000000000000000000 ) ) ;
#137 = DIRECTION ( 'NONE',  ( 0.000000000000000000, 0.000000000000000000, -1.000000000000000000 ) ) ;
#138 = PRODUCT_DEFINITION ( '未知', '', #253, #392 ) ;
#139 = AXIS2_PLACEMENT_3D ( 'NONE', #376, #191, #56 ) ;
#140 = VECTOR ( 'NONE', #196, 1000.000000000000000 ) ;
#141 = DIRECTION ( 'NONE',  ( 0.000000000000000000, 0.000000000000000000, 1.000000000000000000 ) ) ;
#142 = CARTESIAN_POINT ( 'NONE',  ( -15.17182130584189892, -25.00000000000000000, 40.00000000000000000 ) ) ;
#143 = APPROVAL_ROLE ( '' ) ;
#144 = EDGE_CURVE ( 'NONE', #218, #330, #128, .T. ) ;
#145 = EDGE_CURVE ( 'NONE', #360, #117, #69, .T. ) ;
#146 = ORIENTED_EDGE ( 'NONE', *, *, #36, .F. ) ;
#147 = PERSON_AND_ORGANIZATION ( #180, #190 ) ;
#148 = ORIENTED_EDGE ( 'NONE', *, *, #311, .F. ) ;
#149 = APPROVAL_STATUS ( 'not_yet_approved' ) ;
#150 = ORIENTED_EDGE ( 'NONE', *, *, #145, .T. ) ;
#151 = CC_DESIGN_PERSON_AND_ORGANIZATION_ASSIGNMENT ( #358, #252, ( #409 ) ) ;
#152 = ORIENTED_EDGE ( 'NONE', *, *, #124, .T. ) ;
#153 = ORIENTED_EDGE ( 'NONE', *, *, #361, .F. ) ;
#154 = CIRCLE ( 'NONE', #214, 5.000000000000000888 ) ;
#155 = CARTESIAN_POINT ( 'NONE',  ( 69.82817869415809753, -40.00000000000000000, 40.00000000000000000 ) ) ;
#156 = ORIENTED_EDGE ( 'NONE', *, *, #164, .T. ) ;
#157 = EDGE_CURVE ( 'NONE', #292, #321, #315, .T. ) ;
#158 = FACE_OUTER_BOUND ( 'NONE', #298, .T. ) ;
#159 = DIRECTION ( 'NONE',  ( 0.000000000000000000, 0.000000000000000000, 1.000000000000000000 ) ) ;
#160 = ORIENTED_EDGE ( 'NONE', *, *, #347, .F. ) ;
#161 = CC_DESIGN_APPROVAL ( #85, ( #253 ) ) ;
#162 = DIRECTION ( 'NONE',  ( 0.000000000000000000, 0.000000000000000000, -1.000000000000000000 ) ) ;
#163 = DIRECTION ( 'NONE',  ( 0.000000000000000000, 0.000000000000000000, -1.000000000000000000 ) ) ;
#164 = EDGE_CURVE ( 'NONE', #405, #444, #388, .T. ) ;
#165 = LINE ( 'NONE', #132, #303 ) ;
#166 = ORIENTED_EDGE ( 'NONE', *, *, #31, .T. ) ;
#167 = CARTESIAN_POINT ( 'NONE',  ( 39.82817869415809753, -25.00000000000000000, 0.000000000000000000 ) ) ;
#168 = CARTESIAN_POINT ( 'NONE',  ( 0.000000000000000000, 0.000000000000000000, 0.000000000000000000 ) ) ;
#169 = DIRECTION ( 'NONE',  ( 1.000000000000000000, 0.000000000000000000, 0.000000000000000000 ) ) ;
#170 = DIRECTION ( 'NONE',  ( 0.000000000000000000, 0.000000000000000000, -1.000000000000000000 ) ) ;
#171 = DIRECTION ( 'NONE',  ( 0.000000000000000000, 0.000000000000000000, 1.000000000000000000 ) ) ;
#172 = CALENDAR_DATE ( 2026, 9, 4 ) ;
#173 = CARTESIAN_POINT ( 'NONE',  ( 69.82817869415809753, 0.000000000000000000, 0.000000000000000000 ) ) ;
#174 = AXIS2_PLACEMENT_3D ( 'NONE', #167, #235, #103 ) ;
#175 = ORIENTED_EDGE ( 'NONE', *, *, #275, .T. ) ;
#176 = EDGE_CURVE ( 'NONE', #216, #346, #81, .T. ) ;
#177 = CC_DESIGN_DATE_AND_TIME_ASSIGNMENT ( #396, #41, ( #409 ) ) ;
#178 = ORIENTED_EDGE ( 'NONE', *, *, #361, .T. ) ;
#179 = APPROVAL_DATE_TIME ( #107, #449 ) ;
#180 = PERSON ( '未指定', '未指定', '未指定', ('未指定'), ('未指定'), ('未指定') ) ;
#181 = ORIENTED_EDGE ( 'NONE', *, *, #440, .T. ) ;
#182 = AXIS2_PLACEMENT_3D ( 'NONE', #168, #410, #377 ) ;
#183 = ORIENTED_EDGE ( 'NONE', *, *, #373, .F. ) ;
#184 = AXIS2_PLACEMENT_3D ( 'NONE', #96, #87, #269 ) ;
#185 = ORIENTED_EDGE ( 'NONE', *, *, #294, .F. ) ;
#186 = ORIENTED_EDGE ( 'NONE', *, *, #94, .F. ) ;
#187 = CARTESIAN_POINT ( 'NONE',  ( -50.17182130584190247, -40.00000000000000000, 40.00000000000000000 ) ) ;
#188 = EDGE_LOOP ( 'NONE', ( #76, #324, #370, #400 ) ) ;
#189 = ADVANCED_FACE ( 'NONE', ( #458 ), #281, .F. ) ;
#190 = ORGANIZATION ( '未指定', '未指定', '' ) ;
#191 = DIRECTION ( 'NONE',  ( 0.000000000000000000, 0.000000000000000000, 1.000000000000000000 ) ) ;
#192 = CARTESIAN_POINT ( 'NONE',  ( 69.82817869415809753, -40.00000000000000000, 0.000000000000000000 ) ) ;
#193 = CYLINDRICAL_SURFACE ( 'NONE', #397, 5.000000000000000888 ) ;
#194 = FACE_OUTER_BOUND ( 'NONE', #205, .T. ) ;
#195 = PLANE ( 'NONE',  #243 ) ;
#196 = DIRECTION ( 'NONE',  ( -3.469446951953615175E-16, 1.000000000000000000, 0.000000000000000000 ) ) ;
#197 = CC_DESIGN_APPROVAL ( #449, ( #409 ) ) ;
#198 = VECTOR ( 'NONE', #137, 1000.000000000000000 ) ;
#199 = VECTOR ( 'NONE', #266, 1000.000000000000000 ) ;
#200 = CARTESIAN_POINT ( 'NONE',  ( -50.17182130584190247, 0.000000000000000000, 0.000000000000000000 ) ) ;
#201 = DIRECTION ( 'NONE',  ( 0.000000000000000000, 0.000000000000000000, 1.000000000000000000 ) ) ;
#202 = CARTESIAN_POINT ( 'NONE',  ( 44.82817869415809753, -25.00000000000000000, 40.00000000000000000 ) ) ;
#203 = FACE_OUTER_BOUND ( 'NONE', #291, .T. ) ;
#204 = DIRECTION ( 'NONE',  ( 1.000000000000000000, 0.000000000000000000, 0.000000000000000000 ) ) ;
#205 = EDGE_LOOP ( 'NONE', ( #254, #272, #18, #309 ) ) ;
#206 = ADVANCED_FACE ( 'NONE', ( #108 ), #265, .F. ) ;
#207 = APPROVAL_PERSON_ORGANIZATION ( #390, #449, #143 ) ;
#208 = LINE ( 'NONE', #276, #326 ) ;
#209 = COORDINATED_UNIVERSAL_TIME_OFFSET ( 8, 0, .AHEAD. ) ;
#210 = DIRECTION ( 'NONE',  ( 0.000000000000000000, 0.000000000000000000, -1.000000000000000000 ) ) ;
#211 = CARTESIAN_POINT ( 'NONE',  ( -20.17182130584189892, -25.00000000000000000, 0.000000000000000000 ) ) ;
#212 = ADVANCED_FACE ( 'NONE', ( #297 ), #49, .F. ) ;
#213 = COORDINATED_UNIVERSAL_TIME_OFFSET ( 8, 0, .AHEAD. ) ;
#214 = AXIS2_PLACEMENT_3D ( 'NONE', #381, #98, #34 ) ;
#215 = EDGE_LOOP ( 'NONE', ( #42, #295 ) ) ;
#216 = VERTEX_POINT ( 'NONE', #374 ) ;
#217 = CC_DESIGN_PERSON_AND_ORGANIZATION_ASSIGNMENT ( #363, #248, ( #253 ) ) ;
#218 = VERTEX_POINT ( 'NONE', #155 ) ;
#219 = ORIENTED_EDGE ( 'NONE', *, *, #224, .T. ) ;
#220 = LOCAL_TIME ( 8, 45, 40.00000000000000000, #354 ) ;
#221 = VECTOR ( 'NONE', #67, 1000.000000000000000 ) ;
#222 = CIRCLE ( 'NONE', #344, 5.000000000000000888 ) ;
#223 = ORIENTED_EDGE ( 'NONE', *, *, #311, .T. ) ;
#224 = EDGE_CURVE ( 'NONE', #117, #360, #366, .T. ) ;
#225 = EDGE_LOOP ( 'NONE', ( #430, #79 ) ) ;
#226 = ADVANCED_FACE ( 'NONE', ( #299 ), #301, .F. ) ;
#227 = CARTESIAN_POINT ( 'NONE',  ( -50.17182130584190247, -40.00000000000000000, 40.00000000000000000 ) ) ;
#228 = DIRECTION ( 'NONE',  ( 3.469446951953615175E-16, -1.000000000000000000, 0.000000000000000000 ) ) ;
#229 = CARTESIAN_POINT ( 'NONE',  ( -50.17182130584190247, 0.000000000000000000, 40.00000000000000000 ) ) ;
#230 = DIRECTION ( 'NONE',  ( 1.000000000000000000, 0.000000000000000000, 0.000000000000000000 ) ) ;
#231 = FACE_BOUND ( 'NONE', #113, .T. ) ;
#232 = CARTESIAN_POINT ( 'NONE',  ( 4.828178694158099304, -15.00000000000000000, 40.00000000000000000 ) ) ;
#233 = CARTESIAN_POINT ( 'NONE',  ( -20.17182130584189892, -25.00000000000000000, 40.00000000000000000 ) ) ;
#234 = LINE ( 'NONE', #274, #245 ) ;
#235 = DIRECTION ( 'NONE',  ( 0.000000000000000000, 0.000000000000000000, 1.000000000000000000 ) ) ;
#236 = LINE ( 'NONE', #382, #199 ) ;
#237 = CARTESIAN_POINT ( 'NONE',  ( -50.17182130584190247, -40.00000000000000000, 0.000000000000000000 ) ) ;
#238 = ADVANCED_FACE ( 'NONE', ( #379, #27, #231, #91 ), #308, .T. ) ;
#239 = PERSON_AND_ORGANIZATION_ROLE ( 'design_owner' ) ;
#240 = LINE ( 'NONE', #29, #74 ) ;
#241 = ORIENTED_EDGE ( 'NONE', *, *, #275, .F. ) ;
#242 = AXIS2_PLACEMENT_3D ( 'NONE', #348, #141, #61 ) ;
#243 = AXIS2_PLACEMENT_3D ( 'NONE', #227, #51, #340 ) ;
#244 = FACE_OUTER_BOUND ( 'NONE', #6, .T. ) ;
#245 = VECTOR ( 'NONE', #418, 1000.000000000000000 ) ;
#246 = DIRECTION ( 'NONE',  ( 0.000000000000000000, 0.000000000000000000, 1.000000000000000000 ) ) ;
#247 = MANIFOLD_SOLID_BREP ( '输入1', #304 ) ;
#248 = PERSON_AND_ORGANIZATION_ROLE ( 'design_supplier' ) ;
#249 = ADVANCED_FACE ( 'NONE', ( #406 ), #195, .F. ) ;
#250 = DIRECTION ( 'NONE',  ( -3.469446951953615175E-16, 1.000000000000000000, 0.000000000000000000 ) ) ;
#251 = ORIENTED_EDGE ( 'NONE', *, *, #94, .T. ) ;
#252 = PERSON_AND_ORGANIZATION_ROLE ( 'classification_officer' ) ;
#253 = PRODUCT_DEFINITION_FORMATION_WITH_SPECIFIED_SOURCE ( '任何', '', #307, .NOT_KNOWN. ) ;
#254 = ORIENTED_EDGE ( 'NONE', *, *, #77, .T. ) ;
#255 = SHAPE_DEFINITION_REPRESENTATION ( #93, #282 ) ;
#256 = APPROVAL ( #322, '未指定' ) ;
#257 = VERTEX_POINT ( 'NONE', #369 ) ;
#258 = EDGE_LOOP ( 'NONE', ( #435, #404 ) ) ;
#259 = ORIENTED_EDGE ( 'NONE', *, *, #47, .F. ) ;
#260 = AXIS2_PLACEMENT_3D ( 'NONE', #71, #246, #277 ) ;
#261 = VECTOR ( 'NONE', #52, 1000.000000000000000 ) ;
#262 = VERTEX_POINT ( 'NONE', #187 ) ;
#263 = DIRECTION ( 'NONE',  ( -1.000000000000000000, 0.000000000000000000, 0.000000000000000000 ) ) ;
#264 = CARTESIAN_POINT ( 'NONE',  ( -25.17182130584190247, -25.00000000000000000, 40.00000000000000000 ) ) ;
#265 = CYLINDRICAL_SURFACE ( 'NONE', #268, 5.000000000000000000 ) ;
#266 = DIRECTION ( 'NONE',  ( 0.000000000000000000, 0.000000000000000000, -1.000000000000000000 ) ) ;
#267 = LOCAL_TIME ( 8, 45, 40.00000000000000000, #213 ) ;
#268 = AXIS2_PLACEMENT_3D ( 'NONE', #127, #162, #263 ) ;
#269 = DIRECTION ( 'NONE',  ( -1.000000000000000000, 0.000000000000000000, 0.000000000000000000 ) ) ;
#270 = CARTESIAN_POINT ( 'NONE',  ( 34.82817869415809753, -25.00000000000000000, 40.00000000000000000 ) ) ;
#271 = CARTESIAN_POINT ( 'NONE',  ( -15.17182130584189892, -25.00000000000000000, 40.00000000000000000 ) ) ;
#272 = ORIENTED_EDGE ( 'NONE', *, *, #110, .F. ) ;
#273 = DIRECTION ( 'NONE',  ( 3.469446951953615175E-16, -1.000000000000000000, 0.000000000000000000 ) ) ;
#274 = CARTESIAN_POINT ( 'NONE',  ( 14.82817869415809930, -15.00000000000000000, 40.00000000000000000 ) ) ;
#275 = EDGE_CURVE ( 'NONE', #432, #434, #425, .T. ) ;
#276 = CARTESIAN_POINT ( 'NONE',  ( -50.17182130584190247, 0.000000000000000000, 0.000000000000000000 ) ) ;
#277 = DIRECTION ( 'NONE',  ( 1.000000000000000000, 0.000000000000000000, 0.000000000000000000 ) ) ;
#278 =( NAMED_UNIT ( * ) PLANE_ANGLE_UNIT ( ) SI_UNIT ( $, .RADIAN. ) );
#279 = ORIENTED_EDGE ( 'NONE', *, *, #373, .T. ) ;
#280 = DIRECTION ( 'NONE',  ( 1.000000000000000000, 0.000000000000000000, 0.000000000000000000 ) ) ;
#281 = CYLINDRICAL_SURFACE ( 'NONE', #25, 5.000000000000000000 ) ;
#282 = ADVANCED_BREP_SHAPE_REPRESENTATION ( 'HuaTai_\X2\9ed88ba4\X0\_sldprt', ( #247, #10 ), #104 ) ;
#283 = AXIS2_PLACEMENT_3D ( 'NONE', #451, #335, #305 ) ;
#284 = DIRECTION ( 'NONE',  ( 0.000000000000000000, 0.000000000000000000, -1.000000000000000000 ) ) ;
#285 = AXIS2_PLACEMENT_3D ( 'NONE', #450, #163, #54 ) ;
#286 = CARTESIAN_POINT ( 'NONE',  ( 69.82817869415809753, 0.000000000000000000, 40.00000000000000000 ) ) ;
#287 = PERSON_AND_ORGANIZATION_ROLE ( 'creator' ) ;
#288 = ORIENTED_EDGE ( 'NONE', *, *, #77, .F. ) ;
#289 = COORDINATED_UNIVERSAL_TIME_OFFSET ( 8, 0, .AHEAD. ) ;
#290 = EDGE_CURVE ( 'NONE', #395, #257, #19, .T. ) ;
#291 = EDGE_LOOP ( 'NONE', ( #442, #13, #288, #367 ) ) ;
#292 = VERTEX_POINT ( 'NONE', #271 ) ;
#293 = ORIENTED_EDGE ( 'NONE', *, *, #31, .F. ) ;
#294 = EDGE_CURVE ( 'NONE', #444, #346, #88, .T. ) ;
#295 = ORIENTED_EDGE ( 'NONE', *, *, #145, .F. ) ;
#296 = APPLICATION_CONTEXT ( 'configuration controlled 3d designs of mechanical parts and assemblies' ) ;
#297 = FACE_OUTER_BOUND ( 'NONE', #46, .T. ) ;
#298 = EDGE_LOOP ( 'NONE', ( #48, #331, #43, #183 ) ) ;
#299 = FACE_OUTER_BOUND ( 'NONE', #188, .T. ) ;
#300 = DIRECTION ( 'NONE',  ( 1.000000000000000000, 0.000000000000000000, 0.000000000000000000 ) ) ;
#301 = PLANE ( 'NONE',  #45 ) ;
#302 = EDGE_LOOP ( 'NONE', ( #219, #398, #241, #293 ) ) ;
#303 = VECTOR ( 'NONE', #273, 1000.000000000000000 ) ;
#304 = CLOSED_SHELL ( 'NONE', ( #206, #14, #310, #238, #131, #394, #249, #15, #226, #329, #212, #189 ) ) ;
#305 = DIRECTION ( 'NONE',  ( 1.000000000000000000, 0.000000000000000000, 0.000000000000000000 ) ) ;
#306 = CARTESIAN_POINT ( 'NONE',  ( 69.82817869415809753, 0.000000000000000000, 40.00000000000000000 ) ) ;
#307 = PRODUCT ( 'HuaTai_\X2\9ed88ba4\X0\_sldprt', 'HuaTai_\X2\9ed88ba4\X0\_sldprt', '', ( #58 ) ) ;
#308 = PLANE ( 'NONE',  #139 ) ;
#309 = ORIENTED_EDGE ( 'NONE', *, *, #347, .T. ) ;
#310 = ADVANCED_FACE ( 'NONE', ( #158 ), #59, .F. ) ;
#311 = EDGE_CURVE ( 'NONE', #65, #262, #165, .T. ) ;
#312 = CARTESIAN_POINT ( 'NONE',  ( 44.82817869415809753, -25.00000000000000000, 0.000000000000000000 ) ) ;
#313 = ORIENTED_EDGE ( 'NONE', *, *, #176, .T. ) ;
#314 = DIRECTION ( 'NONE',  ( 1.000000000000000000, 3.469446951953615175E-16, 0.000000000000000000 ) ) ;
#315 = LINE ( 'NONE', #142, #198 ) ;
#316 = APPROVAL_ROLE ( '' ) ;
#317 = DIRECTION ( 'NONE',  ( -1.000000000000000000, 0.000000000000000000, 0.000000000000000000 ) ) ;
#318 = AXIS2_PLACEMENT_3D ( 'NONE', #62, #159, #300 ) ;
#319 = DIRECTION ( 'NONE',  ( 0.000000000000000000, 0.000000000000000000, 1.000000000000000000 ) ) ;
#320 = PERSON_AND_ORGANIZATION_ROLE ( 'creator' ) ;
#321 = VERTEX_POINT ( 'NONE', #417 ) ;
#322 = APPROVAL_STATUS ( 'not_yet_approved' ) ;
#323 = EDGE_CURVE ( 'NONE', #262, #218, #332, .T. ) ;
#324 = ORIENTED_EDGE ( 'NONE', *, *, #124, .F. ) ;
#325 = PERSON_AND_ORGANIZATION ( #180, #190 ) ;
#326 = VECTOR ( 'NONE', #317, 1000.000000000000000 ) ;
#327 = AXIS2_PLACEMENT_3D ( 'NONE', #5, #319, #204 ) ;
#328 = ORIENTED_EDGE ( 'NONE', *, *, #290, .T. ) ;
#329 = ADVANCED_FACE ( 'NONE', ( #53 ), #193, .F. ) ;
#330 = VERTEX_POINT ( 'NONE', #286 ) ;
#331 = ORIENTED_EDGE ( 'NONE', *, *, #157, .T. ) ;
#332 = LINE ( 'NONE', #17, #419 ) ;
#333 = EDGE_LOOP ( 'NONE', ( #223, #86, #362, #11 ) ) ;
#334 = AXIS2_PLACEMENT_3D ( 'NONE', #211, #32, #357 ) ;
#335 = DIRECTION ( 'NONE',  ( 0.000000000000000000, 0.000000000000000000, 1.000000000000000000 ) ) ;
#336 = CARTESIAN_POINT ( 'NONE',  ( -20.17182130584189892, -25.00000000000000000, 0.000000000000000000 ) ) ;
#337 = CC_DESIGN_PERSON_AND_ORGANIZATION_ASSIGNMENT ( #8, #287, ( #138 ) ) ;
#338 = DIRECTION ( 'NONE',  ( 0.000000000000000000, 0.000000000000000000, -1.000000000000000000 ) ) ;
#339 = CARTESIAN_POINT ( 'NONE',  ( 4.828178694158099304, -15.00000000000000000, 40.00000000000000000 ) ) ;
#340 = DIRECTION ( 'NONE',  ( 0.000000000000000000, 0.000000000000000000, 1.000000000000000000 ) ) ;
#341 = LINE ( 'NONE', #30, #118 ) ;
#342 = VECTOR ( 'NONE', #170, 1000.000000000000000 ) ;
#343 = VECTOR ( 'NONE', #338, 1000.000000000000000 ) ;
#344 = AXIS2_PLACEMENT_3D ( 'NONE', #336, #201, #230 ) ;
#345 = DIRECTION ( 'NONE',  ( 0.000000000000000000, 0.000000000000000000, -1.000000000000000000 ) ) ;
#346 = VERTEX_POINT ( 'NONE', #312 ) ;
#347 = EDGE_CURVE ( 'NONE', #218, #89, #240, .T. ) ;
#348 = CARTESIAN_POINT ( 'NONE',  ( 39.82817869415809753, -25.00000000000000000, 40.00000000000000000 ) ) ;
#349 = PLANE ( 'NONE',  #182 ) ;
#350 = DIRECTION ( 'NONE',  ( 0.000000000000000000, 0.000000000000000000, 1.000000000000000000 ) ) ;
#351 =( LENGTH_UNIT ( ) NAMED_UNIT ( * ) SI_UNIT ( .MILLI., .METRE. ) );
#352 = CARTESIAN_POINT ( 'NONE',  ( 14.82817869415809930, -15.00000000000000000, 0.000000000000000000 ) ) ;
#353 = DIRECTION ( 'NONE',  ( 1.000000000000000000, 0.000000000000000000, 0.000000000000000000 ) ) ;
#354 = COORDINATED_UNIVERSAL_TIME_OFFSET ( 8, 0, .AHEAD. ) ;
#355 = DIRECTION ( 'NONE',  ( 0.000000000000000000, 0.000000000000000000, -1.000000000000000000 ) ) ;
#356 = DIRECTION ( 'NONE',  ( -1.000000000000000000, 0.000000000000000000, 0.000000000000000000 ) ) ;
#357 = DIRECTION ( 'NONE',  ( 1.000000000000000000, 0.000000000000000000, 0.000000000000000000 ) ) ;
#358 = PERSON_AND_ORGANIZATION ( #180, #190 ) ;
#359 = CIRCLE ( 'NONE', #242, 4.999999999999997335 ) ;
#360 = VERTEX_POINT ( 'NONE', #64 ) ;
#361 = EDGE_CURVE ( 'NONE', #262, #257, #66, .T. ) ;
#362 = ORIENTED_EDGE ( 'NONE', *, *, #144, .T. ) ;
#363 = PERSON_AND_ORGANIZATION ( #180, #190 ) ;
#364 = ORIENTED_EDGE ( 'NONE', *, *, #63, .F. ) ;
#365 = VECTOR ( 'NONE', #355, 1000.000000000000000 ) ;
#366 = CIRCLE ( 'NONE', #447, 5.000000000000000888 ) ;
#367 = ORIENTED_EDGE ( 'NONE', *, *, #456, .F. ) ;
#368 = VERTEX_POINT ( 'NONE', #173 ) ;
#369 = CARTESIAN_POINT ( 'NONE',  ( -50.17182130584190247, -40.00000000000000000, 0.000000000000000000 ) ) ;
#370 = ORIENTED_EDGE ( 'NONE', *, *, #427, .F. ) ;
#371 = DIRECTION ( 'NONE',  ( 0.000000000000000000, -1.000000000000000000, 0.000000000000000000 ) ) ;
#372 = LINE ( 'NONE', #22, #140 ) ;
#373 = EDGE_CURVE ( 'NONE', #84, #387, #72, .T. ) ;
#374 = CARTESIAN_POINT ( 'NONE',  ( 34.82817869415809753, -25.00000000000000000, 0.000000000000000000 ) ) ;
#375 = FACE_OUTER_BOUND ( 'NONE', #7, .T. ) ;
#376 = CARTESIAN_POINT ( 'NONE',  ( 0.000000000000000000, 0.000000000000000000, 40.00000000000000000 ) ) ;
#377 = DIRECTION ( 'NONE',  ( 1.000000000000000000, 0.000000000000000000, 0.000000000000000000 ) ) ;
#378 = EDGE_CURVE ( 'NONE', #387, #321, #38, .T. ) ;
#379 = FACE_BOUND ( 'NONE', #258, .T. ) ;
#380 = CARTESIAN_POINT ( 'NONE',  ( -20.17182130584189892, -25.00000000000000000, 40.00000000000000000 ) ) ;
#381 = CARTESIAN_POINT ( 'NONE',  ( -20.17182130584189892, -25.00000000000000000, 40.00000000000000000 ) ) ;
#382 = CARTESIAN_POINT ( 'NONE',  ( 69.82817869415809753, 0.000000000000000000, 40.00000000000000000 ) ) ;
#383 = ORIENTED_EDGE ( 'NONE', *, *, #439, .T. ) ;
#384 = APPLICATION_PROTOCOL_DEFINITION ( 'international standard', 'config_control_design', 1994, #296 ) ;
#385 = CC_DESIGN_PERSON_AND_ORGANIZATION_ASSIGNMENT ( #99, #239, ( #307 ) ) ;
#386 = CARTESIAN_POINT ( 'NONE',  ( -25.17182130584190247, -25.00000000000000000, 40.00000000000000000 ) ) ;
#387 = VERTEX_POINT ( 'NONE', #422 ) ;
#388 = CIRCLE ( 'NONE', #260, 4.999999999999997335 ) ;
#389 = CARTESIAN_POINT ( 'NONE',  ( 9.828178694158099304, -15.00000000000000000, 40.00000000000000000 ) ) ;
#390 = PERSON_AND_ORGANIZATION ( #180, #190 ) ;
#391 = DIRECTION ( 'NONE',  ( 0.000000000000000000, 0.000000000000000000, -1.000000000000000000 ) ) ;
#392 = DESIGN_CONTEXT ( 'detailed design', #296, 'design' ) ;
#393 = DATE_AND_TIME ( #3, #267 ) ;
#394 = ADVANCED_FACE ( 'NONE', ( #244 ), #453, .F. ) ;
#395 = VERTEX_POINT ( 'NONE', #135 ) ;
#396 = DATE_AND_TIME ( #39, #125 ) ;
#397 = AXIS2_PLACEMENT_3D ( 'NONE', #426, #391, #1 ) ;
#398 = ORIENTED_EDGE ( 'NONE', *, *, #47, .T. ) ;
#399 = ORIENTED_EDGE ( 'NONE', *, *, #408, .T. ) ;
#400 = ORIENTED_EDGE ( 'NONE', *, *, #110, .T. ) ;
#401 = CIRCLE ( 'NONE', #174, 4.999999999999997335 ) ;
#402 = VECTOR ( 'NONE', #129, 1000.000000000000000 ) ;
#403 = CIRCLE ( 'NONE', #318, 5.000000000000000888 ) ;
#404 = ORIENTED_EDGE ( 'NONE', *, *, #440, .F. ) ;
#405 = VERTEX_POINT ( 'NONE', #37 ) ;
#406 = FACE_OUTER_BOUND ( 'NONE', #9, .T. ) ;
#407 = ORIENTED_EDGE ( 'NONE', *, *, #294, .T. ) ;
#408 = EDGE_CURVE ( 'NONE', #346, #216, #401, .T. ) ;
#409 = SECURITY_CLASSIFICATION ( '', '', #459 ) ;
#410 = DIRECTION ( 'NONE',  ( 0.000000000000000000, 0.000000000000000000, 1.000000000000000000 ) ) ;
#411 = DIRECTION ( 'NONE',  ( 0.000000000000000000, 0.000000000000000000, -1.000000000000000000 ) ) ;
#412 = FACE_BOUND ( 'NONE', #225, .T. ) ;
#413 = EDGE_CURVE ( 'NONE', #368, #395, #208, .T. ) ;
#414 = CARTESIAN_POINT ( 'NONE',  ( 0.000000000000000000, 0.000000000000000000, 0.000000000000000000 ) ) ;
#415 = CARTESIAN_POINT ( 'NONE',  ( 44.82817869415809753, -25.00000000000000000, 40.00000000000000000 ) ) ;
#416 = ORIENTED_EDGE ( 'NONE', *, *, #323, .F. ) ;
#417 = CARTESIAN_POINT ( 'NONE',  ( -15.17182130584189892, -25.00000000000000000, 0.000000000000000000 ) ) ;
#418 = DIRECTION ( 'NONE',  ( 0.000000000000000000, 0.000000000000000000, -1.000000000000000000 ) ) ;
#419 = VECTOR ( 'NONE', #122, 1000.000000000000000 ) ;
#420 = LINE ( 'NONE', #4, #95 ) ;
#421 = CARTESIAN_POINT ( 'NONE',  ( 39.82817869415809753, -25.00000000000000000, 0.000000000000000000 ) ) ;
#422 = CARTESIAN_POINT ( 'NONE',  ( -25.17182130584190247, -25.00000000000000000, 0.000000000000000000 ) ) ;
#423 = LOCAL_TIME ( 8, 45, 40.00000000000000000, #289 ) ;
#424 = APPROVAL_DATE_TIME ( #393, #85 ) ;
#425 = CIRCLE ( 'NONE', #283, 5.000000000000000888 ) ;
#426 = CARTESIAN_POINT ( 'NONE',  ( -20.17182130584189892, -25.00000000000000000, 40.00000000000000000 ) ) ;
#427 = EDGE_CURVE ( 'NONE', #330, #65, #420, .T. ) ;
#428 = CARTESIAN_POINT ( 'NONE',  ( -50.17182130584190247, 0.000000000000000000, 40.00000000000000000 ) ) ;
#429 = ORIENTED_EDGE ( 'NONE', *, *, #176, .F. ) ;
#430 = ORIENTED_EDGE ( 'NONE', *, *, #378, .T. ) ;
#431 = DATE_AND_TIME ( #35, #68 ) ;
#432 = VERTEX_POINT ( 'NONE', #136 ) ;
#433 = PRODUCT_RELATED_PRODUCT_CATEGORY ( 'detail', '', ( #307 ) ) ;
#434 = VERTEX_POINT ( 'NONE', #352 ) ;
#435 = ORIENTED_EDGE ( 'NONE', *, *, #164, .F. ) ;
#436 = APPROVAL_PERSON_ORGANIZATION ( #33, #256, #105 ) ;
#437 = CIRCLE ( 'NONE', #83, 5.000000000000000888 ) ;
#438 = ORIENTED_EDGE ( 'NONE', *, *, #408, .F. ) ;
#439 = EDGE_CURVE ( 'NONE', #292, #84, #154, .T. ) ;
#440 = EDGE_CURVE ( 'NONE', #444, #405, #359, .T. ) ;
#441 = CARTESIAN_POINT ( 'NONE',  ( 9.828178694158099304, -15.00000000000000000, 40.00000000000000000 ) ) ;
#442 = ORIENTED_EDGE ( 'NONE', *, *, #290, .F. ) ;
#443 = DIRECTION ( 'NONE',  ( -1.000000000000000000, 0.000000000000000000, 0.000000000000000000 ) ) ;
#444 = VERTEX_POINT ( 'NONE', #202 ) ;
#445 = APPROVAL_PERSON_ORGANIZATION ( #147, #85, #316 ) ;
#446 = DIRECTION ( 'NONE',  ( 0.000000000000000000, 0.000000000000000000, -1.000000000000000000 ) ) ;
#447 = AXIS2_PLACEMENT_3D ( 'NONE', #441, #120, #21 ) ;
#448 = AXIS2_PLACEMENT_3D ( 'NONE', #133, #123, #228 ) ;
#449 = APPROVAL ( #102, '未指定' ) ;
#450 = CARTESIAN_POINT ( 'NONE',  ( 39.82817869415809753, -25.00000000000000000, 40.00000000000000000 ) ) ;
#451 = CARTESIAN_POINT ( 'NONE',  ( 9.828178694158099304, -15.00000000000000000, 0.000000000000000000 ) ) ;
#452 = PLANE ( 'NONE',  #448 ) ;
#453 = PLANE ( 'NONE',  #44 ) ;
#454 = CC_DESIGN_APPROVAL ( #256, ( #138 ) ) ;
#455 = APPLICATION_PROTOCOL_DEFINITION ( 'international standard', 'config_control_design', 1994, #115 ) ;
#456 = EDGE_CURVE ( 'NONE', #257, #89, #70, .T. ) ;
#457 = DIRECTION ( 'NONE',  ( -1.000000000000000000, 0.000000000000000000, 0.000000000000000000 ) ) ;
#458 = FACE_OUTER_BOUND ( 'NONE', #114, .T. ) ;
#459 = SECURITY_CLASSIFICATION_LEVEL ( 'unclassified' ) ;
ENDSEC;
END-ISO-10303-21;
