ISO-10303-21;
HEADER;
FILE_DESCRIPTION (( 'STEP AP203' ),
    '1' );
FILE_NAME ('SiGan_默认_sldprt.STEP',
    '2026-04-09T00:45:41',
    ( '' ),
    ( '' ),
    'SwSTEP 2.0',
    'SolidWorks 2022',
    '' );
FILE_SCHEMA (( 'CONFIG_CONTROL_DESIGN' ));
ENDSEC;

DATA;
#1 =( NAMED_UNIT ( * ) PLANE_ANGLE_UNIT ( ) SI_UNIT ( $, .RADIAN. ) );
#2 = CC_DESIGN_PERSON_AND_ORGANIZATION_ASSIGNMENT ( #139, #42, ( #136 ) ) ;
#3 = EDGE_CURVE ( 'NONE', #56, #88, #82, .T. ) ;
#4 = PERSON_AND_ORGANIZATION ( #94, #104 ) ;
#5 = PERSON_AND_ORGANIZATION ( #94, #104 ) ;
#6 = PERSON_AND_ORGANIZATION_ROLE ( 'design_supplier' ) ;
#7 = ORIENTED_EDGE ( 'NONE', *, *, #119, .T. ) ;
#8 = AXIS2_PLACEMENT_3D ( 'NONE', #27, #127, #172 ) ;
#9 = ORIENTED_EDGE ( 'NONE', *, *, #100, .F. ) ;
#10 = APPROVAL ( #85, '未指定' ) ;
#11 = CARTESIAN_POINT ( 'NONE',  ( -5.000000000000000000, 0.000000000000000000, 620.0000000000000000 ) ) ;
#12 = DIRECTION ( 'NONE',  ( 1.000000000000000000, 0.000000000000000000, 0.000000000000000000 ) ) ;
#13 = CALENDAR_DATE ( 2026, 9, 4 ) ;
#14 = DIRECTION ( 'NONE',  ( 0.000000000000000000, 0.000000000000000000, 1.000000000000000000 ) ) ;
#15 = DIRECTION ( 'NONE',  ( 1.000000000000000000, 0.000000000000000000, 0.000000000000000000 ) ) ;
#16 = EDGE_CURVE ( 'NONE', #54, #88, #78, .T. ) ;
#17 = CALENDAR_DATE ( 2026, 9, 4 ) ;
#18 = AXIS2_PLACEMENT_3D ( 'NONE', #162, #38, #15 ) ;
#19 = CC_DESIGN_SECURITY_CLASSIFICATION ( #26, ( #136 ) ) ;
#20 = DATE_TIME_ROLE ( 'classification_date' ) ;
#21 = EDGE_LOOP ( 'NONE', ( #68, #9 ) ) ;
#22 = APPROVAL_ROLE ( '' ) ;
#23 = ORIENTED_EDGE ( 'NONE', *, *, #66, .F. ) ;
#24 = EDGE_LOOP ( 'NONE', ( #7, #44 ) ) ;
#25 =( GEOMETRIC_REPRESENTATION_CONTEXT ( 3 ) GLOBAL_UNCERTAINTY_ASSIGNED_CONTEXT ( ( #149 ) ) GLOBAL_UNIT_ASSIGNED_CONTEXT ( ( #158, #1, #116 ) ) REPRESENTATION_CONTEXT ( 'NONE', 'WORKASPACE' ) );
#26 = SECURITY_CLASSIFICATION ( '', '', #101 ) ;
#27 = CARTESIAN_POINT ( 'NONE',  ( 0.000000000000000000, 0.000000000000000000, 0.000000000000000000 ) ) ;
#28 = DIRECTION ( 'NONE',  ( -1.000000000000000000, 0.000000000000000000, 0.000000000000000000 ) ) ;
#29 = DIRECTION ( 'NONE',  ( 0.000000000000000000, 0.000000000000000000, 1.000000000000000000 ) ) ;
#30 = APPROVAL_ROLE ( '' ) ;
#31 = APPLICATION_PROTOCOL_DEFINITION ( 'international standard', 'config_control_design', 1994, #163 ) ;
#32 = ADVANCED_FACE ( 'NONE', ( #35 ), #130, .F. ) ;
#33 = CARTESIAN_POINT ( 'NONE',  ( 0.000000000000000000, 0.000000000000000000, 0.000000000000000000 ) ) ;
#34 = PRODUCT_DEFINITION ( '未知', '', #136, #143 ) ;
#35 = FACE_OUTER_BOUND ( 'NONE', #21, .T. ) ;
#36 = PERSON_AND_ORGANIZATION ( #94, #104 ) ;
#37 = CARTESIAN_POINT ( 'NONE',  ( 0.000000000000000000, 0.000000000000000000, 620.0000000000000000 ) ) ;
#38 = DIRECTION ( 'NONE',  ( 0.000000000000000000, 0.000000000000000000, 1.000000000000000000 ) ) ;
#39 = CYLINDRICAL_SURFACE ( 'NONE', #63, 5.000000000000000000 ) ;
#40 = PERSON_AND_ORGANIZATION_ROLE ( 'classification_officer' ) ;
#41 = PRODUCT ( 'SiGan_\X2\9ed88ba4\X0\_sldprt', 'SiGan_\X2\9ed88ba4\X0\_sldprt', '', ( #76 ) ) ;
#42 = PERSON_AND_ORGANIZATION_ROLE ( 'creator' ) ;
#43 = ADVANCED_FACE ( 'NONE', ( #171 ), #146, .T. ) ;
#44 = ORIENTED_EDGE ( 'NONE', *, *, #66, .T. ) ;
#45 = CARTESIAN_POINT ( 'NONE',  ( 5.000000000000000000, 6.123233995736766282E-16, 620.0000000000000000 ) ) ;
#46 = PERSON_AND_ORGANIZATION_ROLE ( 'design_owner' ) ;
#47 = AXIS2_PLACEMENT_3D ( 'NONE', #65, #99, #62 ) ;
#48 = ORIENTED_EDGE ( 'NONE', *, *, #3, .F. ) ;
#49 = DATE_AND_TIME ( #17, #80 ) ;
#50 = CARTESIAN_POINT ( 'NONE',  ( 5.000000000000000000, 6.123233995736766282E-16, 0.000000000000000000 ) ) ;
#51 = APPROVAL_ROLE ( '' ) ;
#52 = APPROVAL_PERSON_ORGANIZATION ( #67, #152, #22 ) ;
#53 = APPROVAL_DATE_TIME ( #137, #152 ) ;
#54 = VERTEX_POINT ( 'NONE', #59 ) ;
#55 = AXIS2_PLACEMENT_3D ( 'NONE', #159, #174, #28 ) ;
#56 = VERTEX_POINT ( 'NONE', #45 ) ;
#57 = CC_DESIGN_PERSON_AND_ORGANIZATION_ASSIGNMENT ( #60, #109, ( #34 ) ) ;
#58 = CARTESIAN_POINT ( 'NONE',  ( 5.000000000000000000, 6.123233995736766282E-16, 620.0000000000000000 ) ) ;
#59 = CARTESIAN_POINT ( 'NONE',  ( -5.000000000000000000, 0.000000000000000000, 0.000000000000000000 ) ) ;
#60 = PERSON_AND_ORGANIZATION ( #94, #104 ) ;
#61 = DIRECTION ( 'NONE',  ( 1.000000000000000000, 0.000000000000000000, 0.000000000000000000 ) ) ;
#62 = DIRECTION ( 'NONE',  ( 1.000000000000000000, 0.000000000000000000, 0.000000000000000000 ) ) ;
#63 = AXIS2_PLACEMENT_3D ( 'NONE', #37, #132, #112 ) ;
#64 = APPROVAL_PERSON_ORGANIZATION ( #36, #10, #51 ) ;
#65 = CARTESIAN_POINT ( 'NONE',  ( 0.000000000000000000, 0.000000000000000000, 620.0000000000000000 ) ) ;
#66 = EDGE_CURVE ( 'NONE', #56, #69, #133, .T. ) ;
#67 = PERSON_AND_ORGANIZATION ( #94, #104 ) ;
#68 = ORIENTED_EDGE ( 'NONE', *, *, #16, .F. ) ;
#69 = VERTEX_POINT ( 'NONE', #110 ) ;
#70 = ORIENTED_EDGE ( 'NONE', *, *, #16, .T. ) ;
#71 = AXIS2_PLACEMENT_3D ( 'NONE', #75, #14, #61 ) ;
#72 = LINE ( 'NONE', #11, #141 ) ;
#73 = ADVANCED_FACE ( 'NONE', ( #84 ), #95, .T. ) ;
#74 = DIRECTION ( 'NONE',  ( 0.000000000000000000, 0.000000000000000000, 1.000000000000000000 ) ) ;
#75 = CARTESIAN_POINT ( 'NONE',  ( 0.000000000000000000, 0.000000000000000000, 620.0000000000000000 ) ) ;
#76 = MECHANICAL_CONTEXT ( 'NONE', #163, 'mechanical' ) ;
#77 = AXIS2_PLACEMENT_3D ( 'NONE', #33, #74, #96 ) ;
#78 = CIRCLE ( 'NONE', #156, 5.000000000000000000 ) ;
#79 = APPLICATION_CONTEXT ( 'configuration controlled 3d designs of mechanical parts and assemblies' ) ;
#80 = LOCAL_TIME ( 8, 45, 41.00000000000000000, #173 ) ;
#81 = LOCAL_TIME ( 8, 45, 41.00000000000000000, #87 ) ;
#82 = LINE ( 'NONE', #58, #166 ) ;
#83 = PERSON_AND_ORGANIZATION ( #94, #104 ) ;
#84 = FACE_OUTER_BOUND ( 'NONE', #154, .T. ) ;
#85 = APPROVAL_STATUS ( 'not_yet_approved' ) ;
#86 = APPROVAL ( #145, '未指定' ) ;
#87 = COORDINATED_UNIVERSAL_TIME_OFFSET ( 8, 0, .AHEAD. ) ;
#88 = VERTEX_POINT ( 'NONE', #50 ) ;
#89 = CALENDAR_DATE ( 2026, 9, 4 ) ;
#90 = CIRCLE ( 'NONE', #77, 5.000000000000000000 ) ;
#91 = EDGE_CURVE ( 'NONE', #69, #54, #72, .T. ) ;
#92 = PRODUCT_RELATED_PRODUCT_CATEGORY ( 'detail', '', ( #41 ) ) ;
#93 = APPROVAL_PERSON_ORGANIZATION ( #83, #86, #30 ) ;
#94 = PERSON ( '未指定', '未指定', '未指定', ('未指定'), ('未指定'), ('未指定') ) ;
#95 = CYLINDRICAL_SURFACE ( 'NONE', #55, 5.000000000000000000 ) ;
#96 = DIRECTION ( 'NONE',  ( 1.000000000000000000, 0.000000000000000000, 0.000000000000000000 ) ) ;
#97 = CARTESIAN_POINT ( 'NONE',  ( 0.000000000000000000, 0.000000000000000000, 620.0000000000000000 ) ) ;
#98 = COORDINATED_UNIVERSAL_TIME_OFFSET ( 8, 0, .AHEAD. ) ;
#99 = DIRECTION ( 'NONE',  ( 0.000000000000000000, 0.000000000000000000, 1.000000000000000000 ) ) ;
#100 = EDGE_CURVE ( 'NONE', #88, #54, #90, .T. ) ;
#101 = SECURITY_CLASSIFICATION_LEVEL ( 'unclassified' ) ;
#102 = COORDINATED_UNIVERSAL_TIME_OFFSET ( 8, 0, .AHEAD. ) ;
#103 = ORIENTED_EDGE ( 'NONE', *, *, #119, .F. ) ;
#104 = ORGANIZATION ( '未指定', '未指定', '' ) ;
#105 = CC_DESIGN_PERSON_AND_ORGANIZATION_ASSIGNMENT ( #4, #40, ( #26 ) ) ;
#106 = ORIENTED_EDGE ( 'NONE', *, *, #91, .T. ) ;
#107 = DIRECTION ( 'NONE',  ( 0.000000000000000000, 0.000000000000000000, -1.000000000000000000 ) ) ;
#108 = DIRECTION ( 'NONE',  ( 1.000000000000000000, 0.000000000000000000, 0.000000000000000000 ) ) ;
#109 = PERSON_AND_ORGANIZATION_ROLE ( 'creator' ) ;
#110 = CARTESIAN_POINT ( 'NONE',  ( -5.000000000000000000, 0.000000000000000000, 620.0000000000000000 ) ) ;
#111 = COORDINATED_UNIVERSAL_TIME_OFFSET ( 8, 0, .AHEAD. ) ;
#112 = DIRECTION ( 'NONE',  ( -1.000000000000000000, 0.000000000000000000, 0.000000000000000000 ) ) ;
#113 = LOCAL_TIME ( 8, 45, 41.00000000000000000, #98 ) ;
#114 = CC_DESIGN_APPROVAL ( #152, ( #26 ) ) ;
#115 = CLOSED_SHELL ( 'NONE', ( #125, #73, #43, #32 ) ) ;
#116 =( NAMED_UNIT ( * ) SI_UNIT ( $, .STERADIAN. ) SOLID_ANGLE_UNIT ( ) );
#117 = DATE_AND_TIME ( #168, #153 ) ;
#118 = ADVANCED_BREP_SHAPE_REPRESENTATION ( 'SiGan_\X2\9ed88ba4\X0\_sldprt', ( #150, #18 ), #25 ) ;
#119 = EDGE_CURVE ( 'NONE', #69, #56, #122, .T. ) ;
#120 = APPROVAL_STATUS ( 'not_yet_approved' ) ;
#121 = EDGE_LOOP ( 'NONE', ( #23, #123, #138, #167 ) ) ;
#122 = CIRCLE ( 'NONE', #47, 5.000000000000000000 ) ;
#123 = ORIENTED_EDGE ( 'NONE', *, *, #3, .T. ) ;
#124 = CC_DESIGN_APPROVAL ( #86, ( #34 ) ) ;
#125 = ADVANCED_FACE ( 'NONE', ( #164 ), #39, .T. ) ;
#126 = LOCAL_TIME ( 8, 45, 41.00000000000000000, #111 ) ;
#127 = DIRECTION ( 'NONE',  ( 0.000000000000000000, 0.000000000000000000, 1.000000000000000000 ) ) ;
#128 = CC_DESIGN_DATE_AND_TIME_ASSIGNMENT ( #49, #160, ( #34 ) ) ;
#129 = DIRECTION ( 'NONE',  ( 0.000000000000000000, 0.000000000000000000, 1.000000000000000000 ) ) ;
#130 = PLANE ( 'NONE',  #8 ) ;
#131 = DATE_AND_TIME ( #13, #113 ) ;
#132 = DIRECTION ( 'NONE',  ( 0.000000000000000000, 0.000000000000000000, -1.000000000000000000 ) ) ;
#133 = CIRCLE ( 'NONE', #71, 5.000000000000000000 ) ;
#134 = PERSON_AND_ORGANIZATION ( #94, #104 ) ;
#135 = APPROVAL_DATE_TIME ( #147, #10 ) ;
#136 = PRODUCT_DEFINITION_FORMATION_WITH_SPECIFIED_SOURCE ( '任何', '', #41, .NOT_KNOWN. ) ;
#137 = DATE_AND_TIME ( #89, #81 ) ;
#138 = ORIENTED_EDGE ( 'NONE', *, *, #100, .T. ) ;
#139 = PERSON_AND_ORGANIZATION ( #94, #104 ) ;
#140 = PRODUCT_DEFINITION_SHAPE ( 'NONE', 'NONE',  #34 ) ;
#141 = VECTOR ( 'NONE', #157, 1000.000000000000000 ) ;
#142 = CC_DESIGN_PERSON_AND_ORGANIZATION_ASSIGNMENT ( #5, #6, ( #136 ) ) ;
#143 = DESIGN_CONTEXT ( 'detailed design', #79, 'design' ) ;
#144 = CARTESIAN_POINT ( 'NONE',  ( 0.000000000000000000, 0.000000000000000000, 0.000000000000000000 ) ) ;
#145 = APPROVAL_STATUS ( 'not_yet_approved' ) ;
#146 = PLANE ( 'NONE',  #151 ) ;
#147 = DATE_AND_TIME ( #175, #126 ) ;
#148 = APPLICATION_PROTOCOL_DEFINITION ( 'international standard', 'config_control_design', 1994, #79 ) ;
#149 = UNCERTAINTY_MEASURE_WITH_UNIT (LENGTH_MEASURE( 1.000000000000000082E-05 ), #158, 'distance_accuracy_value', 'NONE');
#150 = MANIFOLD_SOLID_BREP ( '输入1', #115 ) ;
#151 = AXIS2_PLACEMENT_3D ( 'NONE', #97, #129, #12 ) ;
#152 = APPROVAL ( #120, '未指定' ) ;
#153 = LOCAL_TIME ( 8, 45, 41.00000000000000000, #102 ) ;
#154 = EDGE_LOOP ( 'NONE', ( #48, #103, #106, #70 ) ) ;
#155 = CC_DESIGN_DATE_AND_TIME_ASSIGNMENT ( #117, #20, ( #26 ) ) ;
#156 = AXIS2_PLACEMENT_3D ( 'NONE', #144, #29, #108 ) ;
#157 = DIRECTION ( 'NONE',  ( 0.000000000000000000, 0.000000000000000000, -1.000000000000000000 ) ) ;
#158 =( LENGTH_UNIT ( ) NAMED_UNIT ( * ) SI_UNIT ( .MILLI., .METRE. ) );
#159 = CARTESIAN_POINT ( 'NONE',  ( 0.000000000000000000, 0.000000000000000000, 620.0000000000000000 ) ) ;
#160 = DATE_TIME_ROLE ( 'creation_date' ) ;
#161 = APPROVAL_DATE_TIME ( #131, #86 ) ;
#162 = CARTESIAN_POINT ( 'NONE',  ( 0.000000000000000000, 0.000000000000000000, 0.000000000000000000 ) ) ;
#163 = APPLICATION_CONTEXT ( 'configuration controlled 3d designs of mechanical parts and assemblies' ) ;
#164 = FACE_OUTER_BOUND ( 'NONE', #121, .T. ) ;
#165 = CC_DESIGN_PERSON_AND_ORGANIZATION_ASSIGNMENT ( #134, #46, ( #41 ) ) ;
#166 = VECTOR ( 'NONE', #107, 1000.000000000000000 ) ;
#167 = ORIENTED_EDGE ( 'NONE', *, *, #91, .F. ) ;
#168 = CALENDAR_DATE ( 2026, 9, 4 ) ;
#169 = CC_DESIGN_APPROVAL ( #10, ( #136 ) ) ;
#170 = SHAPE_DEFINITION_REPRESENTATION ( #140, #118 ) ;
#171 = FACE_OUTER_BOUND ( 'NONE', #24, .T. ) ;
#172 = DIRECTION ( 'NONE',  ( 1.000000000000000000, 0.000000000000000000, 0.000000000000000000 ) ) ;
#173 = COORDINATED_UNIVERSAL_TIME_OFFSET ( 8, 0, .AHEAD. ) ;
#174 = DIRECTION ( 'NONE',  ( 0.000000000000000000, 0.000000000000000000, -1.000000000000000000 ) ) ;
#175 = CALENDAR_DATE ( 2026, 9, 4 ) ;
ENDSEC;
END-ISO-10303-21;
