ISO-10303-21;
HEADER;
FILE_DESCRIPTION (( 'STEP AP203' ),
    '1' );
FILE_NAME ('ZhiJia_默认_sldprt.STEP',
    '2026-04-09T00:45:42',
    ( '' ),
    ( '' ),
    'SwSTEP 2.0',
    'SolidWorks 2022',
    '' );
FILE_SCHEMA (( 'CONFIG_CONTROL_DESIGN' ));
ENDSEC;

DATA;
#1 = UNCERTAINTY_MEASURE_WITH_UNIT (LENGTH_MEASURE( 1.000000000000000082E-05 ), #79, 'distance_accuracy_value', 'NONE');
#2 = AXIS2_PLACEMENT_3D ( 'NONE', #253, #53, #435 ) ;
#3 = EDGE_CURVE ( 'NONE', #232, #41, #373, .T. ) ;
#4 = LINE ( 'NONE', #39, #95 ) ;
#5 = APPLICATION_CONTEXT ( 'configuration controlled 3d designs of mechanical parts and assemblies' ) ;
#6 = CARTESIAN_POINT ( 'NONE',  ( -20.17182130584189892, -30.00000000000000000, 10.00000000000000000 ) ) ;
#7 = AXIS2_PLACEMENT_3D ( 'NONE', #249, #57, #54 ) ;
#8 = APPROVAL_STATUS ( 'not_yet_approved' ) ;
#9 = ORIENTED_EDGE ( 'NONE', *, *, #184, .F. ) ;
#10 = APPROVAL_ROLE ( '' ) ;
#11 = PLANE ( 'NONE',  #347 ) ;
#12 =( GEOMETRIC_REPRESENTATION_CONTEXT ( 3 ) GLOBAL_UNCERTAINTY_ASSIGNED_CONTEXT ( ( #1 ) ) GLOBAL_UNIT_ASSIGNED_CONTEXT ( ( #79, #364, #292 ) ) REPRESENTATION_CONTEXT ( 'NONE', 'WORKASPACE' ) );
#13 = ADVANCED_FACE ( 'NONE', ( #136 ), #457, .F. ) ;
#14 = LINE ( 'NONE', #328, #42 ) ;
#15 = FACE_OUTER_BOUND ( 'NONE', #309, .T. ) ;
#16 = EDGE_LOOP ( 'NONE', ( #125, #316 ) ) ;
#17 = CARTESIAN_POINT ( 'NONE',  ( 69.82817869415809753, 0.000000000000000000, 10.00000000000000000 ) ) ;
#18 = DIRECTION ( 'NONE',  ( 0.000000000000000000, 0.000000000000000000, 1.000000000000000000 ) ) ;
#19 = CARTESIAN_POINT ( 'NONE',  ( -50.17182130584190247, -50.00000000000000000, 0.000000000000000000 ) ) ;
#20 = CC_DESIGN_PERSON_AND_ORGANIZATION_ASSIGNMENT ( #175, #108, ( #212 ) ) ;
#21 = APPLICATION_PROTOCOL_DEFINITION ( 'international standard', 'config_control_design', 1994, #51 ) ;
#22 = AXIS2_PLACEMENT_3D ( 'NONE', #407, #336, #115 ) ;
#23 = ORIENTED_EDGE ( 'NONE', *, *, #119, .F. ) ;
#24 = LOCAL_TIME ( 8, 45, 42.00000000000000000, #45 ) ;
#25 = CARTESIAN_POINT ( 'NONE',  ( -20.17182130584189892, -30.00000000000000000, 0.000000000000000000 ) ) ;
#26 = DIRECTION ( 'NONE',  ( 0.000000000000000000, 0.000000000000000000, 1.000000000000000000 ) ) ;
#27 = DIRECTION ( 'NONE',  ( 0.000000000000000000, 0.000000000000000000, 1.000000000000000000 ) ) ;
#28 = CYLINDRICAL_SURFACE ( 'NONE', #129, 5.000000000000000888 ) ;
#29 = ORIENTED_EDGE ( 'NONE', *, *, #274, .T. ) ;
#30 = DIRECTION ( 'NONE',  ( 1.000000000000000000, 0.000000000000000000, 0.000000000000000000 ) ) ;
#31 = CARTESIAN_POINT ( 'NONE',  ( -20.17182130584189892, -30.00000000000000000, 10.00000000000000000 ) ) ;
#32 = ORIENTED_EDGE ( 'NONE', *, *, #380, .T. ) ;
#33 = CIRCLE ( 'NONE', #412, 4.999999999999997335 ) ;
#34 = EDGE_LOOP ( 'NONE', ( #203, #384 ) ) ;
#35 = APPROVAL ( #430, '未指定' ) ;
#36 = EDGE_CURVE ( 'NONE', #170, #431, #135, .T. ) ;
#37 = VERTEX_POINT ( 'NONE', #296 ) ;
#38 = ADVANCED_BREP_SHAPE_REPRESENTATION ( 'ZhiJia_\X2\9ed88ba4\X0\_sldprt', ( #48, #254 ), #12 ) ;
#39 = CARTESIAN_POINT ( 'NONE',  ( -50.17182130584190247, -50.00000000000000000, 10.00000000000000000 ) ) ;
#40 = PERSON_AND_ORGANIZATION_ROLE ( 'design_owner' ) ;
#41 = VERTEX_POINT ( 'NONE', #378 ) ;
#42 = VECTOR ( 'NONE', #405, 1000.000000000000000 ) ;
#43 = APPROVAL_STATUS ( 'not_yet_approved' ) ;
#44 = COORDINATED_UNIVERSAL_TIME_OFFSET ( 8, 0, .AHEAD. ) ;
#45 = COORDINATED_UNIVERSAL_TIME_OFFSET ( 8, 0, .AHEAD. ) ;
#46 = PERSON_AND_ORGANIZATION_ROLE ( 'classification_officer' ) ;
#47 = EDGE_CURVE ( 'NONE', #343, #365, #97, .T. ) ;
#48 = MANIFOLD_SOLID_BREP ( '输入1', #225 ) ;
#49 = PRODUCT_DEFINITION ( '未知', '', #212, #340 ) ;
#50 = AXIS2_PLACEMENT_3D ( 'NONE', #89, #298, #443 ) ;
#51 = APPLICATION_CONTEXT ( 'configuration controlled 3d designs of mechanical parts and assemblies' ) ;
#52 = ORIENTED_EDGE ( 'NONE', *, *, #197, .F. ) ;
#53 = DIRECTION ( 'NONE',  ( 0.000000000000000000, 0.000000000000000000, -1.000000000000000000 ) ) ;
#54 = DIRECTION ( 'NONE',  ( 1.000000000000000000, 0.000000000000000000, 0.000000000000000000 ) ) ;
#55 = ORIENTED_EDGE ( 'NONE', *, *, #197, .T. ) ;
#56 = DIRECTION ( 'NONE',  ( 1.000000000000000000, 0.000000000000000000, 0.000000000000000000 ) ) ;
#57 = DIRECTION ( 'NONE',  ( 0.000000000000000000, 0.000000000000000000, 1.000000000000000000 ) ) ;
#58 = ORIENTED_EDGE ( 'NONE', *, *, #233, .T. ) ;
#59 = LINE ( 'NONE', #153, #205 ) ;
#60 = CIRCLE ( 'NONE', #357, 5.000000000000000888 ) ;
#61 = EDGE_LOOP ( 'NONE', ( #295, #374, #63, #300 ) ) ;
#62 = CARTESIAN_POINT ( 'NONE',  ( 39.82817869415809753, -30.00000000000000000, 0.000000000000000000 ) ) ;
#63 = ORIENTED_EDGE ( 'NONE', *, *, #333, .T. ) ;
#64 = ORIENTED_EDGE ( 'NONE', *, *, #437, .T. ) ;
#65 = EDGE_CURVE ( 'NONE', #173, #365, #14, .T. ) ;
#66 = ORIENTED_EDGE ( 'NONE', *, *, #216, .T. ) ;
#67 = EDGE_CURVE ( 'NONE', #231, #131, #244, .T. ) ;
#68 = PLANE ( 'NONE',  #158 ) ;
#69 = ORIENTED_EDGE ( 'NONE', *, *, #279, .F. ) ;
#70 = AXIS2_PLACEMENT_3D ( 'NONE', #276, #269, #426 ) ;
#71 = PRODUCT ( 'ZhiJia_\X2\9ed88ba4\X0\_sldprt', 'ZhiJia_\X2\9ed88ba4\X0\_sldprt', '', ( #352 ) ) ;
#72 = VECTOR ( 'NONE', #193, 1000.000000000000000 ) ;
#73 = APPROVAL_PERSON_ORGANIZATION ( #356, #35, #320 ) ;
#74 = EDGE_CURVE ( 'NONE', #131, #231, #190, .T. ) ;
#75 = PERSON_AND_ORGANIZATION ( #171, #191 ) ;
#76 = AXIS2_PLACEMENT_3D ( 'NONE', #81, #214, #218 ) ;
#77 = DATE_AND_TIME ( #433, #118 ) ;
#78 = ADVANCED_FACE ( 'NONE', ( #87, #15, #230, #381 ), #221, .T. ) ;
#79 =( LENGTH_UNIT ( ) NAMED_UNIT ( * ) SI_UNIT ( .MILLI., .METRE. ) );
#80 = LINE ( 'NONE', #17, #72 ) ;
#81 = CARTESIAN_POINT ( 'NONE',  ( -50.17182130584190247, 0.000000000000000000, 10.00000000000000000 ) ) ;
#82 = CARTESIAN_POINT ( 'NONE',  ( -15.17182130584189892, -30.00000000000000000, 10.00000000000000000 ) ) ;
#83 = CARTESIAN_POINT ( 'NONE',  ( -25.17182130584190247, -30.00000000000000000, 10.00000000000000000 ) ) ;
#84 = DIRECTION ( 'NONE',  ( 0.000000000000000000, 0.000000000000000000, -1.000000000000000000 ) ) ;
#85 = VECTOR ( 'NONE', #329, 1000.000000000000000 ) ;
#86 = CARTESIAN_POINT ( 'NONE',  ( 44.82817869415809753, -30.00000000000000000, 10.00000000000000000 ) ) ;
#87 = FACE_BOUND ( 'NONE', #34, .T. ) ;
#88 = FACE_OUTER_BOUND ( 'NONE', #289, .T. ) ;
#89 = CARTESIAN_POINT ( 'NONE',  ( 39.82817869415809753, -30.00000000000000000, 10.00000000000000000 ) ) ;
#90 = ORIENTED_EDGE ( 'NONE', *, *, #65, .F. ) ;
#91 = CARTESIAN_POINT ( 'NONE',  ( 14.82817869415809930, -20.00000000000000000, 10.00000000000000000 ) ) ;
#92 = FACE_OUTER_BOUND ( 'NONE', #159, .T. ) ;
#93 = ORIENTED_EDGE ( 'NONE', *, *, #67, .T. ) ;
#94 = AXIS2_PLACEMENT_3D ( 'NONE', #224, #439, #302 ) ;
#95 = VECTOR ( 'NONE', #273, 1000.000000000000000 ) ;
#96 = DIRECTION ( 'NONE',  ( 0.000000000000000000, 0.000000000000000000, -1.000000000000000000 ) ) ;
#97 = LINE ( 'NONE', #410, #284 ) ;
#98 = DIRECTION ( 'NONE',  ( 1.000000000000000000, 0.000000000000000000, 0.000000000000000000 ) ) ;
#99 = ORIENTED_EDGE ( 'NONE', *, *, #312, .F. ) ;
#100 = VERTEX_POINT ( 'NONE', #187 ) ;
#101 = APPROVAL_ROLE ( '' ) ;
#102 = ORIENTED_EDGE ( 'NONE', *, *, #184, .T. ) ;
#103 = DIRECTION ( 'NONE',  ( 1.000000000000000000, 2.775557561562890365E-16, 0.000000000000000000 ) ) ;
#104 = AXIS2_PLACEMENT_3D ( 'NONE', #327, #151, #375 ) ;
#105 = VERTEX_POINT ( 'NONE', #160 ) ;
#106 = EDGE_CURVE ( 'NONE', #37, #147, #370, .T. ) ;
#107 = EDGE_CURVE ( 'NONE', #100, #398, #60, .T. ) ;
#108 = PERSON_AND_ORGANIZATION_ROLE ( 'design_supplier' ) ;
#109 = DATE_AND_TIME ( #395, #24 ) ;
#110 = CC_DESIGN_PERSON_AND_ORGANIZATION_ASSIGNMENT ( #75, #210, ( #49 ) ) ;
#111 = CIRCLE ( 'NONE', #432, 5.000000000000000888 ) ;
#112 = ORIENTED_EDGE ( 'NONE', *, *, #154, .F. ) ;
#113 = DIRECTION ( 'NONE',  ( 0.000000000000000000, 0.000000000000000000, 1.000000000000000000 ) ) ;
#114 = DIRECTION ( 'NONE',  ( 0.000000000000000000, 0.000000000000000000, 1.000000000000000000 ) ) ;
#115 = DIRECTION ( 'NONE',  ( 1.000000000000000000, 0.000000000000000000, 0.000000000000000000 ) ) ;
#116 = PLANE ( 'NONE',  #76 ) ;
#117 = DIRECTION ( 'NONE',  ( 0.000000000000000000, 0.000000000000000000, -1.000000000000000000 ) ) ;
#118 = LOCAL_TIME ( 8, 45, 42.00000000000000000, #44 ) ;
#119 = EDGE_CURVE ( 'NONE', #186, #455, #211, .T. ) ;
#120 = DIRECTION ( 'NONE',  ( 1.000000000000000000, 0.000000000000000000, 0.000000000000000000 ) ) ;
#121 = DIRECTION ( 'NONE',  ( 0.000000000000000000, 0.000000000000000000, -1.000000000000000000 ) ) ;
#122 = VERTEX_POINT ( 'NONE', #148 ) ;
#123 = LINE ( 'NONE', #227, #363 ) ;
#124 = DIRECTION ( 'NONE',  ( 2.775557561562890365E-16, -1.000000000000000000, 0.000000000000000000 ) ) ;
#125 = ORIENTED_EDGE ( 'NONE', *, *, #128, .F. ) ;
#126 = CARTESIAN_POINT ( 'NONE',  ( 4.828178694158099304, -20.00000000000000000, 10.00000000000000000 ) ) ;
#127 = CARTESIAN_POINT ( 'NONE',  ( 9.828178694158099304, -20.00000000000000000, 10.00000000000000000 ) ) ;
#128 = EDGE_CURVE ( 'NONE', #199, #419, #111, .T. ) ;
#129 = AXIS2_PLACEMENT_3D ( 'NONE', #250, #121, #402 ) ;
#130 = CYLINDRICAL_SURFACE ( 'NONE', #50, 4.999999999999997335 ) ;
#131 = VERTEX_POINT ( 'NONE', #165 ) ;
#132 = ORIENTED_EDGE ( 'NONE', *, *, #107, .T. ) ;
#133 = ORIENTED_EDGE ( 'NONE', *, *, #421, .F. ) ;
#134 = EDGE_LOOP ( 'NONE', ( #155, #93 ) ) ;
#135 = CIRCLE ( 'NONE', #392, 4.999999999999997335 ) ;
#136 = FACE_OUTER_BOUND ( 'NONE', #420, .T. ) ;
#137 = COORDINATED_UNIVERSAL_TIME_OFFSET ( 8, 0, .AHEAD. ) ;
#138 = DIRECTION ( 'NONE',  ( 0.000000000000000000, 0.000000000000000000, 1.000000000000000000 ) ) ;
#139 = ADVANCED_FACE ( 'NONE', ( #304 ), #180, .F. ) ;
#140 = VECTOR ( 'NONE', #182, 1000.000000000000000 ) ;
#141 = LOCAL_TIME ( 8, 45, 42.00000000000000000, #358 ) ;
#142 = DATE_AND_TIME ( #319, #176 ) ;
#143 = APPROVAL_DATE_TIME ( #360, #144 ) ;
#144 = APPROVAL ( #43, '未指定' ) ;
#145 = ORIENTED_EDGE ( 'NONE', *, *, #177, .T. ) ;
#146 = CIRCLE ( 'NONE', #70, 5.000000000000000888 ) ;
#147 = VERTEX_POINT ( 'NONE', #331 ) ;
#148 = CARTESIAN_POINT ( 'NONE',  ( 69.82817869415809753, 0.000000000000000000, 0.000000000000000000 ) ) ;
#149 = CARTESIAN_POINT ( 'NONE',  ( 14.82817869415809930, -20.00000000000000000, 10.00000000000000000 ) ) ;
#150 = FACE_BOUND ( 'NONE', #169, .T. ) ;
#151 = DIRECTION ( 'NONE',  ( 0.000000000000000000, 0.000000000000000000, 1.000000000000000000 ) ) ;
#152 = CARTESIAN_POINT ( 'NONE',  ( 0.000000000000000000, 0.000000000000000000, 10.00000000000000000 ) ) ;
#153 = CARTESIAN_POINT ( 'NONE',  ( -50.17182130584190247, 0.000000000000000000, 10.00000000000000000 ) ) ;
#154 = EDGE_CURVE ( 'NONE', #147, #343, #248, .T. ) ;
#155 = ORIENTED_EDGE ( 'NONE', *, *, #74, .T. ) ;
#156 = DIRECTION ( 'NONE',  ( 0.000000000000000000, 0.000000000000000000, 1.000000000000000000 ) ) ;
#157 = DIRECTION ( 'NONE',  ( 0.000000000000000000, 0.000000000000000000, 1.000000000000000000 ) ) ;
#158 = AXIS2_PLACEMENT_3D ( 'NONE', #354, #103, #201 ) ;
#159 = EDGE_LOOP ( 'NONE', ( #55, #215, #264, #226 ) ) ;
#160 = CARTESIAN_POINT ( 'NONE',  ( -50.17182130584190247, -50.00000000000000000, 10.00000000000000000 ) ) ;
#161 = DIRECTION ( 'NONE',  ( -1.000000000000000000, 0.000000000000000000, 0.000000000000000000 ) ) ;
#162 = ORIENTED_EDGE ( 'NONE', *, *, #436, .T. ) ;
#163 = ADVANCED_FACE ( 'NONE', ( #258 ), #452, .F. ) ;
#164 = DIRECTION ( 'NONE',  ( 0.000000000000000000, 0.000000000000000000, -1.000000000000000000 ) ) ;
#165 = CARTESIAN_POINT ( 'NONE',  ( 34.82817869415809753, -30.00000000000000000, 0.000000000000000000 ) ) ;
#166 = ADVANCED_FACE ( 'NONE', ( #423 ), #68, .F. ) ;
#167 = ORIENTED_EDGE ( 'NONE', *, *, #246, .T. ) ;
#168 = VECTOR ( 'NONE', #164, 1000.000000000000000 ) ;
#169 = EDGE_LOOP ( 'NONE', ( #349, #132 ) ) ;
#170 = VERTEX_POINT ( 'NONE', #238 ) ;
#171 = PERSON ( '未指定', '未指定', '未指定', ('未指定'), ('未指定'), ('未指定') ) ;
#172 = AXIS2_PLACEMENT_3D ( 'NONE', #152, #18, #194 ) ;
#173 = VERTEX_POINT ( 'NONE', #387 ) ;
#174 = CC_DESIGN_DATE_AND_TIME_ASSIGNMENT ( #245, #209, ( #49 ) ) ;
#175 = PERSON_AND_ORGANIZATION ( #171, #191 ) ;
#176 = LOCAL_TIME ( 8, 45, 42.00000000000000000, #280 ) ;
#177 = EDGE_CURVE ( 'NONE', #170, #231, #208, .T. ) ;
#178 = EDGE_CURVE ( 'NONE', #455, #186, #307, .T. ) ;
#179 = AXIS2_PLACEMENT_3D ( 'NONE', #291, #157, #98 ) ;
#180 = CYLINDRICAL_SURFACE ( 'NONE', #94, 5.000000000000000000 ) ;
#181 = CARTESIAN_POINT ( 'NONE',  ( 69.82817869415809753, 0.000000000000000000, 10.00000000000000000 ) ) ;
#182 = DIRECTION ( 'NONE',  ( 0.000000000000000000, 0.000000000000000000, -1.000000000000000000 ) ) ;
#183 = DIRECTION ( 'NONE',  ( 1.000000000000000000, 0.000000000000000000, 0.000000000000000000 ) ) ;
#184 = EDGE_CURVE ( 'NONE', #122, #147, #123, .T. ) ;
#185 = CARTESIAN_POINT ( 'NONE',  ( 34.82817869415809753, -30.00000000000000000, 10.00000000000000000 ) ) ;
#186 = VERTEX_POINT ( 'NONE', #83 ) ;
#187 = CARTESIAN_POINT ( 'NONE',  ( 14.82817869415809930, -20.00000000000000000, 0.000000000000000000 ) ) ;
#188 = ORIENTED_EDGE ( 'NONE', *, *, #3, .F. ) ;
#189 = CARTESIAN_POINT ( 'NONE',  ( 39.82817869415809753, -30.00000000000000000, 10.00000000000000000 ) ) ;
#190 = CIRCLE ( 'NONE', #337, 4.999999999999997335 ) ;
#191 = ORGANIZATION ( '未指定', '未指定', '' ) ;
#192 = EDGE_LOOP ( 'NONE', ( #222, #198, #434, #306 ) ) ;
#193 = DIRECTION ( 'NONE',  ( 0.000000000000000000, 0.000000000000000000, -1.000000000000000000 ) ) ;
#194 = DIRECTION ( 'NONE',  ( 1.000000000000000000, 0.000000000000000000, 0.000000000000000000 ) ) ;
#195 = FACE_OUTER_BOUND ( 'NONE', #418, .T. ) ;
#196 = ORIENTED_EDGE ( 'NONE', *, *, #74, .F. ) ;
#197 = EDGE_CURVE ( 'NONE', #365, #122, #339, .T. ) ;
#198 = ORIENTED_EDGE ( 'NONE', *, *, #246, .F. ) ;
#199 = VERTEX_POINT ( 'NONE', #366 ) ;
#200 = VECTOR ( 'NONE', #293, 1000.000000000000000 ) ;
#201 = DIRECTION ( 'NONE',  ( -2.775557561562890365E-16, 1.000000000000000000, 0.000000000000000000 ) ) ;
#202 = CIRCLE ( 'NONE', #7, 5.000000000000000888 ) ;
#203 = ORIENTED_EDGE ( 'NONE', *, *, #216, .F. ) ;
#204 = EDGE_CURVE ( 'NONE', #419, #100, #220, .T. ) ;
#205 = VECTOR ( 'NONE', #161, 1000.000000000000000 ) ;
#206 = EDGE_CURVE ( 'NONE', #413, #122, #80, .T. ) ;
#207 = APPLICATION_PROTOCOL_DEFINITION ( 'international standard', 'config_control_design', 1994, #5 ) ;
#208 = LINE ( 'NONE', #86, #140 ) ;
#209 = DATE_TIME_ROLE ( 'creation_date' ) ;
#210 = PERSON_AND_ORGANIZATION_ROLE ( 'creator' ) ;
#211 = CIRCLE ( 'NONE', #314, 5.000000000000000888 ) ;
#212 = PRODUCT_DEFINITION_FORMATION_WITH_SPECIFIED_SOURCE ( '任何', '', #71, .NOT_KNOWN. ) ;
#213 = EDGE_LOOP ( 'NONE', ( #324, #64, #29, #350 ) ) ;
#214 = DIRECTION ( 'NONE',  ( 0.000000000000000000, -1.000000000000000000, 0.000000000000000000 ) ) ;
#215 = ORIENTED_EDGE ( 'NONE', *, *, #206, .F. ) ;
#216 = EDGE_CURVE ( 'NONE', #431, #170, #33, .T. ) ;
#217 = CARTESIAN_POINT ( 'NONE',  ( 69.82817869415809753, 0.000000000000000000, 0.000000000000000000 ) ) ;
#218 = DIRECTION ( 'NONE',  ( 0.000000000000000000, 0.000000000000000000, -1.000000000000000000 ) ) ;
#219 = ORIENTED_EDGE ( 'NONE', *, *, #266, .T. ) ;
#220 = LINE ( 'NONE', #91, #200 ) ;
#221 = PLANE ( 'NONE',  #172 ) ;
#222 = ORIENTED_EDGE ( 'NONE', *, *, #154, .T. ) ;
#223 = CARTESIAN_POINT ( 'NONE',  ( 39.82817869415809753, -30.00000000000000000, 10.00000000000000000 ) ) ;
#224 = CARTESIAN_POINT ( 'NONE',  ( 9.828178694158099304, -20.00000000000000000, 10.00000000000000000 ) ) ;
#225 = CLOSED_SHELL ( 'NONE', ( #13, #359, #317, #78, #355, #166, #458, #371, #403, #445, #163, #139 ) ) ;
#226 = ORIENTED_EDGE ( 'NONE', *, *, #65, .T. ) ;
#227 = CARTESIAN_POINT ( 'NONE',  ( -50.17182130584190247, 0.000000000000000000, 0.000000000000000000 ) ) ;
#228 = ORIENTED_EDGE ( 'NONE', *, *, #67, .F. ) ;
#229 = CARTESIAN_POINT ( 'NONE',  ( 34.82817869415809753, -30.00000000000000000, 10.00000000000000000 ) ) ;
#230 = FACE_BOUND ( 'NONE', #444, .T. ) ;
#231 = VERTEX_POINT ( 'NONE', #362 ) ;
#232 = VERTEX_POINT ( 'NONE', #396 ) ;
#233 = EDGE_CURVE ( 'NONE', #41, #232, #427, .T. ) ;
#234 = APPROVAL_PERSON_ORGANIZATION ( #429, #308, #10 ) ;
#235 = PERSON_AND_ORGANIZATION ( #171, #191 ) ;
#236 = CC_DESIGN_DATE_AND_TIME_ASSIGNMENT ( #142, #353, ( #416 ) ) ;
#237 = DIRECTION ( 'NONE',  ( 1.000000000000000000, 0.000000000000000000, 0.000000000000000000 ) ) ;
#238 = CARTESIAN_POINT ( 'NONE',  ( 44.82817869415809753, -30.00000000000000000, 10.00000000000000000 ) ) ;
#239 = AXIS2_PLACEMENT_3D ( 'NONE', #25, #252, #404 ) ;
#240 = CALENDAR_DATE ( 2026, 9, 4 ) ;
#241 = FACE_OUTER_BOUND ( 'NONE', #61, .T. ) ;
#242 = APPROVAL_DATE_TIME ( #77, #308 ) ;
#243 = PERSON_AND_ORGANIZATION_ROLE ( 'creator' ) ;
#244 = CIRCLE ( 'NONE', #22, 4.999999999999997335 ) ;
#245 = DATE_AND_TIME ( #240, #141 ) ;
#246 = EDGE_CURVE ( 'NONE', #105, #343, #301, .T. ) ;
#247 = ORIENTED_EDGE ( 'NONE', *, *, #279, .T. ) ;
#248 = LINE ( 'NONE', #442, #351 ) ;
#249 = CARTESIAN_POINT ( 'NONE',  ( 9.828178694158099304, -20.00000000000000000, 0.000000000000000000 ) ) ;
#250 = CARTESIAN_POINT ( 'NONE',  ( -20.17182130584189892, -30.00000000000000000, 10.00000000000000000 ) ) ;
#251 = DIRECTION ( 'NONE',  ( 0.000000000000000000, 1.000000000000000000, 0.000000000000000000 ) ) ;
#252 = DIRECTION ( 'NONE',  ( 0.000000000000000000, 0.000000000000000000, 1.000000000000000000 ) ) ;
#253 = CARTESIAN_POINT ( 'NONE',  ( 9.828178694158099304, -20.00000000000000000, 10.00000000000000000 ) ) ;
#254 = AXIS2_PLACEMENT_3D ( 'NONE', #385, #138, #275 ) ;
#255 = FACE_OUTER_BOUND ( 'NONE', #334, .T. ) ;
#256 = DIRECTION ( 'NONE',  ( 1.000000000000000000, 0.000000000000000000, 0.000000000000000000 ) ) ;
#257 = ORIENTED_EDGE ( 'NONE', *, *, #47, .F. ) ;
#258 = FACE_OUTER_BOUND ( 'NONE', #267, .T. ) ;
#259 = VECTOR ( 'NONE', #411, 1000.000000000000000 ) ;
#260 = DIRECTION ( 'NONE',  ( 0.000000000000000000, 0.000000000000000000, -1.000000000000000000 ) ) ;
#261 = DIRECTION ( 'NONE',  ( 0.000000000000000000, 0.000000000000000000, 1.000000000000000000 ) ) ;
#262 = CARTESIAN_POINT ( 'NONE',  ( 69.82817869415809753, -50.00000000000000000, 0.000000000000000000 ) ) ;
#263 = APPROVAL_PERSON_ORGANIZATION ( #272, #144, #101 ) ;
#264 = ORIENTED_EDGE ( 'NONE', *, *, #380, .F. ) ;
#265 = CARTESIAN_POINT ( 'NONE',  ( -20.17182130584189892, -30.00000000000000000, 0.000000000000000000 ) ) ;
#266 = EDGE_CURVE ( 'NONE', #455, #41, #409, .T. ) ;
#267 = EDGE_LOOP ( 'NONE', ( #369, #383, #247, #228 ) ) ;
#268 = ORIENTED_EDGE ( 'NONE', *, *, #119, .T. ) ;
#269 = DIRECTION ( 'NONE',  ( 0.000000000000000000, 0.000000000000000000, 1.000000000000000000 ) ) ;
#270 = VECTOR ( 'NONE', #84, 1000.000000000000000 ) ;
#271 = CC_DESIGN_APPROVAL ( #308, ( #416 ) ) ;
#272 = PERSON_AND_ORGANIZATION ( #171, #191 ) ;
#273 = DIRECTION ( 'NONE',  ( 1.000000000000000000, 0.000000000000000000, 0.000000000000000000 ) ) ;
#274 = EDGE_CURVE ( 'NONE', #199, #398, #414, .T. ) ;
#275 = DIRECTION ( 'NONE',  ( 1.000000000000000000, 0.000000000000000000, 0.000000000000000000 ) ) ;
#276 = CARTESIAN_POINT ( 'NONE',  ( 9.828178694158099304, -20.00000000000000000, 10.00000000000000000 ) ) ;
#277 = AXIS2_PLACEMENT_3D ( 'NONE', #397, #368, #27 ) ;
#278 = DIRECTION ( 'NONE',  ( 0.000000000000000000, 0.000000000000000000, -1.000000000000000000 ) ) ;
#279 = EDGE_CURVE ( 'NONE', #431, #131, #451, .T. ) ;
#280 = COORDINATED_UNIVERSAL_TIME_OFFSET ( 8, 0, .AHEAD. ) ;
#281 = PERSON_AND_ORGANIZATION ( #171, #191 ) ;
#282 = ORIENTED_EDGE ( 'NONE', *, *, #333, .F. ) ;
#283 = APPROVAL_DATE_TIME ( #109, #35 ) ;
#284 = VECTOR ( 'NONE', #447, 1000.000000000000000 ) ;
#285 = CC_DESIGN_PERSON_AND_ORGANIZATION_ASSIGNMENT ( #235, #40, ( #71 ) ) ;
#286 = AXIS2_PLACEMENT_3D ( 'NONE', #6, #278, #428 ) ;
#287 = CARTESIAN_POINT ( 'NONE',  ( 4.828178694158099304, -20.00000000000000000, 0.000000000000000000 ) ) ;
#288 = CARTESIAN_POINT ( 'NONE',  ( -50.17182130584190247, -50.00000000000000000, 10.00000000000000000 ) ) ;
#289 = EDGE_LOOP ( 'NONE', ( #102, #348, #99, #321 ) ) ;
#290 = DIRECTION ( 'NONE',  ( -1.000000000000000000, 0.000000000000000000, 0.000000000000000000 ) ) ;
#291 = CARTESIAN_POINT ( 'NONE',  ( 0.000000000000000000, 0.000000000000000000, 0.000000000000000000 ) ) ;
#292 =( NAMED_UNIT ( * ) SI_UNIT ( $, .STERADIAN. ) SOLID_ANGLE_UNIT ( ) );
#293 = DIRECTION ( 'NONE',  ( 0.000000000000000000, 0.000000000000000000, -1.000000000000000000 ) ) ;
#294 = CARTESIAN_POINT ( 'NONE',  ( 9.828178694158099304, -20.00000000000000000, 0.000000000000000000 ) ) ;
#295 = ORIENTED_EDGE ( 'NONE', *, *, #266, .F. ) ;
#296 = CARTESIAN_POINT ( 'NONE',  ( -50.17182130584190247, 0.000000000000000000, 10.00000000000000000 ) ) ;
#297 = CC_DESIGN_SECURITY_CLASSIFICATION ( #416, ( #212 ) ) ;
#298 = DIRECTION ( 'NONE',  ( 0.000000000000000000, 0.000000000000000000, -1.000000000000000000 ) ) ;
#299 = CALENDAR_DATE ( 2026, 9, 4 ) ;
#300 = ORIENTED_EDGE ( 'NONE', *, *, #233, .F. ) ;
#301 = LINE ( 'NONE', #446, #168 ) ;
#302 = DIRECTION ( 'NONE',  ( -1.000000000000000000, 0.000000000000000000, 0.000000000000000000 ) ) ;
#303 = LINE ( 'NONE', #448, #85 ) ;
#304 = FACE_OUTER_BOUND ( 'NONE', #213, .T. ) ;
#305 = FACE_BOUND ( 'NONE', #361, .T. ) ;
#306 = ORIENTED_EDGE ( 'NONE', *, *, #106, .T. ) ;
#307 = CIRCLE ( 'NONE', #104, 5.000000000000000888 ) ;
#308 = APPROVAL ( #8, '未指定' ) ;
#309 = EDGE_LOOP ( 'NONE', ( #310, #162, #32, #456 ) ) ;
#310 = ORIENTED_EDGE ( 'NONE', *, *, #344, .T. ) ;
#311 = ORIENTED_EDGE ( 'NONE', *, *, #436, .F. ) ;
#312 = EDGE_CURVE ( 'NONE', #413, #37, #59, .T. ) ;
#313 = ORIENTED_EDGE ( 'NONE', *, *, #3, .T. ) ;
#314 = AXIS2_PLACEMENT_3D ( 'NONE', #31, #367, #56 ) ;
#315 = DIRECTION ( 'NONE',  ( 0.000000000000000000, 0.000000000000000000, 1.000000000000000000 ) ) ;
#316 = ORIENTED_EDGE ( 'NONE', *, *, #437, .F. ) ;
#317 = ADVANCED_FACE ( 'NONE', ( #440 ), #28, .F. ) ;
#318 = LOCAL_TIME ( 8, 45, 42.00000000000000000, #137 ) ;
#319 = CALENDAR_DATE ( 2026, 9, 4 ) ;
#320 = APPROVAL_ROLE ( '' ) ;
#321 = ORIENTED_EDGE ( 'NONE', *, *, #206, .T. ) ;
#322 = CC_DESIGN_PERSON_AND_ORGANIZATION_ASSIGNMENT ( #389, #46, ( #416 ) ) ;
#323 = VECTOR ( 'NONE', #260, 1000.000000000000000 ) ;
#324 = ORIENTED_EDGE ( 'NONE', *, *, #204, .F. ) ;
#325 = DIRECTION ( 'NONE',  ( 0.000000000000000000, 0.000000000000000000, -1.000000000000000000 ) ) ;
#326 = CC_DESIGN_APPROVAL ( #35, ( #212 ) ) ;
#327 = CARTESIAN_POINT ( 'NONE',  ( -20.17182130584189892, -30.00000000000000000, 10.00000000000000000 ) ) ;
#328 = CARTESIAN_POINT ( 'NONE',  ( 69.82817869415809753, -50.00000000000000000, 10.00000000000000000 ) ) ;
#329 = DIRECTION ( 'NONE',  ( 0.000000000000000000, 1.000000000000000000, 0.000000000000000000 ) ) ;
#330 = ORIENTED_EDGE ( 'NONE', *, *, #128, .T. ) ;
#331 = CARTESIAN_POINT ( 'NONE',  ( -50.17182130584190247, 0.000000000000000000, 0.000000000000000000 ) ) ;
#332 = CARTESIAN_POINT ( 'NONE',  ( -25.17182130584190247, -30.00000000000000000, 10.00000000000000000 ) ) ;
#333 = EDGE_CURVE ( 'NONE', #186, #232, #449, .T. ) ;
#334 = EDGE_LOOP ( 'NONE', ( #66, #145, #196, #69 ) ) ;
#335 = DIRECTION ( 'NONE',  ( 0.000000000000000000, 1.000000000000000000, 0.000000000000000000 ) ) ;
#336 = DIRECTION ( 'NONE',  ( 0.000000000000000000, 0.000000000000000000, 1.000000000000000000 ) ) ;
#337 = AXIS2_PLACEMENT_3D ( 'NONE', #62, #26, #120 ) ;
#338 = CC_DESIGN_APPROVAL ( #144, ( #49 ) ) ;
#339 = LINE ( 'NONE', #217, #401 ) ;
#340 = DESIGN_CONTEXT ( 'detailed design', #51, 'design' ) ;
#341 = CARTESIAN_POINT ( 'NONE',  ( -50.17182130584190247, 0.000000000000000000, 10.00000000000000000 ) ) ;
#342 = DIRECTION ( 'NONE',  ( 0.000000000000000000, 0.000000000000000000, -1.000000000000000000 ) ) ;
#343 = VERTEX_POINT ( 'NONE', #19 ) ;
#344 = EDGE_CURVE ( 'NONE', #37, #105, #406, .T. ) ;
#345 = ORIENTED_EDGE ( 'NONE', *, *, #274, .F. ) ;
#346 = VECTOR ( 'NONE', #342, 1000.000000000000000 ) ;
#347 = AXIS2_PLACEMENT_3D ( 'NONE', #288, #251, #394 ) ;
#348 = ORIENTED_EDGE ( 'NONE', *, *, #106, .F. ) ;
#349 = ORIENTED_EDGE ( 'NONE', *, *, #421, .T. ) ;
#350 = ORIENTED_EDGE ( 'NONE', *, *, #107, .F. ) ;
#351 = VECTOR ( 'NONE', #124, 1000.000000000000000 ) ;
#352 = MECHANICAL_CONTEXT ( 'NONE', #5, 'mechanical' ) ;
#353 = DATE_TIME_ROLE ( 'classification_date' ) ;
#354 = CARTESIAN_POINT ( 'NONE',  ( -50.17182130584190247, 0.000000000000000000, 10.00000000000000000 ) ) ;
#355 = ADVANCED_FACE ( 'NONE', ( #195, #305, #408, #150 ), #453, .F. ) ;
#356 = PERSON_AND_ORGANIZATION ( #171, #191 ) ;
#357 = AXIS2_PLACEMENT_3D ( 'NONE', #294, #261, #256 ) ;
#358 = COORDINATED_UNIVERSAL_TIME_OFFSET ( 8, 0, .AHEAD. ) ;
#359 = ADVANCED_FACE ( 'NONE', ( #255 ), #130, .F. ) ;
#360 = DATE_AND_TIME ( #299, #318 ) ;
#361 = EDGE_LOOP ( 'NONE', ( #313, #58 ) ) ;
#362 = CARTESIAN_POINT ( 'NONE',  ( 44.82817869415809753, -30.00000000000000000, 0.000000000000000000 ) ) ;
#363 = VECTOR ( 'NONE', #399, 1000.000000000000000 ) ;
#364 =( NAMED_UNIT ( * ) PLANE_ANGLE_UNIT ( ) SI_UNIT ( $, .RADIAN. ) );
#365 = VERTEX_POINT ( 'NONE', #262 ) ;
#366 = CARTESIAN_POINT ( 'NONE',  ( 4.828178694158099304, -20.00000000000000000, 10.00000000000000000 ) ) ;
#367 = DIRECTION ( 'NONE',  ( 0.000000000000000000, 0.000000000000000000, 1.000000000000000000 ) ) ;
#368 = DIRECTION ( 'NONE',  ( -1.000000000000000000, 0.000000000000000000, 0.000000000000000000 ) ) ;
#369 = ORIENTED_EDGE ( 'NONE', *, *, #177, .F. ) ;
#370 = LINE ( 'NONE', #341, #270 ) ;
#371 = ADVANCED_FACE ( 'NONE', ( #92 ), #417, .F. ) ;
#372 = CARTESIAN_POINT ( 'NONE',  ( -50.17182130584190247, 0.000000000000000000, 10.00000000000000000 ) ) ;
#373 = CIRCLE ( 'NONE', #379, 5.000000000000000888 ) ;
#374 = ORIENTED_EDGE ( 'NONE', *, *, #178, .T. ) ;
#375 = DIRECTION ( 'NONE',  ( 1.000000000000000000, 0.000000000000000000, 0.000000000000000000 ) ) ;
#376 = ORIENTED_EDGE ( 'NONE', *, *, #204, .T. ) ;
#377 = CARTESIAN_POINT ( 'NONE',  ( -15.17182130584189892, -30.00000000000000000, 10.00000000000000000 ) ) ;
#378 = CARTESIAN_POINT ( 'NONE',  ( -15.17182130584189892, -30.00000000000000000, 0.000000000000000000 ) ) ;
#379 = AXIS2_PLACEMENT_3D ( 'NONE', #265, #315, #237 ) ;
#380 = EDGE_CURVE ( 'NONE', #173, #413, #303, .T. ) ;
#381 = FACE_BOUND ( 'NONE', #16, .T. ) ;
#382 = EDGE_LOOP ( 'NONE', ( #441, #90, #311, #167 ) ) ;
#383 = ORIENTED_EDGE ( 'NONE', *, *, #36, .T. ) ;
#384 = ORIENTED_EDGE ( 'NONE', *, *, #36, .F. ) ;
#385 = CARTESIAN_POINT ( 'NONE',  ( 0.000000000000000000, 0.000000000000000000, 0.000000000000000000 ) ) ;
#386 = VECTOR ( 'NONE', #117, 1000.000000000000000 ) ;
#387 = CARTESIAN_POINT ( 'NONE',  ( 69.82817869415809753, -50.00000000000000000, 10.00000000000000000 ) ) ;
#388 = CC_DESIGN_PERSON_AND_ORGANIZATION_ASSIGNMENT ( #281, #243, ( #212 ) ) ;
#389 = PERSON_AND_ORGANIZATION ( #171, #191 ) ;
#390 = CYLINDRICAL_SURFACE ( 'NONE', #286, 5.000000000000000888 ) ;
#391 = SHAPE_DEFINITION_REPRESENTATION ( #425, #38 ) ;
#392 = AXIS2_PLACEMENT_3D ( 'NONE', #189, #156, #183 ) ;
#393 = SECURITY_CLASSIFICATION_LEVEL ( 'unclassified' ) ;
#394 = DIRECTION ( 'NONE',  ( 0.000000000000000000, 0.000000000000000000, 1.000000000000000000 ) ) ;
#395 = CALENDAR_DATE ( 2026, 9, 4 ) ;
#396 = CARTESIAN_POINT ( 'NONE',  ( -25.17182130584190247, -30.00000000000000000, 0.000000000000000000 ) ) ;
#397 = CARTESIAN_POINT ( 'NONE',  ( 69.82817869415809753, 0.000000000000000000, 10.00000000000000000 ) ) ;
#398 = VERTEX_POINT ( 'NONE', #287 ) ;
#399 = DIRECTION ( 'NONE',  ( -1.000000000000000000, 0.000000000000000000, 0.000000000000000000 ) ) ;
#400 = DIRECTION ( 'NONE',  ( 1.000000000000000000, 0.000000000000000000, 0.000000000000000000 ) ) ;
#401 = VECTOR ( 'NONE', #335, 1000.000000000000000 ) ;
#402 = DIRECTION ( 'NONE',  ( -1.000000000000000000, 0.000000000000000000, 0.000000000000000000 ) ) ;
#403 = ADVANCED_FACE ( 'NONE', ( #88 ), #116, .F. ) ;
#404 = DIRECTION ( 'NONE',  ( 1.000000000000000000, 0.000000000000000000, 0.000000000000000000 ) ) ;
#405 = DIRECTION ( 'NONE',  ( 0.000000000000000000, 0.000000000000000000, -1.000000000000000000 ) ) ;
#406 = LINE ( 'NONE', #372, #259 ) ;
#407 = CARTESIAN_POINT ( 'NONE',  ( 39.82817869415809753, -30.00000000000000000, 0.000000000000000000 ) ) ;
#408 = FACE_BOUND ( 'NONE', #134, .T. ) ;
#409 = LINE ( 'NONE', #377, #323 ) ;
#410 = CARTESIAN_POINT ( 'NONE',  ( -50.17182130584190247, -50.00000000000000000, 0.000000000000000000 ) ) ;
#411 = DIRECTION ( 'NONE',  ( 2.775557561562890365E-16, -1.000000000000000000, 0.000000000000000000 ) ) ;
#412 = AXIS2_PLACEMENT_3D ( 'NONE', #223, #114, #30 ) ;
#413 = VERTEX_POINT ( 'NONE', #181 ) ;
#414 = LINE ( 'NONE', #126, #454 ) ;
#415 = CARTESIAN_POINT ( 'NONE',  ( 39.82817869415809753, -30.00000000000000000, 10.00000000000000000 ) ) ;
#416 = SECURITY_CLASSIFICATION ( '', '', #393 ) ;
#417 = PLANE ( 'NONE',  #277 ) ;
#418 = EDGE_LOOP ( 'NONE', ( #112, #9, #52, #257 ) ) ;
#419 = VERTEX_POINT ( 'NONE', #149 ) ;
#420 = EDGE_LOOP ( 'NONE', ( #330, #376, #133, #345 ) ) ;
#421 = EDGE_CURVE ( 'NONE', #398, #100, #202, .T. ) ;
#422 = AXIS2_PLACEMENT_3D ( 'NONE', #415, #325, #290 ) ;
#423 = FACE_OUTER_BOUND ( 'NONE', #192, .T. ) ;
#424 = PRODUCT_RELATED_PRODUCT_CATEGORY ( 'detail', '', ( #71 ) ) ;
#425 = PRODUCT_DEFINITION_SHAPE ( 'NONE', 'NONE',  #49 ) ;
#426 = DIRECTION ( 'NONE',  ( 1.000000000000000000, 0.000000000000000000, 0.000000000000000000 ) ) ;
#427 = CIRCLE ( 'NONE', #239, 5.000000000000000888 ) ;
#428 = DIRECTION ( 'NONE',  ( -1.000000000000000000, 0.000000000000000000, 0.000000000000000000 ) ) ;
#429 = PERSON_AND_ORGANIZATION ( #171, #191 ) ;
#430 = APPROVAL_STATUS ( 'not_yet_approved' ) ;
#431 = VERTEX_POINT ( 'NONE', #185 ) ;
#432 = AXIS2_PLACEMENT_3D ( 'NONE', #127, #113, #400 ) ;
#433 = CALENDAR_DATE ( 2026, 9, 4 ) ;
#434 = ORIENTED_EDGE ( 'NONE', *, *, #344, .F. ) ;
#435 = DIRECTION ( 'NONE',  ( -1.000000000000000000, 0.000000000000000000, 0.000000000000000000 ) ) ;
#436 = EDGE_CURVE ( 'NONE', #105, #173, #4, .T. ) ;
#437 = EDGE_CURVE ( 'NONE', #419, #199, #146, .T. ) ;
#438 = FACE_OUTER_BOUND ( 'NONE', #382, .T. ) ;
#439 = DIRECTION ( 'NONE',  ( 0.000000000000000000, 0.000000000000000000, -1.000000000000000000 ) ) ;
#440 = FACE_OUTER_BOUND ( 'NONE', #459, .T. ) ;
#441 = ORIENTED_EDGE ( 'NONE', *, *, #47, .T. ) ;
#442 = CARTESIAN_POINT ( 'NONE',  ( -50.17182130584190247, 0.000000000000000000, 0.000000000000000000 ) ) ;
#443 = DIRECTION ( 'NONE',  ( -1.000000000000000000, 0.000000000000000000, 0.000000000000000000 ) ) ;
#444 = EDGE_LOOP ( 'NONE', ( #23, #450 ) ) ;
#445 = ADVANCED_FACE ( 'NONE', ( #241 ), #390, .F. ) ;
#446 = CARTESIAN_POINT ( 'NONE',  ( -50.17182130584190247, -50.00000000000000000, 10.00000000000000000 ) ) ;
#447 = DIRECTION ( 'NONE',  ( 1.000000000000000000, 0.000000000000000000, 0.000000000000000000 ) ) ;
#448 = CARTESIAN_POINT ( 'NONE',  ( 69.82817869415809753, 0.000000000000000000, 10.00000000000000000 ) ) ;
#449 = LINE ( 'NONE', #332, #386 ) ;
#450 = ORIENTED_EDGE ( 'NONE', *, *, #178, .F. ) ;
#451 = LINE ( 'NONE', #229, #346 ) ;
#452 = CYLINDRICAL_SURFACE ( 'NONE', #422, 4.999999999999997335 ) ;
#453 = PLANE ( 'NONE',  #179 ) ;
#454 = VECTOR ( 'NONE', #96, 1000.000000000000000 ) ;
#455 = VERTEX_POINT ( 'NONE', #82 ) ;
#456 = ORIENTED_EDGE ( 'NONE', *, *, #312, .T. ) ;
#457 = CYLINDRICAL_SURFACE ( 'NONE', #2, 5.000000000000000000 ) ;
#458 = ADVANCED_FACE ( 'NONE', ( #438 ), #11, .F. ) ;
#459 = EDGE_LOOP ( 'NONE', ( #268, #219, #188, #282 ) ) ;
ENDSEC;
END-ISO-10303-21;
